<svg xmlns="http://www.w3.org/2000/svg" width="252.725" height="22.825" viewBox="0 0 252.725 22.825">
  <path id="パス_153" data-name="パス 153" d="M-125.537,0h4.325c5.575,0,8.325-3.6,8.325-9.175s-2.75-9.05-8.35-9.05h-4.3Zm1.5-1.275v-15.7h2.65c4.8,0,6.925,3.075,6.925,7.8s-2.125,7.9-6.925,7.9Zm19.925-9.35c.725-2.125,1.35-4.05,1.975-6.25h.1c.65,2.2,1.25,4.125,2,6.25l1.1,3.3h-6.3ZM-109.213,0h1.5l2.075-6.125h7.1L-96.512,0h1.6l-6.375-18.225h-1.55Zm17.8,0h12.275V-1.3h-10.4l10.275-16.05v-.875H-90.487v1.275h9.375L-91.412-.875Zm16.675,0h12.275V-1.3h-10.4l10.275-16.05v-.875H-73.812v1.275h9.375L-74.738-.875Zm18.475,0h9.8V-1.3h-8.3V-18.225h-1.5Zm15.3,0h10.35V-1.3h-8.85V-9.025h7.225V-10.3h-7.225v-6.65h8.575v-1.275H-40.963ZM-9.838.325A7.391,7.391,0,0,0-4.363-1.75V-9.075h-5.675V-7.8h4.225v5.475a5.657,5.657,0,0,1-3.875,1.3c-4.1,0-6.475-3.175-6.475-8.15,0-4.925,2.525-8.025,6.575-8.025a5.331,5.331,0,0,1,4.15,1.825l.875-.975a6.713,6.713,0,0,0-5.05-2.2c-4.8,0-8.125,3.6-8.125,9.425S-14.513.325-9.838.325ZM2.487,0h1.5V-8.225H7.712L12.562,0h1.7L9.337-8.35c2.775-.425,4.55-2.1,4.55-5,0-3.55-2.45-4.875-6.075-4.875H2.487Zm1.5-9.475v-7.5H7.462c3.15,0,4.9.975,4.9,3.625,0,2.625-1.75,3.875-4.9,3.875Zm18.6-1.15c.725-2.125,1.35-4.05,1.975-6.25h.1c.65,2.2,1.25,4.125,2,6.25l1.1,3.3h-6.3ZM17.488,0h1.5l2.075-6.125h7.1L30.188,0h1.6L25.413-18.225h-1.55ZM39.412,0h1.5V-7.325l5.475-10.9h-1.55L42.162-12.65c-.575,1.325-1.25,2.6-1.95,3.95h-.1c-.675-1.35-1.25-2.625-1.9-3.95l-2.675-5.575h-1.6l5.475,10.9Zm25.25-11.4H59.188v1.1h12.4v-1.1H65.863v-4.575h6.5v-1.1h-6.5v-3.75h-1.2v3.75h-6.35v1.1h6.35Zm-7.775-9.425H55.763V-9.3h1.125Zm-2.325,4.1a13.516,13.516,0,0,0-3.05-2.575l-.775.7a14.119,14.119,0,0,1,3.025,2.675Zm.425,2.5c-1.975.95-3.9,1.85-5.225,2.4l.45,1.075c1.5-.725,3.275-1.575,5-2.375ZM69.762-5.65a31.905,31.905,0,0,1-4.7,2.75,13.291,13.291,0,0,1-2.85-3.525h10.05V-7.45H61.737V-9.625H60.563V-7.45H50.138v1.025h9.275a26.621,26.621,0,0,1-9.6,4.075,5.452,5.452,0,0,1,.75.95,30.406,30.406,0,0,0,5.175-1.8V.15c-1.15.15-2.2.275-3.075.375l.25,1.1c2.7-.35,6.575-.9,10.275-1.425L63.162-.85c-2.15.275-4.325.575-6.275.85V-3.75a18.861,18.861,0,0,0,4.075-2.675h.075a16.377,16.377,0,0,0,10.8,8.35,4.885,4.885,0,0,1,.775-1,17.23,17.23,0,0,1-6.825-3.2,32.389,32.389,0,0,0,4.925-2.7ZM89.088-7.175V-12h7.575v4.825Zm-8.025,0c.075-.95.1-1.9.1-2.775V-12h6.725v4.825ZM87.887-17.85v4.7H81.162v-4.7Zm8.775,4.7H89.088v-4.7h7.575Zm1.2-5.85h-17.9v9.05c0,3.525-.275,7.95-3.05,11.075a3.324,3.324,0,0,1,.925.85,14.711,14.711,0,0,0,3.125-8h6.925v7.65h1.2v-7.65h7.575v5.9c0,.5-.175.65-.65.65-.5.025-2.225.05-4.175,0A3.712,3.712,0,0,1,92.262,1.7a20,20,0,0,0,4.575-.2c.725-.225,1.025-.625,1.025-1.625Zm13,1v6.225h-4.4V-18Zm-4.4,13.725V-10.65h4.4v6.375Zm5.55-14.85h-6.725V-1.2h1.175V-3.15h5.55ZM114.438-5.55a18.515,18.515,0,0,1,3.325,4.5l1.025-.675a18.178,18.178,0,0,0-3.4-4.4Zm12.75-6.125V-12.8h-6.9v-3.75h5.65v-1.1h-5.65v-3.2h-1.175v3.2h-5.5v1.1h5.5v3.75h-6.675v1.125h10.025v3.25h-9.85v1.1h9.85v7.5c0,.35-.1.475-.55.5-.4,0-1.825,0-3.55-.05a4.365,4.365,0,0,1,.425,1.15,20.386,20.386,0,0,0,3.975-.175c.65-.2.875-.6.875-1.425v-7.5h3.225v-1.1h-3.225v-3.25Z" transform="translate(125.537 20.85)" fill="#504f4f"/>
</svg>