<?xml version="1.0" encoding="UTF-8"?>
<svg xmlns="http://www.w3.org/2000/svg" version="1.1" viewBox="0 0 16.5100002 5.3499999">
  <defs>
    <style>
      .cls-1, .cls-2 {
        fill: #5f5f5f;
      }

      .cls-2 {
        stroke: #5f5f5f;
        stroke-linecap: round;
        stroke-linejoin: round;
        stroke-width: .05px;
      }
    </style>
  </defs>
  <!-- Generator: Adobe Illustrator 28.6.0, SVG Export Plug-In . SVG Version: 1.2.0 Build 709)  -->
  <g>
    <g id="_レイヤー_2">
      <g id="lay">
        <g>
          <g>
            <path class="cls-2" d="M.13,4.5100002v-1.9099998c0-.0799999-.03-.1199999-.1-.2h.63c.7900001,0,1.34.3900001,1.34,1.1499999s-.54,1.1500001-1.34,1.1500001H.03c.08-.0799999.1-.1199999.1-.1999998v.0099998ZM.58,4.6599998c.73,0,1.23-.3800001,1.23-1.1100001s-.5-1.1100001-1.23-1.1100001h-.27v2.21h.27v.0100002Z"/>
            <path class="cls-2" d="M3.1900001,2.9400001c.54,0,.9200001.3399999.9200001.9000001s-.3800001.9000001-.9200001.9000001-.9200001-.3400002-.9200001-.9000001.3800001-.9000001.9200001-.9000001ZM3.1900001,4.6900001c.4300001,0,.74-.3299999.74-.8600001s-.3-.8600001-.74-.8600001-.74.3299999-.74.8600001.3.8600001.74.8600001Z"/>
            <path class="cls-2" d="M4.46,4.5100002v-1.9099998c0-.1099999-.0300002-.1400001-.0700002-.1400001-.0300002,0-.0700002.03-.0999999.05v-.03c.0799999-.0799999.1999998-.1900001.27-.1900001.0599999,0,.0700002.05.0700002.2v2.0300002c0,.0799999.0300002.1199999.0999999.1999998h-.3800001c.0799999-.0799999.0999999-.1199999.0999999-.1999998l.0100002-.0100002Z"/>
            <path class="cls-2" d="M5.0799999,4.5100002v-1.9099998c0-.1099999-.0300002-.1400001-.0700002-.1400001-.0300002,0-.0700002.03-.0999999.05v-.03c.0799999-.0799999.1999998-.1900001.27-.1900001.0599999,0,.0700002.05.0700002.2v2.0300002c0,.0799999.0300002.1199999.0999999.1999998h-.3800001c.0799999-.0799999.0999999-.1199999.0999999-.1999998l.0100002-.0100002Z"/>
            <path class="cls-2" d="M5.75,4.5100002v-1.25c0-.1099999-.0300002-.1400001-.0700002-.1400001-.0300002,0-.0700002.03-.0999999.05v-.03c.0799999-.0799999.1999998-.1900001.27-.1900001.0599999,0,.0700002.05.0700002.2v1.3699999c0,.0799999.0300002.1199999.0999999.1999998h-.3800001c.0799999-.0799999.0999999-.1199999.0999999-.1999998l.0100002-.0099998ZM5.8000002,2.3800001c.0900002,0,.1500001.05.1500001.1400001s-.0599999.1400001-.1500001.1400001-.1500001-.05-.1500001-.1400001.0599999-.1400001.1500001-.1400001Z"/>
            <path class="cls-2" d="M7.29,3.1400001l.04.4200001h-.04c-.0700002-.28-.1999998-.5799999-.4499998-.5799999-.1700001,0-.2800002.1500001-.2800002.3199999,0,.45.8600001.53.8600001,1.04,0,.27-.23.4000001-.52.4000001-.3400002,0-.4900002-.1599998-.54-.1999998l-.0700002-.46h.0300002c.1100001.2800002.3299999.6199999.5999999.6199999.1799998,0,.3200002-.1500001.3200002-.3299999,0-.4300001-.8499999-.51-.8499999-1.03,0-.25.1999998-.3900001.4499998-.3900001.29,0,.4099998.1600001.4499998.2v-.0100002Z"/>
            <path class="cls-2" d="M7.7600002,4.5100002v-1.79c0-.3299999.1599998-.4400001.3299999-.4400001.29,0,.3500004.3800001.1400003.73.0600004-.04.1199999-.0699999.1999998-.0699999.1800003,0,.3400002.1400001.3400002.48v1.0899999c0,.0799999.0299997.1199999.1000004.1999998h-.3800001c.0799999-.0799999.1000004-.1199999.1000004-.1999998v-.9300001c0-.28-.0200005-.6000001-.2200003-.6000001-.21,0-.3699999.3499999-.4499998.5899999v.9300001c0,.0799999.0300002.1199999.1000004.1999998h-.3800001c.0799999-.0799999.0999999-.1199999.0999999-.1999998l.019999.0100002ZM8.1499996,3.0799999c.29-.4100001.1899996-.76-.0299997-.76-.1799998,0-.1799998.25-.1799998.52v.6600001c.04-.1400001.1100001-.3099999.2099996-.4200001Z"/>
            <path class="cls-2" d="M12.3599997,4.3699999c-.1199999.0999999-.3699999.3600001-.9200001.3600001-.6800003,0-1.2200003-.4499998-1.2200003-1.1799998s.5100002-1.1799998,1.1700001-1.1799998c.4899998,0,.8999996.27.8999996.6399999,0,.1700001-.0799999.4400001-.3400002.54h.4200001v.8099999l-.0099993.0099998ZM12.1800003,3.97c0-.3199999-.1499996-.3900001-.4300003-.3900001h-.1499996v-.04h.29c.3299999-.1199999.3599997-.4000001.3599997-.5,0-.4200001-.4399996-.6399999-.8299999-.6399999-.5299997,0-1.0100002.4400001-1.0100002,1.1399999s.5,1.1300001,1.0599995,1.1300001c.29,0,.5299997-.0999999.7200003-.23v-.48l-.0099993.01Z"/>
            <path class="cls-2" d="M13.6099997,3.1400001l.04.52h-.04c-.0699997-.3799999-.1800003-.6700001-.3199997-.6700001-.1599998,0-.29.4200001-.3599997.73v.7900002c0,.0799999.0299997.1199999.1000004.1999998h-.3800001c.0799999-.0799999.1000004-.1199999.1000004-.1999998v-1.25c0-.1099999-.0299997-.1400001-.0699997-.1400001-.0299997,0-.0699997.03-.1000004.05v-.03c.0799999-.0799999.1999998-.1900001.2700005-.1900001.0600004,0,.0699997.05.0699997.2v.4200001c.0699997-.3099999.1899996-.6300001.3800001-.6300001.1199999,0,.25.1300001.29.2h.0199986Z"/>
            <path class="cls-2" d="M14.71,4.71v-.3800001c-.0699997.1799998-.1999998.4000001-.4700003.4000001-.3199997,0-.4300003-.2800002-.4300003-.5599999,0-.2.0600004-.6399999.4700003-.6399999.25,0,.3599997.1400001.4300003.27v-.25c0-.1800001,0-.5699999-.25-.5699999-.1899996,0-.3699999.23-.5100002.48h-.04l.1000004-.3900001c.0699997-.04.1899996-.1400001.4099998-.1400001.3100004,0,.46.2.46.54v1.03c0,.0799999.0299997.1199999.1000004.1999998h-.2799997l.0099993.0100002ZM14.71,3.8599999c-.0699997-.1400001-.1899996-.3-.3500004-.3-.2700005,0-.3699999.4300001-.3699999.6500001,0,.2200003.1199999.4899998.3100004.4899998s.3500004-.2800002.4099998-.46v-.3799999Z"/>
            <path class="cls-2" d="M16.3199997,3.1600001l-.5600004,1.6699998c-.0699997.2199998-.1400003.5-.3800001.5-.1499996,0-.2600002-.1100001-.2600002-.29,0-.3099999.3400002-.3600001.6199999-.3600001l-.54-1.52c-.0299997-.0799999-.0799999-.1199999-.1499996-.2h.3900003c-.0799999.0799999-.0799999.1199999-.0600004.2l.46,1.27.4199991-1.27c.0300007-.0799999.0200005-.1199999-.0400009-.2h.25c-.0900002.0799999-.1299992.1199999-.1599998.2l.0100021.0000002ZM15.1599998,5.0300002c0,.1700001.1000004.25.21.25.1999998,0,.2700005-.2599998.3400002-.46l.04-.1199999c-.2700005,0-.5900002.0300002-.5900002.3200002v.0099998Z"/>
          </g>
          <g>
            <path class="cls-1" d="M.41.85v.41h.01v.04c-.01,0-.07.02-.13.02-.05,0-.06,0-.06-.03h0v-.66C.23.2899999.23.1899999.21.1c.11,0,.16.01.2.02.02,0,.02.01.02.02v.03c0,.02,0,.04-.01.06v.27c.0733333.02.13.0366667.17.05.15.05.24.09.37.16.01,0,.02.02.02.03,0,.02-.03.09-.05.13-.01.03-.02.03-.03.03,0,0-.01,0-.02-.01-.15-.1-.3-.17-.45-.21v.17h-.0200001ZM.79.39c-.03-.05-.07-.1-.11-.15v-.01s0-.02.04-.04c.02-.02.03-.02.04-.02.01,0,.03.01.06.05.05.05.08.1.08.11,0,.02-.07.07-.09.07l-.01-.01h-.0100001ZM1,.28s-.03.02-.04.02l-.02-.01c-.04-.06-.07-.1-.11-.15v-.01c0-.01.06-.05.08-.05,0,0,.02,0,.03.02.05.04.11.13.11.14,0,0-.01.02-.04.04h-.01Z"/>
            <path class="cls-1" d="M1.85.61c.2700001,0,.4299999,0,.58-.01h.02s.04,0,.04.12c0,.06,0,.07-.03.07h-1.1099999c-.02,0-.03,0-.03-.02,0-.04-.01-.11-.01-.18.12.01.23.02.5399998.02Z"/>
            <path class="cls-1" d="M3.1300001.57v.1900001c0,.03-.02.04-.1400001.04-.04,0-.05,0-.05-.03v-.32c0-.17,0-.24-.02-.32.0799999,0,.1500001,0,.1800001.01.02,0,.03.02.03.03v.02c-.01.03-.01.06-.01.13v.25l.01-.0000002ZM3.71.37c0,.21-.01.35-.04.46-.05.1899999-.1700001.34-.3499999.4399999-.04.02-.0699999.03-.0799999.03s-.02,0-.03-.02c-.04-.04-.0599999-.0700001-.1099999-.1.0999999-.04.1800001-.09.24-.15.0799999-.08.1299999-.17.1500001-.27.02-.09.03-.25.03-.42,0-.12,0-.18-.01-.24.0899999,0,.1400001,0,.1900001.02.02,0,.03.01.03.03v.03c-.01.03-.01.06-.01.13v.06h-.0100005Z"/>
            <path class="cls-1" d="M4.27.8c-.02-.06-.0700002-.15-.0900002-.18-.0300002-.05-.04-.05-.04-.06s.02-.03.0599999-.05q.0500002-.03.0599999-.03c.0100002,0,.02,0,.04.04.0500002.06.1199999.2.1199999.22,0,.01-.0100002.02-.04.04-.04.02-.0799999.04-.0900002.04s-.0100002,0-.02-.03l.0000005.0099999ZM5.0900002.55v.02c-.0100002.02-.02.03-.04.08-.1100001.24-.1799998.35-.3000002.47-.0900002.09-.23.1899999-.2600002.1899999,0,0-.02,0-.0300002-.01-.0300002-.03-.0700002-.0599999-.1199999-.09.23-.12.3499999-.24.46-.44.0599999-.11.0999999-.23.0999999-.31.1199999.03.1900001.07.1900005.0900001ZM4.5500002.73c-.02-.06-.0599999-.15-.1100001-.23v-.02c0-.01.0100002-.02.0599999-.04q.0599999-.03.0700002-.03c.0100002,0,.02,0,.04.04.0500002.08.1100001.2.1100001.22,0,0,0,.02-.0300002.03-.0300002.02-.0900002.05-.0999999.05,0,0-.0100002,0-.02-.02h-.02Z"/>
            <path class="cls-1" d="M5.7800002.73s-.0300002.04-.04.04c-.0066667,0-.0333333-.0133334-.0799999-.04-.0500002-.03-.1199999-.07-.23-.1-.02,0-.0300002-.01-.0300002-.03,0,0,.0100002-.03.04-.07,0-.01.0100002-.02.0100002-.03.02-.03.02-.04.04-.04.0300002,0,.1399999.04.2199998.08.0500002.02.0999999.06.1100001.06v.02c0,.02-.02.06-.0599999.11h.02ZM6.5500002.56v.03c0,.02,0,.03-.04.06-.1199999.14-.25.25-.4099998.35-.1300001.09-.2800002.17-.4299998.23-.04.02-.0599999.03-.0700002.04s-.02.01-.0300002.01c-.0300002,0-.0799999-.08-.1199999-.2.1500001-.03.3200002-.1.4900002-.2.1100001-.06.2399998-.16.3299999-.25.0799999-.08.1300001-.13.2199998-.25,0,.07.02.09.0500002.17l.0099998.0100001ZM5.9299998.44s-.0300002.03-.04.03c0,0-.0100002,0-.02-.01-.0900002-.08-.1799998-.14-.2800002-.18-.0100002,0-.02-.01-.02-.02v-.02q.0700002-.11.0900002-.11c.0300002,0,.1599998.06.2399998.12.0700002.05.0900002.06.0900002.08,0,.02-.04.08-.0700002.12l.0100002-.01Z"/>
            <path class="cls-1" d="M7.0999999.69h-.1300001c-.0100002,0-.02,0-.0300002-.02,0-.03-.0100002-.08-.0100002-.15.0500002.01.1399999.02.3099999.02.1399999,0,.1500001,0,.1799998-.01h.02c.0300002,0,.0500002.01.0900002.05.0300002.03.0500002.06.0500002.07,0,0,0,.01-.0100002.03-.0066671.0133334-.02.07-.04.17-.02.12-.0300002.17-.04.22q-.0066662.0333333,0,0h.2199998s.0300002.01.0300002.09c0,.0599999,0,.0700001-.02.0700001h-.4200001c-.23,0-.4099998,0-.4699998.01h-.0100002s-.0300002,0-.04-.02c0-.02-.0100002-.0599999-.02-.15.1100001,0,.1500001.01.5599999.01v-.03c.02-.09.04-.22.0500002-.35h-.2599998l-.0099998-.0100001Z"/>
            <path class="cls-1" d="M8.4399996.45c-.1000004.14-.2799997.3-.3199997.3-.0100002,0-.0200005,0-.0500002-.03-.0200005-.02-.0600004-.05-.1100001-.08.1100001-.06.2199998-.15.2999997-.24.0900002-.11.1400003-.19.1899996-.32.0699997.02.1099997.04.1599998.07.0200005.01.0299997.02.0299997.03s0,.02-.0200005.03-.0299997.03-.0699997.08h.2200003c.0799999,0,.1000004,0,.1400003-.02h.0200005c.0200005,0,.0500002.02.0900002.08.0299997.04.04.05.04.07s0,.02-.0299997.05c-.0100002.01-.0299997.04-.0500002.07-.1599998.29-.3199997.48-.5600004.65-.1000004.08-.2399998.16-.2700005.16-.0100002,0-.0200005,0-.04-.02-.0299997-.03-.0699997-.0599999-.1199999-.09.2200003-.1.3699999-.21.5199995-.36.1099997-.11.1800003-.21.25-.33.0100002-.03.0200005-.04.0500002-.09h-.3800001l.0100012-.01ZM9.1499996.28s-.0500002.04-.0600004.04c-.0066671,0-.0200005-.0133334-.04-.04-.0299997-.04-.0600004-.09-.0900002-.12v-.01c0-.01.0600004-.05.0699997-.05.0100002,0,.0299997.01.0799999.07.04.05.0699997.09.0699997.1s0,.02-.0200005.03l-.0099983-.02ZM9.2200003.21c-.04-.06-.0699997-.1-.1099997-.14v-.01s0-.02.0299997-.03c.0200005-.02.0299997-.02.04-.02.0200005,0,.0600004.04.1099997.1.0200005.03.0299997.05.0299997.06s0,.02-.0200005.03c-.0200005.02-.0500002.03-.0600004.03l-.0199986-.02Z"/>
            <path class="cls-1" d="M9.5900002.44c0-.1,0-.17-.0100002-.25.0699997,0,.1400003.01.1899996.02.0200005,0,.0299997.01.0299997.03v.03c0,.0133333-.0066671.2533333-.0200005.72.2200003-.07.3500004-.14.5100002-.25.0900002-.06.1499996-.12.2200003-.19h0c0,.07,0,.12.0200005.18v.02c0,.03-.0200005.05-.1000004.11-.0799999.07-.21.15-.3100004.2-.0799999.04-.1599998.08-.2700005.11-.0299997.01-.0500002.02-.0699997.04-.0100002.01-.0200005.02-.04.02-.04,0-.1499996-.1-.1499996-.15v-.13s0-.5100001.000001-.5100001Z"/>
            <path class="cls-1" d="M11.3999996.61c.2700005,0,.4300003,0,.5799999-.01h.0200005s.04,0,.04.12c0,.06,0,.07-.0299997.07h-1.1100006c-.0200005,0-.0299997,0-.0299997-.02,0-.04-.0100002-.11-.0100002-.18.1199999.01.2299995.02.54.02Z"/>
          </g>
        </g>
      </g>
    </g>
  </g>
</svg>