<svg xmlns="http://www.w3.org/2000/svg" xmlns:xlink="http://www.w3.org/1999/xlink" width="352.7" height="79.246" viewBox="0 0 352.7 79.246">
  <defs>
    <clipPath id="clip-path">
      <rect id="長方形_244" data-name="長方形 244" width="352.7" height="79.246" fill="none"/>
    </clipPath>
  </defs>
  <g id="logo-white" transform="translate(0 0)">
    <g id="グループ_390" data-name="グループ 390" transform="translate(0 0)" clip-path="url(#clip-path)">
      <path id="パス_1421" data-name="パス 1421" d="M352.355,45.4a.58.58,0,0,0-.581-.351c-.134,0-.285,0-.446-.008a1.487,1.487,0,0,0-1.012.377,1.208,1.208,0,0,1-.84.3l-.512.028c-.018,0-.518.118-.534.126a1.13,1.13,0,0,1-.656.137,3.588,3.588,0,0,0-1.175.05,8.348,8.348,0,0,1-1.511-.035c-.155-.013-.619.017-.619.017s-.979.054-1.306.027a6.712,6.712,0,0,0-1.117-.076,2.781,2.781,0,0,0-1.126-.042.283.283,0,0,0-.158.066c-.012.007-.063-.049-.116-.056s-.23-.12-.326-.134c-.268-.038-.533-.119-.64-.141a4.152,4.152,0,0,0-.731-.153H338.9a3.15,3.15,0,0,1-.627-.08c-.192-.038-.249-.18-.468-.18l-.351-.077a2.455,2.455,0,0,0-.317-.027c-.061,0-.2-.164-.262-.187a1.807,1.807,0,0,0-.428-.1l-.383-.219c-.441-.36-.277-.231-.628-.36a2.341,2.341,0,0,1-.522-.187c-.105-.061-.361-.146-.387-.171a2.606,2.606,0,0,0-.325-.318.591.591,0,0,1-.124-.1.243.243,0,0,0-.064-.09.2.2,0,0,0-.105-.047,1.069,1.069,0,0,0-.271-.036l-.411-.011c-.336.008-.611-.079-.886.193a1.56,1.56,0,0,0-.992,1.44c-.385.445-1.047,1.062-1.047,1.062a10.4,10.4,0,0,0-1.94,1.632,3.435,3.435,0,0,1-.763.608l-1.164.852a9.154,9.154,0,0,1-1.919,1.453c-.664.432-1.385.839-2.084,1.233-.658.371-1.4.791-2.075,1.228a2.508,2.508,0,0,1-1.057.306l-.442-.072.107-.215c.129-.216.008-.422.087-.659.058-.175.124-.373.222-.6.115-.2.245-.384.382-.585a3.821,3.821,0,0,0,.771-1.642l1.3-2.188a1.38,1.38,0,0,0,.207-.285,1.186,1.186,0,0,1,.2-.268.084.084,0,0,0,.023-.049l.043-.345a16.352,16.352,0,0,0,1.108-2.527.6.6,0,0,0-.182-.5.639.639,0,0,0-.453-.187h-.094a1.11,1.11,0,0,0-.314-.043h-.034a1.449,1.449,0,0,0-.99.444,2.3,2.3,0,0,1-.557.581,2.652,2.652,0,0,0-.226.195,6.747,6.747,0,0,1-.582.5,6.845,6.845,0,0,0-.592.513L317.491,47.2a7,7,0,0,0-.793.713,6.818,6.818,0,0,1-.78.7c-.011.008-.032.032-.054.114-.035.046-.1.067-.287.095a.079.079,0,0,0-.036.016,16.782,16.782,0,0,0-1.783,1.618c-.159.158-.18.179-.331.2l-.511.172.469-.656a6.453,6.453,0,0,1,.725-.9l1.009-1.006a22.389,22.389,0,0,0,1.486-2.866l.033-.287a.439.439,0,0,0-.066-.2,1.6,1.6,0,0,0-1.336-.771,2.824,2.824,0,0,0-2.3,1.2c-.1.1-.181.18-.258.259a6.269,6.269,0,0,0-.587.332l-.27.167a3.625,3.625,0,0,1-.678.382,1.031,1.031,0,0,1-.335.2c-.087.041-.19.087-.329.167l-.51.359c-.089.018-.4.191-.44.193-.124.007-.314.192-.339.193a.131.131,0,0,0-.082.036.4.4,0,0,0-.11.476l.016.033-.026.025c-.129.124-.143.136-.245.142a.137.137,0,0,0-.09.044l-.058.057a1.065,1.065,0,0,0-.068-.153.337.337,0,0,0-.278-.087l-.079,0a.138.138,0,0,0-.083.036,1.044,1.044,0,0,1-.367.167,1.32,1.32,0,0,0-.456.217,2.6,2.6,0,0,1-1.027.212s-.191.017-.208.026c-.073.042-.145.075-.217.109a1.287,1.287,0,0,0-.688.6l-.023.042-.044-.022a.7.7,0,0,0-.356-.1,1.051,1.051,0,0,0-.486.172c-.032.018-.091.156-.13.166a2.723,2.723,0,0,0-1.024.406,1.428,1.428,0,0,0-.4.117,1.087,1.087,0,0,1-.354.1.959.959,0,0,0-.484.221.743.743,0,0,1-.348.173c-.188.012-.222.035-.431.223-.089.008-.659.083-.744.085-.047,0-.076,0-.088-.018a1.6,1.6,0,0,0-.386-.017l-.558.032c-.027,0-.139.012-.335.039a.411.411,0,0,0-.2.114,1.1,1.1,0,0,1-.1.074,3.531,3.531,0,0,1-.679.368,2.3,2.3,0,0,0-.439.1,2.7,2.7,0,0,1-.631.134.771.771,0,0,0-.4.2.887.887,0,0,0-.313.041,4.177,4.177,0,0,1-1.141.587,6.737,6.737,0,0,0-1.175.561l-.442.032-1.932.633a.133.133,0,0,0-.05.03.918.918,0,0,1-.562.174.85.85,0,0,0-.556.206,2.1,2.1,0,0,0-.924.229.329.329,0,0,0-.341.312l0,.024-.022.012A.291.291,0,0,1,288.9,55l-.913.056a1.246,1.246,0,0,0-.484.148.539.539,0,0,1-.16.062.134.134,0,0,0-.056.016,2.353,2.353,0,0,1-.542.2,3.077,3.077,0,0,0-.578.2,1.37,1.37,0,0,0-.4.117,1.066,1.066,0,0,1-.354.1,1.331,1.331,0,0,0-.44.12,1.1,1.1,0,0,1-.356.1,1.245,1.245,0,0,0-.486.149.559.559,0,0,1-.158.061,1.16,1.16,0,0,0-.718.238.738.738,0,0,1-.338.085.954.954,0,0,0-.423.111l-.113.007a.122.122,0,0,0-.056.016,1.129,1.129,0,0,1-.588.194l-.456.028a.123.123,0,0,0-.056.017,1.888,1.888,0,0,1-.892.213l-1.206.071-.547-.13-.061,0a.63.63,0,0,1-.3-.074c-.06-.027.041-.013-.051-.026a1.73,1.73,0,0,0-.761-.288l-.033,0a.689.689,0,0,1-.027-.18.131.131,0,0,0,0-.056,1.4,1.4,0,0,1,.118-.81,1.354,1.354,0,0,1,.41-.852,2.363,2.363,0,0,0,.307-.377l1.707-1.671a4.589,4.589,0,0,1,1.626-1.591.6.6,0,0,0,.28-.137l.06-.048.07.053c.038.029.07.114.1.128s.029.058.029.058a.749.749,0,0,0,.051.5.818.818,0,0,0,.286.642c.057.066.119.138.178.221a.134.134,0,0,0,.121.055h0a.776.776,0,0,1,.446.242,1.441,1.441,0,0,0,.28.207.338.338,0,0,0,.292-.017,2.4,2.4,0,0,1,.512-.266,1.242,1.242,0,0,0,.523-.324,1.234,1.234,0,0,1,.713-.183.12.12,0,0,0,.056-.017,2.172,2.172,0,0,0,.62-.763,2.256,2.256,0,0,1,.227-.337.134.134,0,0,0,.036-.066l.247-1.216a.6.6,0,0,0,.019-.214l.048-.027a.259.259,0,0,1,.074-.009.323.323,0,0,0,.2-.049,1.328,1.328,0,0,1,.164-.132,1.353,1.353,0,0,0,.417-.44.144.144,0,0,0,.017-.043.247.247,0,0,1,.049-.1.261.261,0,0,0,0-.352c-.111-.158-.219-.333-.338-.526a4.243,4.243,0,0,0-.726-.973,2.083,2.083,0,0,0-.6-.491,4.556,4.556,0,0,1-.464-.322,1.512,1.512,0,0,0-.756-.217.856.856,0,0,0-.4.108,2.773,2.773,0,0,1-.362.163,3.217,3.217,0,0,0-.795.416c-.2.084-.411.195-.634.314a6.181,6.181,0,0,1-1.012.466l-.129.007a.131.131,0,0,0-.1.061,1.2,1.2,0,0,1-.1.134.121.121,0,0,0-.09-.036l-.326.026a.122.122,0,0,0-.051.016,2.881,2.881,0,0,1-.983.381.126.126,0,0,0-.07.031,1.593,1.593,0,0,1-1.127.381.115.115,0,0,0-.071.03.653.653,0,0,1-.285.155,2.2,2.2,0,0,0-.718.221,1.968,1.968,0,0,1-.641.2,1.438,1.438,0,0,0-.314.087,2.232,2.232,0,0,1-.528.137.115.115,0,0,0-.07.03,1.4,1.4,0,0,1-.772.194.14.14,0,0,0-.05.015,1.876,1.876,0,0,1-.7.267,2.482,2.482,0,0,1-.275-.049.633.633,0,0,0-.241.092,1.512,1.512,0,0,1-.258.111,4.321,4.321,0,0,1-.842.224,1.159,1.159,0,0,0-.733.219,1.043,1.043,0,0,0-.255.107.671.671,0,0,1-.21.084,3.3,3.3,0,0,0-1.214.263.9.9,0,0,1-.394.1,1.019,1.019,0,0,0-.449.123,2.286,2.286,0,0,1-.959.224l-.487.038c-.076,0-.137.086-.158.1a.675.675,0,0,1-.4.139c-.062,0-.125,0-.192,0s-.255,0-.255,0a2.488,2.488,0,0,0-1.076.267.633.633,0,0,1-.445.168l-.658.052a.366.366,0,0,0-.284.107.348.348,0,0,1-.278.134c-.05,0-.107,0-.175,0s-.261,0-.261,0a2.211,2.211,0,0,0-.888.238,2.661,2.661,0,0,1-1.121.236l-.812.064a.121.121,0,0,0-.071.031.893.893,0,0,1-.59.218c-.082,0-.4,0-.464,0,0,0-2.026.162-2.041.168a2.3,2.3,0,0,1-.951.224l-2.411.255c-.542.057-1.719.017-1.719.017a10.948,10.948,0,0,1-1.449-.029c-.475-.071-2.3-.1-2.3-.1-.231.018-.449.035-.658.044a4.062,4.062,0,0,1-1.408-.147l-.022-.007a.509.509,0,0,0-.05-.094.346.346,0,0,0-.283-.08s-.3.022-.41.027a1.651,1.651,0,0,1-.731-.082,2.024,2.024,0,0,0-.573-.124,1.989,1.989,0,0,1-.489-.1,2.155,2.155,0,0,0-.471-.213,1.3,1.3,0,0,1-.889-.712.3.3,0,0,0-.1-.216l-.016-.017.064-.344a1.987,1.987,0,0,0-.151-1,.11.11,0,0,0-.025-.042l-.137-.152a1.4,1.4,0,0,1-.34-.557.124.124,0,0,0-.064-.071,2.329,2.329,0,0,0-.395-.135,2.014,2.014,0,0,1-.358-.122.129.129,0,0,0-.059-.01l-.813.064a5.257,5.257,0,0,0-1.4.4l-.233.09s.01-.007.007-.011c-.027-.028.006-.088-.387.125-.011.006-.011.019-.019.027a.429.429,0,0,0-.073.032,4.454,4.454,0,0,1-.422.327c-.083.014-.562.3-.649.319a1.9,1.9,0,0,0-.893.475s-1.269.511-1.292.512-1.048.248-1.125.261c-.654.116-1.306.582-2.01.65a.927.927,0,0,0-.335.132.732.732,0,0,1-.224.094,6.244,6.244,0,0,0-.923.294,1.624,1.624,0,0,1-.545.167.723.723,0,0,1-.217-.019.162.162,0,0,0-.042,0h0a1.169,1.169,0,0,0-.472.227c-.09.057-.192.122-.329.2a1.061,1.061,0,0,0-.252.1,1.291,1.291,0,0,1-.445.142l-.911.091a8.31,8.31,0,0,0-.852.348,3.376,3.376,0,0,1-1,.345c-.153.051-.3.1-.44.149a6.409,6.409,0,0,1-1.383.371l-.371.125a6.914,6.914,0,0,1-1.6.406l-.706.067a.18.18,0,0,0-.036.009,6.073,6.073,0,0,1-.724.227,3.9,3.9,0,0,0-.746.252,14.064,14.064,0,0,0-2.672.924l-.708.071-2.177.722a2.221,2.221,0,0,0-.652.3c-.023,0-.139.045-.222.075a1.661,1.661,0,0,1-.243.08l-.883.085a.133.133,0,0,0-.05.015,3.228,3.228,0,0,1-.7.243,6.746,6.746,0,0,0-.742.231l-1.209.116a.181.181,0,0,0-.036.009,6.2,6.2,0,0,1-.9.255,6.329,6.329,0,0,0-.937.271,3.093,3.093,0,0,1-.544.218,3.906,3.906,0,0,0-.559.221l-.139.013a.124.124,0,0,0-.037.009,4.314,4.314,0,0,1-1.405.3l-.177.017a.124.124,0,0,0-.075.034,1.781,1.781,0,0,1-1.041.416,6.531,6.531,0,0,0-1.418.379s-.29.1-.406.141a.89.89,0,0,0-.285.1,1.34,1.34,0,0,1-.423.144,2.6,2.6,0,0,0-.42-.008,5.706,5.706,0,0,0-1.1.213,5.643,5.643,0,0,1-.92.2c-.125.013-.144.025-.164.044a2.152,2.152,0,0,1-1.372.444.789.789,0,0,0-.313-.034,2.764,2.764,0,0,0-1.01.338l-2.207-.1a.89.89,0,0,1-.37-.061.674.674,0,0,0-.273-.05l-.039,0a.959.959,0,0,1-.487-.108c-.157-.068-.278-.15-.4-.127s-.416-.281-.416-.281l-.089-.169a.135.135,0,0,0-.006-.066c-.038-.107-.223-.287-.209-.448a4.666,4.666,0,0,0-.03-.672c.059-.006.095-.167.1-.224.03-.182-.15-.409-.082-.53a.88.88,0,0,0,.119-.277.82.82,0,0,1,.126-.3,1.681,1.681,0,0,0,.173-.481,3.649,3.649,0,0,1,.427-1.1c.047-.093.1-.188.136-.276l.66-.907a1.422,1.422,0,0,0,.294-.489,2.959,2.959,0,0,1,.221-.435l.394-.367a5.258,5.258,0,0,0,.686-.936l.657-.764c.085-.133.3-.389.524-.661a9.24,9.24,0,0,0,1.04-1.4.123.123,0,0,0,.012-.035c.007-.049.041-.073.137-.134l.148-.1.007.086a.668.668,0,0,0,.087.291,1.154,1.154,0,0,0,.835.421,1.393,1.393,0,0,1,.253.061.132.132,0,0,0,.056.012.094.094,0,0,0,.042-.014c.029-.015.043-.04.051-.088l.007-.044.044,0a.184.184,0,0,1,.109.067.132.132,0,0,0,.114.036l.022,0,.735-.243a.132.132,0,0,0,.087-.1c.012-.074.1-.085.266-.1l.706-.068c.212-.021.241-.041.439-.227l.955-.6a1,1,0,0,0,.416-.236,7.811,7.811,0,0,1,1.381-.993,4.433,4.433,0,0,1,.672-.483,4.6,4.6,0,0,0,.709-.511.124.124,0,0,0,.039-.072.411.411,0,0,1,.3-.276.135.135,0,0,0,.066-.025l.8-.6a1.578,1.578,0,0,0,.192-.222c.068-.091.094-.122.144-.128a.124.124,0,0,0,.061-.022c.262-.179.488-.353.687-.506a6.087,6.087,0,0,1,.709-.5,3.048,3.048,0,0,0,.221-.24c.152-.177.251-.283.32-.3a.124.124,0,0,0,.061-.022,3.16,3.16,0,0,0,1.064-1,2.948,2.948,0,0,1,.98-.915.127.127,0,0,0,.047-.044,2.362,2.362,0,0,1,.3-.358,1.4,1.4,0,0,0,.393-.581,1.689,1.689,0,0,0,.151-.182c.068-.091.095-.123.144-.128a.133.133,0,0,0,.061-.022l.588-.4a.133.133,0,0,0,.036-.038,1.955,1.955,0,0,1,.967-.908.132.132,0,0,0,.053-.04l.448-.567a2.492,2.492,0,0,1,.585-.576c.134-.108.276-.223.423-.359a1.275,1.275,0,0,0,.192-.251c.112-.175.182-.275.348-.29a.131.131,0,0,0,.09-.05,4.123,4.123,0,0,1,.511-.516,2.8,2.8,0,0,0,.8-1c.051-.045.112-.091.19-.15a2.368,2.368,0,0,0,.6-.591,2.726,2.726,0,0,0,.8-1.522,3.141,3.141,0,0,1,.51-1.034,2.765,2.765,0,0,0,.37-1.115c.04-.239-.139-.431-.3-.6-.012-.012-.059-.173-.075-.18l-.284-.2-.122-.13c-.055-.082-.438-.04-.481-.041a5.949,5.949,0,0,0-2.484.489l-.484.046c-.2.02-.236.037-.441.22a.474.474,0,0,0-.208.128.281.281,0,0,1-.165.085,22.7,22.7,0,0,0-1.958,1.231,9.961,9.961,0,0,1-1.7,1.009.13.13,0,0,0-.039.025l-.411.383a.691.691,0,0,1-.307.175.121.121,0,0,0-.05.016,2.606,2.606,0,0,0-.524.41,2.59,2.59,0,0,1-.5.392,6.59,6.59,0,0,1-.594.481c-.182.137-.372.278-.595.467l-.116.011a.124.124,0,0,0-.036.009,2.314,2.314,0,0,0-.8.614,1.967,1.967,0,0,1-.406.362,2.7,2.7,0,0,0-.976.735c-.084.086-.171.176-.268.266l-3.291,3.07a1.6,1.6,0,0,0-.479.6l-7.93,8.213-.009,0a.162.162,0,0,0-.051.021c-.655.454-.839.794-1.489.919a.853.853,0,0,0-.305.158.69.69,0,0,1-.2.109,1.455,1.455,0,0,0-.421.185,1.259,1.259,0,0,1-.579.214.653.653,0,0,1-.113-.007h-.045a1.065,1.065,0,0,0-.41.249c-.081.066-.175.141-.3.229a.982.982,0,0,0-.226.112,1.172,1.172,0,0,1-.4.176l-.847.168a7.543,7.543,0,0,0-.766.411,3.128,3.128,0,0,1-.9.418l-.4.18a5.855,5.855,0,0,1-1.262.478l-.333.151a6.351,6.351,0,0,1-1.462.531l-.655.126a.158.158,0,0,0-.036.013,5.469,5.469,0,0,1-.66.283,3.626,3.626,0,0,0-.673.307,7.045,7.045,0,0,0-1.812.687l-.658.132-1.97.883a.351.351,0,0,0-.279.323c0,.04-.352.559-.437.562h-.022l-.015-.012a.4.4,0,0,1-.1-.2.129.129,0,0,0-.045-.105.132.132,0,0,0-.1-.03H175.2l-.82.158a.12.12,0,0,0-.049.02,3.013,3.013,0,0,1-.639.3,6.378,6.378,0,0,0-.67.285l-1.121.217a.146.146,0,0,0-.036.012,5.547,5.547,0,0,1-.811.322,5.639,5.639,0,0,0-.861.346,2.9,2.9,0,0,1-.486.255,3.662,3.662,0,0,0-.506.261l-.127.024a.121.121,0,0,0-.037.013,3.9,3.9,0,0,1-1.286.411l-.163.032a.13.13,0,0,0-.073.043,1.638,1.638,0,0,1-.931.488,6.089,6.089,0,0,0-1.318.5c-.117.054-.237.109-.341.159a.846.846,0,0,0-.264.122,1.235,1.235,0,0,1-.377.173H164.2a4.031,4.031,0,0,0-1.319.329,5.866,5.866,0,0,1-.928.288.136.136,0,0,0-.074.042,1.962,1.962,0,0,1-1.236.544.688.688,0,0,0-.174-.016,2.292,2.292,0,0,0-1.042.425l-2.577.567a.715.715,0,0,1-.126.014.915.915,0,0,1-.253-.034.77.77,0,0,0-.2-.031.406.406,0,0,0-.063.007.77.77,0,0,1-.142.017,2.892,2.892,0,0,1-.62-.087c-.123-.041-.085-.188-.271-.184a2.274,2.274,0,0,0-.334-.066c-.085,0-.158-.1-.322-.195l-.09-.159c0-.022-.056-.05-.066-.069a1.1,1.1,0,0,1-.051-.4c0-.222.032-.372-.084-.514l-.056-.119.048-.011c.056-.013.058-.063.061-.12a1.272,1.272,0,0,1,.121-.435.863.863,0,0,0,.085-.28,1.22,1.22,0,0,1,.022-.368,1.675,1.675,0,0,0,.115-.478,3.411,3.411,0,0,1,.28-1.063c.039-.1.08-.211.112-.307l.531-.928a1.392,1.392,0,0,0,.23-.5,2.831,2.831,0,0,1,.164-.435l.333-.387a5.063,5.063,0,0,0,.552-.958l.542-.793c.067-.136.243-.4.429-.683a9.024,9.024,0,0,0,.839-1.429.161.161,0,0,0,.007-.036c.01-.085.229-.232.229-.232l.017.083a.668.668,0,0,0,.114.264,1.1,1.1,0,0,0,.827.329c.1.01.265.041.278.041a1.632,1.632,0,0,0,.28-.045.135.135,0,0,0,.1-.029l.667-.3a.19.19,0,0,0,.089-.151c.024-.029.08-.047.221-.075l.654-.126c.2-.04.227-.062.394-.26l.838-.656a.956.956,0,0,0,.37-.266,7.469,7.469,0,0,1,1.2-1.075,4.084,4.084,0,0,1,.582-.52,4.4,4.4,0,0,0,.616-.554.13.13,0,0,0,.031-.076.376.376,0,0,1,.245-.285.134.134,0,0,0,.064-.032l.7-.649a1.56,1.56,0,0,0,.159-.231c.054-.091.075-.123.115-.131a.133.133,0,0,0,.06-.028c.223-.19.415-.374.606-.557a5.726,5.726,0,0,1,.607-.533,2.749,2.749,0,0,0,.185-.251,1.837,1.837,0,0,1,.324-.342,2.966,2.966,0,0,0,.9-1.052,2.786,2.786,0,0,1,.829-.962.136.136,0,0,0,.043-.049,2.223,2.223,0,0,1,.248-.371,1.362,1.362,0,0,0,.313-.593,1.6,1.6,0,0,0,.124-.187c.054-.092.075-.124.114-.13a.139.139,0,0,0,.06-.029l.513-.437a.117.117,0,0,0,.032-.041,1.839,1.839,0,0,1,.815-.954.122.122,0,0,0,.05-.046l.365-.586a2.38,2.38,0,0,1,.488-.6c.116-.116.241-.24.366-.385a1.258,1.258,0,0,0,.158-.26c.075-.153.135-.274.291-.3a.134.134,0,0,0,.085-.059,3.869,3.869,0,0,1,.429-.541,2.67,2.67,0,0,0,.651-1.026c.041-.046.091-.093.16-.158a6.509,6.509,0,0,0,.844-1.061,2.084,2.084,0,0,0,.582-1.323c.019-.314.305-.711.288-.99a5.8,5.8,0,0,1,.018-.926c.016-.233-.164-.4-.338-.553a.125.125,0,0,0-.046-.027l-.934-.318-.126-.114a.153.153,0,0,0-.111-.029h-.012a4.73,4.73,0,0,0-2.021.728l-.447.087c-.188.036-.22.056-.4.251a.455.455,0,0,0-.183.143c-.04.046-.06.068-.1.075a.123.123,0,0,0-.049.021,20.47,20.47,0,0,0-1.722,1.357,9.215,9.215,0,0,1-1.493,1.113.134.134,0,0,0-.037.031l-.349.4a.655.655,0,0,1-.264.191.15.15,0,0,0-.05.021,2.469,2.469,0,0,0-.456.445,2.423,2.423,0,0,1-.429.419,6.27,6.27,0,0,1-.507.51c-.158.147-.322.3-.515.5l-.1.021a.14.14,0,0,0-.036.012,2.17,2.17,0,0,0-.693.662,1.917,1.917,0,0,1-.342.382,2.432,2.432,0,0,0-.83.771c-.075.1-.153.2-.242.3L162.363,45.5a1.544,1.544,0,0,0-.392.618l-7.188,9.295-.362.674a5.876,5.876,0,0,1-.7.254c-.274.09-1.113.932-1.592.932l-.46.027a4.957,4.957,0,0,0-1.911.64c-.224.129-.974.428-1.355.607l-.973.439a2.411,2.411,0,0,0-1.154.474c-.178.109-.384.236-.66.389-.343.191-.942.124-1.1.189a2.31,2.31,0,0,1-.473.318c-.149.042-.27.082-.382.123l-1.181.374a1.386,1.386,0,0,1-.438.27c-.027,0-.093,0-.115.021l-.065.076a3.974,3.974,0,0,1-1.008.2,1.427,1.427,0,0,0-.928.4l-.109.022a4.812,4.812,0,0,0-1.96.5,1.76,1.76,0,0,0-.308.149c-.087.209-.44.382-1.009.5l-1.653.494a3.7,3.7,0,0,0-.986.3,1.22,1.22,0,0,1-.4.146h-.014a6.3,6.3,0,0,1-1.3.476,7.718,7.718,0,0,0-1.2.467,2.539,2.539,0,0,0-.728.213,3.289,3.289,0,0,1-.961.267,2.55,2.55,0,0,0-.727.213,2.775,2.775,0,0,1-.856.121,2.22,2.22,0,0,0-.768.249,1.659,1.659,0,0,0-.278.124c-.056.041-.062.148-.095.151-.056,0-.144-.078-.221-.073a1.95,1.95,0,0,0-1.19.4,2.326,2.326,0,0,1-1.017.294,3.638,3.638,0,0,0-1.165.241l-.232.036a3.322,3.322,0,0,1-1.38.568s-.758.066-.815.1a4.966,4.966,0,0,1-2.123.552,16.5,16.5,0,0,1-1.96.355c-.267,0-1.525-.159-1.525-.159l-.156.009a2.32,2.32,0,0,1-.866-.15.739.739,0,0,0-.239-.056,1.088,1.088,0,0,1-.214-.041c-.521-.226-.557-.344-1.051-.332h-.11l-1.16-.64-.048-.051a3.34,3.34,0,0,1-.453-1.053A2.529,2.529,0,0,1,111,63.953c.323-.661.059-1.533.416-1.9a5.5,5.5,0,0,0,.645-.756l3.359-3.114a13.184,13.184,0,0,1,1.951-1.988l.345-.158.376.542c.192.148.358,1.139.357,1.139l.3.733a2.043,2.043,0,0,0,.578.767c.032.028.068.063.136.129a1.452,1.452,0,0,0,.376.2c.164.071.275.045.436.151l.569.234a1.531,1.531,0,0,0,.86.06h0c.317-.168.392-.1.722-.171a1.915,1.915,0,0,0,.986-.591.789.789,0,0,1,.582-.252,1.919,1.919,0,0,0,.625-.1,1.767,1.767,0,0,0,.528-.122c.3-.166,1.313-.973,2.3-1.742l.386-.3c.983-.774,1.9-1.514,2.074-1.677L130.8,54a6.549,6.549,0,0,1,.668-1.338l.147-.168a2.549,2.549,0,0,1,.241-1.279,1.971,1.971,0,0,0-.437-1.7c-.5-.616-.435-1.185-1.043-1.588a4.082,4.082,0,0,0-1.2-.734,8.085,8.085,0,0,0-2.075.051,6.19,6.19,0,0,0-1.14.032c-.18,0-.391.02-.626.044a5.148,5.148,0,0,0-1.308.3c-.433.167-1.515.893-1.959,1.123a14.391,14.391,0,0,1-2.109,1.226l-.487.275a7.748,7.748,0,0,1-2.351,1.788l-.3.127-3.16,2.729c-.288.27-.645.6-.685.816l-.079.171-.54.609a6.414,6.414,0,0,0-1.589,1.725c-.62.351-1.292.668-1.84.937s-1.738,1.176-2.218,1.481l-2.492,1.448c-2.266.927-2.785,1.19-4.27,1.9a27.236,27.236,0,0,1-4.08,1.639c-.745.109-2.011,1.054-2.92,1.355-.427.142-.831.275-.88.3a6.21,6.21,0,0,1-1.588.664l-3.9,1.146a10.08,10.08,0,0,0-1.366.31,15.194,15.194,0,0,1-2.818.34,1.239,1.239,0,0,1-.856-.178c-.067-.075-.364-.014-.478-.011a.629.629,0,0,1-.511-.2c-.024-.04-.139-.014-.169-.014-.129,0-.221-.24-.3-.321-.126-.133.071-.757-.033-1.052l.123-.749a5.056,5.056,0,0,0,.233-.918,5.375,5.375,0,0,1,.4-.975,5.814,5.814,0,0,0,.765-1.615,7.67,7.67,0,0,1,.333-.849,1.967,1.967,0,0,0,.314-.651,5.467,5.467,0,0,1,.346-.811c.092-.169.183-.319.27-.46a3.147,3.147,0,0,0,.479-1.126,6.94,6.94,0,0,0,1.032-1.647,1.373,1.373,0,0,1,.214-.38,1.209,1.209,0,0,1,.249-.473c.071-.074.085-.1.087-.128l.138-1.429a1.976,1.976,0,0,1,.395-.77s.207-.373.184-.448a2.143,2.143,0,0,1,.1-.837,1.007,1.007,0,0,0,.06-.192,1.176,1.176,0,0,0-.341-.676l-.086-.2-.029-.028c-.087-.081-.246-.229-.193-.382a.857.857,0,0,0-.411-.425,3.6,3.6,0,0,1-.532-.407,1.321,1.321,0,0,0-.888-.276l-.219,0-.251-.059a.49.49,0,0,0-.28-.116,2.02,2.02,0,0,1-.3.028,8.96,8.96,0,0,0-2.112.071,2.22,2.22,0,0,1-.834.4,1.563,1.563,0,0,1-.747.451,5,5,0,0,0-1.313.552c-.2.1-.367.074-.677.212-.036.007-.416,0-.451,0-.214,0-.047.007-.195-.15a1.542,1.542,0,0,1,.143-.743,5.493,5.493,0,0,1,.447-1.315,2.7,2.7,0,0,1,.385-1.049,4.3,4.3,0,0,0,.4-.951c.088-.246.119-1.392.242-1.565.049-.514.324-1.113-.163-1.692l-.024-.01.012-.027a.614.614,0,0,0-.075-.253,1.086,1.086,0,0,1-.124-.558.524.524,0,0,0-.069-.221l-.857-.474c-.381-.355-.563-.593-1.048-.581-.121,0-.288-.2-.436-.177a.7.7,0,0,1-.109.01,1.261,1.261,0,0,1-.465-.1.842.842,0,0,0-.288-.064l-.223-.071a1.229,1.229,0,0,0-.5-.116c-.226-.027-1.459.324-1.622.325a6.184,6.184,0,0,0-2.4.537,2.3,2.3,0,0,1-1.266.544,3.007,3.007,0,0,0-.84.3c-.262.09-1.588.547-2.018.62a2.221,2.221,0,0,0-1.177.466l-.017.013-.63-.072.048-.505a2.86,2.86,0,0,1,.4-1.024,4.976,4.976,0,0,0,.445-1l.87-.683c.158-.168.314-.319.484-.485a3.841,3.841,0,0,0,1.052-1.4,4.242,4.242,0,0,1,1-1.126l.244-.207a4.3,4.3,0,0,1,.682-.873,3.932,3.932,0,0,0,.6-.771c.216-.318.4-.626.575-.925a10.083,10.083,0,0,1,1.461-2.017,1.587,1.587,0,0,0,.661-.8c.056-.113.118-.238.239-.438a5.882,5.882,0,0,0,.652-.95,5.179,5.179,0,0,1,1.442-1.715c.041-.007.082-.185.163-.524a24.4,24.4,0,0,0,1.92-2.571,9.377,9.377,0,0,0,.956-1.523l.03-.048a4.422,4.422,0,0,0,.453-.731,4.1,4.1,0,0,1,.489-.778c.121-.221.278-.45.417-.656a3.213,3.213,0,0,0,.6-1.213l2.606-4.25a1.18,1.18,0,0,1,.347-.871,1.2,1.2,0,0,1,.109-.834,1.147,1.147,0,0,0,.086-.736l.02-.045.023-.029a4.8,4.8,0,0,0,1.066-2.479A4.03,4.03,0,0,1,83.8,11.3l.716-3.415c.014-.128.042-.26-.009-.31A7.393,7.393,0,0,1,84.5,6.507c-.09-.35-.074-1.952-.086-2.029a.45.45,0,0,0-.135-.3l-.56-1.311a2.249,2.249,0,0,1-.623-1.094c-.036-.25-.1-.458-.418-.479-.435-.076-.411-.626-.827-.774-.382-.135-1.656-.191-2.092-.27A4.5,4.5,0,0,0,78.261,0c-.095,0-.185.01-.326.022l-.056,0A2.071,2.071,0,0,0,77.463,0c-.153,0-.306.019-.485.036l-.11.012c-.09.01-.179.019-.27.022h-.087c-.27-.01-.6.388-1.1.306-.288.047-.587.079-.851.106a5.283,5.283,0,0,0-2.381.65c-.129.139-.367.173-.453.265a.26.26,0,0,1-.257.021.573.573,0,0,0-.158-.037s-.077-.032-.1-.021a3.835,3.835,0,0,1-.983.415c-.012,0-.077.007-.088.006a2.5,2.5,0,0,1-1.306.538,1.36,1.36,0,0,0-.6.346,1.91,1.91,0,0,1-.871.463,3.988,3.988,0,0,0-.8.269c-.278.114-.491.278-.758.235,0,0-.017-.006-.017,0a2.468,2.468,0,0,1-1.489.82c-.055,0-1.628,1.148-1.628,1.148a5.05,5.05,0,0,0-1.638.811c-.571.366-1.17.736-1.816,1.136-1.326.818-2.7,1.665-4.24,2.715-.174.03-.469.341-.763.651a7.148,7.148,0,0,1-1.248.762,3.815,3.815,0,0,0-1.092.727A7.742,7.742,0,0,1,50.1,13.7l-.037.022c-.121.072-.234.139-.318.192-.242.192-.463.358-.676.52a10.782,10.782,0,0,0-1.445,1.241l-.869.681a2.251,2.251,0,0,1-.685.449,1.764,1.764,0,0,0-.5.313,11.9,11.9,0,0,1-1.414,1.253,10.262,10.262,0,0,0-1.248,1.012,1.4,1.4,0,0,1-.453.547.756.756,0,0,0-.317.337,8.285,8.285,0,0,0-1.74,1.371,2.053,2.053,0,0,0-.228.308c-.123.19-.343.418-.484.426a8.758,8.758,0,0,0-2.336,2.023c-.015.017-.367.41-.623.416h-.009a20.74,20.74,0,0,0-2.427,2.352l-.4.4a5.582,5.582,0,0,0-1.366,1.125,10.5,10.5,0,0,1-.973.9c-.085.092-.172.207-.278.346a4.092,4.092,0,0,1-1.024,1.037,10.905,10.905,0,0,0-1.778,1.664l-1.243,1.333c-.209.224-.387.445-.564.665a4.425,4.425,0,0,1-1.049,1.05,3.192,3.192,0,0,0-1.184,1.285l-.356.372-1.407.99a4.128,4.128,0,0,1-.647.837,1.144,1.144,0,0,0-.313.449,4.188,4.188,0,0,1-.98,1.111l-.483.38c-.017,0-.048.007-.09.176a9.371,9.371,0,0,1-1.316,1.682c-.37.4-.739.777-1.154,1.206l-.029.029a27.493,27.493,0,0,0-3.149,3.652,5.074,5.074,0,0,1-1.6,1.728,3.608,3.608,0,0,0-.565.9,3.77,3.77,0,0,1-.712.98c-.084.036-.964,1.291-.964,1.291-.625.8-1.205,1.679-1.768,2.533s-1.144,1.74-1.765,2.529a8.587,8.587,0,0,1-.98,1.56L5.144,61.222a4.451,4.451,0,0,1-.69.883,4.123,4.123,0,0,0-.557.684,17.866,17.866,0,0,1-1.7,3.12C2.139,66.04.428,69.96.418,70.054s-.386,4-.386,4a1.339,1.339,0,0,0,.173,1.1s-.041.195-.02.208.033.007.033.007l.232.15A8.459,8.459,0,0,0,.3,76.665a2.477,2.477,0,0,0,.216.394,2.116,2.116,0,0,1,.431,1.426c.066.075.031.339.177.356A3.939,3.939,0,0,1,2,79.066c.109.048.226.1.361.148a.561.561,0,0,0,.2.032c.326-.008.727-.272,1.224-.806l.311-.333c.209-.225.419-.626.337-.825A3.7,3.7,0,0,1,4.1,76.166a2.114,2.114,0,0,0-.091-.689,8.52,8.52,0,0,1,.5-1.922,6.483,6.483,0,0,0,.366-1.316c.034-.355.635-.662.661-.835s.1-.524.211-1.7a.966.966,0,0,1,.289-.582,1.8,1.8,0,0,0,.185-.727c.029-.311.055-.58.214-.7a8.415,8.415,0,0,1,.774-1.583,4.075,4.075,0,0,0,.62-1.4.8.8,0,0,1,.251-.492.536.536,0,0,0,.147-.283l.927-1.229a16.293,16.293,0,0,1,2.285-3.662.808.808,0,0,1,.252-.493.349.349,0,0,0,.114-.226,16.3,16.3,0,0,1,1.756-2.747c.4-.549.82-1.117,1.186-1.7a12.855,12.855,0,0,1,1.655-2.3,16.089,16.089,0,0,0,1.251-1.6,13.1,13.1,0,0,1,1.228-1.545,4.383,4.383,0,0,1,1.184-1.589c.148-.143.3-.291.46-.46a30.949,30.949,0,0,0,2.034-2.357l.012-.016.019,0a.645.645,0,0,0,.4-.509,3.192,3.192,0,0,1,1.275-1.379c1.575-1.946,3.165-3.652,4.711-5.31.356-.38.693-.739.956-.753a5.756,5.756,0,0,0,1.11-.935,4.25,4.25,0,0,1,.992-1.12c.112-.1.215-.188.3-.275.309-.331.6-.659.906-1a16.178,16.178,0,0,1,2.97-2.8,1.9,1.9,0,0,0,.6-.454l.043-.039.009,0a1.106,1.106,0,0,1,.786-.856,3.839,3.839,0,0,0,1.309-1.145c.137-.162.278-.33.437-.5.121-.129.231-.258.352-.4.454-.53.846-.989,1.471-1.044a12.071,12.071,0,0,1,1.16-1.061,6.439,6.439,0,0,0,1.287-1.306,1.869,1.869,0,0,1,1.181-.76,9.084,9.084,0,0,1,1.616-1.616,11.815,11.815,0,0,0,.9-.809,27.392,27.392,0,0,0,2.488-2.124,6.549,6.549,0,0,0,1.461-.969,5.809,5.809,0,0,1,1.932-1.17.908.908,0,0,1,.4-.489,3.326,3.326,0,0,0,.355-.3,9.308,9.308,0,0,0,1.831-1.438,6.478,6.478,0,0,0,2.06-1.457l3.61-2.308a14.12,14.12,0,0,0,2.652-1.566,15.977,15.977,0,0,0,2.735-1.593,4.944,4.944,0,0,0,1.861-.809,1.46,1.46,0,0,1,.771-.474,4.894,4.894,0,0,0,1.364-.5,3.783,3.783,0,0,1,1.36-.468,1.883,1.883,0,0,1,1.518-.618,3.161,3.161,0,0,0,.372-.031,3.2,3.2,0,0,0,2.036-.9l.566-.095c.328-.056.691.165,1.021.157a12.612,12.612,0,0,1,1.576-.161c.175.018.1.309.312.328.5.087.555.265.79.617.078.118.5.524.556.652a1.693,1.693,0,0,1,.134.825l-.051.6a3.148,3.148,0,0,1,.168,1.073,5.875,5.875,0,0,0-.028.635c-.018.759.217,1.346-.274,2l-.083.858a1.5,1.5,0,0,1-.4,1.024,2.837,2.837,0,0,0-.385,1.363l-.134,1a6.6,6.6,0,0,0-.615,1.193,4.019,4.019,0,0,1-.722,1.257c-.221.4-.419.845-.611,1.272a8.954,8.954,0,0,1-1.465,2.5,6.188,6.188,0,0,0-1.243,2.008,1.721,1.721,0,0,1-.5.907,2.041,2.041,0,0,0-.553,1.069,12.03,12.03,0,0,1-1.61,2.239A8.6,8.6,0,0,1,71.3,27.962L69.971,29.9a9.14,9.14,0,0,0-1.283,1.87l-.039.058a8.535,8.535,0,0,0-1.364,1.589,6.125,6.125,0,0,1-1.357,1.514,1.467,1.467,0,0,1-.372.714A6.018,6.018,0,0,1,64.552,37a8.643,8.643,0,0,0-.916,1.448l-.13.172a3.9,3.9,0,0,0-.707.645,3.846,3.846,0,0,1-.76.686,4.422,4.422,0,0,0-.453.732,4.508,4.508,0,0,1-.534.839L59.5,43.184a8.688,8.688,0,0,0-.914,1.443l-.133.177a3.889,3.889,0,0,0-.705.643,3.381,3.381,0,0,1-.734.659A8.833,8.833,0,0,1,56,47.705l-2.183,2.342a11.083,11.083,0,0,1-1.92,1.772,8.154,8.154,0,0,0-2.374,1.521,7.7,7.7,0,0,0-1.591,1.146,8.708,8.708,0,0,1-.9.689c-.182.031-.182.031-.474.334a26.092,26.092,0,0,0-2.466,2.113,5.251,5.251,0,0,0-1.278,1.033,5.069,5.069,0,0,1-.841.728,5.667,5.667,0,0,0-1.6,1.465c-.154.181-.305.357-.477.538a22.227,22.227,0,0,0-2.189,2.29c-.382.438-.776.891-1.21,1.358a21.1,21.1,0,0,0-2.2,2.611,9.988,9.988,0,0,0-1.321,1.863,6.943,6.943,0,0,1-.724,1.048c-.648.8-.424,3.189-.455,3.481s-.453.906-.4,1.136a5.731,5.731,0,0,1,.167.676,1.819,1.819,0,0,0,.395,1.026,3.427,3.427,0,0,0,1.584,1.019c.256-.043.362-.061.476-.336.484-.309.773-.581.819-1.053a1.57,1.57,0,0,1,.42-.8l1.924-2.049a9.6,9.6,0,0,0,2.058-1.934c.208-.24.421-.484.651-.73l7.456-8c.16-.171.318-.324.486-.487a4.137,4.137,0,0,0,1.1-1.467.955.955,0,0,1,.65-.427,2.4,2.4,0,0,0,1.13-1.387.8.8,0,0,1,.251-.494c.07-.074.083-.094.086-.126.043-.451.384-.689.715-.922.212-.148.525-.317.528-.411.037-.391.1-.463.43-.811l.476-.416c.8-.1,3.079-2.522,3.106-2.818s.443-.877.761-.9c.137-.089.291-.194.46-.309a4.978,4.978,0,0,1,1.606-.88L60.909,50a5.625,5.625,0,0,1,.934-.458,4.814,4.814,0,0,0,.825-.4,4.984,4.984,0,0,1,2.033-.9,5.429,5.429,0,0,1,1.087-.484,6.746,6.746,0,0,0,1.067-.464,3.926,3.926,0,0,0,.881-.314,2.532,2.532,0,0,1,.564-.21c.595-.1.63-.2.635-.216l.1-.187.613-.4a15,15,0,0,0,1.774-.452,10.287,10.287,0,0,1,1.243-.342,1.949,1.949,0,0,1,.258-.026.989.989,0,0,1,.677.241,1.408,1.408,0,0,1,.471.632c-.129.237.077.473-.133,1.078-.114.33.093.567-.062.682a1.025,1.025,0,0,1-.144.354,2.068,2.068,0,0,0-.222.693A1.61,1.61,0,0,1,73,49.961a1.669,1.669,0,0,0-.57.717,1.356,1.356,0,0,1-.27.424,4.976,4.976,0,0,1-.707,1.17,5.379,5.379,0,0,0-.679,1.115l-.9.963-.656.964c-.356.475-.677.953-.989,1.416a15.847,15.847,0,0,1-1.66,2.181,11.771,11.771,0,0,0-1.078.843c-.226.686-.625.623-.692.826a9.755,9.755,0,0,1-2.612,3.141,7.842,7.842,0,0,1-.705.566.653.653,0,0,0-.4.513,4.943,4.943,0,0,0-.721,1.973l-.165,1.715c-.012.125-.014.143.01.182.043.057.508.115.732.379a1.969,1.969,0,0,0,.941.717,2.094,2.094,0,0,0,.436-.265l1.768-2.059c.18-.031.484-.358.73-.621a2.4,2.4,0,0,0,.648-.951l3.767-4.032,1.041-.773a1.071,1.071,0,0,0,.421-.289c.645-.693,1.312-1.409,1.866-1.475a9.309,9.309,0,0,0,1.49-1.342l.049-.046,1.749-1.4c.151-.1.31-.218.479-.348.474-.362.956-1,1.532-1.073a6.618,6.618,0,0,0,1.054-.608c.353-.194,1.017-.246,1.325-.441l.883-.387c.442-.276.839.044.947.018.231-.056.44.562.266.627s-.276,1.272-.276,1.272-.224.515-.27.669a3,3,0,0,1-.59.688,1.94,1.94,0,0,1-.522,1.207L78.9,61.588a2.894,2.894,0,0,0-.659,1.462,5.064,5.064,0,0,0-.383,1.008,11.145,11.145,0,0,1-.376,1.086,4.677,4.677,0,0,0-.439,1.93l-.085.869s-.209.815-.036.989a2.964,2.964,0,0,1,.1.927,1.786,1.786,0,0,0,.345.864c-.041.421.289.5.522.716l.767.716a3.533,3.533,0,0,0,1.933.512,1.821,1.821,0,0,0,.252-.025l1.081-.076s.1.109.392.086c.167-.012.334-.032.469-.054l2.653-.426a1.655,1.655,0,0,0,.33.023,3.852,3.852,0,0,0,1.747-.5,3.519,3.519,0,0,1,1.3-.384,4.907,4.907,0,0,0,1.273-.328,5.733,5.733,0,0,1,1.242-.513,6.668,6.668,0,0,0,1.194-.483,10.681,10.681,0,0,0,2.549-.976l.055-.022a10.068,10.068,0,0,0,2.532-.977l3.166-1.364a18.737,18.737,0,0,1,3.8-2.036c.413-.265.757-.519,1.092-.765a11.161,11.161,0,0,1,1.939-1.169,5.266,5.266,0,0,0,.718-.43,4.035,4.035,0,0,0-.2.727l-.379,2.268c-.041.242.034.5-.007.792a6.438,6.438,0,0,0,.552,2.148c.02.045.032.16.064.25a1.053,1.053,0,0,1,.091.43l.068.08c1.158,1.376,1.618,1.432,2.573,1.563l.095.079c.163.175.387.416.52.412a.648.648,0,0,1,.305.092l.045.047a.339.339,0,0,0,.242.12l.165-.009a4.232,4.232,0,0,1,1.794.459l4.274-.391.081.027a1.687,1.687,0,0,0,.7.109l.094,0a3.49,3.49,0,0,0,1.278-.361,4.585,4.585,0,0,0,.856-.211,4.813,4.813,0,0,1,1.249-.264h.03a3.768,3.768,0,0,1,1.952-.874,6.767,6.767,0,0,0,1.267-.276,7.726,7.726,0,0,1,1.4-.3,2.754,2.754,0,0,0,1-.353,4.013,4.013,0,0,1,1.6-.517c.212-.085.411-.169.607-.254a6.494,6.494,0,0,1,2.105-.641l2.654-1.141a6.348,6.348,0,0,1,1.686-.8c.45-.171.917-.347,1.354-.547a2.708,2.708,0,0,0,.688-.187,3.2,3.2,0,0,1,1.16-.466l.47-.01a7.278,7.278,0,0,1,2.42-.878l1.049-.484a.989.989,0,0,0,.581-.2l.165-.182a4.487,4.487,0,0,0,.761-.35.227.227,0,0,1,.08-.139c.041-.042.568-.265.769-.381A4.3,4.3,0,0,1,148.6,60.9a5.3,5.3,0,0,0,1.072-.751,3.315,3.315,0,0,1,1.615-.871c.166-.017.248-.415.642-.493a1.124,1.124,0,0,1,.267-.071,8.531,8.531,0,0,0,.98-.315.532.532,0,0,0,.126-.056c-.007.023-.013.043-.02.066a3.308,3.308,0,0,1-.158.5,2.258,2.258,0,0,0-.431.8,3.223,3.223,0,0,1-.142.348,3.245,3.245,0,0,0-.2.563c-.051.178-.3.572-.275.766.041.355-.027.2-.178,1.012a9.19,9.19,0,0,0-.063,2.1,3.3,3.3,0,0,1,.232,1.034c0,.022.011.266.019.285.04.086.067.16.091.226.05.135.106.289.291.314.124.114.2.207.2.294a.129.129,0,0,0,.042.1l.574.566a2.749,2.749,0,0,0,1.3.506,6.479,6.479,0,0,1,.667.168,2.645,2.645,0,0,1,.376.1,3.956,3.956,0,0,0,.538.105,1,1,0,0,0,.5-.1.811.811,0,0,1,.246-.028.586.586,0,0,1,.212.029.151.151,0,0,0,.1.032l3.453-.667a.134.134,0,0,0,.049-.021,3.52,3.52,0,0,1,1.272-.4.118.118,0,0,0,.037-.013,3.491,3.491,0,0,1,1.4-.484.933.933,0,0,1,.171.01h.045a4.057,4.057,0,0,0,1.369-.6,6.775,6.775,0,0,0,.932-.275,5.059,5.059,0,0,1,.68-.2.146.146,0,0,0,.036-.012c.137-.072.261-.143.377-.207a2.814,2.814,0,0,1,.755-.343,3.517,3.517,0,0,0,.725-.241,2.343,2.343,0,0,1,.432-.152.126.126,0,0,0,.036-.012,5.631,5.631,0,0,1,.739-.309,5.762,5.762,0,0,0,.757-.318,5.7,5.7,0,0,1,.732-.307,6.408,6.408,0,0,0,.752-.311l.3-.059a.135.135,0,0,0,.074-.043.631.631,0,0,1,.428-.224.112.112,0,0,0,.049-.021,2.831,2.831,0,0,1,.557-.266,3.054,3.054,0,0,0,.611-.3,3.062,3.062,0,0,1,1.107-.373.134.134,0,0,0,.05-.021,5.337,5.337,0,0,1,2.112-.9.122.122,0,0,0,.042-.017,14.834,14.834,0,0,1,2.642-1.18.118.118,0,0,0,.054-.037,1.4,1.4,0,0,1,.757-.286,2.546,2.546,0,0,0,.493-.171,3.234,3.234,0,0,1,.664-.221.121.121,0,0,0,.037-.013c.105-.056.2-.11.3-.165a3.387,3.387,0,0,1,1.027-.429l1.659-.824c.369-.146.733-.323,1.126-.513.484-.234,1.245-.722,1.8-.923.809-.321.792-.669,1.811-1.2l1.072-.562c.165-.086.386-.35.549-.418a.342.342,0,0,1,.034-.012,1.755,1.755,0,0,0-.222.333c-.047.089-.1.192-.189.328a1.674,1.674,0,0,0-.289.558,3.434,3.434,0,0,1-.223.508,2.351,2.351,0,0,0-.54.781,3.258,3.258,0,0,1-.186.344,3.355,3.355,0,0,0-.275.562,3.151,3.151,0,0,1-.254.523.13.13,0,0,0-.019.048l-.439,1.447a5.267,5.267,0,0,0-.281,1.593c-.141.3.134,1.107.078,1.438a.125.125,0,0,0,.006.066c.033.094.054.174.071.241.046.173.076.655.255.694.123.135.2.237.181.326a.131.131,0,0,0,.033.11l.635.508a2.907,2.907,0,0,0,1.306.641,6.945,6.945,0,0,1,.7.241,2.7,2.7,0,0,1,.388.137,1.728,1.728,0,0,0,.679.158,1.557,1.557,0,0,0,.5-.054c.039-.013.233-.032.281.021a.373.373,0,0,0,.28.056l3.648-.351a.128.128,0,0,0,.051-.015,3.86,3.86,0,0,1,1.39-.3.113.113,0,0,0,.036-.009,4.56,4.56,0,0,1,1.341-.365,1.246,1.246,0,0,1,.372.027.137.137,0,0,0,.042,0h0a4.318,4.318,0,0,0,1.506-.489,7.46,7.46,0,0,0,1.012-.195,5.547,5.547,0,0,1,.745-.146.112.112,0,0,0,.036-.009c.148-.06.284-.119.416-.176a3.052,3.052,0,0,1,.84-.284,3.889,3.889,0,0,0,.786-.178,2.533,2.533,0,0,1,.479-.116.1.1,0,0,0,.036-.009,6.033,6.033,0,0,1,.807-.246,6.479,6.479,0,0,0,.839-.256,5.894,5.894,0,0,1,.814-.248,6.971,6.971,0,0,0,.822-.249l.327-.032a.131.131,0,0,0,.076-.034.694.694,0,0,1,.483-.192.133.133,0,0,0,.05-.015,3.079,3.079,0,0,1,.62-.223,3.327,3.327,0,0,0,.674-.246,4.1,4.1,0,0,1,1.266-.448.133.133,0,0,0,.05-.015,5.818,5.818,0,0,1,2.331-.73.124.124,0,0,0,.042-.012,15.876,15.876,0,0,1,2.917-.962.129.129,0,0,0,.057-.032,1.535,1.535,0,0,1,.835-.226,2.748,2.748,0,0,0,.53-.127,3.522,3.522,0,0,1,.733-.167.107.107,0,0,0,.036-.009c.118-.047.227-.094.335-.14a3.733,3.733,0,0,1,1.132-.344l1.841-.691c.4-.114.8-.26,1.243-.42a17.733,17.733,0,0,1,1.711-.554,20.394,20.394,0,0,0,2.3-.891s.352-.036.363-.041c.182-.073.914-.489,1.091-.542a3.906,3.906,0,0,0,1.15-.5c.36-.2.973-.332,1.258-.528.84-.583.83-.4,1.458-.825a2.245,2.245,0,0,0,.375-.252,1.686,1.686,0,0,1,.179-.094l-.419.34a20.762,20.762,0,0,0-2.549,2.43c-.222.272-.456.544-.693.82a18.017,18.017,0,0,0-1.83,2.389,3.065,3.065,0,0,0-.522,1.033l-.119.64a2.078,2.078,0,0,0,.111,1.139.4.4,0,0,0,.3.424.446.446,0,0,1,.134.078.12.12,0,0,0,.039.029.966.966,0,0,1,.31.263c.1.111.37.143.531.236a3.351,3.351,0,0,0,.668-.072c.43-.12.717-.2.73-.209l1.345-.814a10.279,10.279,0,0,0,1.423-1.085c.28-.241.545-.469.839-.681a19.661,19.661,0,0,0,3.088-2.778,5.216,5.216,0,0,0,1.649-1.9c.182-.367.618-.771.645-.87a.1.1,0,0,1,.085-.075.135.135,0,0,0,.07-.031c.244-.18.265-.125.319-.046.02.029.129.036.129.036a.754.754,0,0,1,.664.248.777.777,0,0,1,.28.324.977.977,0,0,0,.383.415,2.058,2.058,0,0,0,.494.133,1.768,1.768,0,0,1,.406.1,2.858,2.858,0,0,0,1.666.525l.021,0,.014.015a1.454,1.454,0,0,0,1.2.361c.123-.006.25-.016.381-.026l1.33-.1a6.632,6.632,0,0,1,.683-.026,1.278,1.278,0,0,0,.932.236c.116-.006,3.829,0,3.829,0a.314.314,0,0,0,.186.044,2.6,2.6,0,0,0,.854-.289l2.651-.2a1.84,1.84,0,0,0,.529.058,1.477,1.477,0,0,0,.867-.328l1.739-.136a.376.376,0,0,1,.111.019.662.662,0,0,0,.192.029.345.345,0,0,0,.225-.1,3.05,3.05,0,0,1,1.121-.237,1.87,1.87,0,0,0,.888-.237,2.809,2.809,0,0,1,1.151-.4.123.123,0,0,0,.07-.03,1.526,1.526,0,0,1,.8-.355l.813-.064a.947.947,0,0,0,.347-.157,1.425,1.425,0,0,1,.532-.228c.036,0,.307.042.4.038a.492.492,0,0,0,.3-.111,2.333,2.333,0,0,1,.943-.215,1.194,1.194,0,0,0,.476-.2,1.242,1.242,0,0,1,.544-.224,1.556,1.556,0,0,1,.172.018.121.121,0,0,0,.075-.031,1.388,1.388,0,0,1,.966-.367,1.335,1.335,0,0,0,.742-.233,1.22,1.22,0,0,1,.354-.1,1.735,1.735,0,0,0,.688-.243.331.331,0,0,1,.162-.058c.058,0,.315-.089.36-.09a.141.141,0,0,0,.1-.034l.274-.118c.1-.038.36-.08.451-.116a3.115,3.115,0,0,1,.854-.292,2.368,2.368,0,0,0,.805-.464,1.046,1.046,0,0,1,.55-.251,2.327,2.327,0,0,0,.821-.311,2.151,2.151,0,0,1,.731-.285,2.1,2.1,0,0,1,.493-.182,2.667,2.667,0,0,0,.953-.421c.192-.125.39-.251.592-.367L278.724,50a1.679,1.679,0,0,0-.445.572l-.512.5a3.8,3.8,0,0,0-.912,1.032l-.026.038c-.09.131-.182.265-.275.389-.191.186-.588.575-.524.988-.022.1-.046.124-.179.254a1.861,1.861,0,0,0-.364.946l-.248,1.215a2.633,2.633,0,0,0-.036.506,3.338,3.338,0,0,1-.059.7.707.707,0,0,0,.025.313.477.477,0,0,1,.022.2.133.133,0,0,0,.022.1c.033.046.113.083.123.113s-.049.055-.063.124a.127.127,0,0,0,.022.1,2.381,2.381,0,0,0,1.438,1.152l.019,0,.012.016a.74.74,0,0,0,.395.324.457.457,0,0,0,.35.145,1.278,1.278,0,0,1,.751.275.131.131,0,0,0,.073.018l1.953-.114a1.256,1.256,0,0,0,.582.085,1.185,1.185,0,0,0,.547-.162,2.358,2.358,0,0,0,.43-.1,2.645,2.645,0,0,1,.631-.134.13.13,0,0,0,.083-.037,1.33,1.33,0,0,1,.748-.357,3.115,3.115,0,0,0,.654-.129,2.779,2.779,0,0,1,.6-.12,1.446,1.446,0,0,0,.6-.2,1.566,1.566,0,0,1,.69-.221.132.132,0,0,0,.041-.009c.1-.042.2-.085.294-.126a2.76,2.76,0,0,1,.951-.286.126.126,0,0,0,.046-.011s1.291-.588,1.361-.622a.165.165,0,0,0,.083-.141l0-.028.026-.012a.884.884,0,0,0,.173-.109l.021-.016.025.008a.579.579,0,0,0,.187.025,1.876,1.876,0,0,0,.762-.289,1.582,1.582,0,0,0,.371-.1,1.711,1.711,0,0,1,.537-.127l.3-.018a.131.131,0,0,0,.056-.017,3.115,3.115,0,0,1,1.08-.4.175.175,0,0,0,.051-.013l1.156-.578a.4.4,0,0,0,.216-.127c.043-.043.063-.058.087-.06a1.409,1.409,0,0,0,.415-.105,1.723,1.723,0,0,1,.534-.124.13.13,0,0,0,.083-.037,1,1,0,0,1,.365-.183,2.689,2.689,0,0,0,.439-.19,2.394,2.394,0,0,1,.4-.173,1.574,1.574,0,0,0,.436-.211,2.409,2.409,0,0,0,.448-.116,1.864,1.864,0,0,1,.439-.108.127.127,0,0,0,.083-.036.906.906,0,0,1,.561-.174.134.134,0,0,0,.083-.037.938.938,0,0,1,.3-.164,1.537,1.537,0,0,0,.361-.189,2.037,2.037,0,0,0,.63-.217,1.665,1.665,0,0,1,.6-.2.82.82,0,0,0,.555-.212,3.817,3.817,0,0,0,.823-.4,2.433,2.433,0,0,1,.4-.173,1.562,1.562,0,0,0,.435-.209,2.935,2.935,0,0,0,.98-.415.129.129,0,0,0,.063-.087c.015-.07.066-.079.22-.089a1.364,1.364,0,0,0,.672-.28c.065-.041.136-.086.216-.13a1.341,1.341,0,0,1,.741-.2.123.123,0,0,0,.056-.017c.093-.052.175-.1.251-.153a1.092,1.092,0,0,1,.523-.224.124.124,0,0,0,.067-.023l.527-.375a.131.131,0,0,0,.052-.08c.015-.071.066-.08.221-.089a2.666,2.666,0,0,0,1.219-.449,1.444,1.444,0,0,1,.6-.348.778.778,0,0,0,.574-.239,4,4,0,0,1,1.317-.742c.015-.006.231-.148.339-.193.032-.012.066-.029.1-.044A21.372,21.372,0,0,0,308.918,51a1.345,1.345,0,0,0-.217.376,1.177,1.177,0,0,1-.214.361,12.387,12.387,0,0,0-.768,1.6c-.055.132-.107.258-.175.4a.394.394,0,0,0-.08.408.5.5,0,0,1,.019.163,1.8,1.8,0,0,0,.78,1.3,1.4,1.4,0,0,0,.872.474h.016a2.215,2.215,0,0,0,1.021-.507l.131-.081a1.062,1.062,0,0,0,.28-.132.766.766,0,0,1,.243-.111.089.089,0,0,0,.046-.023,6.91,6.91,0,0,1,.867-.711,7.2,7.2,0,0,0,.884-.727,4.656,4.656,0,0,1,.5-.411,3.8,3.8,0,0,0,.869-.8,12.791,12.791,0,0,1,1.545-1.267c.246-.18.493-.359.787-.576l.2-.03-.245,2.13a2.733,2.733,0,0,0,.366,1.714l.348.309a5.227,5.227,0,0,1,.851.434,5.084,5.084,0,0,0,1.321.607l.041,0a1.236,1.236,0,0,1,.147-.012h.041c.1,0,.211.01.321.021s.223.022.341.022l.1,0c.036,0,.074-.006.112-.012a4.192,4.192,0,0,0,1.473-.384l1.864-.781a25.5,25.5,0,0,0,3.265-2.333c.067-.041.14-.081.239-.135a2.55,2.55,0,0,0,.948-.737l1.779-1.77a3.694,3.694,0,0,0,.63-.778l.186-.186c.182-.181.285-.267.393-.27h.019c.357-.136.3-.5.44-.662a6.982,6.982,0,0,0,.527-.637,5.8,5.8,0,0,1,.713-.55,3.944,3.944,0,0,0,.338-.363l.514.252c.292.263.781.154,1.2.487l.858.195c.011,0,.8.08.8.08a3.508,3.508,0,0,0,1.223.164,2.153,2.153,0,0,1,.616.132c.012,0,.665.075.677.075.077.007.441.018.521.018l.091,0c.193,0,.508.1.679.1l.406-.006c.241,0,.626.091.8.108a2.847,2.847,0,0,0,.562-.016c.022,0,.483.069.983.075a.73.73,0,0,0,.463-.006c.185,0,.282.054.576.041.04,0,.08,0,.119,0l.776-.076c.5.056,1.164-.063,1.51-.033a1.409,1.409,0,0,0,.8-.1c.252-.033.361-.037.648-.094a4.937,4.937,0,0,1,1.386-.207,1.5,1.5,0,0,0,.83-.112s1.3-.294,1.555-.322a1.6,1.6,0,0,0,.988-.812c.171-.416-.237-.671-.3-.876m-69.676,5.137a.777.777,0,0,1,.484-.241.135.135,0,0,0,.05-.013l1.158-.577a.393.393,0,0,0,.212-.124s.023-.051.053-.051.028.068.028.068c.005.047.054.066.074.073l.032.012c.032.012,0,.034,0,.034a.128.128,0,0,0,.032.085c.026.029.534-.032.518.019s-.1.095-.1.095a3.914,3.914,0,0,1-.713.566.132.132,0,0,0-.063.088c-.014.068-.069.078-.22.087a11.057,11.057,0,0,1-1.45.089.406.406,0,0,1-.127-.179.029.029,0,0,1,.032-.03M200.057,48.8c.014-.028.486-.556.734-.854a10.015,10.015,0,0,1,.84-.931c.215-.2.388-.354.512-.366a.134.134,0,0,0,.076-.034l.431-.409a3.411,3.411,0,0,1,.626-.726c.344-.321.685-.622,1.019-.917l.036-.032a23.217,23.217,0,0,0,1.824-1.732,2.659,2.659,0,0,0,.395-.29,1.011,1.011,0,0,1,.5-.289.129.129,0,0,0,.115-.108c.007-.042.031-.066.079-.11a.551.551,0,0,0,.155-.219,6.531,6.531,0,0,1,1.128-.911,1.5,1.5,0,0,0,.626-.43c.174-.163.829-.536.894-.655a.955.955,0,0,1,.49-.494,5.424,5.424,0,0,0,.6-.411,5.212,5.212,0,0,1,.577-.394l.978-.614a14.48,14.48,0,0,1,2.384-1.885c.012-.007.128-.057.563-.24,0,0,.12-.021.121,0s.176.033.159.151a.932.932,0,0,0-.083.378c.009.341-1.239,1.38-2.034,2.121-.02.019-.429.266-.433.294-.008.049-.042.073-.139.135a1.155,1.155,0,0,0-.206.155,6.063,6.063,0,0,0-1.4,1.136l-.419.416a2.489,2.489,0,0,0-.663.585,1.625,1.625,0,0,1-.172.178.507.507,0,0,0-.267.223.837.837,0,0,1-.145.158,1.189,1.189,0,0,0-.822.626,8.217,8.217,0,0,0-1.636,1.525,2.759,2.759,0,0,0-.494.392,2.3,2.3,0,0,1-.461.362l-.138.013a.131.131,0,0,0-.085.043,7.973,7.973,0,0,1-1.574,1.253,9.649,9.649,0,0,0-1.2.887,5.086,5.086,0,0,0-.755.416,4.925,4.925,0,0,1-.768.42c-.256.175-.481.348-.687.506a6.157,6.157,0,0,1-.709.5,1.147,1.147,0,0,1-.342.183c-.078.032-.206.112-.253.075a.177.177,0,0,1,.019-.084m-37.943,1.667a9.285,9.285,0,0,1,.7-.972,3.766,3.766,0,0,1,.509-.433l.367-.431a3.211,3.211,0,0,1,.515-.752c.3-.343.591-.668.88-.985a22.19,22.19,0,0,0,1.56-1.841,2.639,2.639,0,0,0,.342-.314c.148-.154.536-.378.539-.438,0-.04.156-.219.187-.335a5.9,5.9,0,0,1,.965-.97,1.4,1.4,0,0,0,.549-.47.633.633,0,0,1,.429-.224.122.122,0,0,0,.073-.042,1.226,1.226,0,0,1,.17-.157.435.435,0,0,0,.21-.324c.01-.172.03-.287.3-.475a5.027,5.027,0,0,0,.533-.454,4.743,4.743,0,0,1,.5-.423l.859-.678a13.129,13.129,0,0,1,2.192-1.76.137.137,0,0,0,.032-.027,5.886,5.886,0,0,1,1.114-.855l-.029.307a1.525,1.525,0,0,0-.356.562c-.847.832-2.248,2.474-2.25,2.5,0,.046-.236.236-.311.318a5.735,5.735,0,0,0-1.2,1.215c-.113.139-.227.282-.36.435a2.41,2.41,0,0,0-.548.611,1.586,1.586,0,0,1-.142.182c-.116.045-.285.333-.351.4a1.14,1.14,0,0,0-.71.676A7.74,7.74,0,0,0,168,45.925a2.66,2.66,0,0,0-.428.425,2.1,2.1,0,0,1-.392.382l-.124.023c-.032.007-.96,1-1.435,1.392a8.869,8.869,0,0,0-1.039.957,4.725,4.725,0,0,0-.675.472,4.676,4.676,0,0,1-.672.465c-.226.192-.421.378-.6.55a5.83,5.83,0,0,1-.612.538,3.149,3.149,0,0,1-.471.3s.367-.664.564-.961m-42.606,4.06c.246-.377,2.5-2.563,3.241-2.668L124.9,50.3a3.5,3.5,0,0,0,.429-.143c.359-.133.285-.322.768-.392.041-.017.343.179.6.08l.508-.349c.718-.158,1.623.038,1.618.426s.154,1.337-.09,1.61c-.1.11-.836,1.2-1.022,1.458-.367.5-1.072,1.428-1.492,1.507a7.824,7.824,0,0,0-1.695.828,10.7,10.7,0,0,1-3.32,1.435l-.158.014-.28-.05-.93-.738c-.173-.138-.344-.888-.366-.914-.038-.046-.113-.075-.122-.149a.765.765,0,0,1,.155-.4" transform="translate(0 0)" fill="#fff"/>
    </g>
  </g>
</svg>
