<svg xmlns="http://www.w3.org/2000/svg" width="167.672" height="53.336" viewBox="0 0 167.672 53.336">
  <path id="CONTACT" d="M35.424,1.5h-.576A7.9,7.9,0,0,1,29.107-.763,7.714,7.714,0,0,1,26.792-6.48V-43.848a7.714,7.714,0,0,1,2.315-5.717,7.9,7.9,0,0,1,5.741-2.267h.576a7.746,7.746,0,0,1,5.754,2.279,7.846,7.846,0,0,1,2.23,5.7V-6.48a7.846,7.846,0,0,1-2.23,5.7A7.746,7.746,0,0,1,35.424,1.5Zm-.576-51.336a5.89,5.89,0,0,0-4.339,1.693,5.708,5.708,0,0,0-1.717,4.291V-6.48a5.708,5.708,0,0,0,1.717,4.291A5.89,5.89,0,0,0,34.848-.5h.576A5.743,5.743,0,0,0,39.75-2.177a5.837,5.837,0,0,0,1.658-4.3V-43.848a5.837,5.837,0,0,0-1.658-4.3,5.743,5.743,0,0,0-4.326-1.681ZM137.3,1.36h-.648a7.714,7.714,0,0,1-5.717-2.315,7.812,7.812,0,0,1-2.267-5.669V-43.776a7.812,7.812,0,0,1,2.267-5.669,7.714,7.714,0,0,1,5.717-2.315h.648a7.746,7.746,0,0,1,5.754,2.279,7.846,7.846,0,0,1,2.23,5.7v13.248a2.621,2.621,0,0,1-.725,1.931,2.621,2.621,0,0,1-1.931.725h-1.44a2.617,2.617,0,0,1-1.9-.761,2.617,2.617,0,0,1-.761-1.9v-13.32a1.283,1.283,0,0,0-.374-.932,1.1,1.1,0,0,0-.858-.372h-.72a1.1,1.1,0,0,0-.858.372,1.283,1.283,0,0,0-.374.932v37.3a1.283,1.283,0,0,0,.374.932,1.1,1.1,0,0,0,.858.372h.72a1.1,1.1,0,0,0,.858-.372,1.283,1.283,0,0,0,.374-.932V-20.016a2.559,2.559,0,0,1,.79-1.959,2.7,2.7,0,0,1,1.866-.7h1.44a2.621,2.621,0,0,1,1.931.725,2.621,2.621,0,0,1,.725,1.931V-6.624a7.846,7.846,0,0,1-2.23,5.7A7.746,7.746,0,0,1,137.3,1.36Zm-.648-51.12a5.708,5.708,0,0,0-4.291,1.717,5.8,5.8,0,0,0-1.693,4.267V-6.624a5.8,5.8,0,0,0,1.693,4.267A5.708,5.708,0,0,0,136.656-.64h.648a5.743,5.743,0,0,0,4.326-1.681,5.837,5.837,0,0,0,1.658-4.3V-20.016a.735.735,0,0,0-.139-.517.735.735,0,0,0-.517-.139h-1.44a.682.682,0,0,0-.51.167c-.036.033-.146.135-.146.489V-6.552a3.256,3.256,0,0,1-.922,2.308,3.113,3.113,0,0,1-2.31,1h-.72a3.113,3.113,0,0,1-2.31-1,3.256,3.256,0,0,1-.922-2.308v-37.3a3.256,3.256,0,0,1,.922-2.308,3.113,3.113,0,0,1,2.31-1h.72a3.113,3.113,0,0,1,2.31,1,3.256,3.256,0,0,1,.922,2.308v13.32a.61.61,0,0,0,.175.481.61.61,0,0,0,.481.175h1.44a.735.735,0,0,0,.517-.139.735.735,0,0,0,.139-.517V-43.776a5.837,5.837,0,0,0-1.658-4.3A5.743,5.743,0,0,0,137.3-49.76Zm-126,51.12h-.648A7.714,7.714,0,0,1,4.291-.955,7.812,7.812,0,0,1,2.024-6.624V-43.776a7.812,7.812,0,0,1,2.267-5.669,7.714,7.714,0,0,1,5.717-2.315h.648a7.746,7.746,0,0,1,5.754,2.279,7.846,7.846,0,0,1,2.23,5.7v13.248a2.621,2.621,0,0,1-.725,1.931,2.621,2.621,0,0,1-1.931.725h-1.44a2.617,2.617,0,0,1-1.9-.761,2.617,2.617,0,0,1-.761-1.9v-13.32a1.283,1.283,0,0,0-.374-.932,1.1,1.1,0,0,0-.858-.372h-.72a1.1,1.1,0,0,0-.858.372,1.283,1.283,0,0,0-.374.932v37.3a1.283,1.283,0,0,0,.374.932,1.1,1.1,0,0,0,.858.372h.72a1.1,1.1,0,0,0,.858-.372,1.283,1.283,0,0,0,.374-.932V-20.016a2.559,2.559,0,0,1,.79-1.959,2.7,2.7,0,0,1,1.866-.7h1.44a2.621,2.621,0,0,1,1.931.725,2.621,2.621,0,0,1,.725,1.931V-6.624a7.846,7.846,0,0,1-2.23,5.7A7.746,7.746,0,0,1,10.656,1.36Zm-.648-51.12a5.708,5.708,0,0,0-4.291,1.717,5.8,5.8,0,0,0-1.693,4.267V-6.624A5.8,5.8,0,0,0,5.717-2.357,5.708,5.708,0,0,0,10.008-.64h.648a5.743,5.743,0,0,0,4.326-1.681,5.837,5.837,0,0,0,1.658-4.3V-20.016a.735.735,0,0,0-.139-.517.735.735,0,0,0-.517-.139h-1.44a.682.682,0,0,0-.51.167c-.036.033-.146.135-.146.489V-6.552a3.256,3.256,0,0,1-.922,2.308,3.113,3.113,0,0,1-2.31,1h-.72a3.113,3.113,0,0,1-2.31-1A3.256,3.256,0,0,1,6.7-6.552v-37.3a3.256,3.256,0,0,1,.922-2.308,3.113,3.113,0,0,1,2.31-1h.72a3.113,3.113,0,0,1,2.31,1,3.256,3.256,0,0,1,.922,2.308v13.32a.61.61,0,0,0,.175.481.61.61,0,0,0,.481.175h1.44a.735.735,0,0,0,.517-.139.735.735,0,0,0,.139-.517V-43.776a5.837,5.837,0,0,0-1.658-4.3,5.743,5.743,0,0,0-4.326-1.681ZM161.5,1h-1.44A2.441,2.441,0,0,1,157.4-1.656v-43.28h-2.888a2.441,2.441,0,0,1-2.656-2.656v-1.152a2.441,2.441,0,0,1,2.656-2.656H167.04a2.441,2.441,0,0,1,2.656,2.656v1.152a2.441,2.441,0,0,1-2.656,2.656h-2.888v43.28A2.441,2.441,0,0,1,161.5,1Zm-6.984-50.4c-.546,0-.656.11-.656.656v1.152c0,.546.11.656.656.656H159.4v45.28c0,.546.11.656.656.656h1.44c.546,0,.656-.11.656-.656v-45.28h4.888c.546,0,.656-.11.656-.656v-1.152c0-.546-.11-.656-.656-.656ZM119.088,1H117.72a2.755,2.755,0,0,1-1.834-.633A2.606,2.606,0,0,1,115-1.4l-1.4-10.851H109.1L107.7-1.4a2.646,2.646,0,0,1-.822,1.738A2.612,2.612,0,0,1,105.048,1h-1.512a2.513,2.513,0,0,1-2.023-.822,2.523,2.523,0,0,1-.478-2.124l6.2-47.048a2.679,2.679,0,0,1,2.784-2.405h2.808a2.617,2.617,0,0,1,2.791,2.449v.008l6.053,47.061A2.633,2.633,0,0,1,121.047.21,2.559,2.559,0,0,1,119.088,1ZM107.337-14.248h8.023l1.628,12.637a.6.6,0,0,0,.191.452A.772.772,0,0,0,117.72-1h1.368c.354,0,.456-.11.489-.146a.834.834,0,0,0,.1-.551l-6.044-46.988c-.076-.555-.258-.716-.809-.716h-2.808c-.454,0-.693.111-.812.741L103.01-1.636a.764.764,0,0,0,.029.522c.047.055.2.114.5.114h1.512a.635.635,0,0,0,.476-.133.67.67,0,0,0,.185-.478l0-.028ZM89.424,1h-1.44a2.441,2.441,0,0,1-2.656-2.656v-43.28H82.44a2.441,2.441,0,0,1-2.656-2.656v-1.152A2.441,2.441,0,0,1,82.44-51.4H94.968a2.441,2.441,0,0,1,2.656,2.656v1.152a2.441,2.441,0,0,1-2.656,2.656H92.08v43.28A2.441,2.441,0,0,1,89.424,1ZM82.44-49.4c-.546,0-.656.11-.656.656v1.152c0,.546.11.656.656.656h4.888v45.28c0,.546.11.656.656.656h1.44c.546,0,.656-.11.656-.656v-45.28h4.888c.546,0,.656-.11.656-.656v-1.152c0-.546-.11-.656-.656-.656ZM69.048,1H67.32a2.779,2.779,0,0,1-2.826-2.067l-.015-.054-6.6-25.837v25.3A2.441,2.441,0,0,1,55.224,1h-1.44a2.441,2.441,0,0,1-2.656-2.656V-48.744A2.441,2.441,0,0,1,53.784-51.4h1.8a2.779,2.779,0,0,1,2.826,2.067l.016.055,6.527,25.661V-48.744A2.441,2.441,0,0,1,67.608-51.4h1.44A2.441,2.441,0,0,1,71.7-48.744V-1.656A2.441,2.441,0,0,1,69.048,1ZM66.409-1.645A.81.81,0,0,0,67.32-1h1.728c.546,0,.656-.11.656-.656V-48.744c0-.546-.11-.656-.656-.656h-1.44c-.546,0-.656.11-.656.656v33.832H65.1L56.494-48.755a.809.809,0,0,0-.91-.645h-1.8c-.546,0-.656.11-.656.656V-1.656c0,.546.11.656.656.656h1.44c.546,0,.656-.11.656-.656V-35.632h1.849ZM35.424-3.1H34.7a3.051,3.051,0,0,1-2.275-.961,3.2,3.2,0,0,1-.885-2.271V-43.992a3.2,3.2,0,0,1,.885-2.271,3.051,3.051,0,0,1,2.275-.961h.72a3.173,3.173,0,0,1,2.291.941,3.173,3.173,0,0,1,.941,2.291V-6.336a3.173,3.173,0,0,1-.941,2.291A3.173,3.173,0,0,1,35.424-3.1Zm-.72-42.12a1.043,1.043,0,0,0-.821.335,1.229,1.229,0,0,0-.339.9V-6.336a1.229,1.229,0,0,0,.339.9A1.042,1.042,0,0,0,34.7-5.1h.72a1.152,1.152,0,0,0,.877-.355,1.152,1.152,0,0,0,.355-.877V-43.992a1.152,1.152,0,0,0-.355-.877,1.152,1.152,0,0,0-.877-.355Zm80.377,28.44h-7.4l2.8-26.48h1.949Zm-5.178-2h2.968L111.43-33.2Z" transform="translate(-2.024 51.832)" fill="#5a4646"/>
</svg>
