<svg xmlns="http://www.w3.org/2000/svg" width="184.52" height="53.336" viewBox="0 0 184.52 53.336">
  <path id="COMPANY" d="M35.424,1.5h-.576A7.9,7.9,0,0,1,29.107-.763,7.714,7.714,0,0,1,26.792-6.48V-43.848a7.714,7.714,0,0,1,2.315-5.717,7.9,7.9,0,0,1,5.741-2.267h.576a7.746,7.746,0,0,1,5.754,2.279,7.846,7.846,0,0,1,2.23,5.7V-6.48a7.846,7.846,0,0,1-2.23,5.7A7.746,7.746,0,0,1,35.424,1.5Zm-.576-51.336a5.89,5.89,0,0,0-4.339,1.693,5.708,5.708,0,0,0-1.717,4.291V-6.48a5.708,5.708,0,0,0,1.717,4.291A5.89,5.89,0,0,0,34.848-.5h.576A5.743,5.743,0,0,0,39.75-2.177a5.837,5.837,0,0,0,1.658-4.3V-43.848a5.837,5.837,0,0,0-1.658-4.3,5.743,5.743,0,0,0-4.326-1.681ZM10.656,1.36h-.648A7.714,7.714,0,0,1,4.291-.955,7.812,7.812,0,0,1,2.024-6.624V-43.776a7.812,7.812,0,0,1,2.267-5.669,7.714,7.714,0,0,1,5.717-2.315h.648a7.746,7.746,0,0,1,5.754,2.279,7.846,7.846,0,0,1,2.23,5.7v13.248a2.621,2.621,0,0,1-.725,1.931,2.621,2.621,0,0,1-1.931.725h-1.44a2.617,2.617,0,0,1-1.9-.761,2.617,2.617,0,0,1-.761-1.9v-13.32a1.283,1.283,0,0,0-.374-.932,1.1,1.1,0,0,0-.858-.372h-.72a1.1,1.1,0,0,0-.858.372,1.283,1.283,0,0,0-.374.932v37.3a1.283,1.283,0,0,0,.374.932,1.1,1.1,0,0,0,.858.372h.72a1.1,1.1,0,0,0,.858-.372,1.283,1.283,0,0,0,.374-.932V-20.016a2.559,2.559,0,0,1,.79-1.959,2.7,2.7,0,0,1,1.866-.7h1.44a2.621,2.621,0,0,1,1.931.725,2.621,2.621,0,0,1,.725,1.931V-6.624a7.846,7.846,0,0,1-2.23,5.7A7.746,7.746,0,0,1,10.656,1.36Zm-.648-51.12a5.708,5.708,0,0,0-4.291,1.717,5.8,5.8,0,0,0-1.693,4.267V-6.624A5.8,5.8,0,0,0,5.717-2.357,5.708,5.708,0,0,0,10.008-.64h.648a5.743,5.743,0,0,0,4.326-1.681,5.837,5.837,0,0,0,1.658-4.3V-20.016a.735.735,0,0,0-.139-.517.735.735,0,0,0-.517-.139h-1.44a.681.681,0,0,0-.51.167c-.036.033-.146.135-.146.489V-6.552a3.256,3.256,0,0,1-.922,2.308,3.113,3.113,0,0,1-2.31,1h-.72a3.113,3.113,0,0,1-2.31-1A3.256,3.256,0,0,1,6.7-6.552v-37.3a3.256,3.256,0,0,1,.922-2.308,3.113,3.113,0,0,1,2.31-1h.72a3.113,3.113,0,0,1,2.31,1,3.256,3.256,0,0,1,.922,2.308v13.32a.61.61,0,0,0,.175.481.61.61,0,0,0,.481.175h1.44a.735.735,0,0,0,.517-.139.735.735,0,0,0,.139-.517V-43.776a5.837,5.837,0,0,0-1.658-4.3,5.743,5.743,0,0,0-4.326-1.681ZM177.336,1H175.9a2.441,2.441,0,0,1-2.656-2.656v-17.1l-6.608-29.594-.088-.613v-.071a2.277,2.277,0,0,1,.707-1.768,2.6,2.6,0,0,1,1.8-.6h1.656a2.616,2.616,0,0,1,2.71,2.325l3.147,16.562,3.309-16.546a2.55,2.55,0,0,1,2.714-2.341h1.44a2.663,2.663,0,0,1,1.785.565,2.175,2.175,0,0,1,.727,1.731,2.91,2.91,0,0,1-.1.832l-6.448,29.515v17.1A2.441,2.441,0,0,1,177.336,1ZM168.6-48.708l6.64,29.733V-1.656c0,.546.11.656.656.656h1.44c.546,0,.656-.11.656-.656V-18.972l.023-.105,6.491-29.716.017-.051a1.058,1.058,0,0,0,.021-.26.51.51,0,0,0-.031-.214.962.962,0,0,0-.481-.082h-1.44c-.506,0-.665.14-.738.653l-.009.055-4.32,21.6-1.963-.009-4.1-21.6c-.113-.594-.331-.7-.746-.7h-1.656a.852.852,0,0,0-.463.084.437.437,0,0,0-.048.223ZM156.6,1h-1.728a2.779,2.779,0,0,1-2.826-2.067l-.015-.054-6.6-25.837v25.3A2.441,2.441,0,0,1,142.776,1h-1.44a2.441,2.441,0,0,1-2.656-2.656V-48.744a2.441,2.441,0,0,1,2.656-2.656h1.8a2.779,2.779,0,0,1,2.826,2.067l.016.055L152.5-23.617V-48.744A2.441,2.441,0,0,1,155.16-51.4h1.44a2.441,2.441,0,0,1,2.656,2.656V-1.656A2.441,2.441,0,0,1,156.6,1Zm-2.639-2.645a.809.809,0,0,0,.911.645H156.6c.546,0,.656-.11.656-.656V-48.744c0-.546-.11-.656-.656-.656h-1.44c-.546,0-.656.11-.656.656v33.832h-1.85l-8.608-33.844a.809.809,0,0,0-.91-.644h-1.8c-.546,0-.656.11-.656.656V-1.656c0,.546.11.656.656.656h1.44c.546,0,.656-.11.656-.656V-35.632h1.849ZM129.312,1h-1.368A2.755,2.755,0,0,1,126.11.367a2.606,2.606,0,0,1-.888-1.764l-1.4-10.851h-4.505L117.921-1.4A2.646,2.646,0,0,1,117.1.341,2.611,2.611,0,0,1,115.272,1H113.76a2.513,2.513,0,0,1-2.023-.822,2.523,2.523,0,0,1-.478-2.125l6.2-47.048A2.679,2.679,0,0,1,120.24-51.4h2.808a2.617,2.617,0,0,1,2.791,2.449v.008l6.053,47.061A2.633,2.633,0,0,1,131.271.21,2.559,2.559,0,0,1,129.312,1ZM117.561-14.248h8.023l1.628,12.636a.6.6,0,0,0,.191.452.772.772,0,0,0,.542.159h1.368c.354,0,.456-.11.489-.146a.833.833,0,0,0,.1-.55l-6.044-46.988c-.076-.555-.258-.715-.809-.715H120.24c-.454,0-.693.112-.812.741L113.234-1.636a.764.764,0,0,0,.029.522c.047.055.2.114.5.114h1.512a.635.635,0,0,0,.476-.133.67.67,0,0,0,.185-.478l0-.028ZM93.384,1H92.016A2.441,2.441,0,0,1,89.36-1.656V-48.744A2.441,2.441,0,0,1,92.016-51.4h5.976a7.778,7.778,0,0,1,5.711,2.273,7.778,7.778,0,0,1,2.273,5.711v16.992a7.778,7.778,0,0,1-2.273,5.711,7.778,7.778,0,0,1-5.711,2.273H96.04V-1.656A2.441,2.441,0,0,1,93.384,1ZM92.016-49.4c-.546,0-.656.11-.656.656V-1.656c0,.546.11.656.656.656h1.368c.546,0,.656-.11.656-.656V-20.44h3.952a5.771,5.771,0,0,0,4.3-1.687,5.771,5.771,0,0,0,1.687-4.3V-43.416a5.771,5.771,0,0,0-1.687-4.3,5.771,5.771,0,0,0-4.3-1.687ZM77.616,1H76.248a2.441,2.441,0,0,1-2.656-2.656V-22.823L69.241-1.265A2.527,2.527,0,0,1,66.528,1h-.72a2.7,2.7,0,0,1-2.77-2.2l-.011-.047L58.744-22.71V-1.656A2.441,2.441,0,0,1,56.088,1H54.72a2.441,2.441,0,0,1-2.656-2.656V-48.744A2.441,2.441,0,0,1,54.72-51.4H57.1a2.59,2.59,0,0,1,2.786,2.342l6.286,31.68,6.286-31.68A2.59,2.59,0,0,1,75.24-51.4h2.376a2.441,2.441,0,0,1,2.656,2.656V-1.656A2.441,2.441,0,0,1,77.616,1Zm-4-34.03,1.98.2V-1.656c0,.546.11.656.656.656h1.368c.546,0,.656-.11.656-.656V-48.744c0-.546-.11-.656-.656-.656H75.24c-.613,0-.745.2-.81.653l-.009.053L67.149-12.045H65.187l-7.281-36.7c-.065-.452-.2-.653-.81-.653H54.72c-.546,0-.656.11-.656.656V-1.656c0,.546.11.656.656.656h1.368c.546,0,.656-.11.656-.656V-32.832l1.981-.2L64.984-1.661c.145.558.393.661.824.661h.72c.56,0,.677-.173.739-.588l.009-.05ZM35.424-3.1H34.7a3.051,3.051,0,0,1-2.275-.961,3.2,3.2,0,0,1-.885-2.271V-43.992a3.2,3.2,0,0,1,.885-2.271,3.051,3.051,0,0,1,2.275-.961h.72a3.173,3.173,0,0,1,2.291.941,3.173,3.173,0,0,1,.941,2.291V-6.336a3.173,3.173,0,0,1-.941,2.291A3.173,3.173,0,0,1,35.424-3.1Zm-.72-42.12a1.042,1.042,0,0,0-.821.335,1.229,1.229,0,0,0-.339.9V-6.336a1.229,1.229,0,0,0,.339.9A1.042,1.042,0,0,0,34.7-5.1h.72a1.152,1.152,0,0,0,.877-.355,1.152,1.152,0,0,0,.355-.877V-43.992a1.152,1.152,0,0,0-.355-.877,1.152,1.152,0,0,0-.877-.355Zm90.6,28.44h-7.4l2.8-26.48h1.949Zm-5.177-2H123.1L121.654-33.2ZM97.992-23.048H94.04V-46.792h3.952a3.173,3.173,0,0,1,2.291.941,3.173,3.173,0,0,1,.941,2.291v17.28a3.173,3.173,0,0,1-.941,2.291A3.173,3.173,0,0,1,97.992-23.048Zm-1.952-2h1.952a1.152,1.152,0,0,0,.877-.355,1.152,1.152,0,0,0,.355-.877V-43.56a1.152,1.152,0,0,0-.355-.877,1.152,1.152,0,0,0-.877-.355H96.04Z" transform="translate(-2.024 51.832)" fill="#5a4646"/>
</svg>
