<svg xmlns="http://www.w3.org/2000/svg" width="268.4" height="53.336" viewBox="0 0 268.4 53.336">
  <path id="COLOR_LINEUP" data-name="COLOR LINEUP" d="M236.88,1.5h-.72a7.778,7.778,0,0,1-5.711-2.273,7.778,7.778,0,0,1-2.273-5.711V-48.744a2.441,2.441,0,0,1,2.656-2.656h1.44a2.441,2.441,0,0,1,2.656,2.656V-6.336a1.152,1.152,0,0,0,.355.877,1.152,1.152,0,0,0,.877.355h.648a1.152,1.152,0,0,0,.877-.355,1.152,1.152,0,0,0,.355-.877V-48.744A2.441,2.441,0,0,1,240.7-51.4h1.512a2.441,2.441,0,0,1,2.656,2.656V-6.48a7.846,7.846,0,0,1-2.23,5.7A7.746,7.746,0,0,1,236.88,1.5Zm-6.048-50.9c-.546,0-.656.11-.656.656V-6.48a5.771,5.771,0,0,0,1.687,4.3A5.771,5.771,0,0,0,236.16-.5h.72a5.743,5.743,0,0,0,4.326-1.681,5.837,5.837,0,0,0,1.658-4.3V-48.744c0-.546-.11-.656-.656-.656H240.7c-.546,0-.656.11-.656.656V-6.336a3.173,3.173,0,0,1-.941,2.291,3.173,3.173,0,0,1-2.291.941h-.648a3.173,3.173,0,0,1-2.291-.941,3.173,3.173,0,0,1-.941-2.291V-48.744c0-.546-.11-.656-.656-.656ZM80.712,1.5h-.576A7.9,7.9,0,0,1,74.4-.763,7.714,7.714,0,0,1,72.08-6.48V-43.848A7.714,7.714,0,0,1,74.4-49.565a7.9,7.9,0,0,1,5.741-2.267h.576a7.746,7.746,0,0,1,5.754,2.279,7.846,7.846,0,0,1,2.23,5.7V-6.48a7.846,7.846,0,0,1-2.23,5.7A7.746,7.746,0,0,1,80.712,1.5Zm-.576-51.336A5.89,5.89,0,0,0,75.8-48.139a5.709,5.709,0,0,0-1.717,4.291V-6.48A5.709,5.709,0,0,0,75.8-2.189,5.89,5.89,0,0,0,80.136-.5h.576a5.743,5.743,0,0,0,4.326-1.681A5.837,5.837,0,0,0,86.7-6.48V-43.848a5.837,5.837,0,0,0-1.658-4.3,5.743,5.743,0,0,0-4.326-1.681ZM35.424,1.5h-.576A7.9,7.9,0,0,1,29.107-.763,7.714,7.714,0,0,1,26.792-6.48V-43.848a7.714,7.714,0,0,1,2.315-5.717,7.9,7.9,0,0,1,5.741-2.267h.576a7.746,7.746,0,0,1,5.754,2.279,7.846,7.846,0,0,1,2.23,5.7V-6.48a7.846,7.846,0,0,1-2.23,5.7A7.746,7.746,0,0,1,35.424,1.5Zm-.576-51.336a5.89,5.89,0,0,0-4.339,1.693,5.709,5.709,0,0,0-1.717,4.291V-6.48a5.709,5.709,0,0,0,1.717,4.291A5.89,5.89,0,0,0,34.848-.5h.576A5.743,5.743,0,0,0,39.75-2.177a5.837,5.837,0,0,0,1.658-4.3V-43.848a5.837,5.837,0,0,0-1.658-4.3,5.743,5.743,0,0,0-4.326-1.681ZM10.656,1.36h-.648A7.714,7.714,0,0,1,4.291-.955,7.812,7.812,0,0,1,2.024-6.624V-43.776a7.812,7.812,0,0,1,2.267-5.669,7.714,7.714,0,0,1,5.717-2.315h.648a7.746,7.746,0,0,1,5.754,2.279,7.846,7.846,0,0,1,2.23,5.7v13.248a2.621,2.621,0,0,1-.725,1.931,2.621,2.621,0,0,1-1.931.725h-1.44a2.617,2.617,0,0,1-1.9-.761,2.617,2.617,0,0,1-.761-1.9v-13.32a1.283,1.283,0,0,0-.374-.932,1.1,1.1,0,0,0-.858-.372h-.72a1.1,1.1,0,0,0-.858.372,1.283,1.283,0,0,0-.374.932v37.3a1.283,1.283,0,0,0,.374.932,1.1,1.1,0,0,0,.858.372h.72a1.1,1.1,0,0,0,.858-.372,1.283,1.283,0,0,0,.374-.932V-20.016a2.559,2.559,0,0,1,.79-1.959,2.7,2.7,0,0,1,1.866-.7h1.44a2.621,2.621,0,0,1,1.931.725,2.621,2.621,0,0,1,.725,1.931V-6.624a7.846,7.846,0,0,1-2.23,5.7A7.746,7.746,0,0,1,10.656,1.36Zm-.648-51.12a5.709,5.709,0,0,0-4.291,1.717,5.8,5.8,0,0,0-1.693,4.267V-6.624A5.8,5.8,0,0,0,5.717-2.357,5.709,5.709,0,0,0,10.008-.64h.648a5.743,5.743,0,0,0,4.326-1.681,5.837,5.837,0,0,0,1.658-4.3V-20.016a.735.735,0,0,0-.139-.517.735.735,0,0,0-.517-.139h-1.44a.682.682,0,0,0-.51.167c-.036.033-.146.135-.146.489V-6.552a3.256,3.256,0,0,1-.922,2.308,3.113,3.113,0,0,1-2.31,1h-.72a3.113,3.113,0,0,1-2.31-1A3.256,3.256,0,0,1,6.7-6.552v-37.3a3.256,3.256,0,0,1,.922-2.308,3.113,3.113,0,0,1,2.31-1h.72a3.113,3.113,0,0,1,2.31,1,3.256,3.256,0,0,1,.922,2.308v13.32a.61.61,0,0,0,.175.481.61.61,0,0,0,.481.175h1.44a.735.735,0,0,0,.517-.139.735.735,0,0,0,.139-.517V-43.776a5.837,5.837,0,0,0-1.658-4.3,5.743,5.743,0,0,0-4.326-1.681ZM257.832,1h-1.368a2.441,2.441,0,0,1-2.656-2.656V-48.744a2.441,2.441,0,0,1,2.656-2.656h5.976a7.778,7.778,0,0,1,5.711,2.273,7.778,7.778,0,0,1,2.273,5.711v16.992a7.778,7.778,0,0,1-2.273,5.711,7.778,7.778,0,0,1-5.711,2.273h-1.952V-1.656A2.441,2.441,0,0,1,257.832,1Zm-1.368-50.4c-.546,0-.656.11-.656.656V-1.656c0,.546.11.656.656.656h1.368c.546,0,.656-.11.656-.656V-20.44h3.952a5.771,5.771,0,0,0,4.3-1.687,5.771,5.771,0,0,0,1.687-4.3V-43.416a5.771,5.771,0,0,0-1.687-4.3,5.771,5.771,0,0,0-4.3-1.687ZM217.3,1h-9.432a2.441,2.441,0,0,1-2.656-2.656V-48.744a2.441,2.441,0,0,1,2.656-2.656H217.3a2.474,2.474,0,0,1,2.728,2.656v1.3a2.474,2.474,0,0,1-2.728,2.656h-5.408v16.36H217.3a2.474,2.474,0,0,1,2.728,2.656v1.3a2.474,2.474,0,0,1-2.728,2.656h-5.408V-5.608H217.3a2.474,2.474,0,0,1,2.728,2.656v1.3A2.474,2.474,0,0,1,217.3,1Zm-9.432-50.4c-.546,0-.656.11-.656.656V-1.656c0,.546.11.656.656.656H217.3a.985.985,0,0,0,.6-.136.791.791,0,0,0,.124-.52v-1.3a.791.791,0,0,0-.124-.52.985.985,0,0,0-.6-.136h-7.408V-23.824H217.3a.985.985,0,0,0,.6-.136.791.791,0,0,0,.124-.52v-1.3a.791.791,0,0,0-.124-.52.985.985,0,0,0-.6-.136h-7.408v-20.36H217.3a.985.985,0,0,0,.6-.136.791.791,0,0,0,.124-.52v-1.3a.791.791,0,0,0-.124-.52.985.985,0,0,0-.6-.136ZM194.328,1H192.6a2.779,2.779,0,0,1-2.826-2.067l-.015-.054-6.6-25.837v25.3A2.441,2.441,0,0,1,180.5,1h-1.44a2.441,2.441,0,0,1-2.656-2.656V-48.744a2.441,2.441,0,0,1,2.656-2.656h1.8a2.779,2.779,0,0,1,2.826,2.067l.016.055,6.527,25.661V-48.744a2.441,2.441,0,0,1,2.656-2.656h1.44a2.441,2.441,0,0,1,2.656,2.656V-1.656A2.441,2.441,0,0,1,194.328,1Zm-2.639-2.645A.81.81,0,0,0,192.6-1h1.728c.546,0,.656-.11.656-.656V-48.744c0-.546-.11-.656-.656-.656h-1.44c-.546,0-.656.11-.656.656v33.832h-1.85l-8.608-33.843a.809.809,0,0,0-.91-.645h-1.8c-.546,0-.656.11-.656.656V-1.656c0,.546.11.656.656.656h1.44c.546,0,.656-.11.656-.656V-35.632h1.849ZM164.88,1h-1.368a2.441,2.441,0,0,1-2.656-2.656V-48.744a2.441,2.441,0,0,1,2.656-2.656h1.368a2.441,2.441,0,0,1,2.656,2.656V-1.656A2.441,2.441,0,0,1,164.88,1Zm-1.368-50.4c-.546,0-.656.11-.656.656V-1.656c0,.546.11.656.656.656h1.368c.546,0,.656-.11.656-.656V-48.744c0-.546-.11-.656-.656-.656ZM150.624,1h-9.5a2.441,2.441,0,0,1-2.656-2.656V-48.744A2.441,2.441,0,0,1,141.12-51.4h1.368a2.474,2.474,0,0,1,2.728,2.656V-5.68h5.408a2.441,2.441,0,0,1,2.656,2.656v1.368A2.441,2.441,0,0,1,150.624,1Zm-9.5-50.4c-.546,0-.656.11-.656.656V-1.656c0,.546.11.656.656.656h9.5c.546,0,.656-.11.656-.656V-3.024c0-.546-.11-.656-.656-.656h-7.408V-48.744a.791.791,0,0,0-.124-.52.985.985,0,0,0-.6-.136ZM112.1,1h-1.512a2.7,2.7,0,0,1-2.77-2.2l-.009-.037-3.781-18.029V-1.656A2.441,2.441,0,0,1,101.376,1h-1.368a2.441,2.441,0,0,1-2.656-2.656V-48.744a2.441,2.441,0,0,1,2.656-2.656h5.976a7.778,7.778,0,0,1,5.711,2.273,7.778,7.778,0,0,1,2.273,5.711v16.632a8.588,8.588,0,0,1-.938,3.947,5.849,5.849,0,0,1-2.584,2.531l3.993,18.177a2.909,2.909,0,0,1,.1.833A2.2,2.2,0,0,1,112.1,1Zm-2.338-2.666c.145.562.393.666.826.666H112.1a.851.851,0,0,0,.408-.065.58.58,0,0,0,.032-.231,1.045,1.045,0,0,0-.021-.261l-.017-.05-.011-.05L108.136-21.5l.794-.312a4.133,4.133,0,0,0,2.319-1.936,6.607,6.607,0,0,0,.718-3.037V-43.416a5.771,5.771,0,0,0-1.687-4.3,5.771,5.771,0,0,0-4.3-1.687h-5.976c-.546,0-.656.11-.656.656V-1.656c0,.546.11.656.656.656h1.368c.546,0,.656-.11.656-.656V-21.664h3.54ZM63.792,1h-9.5a2.441,2.441,0,0,1-2.656-2.656V-48.744A2.441,2.441,0,0,1,54.288-51.4h1.368a2.474,2.474,0,0,1,2.728,2.656V-5.68h5.408a2.441,2.441,0,0,1,2.656,2.656v1.368A2.441,2.441,0,0,1,63.792,1Zm-9.5-50.4c-.546,0-.656.11-.656.656V-1.656c0,.546.11.656.656.656h9.5c.546,0,.656-.11.656-.656V-3.024c0-.546-.11-.656-.656-.656H56.384V-48.744a.791.791,0,0,0-.124-.52.985.985,0,0,0-.6-.136ZM80.712-3.1h-.72a3.051,3.051,0,0,1-2.275-.961,3.2,3.2,0,0,1-.885-2.271V-43.992a3.2,3.2,0,0,1,.885-2.271,3.051,3.051,0,0,1,2.275-.961h.72A3.173,3.173,0,0,1,83-46.283a3.173,3.173,0,0,1,.941,2.291V-6.336A3.173,3.173,0,0,1,83-4.045,3.173,3.173,0,0,1,80.712-3.1Zm-.72-42.12a1.043,1.043,0,0,0-.821.335,1.229,1.229,0,0,0-.339.9V-6.336a1.229,1.229,0,0,0,.339.9,1.043,1.043,0,0,0,.821.335h.72a1.152,1.152,0,0,0,.877-.355,1.152,1.152,0,0,0,.355-.877V-43.992a1.152,1.152,0,0,0-.355-.877,1.152,1.152,0,0,0-.877-.355ZM35.424-3.1H34.7a3.051,3.051,0,0,1-2.275-.961,3.2,3.2,0,0,1-.885-2.271V-43.992a3.2,3.2,0,0,1,.885-2.271,3.051,3.051,0,0,1,2.275-.961h.72a3.173,3.173,0,0,1,2.291.941,3.173,3.173,0,0,1,.941,2.291V-6.336a3.173,3.173,0,0,1-.941,2.291A3.173,3.173,0,0,1,35.424-3.1Zm-.72-42.12a1.043,1.043,0,0,0-.821.335,1.229,1.229,0,0,0-.339.9V-6.336a1.229,1.229,0,0,0,.339.9A1.043,1.043,0,0,0,34.7-5.1h.72a1.152,1.152,0,0,0,.877-.355,1.152,1.152,0,0,0,.355-.877V-43.992a1.152,1.152,0,0,0-.355-.877,1.152,1.152,0,0,0-.877-.355ZM262.44-23.048h-3.952V-46.792h3.952a3.173,3.173,0,0,1,2.291.941,3.173,3.173,0,0,1,.941,2.291v17.28a3.173,3.173,0,0,1-.941,2.291A3.173,3.173,0,0,1,262.44-23.048Zm-1.952-2h1.952a1.152,1.152,0,0,0,.877-.355,1.152,1.152,0,0,0,.355-.877V-43.56a1.152,1.152,0,0,0-.355-.877,1.152,1.152,0,0,0-.877-.355h-1.952Zm-154.36.92h-4.1V-46.792h3.952a3.173,3.173,0,0,1,2.291.941,3.173,3.173,0,0,1,.941,2.291v16.416a2.932,2.932,0,0,1-.892,2.206A3.1,3.1,0,0,1,106.128-24.128Zm-2.1-2h2.1a1.107,1.107,0,0,0,.828-.27.926.926,0,0,0,.26-.746V-43.56a1.152,1.152,0,0,0-.355-.877,1.152,1.152,0,0,0-.877-.355h-1.952Z" transform="translate(-2.024 51.832)" fill="#5a4646"/>
</svg>
