<svg xmlns="http://www.w3.org/2000/svg" width="314.624" height="53.336" viewBox="0 0 314.624 53.336">
  <path id="BRAND_CONCEPT" data-name="BRAND CONCEPT" d="M181.3,1.5h-.576a7.9,7.9,0,0,1-5.741-2.267,7.714,7.714,0,0,1-2.315-5.717V-43.848a7.714,7.714,0,0,1,2.315-5.717,7.9,7.9,0,0,1,5.741-2.267h.576a7.746,7.746,0,0,1,5.754,2.279,7.846,7.846,0,0,1,2.23,5.7V-6.48a7.846,7.846,0,0,1-2.23,5.7A7.746,7.746,0,0,1,181.3,1.5Zm-.576-51.336a5.89,5.89,0,0,0-4.339,1.693,5.709,5.709,0,0,0-1.717,4.291V-6.48a5.708,5.708,0,0,0,1.717,4.291A5.89,5.89,0,0,0,180.72-.5h.576a5.743,5.743,0,0,0,4.326-1.681,5.837,5.837,0,0,0,1.658-4.3V-43.848a5.837,5.837,0,0,0-1.658-4.3,5.743,5.743,0,0,0-4.326-1.681ZM234.288,1.36h-.648a7.714,7.714,0,0,1-5.717-2.315,7.812,7.812,0,0,1-2.267-5.669V-43.776a7.812,7.812,0,0,1,2.267-5.669,7.714,7.714,0,0,1,5.717-2.315h.648a7.746,7.746,0,0,1,5.754,2.279,7.846,7.846,0,0,1,2.23,5.7v13.248a2.621,2.621,0,0,1-.725,1.931,2.621,2.621,0,0,1-1.931.725h-1.44a2.617,2.617,0,0,1-1.9-.761,2.617,2.617,0,0,1-.761-1.9v-13.32a1.283,1.283,0,0,0-.374-.932,1.1,1.1,0,0,0-.858-.372h-.72a1.1,1.1,0,0,0-.858.372,1.283,1.283,0,0,0-.374.932v37.3a1.283,1.283,0,0,0,.374.932,1.1,1.1,0,0,0,.858.372h.72a1.1,1.1,0,0,0,.858-.372,1.283,1.283,0,0,0,.374-.932V-20.016a2.559,2.559,0,0,1,.79-1.959,2.7,2.7,0,0,1,1.866-.7h1.44a2.621,2.621,0,0,1,1.931.725,2.621,2.621,0,0,1,.725,1.931V-6.624a7.846,7.846,0,0,1-2.23,5.7A7.746,7.746,0,0,1,234.288,1.36Zm-.648-51.12a5.708,5.708,0,0,0-4.291,1.717,5.8,5.8,0,0,0-1.693,4.267V-6.624a5.8,5.8,0,0,0,1.693,4.267A5.708,5.708,0,0,0,233.64-.64h.648a5.743,5.743,0,0,0,4.326-1.681,5.837,5.837,0,0,0,1.658-4.3V-20.016a.735.735,0,0,0-.139-.517.735.735,0,0,0-.517-.139h-1.44a.681.681,0,0,0-.51.167c-.036.033-.146.135-.146.489V-6.552a3.256,3.256,0,0,1-.922,2.308,3.113,3.113,0,0,1-2.31,1h-.72a3.113,3.113,0,0,1-2.31-1,3.256,3.256,0,0,1-.922-2.308v-37.3a3.256,3.256,0,0,1,.922-2.308,3.113,3.113,0,0,1,2.31-1h.72a3.113,3.113,0,0,1,2.31,1,3.256,3.256,0,0,1,.922,2.308v13.32a.609.609,0,0,0,.175.481.609.609,0,0,0,.481.175h1.44a.735.735,0,0,0,.517-.139.735.735,0,0,0,.139-.517V-43.776a5.837,5.837,0,0,0-1.658-4.3,5.743,5.743,0,0,0-4.326-1.681ZM156.528,1.36h-.648a7.714,7.714,0,0,1-5.717-2.315A7.812,7.812,0,0,1,147.9-6.624V-43.776a7.812,7.812,0,0,1,2.267-5.669,7.714,7.714,0,0,1,5.717-2.315h.648a7.746,7.746,0,0,1,5.754,2.279,7.846,7.846,0,0,1,2.23,5.7v13.248a2.621,2.621,0,0,1-.725,1.931,2.621,2.621,0,0,1-1.931.725h-1.44a2.617,2.617,0,0,1-1.9-.761,2.617,2.617,0,0,1-.761-1.9v-13.32a1.283,1.283,0,0,0-.374-.932,1.1,1.1,0,0,0-.858-.372h-.72a1.1,1.1,0,0,0-.858.372,1.283,1.283,0,0,0-.374.932v37.3a1.283,1.283,0,0,0,.374.932,1.1,1.1,0,0,0,.858.372h.72a1.1,1.1,0,0,0,.858-.372,1.283,1.283,0,0,0,.374-.932V-20.016a2.559,2.559,0,0,1,.79-1.959,2.7,2.7,0,0,1,1.866-.7h1.44a2.621,2.621,0,0,1,1.931.725,2.621,2.621,0,0,1,.725,1.931V-6.624a7.846,7.846,0,0,1-2.23,5.7A7.746,7.746,0,0,1,156.528,1.36Zm-.648-51.12a5.708,5.708,0,0,0-4.291,1.717,5.8,5.8,0,0,0-1.693,4.267V-6.624a5.8,5.8,0,0,0,1.693,4.267A5.708,5.708,0,0,0,155.88-.64h.648a5.743,5.743,0,0,0,4.326-1.681,5.837,5.837,0,0,0,1.658-4.3V-20.016a.735.735,0,0,0-.139-.517.735.735,0,0,0-.517-.139h-1.44a.681.681,0,0,0-.51.167c-.036.033-.146.135-.146.489V-6.552a3.256,3.256,0,0,1-.922,2.308,3.113,3.113,0,0,1-2.31,1h-.72a3.113,3.113,0,0,1-2.31-1,3.256,3.256,0,0,1-.922-2.308v-37.3a3.256,3.256,0,0,1,.922-2.308,3.113,3.113,0,0,1,2.31-1h.72a3.113,3.113,0,0,1,2.31,1,3.256,3.256,0,0,1,.922,2.308v13.32a.609.609,0,0,0,.175.481.609.609,0,0,0,.481.175h1.44a.735.735,0,0,0,.517-.139.735.735,0,0,0,.139-.517V-43.776a5.837,5.837,0,0,0-1.658-4.3,5.743,5.743,0,0,0-4.326-1.681ZM308.088,1h-1.44a2.441,2.441,0,0,1-2.656-2.656v-43.28H301.1a2.441,2.441,0,0,1-2.656-2.656v-1.152A2.441,2.441,0,0,1,301.1-51.4h12.528a2.441,2.441,0,0,1,2.656,2.656v1.152a2.441,2.441,0,0,1-2.656,2.656h-2.888v43.28A2.441,2.441,0,0,1,308.088,1ZM301.1-49.4c-.546,0-.656.11-.656.656v1.152c0,.546.11.656.656.656h4.888v45.28c0,.546.11.656.656.656h1.44c.546,0,.656-.11.656-.656v-45.28h4.888c.546,0,.656-.11.656-.656v-1.152c0-.546-.11-.656-.656-.656ZM278.424,1h-1.368A2.441,2.441,0,0,1,274.4-1.656V-48.744a2.441,2.441,0,0,1,2.656-2.656h5.976a7.778,7.778,0,0,1,5.711,2.273,7.778,7.778,0,0,1,2.273,5.711v16.992a7.778,7.778,0,0,1-2.273,5.711,7.778,7.778,0,0,1-5.711,2.273H281.08V-1.656A2.441,2.441,0,0,1,278.424,1Zm-1.368-50.4c-.546,0-.656.11-.656.656V-1.656c0,.546.11.656.656.656h1.368c.546,0,.656-.11.656-.656V-20.44h3.952a5.771,5.771,0,0,0,4.3-1.687,5.771,5.771,0,0,0,1.687-4.3V-43.416a5.771,5.771,0,0,0-1.687-4.3,5.771,5.771,0,0,0-4.3-1.687ZM263.376,1h-9.432a2.441,2.441,0,0,1-2.656-2.656V-48.744a2.441,2.441,0,0,1,2.656-2.656h9.432a2.474,2.474,0,0,1,2.728,2.656v1.3a2.474,2.474,0,0,1-2.728,2.656h-5.408v16.36h5.408a2.474,2.474,0,0,1,2.728,2.656v1.3a2.474,2.474,0,0,1-2.728,2.656h-5.408V-5.608h5.408A2.474,2.474,0,0,1,266.1-2.952v1.3A2.474,2.474,0,0,1,263.376,1Zm-9.432-50.4c-.546,0-.656.11-.656.656V-1.656c0,.546.11.656.656.656h9.432a.985.985,0,0,0,.6-.136.791.791,0,0,0,.124-.52v-1.3a.791.791,0,0,0-.124-.52.985.985,0,0,0-.6-.136h-7.408V-23.824h7.408a.985.985,0,0,0,.6-.136.791.791,0,0,0,.124-.52v-1.3a.791.791,0,0,0-.124-.52.985.985,0,0,0-.6-.136h-7.408v-20.36h7.408a.985.985,0,0,0,.6-.136.791.791,0,0,0,.124-.52v-1.3a.791.791,0,0,0-.124-.52.985.985,0,0,0-.6-.136ZM214.92,1h-1.728a2.779,2.779,0,0,1-2.826-2.067l-.015-.054-6.6-25.837v25.3A2.441,2.441,0,0,1,201.1,1h-1.44A2.441,2.441,0,0,1,197-1.656V-48.744a2.441,2.441,0,0,1,2.656-2.656h1.8a2.779,2.779,0,0,1,2.826,2.067l.016.055,6.527,25.661V-48.744A2.441,2.441,0,0,1,213.48-51.4h1.44a2.441,2.441,0,0,1,2.656,2.656V-1.656A2.441,2.441,0,0,1,214.92,1Zm-2.639-2.645a.809.809,0,0,0,.911.645h1.728c.546,0,.656-.11.656-.656V-48.744c0-.546-.11-.656-.656-.656h-1.44c-.546,0-.656.11-.656.656v33.832h-1.85l-8.608-33.843a.809.809,0,0,0-.911-.645h-1.8c-.546,0-.656.11-.656.656V-1.656c0,.546.11.656.656.656h1.44c.546,0,.656-.11.656-.656V-35.632H203.6ZM115.272,1h-6.048a2.441,2.441,0,0,1-2.656-2.656V-48.744a2.441,2.441,0,0,1,2.656-2.656h6.048a7.812,7.812,0,0,1,5.669,2.267,7.714,7.714,0,0,1,2.315,5.717V-6.984a7.714,7.714,0,0,1-2.315,5.717A7.812,7.812,0,0,1,115.272,1Zm-6.048-50.4c-.546,0-.656.11-.656.656V-1.656c0,.546.11.656.656.656h6.048a5.8,5.8,0,0,0,4.267-1.693,5.708,5.708,0,0,0,1.717-4.291V-43.416a5.709,5.709,0,0,0-1.717-4.291,5.8,5.8,0,0,0-4.267-1.693ZM95.4,1H93.672a2.779,2.779,0,0,1-2.826-2.067l-.015-.054-6.6-25.837v25.3A2.441,2.441,0,0,1,81.576,1h-1.44A2.441,2.441,0,0,1,77.48-1.656V-48.744A2.441,2.441,0,0,1,80.136-51.4h1.8a2.779,2.779,0,0,1,2.826,2.067l.016.055L91.3-23.617V-48.744A2.441,2.441,0,0,1,93.96-51.4H95.4a2.441,2.441,0,0,1,2.656,2.656V-1.656A2.441,2.441,0,0,1,95.4,1ZM92.761-1.645A.809.809,0,0,0,93.672-1H95.4c.546,0,.656-.11.656-.656V-48.744c0-.546-.11-.656-.656-.656H93.96c-.546,0-.656.11-.656.656v33.832h-1.85L82.847-48.755a.809.809,0,0,0-.911-.645h-1.8c-.546,0-.656.11-.656.656V-1.656c0,.546.11.656.656.656h1.44c.546,0,.656-.11.656-.656V-35.632h1.849ZM68.112,1H66.744A2.754,2.754,0,0,1,64.91.367,2.606,2.606,0,0,1,64.023-1.4l-1.4-10.851H58.119L56.722-1.4A2.646,2.646,0,0,1,55.9.341,2.612,2.612,0,0,1,54.072,1H52.56A2.513,2.513,0,0,1,50.537.178a2.522,2.522,0,0,1-.478-2.123l6.2-47.05A2.679,2.679,0,0,1,59.04-51.4h2.808a2.617,2.617,0,0,1,2.791,2.449v.008L70.693-1.883A2.633,2.633,0,0,1,70.071.21,2.559,2.559,0,0,1,68.112,1ZM56.361-14.248h8.023L66.011-1.611a.6.6,0,0,0,.191.452A.772.772,0,0,0,66.744-1h1.368c.354,0,.456-.11.489-.146a.834.834,0,0,0,.1-.55L62.657-48.684c-.076-.555-.258-.716-.809-.716H59.04c-.454,0-.693.111-.812.74L52.034-1.636a.764.764,0,0,0,.029.522c.047.055.2.114.5.114h1.512a.635.635,0,0,0,.476-.133.67.67,0,0,0,.185-.478l0-.028ZM41.328,1H39.816a2.7,2.7,0,0,1-2.77-2.2l-.009-.037L33.256-19.264V-1.656A2.441,2.441,0,0,1,30.6,1H29.232a2.441,2.441,0,0,1-2.656-2.656V-48.744A2.441,2.441,0,0,1,29.232-51.4h5.976a7.778,7.778,0,0,1,5.711,2.273,7.778,7.778,0,0,1,2.273,5.711v16.632a8.588,8.588,0,0,1-.938,3.947,5.849,5.849,0,0,1-2.584,2.531L43.664-2.129a2.91,2.91,0,0,1,.1.833A2.2,2.2,0,0,1,41.328,1ZM38.99-1.666c.145.562.393.666.826.666h1.512a.851.851,0,0,0,.408-.065.58.58,0,0,0,.032-.231,1.045,1.045,0,0,0-.021-.261l-.017-.05-.011-.05L37.36-21.5l.794-.312a4.133,4.133,0,0,0,2.319-1.936,6.607,6.607,0,0,0,.718-3.037V-43.416a5.771,5.771,0,0,0-1.687-4.3,5.77,5.77,0,0,0-4.3-1.687H29.232c-.546,0-.656.11-.656.656V-1.656c0,.546.11.656.656.656H30.6c.546,0,.656-.11.656-.656V-21.664H34.8ZM10.368,1H4.392a2.748,2.748,0,0,1-1.9-.735,2.554,2.554,0,0,1-.823-1.921V-48.744a2.554,2.554,0,0,1,.824-1.921,2.747,2.747,0,0,1,1.9-.735h5.976a7.778,7.778,0,0,1,5.711,2.273,7.778,7.778,0,0,1,2.273,5.711v12.24a8.1,8.1,0,0,1-.83,3.732,5.1,5.1,0,0,1-1,1.369,5,5,0,0,1,.989,1.3,7.663,7.663,0,0,1,.84,3.68V-6.984a7.778,7.778,0,0,1-2.273,5.711A7.778,7.778,0,0,1,10.368,1ZM4.392-49.4a.742.742,0,0,0-.544.2.559.559,0,0,0-.184.455V-1.656a.559.559,0,0,0,.184.455.742.742,0,0,0,.544.2h5.976a5.771,5.771,0,0,0,4.3-1.687,5.771,5.771,0,0,0,1.687-4.3V-21.1a5.7,5.7,0,0,0-.6-2.729A2.54,2.54,0,0,0,14.3-25.115l-2.846-.949,2.846-.949a2.513,2.513,0,0,0,1.442-1.344,6.134,6.134,0,0,0,.61-2.82v-12.24a5.771,5.771,0,0,0-1.687-4.3,5.771,5.771,0,0,0-4.3-1.687ZM181.3-3.1h-.72a3.051,3.051,0,0,1-2.275-.961,3.2,3.2,0,0,1-.885-2.271V-43.992a3.2,3.2,0,0,1,.885-2.271,3.051,3.051,0,0,1,2.275-.961h.72a3.173,3.173,0,0,1,2.291.941,3.173,3.173,0,0,1,.941,2.291V-6.336a3.173,3.173,0,0,1-.941,2.291A3.173,3.173,0,0,1,181.3-3.1Zm-.72-42.12a1.043,1.043,0,0,0-.821.335,1.229,1.229,0,0,0-.339.9V-6.336a1.229,1.229,0,0,0,.339.9,1.043,1.043,0,0,0,.821.335h.72a1.152,1.152,0,0,0,.877-.355,1.152,1.152,0,0,0,.355-.877V-43.992a1.152,1.152,0,0,0-.355-.877,1.152,1.152,0,0,0-.877-.355ZM115.2-3.608h-3.88V-46.792h3.88a3.173,3.173,0,0,1,2.291.941,3.173,3.173,0,0,1,.941,2.291V-6.84a3.173,3.173,0,0,1-.941,2.291A3.173,3.173,0,0,1,115.2-3.608Zm-1.88-2h1.88a1.152,1.152,0,0,0,.877-.355,1.152,1.152,0,0,0,.355-.877V-43.56a1.152,1.152,0,0,0-.355-.877,1.152,1.152,0,0,0-.877-.355h-1.88Zm-102.952,2H6.416V-24.76H11.3a2.308,2.308,0,0,1,1.573.62,2.122,2.122,0,0,1,.723,1.6v15.7a3.172,3.172,0,0,1-.941,2.291A3.173,3.173,0,0,1,10.368-3.608Zm-1.952-2h1.952a1.152,1.152,0,0,0,.877-.355A1.152,1.152,0,0,0,11.6-6.84v-15.7c0-.036,0-.062-.069-.124a.3.3,0,0,0-.227-.1H8.416ZM64.105-16.784H56.7l2.8-26.48h1.949Zm-5.178-2H61.9L60.454-33.2Zm224.1-4.264H279.08V-46.792h3.952a3.173,3.173,0,0,1,2.291.941,3.173,3.173,0,0,1,.941,2.291v17.28a3.173,3.173,0,0,1-.941,2.291A3.173,3.173,0,0,1,283.032-23.048Zm-1.952-2h1.952a1.152,1.152,0,0,0,.877-.355,1.152,1.152,0,0,0,.355-.877V-43.56a1.152,1.152,0,0,0-.355-.877,1.152,1.152,0,0,0-.877-.355H281.08Zm-245.728.92h-4.1V-46.792h3.952a3.173,3.173,0,0,1,2.291.941,3.173,3.173,0,0,1,.941,2.291v16.416a2.932,2.932,0,0,1-.892,2.206A3.1,3.1,0,0,1,35.352-24.128Zm-2.1-2h2.1a1.107,1.107,0,0,0,.828-.27.926.926,0,0,0,.26-.746V-43.56a1.152,1.152,0,0,0-.355-.877,1.152,1.152,0,0,0-.877-.355H33.256ZM11.3-27.224H6.416V-46.792h3.952a3.173,3.173,0,0,1,2.291.941A3.172,3.172,0,0,1,13.6-43.56v14.112a2.122,2.122,0,0,1-.723,1.6A2.308,2.308,0,0,1,11.3-27.224Zm-2.888-2H11.3a.3.3,0,0,0,.227-.1c.069-.063.069-.088.069-.124V-43.56a1.152,1.152,0,0,0-.355-.877,1.152,1.152,0,0,0-.877-.355H8.416Z" transform="translate(-1.664 51.832)" fill="#5a4646"/>
</svg>
