<svg xmlns="http://www.w3.org/2000/svg" width="312.968" height="53.336" viewBox="0 0 312.968 53.336">
  <path id="PRIVACY_POLICY" data-name="PRIVACY POLICY" d="M217.512,1.5h-.576A7.9,7.9,0,0,1,211.2-.763,7.714,7.714,0,0,1,208.88-6.48V-43.848a7.714,7.714,0,0,1,2.315-5.717,7.9,7.9,0,0,1,5.741-2.267h.576a7.746,7.746,0,0,1,5.754,2.279,7.846,7.846,0,0,1,2.23,5.7V-6.48a7.846,7.846,0,0,1-2.23,5.7A7.746,7.746,0,0,1,217.512,1.5Zm-.576-51.336a5.89,5.89,0,0,0-4.339,1.693,5.708,5.708,0,0,0-1.717,4.291V-6.48A5.708,5.708,0,0,0,212.6-2.189,5.89,5.89,0,0,0,216.936-.5h.576a5.743,5.743,0,0,0,4.326-1.681,5.837,5.837,0,0,0,1.658-4.3V-43.848a5.837,5.837,0,0,0-1.658-4.3,5.743,5.743,0,0,0-4.326-1.681ZM280.512,1.36h-.648a7.714,7.714,0,0,1-5.717-2.315,7.812,7.812,0,0,1-2.267-5.669V-43.776a7.812,7.812,0,0,1,2.267-5.669,7.714,7.714,0,0,1,5.717-2.315h.648a7.746,7.746,0,0,1,5.754,2.279,7.846,7.846,0,0,1,2.23,5.7v13.248a2.622,2.622,0,0,1-.725,1.931,2.621,2.621,0,0,1-1.931.725H284.4a2.617,2.617,0,0,1-1.9-.761,2.617,2.617,0,0,1-.761-1.9v-13.32a1.283,1.283,0,0,0-.374-.932,1.1,1.1,0,0,0-.858-.372h-.72a1.1,1.1,0,0,0-.858.372,1.283,1.283,0,0,0-.374.932v37.3a1.283,1.283,0,0,0,.374.932,1.1,1.1,0,0,0,.858.372h.72a1.1,1.1,0,0,0,.858-.372,1.283,1.283,0,0,0,.374-.932V-20.016a2.559,2.559,0,0,1,.79-1.959,2.7,2.7,0,0,1,1.866-.7h1.44a2.621,2.621,0,0,1,1.931.725,2.622,2.622,0,0,1,.725,1.931V-6.624a7.846,7.846,0,0,1-2.23,5.7A7.746,7.746,0,0,1,280.512,1.36Zm-.648-51.12a5.708,5.708,0,0,0-4.291,1.717,5.8,5.8,0,0,0-1.693,4.267V-6.624a5.8,5.8,0,0,0,1.693,4.267A5.708,5.708,0,0,0,279.864-.64h.648a5.743,5.743,0,0,0,4.326-1.681,5.837,5.837,0,0,0,1.658-4.3V-20.016a.735.735,0,0,0-.139-.517.735.735,0,0,0-.517-.139H284.4a.682.682,0,0,0-.51.167c-.036.033-.146.135-.146.489V-6.552a3.256,3.256,0,0,1-.922,2.308,3.112,3.112,0,0,1-2.31,1h-.72a3.113,3.113,0,0,1-2.31-1,3.256,3.256,0,0,1-.922-2.308v-37.3a3.256,3.256,0,0,1,.922-2.308,3.113,3.113,0,0,1,2.31-1h.72a3.113,3.113,0,0,1,2.31,1,3.256,3.256,0,0,1,.922,2.308v13.32a.609.609,0,0,0,.175.481.609.609,0,0,0,.481.175h1.44a.735.735,0,0,0,.517-.139.735.735,0,0,0,.139-.517V-43.776a5.837,5.837,0,0,0-1.658-4.3,5.743,5.743,0,0,0-4.326-1.681ZM126.432,1.36h-.648a7.714,7.714,0,0,1-5.717-2.315A7.812,7.812,0,0,1,117.8-6.624V-43.776a7.812,7.812,0,0,1,2.267-5.669,7.714,7.714,0,0,1,5.717-2.315h.648a7.746,7.746,0,0,1,5.754,2.279,7.846,7.846,0,0,1,2.23,5.7v13.248a2.621,2.621,0,0,1-.725,1.931,2.621,2.621,0,0,1-1.931.725h-1.44a2.617,2.617,0,0,1-1.9-.761,2.617,2.617,0,0,1-.761-1.9v-13.32a1.283,1.283,0,0,0-.374-.932,1.1,1.1,0,0,0-.858-.372h-.72a1.1,1.1,0,0,0-.858.372,1.283,1.283,0,0,0-.374.932v37.3a1.283,1.283,0,0,0,.374.932,1.1,1.1,0,0,0,.858.372h.72a1.1,1.1,0,0,0,.858-.372,1.283,1.283,0,0,0,.374-.932V-20.016a2.559,2.559,0,0,1,.79-1.959,2.7,2.7,0,0,1,1.866-.7h1.44a2.621,2.621,0,0,1,1.931.725,2.621,2.621,0,0,1,.725,1.931V-6.624a7.846,7.846,0,0,1-2.23,5.7A7.746,7.746,0,0,1,126.432,1.36Zm-.648-51.12a5.708,5.708,0,0,0-4.291,1.717,5.8,5.8,0,0,0-1.693,4.267V-6.624a5.8,5.8,0,0,0,1.693,4.267A5.708,5.708,0,0,0,125.784-.64h.648a5.743,5.743,0,0,0,4.326-1.681,5.837,5.837,0,0,0,1.658-4.3V-20.016a.735.735,0,0,0-.139-.517.735.735,0,0,0-.517-.139h-1.44a.682.682,0,0,0-.51.167c-.036.033-.146.135-.146.489V-6.552a3.256,3.256,0,0,1-.922,2.308,3.113,3.113,0,0,1-2.31,1h-.72a3.113,3.113,0,0,1-2.31-1,3.256,3.256,0,0,1-.922-2.308v-37.3a3.256,3.256,0,0,1,.922-2.308,3.113,3.113,0,0,1,2.31-1h.72a3.113,3.113,0,0,1,2.31,1,3.256,3.256,0,0,1,.922,2.308v13.32a.609.609,0,0,0,.175.481.609.609,0,0,0,.481.175h1.44a.735.735,0,0,0,.517-.139.735.735,0,0,0,.139-.517V-43.776a5.837,5.837,0,0,0-1.658-4.3,5.743,5.743,0,0,0-4.326-1.681ZM305.784,1h-1.44a2.441,2.441,0,0,1-2.656-2.656v-17.1L295.08-48.348l-.088-.613v-.071A2.277,2.277,0,0,1,295.7-50.8a2.6,2.6,0,0,1,1.8-.6h1.656a2.616,2.616,0,0,1,2.71,2.325l3.147,16.562,3.309-16.546A2.55,2.55,0,0,1,311.04-51.4h1.44a2.663,2.663,0,0,1,1.785.565,2.175,2.175,0,0,1,.727,1.731,2.91,2.91,0,0,1-.1.832L308.44-18.756v17.1A2.441,2.441,0,0,1,305.784,1Zm-8.736-49.708,6.639,29.733V-1.656c0,.546.11.656.656.656h1.44c.546,0,.656-.11.656-.656V-18.972l.023-.105,6.491-29.716.017-.051a1.058,1.058,0,0,0,.021-.26.51.51,0,0,0-.031-.215.962.962,0,0,0-.481-.081h-1.44c-.506,0-.665.14-.738.653l-.009.055-4.32,21.6L304.01-27.1l-4.1-21.6c-.113-.594-.331-.7-.746-.7H297.5a.851.851,0,0,0-.463.084.436.436,0,0,0-.048.223ZM260.136,1h-1.368a2.441,2.441,0,0,1-2.656-2.656V-48.744a2.441,2.441,0,0,1,2.656-2.656h1.368a2.441,2.441,0,0,1,2.656,2.656V-1.656A2.441,2.441,0,0,1,260.136,1Zm-1.368-50.4c-.546,0-.656.11-.656.656V-1.656c0,.546.11.656.656.656h1.368c.546,0,.656-.11.656-.656V-48.744c0-.546-.11-.656-.656-.656ZM245.88,1h-9.5a2.441,2.441,0,0,1-2.656-2.656V-48.744a2.441,2.441,0,0,1,2.656-2.656h1.368a2.474,2.474,0,0,1,2.728,2.656V-5.68h5.408a2.441,2.441,0,0,1,2.656,2.656v1.368A2.441,2.441,0,0,1,245.88,1Zm-9.5-50.4c-.546,0-.656.11-.656.656V-1.656c0,.546.11.656.656.656h9.5c.546,0,.656-.11.656-.656V-3.024c0-.546-.11-.656-.656-.656h-7.408V-48.744a.791.791,0,0,0-.124-.52.985.985,0,0,0-.6-.136ZM188.424,1h-1.368A2.441,2.441,0,0,1,184.4-1.656V-48.744a2.441,2.441,0,0,1,2.656-2.656h5.976a7.778,7.778,0,0,1,5.711,2.273,7.778,7.778,0,0,1,2.273,5.711v16.992a7.778,7.778,0,0,1-2.273,5.711,7.778,7.778,0,0,1-5.711,2.273H191.08V-1.656A2.441,2.441,0,0,1,188.424,1Zm-1.368-50.4c-.546,0-.656.11-.656.656V-1.656c0,.546.11.656.656.656h1.368c.546,0,.656-.11.656-.656V-20.44h3.952a5.771,5.771,0,0,0,4.3-1.687,5.771,5.771,0,0,0,1.687-4.3V-43.416a5.771,5.771,0,0,0-1.687-4.3,5.771,5.771,0,0,0-4.3-1.687ZM151.7,1h-1.44a2.441,2.441,0,0,1-2.656-2.656v-17.1L141-48.348l-.088-.613v-.071a2.277,2.277,0,0,1,.707-1.768,2.6,2.6,0,0,1,1.8-.6h1.656a2.616,2.616,0,0,1,2.71,2.325l3.147,16.562,3.309-16.546A2.55,2.55,0,0,1,156.96-51.4h1.44a2.663,2.663,0,0,1,1.785.565,2.175,2.175,0,0,1,.727,1.731,2.911,2.911,0,0,1-.1.832L154.36-18.756v17.1A2.441,2.441,0,0,1,151.7,1Zm-8.736-49.708,6.64,29.733V-1.656c0,.546.11.656.656.656h1.44c.546,0,.656-.11.656-.656V-18.972l6.514-29.822.017-.051a1.057,1.057,0,0,0,.021-.26.509.509,0,0,0-.031-.215.962.962,0,0,0-.481-.081h-1.44c-.506,0-.665.14-.738.653l-.009.055-4.32,21.6L149.93-27.1l-4.1-21.6c-.113-.594-.331-.7-.746-.7h-1.656a.851.851,0,0,0-.463.084.436.436,0,0,0-.048.223ZM108.216,1h-1.368a2.755,2.755,0,0,1-1.834-.633,2.606,2.606,0,0,1-.888-1.764l-1.4-10.851H98.223L96.825-1.4A2.646,2.646,0,0,1,96,.341,2.611,2.611,0,0,1,94.176,1H92.664A2.513,2.513,0,0,1,90.641.178a2.522,2.522,0,0,1-.478-2.124l6.2-47.048A2.679,2.679,0,0,1,99.144-51.4h2.808a2.617,2.617,0,0,1,2.791,2.449v.008L110.8-1.883A2.633,2.633,0,0,1,110.175.21,2.559,2.559,0,0,1,108.216,1ZM96.465-14.248h8.023l1.628,12.636a.6.6,0,0,0,.191.452.772.772,0,0,0,.542.159h1.368c.354,0,.456-.11.489-.146a.833.833,0,0,0,.1-.55l-6.044-46.988c-.076-.555-.258-.716-.809-.716H99.144c-.454,0-.693.112-.812.741L92.138-1.636a.764.764,0,0,0,.029.522c.047.055.2.114.5.114h1.512a.635.635,0,0,0,.476-.133.67.67,0,0,0,.185-.478l0-.028ZM77.976,1H75.168a2.679,2.679,0,0,1-2.784-2.405l-.008-.049-6.19-47.071-.083-.5V-49.1a2.175,2.175,0,0,1,.727-1.731,2.663,2.663,0,0,1,1.785-.565h1.512a2.49,2.49,0,0,1,2.725,2.5l3.676,31.932L80.147-48.9a2.491,2.491,0,0,1,2.725-2.5h1.44a2.523,2.523,0,0,1,1.989.767,2.544,2.544,0,0,1,.516,2.085l-6.049,47.1A2.617,2.617,0,0,1,77.976,1Zm-3.62-2.741c.119.629.358.741.812.741h2.808c.551,0,.733-.161.809-.718L84.832-48.8a.869.869,0,0,0-.031-.51.849.849,0,0,0-.489-.09h-1.44a.95.95,0,0,0-.584.133.761.761,0,0,0-.145.5l-.005.067L77.5-7.784H75.573L70.857-48.771a.761.761,0,0,0-.145-.5.95.95,0,0,0-.584-.133H68.616a.962.962,0,0,0-.481.081.4.4,0,0,0-.029.145l.061.371ZM56.448,1H55.08a2.441,2.441,0,0,1-2.656-2.656V-48.744A2.441,2.441,0,0,1,55.08-51.4h1.368A2.441,2.441,0,0,1,59.1-48.744V-1.656A2.441,2.441,0,0,1,56.448,1ZM55.08-49.4c-.546,0-.656.11-.656.656V-1.656c0,.546.11.656.656.656h1.368c.546,0,.656-.11.656-.656V-48.744c0-.546-.11-.656-.656-.656ZM41.688,1H40.176a2.7,2.7,0,0,1-2.77-2.2L37.4-1.235,33.616-19.263V-1.656A2.441,2.441,0,0,1,30.96,1H29.592a2.441,2.441,0,0,1-2.656-2.656V-48.744A2.441,2.441,0,0,1,29.592-51.4h5.976a7.778,7.778,0,0,1,5.711,2.273,7.778,7.778,0,0,1,2.273,5.711v16.632a8.588,8.588,0,0,1-.938,3.947,5.849,5.849,0,0,1-2.584,2.531L44.023-2.129a2.909,2.909,0,0,1,.1.833A2.2,2.2,0,0,1,41.688,1ZM39.35-1.666c.145.563.393.666.826.666h1.512a.851.851,0,0,0,.408-.065.58.58,0,0,0,.032-.231,1.043,1.043,0,0,0-.021-.261l-.017-.05-.011-.05L37.72-21.5l.794-.312a4.133,4.133,0,0,0,2.319-1.936,6.607,6.607,0,0,0,.718-3.037V-43.416a5.771,5.771,0,0,0-1.687-4.3,5.771,5.771,0,0,0-4.3-1.687H29.592c-.546,0-.656.11-.656.656V-1.656c0,.546.11.656.656.656H30.96c.546,0,.656-.11.656-.656V-21.664h3.54ZM6.048,1H4.68A2.441,2.441,0,0,1,2.024-1.656V-48.744A2.441,2.441,0,0,1,4.68-51.4h5.976a7.778,7.778,0,0,1,5.711,2.273,7.778,7.778,0,0,1,2.273,5.711v16.992a7.778,7.778,0,0,1-2.273,5.711,7.778,7.778,0,0,1-5.711,2.273H8.7V-1.656A2.441,2.441,0,0,1,6.048,1ZM4.68-49.4c-.546,0-.656.11-.656.656V-1.656c0,.546.11.656.656.656H6.048c.546,0,.656-.11.656-.656V-20.44h3.952a5.771,5.771,0,0,0,4.3-1.687,5.771,5.771,0,0,0,1.687-4.3V-43.416a5.771,5.771,0,0,0-1.687-4.3,5.771,5.771,0,0,0-4.3-1.687ZM217.512-3.1h-.72a3.051,3.051,0,0,1-2.275-.961,3.2,3.2,0,0,1-.885-2.271V-43.992a3.2,3.2,0,0,1,.885-2.271,3.051,3.051,0,0,1,2.275-.961h.72a3.173,3.173,0,0,1,2.291.941,3.173,3.173,0,0,1,.941,2.291V-6.336a3.173,3.173,0,0,1-.941,2.291A3.173,3.173,0,0,1,217.512-3.1Zm-.72-42.12a1.043,1.043,0,0,0-.821.335,1.229,1.229,0,0,0-.339.9V-6.336a1.229,1.229,0,0,0,.339.9,1.043,1.043,0,0,0,.821.335h.72a1.152,1.152,0,0,0,.877-.355,1.152,1.152,0,0,0,.355-.877V-43.992a1.152,1.152,0,0,0-.355-.877,1.152,1.152,0,0,0-.877-.355ZM104.209-16.784h-7.4l2.8-26.48h1.949Zm-5.178-2H102L100.558-33.2Zm94-4.264H189.08V-46.792h3.952a3.173,3.173,0,0,1,2.291.941,3.173,3.173,0,0,1,.941,2.291v17.28a3.173,3.173,0,0,1-.941,2.291A3.173,3.173,0,0,1,193.032-23.048Zm-1.952-2h1.952a1.152,1.152,0,0,0,.877-.355,1.152,1.152,0,0,0,.355-.877V-43.56a1.152,1.152,0,0,0-.355-.877,1.152,1.152,0,0,0-.877-.355H191.08Zm-180.424,2H6.7V-46.792h3.952a3.173,3.173,0,0,1,2.291.941,3.173,3.173,0,0,1,.941,2.291v17.28a3.173,3.173,0,0,1-.941,2.291A3.173,3.173,0,0,1,10.656-23.048Zm-1.952-2h1.952a1.152,1.152,0,0,0,.877-.355,1.152,1.152,0,0,0,.355-.877V-43.56a1.152,1.152,0,0,0-.355-.877,1.152,1.152,0,0,0-.877-.355H8.7Zm27.008.92h-4.1V-46.792h3.952a3.173,3.173,0,0,1,2.291.941A3.173,3.173,0,0,1,38.8-43.56v16.416a2.932,2.932,0,0,1-.892,2.206A3.1,3.1,0,0,1,35.712-24.128Zm-2.1-2h2.1a1.108,1.108,0,0,0,.828-.27.926.926,0,0,0,.26-.746V-43.56a1.152,1.152,0,0,0-.355-.877,1.152,1.152,0,0,0-.877-.355H33.616Z" transform="translate(-2.024 51.832)" fill="#5a4646"/>
</svg>
