<svg xmlns="http://www.w3.org/2000/svg" width="161.696" height="52.904" viewBox="0 0 161.696 52.904">
  <path id="FEATURE" d="M106.056,1.5h-.72A7.778,7.778,0,0,1,99.625-.769,7.778,7.778,0,0,1,97.352-6.48V-48.744a2.441,2.441,0,0,1,2.656-2.656h1.44a2.441,2.441,0,0,1,2.656,2.656V-6.336a1.152,1.152,0,0,0,.355.877,1.152,1.152,0,0,0,.877.355h.648a1.152,1.152,0,0,0,.877-.355,1.152,1.152,0,0,0,.355-.877V-48.744a2.441,2.441,0,0,1,2.656-2.656h1.512a2.441,2.441,0,0,1,2.656,2.656V-6.48a7.846,7.846,0,0,1-2.23,5.7A7.746,7.746,0,0,1,106.056,1.5Zm-6.048-50.9c-.546,0-.656.11-.656.656V-6.48a5.771,5.771,0,0,0,1.687,4.3,5.771,5.771,0,0,0,4.3,1.687h.72a5.743,5.743,0,0,0,4.326-1.681,5.837,5.837,0,0,0,1.658-4.3V-48.744c0-.546-.11-.656-.656-.656h-1.512c-.546,0-.656.11-.656.656V-6.336a3.173,3.173,0,0,1-.941,2.291,3.173,3.173,0,0,1-2.291.941h-.648a3.173,3.173,0,0,1-2.291-.941,3.173,3.173,0,0,1-.941-2.291V-48.744c0-.546-.11-.656-.656-.656ZM160.56,1h-9.432a2.441,2.441,0,0,1-2.656-2.656V-48.744a2.441,2.441,0,0,1,2.656-2.656h9.432a2.474,2.474,0,0,1,2.728,2.656v1.3a2.474,2.474,0,0,1-2.728,2.656h-5.408v16.36h5.408a2.474,2.474,0,0,1,2.728,2.656v1.3a2.474,2.474,0,0,1-2.728,2.656h-5.408V-5.608h5.408a2.474,2.474,0,0,1,2.728,2.656v1.3A2.474,2.474,0,0,1,160.56,1Zm-9.432-50.4c-.546,0-.656.11-.656.656V-1.656c0,.546.11.656.656.656h9.432a.985.985,0,0,0,.6-.136.791.791,0,0,0,.124-.52v-1.3a.791.791,0,0,0-.124-.52.985.985,0,0,0-.6-.136h-7.408V-23.824h7.408a.985.985,0,0,0,.6-.136.791.791,0,0,0,.124-.52v-1.3a.791.791,0,0,0-.124-.52.985.985,0,0,0-.6-.136h-7.408v-20.36h7.408a.985.985,0,0,0,.6-.136.791.791,0,0,0,.124-.52v-1.3a.791.791,0,0,0-.124-.52.985.985,0,0,0-.6-.136ZM137.736,1h-1.512a2.7,2.7,0,0,1-2.77-2.2l-.009-.037-3.781-18.029V-1.656A2.441,2.441,0,0,1,127.008,1H125.64a2.441,2.441,0,0,1-2.656-2.656V-48.744A2.441,2.441,0,0,1,125.64-51.4h5.976a7.778,7.778,0,0,1,5.711,2.273,7.778,7.778,0,0,1,2.273,5.711v16.632a8.588,8.588,0,0,1-.938,3.947,5.849,5.849,0,0,1-2.584,2.531l3.993,18.177a2.91,2.91,0,0,1,.1.833A2.2,2.2,0,0,1,137.736,1ZM135.4-1.666c.145.562.393.666.826.666h1.512a.851.851,0,0,0,.408-.065.58.58,0,0,0,.032-.231,1.045,1.045,0,0,0-.021-.261l-.017-.05-.011-.05L133.768-21.5l.794-.312a4.133,4.133,0,0,0,2.319-1.936,6.606,6.606,0,0,0,.718-3.037V-43.416a5.771,5.771,0,0,0-1.687-4.3,5.771,5.771,0,0,0-4.3-1.687H125.64c-.546,0-.656.11-.656.656V-1.656c0,.546.11.656.656.656h1.368c.546,0,.656-.11.656-.656V-21.664h3.54ZM81.072,1h-1.44a2.441,2.441,0,0,1-2.656-2.656v-43.28H74.088a2.441,2.441,0,0,1-2.656-2.656v-1.152A2.441,2.441,0,0,1,74.088-51.4H86.616a2.441,2.441,0,0,1,2.656,2.656v1.152a2.441,2.441,0,0,1-2.656,2.656H83.728v43.28A2.441,2.441,0,0,1,81.072,1ZM74.088-49.4c-.546,0-.656.11-.656.656v1.152c0,.546.11.656.656.656h4.888v45.28c0,.546.11.656.656.656h1.44c.546,0,.656-.11.656-.656v-45.28h4.888c.546,0,.656-.11.656-.656v-1.152c0-.546-.11-.656-.656-.656ZM64.44,1H63.072A2.755,2.755,0,0,1,61.238.367,2.606,2.606,0,0,1,60.351-1.4l-1.4-10.851H54.447L53.049-1.4A2.646,2.646,0,0,1,52.228.341,2.611,2.611,0,0,1,50.4,1H48.888A2.513,2.513,0,0,1,46.865.178a2.523,2.523,0,0,1-.478-2.124l6.2-47.048A2.679,2.679,0,0,1,55.368-51.4h2.808a2.617,2.617,0,0,1,2.791,2.449v.008L67.021-1.883A2.633,2.633,0,0,1,66.4.21,2.559,2.559,0,0,1,64.44,1ZM52.689-14.248h8.023L62.339-1.611a.6.6,0,0,0,.191.452A.772.772,0,0,0,63.072-1H64.44c.354,0,.456-.11.489-.146a.834.834,0,0,0,.1-.55L58.985-48.685c-.076-.555-.258-.715-.809-.715H55.368c-.454,0-.693.112-.812.741L48.362-1.636a.764.764,0,0,0,.029.522c.047.055.2.114.5.114H50.4a.635.635,0,0,0,.476-.133.67.67,0,0,0,.185-.478l0-.028ZM37.368,1H27.936A2.441,2.441,0,0,1,25.28-1.656V-48.744A2.441,2.441,0,0,1,27.936-51.4h9.432A2.474,2.474,0,0,1,40.1-48.744v1.3a2.474,2.474,0,0,1-2.728,2.656H31.96v16.36h5.408A2.474,2.474,0,0,1,40.1-25.776v1.3a2.474,2.474,0,0,1-2.728,2.656H31.96V-5.608h5.408A2.474,2.474,0,0,1,40.1-2.952v1.3A2.474,2.474,0,0,1,37.368,1ZM27.936-49.4c-.546,0-.656.11-.656.656V-1.656c0,.546.11.656.656.656h9.432a.985.985,0,0,0,.6-.136.791.791,0,0,0,.124-.52v-1.3a.791.791,0,0,0-.124-.52.985.985,0,0,0-.6-.136H29.96V-23.824h7.408a.985.985,0,0,0,.6-.136.791.791,0,0,0,.124-.52v-1.3a.791.791,0,0,0-.124-.52.985.985,0,0,0-.6-.136H29.96v-20.36h7.408a.985.985,0,0,0,.6-.136.791.791,0,0,0,.124-.52v-1.3a.791.791,0,0,0-.124-.52.985.985,0,0,0-.6-.136ZM5.616,1H4.248A2.441,2.441,0,0,1,1.592-1.656V-48.744A2.441,2.441,0,0,1,4.248-51.4H15.336a2.441,2.441,0,0,1,2.656,2.656v1.3a2.441,2.441,0,0,1-2.656,2.656H8.344V-31.6h6.992a2.441,2.441,0,0,1,2.656,2.656v1.368a2.441,2.441,0,0,1-2.656,2.656H8.344V-1.656A2.474,2.474,0,0,1,5.616,1ZM4.248-49.4c-.546,0-.656.11-.656.656V-1.656c0,.546.11.656.656.656H5.616a.985.985,0,0,0,.6-.136.791.791,0,0,0,.124-.52V-26.92h8.992c.546,0,.656-.11.656-.656v-1.368c0-.546-.11-.656-.656-.656H6.344V-46.792h8.992c.546,0,.656-.11.656-.656v-1.3c0-.546-.11-.656-.656-.656ZM60.433-16.784h-7.4l2.8-26.48h1.949Zm-5.178-2h2.968L56.782-33.2Zm76.5-5.344h-4.1V-46.792h3.952a3.173,3.173,0,0,1,2.291.941,3.173,3.173,0,0,1,.941,2.291v16.416a2.932,2.932,0,0,1-.892,2.206A3.1,3.1,0,0,1,131.76-24.128Zm-2.1-2h2.1a1.107,1.107,0,0,0,.828-.27.926.926,0,0,0,.26-.746V-43.56a1.152,1.152,0,0,0-.355-.877,1.152,1.152,0,0,0-.877-.355h-1.952Z" transform="translate(-1.592 51.4)" fill="#5a4646"/>
</svg>
