<svg xmlns="http://www.w3.org/2000/svg" width="106.04" height="52.976" viewBox="0 0 106.04 52.976">
  <path id="NEWS" d="M99.864,1.288h-.648A7.778,7.778,0,0,1,93.5-.985,7.778,7.778,0,0,1,91.232-6.7v-8.568a2.441,2.441,0,0,1,2.656-2.656H95.4a2.441,2.441,0,0,1,2.656,2.656v.017l-.144,8.7a1.15,1.15,0,0,0,.355.87,1.152,1.152,0,0,0,.877.355h.72a1.152,1.152,0,0,0,.877-.355,1.152,1.152,0,0,0,.355-.877v-5.976a8.537,8.537,0,0,0-.807-4.116l-.009-.016L93.592-29.029a16.71,16.71,0,0,1-1.827-4.352,19.819,19.819,0,0,1-.534-4.779V-43.7A7.778,7.778,0,0,1,93.5-49.415a7.778,7.778,0,0,1,5.711-2.273h.576a7.778,7.778,0,0,1,5.711,2.273,7.778,7.778,0,0,1,2.273,5.711v9.792a2.441,2.441,0,0,1-2.656,2.656h-1.368a2.441,2.441,0,0,1-2.656-2.656v-9.936a1.152,1.152,0,0,0-.355-.877,1.152,1.152,0,0,0-.877-.355h-.648a1.152,1.152,0,0,0-.877.355,1.152,1.152,0,0,0-.355.877v7.488A6.623,6.623,0,0,0,99-32.982l.02.035,6.4,11.865a17.139,17.139,0,0,1,2.011,4.586,22.067,22.067,0,0,1,.421,4.759V-6.7a7.778,7.778,0,0,1-2.273,5.711A7.778,7.778,0,0,1,99.864,1.288ZM93.888-15.92c-.546,0-.656.11-.656.656V-6.7a5.771,5.771,0,0,0,1.687,4.3,5.771,5.771,0,0,0,4.3,1.687h.648a5.771,5.771,0,0,0,4.3-1.687,5.771,5.771,0,0,0,1.687-4.3v-5.04a20.156,20.156,0,0,0-.371-4.313,15.547,15.547,0,0,0-1.8-4.039l-.016-.029-6.4-11.863a8.579,8.579,0,0,1-1.281-4.38v-7.488a3.173,3.173,0,0,1,.941-2.291,3.173,3.173,0,0,1,2.291-.941h.648a3.173,3.173,0,0,1,2.291.941,3.173,3.173,0,0,1,.941,2.291v9.936c0,.546.11.656.656.656h1.368c.546,0,.656-.11.656-.656V-43.7a5.771,5.771,0,0,0-1.687-4.3,5.771,5.771,0,0,0-4.3-1.687h-.576A5.771,5.771,0,0,0,94.919-48a5.771,5.771,0,0,0-1.687,4.3v5.544a17.832,17.832,0,0,0,.474,4.293,14.732,14.732,0,0,0,1.621,3.841l.017.03,6.692,12.376a10.3,10.3,0,0,1,1.061,5.091v5.976a3.173,3.173,0,0,1-.941,2.291,3.173,3.173,0,0,1-2.291.941h-.72a3.173,3.173,0,0,1-2.291-.941,3.173,3.173,0,0,1-.941-2.291v-.017l.144-8.7c0-.539-.113-.649-.656-.649ZM76.608,1h-2.88A2.491,2.491,0,0,1,71-1.5L68.677-22.23,66.3-1.5A2.49,2.49,0,0,1,63.576,1H60.7a2.679,2.679,0,0,1-2.784-2.405L57.9-1.454l-6.19-47.071-.083-.5V-49.1a2.175,2.175,0,0,1,.727-1.731,2.663,2.663,0,0,1,1.785-.565h1.584a2.49,2.49,0,0,1,2.725,2.5l3.592,30.865,3.2-30.916A2.617,2.617,0,0,1,68.04-51.4h1.3a2.7,2.7,0,0,1,1.866.7,2.72,2.72,0,0,1,.857,1.787l3.227,31.138,3.571-31.174A2.617,2.617,0,0,1,81.648-51.4H83.16a2.523,2.523,0,0,1,1.989.767,2.544,2.544,0,0,1,.516,2.085v.008L79.4-1.452A2.618,2.618,0,0,1,76.608,1ZM67.695-31.218l1.987,0L73-1.629a.761.761,0,0,0,.145.5A.95.95,0,0,0,73.728-1h2.88c.552,0,.733-.161.809-.719L83.68-48.8a.869.869,0,0,0-.031-.509.849.849,0,0,0-.489-.09H81.648c-.548,0-.731.159-.808.709L76.2-8.216H74.266l-4.2-40.5a.747.747,0,0,0-.224-.52.682.682,0,0,0-.51-.167h-1.3c-.547,0-.73.158-.807.7l-4.2,40.48H61.174L56.457-48.771a.761.761,0,0,0-.145-.5.95.95,0,0,0-.584-.133H54.144a.962.962,0,0,0-.481.081.4.4,0,0,0-.029.145l.061.371L59.884-1.74c.119.629.358.74.812.74h2.88a.95.95,0,0,0,.584-.133.761.761,0,0,0,.145-.5l.005-.068ZM42.7,1H33.264a2.441,2.441,0,0,1-2.656-2.656V-48.744A2.441,2.441,0,0,1,33.264-51.4H42.7a2.474,2.474,0,0,1,2.728,2.656v1.3A2.474,2.474,0,0,1,42.7-44.792H37.288v16.36H42.7a2.474,2.474,0,0,1,2.728,2.656v1.3A2.474,2.474,0,0,1,42.7-21.824H37.288V-5.608H42.7a2.474,2.474,0,0,1,2.728,2.656v1.3A2.474,2.474,0,0,1,42.7,1ZM33.264-49.4c-.546,0-.656.11-.656.656V-1.656c0,.546.11.656.656.656H42.7a.985.985,0,0,0,.6-.136.791.791,0,0,0,.124-.52v-1.3a.791.791,0,0,0-.124-.52.985.985,0,0,0-.6-.136H35.288V-23.824H42.7a.985.985,0,0,0,.6-.136.791.791,0,0,0,.124-.52v-1.3a.791.791,0,0,0-.124-.52.985.985,0,0,0-.6-.136H35.288v-20.36H42.7a.985.985,0,0,0,.6-.136.791.791,0,0,0,.124-.52v-1.3a.791.791,0,0,0-.124-.52.985.985,0,0,0-.6-.136ZM19.728,1H18a2.779,2.779,0,0,1-2.826-2.067l-.015-.054L8.56-26.958v25.3A2.441,2.441,0,0,1,5.9,1H4.464A2.441,2.441,0,0,1,1.808-1.656V-48.744A2.441,2.441,0,0,1,4.464-51.4h1.8A2.779,2.779,0,0,1,9.09-49.333l.016.055,6.527,25.661V-48.744A2.441,2.441,0,0,1,18.288-51.4h1.44a2.441,2.441,0,0,1,2.656,2.656V-1.656A2.441,2.441,0,0,1,19.728,1ZM17.089-1.645A.81.81,0,0,0,18-1h1.728c.546,0,.656-.11.656-.656V-48.744c0-.546-.11-.656-.656-.656h-1.44c-.546,0-.656.11-.656.656v33.832H15.783L7.175-48.755a.809.809,0,0,0-.911-.645h-1.8c-.546,0-.656.11-.656.656V-1.656c0,.546.11.656.656.656H5.9c.546,0,.656-.11.656-.656V-35.632H8.409Z" transform="translate(-1.808 51.688)" fill="#5a4646"/>
</svg>
