<svg xmlns="http://www.w3.org/2000/svg" width="89.552" height="53.12" viewBox="0 0 89.552 53.12">
  <path id="SPEC" d="M82.944,1.36H82.3A7.714,7.714,0,0,1,76.579-.955a7.812,7.812,0,0,1-2.267-5.669V-43.776a7.812,7.812,0,0,1,2.267-5.669A7.714,7.714,0,0,1,82.3-51.76h.648A7.746,7.746,0,0,1,88.7-49.481a7.846,7.846,0,0,1,2.23,5.7v13.248A2.621,2.621,0,0,1,90.2-28.6a2.621,2.621,0,0,1-1.931.725h-1.44a2.617,2.617,0,0,1-1.9-.761,2.617,2.617,0,0,1-.761-1.9v-13.32a1.283,1.283,0,0,0-.374-.932,1.1,1.1,0,0,0-.858-.372h-.72a1.1,1.1,0,0,0-.858.372,1.283,1.283,0,0,0-.374.932v37.3a1.283,1.283,0,0,0,.374.932,1.1,1.1,0,0,0,.858.372h.72A1.1,1.1,0,0,0,83.8-5.62a1.283,1.283,0,0,0,.374-.932V-20.016a2.559,2.559,0,0,1,.79-1.959,2.7,2.7,0,0,1,1.866-.7h1.44a2.621,2.621,0,0,1,1.931.725,2.621,2.621,0,0,1,.725,1.931V-6.624a7.846,7.846,0,0,1-2.23,5.7A7.746,7.746,0,0,1,82.944,1.36ZM82.3-49.76a5.708,5.708,0,0,0-4.291,1.717,5.8,5.8,0,0,0-1.693,4.267V-6.624a5.8,5.8,0,0,0,1.693,4.267A5.708,5.708,0,0,0,82.3-.64h.648A5.743,5.743,0,0,0,87.27-2.321a5.837,5.837,0,0,0,1.658-4.3V-20.016a.735.735,0,0,0-.139-.517.735.735,0,0,0-.517-.139h-1.44a.682.682,0,0,0-.51.167c-.036.033-.146.135-.146.489V-6.552a3.256,3.256,0,0,1-.922,2.308,3.113,3.113,0,0,1-2.31,1h-.72a3.113,3.113,0,0,1-2.31-1,3.256,3.256,0,0,1-.922-2.308v-37.3a3.256,3.256,0,0,1,.922-2.308,3.113,3.113,0,0,1,2.31-1h.72a3.113,3.113,0,0,1,2.31,1,3.256,3.256,0,0,1,.922,2.308v13.32a.61.61,0,0,0,.175.481.61.61,0,0,0,.481.175h1.44a.735.735,0,0,0,.517-.139.735.735,0,0,0,.139-.517V-43.776a5.837,5.837,0,0,0-1.658-4.3,5.743,5.743,0,0,0-4.326-1.681ZM10.008,1.288H9.36A7.778,7.778,0,0,1,3.649-.985,7.778,7.778,0,0,1,1.376-6.7v-8.568A2.441,2.441,0,0,1,4.032-17.92H5.544A2.441,2.441,0,0,1,8.2-15.264v.017l-.144,8.7a1.15,1.15,0,0,0,.355.87,1.152,1.152,0,0,0,.877.355h.72a1.152,1.152,0,0,0,.877-.355,1.152,1.152,0,0,0,.355-.877v-5.976a8.536,8.536,0,0,0-.807-4.116l-.009-.016L3.737-29.029A16.709,16.709,0,0,1,1.91-33.381a19.819,19.819,0,0,1-.534-4.779V-43.7a7.778,7.778,0,0,1,2.273-5.711A7.778,7.778,0,0,1,9.36-51.688h.576a7.778,7.778,0,0,1,5.711,2.273A7.778,7.778,0,0,1,17.92-43.7v9.792a2.441,2.441,0,0,1-2.656,2.656H13.9a2.645,2.645,0,0,1-1.949-.707,2.645,2.645,0,0,1-.707-1.949v-9.936a1.152,1.152,0,0,0-.355-.877,1.152,1.152,0,0,0-.877-.355H9.36a1.152,1.152,0,0,0-.877.355,1.152,1.152,0,0,0-.355.877v7.488A6.623,6.623,0,0,0,9.14-32.982l.02.035,6.4,11.866a17.139,17.139,0,0,1,2.01,4.586,22.067,22.067,0,0,1,.421,4.759V-6.7A7.778,7.778,0,0,1,15.719-.985,7.778,7.778,0,0,1,10.008,1.288ZM4.032-15.92c-.546,0-.656.11-.656.656V-6.7A5.771,5.771,0,0,0,5.063-2.4,5.771,5.771,0,0,0,9.36-.712h.648A5.771,5.771,0,0,0,14.3-2.4a5.771,5.771,0,0,0,1.687-4.3v-5.04a20.156,20.156,0,0,0-.371-4.313,15.547,15.547,0,0,0-1.8-4.04l-.016-.029L7.409-31.98a8.579,8.579,0,0,1-1.281-4.38v-7.488a3.173,3.173,0,0,1,.941-2.291A3.173,3.173,0,0,1,9.36-47.08h.648a3.173,3.173,0,0,1,2.291.941,3.173,3.173,0,0,1,.941,2.291v9.936a.857.857,0,0,0,.121.535.857.857,0,0,0,.535.121h1.368c.546,0,.656-.11.656-.656V-43.7A5.771,5.771,0,0,0,14.233-48a5.771,5.771,0,0,0-4.3-1.687H9.36A5.771,5.771,0,0,0,5.063-48a5.771,5.771,0,0,0-1.687,4.3v5.544a17.831,17.831,0,0,0,.474,4.293,14.731,14.731,0,0,0,1.621,3.841l.017.03L12.179-17.62a10.3,10.3,0,0,1,1.061,5.092v5.976A3.173,3.173,0,0,1,12.3-4.261a3.173,3.173,0,0,1-2.291.941h-.72A3.173,3.173,0,0,1,7-4.261a3.173,3.173,0,0,1-.941-2.291v-.017l.144-8.7c0-.539-.113-.648-.656-.648ZM63.432,1H54a2.441,2.441,0,0,1-2.656-2.656V-48.744A2.441,2.441,0,0,1,54-51.4h9.432a2.474,2.474,0,0,1,2.728,2.656v1.3a2.474,2.474,0,0,1-2.728,2.656H58.024v16.36h5.408a2.474,2.474,0,0,1,2.728,2.656v1.3a2.474,2.474,0,0,1-2.728,2.656H58.024V-5.608h5.408A2.474,2.474,0,0,1,66.16-2.952v1.3A2.474,2.474,0,0,1,63.432,1ZM54-49.4c-.546,0-.656.11-.656.656V-1.656c0,.546.11.656.656.656h9.432a.985.985,0,0,0,.6-.136.791.791,0,0,0,.124-.52v-1.3a.791.791,0,0,0-.124-.52.985.985,0,0,0-.6-.136H56.024V-23.824h7.408a.985.985,0,0,0,.6-.136.791.791,0,0,0,.124-.52v-1.3a.791.791,0,0,0-.124-.52.985.985,0,0,0-.6-.136H56.024v-20.36h7.408a.985.985,0,0,0,.6-.136.791.791,0,0,0,.124-.52v-1.3a.791.791,0,0,0-.124-.52.985.985,0,0,0-.6-.136ZM30.456,1H29.088a2.441,2.441,0,0,1-2.656-2.656V-48.744A2.441,2.441,0,0,1,29.088-51.4h5.976a7.778,7.778,0,0,1,5.711,2.273,7.778,7.778,0,0,1,2.273,5.711v16.992a7.778,7.778,0,0,1-2.273,5.711,7.778,7.778,0,0,1-5.711,2.273H33.112V-1.656A2.441,2.441,0,0,1,30.456,1ZM29.088-49.4c-.546,0-.656.11-.656.656V-1.656c0,.546.11.656.656.656h1.368c.546,0,.656-.11.656-.656V-20.44h3.952a5.771,5.771,0,0,0,4.3-1.687,5.771,5.771,0,0,0,1.687-4.3V-43.416a5.771,5.771,0,0,0-1.687-4.3,5.771,5.771,0,0,0-4.3-1.687Zm5.976,26.352H31.112V-46.792h3.952a3.173,3.173,0,0,1,2.291.941A3.173,3.173,0,0,1,38.3-43.56v17.28a3.173,3.173,0,0,1-.941,2.291A3.173,3.173,0,0,1,35.064-23.048Zm-1.952-2h1.952a1.152,1.152,0,0,0,.877-.355,1.152,1.152,0,0,0,.355-.877V-43.56a1.152,1.152,0,0,0-.355-.877,1.152,1.152,0,0,0-.877-.355H33.112Z" transform="translate(-1.376 51.76)" fill="#5a4646"/>
</svg>
