<?xml version="1.0" encoding="UTF-8"?>
<svg xmlns="http://www.w3.org/2000/svg" version="1.1" viewBox="0 0 16.3899994 5.3699999">
  <defs>
    <style>
      .cls-1, .cls-2 {
        fill: #5f5f5f;
      }

      .cls-2 {
        stroke: #5f5f5f;
        stroke-linecap: round;
        stroke-linejoin: round;
        stroke-width: .05px;
      }
    </style>
  </defs>
  <!-- Generator: Adobe Illustrator 28.6.0, SVG Export Plug-In . SVG Version: 1.2.0 Build 709)  -->
  <g>
    <g id="_レイヤー_2">
      <g id="lay">
        <g>
          <g>
            <path class="cls-2" d="M.13,4.5300002v-1.9099998c0-.0799999-.03-.1199999-.1-.2h.63c.7900001,0,1.34.3900001,1.34,1.1499999s-.54,1.1500001-1.34,1.1500001H.03c.08-.0799999.1-.1199999.1-.1999998v.0099998ZM.58,4.6799998c.73,0,1.23-.3800001,1.23-1.1100001s-.5-1.1100001-1.23-1.1100001h-.27v2.21h.27v.0100002Z"/>
            <path class="cls-2" d="M3.1500001,4.73v-.3800001c-.0699999.1799998-.2.4000001-.47.4000001-.3199999,0-.4300001-.2800002-.4300001-.5599999,0-.2.0599999-.6399999.47-.6399999.25,0,.3599999.1400001.4300001.27v-.25c0-.1800001,0-.5699999-.25-.5699999-.1900001,0-.3699999.23-.51.48h-.04l.0999999-.3900001c.0699999-.04.1900001-.1400001.4100001-.1400001.3099999,0,.46.2.46.54v1.03c0,.0799999.03.1199999.0999999.1999998h-.28l.01.0100002ZM3.1500001,3.8800001c-.0699999-.1400001-.1900001-.3-.3499999-.3-.27,0-.3699999.4300001-.3699999.6499999s.1199999.4900002.3099999.4900002.3499999-.2800002.4100001-.46v-.3699999l-.0000002-.0100002Z"/>
            <path class="cls-2" d="M4.4499998,3.02h-.2199998c-.28,0-.4000001.0899999-.48.3600001h-.03l.03-.4000001h.9000001v.04l-.8,1.6700001h.3399999c.2800002,0,.4000001-.0900002.48-.3600001h.04l-.04.4000001h-1.02v-.04s.8000002-1.6700001.7999997-1.6700001Z"/>
            <path class="cls-2" d="M5.7800002,3.02h-.2199998c-.2800002,0-.4000001.0899999-.48.3600001h-.0300002l.0300002-.4000001h.9000001v.04l-.8000002,1.6700001h.3400002c.2800002,0,.4000001-.0900002.48-.3600001h.04l-.04.4000001h-1.02v-.04s.8000002-1.6700001.7999997-1.6700001Z"/>
            <path class="cls-2" d="M6.4299998,4.5300002v-1.9099998c0-.1099999-.0300002-.1400001-.0700002-.1400001-.0300002,0-.0700002.03-.0999999.05v-.03c.0799999-.0799999.1999998-.1900001.27-.1900001.0599999,0,.0700002.05.0700002.2v2.0299997c0,.0799999.0300002.1199999.0999999.1999998h-.3800001c.0799999-.0799999.0999999-.1199999.0999999-.1999998l.0100002-.0099998Z"/>
            <path class="cls-2" d="M8.1599998,3.5699999c.3100004.0699999.54.24.54.55,0,.3499999-.3000002.6300001-.7799997.6300001-.54,0-.9700003-.3400002-.9700003-.9000001s.4200001-.9000001.9200001-.9000001c.3999996,0,.6899996.23.8100004.6199999h-.5299997l.0099993.0000002ZM7.1700001,3.5699999c-.02.0899999-.04.1800001-.04.28,0,.5300002.3499999.8499999.8200002.8499999.3799996,0,.7099996-.2199998.7099996-.5799999,0-.3299999-.29-.5-.6400003-.55h-.8600001.0100007ZM8.5,3.54c-.1000004-.3399999-.3299999-.54-.6199999-.54-.3099999,0-.5900002.2-.6900001.54h1.3200002-.0100002Z"/>
            <path class="cls-2" d="M12.25,4.3899999c-.1199999.0999999-.3699999.3600001-.9200001.3600001-.6800003,0-1.2200003-.4499998-1.2200003-1.1799998s.5100002-1.1799998,1.1700001-1.1799998c.4899998,0,.8999996.27.8999996.6399999,0,.1700001-.0799999.4400001-.3400002.54h.4200001v.8099999l-.0099993.0099998ZM12.0699997,4c0-.3199999-.1499996-.3899999-.4300003-.3899999h-.1499996v-.04h.29c.3299999-.1199999.3599997-.4000001.3599997-.5,0-.4200001-.4399996-.6399999-.8299999-.6399999-.5299997,0-1.0100002.4400001-1.0100002,1.1399999s.5,1.1300001,1.0599995,1.1300001c.29,0,.5299997-.0999999.7200003-.23v-.48l-.0099993.0099998Z"/>
            <path class="cls-2" d="M13.5,3.1600001l.04.52h-.04c-.0699997-.3799999-.1800003-.6700001-.3199997-.6700001-.1599998,0-.29.4200001-.3599997.73v.7900002c0,.0799999.0299997.1199999.1000004.1999998h-.3800001c.0799999-.0799999.1000004-.1199999.1000004-.1999998v-1.25c0-.1099999-.0299997-.1400001-.0699997-.1400001-.0299997,0-.0699997.03-.1000004.05v-.03c.0799999-.0799999.1999998-.1900001.2700005-.1900001.0500002,0,.0699997.05.0699997.2v.4200001c.0699997-.3099999.1899996-.6300001.3800001-.6300001.1199999,0,.25.1300001.29.2h.0199986Z"/>
            <path class="cls-2" d="M14.6000004,4.73v-.3800001c-.0699997.1799998-.1999998.4000001-.4700003.4000001-.3199997,0-.4300003-.2800002-.4300003-.5599999,0-.2.0600004-.6399999.4700003-.6399999.25,0,.3599997.1400001.4300003.27v-.25c0-.1800001,0-.5699999-.25-.5699999-.1899996,0-.3699999.23-.5100002.48h-.04l.1000004-.3900001c.0699997-.04.1899996-.1400001.4099998-.1400001.3100004,0,.46.2.46.54v1.03c0,.0799999.0299997.1199999.1000004.1999998h-.2799997l.0099993.0100002ZM14.6000004,3.8800001c-.0699997-.1400001-.1899996-.3-.3500004-.3-.2700005,0-.3699999.4300001-.3699999.6499999s.1199999.4900002.3100004.4900002.3500004-.2800002.4099998-.46v-.3800001Z"/>
            <path class="cls-2" d="M16.2099991,3.1800001l-.5600004,1.6699998c-.0699997.2199998-.1400003.5-.3800001.5-.1499996,0-.2600002-.1100001-.2600002-.29,0-.3099999.3400002-.3600001.6199999-.3600001l-.54-1.52c-.0299997-.0799999-.0799999-.1199999-.1499996-.2h.3900003c-.0799999.0799999-.0799999.1199999-.0600004.2l.46,1.27.4199991-1.27c.0300007-.0799999.0200005-.1199999-.0400009-.2h.25c-.0900002.0799999-.1299992.1199999-.1599998.2l.0100021.0000002ZM15.0500002,5.0500002c0,.1700001.1000004.25.21.25.1999998,0,.2700005-.2600002.3400002-.46l.04-.1199999c-.2700005,0-.5900002.0300002-.5900002.3200002v.0099998Z"/>
          </g>
          <g>
            <path class="cls-1" d="M.23.71s-.07.05-.08.05-.01,0-.04-.03C.08.7.05.68,0,.65c.16-.1.26-.18.35-.31.06-.09.11-.18.13-.26.16.06.2.08.2.1,0,0,0,.01-.02.02-.01.01-.03.04-.08.1h.13c.15,0,.18,0,.23-.02h.03c.02,0,.04.02.09.07.04.04.05.06.05.08,0,.01,0,.02-.02.04-.01.01-.03.04-.05.08-.14.26-.25.4-.42.55-.13.12-.34.26-.39.26-.01,0-.03,0-.04-.02-.04-.04-.08-.0700001-.13-.09.21-.1.37-.21.51-.36.0933333-.1.08-.1133333-.04-.04-.18.11-.07-.06-.14-.12,0,0-.01-.01-.01-.02,0,0,.02-.03.07-.08q.03-.03.04-.03c.02,0,.11.07.2.16.09-.12.15-.23.19-.32-.1133333,0-.2433333,0-.39,0-.07.09-.16.18-.26.26l-.0000002.01ZM1.22.32s-.05.04-.0599999.04,0,0-.04-.04c-.02-.04-.0599999-.09-.09-.12v-.01c0-.01.0599999-.05.0700001-.05.01,0,.03.01.08.07.04.05.0700001.09.0700001.1s0,.02-.02.03l-.0100002-.02ZM1.28.25c-.04-.06-.0700001-.1-.11-.14v-.01s0-.02.03-.03c.02-.02.03-.02.04-.02.02,0,.0599999.04.11.1.02.03.04.05.04.06,0,0,0,.02-.02.03-.02.02-.05.03-.0599999.03,0,0-.01,0-.02-.02h-.01Z"/>
            <path class="cls-1" d="M2.5,1c.0999999.09.1500001.15.1500001.17,0,.01-.02.04-.0699999.08-.03.03-.05.04-.0599999.04,0,0-.01,0-.02-.01-.0066667-.0066667-.0333333-.0400001-.0799999-.1-.0799999-.09-.2-.19-.3299999-.28-.1.1-.23.22-.34.29-.09.0599999-.17.1-.1799999.1s-.02,0-.05-.04c-.02-.02-.0599999-.05-.09-.08.17-.08.3000001-.17.4399999-.3.1500001-.14.26-.27.3800001-.48-.34,0-.5366668.0033333-.5899999.01-.0799999.01-.02,0-.02,0-.02,0-.03,0-.03-.02,0-.05-.01-.09-.01-.17.1.01.26.02.48.02h.23q.02,0,.05-.01h.02c.03,0,.05.02.0899999.07.03.04.04.07.04.09s0,.02-.04.06c-.02.02-.03.04-.0799999.11-.04.08-.1099999.17-.1700001.24.1199999.08.2.14.29.22l-.0100005-.01ZM2.5799999.32c-.04-.06-.0599999-.1-.1099999-.15-.0333333-.0333333-.0333333-.0366667,0-.01.05.04,0-.02.03-.04.02-.02.03-.02.04-.02s.03.01.0599999.05c.05.05.0799999.1.0799999.11,0,.02-.0699999.07-.0899999.07l-.01-.01ZM2.79.21s-.02.02-.03.02h0s0,0,0,0l-.02-.02c-.04-.07-.0799999-.11-.1099999-.15-.02-.0266667-.02-.03,0-.01.03.03.05-.05.0599999-.05s.01,0,.03.02c.03.02.0799999.08.0999999.12,0,0,0,.01.01.03,0,0-.02.03-.05.04h.01Z"/>
            <path class="cls-1" d="M3.3299999.24s.02.01.02.03v.02c0,.03-.01.06-.01.12,0,.37-.0699999.6-.23.8-.04.04-.05.0599999-.0599999.0599999h-.03c-.04-.03-.0799999-.04-.1500001-.05.0999999-.1.1400001-.16.1900001-.26.0599999-.14.0899999-.28.0899999-.5,0-.1,0-.14-.01-.22.0799999,0,.1500001.01.1900001.02v-.0200001ZM3.49.38c0-.07,0-.13-.01-.2.1600001,0,.22.02.22.05v.79c.1900001-.11.3199999-.21.4399998-.37,0,.08,0,.14.02.18v.03c0,.02-.0100002.04-.0799999.11-.1099999.1-.1900001.15-.3299999.23-.03.02-.05.03-.0699999.05-.01,0-.02.01-.04.01s-.0699999-.04-.1099999-.0700001c-.03-.03-.04-.05-.04-.0700001v-.03c.01-.03.01-.0599999.01-.14V.38h-.0100002Z"/>
            <path class="cls-1" d="M4.8699999.47c-.0999999.14-.2800002.3-.3200002.3-.0100002,0-.02,0-.0500002-.03-.02-.02-.0599999-.05-.1100001-.08.1100001-.06.2199998-.15.3000002-.24.0900002-.11.1399999-.19.1900001-.32.0700002.02.1100001.04.1599998.07.02.01.0300002.02.0300002.03s0,.02-.02.03-.0300002.03-.0700002.08h.2199998c.0799999,0,.0999999,0,.1399999-.02h.02c.02,0,.0500002.02.0900002.08.0300002.04.04.05.04.07s0,.02-.0300002.05c-.0100002.01-.0300002.04-.0500002.07-.1599998.29-.3200002.48-.5599999.65-.0999999.08-.2399998.16-.27.16-.0100002,0-.02,0-.04-.02-.0300002-.03-.0700002-.0599999-.1199999-.09.2199998-.1.3699999-.21.52-.36.1100001-.11.1799998-.21.25-.33.0100002-.03.02-.04.0500002-.09h-.3800001l.0100007-.0099999ZM5.5799999.31s-.0500002.04-.0599999.04c-.0066662,0-.02-.0133333-.04-.04-.0300002-.04-.0599999-.09-.0900002-.12v-.01c0-.01.0599999-.05.0700002-.05s.0300002.01.0799999.07c.04.05.0700002.09.0700002.1s0,.02-.02.03l-.0100002-.02ZM5.6500001.23c-.04-.06-.0700002-.1-.1100001-.14v-.01s0-.02.0300002-.03c.02-.02.0300002-.02.04-.02.02,0,.0599999.04.1100001.1.02.03.0300002.05.0300002.06s0,.02-.02.03c-.02.02-.0500002.03-.0599999.03l-.0200005-.02Z"/>
            <path class="cls-1" d="M6.0100002.46c0-.1,0-.17-.0100002-.25.0700002,0,.1399999.01.1900001.02.02,0,.0300002.01.0300002.03v.03c-.0000005.0133333-.0066667.2533334-.02.72.2199998-.07.3499999-.14.5099998-.25.0900002-.06.1500001-.12.2199998-.19h0c0,.07,0,.12.02.18v.02c0,.03-.02.05-.0999999.11-.0799999.07-.21.15-.3099999.2-.0799999.04-.1599998.08-.27.11-.0300002.01-.0500002.02-.0700002.04-.0100002.01-.02.02-.04.02-.04,0-.1500001-.1-.1500001-.15v-.13s0-.51.0000005-.51Z"/>
            <path class="cls-1" d="M7.8299999.63c.2700005,0,.4300003,0,.5799999-.01h.0200005s.04,0,.04.12c0,.06,0,.07-.0299997.07h-1.1100001c-.02,0-.0300002,0-.0300002-.02,0-.04-.0100002-.11-.0100002-.18.1199999.01.23.02.54.02Z"/>
          </g>
        </g>
      </g>
    </g>
  </g>
</svg>