<?xml version="1.0" encoding="UTF-8"?>
<svg xmlns="http://www.w3.org/2000/svg" version="1.1" viewBox="0 0 16.9699993 5.3899999">
  <defs>
    <style>
      .cls-1 {
        font-family: StylishDelight-Regular, 'Stylish Delight';
        font-size: 2.3285708px;
      }

      .cls-1, .cls-2 {
        fill: #5f5f5f;
      }
    </style>
  </defs>
  <!-- Generator: Adobe Illustrator 28.7.1, SVG Export Plug-In . SVG Version: 1.2.0 Build 142)  -->
  <g>
    <g id="_レイヤー_1" data-name="レイヤー_1">
      <g id="_レイヤー_2">
        <g id="lay">
          <g>
            <path class="cls-2" d="M.55.44c-.27,0-.46.01-.51.02h0c-.03,0-.04-.05-.04-.2.07.01.17.02.39.02h.47c.03,0,.04,0,.06-.02h.02c.03,0,.06.02.11.08.02.0266667.03.0466667.03.06,0,.01,0,.02-.01.03-.01.02-.02.02-.05.13-.08.26-.25.5-.48.6800001-.09.0700001-.17.12-.2.12-.0133334,0-.03-.0133333-.05-.04-.04-.04-.07-.0599999-.11-.09.22-.11.34-.2.46-.35.1-.13.17-.27.2-.44h-.29ZM1.2.28s-.05.04-.0599999.04c-.0066667,0-.02-.0133334-.04-.04-.03-.04-.0599999-.09-.09-.12v-.01c0-.01.0599999-.05.0700001-.05.01,0,.03.02.08.07.04.05.0700001.09.0700001.1s0,.02-.02.03c0,0-.0100002-.02-.0100002-.02ZM1.27.21c-.04-.06-.0700001-.1-.11-.14v-.01s0-.02.03-.03c.02-.02.03-.02.04-.02.02,0,.0599999.04.11.1.02.03.03.05.03.06,0,0,0,.02-.02.03-.02.02-.05.03-.05.03,0,0-.01,0-.02-.02,0,0-.01,0-.01,0Z"/>
            <path class="cls-2" d="M1.52.7h-.01c-.03,0-.05-.05-.0599999-.21.0700001.01.1800001.02.46.02h.4100001c.02,0,.03,0,.0599999-.01h.03c.02,0,.04.01.0599999.04.04.05.0699999.09.0699999.11,0,.02,0,.03-.03.05-.01.01-.02.02-.05.09-.0999999.22-.21.36-.3899999.47-.08.05-.21.11-.24.11-.02,0-.03,0-.0599999-.04-.04-.05-.0599999-.0599999-.1-.08.17-.05.33-.14.4399999-.24.0799999-.08.1500001-.19.1900001-.32-.5699999,0-.6700001.01-.78.03l-.0000002-.0200001ZM2.01.17c.1066668,0,.2166667-.0033333.3299999-.01h.02s.03.02.03.06v.05h0c0,.06,0,.07-.03.07h-.22c-.22,0-.39,0-.47.01h-.01s-.04-.02-.05-.19c.1.01.1900001.02.4100001.02,0,0-.01-.01-.01-.01Z"/>
            <path class="cls-2" d="M3.29.3c0-.08,0-.13-.01-.19.1099999,0,.1700001,0,.2.02.01,0,.02.01.02.02v.03c-.01.02-.02.05-.02.12v.05h.1900001s.0799999,0,.1099999-.02h.04c.03,0,.0699999.03.1199999.09.03.03.03.04.03.06,0,.01,0,.02-.01.04-.01.03-.02.04-.04.12-.03.14-.0599999.21-.1199999.31-.0999999.17-.24.3-.4200001.39-.04.02-.0699999.03-.0799999.03s-.02,0-.03-.02c-.03-.03-.0599999-.0599999-.1199999-.1.1199999-.05.1800001-.08.25-.13.1500001-.1.24-.23.3-.4.03-.08.04-.13.04-.2h-.71v.24h0s0,.03-.02.03h-.0999999c-.0599999,0-.0699999,0-.0699999-.03v-.41h.4300001v-.04s.0199997-.0100001.0199997-.0100001Z"/>
            <path class="cls-2" d="M5.3499999.53l.0100002.03c0,.02,0,.03-.0300002.05-.0799999.11-.1700001.19-.3000002.3-.1500001.12-.2800002.1899999-.46.28-.1199999.05-.1199999.0599999-.1399999.0700001-.0100002.01-.02.02-.0300002.02s-.0300002-.01-.0500002-.04c-.0300002-.05-.0599999-.11-.0700002-.16.1500001-.03.3299999-.12.5099998-.23.23-.15.3800001-.29.4899998-.49.02.06.0300002.09.0700002.16l.000001.01ZM4.3499999.28s.04-.04.0500002-.04c.0300002,0,.1399999.07.23.15.0599999.05.0799999.07.0799999.08,0,.01-.0300002.05-.0599999.09-.0300002.04-.0500002.05-.0599999.05-.0066667,0-.0300002-.02-.0700002-.06-.0600004-.06-.1199999-.1-.1599998-.12-.0333338-.02-.0533333-.0333333-.0599999-.04-.0099998-.01,0,0,0-.01s.0300002-.06.0700002-.1c0,0-.0200005,0-.0200005,0Z"/>
            <path class="cls-2" d="M5.98.43s0,.01-.0100002.03c-.02.03-.02.05-.04.14-.0500002.21-.1300001.39-.23.53-.04.0599999-.0799999.09-.0900002.09h-.02c-.0500002-.03-.0900002-.04-.1500001-.0599999.1399999-.12.2399998-.31.3000002-.54.02-.08.0300002-.15.0300002-.22v-.03c.1300001.01.2199998.04.2199998.07,0,0-.0099998-.0100001-.0099998-.0100001ZM6.54,1.1799999c-.0799999-.27-.1900001-.53-.3099999-.71-.0133333-.02-.0199995-.0333333-.02-.04,0-.01.0100002-.02.0599999-.05.04-.03.0700002-.04.0799999-.04.0133333,0,.04.03.0799999.09.0700002.1.1300001.24.21.43.0500002.13.0799999.23.0799999.25s0,.02-.04.04-.0999999.04-.1100001.04-.02,0-.0300002-.02l.0000005.01ZM6.5300002.43c-.0300002-.06-.0599999-.1-.1100001-.15v-.01s0-.02.04-.04c.02-.02.0300002-.02.04-.02.0100002,0,.0300002.01.0599999.05.0500002.05.0799999.1.0799999.11,0,.02-.0700002.07-.0900002.07l-.0100002-.01h-.0099993ZM6.7399998.32s-.0300002.02-.04.02l-.0100002-.01c-.04-.07-.0599999-.1-.1100001-.15v-.01c0-.01.0599999-.06.0799999-.06.0100002,0,.0300002.02.0599999.05.04.05.0799999.1.0799999.11s-.0100002.02-.04.04c0,0-.0199995.01-.0199995.01Z"/>
            <path class="cls-2" d="M7.46.98c.27,0,.5,0,.6099997-.01h.0500002c.0100002,0,.0100002.03.0100002.11s0,.08-.0299997.08h-.3899999c-.4099998,0-.6100001,0-.6999998.02h-.0300002c-.0300002,0-.04-.03-.0500002-.21.1199999,0,.27.01.5299997.0099999ZM7.5100002.33c.1999998,0,.3200002,0,.4000001-.02h.02c.0133338,0,.0233331.01.0300002.03v.11c0,.05,0,.06-.02.06h-.7800007c-.02,0-.0300002,0-.0300002-.02s-.02-.11-.02-.18c.0900002.01.1900001.02.4000006.02Z"/>
            <path class="cls-2" d="M8.8999996.65c.2700005,0,.4300003,0,.5799999-.01h.0200005s.04,0,.04.12c0,.06,0,.07-.0299997.07h-1.1100006c-.0200005,0-.0299997,0-.0299997-.02,0-.04-.0100002-.11-.0100002-.18.1199999.01.2299995.02.54.02Z"/>
          </g>
        </g>
      </g>
      <text class="cls-1" transform="translate(.0002142 4.27155)"><tspan x="0" y="0">Brown Bunny</tspan></text>
    </g>
  </g>
</svg>