<?xml version="1.0" encoding="UTF-8"?>
<svg xmlns="http://www.w3.org/2000/svg" version="1.1" viewBox="0 0 16.9599991 4.6900001">
  <defs>
    <style>
      .cls-1, .cls-2 {
        fill: #5f5f5f;
      }

      .cls-2 {
        stroke: #5f5f5f;
        stroke-linecap: round;
        stroke-linejoin: round;
        stroke-width: .05px;
      }
    </style>
  </defs>
  <!-- Generator: Adobe Illustrator 28.6.0, SVG Export Plug-In . SVG Version: 1.2.0 Build 709)  -->
  <g>
    <g id="_レイヤー_2">
      <g id="lay">
        <g>
          <g>
            <path class="cls-2" d="M.13,4.4499998v-1.9099998c0-.0799999-.03-.1199999-.1-.2h.4c.39,0,.78.1099999.78.5699999s-.38.5699999-.78.5699999h-.11v.8700001c0,.1500001.1.2199998.17.3000002H.03c.08-.0799999.1-.1199999.1-.2000003ZM.42,3.4400001c.33,0,.6-.0999999.6-.52s-.27-.53-.6-.53h-.11v1.05h.11Z"/>
            <path class="cls-2" d="M2.5,3.49c.3099999.0699999.54.24.54.55,0,.3499999-.3.6300001-.78.6300001-.54,0-.97-.3400002-.97-.9000001s.42-.9000001.9200001-.9000001c.4000001,0,.6900001.23.8099999.6199999h-.53l.01.0000002ZM1.52,3.49c-.02.0899999-.04.1800001-.04.28,0,.5300002.35.8499999.8199999.8499999.3799999,0,.71-.2199998.71-.5799999,0-.3299999-.29-.5-.6400001-.55h-.86.0100001ZM2.8399999,3.45c-.0999999-.3399999-.3299999-.54-.6200001-.54-.3099999,0-.5899999.2-.6900001.54h1.3200002-.01Z"/>
            <path class="cls-2" d="M4.23,4.6399999v-.3800001c-.0700002.1799998-.1999998.4000001-.47.4000001-.3199999,0-.4300001-.2800002-.4300001-.5599999,0-.2.0599999-.6399999.47-.6399999.2500002,0,.3599999.1400001.4300001.27v-.25c0-.1800001,0-.5699999-.25-.5699999-.1900001,0-.3699999.23-.51.48h-.04l.0999999-.3900001c.0699999-.04.1900001-.1400001.4100001-.1400001.3099999,0,.46.2.46.54v1.03c0,.0799999.0300002.1199999.0999999.1999998h-.2800002l.0100002.0100002ZM4.23,3.8c-.0700002-.1400001-.1900001-.3-.3499999-.3-.27,0-.3699999.4300001-.3699999.6500001,0,.2199998.1199999.4900002.3099999.4900002s.3499999-.2800002.4099998-.46v-.3800004Z"/>
            <path class="cls-2" d="M5.6300001,2.8699999c.3499999,0,.5799999.1600001.6300001.2l.0300002.4200001h-.0300002c-.0700002-.28-.21-.5799999-.6199999-.5799999-.4299998,0-.75.3299999-.75.8599999s.3000002.8600001.77.8600001.5999999-.3000002.6799998-.5799999h.0300002l-.0300002.4200001s-.3000002.1999998-.6799998.1999998c-.5500002,0-.9400001-.3400002-.9400001-.9000001s.4099998-.9000001.9200001-.9000001h-.0100002Z"/>
            <path class="cls-2" d="M6.71,4.4499998v-1.79c0-.3299999.1599998-.4400001.3299999-.4400001.29,0,.3499999.3800001.1399999.73.0599999-.04.1199999-.0699999.1999998-.0699999.1799998,0,.3400002.1400001.3400002.48v1.0899999c0,.0799999.0300002.1199999.0999999.1999998h-.3800001c.0799999-.0799999.0999999-.1199999.0999999-.1999998v-.9300001c0-.28-.02-.6000001-.2199998-.6000001-.21,0-.3699999.3499999-.4499998.5899999v.9300001c0,.0799999.0300002.1199999.0999999.1999998h-.3800001c.0799999-.0799999.0999999-.1199999.0999999-.1999998l.0200005.0100002ZM7.0900002,3.02c.29-.4100001.1900001-.76-.0300002-.76-.1799998,0-.1799998.25-.1799998.52v.6600001c.04-.1400001.1100001-.3099999.21-.4200001Z"/>
            <path class="cls-2" d="M9.1700001,3.49c0-.73.54-1.1800001,1.2299995-1.1800001.4899998,0,.75.28.8199997.3299999l.04.51h-.04c-.1000004-.3099999-.3299999-.79-.8400002-.79s-1.0299997.4400001-1.0299997,1.1299999.5,1.1300001,1.0299997,1.1300001c.5500002,0,.8500004-.48.9499998-.79h.0299997l-.04.5100002c-.0600004.0500002-.3800001.3299999-.9200001.3299999-.6800003,0-1.2200003-.4499998-1.2200003-1.1799998l-.0099983-.0000002Z"/>
            <path class="cls-2" d="M12.6300001,3.0799999l.04.52h-.04c-.0699997-.3800001-.1800003-.6700001-.3199997-.6700001-.1599998,0-.29.4200001-.3599997.73v.79c0,.0799999.0299997.1199999.1000004.1999998h-.3800001c.0799999-.0799999.1000004-.1199999.1000004-.1999998v-1.25c0-.1099999-.0299997-.1400001-.0699997-.1400001-.0299997,0-.0699997.03-.1000004.05v-.03c.0799999-.0799999.1999998-.1900001.2700005-.1900001.0600004,0,.0699997.05.0699997.2v.4200001c.0699997-.3099999.1899996-.6300001.3800001-.6300001.1199999,0,.25.1300001.29.2l.0199986.0000002Z"/>
            <path class="cls-2" d="M13.9799995,3.0999999v1.3499999c0,.0799999.0299997.1199999.1000004.1999998h-.2799997v-.54c-.0799999.2399998-.2200003.5700002-.5.5700002-.1800003,0-.3400002-.1399999-.3400002-.48v-1.0900002c0-.0799999-.0299997-.1199999-.1000004-.2h.3800001c-.0799999.0799999-.1000004.1199999-.1000004.2v.9299998c0,.2800002.0200005.5999999.2200003.5999999.21,0,.3699999-.3499999.4499998-.5900002v-.9300001c0-.0799999-.0299997-.1199999-.1000004-.2h.3800001c-.0799999.0799999-.1000004.1199999-.1000004.2l-.0099993-.0199993Z"/>
            <path class="cls-2" d="M15.3400002,3.0799999l.04.4200001h-.04c-.0699997-.28-.1999998-.5799999-.4499998-.5799999-.1700001,0-.2799997.1500001-.2799997.3199999,0,.45.8599997.53.8599997,1.0399997,0,.27-.2299995.4000001-.5199995.4000001-.3400002,0-.4899998-.1599998-.54-.1999998l-.0699997-.46h.0299997c.1099997.2800002.3299999.6199999.6000004.6199999.1800003,0,.3199997-.1500001.3199997-.3299999,0-.4300001-.8500004-.51-.8500004-1.03,0-.25.1999998-.3900001.4499998-.3900001.29,0,.4099998.1600001.4499998.2v-.01Z"/>
            <path class="cls-2" d="M15.8199997,4.4499998v-1.79c0-.3299999.1599998-.4400001.3299999-.4400001.2900009,0,.3500004.3800001.1399994.73.0599995-.04.1200008-.0699999.2000008-.0699999.1800003,0,.3400002.1400001.3400002.48v1.0899999c0,.0799999.0300007.1199999.1000004.1999998h-.3799992c.0799999-.0799999.1000004-.1199999.1000004-.1999998v-.9300001c0-.28-.0200005-.6000001-.2199993-.6000001-.2099991,0-.3700008.3499999-.4499998.5899999v.9300001c0,.0799999.0299997.1199999.0999994.1999998h-.3800001c.0799999-.0799999.1000004-.1199999.1000004-.1999998l.0199976.0100002ZM16.2000008,3.02c.2900009-.4100001.1900005-.76-.0300007-.76-.1800003,0-.1800003.25-.1800003.52v.6600001c.0400009-.1400001.1100006-.3099999.210001-.4200001Z"/>
          </g>
          <g>
            <path class="cls-1" d="M.34.95s.09.05.24.05.21,0,.42-.03h.01c.01,0,.02,0,.03.02,0,.02.01.1.01.12s0,.03-.03.04c-.05.01-.26.02-.43.02s-.26-.01-.33-.04c-.05-.03-.09-.0700001-.1-.12,0-.04-.01-.07-.01-.13v-.34C.15.28.15.19.13.12c.18.02.22.02.22.05v.03c0,.01,0,.03-.01.06v.28c.26-.08.47-.18.56-.28.07.09.12.16.12.18,0,.01,0,.02-.04.03-.02,0-.06.02-.12.05-.18.09-.32.14-.52.19,0,.19,0,.22.01.24h-.01ZM1.26.16c0,.09-.0700001.16-.16.16s-.16-.07-.16-.16.0700001-.16.16-.16.16.07.16.16ZM1.02.16s.04.08.08.08.08-.04.08-.08-.04-.08-.08-.08-.08.04-.08.08Z"/>
            <path class="cls-1" d="M1.85.55c.2700001,0,.4299999,0,.58-.01h.02s.04,0,.04.12c0,.06,0,.07-.03.07h-1.1099999c-.02,0-.03,0-.03-.02,0-.04-.01-.11-.01-.18.12.01.23.02.5399998.02Z"/>
            <path class="cls-1" d="M3.3599999.53v-.23c-.1099999.02-.29.05-.3299999.05-.01,0-.03,0-.03-.03,0-.02-.03-.06-.05-.08,0,0-.01-.01-.04-.04.2,0,.3900001-.03.5799999-.09.0799999-.03.1400001-.05.21-.09.0699999.06.1199999.13.1199999.15,0,.01,0,.02-.03.02s-.05,0-.0799999.02c-.0799999.03-.0899999.03-.1700001.05v.28c.22,0,.3899999,0,.4400001-.01h.01c.0200002,0,.0200002.02.0200002.08q0,.1-.02.1h-.46c-.02.15-.0599999.28-.1300001.3799999-.04.0700001-.1199999.15-.1700001.1900001h-.02s-.0200002-.01-.0599999-.03c-.0599999-.03-.0699999-.03-.1199999-.05.1099999-.0599999.1800001-.13.24-.23.04-.08.0799999-.17.0899999-.26-.28,0-.3899999,0-.46.02h-.03c-.01,0-.02,0-.02-.02-.01-.03-.02-.1-.02-.17.0599999,0,.1600001.01.3499999.01h.1900001l-.0100002-.02Z"/>
            <path class="cls-1" d="M4.77.38c-.0999999.14-.2800002.3-.3200002.3-.0100002,0-.02,0-.0500002-.03-.02-.02-.0599999-.05-.1100001-.07.1100001-.06.2199998-.15.3000002-.25.0900002-.1.1399999-.19.1900001-.32.0700002.02.1100001.04.1599998.07.02.01.0300002.02.0300002.03s0,.02-.02.03c-.0100002.01-.0300002.03-.0700002.08h.2199998c.0799999,0,.0999999,0,.1399999-.02h.02c.02,0,.0500002.02.0900002.08.0300002.04.04.05.04.07s0,.02-.0300002.04c-.0100002.01-.0300002.04-.0500002.07-.1599998.29-.3200002.48-.5599999.66-.0999999.08-.2399998.16-.27.16-.0100002,0-.02,0-.04-.02-.0300002-.03-.0700002-.0599999-.1199999-.09.2199998-.1.3699999-.21.52-.36.1100001-.11.1799998-.21.25-.33.0100002-.03.02-.04.0500002-.09h-.3800001l.0100007-.0099999Z"/>
            <path class="cls-1" d="M5.7399998.59h-.0100002c-.0300002,0-.0500002-.05-.0599999-.21.0700002.01.1799998.02.46.02h.4099998c.02,0,.0300002,0,.0599999-.01h.0300002c.02,0,.04.01.0599999.04.04.05.0700002.09.0700002.11,0,.02,0,.03-.0300002.05-.0100002.01-.02.02-.0500002.09-.0999999.22-.21.36-.3899999.47-.0799999.05-.21.11-.2399998.11-.02,0-.0300002,0-.0599999-.04-.04-.05-.0599999-.0599999-.0999999-.08.1700001-.05.3299999-.14.4400001-.24.0799999-.08.1500001-.19.1900001-.32-.5700002,0-.6700001.01-.7800002.03v-.0200001ZM6.23.06c.1066666,0,.2166667-.0033333.3299999-.01h.02s.0300002.02.0300002.06v.05h0c0,.06,0,.07-.0300002.07h-.2200003c-.2199998,0-.3899999,0-.4699998.01h-.0100002s-.04-.02-.0500002-.19c.0999999.01.1900001.02.4099998.02l-.0099993-.01Z"/>
            <path class="cls-1" d="M7.21.74c-.02-.06-.0700002-.15-.0900002-.18-.0300002-.05-.04-.05-.04-.06s.02-.03.0599999-.05q.0500002-.03.0599999-.03c.0100002,0,.02,0,.04.04.0500002.06.1199999.2.1199999.22,0,.01-.0100002.02-.04.04-.04.02-.0799999.04-.0900002.04s-.0100002,0-.02-.03l.0000005.01ZM8.0299997.49v.02c-.0100002.02-.0200005.03-.04.08-.1100001.24-.1799998.35-.3000002.47-.0900002.09-.23.1900001-.2600002.1900001,0,0-.02,0-.0300002-.01-.0300002-.03-.0700002-.0599999-.1199999-.09.23-.12.3499999-.24.46-.44.0599999-.11.0999999-.23.0999999-.31.1199999.03.1899996.07.1900005.09ZM7.48.67c-.02-.06-.0599999-.15-.1100001-.23v-.02c0-.01.0100002-.02.0599999-.04q.0599999-.03.0700002-.03c.0100002,0,.02,0,.04.04.0500002.08.1100001.2.1100001.22,0,0,0,.02-.0300002.03-.0300002.02-.0900002.05-.0999999.05,0,0-.0100002,0-.02-.02h-.02Z"/>
            <path class="cls-1" d="M8.7200003.67s-.0299997.04-.04.04c-.0066671,0-.0333338-.0133333-.0799999-.04-.0500002-.03-.1199999-.07-.2299995-.1-.0200005,0-.0299997-.01-.0299997-.03,0,0,.0100002-.03.04-.07,0-.01.0100002-.02.0100002-.03.0200005-.03.0200005-.04.04-.04.0299997,0,.1400003.04.2200003.08.0500002.02.1000004.06.1099997.06v.02c0,.02-.0200005.06-.0600004.11h.0199995ZM9.4899998.5v.03c0,.02,0,.03-.04.06-.1199999.14-.25.25-.4099998.35-.1300001.09-.2799997.17-.4300003.23-.04.02-.0600004.03-.0699997.04-.0100002.01-.0200005.01-.0299997.01-.0299997,0-.0799999-.08-.1199999-.2.1499996-.03.3199997-.1.4899998-.2.1099997-.06.2399998-.16.3299999-.25.0799999-.08.1300001-.13.2200003-.25,0,.07.0200005.09.0500002.17l.0099993.0100001ZM8.8599997.38s-.0299997.03-.04.03c0,0-.0100002,0-.0200005-.01-.0900002-.08-.1800003-.14-.2799997-.18-.0100002,0-.0200005-.01-.0200005-.02v-.02q.0699997-.11.0900002-.11c.0299997,0,.1599998.06.2399998.12.0699997.05.0900002.06.0900002.08,0,.02-.04.08-.0699997.12l.0100002-.01Z"/>
            <path class="cls-1" d="M10.04.63h-.1300001c-.0100002,0-.0200005,0-.0299997-.02,0-.03-.0100002-.08-.0100002-.15.0500002.01.1400003.02.3100004.02.1400003,0,.1499996,0,.1800003-.01h.0200005c.0299997,0,.0500002.01.0900002.05.0299997.03.0500002.06.0500002.07,0,0,0,.01-.0100002.03-.0066671.0133333-.0200005.07-.04.17-.0200005.12-.0299997.17-.04.22q-.0066662.0333333,0,0h.2200003s.0299997.01.0299997.09c0,.0599999,0,.0700001-.0200005.0700001h-.4200001c-.2299995,0-.4099998,0-.4700003.01h-.0100002s-.0299997,0-.04-.02c0-.02-.0100002-.0599999-.0200005-.15.1099997,0,.1499996.01.5600004.01v-.03c.0200005-.09.04-.22.0500002-.35h-.2600002l-.0100002-.0100001Z"/>
          </g>
        </g>
      </g>
    </g>
  </g>
</svg>