<?xml version="1.0" encoding="UTF-8"?>
<svg id="_レイヤー_2" data-name="レイヤー 2" xmlns="http://www.w3.org/2000/svg" viewBox="0 0 17.22 1.75">
  <defs>
    <style>
      .cls-1 {
        fill: #c87290;
        stroke-width: 0px;
      }
    </style>
  </defs>
  <g id="Footer">
    <g>
      <path class="cls-1" d="m0,.2h.34v1.5h-.11V.31h-.22v-.11Z"/>
      <path class="cls-1" d="m.86,1.7V.07h.4c.16,0,.29.03.4.08.11.05.2.12.27.2.07.08.12.17.15.27s.05.19.05.29c0,.12-.02.24-.06.33-.04.1-.1.18-.18.25-.07.07-.16.12-.25.16-.1.04-.2.06-.3.06h-.48Zm.11-.11h.34c.1,0,.19-.02.28-.05s.16-.08.23-.14c.06-.06.12-.13.15-.22s.06-.18.06-.29c0-.09-.02-.18-.05-.27-.03-.08-.08-.16-.14-.23-.06-.07-.14-.12-.23-.16s-.2-.06-.32-.06h-.31v1.42Z"/>
      <path class="cls-1" d="m2.41,1.7l.69-1.7h0l.69,1.7h-.13L3.07.18l.08-.04-.63,1.57h-.11Zm.33-.65h.72l.03.11h-.78l.03-.11Z"/>
      <path class="cls-1" d="m4.62,1.12L4.01.07h.14l.55.96h-.04s.55-.96.55-.96h.14l-.61,1.05v.58h-.11v-.58Z"/>
      <path class="cls-1" d="m6.92,0c-.11.29-.21.58-.32.87-.11.29-.21.58-.32.87h-.1c.11-.29.22-.58.32-.87.11-.29.21-.58.32-.87h.1Z"/>
      <path class="cls-1" d="m7.77.2h.34v1.5h-.11V.31h-.22v-.11Z"/>
      <path class="cls-1" d="m8.72,1.7V.03h0l.81,1.14h-.05S10.28.03,10.28.03h0v1.67h-.11V.29v.05s-.67.96-.67.96h0l-.69-.96.02-.05v1.41h-.11Z"/>
      <path class="cls-1" d="m10.7.89c0-.12.02-.22.06-.32.04-.1.1-.19.18-.27.08-.08.17-.14.27-.18.1-.04.21-.07.32-.07s.22.02.32.07c.1.04.19.1.27.18.08.08.14.17.18.27.04.1.07.21.07.32s-.02.22-.07.32c-.04.1-.1.19-.18.27-.08.08-.17.14-.27.18-.1.04-.21.06-.32.06s-.22-.02-.32-.06c-.1-.04-.19-.1-.27-.17-.08-.08-.14-.16-.18-.26-.04-.1-.06-.21-.06-.33Zm.12,0c0,.1.02.19.06.28.04.09.09.16.15.23.07.07.14.12.23.16.09.04.18.06.28.06s.2-.02.28-.06c.09-.04.16-.09.23-.16.07-.07.12-.14.16-.23.04-.09.06-.18.06-.28s-.02-.19-.06-.28-.09-.17-.16-.23-.14-.12-.23-.16-.18-.06-.28-.06-.2.02-.28.06-.16.09-.23.16c-.06.07-.12.14-.15.23-.04.09-.05.18-.05.28Z"/>
      <path class="cls-1" d="m14.15,1.74l-1.29-1.45.03-.02v1.43s-.11,0-.11,0V.04h0l1.29,1.46h-.03s0-1.43,0-1.43h.11v1.67h0Z"/>
      <path class="cls-1" d="m14.55.07h1.07v.11h-.48v1.52h-.11V.18h-.48v-.11Z"/>
      <path class="cls-1" d="m17.22.07v1.63h-.11v-.77h-.98v.77h-.11V.07h.11v.76h.98V.07h.11Z"/>
    </g>
  </g>
</svg>