<?xml version="1.0" encoding="UTF-8"?>
<svg id="_レイヤー_2" data-name="レイヤー 2" xmlns="http://www.w3.org/2000/svg" viewBox="0 0 9.44 1.71">
  <defs>
    <style>
      .cls-1 {
        fill: #c87290;
        stroke-width: 0px;
      }
    </style>
  </defs>
  <g id="Footer">
    <g>
      <path class="cls-1" d="m0,.17h.34v1.5h-.11V.28h-.22v-.11Z"/>
      <path class="cls-1" d="m.95,1.67V0h0l.81,1.14h-.05s.8-1.14.8-1.14h0v1.67h-.11V.26v.06s-.67.96-.67.96h0l-.69-.96.02-.05v1.41h-.11Z"/>
      <path class="cls-1" d="m2.93.86c0-.12.02-.22.06-.32.04-.1.1-.19.18-.27.08-.08.17-.14.27-.18s.21-.07.32-.07.22.02.32.07c.1.04.19.1.27.18s.14.17.18.27c.04.1.07.21.07.32s-.02.22-.07.32-.1.19-.18.27c-.08.08-.17.14-.27.18-.1.04-.21.06-.32.06s-.22-.02-.32-.06c-.1-.04-.19-.1-.27-.17-.08-.08-.14-.16-.18-.26-.04-.1-.06-.21-.06-.33Zm.12,0c0,.1.02.19.05.28.04.09.09.16.15.23s.14.12.23.16c.09.04.18.06.28.06s.2-.02.28-.06c.09-.04.16-.09.23-.16s.12-.14.16-.23c.04-.09.06-.18.06-.28s-.02-.19-.06-.28c-.04-.09-.09-.17-.16-.23-.07-.07-.14-.12-.23-.16-.09-.04-.18-.06-.28-.06s-.2.02-.28.06c-.09.04-.16.09-.23.16-.07.07-.12.15-.15.23-.04.09-.05.18-.05.28Z"/>
      <path class="cls-1" d="m6.38,1.71l-1.29-1.45.03-.02v1.44s-.11,0-.11,0V0h0l1.29,1.46h-.03s0-1.43,0-1.43h.11v1.67h0Z"/>
      <path class="cls-1" d="m6.77.04h1.07v.11h-.48v1.52h-.11V.15h-.48V.04Z"/>
      <path class="cls-1" d="m9.44.04v1.63h-.11v-.77h-.98v.77h-.11V.04h.11v.76h.98V.04h.11Z"/>
    </g>
  </g>
</svg>