<?xml version="1.0" encoding="UTF-8"?>
<svg id="_レイヤー_2" data-name="レイヤー 2" xmlns="http://www.w3.org/2000/svg" viewBox="0 0 5.34 1.7">
  <defs>
    <style>
      .cls-1 {
        fill: #c87290;
        stroke-width: 0px;
      }
    </style>
  </defs>
  <g id="Footer">
    <g>
      <path class="cls-1" d="m0,.2h.34v1.5h-.11V.31h-.22v-.11Z"/>
      <path class="cls-1" d="m.86,1.7V.07h.4c.16,0,.29.03.4.08.11.05.2.12.27.2.07.08.12.17.15.27s.05.19.05.29c0,.12-.02.24-.06.33-.04.1-.1.18-.18.25-.07.07-.16.12-.25.16-.1.04-.2.06-.3.06h-.48Zm.11-.11h.34c.1,0,.19-.02.28-.05s.16-.08.23-.14c.06-.06.12-.13.15-.22s.06-.18.06-.29c0-.09-.02-.18-.05-.27-.03-.08-.08-.16-.14-.23-.06-.07-.14-.12-.23-.16s-.2-.06-.32-.06h-.31v1.42Z"/>
      <path class="cls-1" d="m2.41,1.7l.69-1.7h0l.69,1.7h-.13L3.07.18l.08-.04-.63,1.57h-.11Zm.33-.65h.72l.03.11h-.78l.03-.11Z"/>
      <path class="cls-1" d="m4.62,1.12L4.01.07h.14l.55.96h-.04s.55-.96.55-.96h.14l-.61,1.05v.58h-.11v-.58Z"/>
    </g>
  </g>
</svg>