<svg xmlns="http://www.w3.org/2000/svg" width="238.6" height="22.925" viewBox="0 0 238.6 22.925">
  <path id="パス_144" data-name="パス 144" d="M-108.375-19.35l-1.5-.525a7.669,7.669,0,0,1-.575,1.625,20.2,20.2,0,0,1-7.9,8.675l1.1.825a22.515,22.515,0,0,0,6.35-6.225h9.3a22.082,22.082,0,0,1-4.25,8.4,19.962,19.962,0,0,1-9.925,6.3L-114.65.8a21.4,21.4,0,0,0,9.875-6.65,24,24,0,0,0,4.475-8.775,7.359,7.359,0,0,1,.425-1.075L-101-16.35a3.357,3.357,0,0,1-1.3.2h-7.825a17.918,17.918,0,0,0,.9-1.6C-109-18.175-108.675-18.85-108.375-19.35ZM-75-18.7h-1.5c.05.55.1,1.225.1,1.95v3.5c0,5.2-.275,7.325-2.1,9.5A11.665,11.665,0,0,1-84.45-.3L-83.4.8a12.457,12.457,0,0,0,5.875-3.675c1.775-2.2,2.45-3.975,2.45-10.35V-16.75C-75.075-17.475-75.05-18.15-75-18.7Zm-11.625.175H-88.1c.05.425.1,1.3.1,1.725v8.275a14.486,14.486,0,0,1-.1,1.775h1.475A16.681,16.681,0,0,1-86.7-8.5v-8.3C-86.7-17.275-86.675-18.1-86.625-18.525Zm42.825,1.65-.825-.8a9.189,9.189,0,0,1-1.25.125H-60.75a24.085,24.085,0,0,1-2.725-.2v1.525c.875-.05,1.85-.1,2.725-.1H-45.8A17.952,17.952,0,0,1-51.775-10.2l1.1.9a23.914,23.914,0,0,0,6.35-6.925A4.583,4.583,0,0,1-43.8-16.875Zm-9.9,3.25h-1.425c.05.55.075,1.05.075,1.55,0,4.2-.525,8.3-4.8,10.775a9.894,9.894,0,0,1-2.025.95l1.2,1C-54.55-2.25-53.7-6.525-53.7-13.625ZM-33.55-.675l.9.75a8.3,8.3,0,0,1,.8-.3C-25.425-1.975-20.3-5.1-17.15-9.1l-.75-1.1c-3.05,4.075-8.975,7.425-14.175,8.675v-14.9a14.35,14.35,0,0,1,.15-1.925h-1.6a15.1,15.1,0,0,1,.15,1.95V-1.675A2.243,2.243,0,0,1-33.55-.675ZM-6.775-17.9l-.875.925a51.714,51.714,0,0,1,6.2,5.15l.975-1A57.5,57.5,0,0,0-6.775-17.9ZM-8.35-1.1-7.5.225A27.9,27.9,0,0,0,2.65-3.9a24.326,24.326,0,0,0,7.9-8.65L9.775-13.9A22.9,22.9,0,0,1,1.9-5,25.279,25.279,0,0,1-8.35-1.1Zm41.6-18.975-.95.425a25.572,25.572,0,0,1,2.05,3.45l.975-.45A30.359,30.359,0,0,0,33.25-20.075Zm2.65-.875-.925.425a21.247,21.247,0,0,1,2.1,3.425l.975-.45A28.728,28.728,0,0,0,35.9-20.95Zm-2.4,4.7-.825-.65a5.217,5.217,0,0,1-1.45.15H21.1c-.775,0-2.125-.125-2.275-.15v1.5c.1-.025,1.475-.1,2.275-.1H31.575a23.333,23.333,0,0,1-4.4,7.45A28.64,28.64,0,0,1,16.85-.475L17.85.6a32.477,32.477,0,0,0,10-7.475A62.854,62.854,0,0,1,35.075.775l1.075-.95a72.716,72.716,0,0,0-7.475-7.65,31.126,31.126,0,0,0,4.375-7.6A3.7,3.7,0,0,1,33.5-16.25ZM57.725-11.4H52.25v1.1h12.4v-1.1H58.925v-4.575h6.5v-1.1h-6.5v-3.75h-1.2v3.75h-6.35v1.1h6.35ZM49.95-20.825H48.825V-9.3H49.95Zm-2.325,4.1a13.516,13.516,0,0,0-3.05-2.575l-.775.7a14.119,14.119,0,0,1,3.025,2.675Zm.425,2.5c-1.975.95-3.9,1.85-5.225,2.4l.45,1.075c1.5-.725,3.275-1.575,5-2.375ZM62.825-5.65a31.905,31.905,0,0,1-4.7,2.75,13.291,13.291,0,0,1-2.85-3.525h10.05V-7.45H54.8V-9.625H53.625V-7.45H43.2v1.025h9.275a26.621,26.621,0,0,1-9.6,4.075,5.452,5.452,0,0,1,.75.95A30.406,30.406,0,0,0,48.8-3.2V.15c-1.15.15-2.2.275-3.075.375l.25,1.1c2.7-.35,6.575-.9,10.275-1.425L56.225-.85c-2.15.275-4.325.575-6.275.85V-3.75a18.861,18.861,0,0,0,4.075-2.675H54.1a16.377,16.377,0,0,0,10.8,8.35,4.885,4.885,0,0,1,.775-1,17.23,17.23,0,0,1-6.825-3.2,32.389,32.389,0,0,0,4.925-2.7ZM82.15-7.175V-12h7.575v4.825Zm-8.025,0c.075-.95.1-1.9.1-2.775V-12H80.95v4.825ZM80.95-17.85v4.7H74.225v-4.7Zm8.775,4.7H82.15v-4.7h7.575Zm1.2-5.85h-17.9v9.05c0,3.525-.275,7.95-3.05,11.075a3.324,3.324,0,0,1,.925.85,14.711,14.711,0,0,0,3.125-8H80.95v7.65h1.2v-7.65h7.575v5.9c0,.5-.175.65-.65.65-.5.025-2.225.05-4.175,0A3.712,3.712,0,0,1,85.325,1.7,20,20,0,0,0,89.9,1.5c.725-.225,1.025-.625,1.025-1.625Zm13,1v6.225h-4.4V-18Zm-4.4,13.725V-10.65h4.4v6.375Zm5.55-14.85H98.35V-1.2h1.175V-3.15h5.55ZM107.5-5.55a18.515,18.515,0,0,1,3.325,4.5l1.025-.675a18.178,18.178,0,0,0-3.4-4.4Zm12.75-6.125V-12.8h-6.9v-3.75H119v-1.1h-5.65v-3.2h-1.175v3.2h-5.5v1.1h5.5v3.75H105.5v1.125h10.025v3.25h-9.85v1.1h9.85v7.5c0,.35-.1.475-.55.5-.4,0-1.825,0-3.55-.05a4.365,4.365,0,0,1,.425,1.15,20.386,20.386,0,0,0,3.975-.175c.65-.2.875-.6.875-1.425v-7.5h3.225v-1.1H116.7v-3.25Z" transform="translate(118.35 20.95)" fill="#504f4f"/>
</svg>