<?xml version="1.0" encoding="UTF-8"?>
<svg id="_イヤー_2" xmlns="http://www.w3.org/2000/svg" version="1.1" viewBox="0 0 242.07 23.43">
  <!-- Generator: Adobe Illustrator 29.0.0, SVG Export Plug-In . SVG Version: 2.1.0 Build 186)  -->
  <defs>
    <style>
      .st0 {
        fill: #fff;
      }
    </style>
  </defs>
  <g id="mv">
    <g>
      <path class="st0" d="M84.8,3.285h5.27v19.77h-3.19V6.375h-2.08v-3.09Z"/>
      <path class="st0" d="M97.74,23.055V1.305h5.99c2.14,0,3.97.33,5.48.97,1.51.65,2.72,1.52,3.65,2.61.92,1.09,1.59,2.29,2.01,3.61s.62,2.64.62,3.96c0,1.62-.28,3.08-.85,4.38s-1.34,2.42-2.34,3.35c-.99.93-2.13,1.64-3.42,2.13s-2.65.73-4.08.73h-7.06v.01ZM100.9,19.965h3.28c1.17,0,2.25-.17,3.23-.51s1.84-.84,2.56-1.5,1.28-1.47,1.67-2.43c.39-.96.58-2.05.58-3.27,0-1.36-.21-2.54-.64-3.53s-1.01-1.81-1.76-2.46c-.74-.65-1.57-1.13-2.47-1.44s-1.82-.47-2.75-.47h-3.69v15.6l-.01.01Z"/>
      <path class="st0" d="M118.38,23.055L127.91.375h.21l9.47,22.68h-3.63l-6.91-17.64,2.26-1.53-7.77,19.17s-3.16,0-3.16,0ZM124.19,14.895h7.71l1.04,2.73h-9.71l.95-2.73h.01Z"/>
      <path class="st0" d="M146.02,15.885l-7.98-14.58h3.9l6.22,11.85-.95.06,6.16-11.91h3.9l-8.1,14.58v7.17h-3.16v-7.17h.01Z"/>
    </g>
  </g>
</svg>