<?xml version="1.0" encoding="UTF-8"?>
<svg xmlns="http://www.w3.org/2000/svg" version="1.1" viewBox="0 0 18.5 5.3200002">
  <defs>
    <style>
      .cls-1, .cls-2 {
        fill: #5f5f5f;
      }

      .cls-2 {
        stroke: #5f5f5f;
        stroke-linecap: round;
        stroke-linejoin: round;
        stroke-width: .05px;
      }
    </style>
  </defs>
  <!-- Generator: Adobe Illustrator 28.6.0, SVG Export Plug-In . SVG Version: 1.2.0 Build 709)  -->
  <g>
    <g id="_レイヤー_2">
      <g id="lay">
        <g>
          <g>
            <path class="cls-2" d="M.45,4.6799998c.08-.0799999.17-.1199999.17-.3000002v-1.96h-.01C.22,2.4199996.11,2.7599995.06,3.2099996h-.03l.07-.8399999h1.25l.0700001.8399999h-.04c-.0599999-.45-.17-.79-.55-.79h-.01v1.96c0,.1799998.1.2199998.17.3000002H.45Z"/>
            <path class="cls-2" d="M2.46,4.6799998v-.3800001c-.0699999.1799998-.2.4000001-.47.4000001-.3199999,0-.4300001-.2800002-.4300001-.5599999,0-.2.0599999-.6399999.47-.6399999.25,0,.3599999.1400001.4300001.27v-.25c0-.1800001,0-.5699999-.25-.5699999-.1900001,0-.37.23-.51.48h-.04l.1-.3900001c.0700001-.04.1899999-.1400001.41-.1400001.3099999,0,.46.2.46.54v1.03c0,.0799999.03.1199999.0999999.1999998h-.28l.01.0100002ZM2.46,3.8399999c-.0699999-.1400001-.1900001-.3-.3499999-.3-.27,0-.37.4300001-.37.6500001,0,.2199998.12.4900002.3100001.4900002s.3499999-.2800002.4100001-.46v-.3699999l-.0000002-.0100005Z"/>
            <path class="cls-2" d="M3.1099999,4.48v-1.25c0-.1099999-.03-.1400001-.0699999-.1400001-.03,0-.0699999.03-.0999999.05v-.03c.0799999-.0799999.2-.1900001.27-.1900001.05,0,.0699999.05.0699999.2v.3600001c.0799999-.24.22-.5699999.5-.5699999.1800001,0,.3399999.1400001.3399999.48v1.0899999c0,.0799999.0300002.1199999.0999999.1999998h-.3800001c.0799999-.0799999.0999999-.1199999.0999999-.1999998v-.9300001c0-.28-.02-.6000001-.22-.6000001-.21,0-.3700001.3499999-.45.5899999v.9300001c0,.0799999.03.1199999.0999999.1999998h-.3800001c.0799999-.0799999.0999999-.1199999.0999999-.1999998l.0200007.0100002Z"/>
            <path class="cls-2" d="M4.75,4.1199999c-.0599999.0300002-.0999999.0999999-.0999999.1599998,0,.3099999,1.0700002.04,1.0700002.5900002,0,.3299999-.3600001.4299998-.6500001.4299998-.25,0-.6799998-.0700002-.6799998-.4099998,0-.1700001.1100001-.2800002.27-.3499999-.0700002-.0500002-.0999999-.1199999-.0999999-.1999998,0-.1199999.0700002-.1799998.1700001-.23-.21-.1199999-.2800002-.3499999-.2800002-.5599999,0-.3499999.1799998-.6300001.5799999-.6300001.1599998,0,.3099999.05.4200001.1700001l.2399998-.24h.0300002v.1500001l-.2600002.1199999c.0999999.1199999.1300001.29.1300001.4400001,0,.3499999-.1799998.6299999-.5700002.6299999-.0900002,0-.1900001-.0100002-.27-.0599999v-.0100002ZM4.5599999,4.8699999c0,.2800002.27.3899999.5.3899999.1900001,0,.5799999-.0900002.5799999-.3099999,0-.2800002-.7199998-.27-.9400001-.3800001-.0799999.0799999-.1399999.1799998-.1399999.3000002ZM5.4200001,3.54c0-.24-.0799999-.5999999-.3899999-.5999999s-.4000001.3600001-.4000001.5999999.0799999.5900002.4000001.5900002.3899999-.3600001.3899999-.5900002Z"/>
            <path class="cls-2" d="M7.0599999,3.53c.3099999.0699999.54.24.54.55,0,.3499999-.3000002.6300001-.7800002.6300001-.54,0-.9700003-.3400002-.9700003-.9000001s.4200001-.9000001.9200001-.9000001c.4000001,0,.6900001.23.8099999.6199999h-.5300002l.0100007.0000002ZM6.0799999,3.53c-.02.0899999-.04.1800001-.04.28,0,.5300002.3499999.8499999.8200002.8499999.3800001,0,.71-.2199998.71-.5799999,0-.3299999-.29-.5-.6399999-.55h-.8600001.0099998ZM7.4000001,3.49c-.0999999-.3399999-.3299999-.54-.6199999-.54-.3099999,0-.5900002.2-.6900001.54h1.3200002-.0100002Z"/>
            <path class="cls-2" d="M8.8000002,3.1099999l.04.52h-.04c-.0699997-.3799999-.1800003-.6700001-.3199997-.6700001-.1599998,0-.29.4200001-.3599997.73v.7900002c0,.0799999.0299997.1199999.1000004.1999998h-.3800001c.0799999-.0799999.0999999-.1199999.0999999-.1999998v-1.25c0-.1099999-.0300002-.1400001-.0700002-.1400001-.0300002,0-.0700002.03-.0999999.05v-.03c.0799999-.0799999.1999998-.1900001.27-.1900001.0500002,0,.0699997.05.0699997.2v.4200001c.0699997-.3099999.1899996-.6300001.3800001-.6300001.1199999,0,.25.1300001.29.2h.0199995Z"/>
            <path class="cls-2" d="M9.2399998,4.48v-1.25c0-.1099999-.0299997-.1400001-.0699997-.1400001-.0299997,0-.0699997.03-.1000004.05v-.03c.0799999-.0799999.1999998-.1900001.2700005-.1900001.0600004,0,.0699997.05.0699997.2v1.3699999c0,.0799999.0299997.1199999.1000004.1999998h-.3800001c.0799999-.0799999.1000004-.1199999.1000004-.1999998l.0099993-.0099998ZM9.29,2.3499999c.0900002,0,.1499996.05.1499996.1400001s-.0600004.1400001-.1499996.1400001-.1499996-.05-.1499996-.1400001.0600004-.1400001.1499996-.1400001Z"/>
            <path class="cls-2" d="M9.9099998,4.48v-1.25c0-.1099999-.0299997-.1400001-.0699997-.1400001-.0299997,0-.0699997.03-.1000004.05v-.03c.0799999-.0799999.1999998-.1900001.2700005-.1900001.0500002,0,.0699997.05.0699997.2v.3600001c.0799999-.24.2200003-.5699999.5-.5699999.1800003,0,.3400002.1400001.3400002.48v1.0899999c0,.0799999.0299997.1199999.1000004.1999998h-.3800001c.0799999-.0799999.1000004-.1199999.1000004-.1999998v-.9300001c0-.28-.0200005-.6000001-.2200003-.6000001-.21,0-.3699999.3499999-.4499998.5899999v.9300001c0,.0799999.0299997.1199999.1000004.1999998h-.3800001c.0799999-.0799999.1000004-.1199999.1000004-.1999998l.0199986.0100002Z"/>
            <path class="cls-2" d="M12.4499998,3.53c.3100004.0699999.54.24.54.55,0,.3499999-.3000002.6300001-.7799997.6300001-.54,0-.9700003-.3400002-.9700003-.9000001s.4200001-.9000001.9200001-.9000001c.3999996,0,.6899996.23.8100004.6199999h-.5299997l.0099993.0000002ZM11.46,3.53c-.0200005.0899999-.04.1800001-.04.28,0,.5300002.3500004.8499999.8199997.8499999.3800001,0,.71-.2199998.71-.5799999,0-.3299999-.29-.5-.6400003-.55h-.8599997.0100002ZM12.79,3.49c-.1000004-.3399999-.3299999-.54-.6199999-.54-.3100004,0-.5900002.2-.6899996.54h1.3199997-.0100002Z"/>
            <path class="cls-2" d="M14.1999998,4.6799998c.0799999-.0799999.1700001-.1199999.1700001-.3000002v-1.96h-.0100002c-.3900003,0-.5.3399999-.5500002.79h-.04l.0699997-.8399999h1.25l.0699997.8399999h-.04c-.0600004-.45-.1700001-.79-.5500002-.79h-.0100002v1.96c0,.1799998.1000004.2199998.1700001.3000002,0,0-.5299997,0-.5299988,0Z"/>
            <path class="cls-2" d="M16.4699993,3.53c.3099995.0699999.5400009.24.5400009.55,0,.3499999-.2999992.6300001-.7800007.6300001-.54,0-.9700003-.3400002-.9700003-.9000001s.4200001-.9000001.9199991-.9000001c.3999996,0,.6900005.23.8099995.6199999h-.5300007l.0100021.0000002ZM15.4799995,3.53c-.0200005.0899999-.04.1800001-.04.28,0,.5300002.3500004.8499999.8200006.8499999.3799992,0,.7099991-.2199998.7099991-.5799999,0-.3299999-.2900009-.5-.6399994-.55h-.8599997.0099993ZM16.8099995,3.49c-.1000004-.3399999-.3299999-.54-.6200008-.54-.3100004,0-.5900002.2-.6899996.54h1.3200006-.0100002Z"/>
            <path class="cls-2" d="M18.2000008,4.6799998v-.3800001c-.0699997.1799998-.2000008.4000001-.4699993.4000001-.3199997,0-.4300003-.2800002-.4300003-.5599999,0-.2.0599995-.6399999.4699993-.6399999.25,0,.3600006.1400001.4300003.27v-.25c0-.1800001,0-.5699999-.25-.5699999-.1900005,0-.3700008.23-.5100002.48h-.0400009l.1000004-.3900001c.0699997-.04.1900005-.1400001.4099998-.1400001.3099995,0,.4599991.2.4599991.54v1.03c0,.0799999.0300007.1199999.1000004.1999998h-.2800007l.0100021.0100002ZM18.2000008,3.8399999c-.0699997-.1400001-.1900005-.3-.3500004-.3-.2700005,0-.3700008.4300001-.3700008.6500001,0,.2199998.1200008.4900002.3099995.4900002s.3500004-.2800002.4099998-.46v-.3699999l.0000019-.0100005Z"/>
          </g>
          <g>
            <path class="cls-1" d="M.31.65s-.07.05-.08.05-.01,0-.04-.03-.07-.05-.11-.08c.16-.1.26-.18.35-.31.06-.09.11-.18.13-.26.16.06.2.08.2.1,0,0,0,.01-.02.02-.01.01-.03.04-.07.1h.13c.15,0,.18,0,.23-.02h.03c.02,0,.04.02.09.07.04.04.05.06.05.08,0,.01,0,.02-.02.04-.01.01-.03.04-.05.08-.14.26-.25.4-.42.55-.13.12-.35.26-.39.26-.01,0-.03,0-.04-.02-.04-.04-.08-.0700001-.13-.09.21-.1.37-.21.51-.36.0933333-.1.08-.1166667-.04-.05-.18.1-.07-.06-.14-.12,0,0-.01-.01-.01-.02,0,0,.02-.03.07-.08q.03-.03.04-.03c.02,0,.11.07.2.16.09-.12.16-.23.19-.32-.1133333,0-.2433333,0-.39,0-.07.09-.16.18-.26.26l-.0100001.0199999Z"/>
            <path class="cls-1" d="M2.5799999.46l.01.03c0,.02,0,.03-.03.05-.0799999.11-.1700001.19-.3.3-.1500001.12-.28.1899999-.46.28-.12.05-.12.0599999-.14.0700001-.01.01-.02.02-.03.02s-.03-.01-.05-.04c-.03-.05-.0599999-.11-.0700001-.16.15-.03.33-.12.51-.23.23-.15.3800001-.29.49-.49.02.06.03.09.0699999.16v.0099999ZM1.58.21s.04-.04.05-.04c.03,0,.14.07.23.15.0599999.05.08.07.08.08s-.03.05-.0599999.09-.05.05-.0599999.05c-.0066667,0-.0300001-.02-.0700001-.06-.0600001-.06-.12-.1-.16-.12-.0333333-.02-.0533333-.0333333-.0599999-.04-.01-.01,0,0,0-.01s.03-.06.0700001-.1h-.0200002Z"/>
            <path class="cls-1" d="M3.23.71s-.03.04-.04.04c-.0066667,0-.0333333-.0133333-.0799999-.04-.05-.03-.1199999-.07-.23-.1-.02,0-.03-.01-.03-.03,0,0,.01-.03.04-.07,0-.01.01-.02.01-.03.02-.03.02-.04.04-.04.03,0,.1400001.04.22.08.05.02.0999999.06.1099999.06v.02c0,.02-.02.06-.0599999.11h.02ZM4.0100002.54v.03c0,.02,0,.03-.04.06-.1199999.14-.25.25-.4100001.35-.1299999.09-.28.17-.4300001.23-.04.02-.0599999.03-.0699999.04s-.02.01-.03.01c-.03,0-.0799999-.08-.1199999-.2.1500001-.03.3199999-.1.49-.2.1099999-.06.24-.16.3299999-.25.0799999-.08.1299999-.13.22-.25,0,.07.02.09.0500002.17l.0099998.0100001ZM3.3800001.42s-.03.03-.04.03c0,0-.01,0-.02-.01-.0899999-.08-.1800001-.14-.28-.18-.01,0-.02-.01-.02-.02v-.02q.0699999-.11.0899999-.11c.03,0,.1600001.06.24.12.0699999.05.0899999.06.0899999.08s-.04.08-.0699999.12l.01-.01ZM3.8800001.32c-.03-.06-.0599999-.1-.1099999-.15v-.01s0-.02.03-.04c.02-.02.03-.02.04-.02s.03.01.0599999.05c.05.05.0799999.1.0799999.11,0,.02-.0699999.07-.0899999.07l-.01-.01ZM4.0900002.21s-.0300002.02-.04.02l-.02-.01c-.04-.07-.0699999-.1-.1099999-.15v-.01C3.9200003.05,3.9800003,0,4.0000005,0,4.0100007,0,4.0300007.02,4.0600004.05c.04.05.0799999.1.0799999.11s-.0100002.02-.04.04l-.0100002.01Z"/>
            <path class="cls-1" d="M4.6399999.67h-.25c-.02,0-.0300002,0-.0300002-.02,0-.03,0-.06-.0100002-.15.0700002,0,.1500001.01.3099999.01.2599998,0,.3200002,0,.4099998-.01h.0100002c.0100002,0,.02,0,.02.02v.09c0,.05,0,.06-.0300002.06h-.27v.3899999c.2600002,0,.3200002,0,.3800001-.01h0s.02.01.02.1c0,.0599999,0,.0700001-.02.0700001h-.4099998c-.2600002,0-.4299998,0-.5.02h0s-.02,0-.02-.02c-.0100002-.03-.02-.09-.02-.15h.4000001v-.39l.0100002-.0100001Z"/>
            <path class="cls-1" d="M5.77.54v.1900001c0,.03-.02.04-.1399999.04-.04,0-.0500002,0-.0500002-.03v-.32c0-.17,0-.24-.02-.32.0799999,0,.1500001,0,.1799998.01.02,0,.0300002.02.0300002.03v.02c-.0100002.03-.0100002.06-.0100002.13v.25h.0100002ZM6.3499999.35c0,.21-.0100002.35-.04.46-.0500002.19-.1700001.34-.3499999.44-.04.02-.0700002.03-.0799999.03-.0100002,0-.02,0-.0300002-.02-.04-.04-.0599999-.0700001-.1100001-.1.0999999-.04.1799998-.09.2399998-.15.0799999-.08.1300001-.17.1500001-.27.02-.09.0300002-.25.0300002-.42,0-.12,0-.18-.0100002-.24.0900002,0,.1399999,0,.1900001.02.02,0,.0300002.01.0300002.03v.03c-.0100002.03-.0100002.06-.0100002.13v.06h-.0099998Z"/>
            <path class="cls-1" d="M7.8099999.46l.0100002.03c0,.02,0,.03-.0300002.05-.0799999.11-.1700001.19-.3000002.3-.1500001.12-.2800002.1899999-.46.28-.1199999.05-.1199999.0599999-.1399999.0700001-.0100002.01-.02.02-.0300002.02s-.0300002-.01-.0500002-.04c-.0300002-.05-.0599999-.11-.0700002-.16.1500001-.03.3299999-.12.5099998-.23.23-.15.3800001-.29.4899998-.49.02.06.0300002.09.0700002.16l.000001.0099999ZM6.8200002.21s.04-.04.0500002-.04c.0300002,0,.1399999.07.23.15.0599999.05.0799999.07.0799999.08s-.0300002.05-.0599999.09c-.0300002.04-.0500002.05-.0599999.05-.0066667,0-.0299997-.02-.0700002-.06-.0600004-.06-.1199999-.1-.1599998-.12-.0333333-.02-.0533333-.0333333-.0599999-.04-.0099998-.01,0,0,0-.01s.0300002-.06.0700002-.1h-.0200005Z"/>
            <path class="cls-1" d="M8.1700001.64h-.0500002s-.0299997,0-.0299997-.03c0-.04-.0100002-.09-.0100002-.15.0699997,0,.0799999,0,.2299995.01h.96s.0200005,0,.0200005.1q0,.07-.0200005.07h-.46c0,.11-.0100002.16-.0299997.23-.0500002.17-.1300001.29-.29.38-.04.03-.0699997.04-.0900002.04,0,0-.0100002,0-.0299997-.02-.0500002-.05-.0699997-.0700001-.1300001-.1.2600002-.12.3599997-.27.3699999-.54h-.4399996v.0100001ZM8.6899996.13c.1400003,0,.3000002,0,.3599997-.01h0s.0299997.01.0299997.06v.07q0,.04-.0299997.04h-.7700005q-.0200005,0-.0299997-.02c0-.03-.0100002-.1-.0100002-.16.0600004,0,.2600002.01.4399996.01l.0100012.01Z"/>
            <path class="cls-1" d="M9.8800001.81c-.1199999.08-.2700005.16-.3000002.16-.0199995,0-.0333338-.01-.04-.03-.0100002-.03-.0600004-.06-.0900002-.08.1999998-.06.3900003-.18.5699997-.34.0699997-.06.1000004-.1.1499996-.16.0799999.05.1400003.11.1400003.13,0,0,0,.01-.0200005.02-.0200005,0-.0299997.02-.0799999.06-.0299997.03-.0900002.08-.1599998.13v.59s-.0200005.03-.1099997.03c-.0600004,0-.0699997,0-.0699997-.02h0v-.47l.0100002-.0200001Z"/>
            <path class="cls-1" d="M11.1899996.58c.2700005,0,.4300003,0,.5799999-.01h.0200005s.04,0,.04.12c0,.06,0,.07-.0299997.07h-1.1100006c-.0200005,0-.0299997,0-.0299997-.02,0-.04-.0100002-.11-.0100002-.18.1199999.01.2299995.02.54.02Z"/>
          </g>
        </g>
      </g>
    </g>
  </g>
</svg>