<?xml version="1.0" encoding="UTF-8"?>
<svg xmlns="http://www.w3.org/2000/svg" version="1.1" viewBox="0 0 14.1400003 4.8000002">
  <defs>
    <style>
      .cls-1, .cls-2 {
        fill: #5f5f5f;
      }

      .cls-2 {
        stroke: #5f5f5f;
        stroke-linecap: round;
        stroke-linejoin: round;
        stroke-width: .05px;
      }
    </style>
  </defs>
  <!-- Generator: Adobe Illustrator 28.6.0, SVG Export Plug-In . SVG Version: 1.2.0 Build 709)  -->
  <g>
    <g id="_レイヤー_2">
      <g id="lay">
        <g>
          <g>
            <path class="cls-2" d="M.45,4.75c.08-.0799999.17-.1199999.17-.3000002v-1.96h-.01C.22,2.4899998.11,2.8299997.06,3.2799997h-.03l.07-.8399999h1.25l.0700001.8399999h-.04c-.0599999-.45-.17-.79-.55-.79h-.01v1.96c0,.1799998.1.2199998.17.3000002H.45Z"/>
            <path class="cls-2" d="M1.83,4.5500002v-1.25c0-.1099999-.03-.1400001-.0700001-.1400001-.03,0-.0700001.03-.1.05v-.03c.08-.0799999.2-.1900001.27-.1900001.0599999,0,.0700001.05.0700001.2v1.3699999c0,.0799999.03.1199999.0999999.1999998h-.38c.08-.0799999.1-.1199999.1-.1999998l.0100001-.0099998ZM1.89,2.4200001c.09,0,.15.05.15.1400001s-.0599999.1400001-.15.1400001-.15-.05-.15-.1400001.0599999-.1400001.15-.1400001Z"/>
            <path class="cls-2" d="M2.51,4.5500002v-1.25c0-.1099999-.03-.1400001-.0699999-.1400001-.03,0-.0699999.03-.0999999.05v-.03c.0799999-.0799999.2-.1900001.27-.1900001.0599999,0,.0699999.05.0699999.2v.3600001c.0799999-.24.22-.5699999.5-.5699999.1800001,0,.3399999.1400001.3399999.48v1.0899999c0,.0799999.03.1199999.0999999.1999998h-.3800001c.0799999-.0799999.0999999-.1199999.0999999-.1999998v-.9300001c0-.28-.02-.6000001-.22-.6000001-.21,0-.3700001.3499999-.45.5899999v.9300001c0,.0799999.03.1199999.0999999.1999998h-.3800001c.0799999-.0799999.0999999-.1199999.0999999-.1999998l.0200007.0100002Z"/>
            <path class="cls-2" d="M4.0599999,2.5799999h.04v.4200001h.2399998v.04h-.2399998v.96c.5599999.0799999.6599998.77.1700001.77-.0799999,0-.3499999-.02-.3499999-.4000001v-1.3299999h-.1700001v-.04c.1800001,0,.3099999-.29.3099999-.4200001ZM4.0999999,4.3099999c0,.3699999.1100001.4200001.21.4200001.3600001,0,.3200002-.6199999-.21-.71v.29Z"/>
            <path class="cls-2" d="M6.0300002,4.5500002v-1.9099998c0-.0799999-.0300002-.1199999-.0999999-.2h.4200001c.5799999,0,.7799997.1800001.7799997.45,0,.3299999-.3200002.4300001-.6500001.47.4499998.05.8600001.1500001.8600001.6699998,0,.4400001-.23.7199998-.9899998.7199998h-.4200001c.0799999-.0799999.0999999-.1199999.0999999-.1999998ZM6.29,3.3399999c.27,0,.6599998-.0999999.6599998-.45,0-.24-.1599998-.4000001-.6700001-.4000001h-.0700002v.8499999s.0799999,0,.0800004.0000002ZM6.2800002,4.71c.6900001,0,.8800001-.3099999.8800001-.6700001,0-.49-.4900002-.6500001-.8699999-.6500001h-.0799999v1.3200002s.0700002,0,.0699997,0Z"/>
            <path class="cls-2" d="M8.6000004,3.1800001l.04.52h-.04c-.0699997-.3799999-.1800003-.6700001-.3199997-.6700001-.1599998,0-.29.4200001-.3600001.73v.7900002c0,.0799999.0300002.1199999.0999999.1999998h-.3800001c.0799999-.0799999.0999999-.1199999.0999999-.1999998v-1.25c0-.1099999-.0300002-.1400001-.0700002-.1400001-.0300002,0-.0700002.03-.0999999.05v-.03c.0799999-.0799999.1999998-.1900001.27-.1900001.0500002,0,.0700002.05.0700002.2v.4200001c.0700002-.3099999.1900001-.6300001.3799996-.6300001.1199999,0,.25.1300001.29.2h.0200005Z"/>
            <path class="cls-2" d="M9.7799997,2.98c.54,0,.9200001.3399999.9200001.9000001s-.3800001.9000001-.9200001.9000001-.9200001-.3400002-.9200001-.9000001.3800001-.9000001.9200001-.9000001ZM9.7799997,4.73c.4300003,0,.7399998-.3299999.7399998-.8600001s-.3000002-.8600001-.7399998-.8600001-.7399998.3299999-.7399998.8600001.3000002.8600001.7399998.8600001Z"/>
            <path class="cls-2" d="M11.7799997,3l.3500004,1.4299998.29-1.24c.0200005-.0799999,0-.1199999-.0500002-.2h.25c-.0900002.0799999-.1300001.1199999-.1599998.2l-.3800001,1.5699999h-.04l-.3599997-1.3899999-.3299999,1.3899999h-.04l-.4099998-1.5700002c-.0200005-.0799999-.0799999-.1199999-.1499996-.2h.3900003c-.0799999.0799999-.0799999.1199999-.0600004.2l.3000002,1.2399998.3400002-1.4299998h.04l.0199986.0000005Z"/>
            <path class="cls-2" d="M13,4.5500002v-1.25c0-.1099999-.0299997-.1400001-.0699997-.1400001-.0299997,0-.0699997.03-.1000004.05v-.03c.0799999-.0799999.1999998-.1900001.2700005-.1900001.0500002,0,.0699997.05.0699997.2v.3600001c.0799999-.24.2200003-.5699999.5-.5699999.1800003,0,.3400002.1400001.3400002.48v1.0899999c0,.0799999.0299997.1199999.1000004.1999998h-.3800001c.0799999-.0799999.1000004-.1199999.1000004-.1999998v-.9300001c0-.28-.0200005-.6000001-.2200003-.6000001-.21,0-.3699999.3499999-.4499998.5899999v.9300001c0,.0799999.0299997.1199999.1000004.1999998h-.3800001c.0799999-.0799999.1000004-.1199999.1000004-.1999998l.0199986.0100002Z"/>
          </g>
          <g>
            <path class="cls-1" d="M.16.7h-.05s-.03,0-.03-.03c0-.04-.01-.09-.01-.15.07,0,.08,0,.23.01h.96s.02,0,.02.1q0,.07-.02.07h-.46c0,.11-.01.16-.03.23-.05.17-.13.29-.29.3799999-.04.03-.07.04-.09.04,0,0-.01,0-.03-.02-.05-.05-.07-.0700001-.13-.1.26-.12.36-.27.37-.54H.16v.0100001ZM.68.2c.14,0,.3,0,.36-.01h0s.03.01.03.06v.07q0,.04-.03.04H.27q-.02,0-.03-.02c0-.03-.01-.1-.01-.16.06,0,.26.01.44.01l.0100001.01Z"/>
            <path class="cls-1" d="M1.87.88c-.12.08-.27.16-.3000001.16-.0200001,0-.0333334-.01-.04-.03-.0099999-.03-.0599999-.06-.09-.08.2-.06.39-.18.5700001-.34.0699999-.06.0999999-.1.1500001-.16.0799999.05.1400001.11.1400001.13,0,0,0,.01-.02.02-.02,0-.03.02-.0799999.06-.03.03-.0899999.08-.1600001.13v.59s-.02.03-.11.03c-.0599999,0-.0700001,0-.0700001-.02h0v-.47l.0099999-.02Z"/>
            <path class="cls-1" d="M3.6700001.53l.01.03c0,.02,0,.03-.03.05-.0799999.11-.1700001.19-.3.3-.1500001.12-.28.1899999-.46.28-.1199999.05-.1199999.0599999-.1400001.0700001-.01.01-.02.02-.03.02s-.03-.01-.05-.04c-.03-.05-.0599999-.11-.0699999-.16.1500001-.03.3299999-.12.51-.23.23-.15.3800001-.29.49-.49.02.06.03.09.0699999.16v.01ZM2.6800001.28s.04-.04.05-.04c.03,0,.1400001.07.23.15.0599999.05.0799999.07.0799999.08,0,.01-.03.05-.0599999.09s-.05.05-.0599999.05c-.0066669,0-.03-.02-.0699999-.06-.0599999-.06-.1199999-.1-.1600001-.12-.0333333-.02-.0533333-.0333333-.0599999-.04-.01-.01,0,0,0-.01s.03-.06.0699999-.1h-.02Z"/>
            <path class="cls-1" d="M4.2800002.89v.41h0s0,.03-.0100002.04c-.0100002,0-.0700002.02-.1300001.02-.0500002,0-.0599999,0-.0599999-.03h0v-.66c0-.35,0-.44-.02-.53.1100001,0,.1599998.01.1999998.02.0100002,0,.02.01.02.02v.03c0,.02,0,.04-.0100002.06v.27c.0733333.02.1300001.0366666.1700001.05.1500001.05.2399998.09.3699999.16.0100002,0,.02.02.02.03s-.0300002.09-.0500002.13c-.0100002.03-.02.03-.0300002.03,0,0-.0100002,0-.02-.01-.1500001-.1-.3000002-.17-.46-.21v.17h.0100012Z"/>
            <path class="cls-1" d="M5.52.44c-.27,0-.46.01-.5099998.02h0c-.0300002,0-.04-.05-.04-.2.0700002.01.1700001.02.3899999.02h.4699998c.0300002,0,.04,0,.0599999-.02h.02c.0300002,0,.0599999.02.1100001.08q.0300002.04.0300002.06c0,.01,0,.02-.0100002.03-.0100002.02-.02.02-.0500002.13-.0799999.26-.25.5-.48.6800001-.0900002.0700001-.1700001.12-.1999998.12q-.02,0-.0500002-.04c-.04-.04-.0700002-.0599999-.1100001-.09.2199998-.11.3400002-.2.46-.35.0999999-.13.1700001-.27.1999998-.44-.0799999,0-.1766667,0-.2899995,0ZM6.1700001.28s-.0500002.04-.0599999.04c-.0066662,0-.02-.0133334-.04-.04-.0300002-.04-.0599999-.09-.0900002-.12v-.01c0-.01.0599999-.05.0700002-.05s.0300002.02.0799999.07c.04.05.0700002.09.0700002.1s0,.02-.02.03l-.0100002-.02ZM6.2399998.21c-.04-.06-.0700002-.1-.1100001-.14v-.01s0-.02.0300002-.03c.02-.02.0300002-.02.04-.02.02,0,.0599999.04.1100001.1.02.03.0300002.05.0300002.06,0,0,0,.02-.02.03-.02.02-.0500002.03-.0500002.03,0,0-.0100002,0-.02-.02h-.0100002Z"/>
            <path class="cls-1" d="M6.4899998.7h-.0100002c-.0300002,0-.0500002-.05-.0599999-.21.0700002.01.1799998.02.46.02h.4099998c.02,0,.0300002,0,.0599999-.01h.0300002c.02,0,.04.01.0599999.04.04.05.0700002.09.0700002.11,0,.02,0,.03-.0300002.05-.0100002.01-.02.02-.0500002.09-.0999999.22-.21.36-.3899999.47-.0799999.05-.21.11-.2399998.11-.02,0-.0300002,0-.0599999-.04-.04-.05-.0599999-.0599999-.0999999-.08.1700001-.05.3299999-.14.4400001-.24.0799999-.08.1500001-.19.1900001-.32-.5700002,0-.6700001.01-.7800002.03v-.0200001ZM6.98.17c.1066666,0,.2166667-.0033333.3299999-.01h.02s.0300002.02.0300002.06v.05h0c0,.06,0,.07-.0300002.07h-.2200003c-.2199998,0-.3899999,0-.4699998.01h-.0100002s-.04-.02-.0500002-.19c.0999999.01.1900001.02.4099998.02l-.0099993-.01Z"/>
            <path class="cls-1" d="M8.2600002.3c0-.08,0-.13-.0100002-.19.1099997,0,.1700001,0,.1999998.02.0100002,0,.0200005.01.0200005.02v.03c-.0100002.02-.0200005.05-.0200005.12v.05h.1899996s.0799999,0,.1099997-.02h.04c.0299997,0,.0699997.03.1199999.09.0299997.03.0299997.04.0299997.06,0,.01,0,.02-.0100002.04-.0100002.03-.0200005.04-.04.12-.0299997.14-.0600004.21-.1199999.31-.1000004.17-.2399998.3-.4200001.39-.04.02-.0699997.03-.0799999.03s-.0200005,0-.0299997-.02c-.0299997-.03-.0600004-.0599999-.1199999-.1.1199999-.05.1800003-.08.25-.13.1499996-.1.2399998-.23.3000002-.4.0299997-.08.04-.13.04-.2h-.7100005v.24h0s0,.03-.02.03h-.0999999c-.0599999,0-.0700002,0-.0700002-.03v-.41h.4300003v-.04l.0200014-.0100001Z"/>
            <path class="cls-1" d="M10.3199997.53l.0100002.03c0,.02,0,.03-.0299997.05-.0799999.11-.1700001.19-.3000002.3-.1499996.12-.2799997.1899999-.46.28-.1199999.05-.1199999.0599999-.1400003.0700001-.0100002.01-.0200005.02-.0299997.02-.0100002,0-.0299997-.01-.0500002-.04-.0299997-.05-.0600004-.11-.0699997-.16.1499996-.03.3299999-.12.5100002-.23.2299995-.15.3800001-.29.4899998-.49.0200005.06.0299997.09.0699997.16v.01ZM9.3199997.28s.04-.04.0500002-.04c.0299997,0,.1400003.07.2299995.15.0600004.05.0799999.07.0799999.08,0,.01-.0299997.05-.0600004.09-.0299997.04-.0500002.05-.0600004.05-.0066662,0-.0299997-.02-.0699997-.06-.0599995-.06-.1199999-.1-.1599998-.12-.0333338-.02-.0533333-.0333333-.0600004-.04-.0100002-.01,0,0,0-.01s.0299997-.06.0699997-.1h-.0199986Z"/>
          </g>
        </g>
      </g>
    </g>
  </g>
</svg>