<?xml version="1.0" encoding="UTF-8"?>
<svg xmlns="http://www.w3.org/2000/svg" version="1.1" viewBox="0 0 41.5299988 4.9772682">
  <defs>
    <style>
      .cls-1 {
        fill: #5f5f5f;
      }
    </style>
  </defs>
  <!-- Generator: Adobe Illustrator 28.7.1, SVG Export Plug-In . SVG Version: 1.2.0 Build 142)  -->
  <g>
    <g id="_レイヤー_1" data-name="レイヤー_1">
      <g>
        <g id="_レイヤー_2">
          <g>
            <g>
              <path class="cls-1" d="M40.8839539,2.1776755c0-.0469885.0389328-.0859215.0859222-.0859215h0c.0481071,0,.0859222.0389333.0859222.0859215h0c0,.0481071-.0378151.0859215-.0859222.0859215h0c-.0469894,0-.0859222-.0378146-.0859222-.0859215ZM40.4326409,2.1776755c0-.0469885.0377045-.0859215.0846901-.0859215h0c.0481071,0,.0871506.0389333.0871506.0859215h0c0,.0481071-.0390434.0859215-.0871506.0859215h0c-.0469894,0-.0846901-.0378146-.0846901-.0859215ZM39.9800957,2.1776755c0-.0469885.0378151-.0859215.0859222-.0859215h0c.0469894,0,.0859222.0389333.0859222.0859215h0c0,.0481071-.0389328.0859215-.0859222.0859215h0c-.0481071,0-.0859222-.0378146-.0859222-.0859215ZM39.5275543,2.1776755c0-.0469885.0389328-.0859215.0859222-.0859215h0c.0481071,0,.0859222.0389333.0859222.0859215h0c0,.0481071-.0378151.0859215-.0859222.0859215h0c-.0469894,0-.0859222-.0378146-.0859222-.0859215ZM39.0761307,2.1776755c0-.0469885.0378151-.0859215.0859222-.0859215h0c.0469894,0,.0859222.0389333.0859222.0859215h0c0,.0481071-.0389328.0859215-.0859222.0859215h0c-.0481071,0-.0859222-.0378146-.0859222-.0859215ZM38.6237,2.1776755c0-.0469885.0378151-.0859215.0859222-.0859215h0c.046875,0,.0859222.0389333.0859222.0859215h0c0,.0481071-.0390434.0859215-.0859222.0859215h0c-.0481071,0-.0859222-.0378146-.0859222-.0859215ZM38.1711548,2.1776755c0-.0469885.0389328-.0859215.0859222-.0859215h0c.0481071,0,.0859222.0389333.0859222.0859215h0c0,.0481071-.0378151.0859215-.0859222.0859215h0c-.0469894,0-.0859222-.0378146-.0859222-.0859215ZM37.7197312,2.1776755c0-.0469885.0378151-.0859215.0848045-.0859215h0c.0481071,0,.0870399.0389333.0870399.0859215h0c0,.0481071-.0389328.0859215-.0870399.0859215h0c-.0469894,0-.0848045-.0378146-.0848045-.0859215ZM37.2671898,2.1776755c0-.0469885.0378151-.0859215.0859222-.0859215h0c.0469894,0,.0859222.0389333.0859222.0859215h0c0,.0481071-.0389328.0859215-.0859222.0859215h0c-.0481071,0-.0859222-.0378146-.0859222-.0859215ZM36.8147591,2.1776755c0-.0469885.0389328-.0859215.0859222-.0859215h0c.046875,0,.0859222.0389333.0859222.0859215h0c0,.0481071-.0390434.0859215-.0859222.0859215h0c-.0469894,0-.0859222-.0378146-.0859222-.0859215ZM36.3633316,2.1776755c0-.0469885.0378151-.0859215.0848045-.0859215h0c.0481071,0,.0859222.0389333.0859222.0859215h0c0,.0481071-.0378151.0859215-.0859222.0859215h0c-.0469894,0-.0848045-.0378146-.0848045-.0859215ZM35.9107903,2.1776755c0-.0469885.0378151-.0859215.0859222-.0859215h0c.0469894,0,.0859222.0389333.0859222.0859215h0c0,.0481071-.0389328.0859215-.0859222.0859215h0c-.0481071,0-.0859222-.0378146-.0859222-.0859215Z"/>
              <path class="cls-1" d="M41.4224175,2.2635973c-.0114098,0-.022934-.0022376-.033226-.0057056-.0102921-.0045869-.0194664-.0114114-.027523-.0194666-.0159988-.0161102-.0251732-.0366957-.0251732-.0607493,0-.0229349.0091743-.0446391.0251732-.0607493.0080566-.0079434.017231-.013649.027523-.0182359.0205841-.0080552.0458679-.0080552.0664558,0,.0102921.0045869.0194664.0102928.027523.0182359.0159988.0161102.0251732.0378146.0251732.0607493s-.0091743.0446391-.0251732.0607493c-.0080566.0080552-.017231.0148797-.027523.0194666-.0102921.0034683-.0218163.0057056-.0332298.0057056Z"/>
            </g>
            <g>
              <path class="cls-1" d="M.0815208,2.2635973c-.0114674,0-.021816-.0022376-.0321087-.0057056-.0102927-.0045869-.0205854-.0114114-.0286405-.0194666-.0079992-.0080552-.0137609-.0172291-.0183479-.0275218-.004531-.0102928-.0068245-.0217042-.0068245-.0332274,0-.0229349.009118-.0435202.0251724-.0607493.0080552-.0079434.0183479-.013649.0286405-.0182359.0206413-.0080552.0446949-.0080552.0653362,0,.0102927.0045869.0194666.0102928.0274658.0182359.0160544.0172291.0252283.0378146.0252283.0607493,0,.0115232-.0022935.0229349-.0057617.0332274-.004587.0102928-.0114674.0194666-.0194666.0275218s-.0171731.0148797-.0274658.0194666c-.0103486.0034683-.021816.0057056-.0332275.0057056Z"/>
              <path class="cls-1" d="M4.9698804,2.1776755c0-.0469885.0389333-.0859215.0859218-.0859215h0c.0469327,0,.0859218.0389333.0859218.0859215h0c0,.0481071-.0389891.0859215-.0859218.0859215h0c-.0469885,0-.0859218-.0378146-.0859218-.0859215ZM4.5173376,2.1776755c0-.0469885.0389333-.0859215.0859218-.0859215h0c.0481071,0,.0859218.0389333.0859218.0859215h0c0,.0481071-.0378146.0859215-.0859218.0859215h0c-.0469885,0-.0859218-.0378146-.0859218-.0859215ZM4.0648502,2.1776755c0-.0469885.0389333-.0859215.0859218-.0859215h0c.0481071,0,.0870404.0389333.0870404.0859215h0c0,.0481071-.0389333.0859215-.0870404.0859215h0c-.0469885,0-.0859218-.0378146-.0859218-.0859215ZM3.6134263,2.1776755c0-.0469885.0389893-.0859215.0859215-.0859215h0c.0469885,0,.0859215.0389333.0859215.0859215h0c0,.0481071-.0389333.0859215-.0859215.0859215h0c-.0469325,0-.0859215-.0378146-.0859215-.0859215ZM3.160939,2.1776755c0-.0469885.0389333-.0859215.0859215-.0859215h0c.0481071,0,.0859215.0389333.0859215.0859215h0c0,.0481071-.0378146.0859215-.0859215.0859215h0c-.0469885,0-.0859215-.0378146-.0859215-.0859215ZM2.708396,2.1776755c0-.0469885.0389893-.0859215.0859215-.0859215h0c.0481071,0,.0859215.0389333.0859215.0859215h0c0,.0481071-.0378146.0859215-.0859215.0859215h0c-.0469325,0-.0859215-.0378146-.0859215-.0859215ZM2.2570277,2.1776755c0-.0469885.0378146-.0859215.0859215-.0859215h0c.0469885,0,.0859215.0389333.0859215.0859215h0c0,.0481071-.0389333.0859215-.0859215.0859215h0c-.0481071,0-.0859215-.0378146-.0859215-.0859215ZM1.8045406,2.1776755c0-.0469885.0389332-.0859215.0859216-.0859215h0c.0481071,0,.0859216.0389333.0859216.0859215h0c0,.0481071-.0378145.0859215-.0859216.0859215h0c-.0469884,0-.0859216-.0378146-.0859216-.0859215ZM1.3519976,2.1776755c0-.0469885.0389332-.0859215.0859216-.0859215h0c.0481071,0,.0859216.0389333.0859216.0859215h0c0,.0481071-.0378145.0859215-.0859216.0859215h0c-.0469884,0-.0859216-.0378146-.0859216-.0859215ZM.9006293,2.1776755c0-.0469885.0378145-.0859215.0859216-.0859215h0c.0469325,0,.0859216.0389333.0859216.0859215h0c0,.0481071-.0389892.0859215-.0859216.0859215h0c-.0481072,0-.0859216-.0378146-.0859216-.0859215ZM.4480862,2.1776755c0-.0469885.0389892-.0859215.0859216-.0859215h0c.0469884,0,.0859216.0389333.0859216.0859215h0c0,.0481071-.0389332.0859215-.0859216.0859215h0c-.0469325,0-.0859216-.0378146-.0859216-.0859215Z"/>
            </g>
          </g>
        </g>
        <g>
          <path class="cls-1" d="M7.111762,2.8642846c0,.866834.4133299,1.6383366,1.3380429,1.6383366.5937779,0,1.1630422-.3145934,1.4715069-.9676128l.0333663.0415373c-.3656635.6945567-.8736438,1.0745199-1.6233561,1.0745199-1.0200444,0-1.689407-.7715026-1.689407-1.7929095,0-1.3237432,1.0534114-2.4997231,2.344469-2.4997231.7163446,0,1.1957275.5937779,1.1957275,1.1521469,0,.4330765-.2893984.8491296-.9778267.9437801l-.027919-.0531132c.4221813-.1545729.6782147-.6414435.6782147-1.0929054,0-.4569094-.2655659-.8722815-.877729-.8722815-1.1718936,0-1.8650895,1.2937822-1.8650895,2.4282246Z"/>
          <path class="cls-1" d="M10.2427144,3.5111755c0-.8906669.6925134-1.9713152,1.7792905-1.9713152.7544785,0,1.0820108.516832,1.0820108,1.128314,0,.8845385-.6925134,1.9713152-1.7745243,1.9713152-.7592461,0-1.0867771-.516832-1.0867771-1.128314ZM10.6458294,3.6419155c0,.5161509.2090481.9260754.6979607.9260754.7830786,0,1.3618754-1.1575946,1.3618754-2.0244284,0-.5222793-.2090481-.932204-.7027283-.932204-.7776313,0-1.3571092,1.1575946-1.3571078,2.030557Z"/>
          <path class="cls-1" d="M13.2436081.139171v-.0299612h.6931945v4.0311522c0,.0360897.0047662.077627.0143001.1246116.0095338.0415373.0238325.0830743.0469853.1246116.0381326.077627.1096315.1429968.2090481.1429968v.0292802h-.9635266v-.0292802c.2042819,0,.266247-.2437759.266247-.3922204V.6553219c0-.2553517-.0619651-.5161509-.2662483-.5161509Z"/>
          <path class="cls-1" d="M14.3508123,3.5111755c0-.8906669.6925134-1.9713152,1.7792905-1.9713152.7544785,0,1.0820108.516832,1.0820108,1.128314,0,.8845385-.6925134,1.9713152-1.7745243,1.9713152-.7592461,0-1.0867771-.516832-1.0867771-1.128314ZM14.7539273,3.6419155c0,.5161509.2090481.9260754.6979607.9260754.7830786,0,1.3618754-1.1575946,1.3618754-2.0244284,0-.5222793-.2090481-.932204-.7027283-.932204-.7776313,0-1.3571092,1.1575946-1.3571078,2.030557Z"/>
          <path class="cls-1" d="M18.8184453,2.7451204c.1661493-.1777248.241732-.4330765.241732-.6530195,0-.2430948-.0946504-.4392049-.2607996-.4392049-.4984465,0-.7544785,1.0683917-.7544785,2.4874663,0,.0360897.0047662.077627.0143001.1246116.0095338.0415373.0238325.0892027.0469853.1246116.0190663.0415373.047665.077627.0810314.1014598.0333663.0292802.0755841.0415373.1280167.0415373v.0292802h-.9635266v-.0292802c.2042819,0,.266247-.2437759.266247-.3922204v-2.0005955c0-.2553518-.0619651-.5168318-.266247-.5168318v-.0292803h.6931945v1.5021491c.1041828-.9798696.3792825-1.5613907.9015615-1.5613907.3745149,0,.5597319.2846322.5597319.5815209,0,.3268502-.2226671.6707238-.6543822.6829808,0,0-.0333663-.0537941-.0333663-.0537943Z"/>
          <path class="cls-1" d="M21.0369429,2.8642846c0,.866834.4133299,1.6383366,1.3380442,1.6383366.5937779,0,1.1630422-.3145934,1.4715069-.9676128l.0333663.0415373c-.3656649.6945567-.8736425,1.0745199-1.6233547,1.0745199-1.0200444,0-1.6894077-.7715026-1.6894077-1.7929095,0-1.3237432,1.0534107-2.4997231,2.3444697-2.4997231.7163459,0,1.1957261.5937779,1.1957261,1.1521469,0,.4330765-.2893998.8491296-.977828.9437801l-.0279177-.0531132c.4221827-.1545729.6782134-.6414435.6782134-1.0929054,0-.4569094-.2655659-.8722815-.877729-.8722815-1.171895,0-1.8650895,1.2937822-1.8650895,2.4282246Z"/>
          <path class="cls-1" d="M25.8756882,1.6528959c-.5604116,0-.9396954,1.0683915-.9396954,2.4874661,0,.0360897.0047662.077627.0142987.1246116.0095325.0415373.0238339.0830743.0469853.1246116.0381326.077627.1096315.1429968.2090481.1429968v.0292802h-.9635266v-.0292802c.2042819,0,.2662456-.2437759.2662456-.3922204V.6553219c0-.2553517-.0619665-.5161509-.2662456-.5161509v-.0299612h.6931945v3.1466141c.1280167-1.0806485.4984478-1.721411,1.0867771-1.721411,1.2522439,0,1.0152781,2.9981699,1.7697567,2.9981699v.0292802h-.3084647c-1.0009795,0-.7687799-2.9089667-1.6083736-2.908967Z"/>
          <path class="cls-1" d="M28.0757978,2.792786c.0047662-.7776311.3649825-1.2583733,1.0486445-1.2583733,1.2529264,0,1.0152781,2.9981697,1.7697567,2.9981697v.0292802h-.3084647c-.4364814,0-.6400808-.5576883-.7966976-1.1814274.0095325.7837597-.4323949,1.2706301-.9539941,1.2706301-.635997,0-1.0629432-.4569095-1.0629432-1.1160572,0-.3207218.1232505-.5638167.3036984-.7422221ZM29.1625749,2.3889899c.1470816,0,.2893998.0238329.3935826.0592416-.1280167-.4507809-.2893998-.7953356-.5787968-.7953356-.5079803,0-.8212112.4630379-.8538951,1.0983528.2846308-.2492232.6925148-.362259,1.0391093-.3622588ZM28.9630592,4.5325824c.3656649,0,.7783124-.4398858.7783124-1.1344424,0-.1123548-.0142987-.2369664-.0381326-.3615781-.0381326-.1722773-.0803517-.3384261-.1184842-.4991276-.0898841-.0354087-.1947494-.0531132-.2989322-.0531132-.4841464,0-1.0867771.362259-1.0867771,1.0506872,0,.5999063.3799636.997574.7640137.997574Z"/>
          <path class="cls-1" d="M32.3643409,2.7451204c.166152-.1777248.2417347-.4330765.2417347-.6530195,0-.2430948-.0946504-.4392049-.2607996-.4392049-.4984478,0-.7544785,1.0683917-.7544785,2.4874663,0,.0360897.0047662.077627.0142987.1246116.0095325.0415373.0238339.0892027.0469853.1246116.0190649.0415373.047665.077627.0810314.1014598.0333663.0292802.0755854.0415373.1280167.0415373v.0292802h-.9635266v-.0292802c.2042819,0,.2662456-.2437759.2662456-.3922204v-2.0005955c0-.2553518-.0619665-.5168318-.2662456-.5168318v-.0292803h.6931945v1.5021491c.1041828-.9798696.3792811-1.5613907.9015629-1.5613907.3745149,0,.5597319.2846322.5597319.5815209,0,.3268502-.2226671.6707238-.6543822.6829808,0,0-.0333691-.0537941-.0333691-.0537943Z"/>
          <path class="cls-1" d="M34.8620233,4.1226579c-.2512672.3738349-.522279.5345361-.7497123.5345361-.3036984,0-.5318114-.2791845-.5318114-.6945567V1.6651529h-.5120641v-.0714984h.1184842c.4841464,0,.7926111-.3506831.7926111-.6414435,0-.1184832-.0524313-.2315189-.1661493-.296889l.0142987-.0354087c.0755854-.0177044.1423154-.0299612.1988332-.0299612.1756817,0,.2614794.1014597.2614794.2376474,0,.2492232-.2703321.6176106-.7544785.7660551h1.1480611v.0714984h-.6734471v2.1844489c0,.4099245.1184842.6291865.2989322.6291865.1423154,0,.3220836-.13074.5263655-.4037961,0,0,.0286001.0476657.0285974.0476657Z"/>
        </g>
      </g>
    </g>
  </g>
</svg>