<?xml version="1.0" encoding="UTF-8"?>
<svg id="_レイヤー_2" data-name="レイヤー 2" xmlns="http://www.w3.org/2000/svg" xmlns:xlink="http://www.w3.org/1999/xlink" viewBox="0 0 839.02 839.02">
  <defs>
    <style>
      .cls-1 {
        clip-path: url(#clippath);
      }

      .cls-2 {
        fill: none;
      }

      .cls-2, .cls-3, .cls-4 {
        stroke-width: 0px;
      }

      .cls-3 {
        fill: #8c6464;
      }

      .cls-4 {
        fill: #fff;
      }
    </style>
    <clipPath id="clippath">
      <circle class="cls-2" cx="419.51" cy="419.51" r="419.51"/>
    </clipPath>
  </defs>
  <g id="_レイヤー_2-2" data-name=" レイヤー 2">
    <g id="lay">
      <g>
        <circle class="cls-4" cx="419.51" cy="419.51" r="419.51"/>
        <g class="cls-1">
          <g>
            <g>
              <path class="cls-3" d="M743.75,506.52c-37.43,11.18-63.19,35.97-80.69,70-18.47,35.49-35.97,71.94-55.42,106.94-10.69,19.93-23.82,38.89-43.75,52.01-29.65,19.44-53.47,9.72-57.85-25.76-10.69-85.56,51.53-193.96,150.21-210,30.14-4.86,64.17-2.43,87.5,6.32v.49Z"/>
              <path class="cls-3" d="M653.82,613.47c15.56-39.37,34.51-69.51,67.08-88.96,5.83-3.4,12.64-5.83,18.47-8.75,9.24-4.37,17.99-2.92,24.31,4.86,6.32,7.29,4.86,16.53.97,25.28-9.72,19.93-27.71,31.11-45.69,40.35-19.44,10.21-40.35,17.01-65.14,27.22Z"/>
            </g>
            <g>
              <path class="cls-3" d="M90.9,474.44c-107.43,0-192.01-85.07-192.01-192.98S-15.56,89.93,92.85,89.93s191.04,85.55,191.04,192.98-85.56,191.53-192.5,191.53h-.49Z"/>
              <path class="cls-3" d="M350.97,512.36c0,24.31-25.28,38.89-44.24,25.76-16.53-11.18-30.14-25.76-41.81-41.81-7.78-10.69-4.86-25.76,4.37-35.49,9.24-9.24,23.82-12.64,34.03-5.35,17.01,11.67,31.11,27.22,43.75,43.26,3.4,4.37,3.4,9.24,3.4,13.61h.49Z"/>
              <path class="cls-3" d="M120.07-21.87V1.94c-.97,17.01-12.64,28.19-29.65,27.71-16.04,0-27.71-11.18-28.68-27.71-.49-15.56-.49-31.6,0-47.15.49-16.53,13.61-28.19,29.65-28.19s27.71,12.15,28.68,28.19v23.82-.49Z"/>
              <path class="cls-3" d="M120.07,586.73v23.82c-.97,17.01-12.64,28.19-29.65,27.71-16.04,0-27.71-11.18-28.68-27.71-.49-15.56-.49-31.6,0-47.15.49-16.53,13.61-28.68,29.65-28.19,15.56,0,27.71,12.15,28.68,28.19v23.82-.49Z"/>
              <path class="cls-3" d="M394.23,311.6h-23.82c-16.04-.97-27.22-13.61-27.22-29.65,0-15.07,11.18-27.71,26.74-28.68,16.53-.97,33.54-.97,50.07,0,16.04.49,26.74,13.12,26.74,29.65,0,15.56-10.69,27.71-26.25,28.68-8.75.49-17.5,0-26.25,0Z"/>
              <path class="cls-3" d="M290.69,112.78c-12.15,0-21.39-4.86-26.74-15.07-5.35-10.21-5.83-20.9,1.46-30.14,11.67-15.07,24.79-28.68,39.86-39.86,11.67-8.75,26.25-6.81,36.46,2.92,10.21,9.72,13.12,25.28,4.37,36.46-11.67,15.56-25.76,28.68-40.83,41.32-4.37,3.89-10.21,4.37-15.07,4.37h.49Z"/>
            </g>
            <g>
              <polygon class="cls-3" points="516.73 384.51 491.46 324.72 466.18 384.51 484.65 370.41 488.05 578.47 325.69 581.87 494.86 584.79 494.86 582.36 498.75 370.41 516.73 384.51"/>
              <polygon class="cls-3" points="585.76 316.94 560.48 257.15 535.2 316.94 553.19 302.85 557.08 510.9 394.72 513.82 563.89 517.22 563.89 514.79 567.77 302.85 585.76 316.94"/>
            </g>
          </g>
        </g>
      </g>
    </g>
  </g>
</svg>