<?xml version="1.0" encoding="UTF-8"?>
<svg id="_レイヤー_2" data-name="レイヤー 2" xmlns="http://www.w3.org/2000/svg" viewBox="0 0 17.25 17.25">
  <defs>
    <style>
      .cls-1 {
        fill: #8c6464;
      }

      .cls-1, .cls-2 {
        stroke-width: 0px;
      }

      .cls-2 {
        fill: #fff;
      }
    </style>
  </defs>
  <g id="lay">
    <g>
      <path class="cls-2" d="M8.62,17.25c4.76,0,8.62-3.86,8.62-8.62S13.39,0,8.62,0,0,3.86,0,8.62s3.86,8.62,8.62,8.62"/>
      <g>
        <path class="cls-1" d="M5.89,9.01c-.87,0-1.28-.33-1.45-.47-.14-.14-.23-.41-.17-.62.09-.32.43-.51.76-.42.32.09.5.42.41.75-.04.16-.15.28-.27.33-.12.05.05.29.72.29,1.18,0,1.73-.87,1.47-1.73-.17-.55-.94-1.52-3.07-1.15l.6-3.42h3.13l-.32,1.01h-2.83l-.26,1.45c2.54-.47,3.51.75,3.57,1.8.07,1.5-1.09,2.18-2.29,2.18Z"/>
        <path class="cls-1" d="M10.18,9.01c-.87,0-1.28-.33-1.45-.47-.14-.14-.23-.41-.17-.62.09-.32.43-.51.76-.42.32.09.5.42.41.75-.04.16-.15.28-.27.33-.12.05.05.29.72.29,1.18,0,1.73-.87,1.47-1.73-.17-.55-.94-1.52-3.07-1.15l.61-3.42h3.12l-.32,1.01h-2.83l-.26,1.45c2.54-.47,3.51.75,3.57,1.8.07,1.5-1.09,2.18-2.29,2.18Z"/>
        <path class="cls-1" d="M13.1,7.83c-.35,0-.43-.26-.43-.56s.08-.58.43-.58.43.29.43.58-.09.56-.43.56ZM13.1,7.79c.14,0,.19-.07.19-.51s-.05-.53-.19-.53c-.14,0-.19.09-.19.53s.05.51.19.51ZM13.18,8.85h-.19l1.44-2.22h.19l-1.44,2.22ZM14.94,8.21c0,.29-.09.56-.43.56s-.43-.27-.43-.56.08-.58.43-.58.43.29.43.58ZM14.7,8.21c0-.44-.05-.53-.19-.53-.14,0-.19.09-.19.53s.05.51.19.51.19-.07.19-.51Z"/>
      </g>
      <g>
        <path class="cls-1" d="M9.38,11.3c0,.26-.17.48-.45.6-.31.13-.67.05-.89-.19-.17-.18-.2-.4-.16-.64.03-.17.1-.32.19-.46.17-.26.35-.51.53-.76.02-.02.03-.03.05,0,.18.26.36.51.53.77.13.19.21.4.21.69Z"/>
        <path class="cls-2" d="M8.19,10.95s.07.04.06.08c-.01.07-.04.13-.04.21,0,.18.1.3.25.36.01,0,.03,0,.04.02.03.02.04.04.03.08-.01.03-.04.05-.08.04-.18-.04-.35-.22-.37-.41-.02-.11,0-.21.04-.32,0-.03.03-.05.06-.05Z"/>
      </g>
      <g>
        <path class="cls-1" d="M6.88,15c-.99-.03-1.79-.22-2.22-.5-.41-.27-.4-.57-.07-.84.29-.23.79-.42,1.4-.55.5-.1,1.06-.16,1.61-.17,0,0,0,0,0,0,0,0,.01,0,.01,0,0,0,0,0-.02.01-.43.03-.85.09-1.22.17-.54.13-.97.31-1.2.53-.27.25-.24.54.14.8.33.22.88.39,1.59.48.01,0,.02.02.01.03,0,.02-.02.03-.04.03,0,0,0,0,0,0Z"/>
        <path class="cls-1" d="M10.37,15c.99-.03,1.79-.22,2.22-.5.41-.27.4-.57.07-.84-.29-.23-.79-.42-1.4-.55-.5-.1-1.06-.16-1.61-.17,0,0,0,0,0,0,0,0-.01,0-.01,0,0,0,0,0,.02.01.43.03.85.09,1.22.17.54.13.97.31,1.2.53.27.25.24.54-.14.8-.33.22-.88.39-1.59.48-.01,0-.02.02-.01.03,0,.02.02.03.04.03,0,0,0,0,0,0Z"/>
        <path class="cls-1" d="M7.65,14.22c-.92-.1-1.38-.39-1.2-.67.15-.23.72-.41,1.39-.46,0,0,0-.01,0-.02-.37.01-.73.06-1.04.13-.34.09-.6.21-.71.35-.12.15-.05.32.22.45.29.14.76.24,1.32.25,0,0,0,0,0,0,0,0,.02,0,.02-.01,0,0,0-.01,0-.02Z"/>
        <path class="cls-1" d="M8.36,13.89c-.47-.04-.76-.19-.72-.33.02-.07.12-.14.28-.19,0-.01-.01-.03-.02-.04-.05,0-.1.02-.14.03-.18.05-.29.12-.32.2-.03.08.05.16.22.23.17.07.42.11.7.12h0s0,0,0,0c0,0,0,0,0,0Z"/>
        <path class="cls-1" d="M9.8,13.55c-.03-.08-.14-.15-.32-.2-.04-.01-.09-.02-.14-.03,0,.01-.01.03-.02.04.16.05.26.12.28.19.04.15-.25.29-.72.33,0,0,0,0,0,0,0,0,0,0,0,0h0c.28,0,.52-.05.7-.12.17-.07.24-.15.22-.23Z"/>
        <path class="cls-1" d="M11.15,13.55c-.11-.14-.36-.26-.71-.35-.3-.08-.67-.12-1.04-.13,0,0,0,.01,0,.02.67.05,1.24.23,1.39.46.18.28-.28.57-1.2.67,0,0-.01,0,0,.02,0,0,0,.01.02.01,0,0,0,0,0,0,.56-.02,1.03-.11,1.32-.25.27-.13.34-.3.22-.45Z"/>
      </g>
    </g>
  </g>
</svg>