<?xml version="1.0" encoding="UTF-8"?>
<svg xmlns="http://www.w3.org/2000/svg" version="1.1" viewBox="0 0 34.5600014 9">
  <defs>
    <style>
      .cls-1 {
        fill: #c791df;
      }
    </style>
  </defs>
  <!-- Generator: Adobe Illustrator 28.6.0, SVG Export Plug-In . SVG Version: 1.2.0 Build 709)  -->
  <g>
    <g id="_レイヤー_2">
      <g id="lay">
        <g>
          <g>
            <path class="cls-1" d="M.92,7.4000001c.08.0599999.1299999.1799998.15.3299999h-.19c-.01-.0700002-.04-.1300001-.08-.1799998-.04-.0500002-.11-.0700002-.2-.0700002-.13,0-.22.0599999-.27.1799998-.04.0799999-.05.1799998-.05.3000002,0,.1199999.02.2200003.07.3000002.05.0799999.13.1199999.23.1199999.08,0,.15-.0200005.19-.0699997.05-.0500002.08-.1199999.1-.1999998h.19c-.02.1599998-.08.2700005-.16.3400002-.09.0699997-.2.1099997-.34.1099997-.15,0-.28-.0600004-.37-.1700001s-.14-.25-.14-.4200001c0-.21.05-.3699999.15-.48s.23-.1700001.38-.1700001c.13,0,.24.0300002.32.0999999"/>
            <path class="cls-1" d="M2.29,8.2399998c.05-.1000004.0699999-.21.0699999-.3299999,0-.1100001-.02-.1999998-.05-.27-.0599999-.1100001-.1500001-.1599998-.28-.1599998-.12,0-.21.0500002-.26.1399999-.05.0900002-.08.1999998-.08.3299999s.03.2299995.08.3100004c.05.0799999.14.1199999.26.1199999.1299999,0,.22-.0500002.27-.1499996M2.4100001,7.46c.0999999.0999999.1600001.25.1600001.4499998s-.05.3500004-.1400001.4700003c-.0899999.1199999-.23.1899996-.4300001.1899996-.16,0-.29-.0500002-.38-.1599998s-.14-.2600002-.14-.4400001c0-.1999998.05-.3499999.15-.4699998s.23-.1799998.4-.1799998c.1500001,0,.28.0500002.3799999.1500001"/>
            <rect class="cls-1" x="3.0999999" y="6.9000001" width=".2" height="1.6100001"/>
            <path class="cls-1" d="M4.6199999,8.2399998c.0500002-.1000004.0700002-.21.0700002-.3299999,0-.1100001-.02-.1999998-.0500002-.27-.0599999-.1100001-.1500001-.1599998-.2800002-.1599998-.1199999,0-.21.0500002-.2600002.1399999-.0500002.0900002-.0799999.1999998-.0799999.3299999s.0300002.2299995.0799999.3100004c.0500002.0799999.1399999.1199999.2600002.1199999.1300001,0,.2199998-.0500002.27-.1499996M4.7399998,7.46c.0999999.0999999.1599998.25.1599998.4499998s-.0500002.3500004-.1399999.4700003c-.0900002.1199999-.23.1899996-.4299998.1899996-.1599998,0-.29-.0500002-.3800001-.1599998-.0899999-.1099997-.1400001-.2600002-.1400001-.4400001,0-.1999998.05-.3499999.1500001-.4699998s.2299998-.1799998.3999999-.1799998c.1500001,0,.2800002.0500002.3800001.1500001"/>
            <path class="cls-1" d="M5.4299998,7.3400002h.1900001v.1999998s.0500002-.0900002.1100001-.1399999c.0599999-.0599999.1300001-.0799999.21-.0799999h.0599999v.21h-.0600004c-.0999999,0-.1799998.0300002-.23.0999999-.0500002.0599999-.0799999.1399999-.0799999.2199998v.6799998h-.1999998v-1.1899996Z"/>
            <path class="cls-1" d="M8.1199999,7.3400002h.2200003c-.0299997.0799999-.0900002.25-.1899996.52-.0699997.2000003-.1300001.3700004-.1799998.4900002-.1100001.3000002-.1900001.4799995-.2399998.5500002-.0500002.0699997-.1300001.1000004-.2399998.1000004h-.0599999c-.02,0-.0300002,0-.0599999-.0100002v-.1800003s.0599999.0200005.0700002.0200005h.04c.04,0,.0599999,0,.0799999-.0200005.02-.0100002.0300002-.0299997.04-.04,0,0,.02-.04.04-.0900002s.04-.0900002.0500002-.1199999l-.4299998-1.21h.2199998l.3099999.96.3200002-.96.0099983-.0100002Z"/>
            <path class="cls-1" d="M9.5200005,8.2399998c.0500002-.1000004.0699997-.21.0699997-.3299999,0-.1100001-.0200005-.1999998-.0500002-.27-.0600004-.1100001-.1499996-.1599998-.2799997-.1599998-.1199999,0-.21.0500002-.2600002.1399999-.0500002.0900002-.0799999.1999998-.0799999.3299999s.0299997.2299995.0799999.3100004c.0500002.0799999.1400003.1199999.2600002.1199999.1300001,0,.2200003-.0500002.2700005-.1499996M9.6499996,7.46c.1000004.0999999.1599998.25.1599998.4499998s-.0500002.3500004-.1400003.4700003-.2299995.1899996-.4300003.1899996c-.1599998,0-.29-.0500002-.3800001-.1599998s-.1400003-.2600002-.1400003-.4400001c0-.1999998.0500002-.3499999.1499996-.4699998.1000004-.1199999.2299995-.1799998.3999996-.1799998.1499996,0,.2799997.0500002.3800001.1500001"/>
            <path class="cls-1" d="M10.5299997,7.3400002v.7799997c0,.0600004,0,.1099997.0299997.1499996.0299997.0699997.1000004.1099997.1899996.1099997.1300001,0,.2299995-.0600004.2700005-.1800003.0299997-.0699997.04-.1599998.04-.27v-.5799999h.1999998v1.1799998h-.1899996v-.1700001s-.0500002.0799999-.0900002.1099997c-.0699997.0600004-.1599998.0900002-.2700005.0900002-.1599998,0-.2799997-.0600004-.3400002-.1700001-.0299997-.0600004-.0500002-.1400003-.0500002-.2399998v-.8000002h.1999998l.0100012-.0099983Z"/>
            <path class="cls-1" d="M11.8800001,7.3400002h.1899996v.1999998s.0500002-.0900002.1099997-.1399999c.0600004-.0599999.1300001-.0799999.21-.0799999h.0600004v.21h-.0599995c-.1000004,0-.1800003.0300002-.2299995.0999999-.0500002.0599999-.0799999.1399999-.0799999.2199998v.6799998h-.1999998v-1.1799998l-.000001-.0099998Z"/>
            <path class="cls-1" d="M13.0299997,8.1400003c0,.0699997.0200005.1199999.0500002.1499996.0500002.0600004.1400003.1000004.2600002.1000004.0699997,0,.1400003-.0200005.1999998-.0500002.0600004-.0299997.0900002-.0799999.0900002-.1499996,0-.0500002-.0200005-.0900002-.0699997-.1199999-.0299997-.0200005-.0900002-.0299997-.1700001-.0600004l-.1599998-.04c-.1000004-.02-.1800003-.0500002-.2299995-.0799999-.0900002-.0500002-.1300001-.1300001-.1300001-.2199998,0-.1100001.04-.1999998.1199999-.27s.1899996-.0999999.3299999-.0999999c.1800003,0,.3100004.0500002.3900003.1599998.0500002.0700002.0699997.1399999.0699997.21h-.1899996s-.0200005-.0799999-.0500002-.1199999c-.0500002-.0500002-.1300001-.0799999-.2399998-.0799999-.0799999,0-.1300001.0100002-.1700001.04-.04.0300002-.0600004.0700002-.0600004.1100001,0,.0500002.0299997.0900002.0799999.1199999.0299997.02.0699997.0300002.1300001.0500002l.1300001.0300002c.1400003.0300002.2399998.0700002.29.0999999.0799999.0500002.1199999.1300001.1199999.2399998s-.04.1999998-.1199999.2700005c-.0799999.0799999-.1999998.1099997-.3699999.1099997-.1800003,0-.3000002-.04-.3800001-.1199999-.0699997-.0799999-.1099997-.1800003-.1199999-.29h.1899996l.0099993.0099993Z"/>
            <path class="cls-1" d="M15.1199999,7.8299999c0-.0900002-.0299997-.1500001-.0600004-.21-.0500002-.0900002-.1400003-.1399999-.2700005-.1399999-.0900002,0-.1700001.0300002-.2299995.0999999-.0600004.0700002-.0900002.1500001-.1000004.25h.6600008ZM15.0500002,7.3699999c.0799999.04.1400003.0900002.1800003.1500001s.0699997.1300001.0799999.21c.0100002.0500002.0200005.1399999.0200005.2599998h-.8599997c0,.1199999.0299997.2200003.0799999.29s.1300001.1099997.2399998.1099997c.1000004,0,.1800003-.0299997.2399998-.1000004.0299997-.04.0600004-.0900002.0699997-.1400003h.1899996s-.0200005.0900002-.0500002.1400003-.0600004.1000004-.1000004.1300001c-.0600004.0600004-.1300001.1000004-.2200003.1199999-.0500002.0100002-.1000004.0200005-.1599998.0200005-.1499996,0-.2700005-.0500002-.3699999-.1599998-.1000004-.1099997-.1499996-.2600002-.1499996-.4499998s.0500002-.3400002.1499996-.46c.1000004-.1199999.2299995-.1799998.3999996-.1799998.0799999,0,.1599998.02.2399998.0599999"/>
            <rect class="cls-1" x="15.8699999" y="6.9000001" width=".1999998" height="1.6100001"/>
            <path class="cls-1" d="M16.75,6.98c.0499992-.0700002.1399994-.0999999.2700005-.0999999h.0800018v.1799998h-.0700016c-.0599995,0-.1000004.02-.1100006.0500002s-.0200005.1100001-.0200005.2399998h.2000008v.1599998h-.2000008v1.0099998h-.2000008v-1.0100002h-.1599998v-.1599998h.1599998v-.1799998c0-.0799999.0200005-.1399999.0400009-.1799998"/>
            <path class="cls-1" d="M18.5200005,7.0100002h.2000008v.3299999h.1900005v.1599998h-.1900005v.7700005s.0100002.0699997.0400009.0799999c.0200005,0,.0400009.0100002.0799999.0100002h.0700016v.1599998s-.0499992.0100002-.0699997.0100002h-.0799999c-.0900002,0-.1499996-.0200005-.1900005-.0699997-.0300007-.0500002-.0499992-.1099997-.0499992-.1800003v-.7799997h-.1599998v-.1599998h.1599998s0-.3299999-.0000038-.3300009Z"/>
            <path class="cls-1" d="M20.1299992,8.2399998c.0499992-.1000004.0699997-.21.0699997-.3299999,0-.1100001-.0200005-.1999998-.0499992-.27-.0599995-.1100001-.1499996-.1599998-.2800007-.1599998-.1200008,0-.2099991.0500002-.2600002.1399999-.0499992.0900002-.0799999.1999998-.0799999.3299999s.0300007.2299995.0799999.3100004c.0499992.0799999.1399994.1199999.2600002.1199999.1299992,0,.2199993-.0500002.2700005-.1499996M20.25,7.46c.1000004.0999999.1599998.25.1599998.4499998s-.0499992.3500004-.1399994.4700003-.2299995.1899996-.4300003.1899996c-.1599998,0-.2900009-.0500002-.3799992-.1599998-.0900002-.1099997-.1399994-.2600002-.1399994-.4400001,0-.1999998.0499992-.3499999.1499996-.4699998s.2299995-.1799998.3999996-.1799998c.1499996,0,.2800007.0500002.3799992.1500001"/>
            <path class="cls-1" d="M22.5900002,7.3400002h.2199993c-.0300007.0799999-.0900002.25-.1900005.52-.0699997.2000003-.1299992.3700004-.1800003.4900002-.1100006.3000002-.1900005.4799995-.2399998.5500002-.0499992.0699997-.1299992.1000004-.2399998.1000004h-.0599995c-.0200005,0-.0300007,0-.0599995-.0100002v-.1800003s.0599995.0200005.0699997.0200005h.0400009c.0400009,0,.0599995,0,.0799999-.0200005.0200005-.0100002.0300007-.0299997.0400009-.04,0,0,.0200005-.04.0400009-.0900002s.0400009-.0900002.0499992-.1199999l-.4300003-1.21h.2199993l.3099995.96.3199997-.96.0100002-.0100002Z"/>
            <path class="cls-1" d="M24,8.2399998c.0499992-.1000004.0699997-.21.0699997-.3299999,0-.1100001-.0200005-.1999998-.0499992-.27-.0499992-.1100001-.1499996-.1599998-.2800007-.1599998-.1200008,0-.2099991.0500002-.2600002.1399999-.0499992.0900002-.0799999.1999998-.0799999.3299999s.0300007.2299995.0799999.3100004c.0499992.0799999.1399994.1199999.2600002.1199999.1299992,0,.2199993-.0500002.2700005-.1499996M24.1200008,7.46c.1000004.0999999.1599998.25.1599998.4499998s-.0499992.3500004-.1399994.4700003-.2299995.1899996-.4300003.1899996c-.1599998,0-.2900009-.0500002-.3799992-.1599998-.0900002-.1099997-.1399994-.2600002-.1399994-.4400001,0-.1999998.0499992-.3499999.1499996-.4699998s.2299995-.1799998.3999996-.1799998c.1499996,0,.2800007.0500002.3799992.1500001"/>
            <path class="cls-1" d="M25.0100002,7.3400002v.7799997c0,.0600004,0,.1099997.0300007.1499996.0300007.0699997.1000004.1099997.1900005.1099997.1299992,0,.2299995-.0600004.2700005-.1800003.0300007-.0699997.0400009-.1599998.0400009-.27v-.5799999h.2000008v1.1799998h-.1900005v-.1700001s-.0499992.0799999-.0900002.1099997c-.0699997.0600004-.1599998.0900002-.2700005.0900002-.1599998,0-.2800007-.0600004-.3400002-.1700001-.0300007-.0600004-.0499992-.1400003-.0499992-.2399998v-.8000002h.2000008l.0099964-.0099983Z"/>
            <path class="cls-1" d="M26.3500004,7.3400002h.1900005v.1999998s.0499992-.0900002.1100006-.1399999c.0599995-.0599999.1299992-.0799999.2099991-.0799999h.0699997v.21h-.0600014c-.1000004,0-.1800003.0300002-.2299995.0999999-.0499992.0599999-.0799999.1399999-.0799999.2199998v.6799998h-.2000008v-1.1799998l-.0099983-.0099998Z"/>
            <path class="cls-1" d="M28.2999992,7.3400002h.2000008v.1700001c.0499992-.0599999.0900002-.0999999.1299992-.1300001.0699997-.04.1399994-.0700002.2199993-.0700002.0900002,0,.1700001.02.2299995.0700002.0300007.0300002.0599995.0700002.0900002.1199999.0400009-.0599999.1000004-.1100001.1499996-.1399999.0599995-.0300002.1299992-.0500002.2000008-.0500002.1599998,0,.2700005.0599999.3199997.1700001.0300007.0599999.0499992.1399999.0499992.25v.7800002h-.2099991v-.8200002c0-.0799999-.0200005-.1300001-.0599995-.1599998-.0400009-.0300002-.0900002-.04-.1399994-.04-.0799999,0-.1399994.0300002-.2000008.0799999-.0599995.0500002-.0799999.1399999-.0799999.2599998v.6800003h-.2000008v-.77c0-.0799999,0-.1399999-.0300007-.1700001-.0300007-.0500002-.0900002-.0799999-.1700001-.0799999-.0699997,0-.1399994.0300002-.2000008.0900002-.0599995.0599999-.0900002.1599998-.0900002.3099999v.6199999h-.2000008v-1.1799998l-.0099964.0099998Z"/>
            <path class="cls-1" d="M31.1900005,8.2399998c.0499992-.1000004.0699997-.21.0699997-.3299999,0-.1100001-.0200005-.1999998-.0499992-.27-.0599995-.1100001-.1499996-.1599998-.2800007-.1599998-.1200008,0-.2099991.0500002-.2600002.1399999-.0499992.0900002-.0799999.1999998-.0799999.3299999s.0300007.2299995.0799999.3100004c.0499992.0799999.1399994.1199999.2600002.1199999.1299992,0,.2199993-.0500002.2700005-.1499996M31.3099995,7.46c.1000004.0999999.1599998.25.1599998.4499998s-.0499992.3500004-.1399994.4700003-.2299995.1899996-.4300003.1899996c-.1599998,0-.2900009-.0500002-.3799992-.1599998-.0900002-.1099997-.1399994-.2600002-.1399994-.4400001,0-.1999998.0499992-.3499999.1499996-.4699998s.2299995-.1799998.3999996-.1799998c.1499996,0,.2800007.0500002.3799992.1500001"/>
            <path class="cls-1" d="M32.7299995,8.2399998c.0499992-.1000004.0699997-.21.0699997-.3299999,0-.1100001-.0200005-.1999998-.0499992-.27-.0600014-.1100001-.1500015-.1599998-.2799988-.1599998-.1199989,0-.2099991.0500002-.2599983.1399999-.0499992.0900002-.0800018.1999998-.0800018.3299999s.0299988.2299995.0800018.3100004c.0499992.0799999.1399994.1199999.2599983.1199999.1300011,0,.2200012-.0500002.2700005-.1499996M32.8499985,7.46c.0999985.0999999.1599998.25.1599998.4499998s-.0499992.3500004-.1399994.4700003-.2299995.1899996-.4300003.1899996c-.1599998,0-.2900009-.0500002-.3800011-.1599998s-.1399994-.2600002-.1399994-.4400001c0-.1999998.0499992-.3499999.1500015-.4699998.0999985-.1199999.2299995-.1799998.4000015-.1799998.1500015,0,.2799988.0500002.3800011.1500001"/>
            <path class="cls-1" d="M33.75,8.2600002c.0499992.0799999.1399994.1300001.2599983.1300001.0900002,0,.1699982-.04.2200012-.1199999.0600014-.0799999.0900002-.1899996.0900002-.3400002s-.0299988-.2600002-.0900002-.3299999c-.0600014-.0700002-.1399994-.1100001-.2200012-.1100001-.0999985,0-.1800003.04-.2400017.1100001-.0600014.0799999-.0900002.1900001-.0900002.3400002,0,.1300001.0299988.2299995.0800018.3199997M34.1899986,7.3699999s.0699997.0599999.1199989.1199999v-.5900002h.1899986v1.6199999h-.1800003v-.1599998c-.0499992.0699997-.0999985.1199999-.1599998.1599998-.0600014.0299997-.1300011.0500002-.2200012.0500002-.1300011,0-.2400017-.0500002-.3400002-.1700001-.0999985-.1099997-.1399994-.2600002-.1399994-.4400001,0-.1700001.0400009-.3200002.1300011-.4499998.0900002-.1300001.2099991-.1900001.3699989-.1900001.0900002,0,.1599998.02.2299995.0599999"/>
          </g>
          <g>
            <path class="cls-1" d="M31.1700001,4.8099999h-.5799999c-.1200008.0100002-.1399994-.0700002-.1399994-.0999999v-2.3699999h0V.04h-1.5699997c-.0699997,0-.0799999.03-.0799999.06,0,.02,0,.05.0900002.05h.5499992s.0599995.07.0599995.09v4.4699996s-.0200005.0999999-.0499992.0999999h-.5799999s-.0799999,0-.0799999.0500002.0300007.0599999.0699997.0599999h2.3099995s.0699997.0100002.0699997-.0599999c0-.0599999-.0499992-.0500002-.0699997-.0500002"/>
            <path class="cls-1" d="M34.4799995,4.8099999h-.4799995s-.0400009-.0500002-.0499992-.0700002l-2.2299995-2.95s-.0100002-.05,0-.0599999l1.4900017-1.35c.1199989-.11.2799988-.23.4500008-.23h.4099998s.0800018-.02.0800018-.06c0-.03-.0200005-.05-.0800018-.05h-2.0400009s-.0799999,0-.0799999.05.0300007.06.0799999.06h.9900017s.0499992.06.0600014.08c0,0,0,.03-.0099983.05l-2.0300007,1.7799999s-.0200005.01-.0400009.03c-.0400009.0599999-.0799999.1600001,0,.3399999h0l1.6999989,2.2499998c.0099983.0100002.0099983.0300002,0,.0500002,0,.0100002-.0200005.0700002-.0499992.0700002h-.7399998s-.0799999,0-.0799999.0500002.0300007.0500002.0799999.0500002h2.5599995s.0800018,0,.0800018-.0500002-.0299988-.0500002-.0800018-.0500002"/>
            <path class="cls-1" d="M.08,4.8099999h.51c.09,0,.12-.0900002.12-.1700001V.44c0-.13.05-.3-.22-.29H.1S.02.15.02.1c0-.03.02-.05.03-.05h1.8800001c.0699999,0,.1299999.05.1500001.11l1.27,2.62c.03.0599999.0699999.04.0999999-.02L4.7399998.16l.0300002-.02h.0599999s.02.01.0300002.01.0300002.02.04.04h0v.03l-1.8200002,3.73s-.03.0800002-.0999999.0800002-.0899999-.04-.1099999-.0799999L1.12.33s-.18-.08-.21.01v4.3000003c0,.0799999.07.1700001.16.1700001h.63s.08.0100002.08.0599999-.03.0500002-.08.0500002H.08s-.08,0-.08-.0500002.04-.0599999.08-.0599999"/>
            <path class="cls-1" d="M4.52,4.8099999h.52c.0900002,0,.1500001-.0799999.1500001-.1599998V.39c0-.12.04-.19.0799999-.23,0,0,.0799999-.09.2199998-.1h1.3500004c.0500002,0,.0900002,0,.0900002.05,0,.04-.0300002.05-.0799999.05h-.3600001c-.3600001,0-.3699999.15-.3699999.28v4.2199998c0,.0799999,0,.1599998.0900002.1599998h.6900001c.0500002,0,.0799999.02.0799999.0599999s-.0300002.0500002-.0799999.0500002h-2.3800001c-.0500002,0-.0700002,0-.0700002-.0500002s.0300002-.0599999.0799999-.0599999"/>
            <path class="cls-1" d="M24.0799999,1.3099999l.9099998,2.3800001.3899994,1.0099998v.04c-.0100002.02-.0300007.0599999-.0499992.0599999h-.8999996s-.0799999,0-.0799999.0500002.0300007.0500002.0699997.0500002h2.6800003s.0799999-.0100002.0799999-.0599999-.0400009-.0500002-.0799999-.0500002h-.6299992s-.0499992-.0500002-.0499992-.0700002L24.6100006.1s-.0400009-.1-.1000004-.1-.0900002.05-.1100006.1l-.3400002.87c-.0400009.09-.0400009.1900001,0,.29h0"/>
            <path class="cls-1" d="M21.9799995,4.9200001c-.0799999,0-.1000004-.0100002-.1000004-.0500002,0-.0700002.0499992-.0599999.1100006-.0599999h.4899998s.0200005-.0500002.0200005-.0700002l1.1599998-2.96c.0300007-.05.0699997-.0700001.0900002-.0700001s.0300007,0,.0499992.01c.0200005.02.0499992.05.0400009.1l-.0200005.05-.6399994,1.6200001h1.210001c.0699997.02.1000004.0599999.1100006.0899999v.0799999c-.0200005.03-.0400009.03-.0900002.04h-1.2900009s-.0200005.01-.0200005.02l-.3899994,1.0200002h0s.0100002.0599999.0200005.0599999h.6100006c.0799999,0,.0900002,0,.0799999.0599999,0,.0300002-.0100002.0500002-.1000004.0500002h-1.3400002l-.0000019.0100002Z"/>
            <path class="cls-1" d="M15.9799995.04s-.0799999,0-.0799999.05.0299997.05.0799999.05h.4899998c.0499992,0,.0900002.08.0900002.13v4.4000001s-.0400009.1300001-.0900002.1300001h-.5100002c-.0500002,0-.0699997.0100002-.0699997.0500002s.0299997.0599999.0699997.0599999h4.0100002c.0499992,0,.1000004-.04.1100006-.0999999v-1.3400002s0-.0699999-.0699997-.0699999c-.0400009,0-.0699997.04-.0699997.0699999-.1399994.96-.6100006,1.3200002-1.7199993,1.3200002h-.6000004c-.0499992,0-.0900002-.0500002-.0900002-.0999999V.04h-1.5599995.0099983Z"/>
            <path class="cls-1" d="M11.6300001.17h-.0299997c-.0500002,0-.0699997.03-.0699997.05,0,.03.0100002.05.04.07h0l.0299997.01h0c.2200003.04.3999996.12.54.23.3900003.33.4700003.99.4700003,2.01s-.0799999,1.6700001-.4700003,1.9899998c-.1800003.1399999-.3400002.2199998-.54.2600002h-.0100002c-.0600004.0300002-.0600004.0700002-.0500002.0700002,0,.0100002.0100002.0500002.0699997.0500002h.0400009c1.2399998-.1700001,2.0999994-1.1399999,2.0999994-2.3699999S12.8400002.36,11.6300001.17"/>
            <path class="cls-1" d="M10.9799995,4.8200002h0s-.0799999-.0300002-.1199999-.04c-.1700001-.04-.3199997-.1199999-.4799995-.25-.3900003-.3200002-.4700003-1-.4700003-1.99s.0799999-1.6799999.4700003-2.01c.0299997-.03.0600004-.05.1099997-.08.0100002,0,.0299997-.02.0500002-.03.0200005,0,.0299997-.02.0500002-.03,0,0,.0200005,0,.0299997-.01.0200005,0,.04-.02.0600004-.02s.04-.01.0600004-.02h0l.04-.01c.0500002-.01.0900002-.02.1400003-.03h.0299997c.04-.02.0500002-.05.0500002-.07,0-.02-.0200005-.04-.0600004-.05h-.0400009c-1.2200003.18-2.1000004,1.1699999-2.1000004,2.37s.8599997,2.1999998,2.0900002,2.3699999h.0300007s.0600004-.0300002.0699997-.0500002c0-.02,0-.0300002-.0200005-.0500002"/>
          </g>
        </g>
      </g>
    </g>
  </g>
</svg>