<?xml version="1.0" encoding="UTF-8"?>
<svg xmlns="http://www.w3.org/2000/svg" version="1.1" viewBox="0 0 41.5299988 4.9772683">
  <defs>
    <style>
      .cls-1 {
        fill: #5f5f5f;
      }
    </style>
  </defs>
  <!-- Generator: Adobe Illustrator 28.6.0, SVG Export Plug-In . SVG Version: 1.2.0 Build 709)  -->
  <g>
    <g id="_レイヤー_2">
      <g>
        <g>
          <path class="cls-1" d="M15.9108944,3.0627698l-.1093573.6111426h-2.4004641v-.0262825c.1770289,0,.23624-.2054261.23624-.3371404V.3499373c0-.1317144-.059211-.3371404-.23624-.3371404V-.0134856h.8760818V.0127968c-.1601115,0-.2229477.1685702-.2356358.2948468v3.2608368h1.2416193c.2108638,0,.5727762-.3634229.6108405-.5057107h.0169156Z"/>
          <path class="cls-1" d="M16.0939671,1.0662097v-.0262825h.6150698v2.2599889c0,.0317202.0042294.0685761.0126881.1105676.0084587.0368559.0211468.0791495.0416894.1105676.0169174.0368559.0422936.0685761.0718991.0897229.0296055.0262825.0670656.0368559.1135885.0368559v.0262825h-.854935v-.0262825c.1812583,0,.23624-.2159995.23624-.3477138v-1.775425c0-.2262708-.0549817-.4582814-.23624-.4582814ZM16.3006016.5396543c0-.1634346.1558821-.4057165.3365362-.4057165.0930459,0,.130506.0580027.130506.13685,0,.1634346-.1552779.4057165-.3407656.4057165-.0882124,0-.1262766-.0580027-.1262766-.13685Z"/>
          <path class="cls-1" d="M18.5542464,1.0927942c-.4972519,0-.8337882.9479809-.8337882,2.2071219,0,.0317202.0042294.0685761.0126881.1105676.0084587.0368559.0211468.0791495.0416894.1105676.0169174.0368559.0422936.0685761.0718991.0897229.0296055.0262825.0670656.0368559.1135885.0368559v.0262825h-.854935v-.0262825c.1812583,0,.23624-.2159995.23624-.3477138v-1.775425c0-.2262708-.0549817-.4582814-.23624-.4582814v-.0262825h.6150698v1.4751404c.1135885-.9588564.4422702-1.5277054.9642941-1.5277054,1.1111134,0,.9008537,2.6602676,1.5703011,2.6602676v.0262825h-.2737c-.8881657,0-.6821354-2.5811182-1.427107-2.5811182Z"/>
          <path class="cls-1" d="M22.30871,2.973349c-.2314064.4371346-.6440712.7691394-1.0736533.7691394-.6736767,0-.9642941-.4582814-.9642941-1.0008479,0-.7902862.6144656-1.7491426,1.5787598-1.7491426.4930226,0,.724429.2951489.724429.6479984,0,.5268575-.5093358,1.1799915-1.4313364,1.1799915-.1558821,0-.3286817-.0157091-.5057107-.0580027-.0126881.4688548.1643409.8534245.6192992.8534245.3957473,0,.8126414-.2842734,1.0059836-.6742809l.046523.0317202ZM20.6369043,2.7044826c.1178179.037158.2320106.052867.3413698.052867.749201,0,1.2754542-.7640037,1.2754542-1.2697144,0-.2474176-.130506-.4316968-.4211234-.4316968-.6567592,0-1.153407.9165628-1.1957006,1.6485442Z"/>
          <path class="cls-1" d="M24.8288045,2.3570708c-.0966711.6582697-.3196188,1.3694064-.9135418,1.3694064-.8676231,0-.9050831-.7268458-.9050831-1.4642649v-.7377213c0-.2262708-.059211-.4582814-.2356358-.4582814v-.0262825h.6144656v1.2642766c0,.6637075.0253762,1.3171436.665218,1.3171436.5516294,0,.749201-1.1537091.7745771-1.8808569v-.2211351c0-.2211351-.0586068-.4531457-.2356358-.4531457v-.0262825h.6144656v2.2282687c.0126881.1422878.0761285.379434.23624.379434v.0262825h-.2483239c-.2235519,0-.366746-.1579968-.366746-.3845697v-.9322718Z"/>
          <path class="cls-1" d="M28.0697029,2.6676267c0,.5797245-.3033056,1.0854351-.9558354,1.0854351-.450729,0-.7957239-.4111542-.9220005-1.0748617v1.9808511c.0042294.0211468.0084587.0419915.0126881.068274.0084587.037158.0211468.0740138.0380642.1108697.0205426.0368559.0416894.068274.0712949.0894208.0296055.0262825.0670656.0368559.1135885.0368559v.0262825h-.8507056v-.0262825c.1685702,0,.2320106-.189717.23624-.3159936V1.524491c0-.2262708-.0549817-.4582814-.23624-.4582814v-.0262825h.6150698c.0882124,0,.2229477-.0368559.3999766-.0368559.9431473,0,1.4778593.8957181,1.4778593,1.6645554ZM27.6824143,2.6624911c0-.7217101-.4126647-1.5751346-1.1745538-1.5751346-.1268808,0-.2320106.0054377-.3159936.0105734l.0042294,1.0537149c0,.9005516.404206,1.4959852.808412,1.4959852.4585835,0,.677906-.4582814.677906-.9851388Z"/>
        </g>
        <g>
          <path class="cls-1" d="M29.227638,2.2570819c-.0114115,0-.0228229-.0022375-.0331156-.0057057-.0104046-.004587-.0195785-.0114115-.0286405-.0194666-.0080552-.0080552-.0137609-.0172291-.0183479-.0275218s-.0069364-.0217042-.0069364-.0332275c0-.0114115.0023494-.0217042.0069364-.0321087.004587-.0114115.0102927-.0205854.0183479-.0286405.009062-.0079433.018236-.013649.0286405-.018236.0205854-.0091739.044639-.0091739.0652244,0,.0102927.004587.0194666.0102927.0275218.018236.0172291.0161103.0251724.0378145.0251724.0607493,0,.0115233-.0011188.0229348-.0057057.0332275s-.0102927.0194666-.0194666.0275218c-.0080552.0080552-.0172291.0148797-.0275218.0194666-.0102927.0034682-.0205854.0057057-.0321087.0057057Z"/>
          <path class="cls-1" d="M40.8969831,2.1711603c0-.0469884.0389332-.0859216.0859216-.0859216h0c.0481072,0,.0859216.0389332.0859216.0859216h0c0,.0481072-.0378145.0859216-.0859216.0859216h0c-.0469884,0-.0859216-.0378145-.0859216-.0859216ZM40.4456707,2.1711603c0-.0469884.0377026-.0859216.084691-.0859216h0c.0481072,0,.0871523.0389332.0871523.0859216h0c0,.0481072-.0390451.0859216-.0871523.0859216h0c-.0469884,0-.084691-.0378145-.084691-.0859216ZM39.9931277,2.1711603c0-.0469884.0378145-.0859216.0859216-.0859216h0c.0469884,0,.0859216.0389332.0859216.0859216h0c0,.0481072-.0389332.0859216-.0859216.0859216h0c-.0481072,0-.0859216-.0378145-.0859216-.0859216ZM39.5405847,2.1711603c0-.0469884.0389332-.0859216.0859216-.0859216h0c.0481072,0,.0859216.0389332.0859216.0859216h0c0,.0481072-.0378145.0859216-.0859216.0859216h0c-.0469884,0-.0859216-.0378145-.0859216-.0859216ZM39.0891604,2.1711603c0-.0469884.0378145-.0859216.0859216-.0859216h0c.0469884,0,.0859216.0389332.0859216.0859216h0c0,.0481072-.0389332.0859216-.0859216.0859216h0c-.0481072,0-.0859216-.0378145-.0859216-.0859216ZM38.6367293,2.1711603c0-.0469884.0378145-.0859216.0859216-.0859216h0c.0468765,0,.0859216.0389332.0859216.0859216h0c0,.0481072-.0390451.0859216-.0859216.0859216h0c-.0481072,0-.0859216-.0378145-.0859216-.0859216ZM38.1841862,2.1711603c0-.0469884.0389332-.0859216.0859216-.0859216h0c.0481072,0,.0859216.0389332.0859216.0859216h0c0,.0481072-.0378145.0859216-.0859216.0859216h0c-.0469884,0-.0859216-.0378145-.0859216-.0859216ZM37.732762,2.1711603c0-.0469884.0378145-.0859216.0848029-.0859216h0c.0481072,0,.0870404.0389332.0870404.0859216h0c0,.0481072-.0389332.0859216-.0870404.0859216h0c-.0469884,0-.0848029-.0378145-.0848029-.0859216ZM37.2802189,2.1711603c0-.0469884.0378145-.0859216.0859216-.0859216h0c.0469884,0,.0859216.0389332.0859216.0859216h0c0,.0481072-.0389332.0859216-.0859216.0859216h0c-.0481072,0-.0859216-.0378145-.0859216-.0859216ZM36.8277878,2.1711603c0-.0469884.0389332-.0859216.0859216-.0859216h0c.0468765,0,.0859216.0389332.0859216.0859216h0c0,.0481072-.0390451.0859216-.0859216.0859216h0c-.0469884,0-.0859216-.0378145-.0859216-.0859216ZM36.3763635,2.1711603c0-.0469884.0378145-.0859216.0848029-.0859216h0c.0481072,0,.0859216.0389332.0859216.0859216h0c0,.0481072-.0378145.0859216-.0859216.0859216h0c-.0469884,0-.0848029-.0378145-.0848029-.0859216ZM35.9238205,2.1711603c0-.0469884.0378145-.0859216.0859216-.0859216h0c.0469884,0,.0859216.0389332.0859216.0859216h0c0,.0481072-.0389332.0859216-.0859216.0859216h0c-.0481072,0-.0859216-.0378145-.0859216-.0859216ZM35.4712775,2.1711603c0-.0469884.0390451-.0859216.0859216-.0859216h0c.0469884,0,.0859216.0389332.0859216.0859216h0c0,.0481072-.0389332.0859216-.0859216.0859216h0c-.0468765,0-.0859216-.0378145-.0859216-.0859216ZM35.0188463,2.1711603c0-.0469884.0389332-.0859216.0859216-.0859216h0c.0481072,0,.0859216.0389332.0859216.0859216h0c0,.0481072-.0378145.0859216-.0859216.0859216h0c-.0469884,0-.0859216-.0378145-.0859216-.0859216ZM34.567422,2.1711603c0-.0469884.0378145-.0859216.0859216-.0859216h0c.0469884,0,.0859216.0389332.0859216.0859216h0c0,.0481072-.0389332.0859216-.0859216.0859216h0c-.0481072,0-.0859216-.0378145-.0859216-.0859216ZM34.114879,2.1711603c0-.0469884.0389332-.0859216.0859216-.0859216h0c.0469884,0,.0859216.0389332.0859216.0859216h0c0,.0481072-.0389332.0859216-.0859216.0859216h0c-.0469884,0-.0859216-.0378145-.0859216-.0859216ZM33.6624478,2.1711603c0-.0469884.0389332-.0859216.0859216-.0859216h0c.0481072,0,.0859216.0389332.0859216.0859216h0c0,.0481072-.0378145.0859216-.0859216.0859216h0c-.0469884,0-.0859216-.0378145-.0859216-.0859216ZM33.2110236,2.1711603c0-.0469884.0378145-.0859216.0859216-.0859216h0c.0469884,0,.0859216.0389332.0859216.0859216h0c0,.0481072-.0389332.0859216-.0859216.0859216h0c-.0481072,0-.0859216-.0378145-.0859216-.0859216ZM32.7584806,2.1711603c0-.0469884.0389332-.0859216.0859216-.0859216h0c.0469884,0,.0859216.0389332.0859216.0859216h0c0,.0481072-.0389332.0859216-.0859216.0859216h0c-.0469884,0-.0859216-.0378145-.0859216-.0859216ZM32.3059375,2.1711603c0-.0469884.0390451-.0859216.0859216-.0859216h0c.0481072,0,.0859216.0389332.0859216.0859216h0c0,.0481072-.0378145.0859216-.0859216.0859216h0c-.0468765,0-.0859216-.0378145-.0859216-.0859216ZM31.8546251,2.1711603c0-.0469884.0378145-.0859216.0859216-.0859216h0c.0469884,0,.0859216.0389332.0859216.0859216h0c0,.0481072-.0389332.0859216-.0859216.0859216h0c-.0481072,0-.0859216-.0378145-.0859216-.0859216ZM31.4020821,2.1711603c0-.0469884.0378145-.0859216.0859216-.0859216h0c.0469884,0,.0859216.0389332.0859216.0859216h0c0,.0481072-.0389332.0859216-.0859216.0859216h0c-.0481072,0-.0859216-.0378145-.0859216-.0859216ZM30.9495391,2.1711603c0-.0469884.0389332-.0859216.0859216-.0859216h0c.0481072,0,.0859216.0389332.0859216.0859216h0c0,.0481072-.0378145.0859216-.0859216.0859216h0c-.0469884,0-.0859216-.0378145-.0859216-.0859216ZM30.4982267,2.1711603c0-.0469884.0378145-.0859216.084691-.0859216h0c.0481072,0,.0871523.0389332.0871523.0859216h0c0,.0481072-.0390451.0859216-.0871523.0859216h0c-.0468765,0-.084691-.0378145-.084691-.0859216ZM30.0456837,2.1711603c0-.0469884.0378145-.0859216.0859216-.0859216h0c.0469884,0,.0859216.0389332.0859216.0859216h0c0,.0481072-.0389332.0859216-.0859216.0859216h0c-.0481072,0-.0859216-.0378145-.0859216-.0859216ZM29.5931406,2.1711603c0-.0469884.0389332-.0859216.0859216-.0859216h0c.0481072,0,.0859216.0389332.0859216.0859216h0c0,.0481072-.0378145.0859216-.0859216.0859216h0c-.0469884,0-.0859216-.0378145-.0859216-.0859216Z"/>
          <path class="cls-1" d="M41.4354478,2.2570819c-.0114115,0-.0229348-.0022375-.0332275-.0057057-.0102927-.004587-.0194666-.0114115-.0275218-.0194666-.0159984-.0161103-.0251724-.0366957-.0251724-.0607493,0-.0229348.0091739-.044639.0251724-.0607493.0080552-.0079433.0172291-.013649.0275218-.018236.0205854-.0080552.0458696-.0080552.066455,0,.0102927.004587.0194666.0102927.0275218.018236.0159984.0161103.0251724.0378145.0251724.0607493s-.0091739.044639-.0251724.0607493c-.0080552.0080552-.0172291.0148797-.0275218.0194666-.0102927.0034682-.021816.0057057-.0332275.0057057Z"/>
        </g>
        <g>
          <path class="cls-1" d="M.094551,2.2570819c-.0114674,0-.021816-.0022375-.0321087-.0057057-.0102927-.004587-.0205854-.0114115-.0286405-.0194666-.0079992-.0080552-.0137609-.0172291-.0183479-.0275218-.004531-.0102927-.0068245-.0217042-.0068245-.0332275,0-.0229348.009118-.0435202.0251724-.0607493.0080552-.0079433.0183479-.013649.0286405-.018236.0206413-.0080552.0446949-.0080552.0653362,0,.0102927.004587.0194666.0102927.0274658.018236.0160544.0172291.0252283.0378145.0252283.0607493,0,.0115233-.0022935.0229348-.0057617.0332275-.004587.0102927-.0114674.0194666-.0194666.0275218s-.0171731.0148797-.0274658.0194666c-.0103486.0034682-.021816.0057057-.0332275.0057057Z"/>
          <path class="cls-1" d="M11.7649589,2.1711603c0-.0469884.0389892-.0859216.0859216-.0859216h0c.0481631,0,.0859216.0389332.0859216.0859216h0c0,.0481072-.0377585.0859216-.0859216.0859216h0c-.0469325,0-.0859216-.0378145-.0859216-.0859216ZM11.3135906,2.1711603c0-.0469884.0378145-.0859216.0848029-.0859216h0c.0481072,0,.0859216.0389332.0859216.0859216h0c0,.0481072-.0378145.0859216-.0859216.0859216h0c-.0469884,0-.0848029-.0378145-.0848029-.0859216ZM10.8611035,2.1711603c0-.0469884.0377585-.0859216.0859216-.0859216h0c.0469325,0,.0859216.0389332.0859216.0859216h0c0,.0481072-.0389892.0859216-.0859216.0859216h0c-.0481631,0-.0859216-.0378145-.0859216-.0859216ZM10.4085605,2.1711603c0-.0469884.0389332-.0859216.0859216-.0859216h0c.0469884,0,.0859216.0389332.0859216.0859216h0c0,.0481072-.0389332.0859216-.0859216.0859216h0c-.0469884,0-.0859216-.0378145-.0859216-.0859216ZM9.9560174,2.1711603c0-.0469884.0389892-.0859216.0859216-.0859216h0c.0481631,0,.0859216.0389332.0859216.0859216h0c0,.0481072-.0377585.0859216-.0859216.0859216h0c-.0469325,0-.0859216-.0378145-.0859216-.0859216ZM9.5046491,2.1711603c0-.0469884.0378145-.0859216.0859216-.0859216h0c.0469884,0,.0859216.0389332.0859216.0859216h0c0,.0481072-.0389332.0859216-.0859216.0859216h0c-.0481072,0-.0859216-.0378145-.0859216-.0859216ZM9.052162,2.1711603c0-.0469884.0389332-.0859216.0859216-.0859216h0c.0469325,0,.0859216.0389332.0859216.0859216h0c0,.0481072-.0389892.0859216-.0859216.0859216h0c-.0469884,0-.0859216-.0378145-.0859216-.0859216ZM8.599619,2.1711603c0-.0469884.0389332-.0859216.0859216-.0859216h0c.0481072,0,.0859216.0389332.0859216.0859216h0c0,.0481072-.0378145.0859216-.0859216.0859216h0c-.0469884,0-.0859216-.0378145-.0859216-.0859216ZM8.1482507,2.1711603c0-.0469884.0378145-.0859216.0859216-.0859216h0c.0469884,0,.0859216.0389332.0859216.0859216h0c0,.0481072-.0389332.0859216-.0859216.0859216h0c-.0481072,0-.0859216-.0378145-.0859216-.0859216ZM7.6957076,2.1711603c0-.0469884.0389892-.0859216.0859216-.0859216h0c.0469884,0,.0859216.0389332.0859216.0859216h0c0,.0481072-.0389332.0859216-.0859216.0859216h0c-.0469325,0-.0859216-.0378145-.0859216-.0859216ZM7.2432206,2.1711603c0-.0469884.0389332-.0859216.0859216-.0859216h0c.0481072,0,.0859216.0389332.0859216.0859216h0c0,.0481072-.0378145.0859216-.0859216.0859216h0c-.0469884,0-.0859216-.0378145-.0859216-.0859216ZM6.7918522,2.1711603c0-.0469884.0378145-.0859216.0859216-.0859216h0c.0469325,0,.0859216.0389332.0859216.0859216h0c0,.0481072-.0389892.0859216-.0859216.0859216h0c-.0481072,0-.0859216-.0378145-.0859216-.0859216ZM6.3393092,2.1711603c0-.0469884.0389332-.0859216.0859216-.0859216h0c.0469884,0,.0859216.0389332.0859216.0859216h0c0,.0481072-.0389332.0859216-.0859216.0859216h0c-.0469884,0-.0859216-.0378145-.0859216-.0859216ZM5.8867662,2.1711603c0-.0469884.0389892-.0859216.0859216-.0859216h0c.0481631,0,.0859216.0389332.0859216.0859216h0c0,.0481072-.0377585.0859216-.0859216.0859216h0c-.0469325,0-.0859216-.0378145-.0859216-.0859216ZM5.4342791,2.1711603c0-.0469884.0389332-.0859216.0859216-.0859216h0c.0481072,0,.0870404.0389332.0870404.0859216h0c0,.0481072-.0389332.0859216-.0870404.0859216h0c-.0469884,0-.0859216-.0378145-.0859216-.0859216ZM4.9829107,2.1711603c0-.0469884.0389332-.0859216.0859216-.0859216h0c.0469325,0,.0859216.0389332.0859216.0859216h0c0,.0481072-.0389892.0859216-.0859216.0859216h0c-.0469884,0-.0859216-.0378145-.0859216-.0859216ZM4.5303677,2.1711603c0-.0469884.0389332-.0859216.0859216-.0859216h0c.0481072,0,.0859216.0389332.0859216.0859216h0c0,.0481072-.0378145.0859216-.0859216.0859216h0c-.0469884,0-.0859216-.0378145-.0859216-.0859216ZM4.0778806,2.1711603c0-.0469884.0389332-.0859216.0859216-.0859216h0c.0481072,0,.0870404.0389332.0870404.0859216h0c0,.0481072-.0389332.0859216-.0870404.0859216h0c-.0469884,0-.0859216-.0378145-.0859216-.0859216ZM3.6264564,2.1711603c0-.0469884.0389892-.0859216.0859216-.0859216h0c.0469884,0,.0859216.0389332.0859216.0859216h0c0,.0481072-.0389332.0859216-.0859216.0859216h0c-.0469325,0-.0859216-.0378145-.0859216-.0859216ZM3.1739693,2.1711603c0-.0469884.0389332-.0859216.0859216-.0859216h0c.0481072,0,.0859216.0389332.0859216.0859216h0c0,.0481072-.0378145.0859216-.0859216.0859216h0c-.0469884,0-.0859216-.0378145-.0859216-.0859216ZM2.7214262,2.1711603c0-.0469884.0389892-.0859216.0859216-.0859216h0c.0481072,0,.0859216.0389332.0859216.0859216h0c0,.0481072-.0378145.0859216-.0859216.0859216h0c-.0469325,0-.0859216-.0378145-.0859216-.0859216ZM2.2700579,2.1711603c0-.0469884.0378145-.0859216.0859216-.0859216h0c.0469884,0,.0859216.0389332.0859216.0859216h0c0,.0481072-.0389332.0859216-.0859216.0859216h0c-.0481072,0-.0859216-.0378145-.0859216-.0859216ZM1.8175708,2.1711603c0-.0469884.0389332-.0859216.0859216-.0859216h0c.0481072,0,.0859216.0389332.0859216.0859216h0c0,.0481072-.0378145.0859216-.0859216.0859216h0c-.0469884,0-.0859216-.0378145-.0859216-.0859216ZM1.3650278,2.1711603c0-.0469884.0389332-.0859216.0859216-.0859216h0c.0481072,0,.0859216.0389332.0859216.0859216h0c0,.0481072-.0378145.0859216-.0859216.0859216h0c-.0469884,0-.0859216-.0378145-.0859216-.0859216ZM.9136595,2.1711603c0-.0469884.0378145-.0859216.0859216-.0859216h0c.0469325,0,.0859216.0389332.0859216.0859216h0c0,.0481072-.0389892.0859216-.0859216.0859216h0c-.0481072,0-.0859216-.0378145-.0859216-.0859216ZM.4611164,2.1711603c0-.0469884.0389892-.0859216.0859216-.0859216h0c.0469884,0,.0859216.0389332.0859216.0859216h0c0,.0481072-.0389332.0859216-.0859216.0859216h0c-.0469325,0-.0859216-.0378145-.0859216-.0859216Z"/>
          <path class="cls-1" d="M12.3034236,2.2570819c-.0114674,0-.0229348-.0022375-.0332275-.0057057-.0102927-.004587-.0194666-.0114115-.0274658-.0194666-.0160544-.0161103-.0252283-.0378145-.0252283-.0607493s.0091739-.0435202.0252283-.0607493c.0079992-.0079433.0171731-.013649.0274658-.018236.0206413-.0080552.0446949-.0080552.066455,0,.0102927.004587.0194666.0102927.0274658.018236.0160544.0172291.0252283.0378145.0252283.0607493,0,.0115233-.0022935.0229348-.0068804.0332275s-.0102927.0194666-.0183479.0275218c-.0079992.0080552-.0171731.0148797-.0274658.0194666-.0102927.0034682-.0217601.0057057-.0332275.0057057Z"/>
        </g>
      </g>
    </g>
  </g>
</svg>