<?xml version="1.0" encoding="UTF-8"?>
<svg id="_レイヤー_2" data-name="レイヤー 2" xmlns="http://www.w3.org/2000/svg" viewBox="0 0 6.55 46.28">
  <defs>
    <style>
      .cls-1 {
        fill: #8c6464;
        stroke-width: 0px;
      }
    </style>
  </defs>
  <g id="lay">
    <g>
      <path class="cls-1" d="M2.44,2.36c-.05.15-.1.31-.16.51-.05.16-.19.2-.32.17-.14-.03-.27-.13-.25-.27,0-.02.01-.04.02-.07l.22-.44-.32-.06c-.05.15-.1.31-.16.51-.05.16-.19.2-.32.17-.14-.03-.27-.13-.25-.27,0-.02.01-.04.02-.06l.22-.44-.25-.04c-.09-.02-.11-.15-.09-.29.03-.18.13-.36.26-.33l.35.06c.07-.15.13-.29.19-.44l-.32-.06c-.08-.02-.1-.11-.09-.21.03-.15.13-.31.26-.29l.35.06c.06-.14.12-.29.19-.47.04-.09.13-.12.21-.11.09.02.18.09.16.2,0,.01,0,.03-.01.04l-.16.4.41.07c.05-.14.12-.29.18-.47.04-.09.13-.12.21-.11.1.02.18.09.16.2,0,.02,0,.03-.01.04-.06.15-.11.28-.16.4l.34.06c.08.02.1.11.09.21-.03.15-.13.31-.25.29l-.37-.07c-.06.16-.11.3-.16.45l.31.06c.1.02.12.15.1.28-.03.18-.15.37-.28.34l-.32-.06ZM1.99,1.15c-.06.16-.11.3-.17.45l.39.07c.06-.15.12-.29.18-.45l-.41-.07Z"/>
      <path class="cls-1" d="M2.73,4.41c.13.01.2.15.19.27,0,.11-.08.2-.21.21-.55,0-1.07,0-1.52-.04-.06.18-.14.32-.22.51.32-.13.72-.17.99-.15.72.07,1.07.45,1.01,1.11-.07.79-.7,1.11-2.14.98-.18-.02-.27-.26-.25-.47.02-.19.12-.34.31-.33,1.16.11,1.54-.02,1.58-.39.02-.25-.12-.4-.56-.44-.4-.04-.86.08-1.23.35-.05.04-.12.05-.17.05-.15-.01-.29-.15-.27-.3,0-.04.02-.08.04-.12.18-.29.32-.55.43-.84-.19-.02-.37-.05-.52-.07-.12-.02-.17-.14-.16-.25.01-.12.09-.23.2-.22h.02c.17.03.37.06.6.08.03-.1.05-.19.07-.28.03-.12.14-.16.26-.15.13.01.25.09.23.22,0,.08-.07.24-.07.25.42.03.9.04,1.38.03h.03Z"/>
      <path class="cls-1" d="M2.06,8.43c.5.04.89.34.89.9,0,.67-.31.99-.86.99-.1.45-.41.57-.89.57-.2,0-.28-.18-.28-.34,0-.16.07-.31.2-.31.26,0,.36,0,.4-.04-.24-.1-.47-.34-.47-.48,0-.13.12-.25.24-.25.05,0,.1.02.14.07.07.08.15.14.24.18,0-.05,0-.1,0-.16,0-.2,0-.46-.02-.71-.39.12-.79.5-.81,1.12,0,.14-.12.21-.23.21-.1,0-.2-.06-.22-.19-.02-.19-.02-.39-.02-.59,0-.32.03-.65.07-.97.02-.11.11-.15.21-.15.11,0,.22.06.22.17,0,.01,0,.02,0,.03-.03.16-.05.32-.07.49.22-.28.51-.45.83-.51v-.16s0-.01,0-.01c0-.1.11-.15.22-.15.1,0,.2.05.2.15v.15ZM2.11,9.78c.31-.03.42-.17.42-.46,0-.26-.16-.47-.45-.51.02.23.03.67.03.97Z"/>
      <path class="cls-1" d="M2,11.77c.17-.02.29.12.31.27,0,.07-.02.14-.07.2-.22.19-.5.4-.69.56.09-.02.24-.04.33-.05.7-.06,1.14.28,1.19.93.11,1.25-1.25,1.41-1.53,1.43-.58.05-1.04-.12-1.09-.67-.04-.51.35-.77.65-.8.48-.04.83.17,1.05.53.28-.11.41-.34.39-.55-.03-.28-.28-.45-.67-.42-.6.05-1.03.28-1.42.61-.04.03-.09.05-.14.06-.15.01-.3-.12-.31-.27,0-.07.02-.15.11-.21.49-.33.87-.58,1.44-1.1-.33.06-.63.11-.91.13-.06,0-.12.01-.18.01-.15.01-.24-.1-.25-.21s.05-.24.2-.25h.01c.07,0,.14-.01.22-.02.43-.04.9-.11,1.34-.18h.02ZM1.15,14.04c-.16.01-.21.08-.21.19.01.14.14.18.47.15.08,0,.17-.02.27-.03-.13-.21-.3-.32-.53-.3Z"/>
      <path class="cls-1" d="M3.83,16.91c.15,1.14.11,1.87-.61,2.02-.4.08-.77,0-.87-.49,0-.03-.01-.06-.02-.09-.01-.11-.04-.59-.05-.67v-.03c-.04-.16-.08-.2-.18-.18-.34.07-.58.56-.54,1.7,0,.15-.11.24-.25.27-.19.04-.43-.04-.47-.23-.02-.09.07-1.77.39-3.1.03-.11.11-.17.19-.19.13-.03.28.04.31.17,0,.03,0,.08,0,.12-.09.35-.13.73-.21,1.16.16-.26.35-.39.6-.44.37-.08.54.11.62.49,0,.04.02.08.02.12.01.09.05.3.06.37.04.19.11.25.25.22.25-.05.34-.66.29-1.17-.01-.14.08-.23.19-.25.12-.02.26.03.29.18v.02Z"/>
      <path class="cls-1" d="M1.63,20.46c-.03-.12,0-.27.16-.31.04,0,1-.18,2.02-.2.12,0,.2.08.23.18.03.12-.02.27-.16.31-.02,0-.04,0-.06,0-.58,0-1.41.09-1.94.19-.12.03-.21-.07-.24-.18ZM4.59,22.7c-1.02-.03-1.92.09-2.47.2-.13.02-.24-.13-.29-.3-.05-.18-.02-.38.15-.42.04-.01,1.18-.26,2.54-.26.13,0,.22.12.26.27.05.21.01.46-.14.5-.01,0-.03,0-.05,0ZM1.88,21.39c-.03-.13,0-.29.16-.33.14-.04,1.23-.18,1.9-.17.12,0,.19.08.22.18.04.14-.02.31-.16.34-.02,0-.05,0-.07,0-.53,0-1.33.06-1.81.15-.12.03-.21-.07-.24-.18Z"/>
      <path class="cls-1" d="M2.67,24.05c-.03-.14.09-.23.22-.26.13-.02.27.02.3.16l.23,1.26c.12.64.09,1.37-.33,1.84-.04.05-.09.07-.15.08-.2.04-.45-.19-.49-.4-.02-.1,0-.2.1-.28.37-.29.43-.68.34-1.19l-.22-1.23ZM3.54,23.88c-.03-.14.09-.24.22-.26.13-.02.27.02.29.17l.37,2.04s.03.06.05.06c.06-.01.53-.31.65-.91.03-.12.09-.18.18-.2.13-.02.29.08.32.24,0,.03,0,.05,0,.08-.07.79-.73,1.62-1.19,1.7-.21.04-.39-.08-.44-.35l-.47-2.56Z"/>
      <path class="cls-1" d="M3.66,30.92c-.19.02-.34-.22-.36-.45-.01-.17.05-.34.23-.37,1.23-.24,1.74-.83,1.8-1.79l-1.32.11c-.13.18-.65.79-.88.81-.16.01-.3-.13-.32-.28,0-.08.02-.15.1-.2.4-.27.75-.71.89-1.07.04-.09.13-.14.22-.15.14-.01.29.06.3.19,0,.07-.05.2-.06.21l1.1-.09c.31-.02.45.12.47.39,0,.02,0,.05,0,.07,0,1.23-.59,2.32-2.16,2.63h-.02Z"/>
      <path class="cls-1" d="M5.9,32.33c-.21,2.34-2.38,2.5-2.48,2.5-.19,0-.32-.25-.31-.47,0-.16.07-.31.24-.33,1.25-.14,1.88-.72,2.04-1.66h0s-.01-.03-.02-.03l-2.26-.03c-.14,0-.22-.13-.22-.25,0-.12.08-.25.22-.24l2.38.03c.27,0,.41.23.41.44v.04ZM6.07,32.05c-.05,0-.1-.02-.14-.08-.08-.1-.13-.16-.2-.23-.03-.03-.05-.07-.05-.1,0-.08.08-.15.17-.15.07,0,.14.04.35.3.03.03.04.07.04.1,0,.08-.08.15-.17.15ZM6.4,31.8s-.09-.02-.13-.07c-.07-.09-.15-.17-.2-.22-.04-.03-.05-.07-.05-.11,0-.07.07-.13.15-.13.05,0,.1,0,.34.29.03.03.04.06.04.09,0,.08-.07.14-.15.14Z"/>
      <path class="cls-1" d="M3.58,38.71c-.22-.02-.33-.28-.31-.5.02-.17.11-.31.29-.31,1.1,0,1.55-.31,1.71-.89h0s0-.02-.02-.02l-2.17-.2c-.14-.01-.2-.14-.19-.27.01-.12.09-.24.23-.23l2.36.22c.23.02.36.24.34.45-.06.63-.56,1.76-2.22,1.77h-.03ZM3.39,35.96c-.15-.01-.21-.15-.2-.27.01-.12.1-.24.25-.23l2.06.19c.15.01.21.15.2.27-.01.12-.09.24-.24.23l-2.06-.19Z"/>
      <path class="cls-1" d="M3,40.15l-.11.69c-.02.14-.17.19-.3.17-.13-.02-.24-.11-.22-.26l.13-.8c.05-.27.17-.35.45-.3l.79.13.05-.31c.02-.13.17-.17.3-.15.13.02.26.11.24.24l-.05.31.72.12c.34.06.45.2.4.52-.2,1.22-.54,2.17-2.22,2.12-.02,0-.03,0-.05,0-.22-.04-.31-.29-.27-.5.03-.18.14-.34.33-.33,1.33.05,1.53-.29,1.7-1.33l-1.88-.32Z"/>
      <path class="cls-1" d="M1.58,46.27s-.03,0-.04,0c-.19-.04-.27-.33-.22-.55.04-.16.15-.29.33-.27,1.31.15,2.11-.27,2.64-1.12.05-.09.15-.11.24-.09.13.03.24.15.21.31,0,.02,0,.04-.02.06-.56,1.15-1.62,1.78-3.13,1.67ZM2.74,44.26c-.18-.2-.51-.51-.75-.7-.09-.07-.12-.16-.1-.25.03-.13.17-.24.32-.2.16.04.77.57.91.72.08.08.09.16.07.24-.04.15-.22.28-.36.25-.04,0-.07-.03-.1-.06Z"/>
    </g>
  </g>
</svg>