<?xml version="1.0" encoding="UTF-8"?>
<svg id="_レイヤー_2" data-name="レイヤー 2" xmlns="http://www.w3.org/2000/svg" viewBox="0 0 13.24 66.1">
  <defs>
    <style>
      .cls-1 {
        stroke: #8c6464;
        stroke-linecap: round;
        stroke-linejoin: round;
        stroke-width: .15px;
      }

      .cls-1, .cls-2 {
        fill: #8c6464;
      }

      .cls-2 {
        stroke-width: 0px;
      }
    </style>
  </defs>
  <g id="lay">
    <g>
      <g>
        <path class="cls-1" d="M4.2.52h8.12c.35,0,.52-.12.84-.44v1.79c0,2.49-.79,3.32-1.91,3.32-1.42,0-1.83-1.35-2-2.75-.21,1.93-.63,3.63-2.84,3.63-1.85,0-3.05-.99-3.05-4.21V.08c.32.32.49.44.84.44ZM3.55,1.56c0,2.94,1.33,3.75,2.83,3.75,2.09,0,2.76-2.06,2.76-3.69v-.34H3.55v.28ZM9.34,1.62c0,1.16.43,2.81,1.92,2.81,1.04,0,1.71-.66,1.71-2.87v-.28h-3.63v.34Z"/>
        <path class="cls-1" d="M10.03,10.84l-2.21.15v-.15c1.62-.31,2.86-.78,2.86-1.34,0-.69-1.79-1.25-3.11-1.52h-3.36c-.35,0-.52.12-.84.44v-1.62c.32.32.49.44.84.44h5.32c.45,0,.59-.13.59-.29,0-.13-.11-.31-.2-.44h.14c.32.32.83.84.83,1.16,0,.24-.22.31-.87.31h-1.79c1.3.31,2.66.81,2.66,1.6,0,.5-.55,1.07-.85,1.25Z"/>
        <path class="cls-1" d="M10.88,15.26c0,2.28-1.46,3.9-3.81,3.9s-3.81-1.62-3.81-3.9,1.46-3.9,3.81-3.9,3.81,1.62,3.81,3.9ZM3.43,15.26c0,1.84,1.4,3.13,3.64,3.13s3.64-1.29,3.64-3.13-1.4-3.13-3.64-3.13-3.64,1.29-3.64,3.13Z"/>
        <path class="cls-1" d="M10.78,23.16l-6.09,1.5,5.25,1.25c.34.07.52.03.84-.22v1.07c-.32-.4-.5-.57-.84-.66l-6.68-1.6v-.19l5.9-1.54-5.9-1.4v-.19l6.68-1.74c.34-.09.52-.32.84-.65v1.66c-.32-.32-.5-.32-.84-.24l-5.25,1.29,6.09,1.46v.19Z"/>
        <path class="cls-1" d="M4.2,27.75h5.32c.45,0,.59-.13.59-.29,0-.13-.11-.31-.2-.44h.14c.32.32.83.84.83,1.16,0,.24-.22.31-.87.31h-1.54c1.04.34,2.41.93,2.41,2.12,0,.76-.57,1.44-2.03,1.44h-4.65c-.35,0-.52.12-.84.44v-1.62c.32.32.49.44.84.44h3.95c1.2,0,2.54-.1,2.54-.93,0-.87-1.49-1.56-2.52-1.9h-3.96c-.35,0-.52.12-.84.44v-1.62c.32.32.49.44.84.44Z"/>
        <path class="cls-1" d="M4.2,37.34h8.12c.35,0,.52-.12.84-.44v1.79c0,2.49-.79,3.32-1.91,3.32-1.42,0-1.83-1.35-2-2.75-.21,1.93-.63,3.63-2.84,3.63-1.85,0-3.05-.99-3.05-4.21v-1.79c.32.32.49.44.84.44ZM3.55,38.39c0,2.94,1.33,3.75,2.83,3.75,2.09,0,2.76-2.06,2.76-3.69v-.34H3.55v.28ZM9.34,38.44c0,1.16.43,2.81,1.92,2.81,1.04,0,1.71-.66,1.71-2.87v-.28h-3.63v.34Z"/>
        <path class="cls-1" d="M9.94,48.23h-5.74c-.35,0-.52.12-.84.44v-1.18h2.31c-1.04-.34-2.41-.93-2.41-2.12,0-.76.57-1.44,2.03-1.44h4.65c.35,0,.52-.12.84-.44v1.62c-.32-.32-.49-.44-.84-.44h-3.95c-1.21,0-2.54.1-2.54.93,0,.87,1.49,1.56,2.52,1.9h3.96c.35,0,.52-.12.84-.44v1.62c-.32-.32-.49-.44-.84-.44Z"/>
        <path class="cls-1" d="M4.2,49.76h5.32c.45,0,.59-.13.59-.29,0-.13-.11-.31-.2-.44h.14c.32.32.83.84.83,1.16,0,.24-.22.31-.87.31h-1.54c1.04.34,2.41.93,2.41,2.12,0,.76-.57,1.44-2.03,1.44h-4.65c-.35,0-.52.12-.84.44v-1.62c.32.32.49.44.84.44h3.95c1.2,0,2.54-.1,2.54-.93,0-.87-1.49-1.56-2.52-1.9h-3.96c-.35,0-.52.12-.84.44v-1.62c.32.32.49.44.84.44Z"/>
        <path class="cls-1" d="M4.2,55.58h5.32c.45,0,.59-.13.59-.29,0-.13-.11-.31-.2-.44h.14c.32.32.83.84.83,1.16,0,.24-.22.31-.87.31h-1.54c1.04.34,2.41.93,2.41,2.12,0,.76-.57,1.44-2.03,1.44h-4.65c-.35,0-.52.12-.84.44v-1.62c.32.32.49.44.84.44h3.95c1.2,0,2.54-.1,2.54-.93,0-.87-1.49-1.56-2.52-1.9h-3.96c-.35,0-.52.12-.84.44v-1.62c.32.32.49.44.84.44Z"/>
        <path class="cls-1" d="M9.94,65.35l-7.09-2.37c-.94-.31-2.12-.59-2.12-1.6,0-.65.48-1.12,1.23-1.12,1.33,0,1.51,1.43,1.53,2.65l6.44-2.28c.34-.12.52-.32.84-.65v1.66c-.32-.32-.5-.35-.84-.24l-5.41,1.94,5.41,1.79c.34.12.52.09.84-.19v1.07c-.32-.37-.5-.56-.84-.68ZM1.99,60.44c-.71,0-1.08.43-1.08.91,0,.85,1.12,1.13,1.95,1.43l.5.18c0-1.16-.11-2.52-1.37-2.52Z"/>
      </g>
      <g>
        <path class="cls-2" d="M.9.78c-.39,0-.67.02-.74.04,0,0,0,0,0,0-.04,0-.05-.07-.06-.3.11.02.25.02.57.02.29,0,.64,0,.69-.01.04,0,.05,0,.09-.02.01,0,.02,0,.02,0,.04,0,.08.04.15.12.04.05.05.07.05.09,0,.02,0,.03-.02.05-.02.03-.02.03-.07.19-.12.39-.37.73-.7.99-.13.1-.26.18-.29.18-.02,0-.03,0-.08-.05-.06-.06-.11-.09-.16-.13.32-.16.5-.3.67-.51.15-.19.25-.4.3-.64q-.17,0-.42,0ZM1.85.56s-.08.06-.09.06t-.05-.07c-.04-.06-.09-.13-.14-.18,0,0-.01-.01-.01-.02,0-.02.08-.08.11-.08.02,0,.04.02.11.1.06.07.1.13.1.14s0,.02-.03.04ZM1.95.45c-.05-.09-.1-.15-.16-.21,0,0-.01-.01-.01-.02,0-.01.01-.02.05-.05.03-.02.04-.03.06-.03.02,0,.08.06.16.15.03.04.05.07.05.08s0,.02-.03.04c-.04.03-.07.05-.08.05,0,0-.01,0-.02-.02Z"/>
        <path class="cls-2" d="M.29,3.26s-.02,0-.02,0c-.05,0-.07-.07-.08-.3.11.02.26.02.67.02.44,0,.56,0,.6,0,.03,0,.04,0,.08-.02.02,0,.03,0,.04,0,.03,0,.06.02.09.05.06.07.1.13.1.16,0,.02-.01.04-.04.07-.02.02-.03.04-.07.13-.15.32-.31.52-.57.69-.12.08-.31.16-.35.16-.03,0-.05-.01-.09-.06-.06-.07-.08-.09-.14-.12.25-.07.48-.2.64-.36.12-.12.22-.27.28-.46-.83.01-.99.02-1.14.05ZM1.01,2.48q.23,0,.48-.02h.03s.04.02.04.09c0,.03,0,.05,0,.07h0c0,.09,0,.11-.04.11,0,0-.03,0-.05,0-.04,0-.21,0-.28,0-.33,0-.56,0-.69.02h-.02c-.06,0-.07-.03-.08-.28.14.02.28.02.6.02Z"/>
        <path class="cls-2" d="M.85,4.85c0-.12,0-.18-.02-.28.15,0,.24.01.3.03.02,0,.03.02.03.03,0,.01,0,.02-.01.04-.02.03-.02.07-.02.18v.07h.28c.07,0,.11,0,.16-.02.03,0,.04-.01.05-.01.04,0,.1.05.18.13.04.04.05.06.05.08,0,.02,0,.03-.02.06-.02.04-.03.05-.05.17-.05.2-.09.31-.18.46-.14.25-.35.44-.61.57-.06.03-.1.05-.12.05s-.02,0-.04-.03c-.04-.05-.09-.09-.17-.15.18-.07.27-.12.37-.2.22-.15.36-.34.44-.59.04-.11.06-.19.06-.29-.2,0-.28,0-.46,0-.19,0-.31,0-.58,0q0,.14,0,.16c0,.05,0,.1,0,.18H.48s0,.04-.02.05c-.02,0-.09.01-.15.01-.08,0-.1,0-.1-.04,0-.01,0-.03,0-.06,0-.03,0-.26,0-.31,0-.07,0-.13,0-.23.06,0,.18.01.33.01h.31v-.07Z"/>
        <path class="cls-2" d="M1.84,7.23s.01.04.01.05c0,.02,0,.04-.04.08-.12.16-.25.29-.45.44-.22.17-.41.29-.67.41-.17.08-.18.08-.2.11-.02.02-.03.02-.04.02-.02,0-.04-.02-.07-.07-.04-.07-.09-.16-.11-.23.22-.05.49-.17.75-.33.34-.21.55-.42.72-.71.02.08.04.13.1.24ZM.37,6.86s.05-.05.07-.05c.04,0,.21.11.34.22.08.07.11.1.11.12,0,.02-.04.07-.09.13-.05.05-.07.07-.09.07t-.11-.09c-.06-.05-.17-.15-.23-.18q-.08-.05-.09-.06s-.01-.01-.01-.02c0-.02.04-.08.1-.15Z"/>
        <path class="cls-2" d="M.8,9.09s0,.02-.02.04c-.02.04-.03.07-.06.2-.07.31-.18.58-.33.78-.06.09-.11.13-.14.13,0,0-.02,0-.03-.01-.07-.04-.13-.06-.22-.08.2-.18.36-.46.44-.8.03-.11.04-.22.04-.32v-.04c.19.02.32.06.32.1ZM1.62,10.19c-.11-.4-.28-.77-.46-1.04-.03-.04-.03-.04-.03-.05,0-.02.02-.03.08-.07.07-.04.1-.06.12-.06.02,0,.03,0,.11.14.1.15.2.35.31.63.08.19.12.33.12.37,0,.02-.01.04-.07.06-.05.03-.14.06-.16.06-.02,0-.03-.01-.04-.04ZM1.61,9.09c-.05-.09-.09-.15-.16-.22-.01-.01-.01-.02-.01-.02,0-.01.01-.03.05-.06.04-.02.05-.03.06-.03.02,0,.04.02.09.08.07.08.12.15.12.17,0,.03-.1.11-.13.11,0,0-.01,0-.02-.02ZM1.92,8.92s-.05.03-.06.03c0,0-.01,0-.02-.02-.06-.1-.09-.14-.17-.22,0,0-.01-.01-.01-.02,0-.02.09-.08.11-.08.02,0,.05.02.09.07.06.07.12.15.12.16,0,.02-.02.03-.07.07Z"/>
        <path class="cls-2" d="M.88,11.86c.4,0,.73,0,.89-.02.02,0,.04,0,.05,0,.01,0,.02,0,.03,0,.02,0,.02.05.02.17,0,.11,0,.12-.04.12t-.04,0c-.12-.01-.25-.01-.53-.01-.61,0-.89,0-1.03.03-.02,0-.03,0-.04,0-.05,0-.06-.04-.08-.3.18.01.39.02.77.02ZM.95,10.92c.29,0,.46,0,.59-.02.01,0,.02,0,.02,0,.02,0,.03,0,.04.04,0,.02,0,.09,0,.16,0,.07,0,.09-.04.09,0,0-.02,0-.04,0-.04,0-.37,0-.62,0-.17,0-.28,0-.4.01-.03,0-.06,0-.07,0-.03,0-.04-.01-.05-.03-.01-.03-.02-.16-.02-.26.13.02.27.03.58.03Z"/>
        <path class="cls-2" d="M1.14,12.82s.03.02.03.03c0,0,0,.03-.01.05-.02.08-.03.34-.03.84,0,.23,0,.68.01.75h0s0,.05-.02.05c-.01.01-.11.02-.19.02-.07,0-.08,0-.08-.05h0c0-.12.01-.7.01-.97,0-.51,0-.64-.03-.77.16,0,.23.02.3.03Z"/>
      </g>
    </g>
  </g>
</svg>