<?xml version="1.0" encoding="UTF-8"?>
<svg xmlns="http://www.w3.org/2000/svg" version="1.1" viewBox="0 0 48.0999985 7.9499998">
  <defs>
    <style>
      .cls-1 {
        fill: #7d7f81;
      }
    </style>
  </defs>
  <!-- Generator: Adobe Illustrator 28.6.0, SVG Export Plug-In . SVG Version: 1.2.0 Build 709)  -->
  <g>
    <g id="_レイヤー_2">
      <g>
        <path class="cls-1" d="M5.0047268.4578142v.0330722c-.2253522,0-.2999568.275345-.2999568.4430131v3.7417687c0,.1676682.0746046.442244.2999568.442244v.0338413h-1.115224v-.0338413c.2145845,0,.2899582-.2345816.3007259-.4022497V.6116382l-1.6082299,3.4402737h-.0699919L.7168829.7393122v3.7956071c.0269192.2676538.2299669.5829929.4445513.5829929v.0338413H.2077255v-.0338413c.2145845,0,.423016-.3214922.4445513-.589915V.8800611c-.0107677-.1607461-.0907562-.3891747-.2999568-.3891747v-.0330722h.7768112l1.6566844,3.0041826L4.1902287.4578142h.8144981Z"/>
        <path class="cls-1" d="M5.2070053,1.8322316v-.0338413h.7829641v2.8772778c0,.0399942.0053838.0869106.0161515.140749.0107677.0469163.0269192.1007547.0530693.140749.0215354.0469163.0538384.0869106.0915253.1138298.0376869.0338413.0853723.0469163.1445946.0469163v.0338413h-1.0883048v-.0338413c.230736,0,.3007259-.2745758.3007259-.442244v-2.2604436c0-.2876509-.0699899-.5829929-.3007259-.5829929ZM5.4700444,1.161559c0-.2076624.198433-.5160795.4283998-.5160795.1184445,0,.1661299.0738355.1661299.1738211,0,.2084315-.1976638.5168486-.4337837.5168486-.1122915,0-.1607461-.0738355-.1607461-.1745902Z"/>
        <path class="cls-1" d="M8.2742558,6.2177538c-.4283998-.0469163-1.141374.3753306-1.141374.9921648,0,.2145845.1230592.3022642.3053406.3022642.653752,0,2.1327697-1.1067637,2.1327697-1.878191,0-.3284142-.1445946-.4491661-.3584099-.4491661-.6222181,0-1.8605012.9860118-2.256598.9860118-.2738067,0-.4399366-.2953421-.4399366-.5160795,0-.4022497.4345528-.7583523.8952557-.7583523.1715138,0,.3430275.0469163.5037736.1615152l-1.0344664-2.7026876c-.0853723-.2276595-.2891891-.5230016-.4768544-.5230016v-.0338413h1.1144549l-.0053838.0338413c-.1338269,0-.19228.1138298-.19228.2484258,0,.0669134.0161515.1338269.0423016.2007403l.8629526,2.2196803.7937318-2.0520121c.032303-.0869106.0476854-.1745902.0476854-.2484258,0-.2276595-.1445946-.3684085-.2999568-.3684085v-.0338413h.9437102v.0338413c-.1930491,0-.4560881.2015094-.589915.5360766l-1.0883048,2.7834452h-.0046147.0046147c.3484114-.1815123.7129742-.3353363,1.0083163-.3353363.3430275,0,.5945297.3414893.5945297.8244966,0,1.3613424-1.1629094,2.1866081-1.9243382,2.1866081-.3645629,0-.6429843-.1945874-.6429843-.6176033,0-.6699035.7506611-1.1198387,1.211364-1.0729224l-.0053838.0807576ZM7.3736163,4.9640882c-.4876221,0-.782195.4291689-.782195.6499064,0,.147671.1069077.1745902.1876653.1745902.2038168,0,.6914389-.3353363,1.211364-.6099121-.230736-.1545931-.4399366-.2145845-.6168342-.2145845Z"/>
        <path class="cls-1" d="M9.7940369,3.1535798c.0053838-.8791041.4122483-1.4221028,1.1844425-1.4221028,1.415183,0,1.1467601,3.3864353,1.998945,3.3864353v.0338413h-.3484114c-.4930059,0-.7229728-.6306784-.8998704-1.3344232.0107677.8852571-.4883912,1.4351779-1.0775371,1.4351779-.7183581,0-1.2005963-.5168486-1.2005963-1.2613568,0-.3614864.1392107-.6368313.3430275-.8375717ZM11.0215524,2.6974916c.1661299,0,.326876.0269192.4445513.0669134-.1445946-.5099265-.326876-.8983321-.653752-.8983321-.5737635,0-.9275587.5230016-.9644765,1.2405905.3214922-.282267.782195-.4091718,1.1736771-.4091718ZM10.7962002,5.1179122c.4130174,0,.8791041-.4960824.8791041-1.2805848,0-.1276739-.0161515-.2684229-.0430707-.4091718-.0430707-.1945874-.0907562-.3822526-.1338269-.5629958-.1015238-.0407634-.2199683-.0607605-.3376437-.0607605-.5468443,0-1.2275155.4091718-1.2275155,1.1867521,0,.6775947.4291689,1.1267608.8629526,1.1267608Z"/>
        <path class="cls-1" d="M13.9618981,5.1517535l-1.0883048-2.8503586c-.0907562-.2276595-.2568861-.4691632-.4499352-.4691632v-.0338413h1.1098401l-.0107677.0338413c-.1399798,0-.2038168.0938326-.2038168.2215066,0,.0530693.0107677.1138298.0376869.1738211l.8837189,2.2735187.6652888-1.7235979-.1822814-.4760853c-.0861414-.2276595-.2576552-.4691632-.4453205-.4691632l-.0053838-.0338413h1.1098401l-.0053838.0338413c-.1392107,0-.2038168.0938326-.2038168.2215066,0,.0530693.0107677.1138298.032303.1738211l.8898718,2.2735187.7875789-2.0520121c.032303-.0869106.0484546-.1745902.0484546-.2484258,0-.2276595-.1445969-.3684085-.3007259-.3684085v-.0338413h.9437078v.0338413c-.1930467,0-.4553166.2015094-.5899126.5360766l-1.0875357,2.7834452h-.0807576l-.8683365-2.2735187-.8898718,2.2735187h-.09614Z"/>
        <path class="cls-1" d="M17.6590578,3.1535798c.0053838-.8791041.4122483-1.4221028,1.1844448-1.4221028,1.4151808,0,1.1467579,3.3864353,1.9989428,3.3864353v.0338413h-.3484114c-.4930059,0-.7229728-.6306784-.8998704-1.3344232.0107677.8852571-.4883912,1.4351779-1.0775371,1.4351779-.7183581,0-1.2005963-.5168486-1.2005963-1.2613568,0-.3614864.1392107-.6368313.3430275-.8375717ZM18.8865733,2.6974916c.1661299,0,.326876.0269192.4445513.0669134-.1445946-.5099265-.326876-.8983321-.653752-.8983321-.5737635,0-.9275587.5230016-.9644765,1.2405905.3214922-.282267.782195-.4091718,1.1736771-.4091718ZM18.6612211,5.1179122c.4130174,0,.8791041-.4960824.8791041-1.2805848,0-.1276739-.0161515-.2684229-.0430707-.4091718-.0430707-.1945874-.0907562-.3822526-.1338269-.5629958-.1015238-.0407634-.2199683-.0607605-.3376437-.0607605-.5468443,0-1.2275155.4091718-1.2275155,1.1867521,0,.6775947.4291689,1.1267608.8629526,1.1267608Z"/>
        <path class="cls-1" d="M20.9531987.1555501v-.0330722h.7829641v3.6479361c.1715138-.9660147.6699035-2.0120179,1.4736339-2.0120179.3753306,0,.5952989.275345.5952989.589915,0,.3622555-.2791906.7914245-.9490941.9590926.788348.1545931.7022065,1.8105084,1.4367161,1.8105084v.0338413h-.5037736c-.7022065,0-.7506611-1.7705142-1.4421-1.7705142v-.0738355c.6968227,0,1.0990725-.7106669,1.0990725-1.1398358,0-.1945874-.0753738-.3284142-.2361198-.3284142-.9537088,0-1.4520985,1.5490076-1.4736339,2.5811667v.2553478c0,.0399942.0053838.0869106.0161515.140749.0107677.0469163.0269192.0938326.0530693.140749.0430707.0869106.1238283.1607461.2361198.1607461v.0338413h-1.0883048v-.0338413c.230736,0,.3007259-.2745758.3007259-.442244V.7393122c0-.28842-.0699899-.5837621-.3007259-.5837621Z"/>
        <path class="cls-1" d="M24.4350048,1.8322316v-.0338413h.7829641v2.8772778c0,.0399942.0053838.0869106.0161515.140749.0107677.0469163.0269192.1007547.0530693.140749.0215354.0469163.0538384.0869106.0915253.1138298.0376869.0338413.0853723.0469163.1445946.0469163v.0338413h-1.0883048v-.0338413c.230736,0,.3007259-.2745758.3007259-.442244v-2.2604436c0-.2876509-.0699899-.5829929-.3007259-.5829929ZM24.6980439,1.161559c0-.2076624.198433-.5160795.4283998-.5160795.1184445,0,.1661299.0738355.1661299.1738211,0,.2084315-.1976638.5168486-.4337837.5168486-.1122915,0-.1607461-.0738355-.1607461-.1745902Z"/>
        <path class="cls-1" d="M27.4176521,3.8034861l.0376869-.0330722c.1822814.8383408.9698603,1.314426,1.6189976,1.314426.7445081,0,1.1521417-.4430131,1.1521417-1.012931,0-1.3813395-2.6373124-.7845024-2.6373124-2.3942705,0-.878335.7775803-1.2875068,1.5328561-1.2875068.7129742,0,1.4044131.3622555,1.4044131,1.0529253,0,.3822526-.2515022.6706726-.7129742.6706726-.1069077,0-.224583-.013075-.3537952-.0469163l.0053838-.0469163c.4507043.0269192.6752873-.2684229.6752873-.6037592,0-.5968371-.5299237-.9452485-1.0498488-.9452485-.5037736,0-1.0029325.3284142-1.0029325,1.0729224,0,1.1598329,2.6642316.7914245,2.6642316,2.3604292,0,.6906697-.7291257,1.3213481-1.6882184,1.3213481-.4930059,0-1.3882616-.3022642-1.6459168-1.4221028Z"/>
        <path class="cls-1" d="M31.5539766,3.1535798c.0053866-.8791041.4122511-1.4221028,1.1844475-1.4221028,1.4151808,0,1.1467579,3.3864353,1.9989428,3.3864353v.0338413h-.3484114c-.4930059,0-.7229728-.6306784-.8998704-1.3344232.0107677.8852571-.4883912,1.4351779-1.0775371,1.4351779-.7183581,0-1.2005963-.5168486-1.2005963-1.2613568,0-.3614864.1392107-.6368313.3430248-.8375717ZM32.7814949,2.6974916c.1661299,0,.326876.0269192.4445513.0669134-.1445946-.5099265-.326876-.8983321-.653752-.8983321-.5737635,0-.9275587.5230016-.9644765,1.2405905.3214922-.282267.782195-.4091718,1.1736771-.4091718ZM32.5561427,5.1179122c.4130174,0,.8791041-.4960824.8791041-1.2805848,0-.1276739-.0161515-.2684229-.0430707-.4091718-.0430707-.1945874-.0907562-.3822526-.1338269-.5629958-.1015238-.0407634-.2199683-.0607605-.3376437-.0607605-.5468443,0-1.2275155.4091718-1.2275155,1.1867521,0,.6775947.4291689,1.1267608.8629526,1.1267608Z"/>
        <path class="cls-1" d="M34.8481202.1555501v-.0330722h.7829641v3.6479361c.1715138-.9660147.6699035-2.0120179,1.4736339-2.0120179.3753306,0,.5952989.275345.5952989.589915,0,.3622555-.2791906.7914245-.9490941.9590926.788348.1545931.7022065,1.8105084,1.4367161,1.8105084v.0338413h-.5037736c-.7022065,0-.7506611-1.7705142-1.4421-1.7705142v-.0738355c.6968227,0,1.0990725-.7106669,1.0990725-1.1398358,0-.1945874-.0753738-.3284142-.2361198-.3284142-.9537088,0-1.4520985,1.5490076-1.4736339,2.5811667v.2553478c0,.0399942.0053838.0869106.0161515.140749.0107677.0469163.0269192.0938326.0530693.140749.0430707.0869106.1238283.1607461.2361198.1607461v.0338413h-1.0883048v-.0338413c.230736,0,.3007259-.2745758.3007259-.442244V.7393122c0-.28842-.0699899-.5837621-.3007259-.5837621Z"/>
        <path class="cls-1" d="M40.7203513,3.4750719c-.1230592.8383408-.4068645,1.743595-1.1629094,1.743595-1.1044563,0-1.1521417-.9252513-1.1521417-1.8643468v-.9390955c0-.2876509-.0753738-.5829929-.2999568-.5829929v-.0338413h.782195v1.6097681c0,.8444937.032303,1.6766816.8468011,1.6766816.7022065,0,.9537088-1.4690192.9860118-2.3942705v-.2814979c0-.2814979-.0746046-.57684-.2999568-.57684v-.0338413h.782195v2.8365145c.0161515.1815123.0969091.4830073.3007259.4830073v.0338413h-.3161083c-.2845744,0-.4668558-.2015094-.4668558-.4899294v-1.1867521Z"/>
        <path class="cls-1" d="M43.3292063,3.0997414c.1876653-.2015094.2730376-.4899294.2730376-.7375861,0-.275345-.1069077-.4960824-.294573-.4960824-.5629958,0-.8521849,1.2067492-.8521849,2.8095953,0,.0399942.0053838.0869106.0161515.140749.0107677.0469163.0269192.1007547.0530693.140749.0215354.0469163.0538384.0869106.0915253.1138298.0376869.0338413.0853723.0469163.1445946.0469163v.0338413h-1.0883048v-.0338413c.230736,0,.3007259-.2745758.3007259-.442244v-2.2604436c0-.2876509-.0699899-.5829929-.3007259-.5829929v-.0338413h.7829641v1.6966787c.1176754-1.1059945.4283998-1.7635921,1.0183149-1.7635921.423016,0,.6322166.3222613.6322166.6575976,0,.3684085-.2515022.7575832-.7391243.7706582l-.0376869-.0599914Z"/>
        <path class="cls-1" d="M44.4567361,3.1535798c.0053838-.8791041.4122483-1.4221028,1.1844448-1.4221028,1.4151808,0,1.1467579,3.3864353,1.9989428,3.3864353v.0338413h-.3484114c-.4930059,0-.7229728-.6306784-.8998704-1.3344232.0107677.8852571-.4883912,1.4351779-1.0775371,1.4351779-.7183581,0-1.2005963-.5168486-1.2005963-1.2613568,0-.3614864.1392107-.6368313.3430275-.8375717ZM45.6842516,2.6974916c.1661299,0,.326876.0269192.4445513.0669134-.1445946-.5099265-.326876-.8983321-.653752-.8983321-.5737635,0-.9275587.5230016-.9644765,1.2405905.3214922-.282267.782195-.4091718,1.1736771-.4091718ZM45.4588995,5.1179122c.4130174,0,.8791041-.4960824.8791041-1.2805848,0-.1276739-.0161515-.2684229-.0430707-.4091718-.0430707-.1945874-.0907562-.3822526-.1338269-.5629958-.1015238-.0407634-.2199683-.0607605-.3376437-.0607605-.5468443,0-1.2275155.4091718-1.2275155,1.1867521,0,.6775947.4291689,1.1267608.8629526,1.1267608Z"/>
      </g>
    </g>
  </g>
</svg>