<?xml version="1.0" encoding="UTF-8"?>
<svg id="_レイヤー_2" data-name="レイヤー 2" xmlns="http://www.w3.org/2000/svg" viewBox="0 0 34.79 9.62">
  <defs>
    <style>
      .cls-1 {
        stroke: #f096aa;
        stroke-linecap: round;
        stroke-linejoin: round;
        stroke-width: .1px;
      }

      .cls-1, .cls-2 {
        fill: #f096aa;
      }

      .cls-2 {
        stroke-width: 0px;
      }
    </style>
  </defs>
  <g id="lay">
    <g>
      <g>
        <path class="cls-1" d="M.3,5.4V.82c0-.2-.07-.29-.25-.47h1.51c1.9,0,3.2.94,3.2,2.77s-1.3,2.77-3.2,2.77H.05c.18-.18.25-.28.25-.47ZM1.39,5.76c1.74,0,2.95-.92,2.95-2.66S3.13.45,1.39.45h-.66v5.31h.66Z"/>
        <path class="cls-1" d="M7.27,5.88v-.9c-.17.43-.48.96-1.14.96-.77,0-1.04-.66-1.04-1.34,0-.49.15-1.54,1.14-1.54.61,0,.87.33,1.04.65v-.61c0-.44-.02-1.37-.59-1.37-.45,0-.89.56-1.23,1.16h-.08l.25-.93c.17-.09.45-.32.97-.32.76,0,1.1.48,1.1,1.3v2.47c0,.2.07.29.25.47h-.66ZM7.27,3.85c-.16-.33-.45-.73-.85-.73-.65,0-.9,1.02-.9,1.55s.28,1.18.76,1.18.83-.66.99-1.11v-.89Z"/>
        <path class="cls-1" d="M10.59,2.11l.08,1.25h-.08c-.17-.92-.44-1.61-.76-1.61-.39,0-.71,1.01-.86,1.75v1.9c0,.2.07.29.25.47h-.91c.18-.18.25-.28.25-.47v-3c0-.25-.08-.33-.17-.33-.08,0-.17.06-.25.11v-.08c.18-.18.47-.47.66-.47.13,0,.17.13.17.49v1.01c.17-.73.46-1.5.91-1.5.28,0,.61.31.71.48Z"/>
        <path class="cls-1" d="M12.99,2.16l-.68,1.05,1.18,2.19c.09.17.23.29.42.47h-.97c.18-.18.17-.32.08-.47l-.97-1.77-.54.83v.94c0,.2.07.29.25.47h-.91c.18-.18.25-.28.25-.47V.82c0-.25-.07-.33-.17-.33-.07,0-.17.06-.25.11v-.08c.18-.18.47-.47.66-.47.13,0,.17.13.17.49v3.74l1.35-2.12c.09-.14.11-.29,0-.47h.63c-.26.18-.4.32-.5.47Z"/>
        <path class="cls-1" d="M16.67,5.4V.82c0-.2-.07-.29-.25-.47h.95c.95,0,1.86.26,1.86,1.38s-.91,1.37-1.86,1.37h-.27v2.08c0,.36.23.53.42.71h-1.1c.18-.18.25-.28.25-.47ZM17.36,2.97c.79,0,1.43-.23,1.43-1.26s-.64-1.26-1.43-1.26h-.27v2.52h.27Z"/>
        <path class="cls-1" d="M22.1,3.11c.73.16,1.3.58,1.3,1.31,0,.85-.73,1.51-1.87,1.51-1.29,0-2.32-.82-2.32-2.15s1-2.15,2.2-2.15c.95,0,1.66.55,1.94,1.48h-1.26ZM19.74,3.11c-.06.21-.08.43-.08.67,0,1.26.85,2.05,1.96,2.05.91,0,1.71-.54,1.71-1.4,0-.8-.69-1.21-1.54-1.32h-2.05ZM22.91,3.02c-.25-.81-.78-1.3-1.49-1.3s-1.41.48-1.66,1.3h3.15Z"/>
        <path class="cls-1" d="M25.97,1.63c1.29,0,2.2.82,2.2,2.15s-.91,2.15-2.2,2.15-2.2-.82-2.2-2.15.91-2.15,2.2-2.15ZM25.97,5.84c1.04,0,1.77-.79,1.77-2.06s-.73-2.05-1.77-2.05-1.77.79-1.77,2.05.73,2.06,1.77,2.06Z"/>
        <path class="cls-1" d="M28.77,5.4v-3c0-.25-.08-.33-.17-.33-.08,0-.17.06-.25.11v-.08c.18-.18.47-.47.66-.47.13,0,.17.13.17.49v.87c.19-.58.52-1.36,1.2-1.36.43,0,.81.32.81,1.15v2.62c0,.2.07.29.25.47h-.91c.18-.18.25-.28.25-.47v-2.23c0-.68-.06-1.43-.52-1.43-.49,0-.88.84-1.07,1.42v2.24c0,.2.07.29.25.47h-.91c.18-.18.25-.28.25-.47Z"/>
        <path class="cls-1" d="M34.36,2.16l-1.34,4c-.17.53-.33,1.19-.91,1.19-.37,0-.63-.27-.63-.7,0-.75.81-.85,1.49-.86l-1.29-3.64c-.07-.19-.18-.29-.37-.47h.94c-.18.18-.2.28-.13.47l1.1,3.05,1.01-3.05c.07-.19.05-.29-.11-.47h.61c-.21.18-.31.28-.38.47ZM31.59,6.65c0,.4.24.61.52.61.48,0,.64-.63.8-1.1l.1-.28c-.66,0-1.42.06-1.42.77Z"/>
      </g>
      <g>
        <path class="cls-2" d="M10.66,8.66c-.07.05-.1.08-.12.08-.02,0-.02,0-.06-.04-.04-.04-.09-.08-.16-.11.24-.14.38-.27.51-.46.09-.13.16-.26.2-.38.23.09.29.11.29.15,0,.01,0,.02-.03.04-.02.02-.05.06-.11.15h.04c.08,0,.13,0,.14,0,.21,0,.27,0,.34-.03.02,0,.02,0,.04,0,.03,0,.06.02.13.11.05.06.07.09.07.11,0,.02,0,.03-.03.05-.02.02-.04.06-.08.12-.21.38-.36.58-.61.81-.2.18-.51.39-.57.39-.02,0-.04,0-.05-.03-.07-.06-.12-.1-.19-.13.3-.15.54-.31.75-.52t-.06-.07s-.1-.09-.21-.17c-.01-.01-.02-.02-.02-.03,0-.01.03-.04.11-.12.04-.04.05-.04.06-.04.04,0,.17.11.3.24.13-.17.23-.33.28-.48q-.25,0-.57,0c-.1.13-.23.26-.38.38ZM12.11,8.1s-.08.06-.09.06t-.05-.07c-.04-.06-.09-.13-.14-.18,0,0-.01-.01-.01-.02,0-.02.08-.08.11-.08.02,0,.04.02.11.1.06.07.1.13.1.14s0,.02-.03.04ZM12.21,7.98c-.05-.09-.1-.15-.16-.21,0,0-.01-.01-.01-.02,0-.01.01-.02.05-.05.03-.02.04-.03.06-.03.02,0,.08.06.16.15.03.04.05.07.05.08,0,.01,0,.02-.03.04-.04.03-.07.05-.08.05,0,0-.02,0-.02-.02Z"/>
        <path class="cls-2" d="M13.15,8.54c.4,0,.63,0,.86-.02h.03c.07,0,.07,0,.07.18,0,.09,0,.11-.04.11h0c-.15,0-.23,0-.86,0-.23,0-.35,0-.55,0h-.06c-.07,0-.08,0-.12,0-.01,0-.02,0-.02,0-.02,0-.04-.01-.04-.03-.01-.05-.02-.17-.02-.27.18.02.33.02.79.02Z"/>
        <path class="cls-2" d="M15.23,8.29c-.15.2-.41.44-.47.44-.02,0-.03,0-.07-.04-.03-.03-.09-.07-.16-.11.16-.09.32-.22.44-.36.13-.15.21-.28.28-.47.11.04.16.06.24.1.03.02.04.03.04.05,0,.02,0,.03-.03.04-.02.02-.04.04-.1.12h.33c.12,0,.14,0,.21-.02,0,0,.02,0,.02,0,.04,0,.07.03.14.11.04.05.05.07.05.1s0,.04-.04.07c-.02.02-.05.06-.07.1-.24.43-.47.7-.82.96-.15.11-.35.23-.39.23-.02,0-.03,0-.05-.03-.04-.04-.1-.08-.18-.13.32-.15.54-.31.77-.53.16-.16.27-.31.36-.49.02-.04.03-.07.07-.14h-.56Z"/>
        <path class="cls-2" d="M16.94,9.14c.03.05.13.07.35.07s.31,0,.62-.05c0,0,.01,0,.02,0,.02,0,.03.01.04.04,0,.04.02.15.02.18,0,.03-.01.05-.04.06-.07.02-.38.03-.63.03s-.38-.02-.49-.07c-.08-.04-.13-.1-.14-.17-.01-.05-.02-.1-.02-.19v-.09c0-.23,0-.26,0-.41,0-.38,0-.52-.03-.62.27.02.33.04.33.08,0,.01,0,.02-.01.04,0,.02-.01.04-.02.09,0,.07-.01.12-.01.23,0,.09,0,.15,0,.18.38-.11.69-.27.82-.41.11.13.17.24.17.27,0,.02,0,.03-.05.04-.03.01-.09.04-.17.08-.27.13-.46.2-.77.28,0,.27,0,.32.02.35ZM18.3,7.98c0,.13-.1.24-.24.24s-.24-.1-.24-.24.1-.24.24-.24.24.1.24.24ZM17.94,7.98c0,.06.05.12.12.12s.12-.05.12-.12-.05-.12-.12-.12-.12.05-.12.12Z"/>
        <path class="cls-2" d="M19.44,8.64c-.13.17-.29.33-.48.46-.13.09-.31.19-.34.19-.02,0-.02,0-.07-.06-.05-.06-.08-.09-.13-.13.21-.08.34-.16.5-.29.17-.13.26-.23.4-.41-.32,0-.55,0-.65.02-.02,0-.03,0-.04,0-.03,0-.04,0-.05-.02-.01-.04-.02-.13-.02-.25.1.01.43.02.71.02h.15v-.1c-.01-.15-.02-.21-.04-.3.13,0,.22.01.28.03.02,0,.03.02.03.03s0,.02-.02.04c-.01.02-.02.05-.02.1,0,.03,0,.07,0,.11v.09c.39,0,.44,0,.48,0t.04,0c.05,0,.06.01.06.12s0,.12-.04.12h-.01s-.02,0-.04,0h-.08c-.13,0-.31,0-.38,0l.02.54s0,.03.01.15c0,.09,0,.1,0,.13,0,.24-.08.31-.37.31-.09,0-.13,0-.15-.01-.02-.01-.03-.02-.04-.09-.02-.05-.04-.11-.08-.18.11.02.18.03.25.03.11,0,.13-.02.13-.09,0,0,0,0,0,0l-.02-.55Z"/>
        <path class="cls-2" d="M21.25,9.02c.4,0,.73,0,.89-.02.02,0,.04,0,.05,0,.01,0,.02,0,.03,0,.02,0,.02.05.02.17,0,.11,0,.12-.04.12t-.04,0c-.12-.01-.25-.01-.53-.01-.61,0-.9,0-1.03.03-.02,0-.03,0-.04,0-.05,0-.06-.04-.08-.3.18.01.39.02.77.02ZM21.32,8.07c.29,0,.46,0,.59-.02.01,0,.01,0,.02,0,.02,0,.03,0,.04.04,0,.02,0,.09,0,.16,0,.07,0,.09-.04.09,0,0-.02,0-.04,0-.04,0-.37,0-.62,0-.17,0-.28,0-.41.01-.03,0-.06,0-.07,0-.03,0-.04-.01-.05-.03-.01-.03-.02-.16-.02-.26.13.02.27.03.58.03Z"/>
        <path class="cls-2" d="M23.36,8.54c.4,0,.63,0,.86-.02h.03c.07,0,.07,0,.07.18,0,.09,0,.11-.04.11h0c-.15,0-.23,0-.86,0-.23,0-.35,0-.55,0h-.06c-.07,0-.08,0-.12,0-.01,0-.02,0-.02,0-.02,0-.04-.01-.04-.03-.01-.05-.02-.17-.02-.27.18.02.33.02.79.02Z"/>
      </g>
    </g>
  </g>
</svg>