<?xml version="1.0" encoding="UTF-8"?>
<svg id="_レイヤー_2" data-name="レイヤー 2" xmlns="http://www.w3.org/2000/svg" viewBox="0 0 31.09 9.6">
  <defs>
    <style>
      .cls-1 {
        stroke: #f096aa;
        stroke-linecap: round;
        stroke-linejoin: round;
        stroke-width: .1px;
      }

      .cls-1, .cls-2 {
        fill: #f096aa;
      }

      .cls-2 {
        stroke-width: 0px;
      }
    </style>
  </defs>
  <g id="lay">
    <g>
      <g>
        <path class="cls-1" d="M5.48.34c-.18.18-.25.28-.25.47v4.58c0,.2.07.29.25.47h-.93c.18-.18.25-.28.25-.47V.66l-1.97,5.22h-.12L.58.69v4.55c0,.36.23.45.42.63H.05c.18-.18.42-.28.42-.63V.82c0-.2-.07-.29-.25-.47h.68l2.03,4.96L4.8.34h.68Z"/>
        <path class="cls-1" d="M8.63,3.11c.73.16,1.3.58,1.3,1.31,0,.85-.73,1.51-1.87,1.51-1.29,0-2.32-.82-2.32-2.15s1-2.15,2.2-2.15c.96,0,1.66.55,1.94,1.48h-1.26ZM6.26,3.11c-.06.21-.08.43-.08.67,0,1.27.85,2.05,1.96,2.05.91,0,1.71-.54,1.71-1.4,0-.8-.69-1.21-1.54-1.32h-2.05ZM9.44,3.02c-.25-.81-.78-1.3-1.49-1.3s-1.41.48-1.66,1.3h3.15Z"/>
        <path class="cls-1" d="M10.55,5.4V.82c0-.25-.07-.33-.17-.33-.07,0-.17.06-.25.11v-.08c.18-.18.47-.47.66-.47.13,0,.17.13.17.49v4.86c0,.2.07.29.25.47h-.91c.18-.18.25-.28.25-.47Z"/>
        <path class="cls-1" d="M12.1.67h.08v1.01h.58v.09h-.58v2.31c1.34.18,1.59,1.85.42,1.85-.2,0-.83-.05-.83-.96V1.77h-.42v-.09c.43,0,.75-.7.75-1.01ZM12.19,4.82c0,.89.27,1.01.51,1.01.85,0,.76-1.49-.51-1.69v.68Z"/>
        <path class="cls-1" d="M15.91,2.16l-1.34,4c-.17.53-.33,1.19-.91,1.19-.37,0-.63-.27-.63-.7,0-.75.81-.85,1.49-.86l-1.29-3.64c-.07-.19-.18-.29-.37-.47h.94c-.18.18-.2.28-.13.47l1.1,3.05,1.01-3.05c.07-.19.05-.29-.11-.47h.61c-.21.18-.31.28-.38.47ZM13.14,6.65c0,.4.24.61.52.61.48,0,.64-.63.8-1.1l.1-.28c-.66,0-1.42.06-1.42.77Z"/>
        <path class="cls-1" d="M24.17.34c-.18.18-.25.28-.25.47v4.58c0,.2.07.29.25.47h-.93c.18-.18.25-.28.25-.47V.66l-1.97,5.22h-.12l-2.12-5.19v4.55c0,.36.23.45.42.63h-.95c.18-.18.42-.28.42-.63V.82c0-.2-.07-.29-.25-.47h.68l2.03,4.96,1.87-4.96h.68Z"/>
        <path class="cls-1" d="M25.04,5.4v-3c0-.25-.08-.33-.17-.33-.08,0-.17.06-.25.11v-.08c.18-.18.47-.47.66-.47.13,0,.17.13.17.49v3.28c0,.2.07.29.25.47h-.91c.18-.18.25-.28.25-.47ZM25.16.29c.22,0,.35.13.35.33s-.13.33-.35.33-.35-.13-.35-.33.13-.33.35-.33Z"/>
        <path class="cls-1" d="M28.47,2.11l.08,1.01h-.08c-.17-.68-.48-1.4-1.08-1.4-.41,0-.68.36-.68.76,0,1.07,2.05,1.26,2.05,2.49,0,.64-.56.96-1.25.96-.82,0-1.18-.39-1.29-.48l-.17-1.09h.08c.26.68.79,1.48,1.44,1.48.43,0,.77-.36.77-.8,0-1.04-2.04-1.23-2.04-2.48,0-.61.47-.92,1.09-.92.7,0,.97.39,1.09.48Z"/>
        <path class="cls-1" d="M29.8.67h.08v1.01h.58v.09h-.58v2.31c1.34.18,1.58,1.85.42,1.85-.2,0-.83-.05-.83-.96V1.77h-.42v-.09c.43,0,.75-.7.75-1.01ZM29.88,4.82c0,.89.27,1.01.51,1.01.86,0,.76-1.49-.51-1.69v.68Z"/>
      </g>
      <g>
        <path class="cls-2" d="M9.22,8.01c.02-.07.04-.11.05-.19.19.07.31.13.31.18,0,.01,0,.02-.02.04-.04.04-.07.09-.11.17-.11.23-.17.33-.27.5.1.08.2.18.27.26.02.02.03.04.03.05,0,.02-.03.06-.09.13-.05.05-.07.07-.09.07-.01,0-.02,0-.04-.03-.13-.15-.15-.17-.24-.26-.19.23-.4.44-.61.57-.07.05-.11.06-.13.06-.02,0-.02,0-.08-.05-.04-.03-.09-.07-.16-.11.3-.15.55-.36.77-.65-.1-.09-.16-.12-.34-.25-.04-.03-.05-.03-.05-.04,0-.03.03-.06.1-.14.02-.03.04-.04.06-.04.03,0,.18.1.38.26.11-.19.19-.34.26-.51Z"/>
        <path class="cls-2" d="M10.52,7.97s.03.02.03.04c0,0,0,.01,0,.03-.01.05-.01.08-.01.17,0,.54-.1.88-.33,1.17-.05.06-.07.08-.09.08,0,0-.02,0-.04-.01-.06-.04-.11-.06-.21-.08.15-.15.21-.24.28-.38.09-.21.13-.42.13-.73,0-.15,0-.21-.02-.32.12,0,.22.02.28.04ZM10.75,8.18c0-.11,0-.19-.02-.29.24,0,.32.03.32.07,0,.01,0,.02-.01.04,0,.01-.01.05-.01.08q0,.06-.01,1.03c.28-.16.46-.31.65-.54,0,.12.01.2.03.26,0,.02,0,.03,0,.04,0,.04-.02.06-.12.16-.16.15-.27.23-.48.33-.05.02-.08.04-.1.07-.01.01-.04.02-.05.02-.03,0-.11-.05-.16-.11-.04-.04-.06-.08-.06-.11,0-.01,0-.02,0-.04.01-.04.02-.08.02-.2v-.83Z"/>
        <path class="cls-2" d="M12.15,8.62s-.04,0-.05,0-.02,0-.02,0h-.02s-.04-.01-.04-.04c-.01-.05-.02-.13-.02-.23.1.01.12.01.34.02.29,0,.46,0,.52,0,.37,0,.8,0,.87-.01h.02s.03,0,.03.15c0,.1,0,.11-.04.11h-.01c-.1,0-.14,0-.66-.01,0,.17-.02.24-.05.34-.07.25-.2.42-.42.56-.06.04-.11.06-.13.06-.01,0-.02,0-.04-.02-.08-.08-.11-.1-.18-.14.39-.18.53-.39.55-.8-.36,0-.48,0-.65,0ZM12.92,7.88c.21,0,.44,0,.53-.02h.01s.04.01.04.08v.05s0,.04,0,.06c0,.06,0,.07-.05.07h-.03c-.06,0-.46,0-.56,0-.26,0-.46,0-.53.01,0,0-.01,0-.02,0-.02,0-.03,0-.04-.03,0-.05-.02-.15-.02-.24.09.01.38.02.65.02Z"/>
        <path class="cls-2" d="M14.67,8.87c-.17.11-.4.23-.44.23t-.06-.05s-.08-.08-.14-.12c.29-.09.58-.26.84-.49.11-.09.15-.15.21-.24.12.08.2.16.2.19,0,.01,0,.02-.03.03-.03.01-.05.03-.12.09-.05.04-.13.11-.23.19v.35c0,.19,0,.39.01.48v.02s-.02.04-.16.04c-.09,0-.1,0-.1-.03h0s0-.04,0-.06c0-.05,0-.25,0-.46v-.18Z"/>
        <path class="cls-2" d="M16.58,8.54c.4,0,.63,0,.86-.02h.03c.07,0,.07,0,.07.18,0,.09,0,.11-.04.11h0c-.15,0-.23,0-.86,0-.23,0-.35,0-.55,0h-.06c-.07,0-.08,0-.12,0-.01,0-.02,0-.02,0-.02,0-.04-.01-.04-.03-.01-.05-.02-.17-.02-.27.18.02.33.02.79.02Z"/>
        <path class="cls-2" d="M18.34,9.02c.22.04.48.11.73.21.18.07.22.09.22.12,0,.02-.03.13-.06.19-.01.04-.03.05-.05.05t-.24-.1c-.21-.1-.62-.21-.87-.24-.08,0-.09-.01-.09-.04,0-.02.03-.12.05-.18.01-.03.02-.04.05-.04,0,0,.18.03.25.04ZM19.06,8.27c-.12-.05-.29-.11-.43-.15-.14-.04-.36-.08-.44-.09-.03,0-.05-.01-.05-.03,0-.03.03-.14.05-.19,0-.02.02-.03.04-.03,0,0,.02,0,.03,0,0,0,.03,0,.06.01.23.03.5.1.71.17.13.05.14.05.14.08,0,.02-.04.15-.05.2,0,.03-.02.04-.04.04,0,0-.01,0-.03,0ZM18.89,8.52c.11.04.13.06.13.09,0,.02-.04.15-.05.2,0,.02-.02.03-.04.03,0,0-.02,0-.03,0-.08-.04-.18-.08-.28-.11-.13-.04-.34-.09-.42-.1-.04,0-.04-.01-.04-.04,0-.04.04-.17.05-.2,0-.01.02-.02.04-.02.07,0,.48.11.64.17Z"/>
        <path class="cls-2" d="M21.28,9.09c.14.13.23.22.23.24,0,.02-.03.06-.1.12-.05.05-.07.06-.09.06,0,0-.02,0-.03-.02t-.12-.14c-.12-.14-.29-.28-.48-.42-.14.15-.34.32-.5.42-.13.08-.24.15-.27.15-.02,0-.02,0-.08-.06-.03-.04-.08-.08-.14-.12.25-.12.44-.24.65-.43.23-.21.38-.4.55-.7q-.74,0-.86.02s-.03,0-.04,0c-.02,0-.04-.01-.04-.04-.01-.07-.02-.14-.02-.25.15.02.38.03.7.03.13,0,.27,0,.34-.01.03,0,.03,0,.08-.02,0,0,.01,0,.03,0,.04,0,.08.03.13.1.04.06.07.11.07.13,0,.03,0,.04-.06.09-.04.04-.05.05-.12.17-.07.11-.17.25-.25.35.17.11.29.2.42.33Z"/>
        <path class="cls-2" d="M22.41,8.9c0,.13,0,.49.01.6h0s0,.05-.02.05c-.02.01-.1.02-.18.02-.07,0-.08,0-.08-.05h0c0-.07.01-.7.01-.96,0-.51,0-.65-.02-.78.16.01.23.02.29.03.02,0,.03.02.03.04t0,.05s-.01.06-.02.09c0,0,0,.14-.01.4q.16.04.25.08c.22.08.35.13.54.24.02.01.03.02.03.04,0,.02-.04.13-.08.19-.02.04-.03.05-.04.05,0,0-.02,0-.04-.01-.22-.14-.44-.25-.67-.32v.25Z"/>
      </g>
    </g>
  </g>
</svg>