<?xml version="1.0" encoding="UTF-8"?>
<svg id="_レイヤー_2" data-name="レイヤー 2" xmlns="http://www.w3.org/2000/svg" viewBox="0 0 34.06 9.56">
  <defs>
    <style>
      .cls-1 {
        stroke: #f096aa;
        stroke-linecap: round;
        stroke-linejoin: round;
        stroke-width: .1px;
      }

      .cls-1, .cls-2 {
        fill: #f096aa;
      }

      .cls-2 {
        stroke-width: 0px;
      }
    </style>
  </defs>
  <g id="lay">
    <g>
      <g>
        <path class="cls-1" d="M.3,5.4V.82c0-.2-.07-.29-.25-.47h1.01c1.4,0,1.88.44,1.88,1.07,0,.8-.76,1.04-1.55,1.13,1.09.12,2.05.36,2.05,1.6,0,1.04-.56,1.72-2.37,1.72H.05c.18-.18.25-.28.25-.47ZM.92,2.5c.66,0,1.59-.25,1.59-1.08,0-.58-.37-.96-1.62-.96h-.16v2.05h.19ZM.89,5.76c1.66,0,2.12-.75,2.12-1.6,0-1.18-1.16-1.56-2.08-1.56h-.19v3.15h.16Z"/>
        <path class="cls-1" d="M6.52,2.16v3.24c0,.2.07.29.25.47h-.66v-1.3c-.19.58-.52,1.36-1.2,1.36-.43,0-.81-.32-.81-1.15v-2.62c0-.2-.07-.29-.25-.47h.91c-.18.18-.25.28-.25.47v2.23c0,.68.06,1.43.52,1.43.49,0,.88-.84,1.07-1.42v-2.24c0-.2-.07-.29-.25-.47h.91c-.18.18-.25.28-.25.47Z"/>
        <path class="cls-1" d="M7.24,5.93V.82c0-.25-.08-.33-.17-.33-.08,0-.17.06-.25.11v-.08c.18-.18.47-.47.66-.47.13,0,.17.13.17.49v2.54c.14-.66.39-1.45,1.06-1.45.83,0,1.11,1.2,1.11,2.15s-.15,2.15-1.18,2.15c-.58,0-.84-.35-1-.64l-.33.64h-.08ZM7.66,5.12c.16.3.45.7.83.7.69,0,.91-1.28.91-2.04s-.3-2.02-.85-2.02c-.5,0-.76,1.04-.9,1.72v1.64Z"/>
        <path class="cls-1" d="M10.37,5.93V.82c0-.25-.08-.33-.17-.33-.08,0-.17.06-.25.11v-.08c.18-.18.47-.47.66-.47.13,0,.17.13.17.49v2.54c.14-.66.39-1.45,1.06-1.45.83,0,1.11,1.2,1.11,2.15s-.15,2.15-1.18,2.15c-.58,0-.84-.35-1-.64l-.33.64h-.08ZM10.78,5.12c.16.3.45.7.83.7.69,0,.91-1.28.91-2.04s-.3-2.02-.85-2.02c-.5,0-.76,1.04-.9,1.72v1.64Z"/>
        <path class="cls-1" d="M13.58,5.4V.82c0-.25-.07-.33-.17-.33-.07,0-.17.06-.25.11v-.08c.18-.18.47-.47.66-.47.13,0,.17.13.17.49v4.86c0,.2.07.29.25.47h-.91c.18-.18.25-.28.25-.47Z"/>
        <path class="cls-1" d="M17.47,3.11c.73.16,1.3.58,1.3,1.31,0,.85-.73,1.51-1.87,1.51-1.29,0-2.32-.82-2.32-2.15s1-2.15,2.2-2.15c.95,0,1.66.55,1.94,1.48h-1.26ZM15.11,3.11c-.06.21-.08.43-.08.67,0,1.26.85,2.05,1.96,2.05.91,0,1.71-.54,1.71-1.4,0-.8-.69-1.21-1.54-1.32h-2.05ZM18.29,3.02c-.25-.81-.78-1.3-1.49-1.3s-1.41.48-1.66,1.3h3.15Z"/>
        <path class="cls-1" d="M21.83,5.4V.82c0-.2-.07-.29-.25-.47h1.01c1.4,0,1.88.44,1.88,1.07,0,.8-.76,1.04-1.55,1.13,1.09.12,2.05.36,2.05,1.6,0,1.04-.56,1.72-2.37,1.72h-1.01c.18-.18.25-.28.25-.47ZM22.45,2.5c.66,0,1.58-.25,1.58-1.08,0-.58-.37-.96-1.62-.96h-.16v2.05h.19ZM22.42,5.76c1.66,0,2.12-.75,2.12-1.6,0-1.18-1.16-1.56-2.08-1.56h-.19v3.15h.16Z"/>
        <path class="cls-1" d="M25.61,5.4V.82c0-.25-.07-.33-.17-.33-.07,0-.17.06-.25.11v-.08c.18-.18.47-.47.66-.47.13,0,.17.13.17.49v4.86c0,.2.07.29.25.47h-.91c.18-.18.25-.28.25-.47Z"/>
        <path class="cls-1" d="M29.23,2.16v3.24c0,.2.07.29.25.47h-.66v-1.3c-.19.58-.52,1.36-1.2,1.36-.43,0-.81-.32-.81-1.15v-2.62c0-.2-.07-.29-.25-.47h.91c-.18.18-.25.28-.25.47v2.23c0,.68.06,1.43.52,1.43.49,0,.88-.84,1.07-1.42v-2.24c0-.2-.07-.29-.25-.47h.91c-.18.18-.25.28-.25.47Z"/>
        <path class="cls-1" d="M32.7,3.11c.73.16,1.3.58,1.3,1.31,0,.85-.73,1.51-1.87,1.51-1.29,0-2.32-.82-2.32-2.15s1-2.15,2.2-2.15c.95,0,1.66.55,1.94,1.48h-1.26ZM30.34,3.11c-.06.21-.08.43-.08.67,0,1.26.85,2.05,1.96,2.05.91,0,1.71-.54,1.71-1.4,0-.8-.69-1.21-1.54-1.32h-2.05ZM33.52,3.02c-.25-.81-.78-1.3-1.49-1.3s-1.41.48-1.66,1.3h3.15Z"/>
      </g>
      <g>
        <path class="cls-2" d="M11.72,8.22s0,.02-.02.04c-.02.04-.03.07-.06.2-.07.31-.18.58-.33.78-.06.09-.11.13-.14.13,0,0-.02,0-.03-.01-.07-.04-.13-.06-.22-.08.2-.18.36-.46.44-.8.03-.11.04-.22.04-.32v-.04c.19.02.32.06.32.1ZM12.55,9.32c-.11-.4-.28-.77-.46-1.04-.03-.04-.03-.04-.03-.05,0-.02.02-.03.08-.07.07-.04.1-.06.12-.06.02,0,.03,0,.11.14.1.15.2.35.31.63.08.19.12.33.12.37,0,.02-.01.04-.07.06-.05.03-.14.06-.16.06-.02,0-.03-.01-.04-.04ZM12.54,8.22c-.05-.09-.09-.15-.16-.22-.01-.01-.01-.02-.01-.02,0-.01.01-.03.05-.06.04-.02.05-.03.06-.03.02,0,.04.02.09.08.07.08.12.15.12.17,0,.03-.1.11-.13.11,0,0-.01,0-.02-.02ZM12.85,8.05s-.05.03-.06.03c0,0-.01,0-.02-.02-.06-.1-.09-.14-.16-.22,0,0-.01-.01-.01-.02,0-.02.09-.08.11-.08.02,0,.05.02.09.07.06.07.12.15.12.16,0,.02-.02.03-.07.07Z"/>
        <path class="cls-2" d="M13.99,8.22c-.39,0-.67.02-.74.04,0,0,0,0,0,0-.04,0-.06-.07-.06-.3.11.02.25.02.57.02.29,0,.64,0,.7-.01.04,0,.05,0,.09-.02.01,0,.02,0,.02,0,.04,0,.08.04.15.12.04.05.05.07.05.09,0,.02,0,.03-.02.05-.02.03-.02.03-.07.19-.12.39-.37.73-.7.99-.13.1-.26.18-.29.18-.02,0-.03,0-.08-.05-.06-.06-.11-.09-.17-.13.32-.16.5-.3.67-.51.15-.19.25-.4.3-.64q-.17,0-.42,0ZM14.94,8s-.08.06-.09.06t-.05-.07c-.04-.06-.09-.13-.14-.18,0,0-.01-.01-.01-.02,0-.02.08-.08.11-.08.02,0,.04.02.11.1.06.07.1.13.1.14s0,.02-.03.04ZM15.04,7.89c-.05-.09-.1-.15-.16-.21,0,0-.01-.01-.01-.02,0-.01.01-.02.05-.05.03-.02.04-.03.06-.03.02,0,.08.06.16.15.03.04.05.07.05.08s0,.02-.03.04c-.04.03-.07.05-.08.05,0,0-.02,0-.02-.02Z"/>
        <path class="cls-2" d="M15.79,7.97s.03.02.03.04c0,0,0,.01,0,.03-.01.05-.01.08-.01.17,0,.54-.1.88-.33,1.17-.05.06-.07.08-.09.08,0,0-.02,0-.04-.01-.06-.04-.11-.06-.21-.08.15-.15.21-.24.28-.38.09-.21.13-.42.13-.73,0-.15,0-.21-.02-.32.12,0,.22.02.28.04ZM16.02,8.18c0-.11,0-.19-.02-.29.24,0,.32.03.32.07,0,.01,0,.02-.01.04,0,.01-.01.05-.01.08q0,.06-.01,1.03c.28-.16.46-.31.65-.54,0,.11.01.2.03.26,0,.02,0,.03,0,.04,0,.04-.02.06-.12.16-.16.15-.27.23-.48.33-.05.02-.08.04-.1.07-.01.01-.04.02-.05.02-.03,0-.11-.05-.16-.11-.04-.04-.06-.08-.06-.11,0-.01,0-.02,0-.04.01-.04.02-.08.02-.2v-.83Z"/>
        <path class="cls-2" d="M17.93,8.22c-.39,0-.67.02-.74.04,0,0,0,0,0,0-.04,0-.06-.07-.06-.3.11.02.25.02.57.02.29,0,.64,0,.7-.01.04,0,.05,0,.09-.02.01,0,.02,0,.02,0,.04,0,.08.04.15.12.04.05.05.07.05.09,0,.02,0,.03-.02.05-.02.03-.02.03-.07.19-.12.39-.37.73-.7.99-.13.1-.26.18-.29.18-.02,0-.03,0-.08-.05-.06-.06-.11-.09-.17-.13.32-.16.5-.3.67-.51.15-.19.25-.4.3-.64q-.17,0-.42,0ZM18.88,8s-.08.06-.09.06t-.05-.07c-.04-.06-.09-.13-.14-.18,0,0-.01-.01-.01-.02,0-.02.08-.08.11-.08.02,0,.04.02.11.1.06.07.1.13.1.14s0,.02-.03.04ZM18.98,7.89c-.05-.09-.1-.15-.16-.21,0,0-.01-.01-.01-.02,0-.01.01-.02.05-.05.03-.02.04-.03.06-.03.02,0,.08.06.16.15.03.04.05.07.05.08s0,.02-.03.04c-.04.03-.07.05-.08.05,0,0-.02,0-.02-.02Z"/>
        <path class="cls-2" d="M19.73,7.97s.03.02.03.04c0,0,0,.01,0,.03-.01.05-.01.08-.01.17,0,.54-.1.88-.33,1.17-.05.06-.07.08-.09.08,0,0-.02,0-.04-.01-.06-.04-.11-.06-.21-.08.15-.15.21-.24.28-.38.09-.21.13-.42.13-.73,0-.15,0-.21-.02-.32.12,0,.22.02.28.04ZM19.97,8.18c0-.11,0-.19-.02-.29.24,0,.32.03.32.07,0,.01,0,.02-.01.04,0,.01-.01.05-.01.08q0,.06-.01,1.03c.28-.16.46-.31.65-.54,0,.11.01.2.03.26,0,.02,0,.03,0,.04,0,.04-.02.06-.12.16-.16.15-.27.23-.48.33-.05.02-.08.04-.1.07-.01.01-.04.02-.05.02-.03,0-.11-.05-.16-.11-.04-.04-.06-.08-.06-.11,0-.01,0-.02,0-.04.01-.04.02-.08.02-.2v-.83Z"/>
        <path class="cls-2" d="M22.18,8.54c.4,0,.63,0,.86-.02h.03c.07,0,.07,0,.07.18,0,.09,0,.11-.04.11h0c-.15,0-.23,0-.86,0-.23,0-.35,0-.55,0h-.06c-.07,0-.08,0-.12,0-.01,0-.02,0-.02,0-.02,0-.04-.01-.04-.03-.01-.05-.02-.17-.02-.27.18.02.33.02.79.02Z"/>
      </g>
    </g>
  </g>
</svg>