<?xml version="1.0" encoding="UTF-8"?>
<svg id="_レイヤー_2" data-name="レイヤー 2" xmlns="http://www.w3.org/2000/svg" viewBox="0 0 34.53 9.61">
  <defs>
    <style>
      .cls-1 {
        stroke: #f096aa;
        stroke-linecap: round;
        stroke-linejoin: round;
        stroke-width: .1px;
      }

      .cls-1, .cls-2 {
        fill: #f096aa;
      }

      .cls-2 {
        stroke-width: 0px;
      }
    </style>
  </defs>
  <g id="lay">
    <g>
      <g>
        <path class="cls-1" d="M2.96.92l.11,1.22h-.08c-.23-.73-.57-1.74-1.36-1.74-.54,0-.91.48-.91,1.01,0,1.49,2.47,1.66,2.47,3.26,0,.85-.55,1.26-1.46,1.26-1.08,0-1.31-.51-1.46-.63l-.22-1.29h.08c.33.73.82,1.81,1.67,1.81.57,0,.94-.48.94-1.06C2.74,3.32.27,3.15.27,1.5.27.71.81.29,1.62.29c.91,0,1.2.51,1.35.63Z"/>
        <path class="cls-1" d="M5.82,5.88v-.9c-.17.43-.48.96-1.14.96-.77,0-1.04-.66-1.04-1.33,0-.49.15-1.54,1.14-1.54.61,0,.87.33,1.04.65v-.61c0-.44-.02-1.37-.59-1.37-.45,0-.89.56-1.23,1.16h-.08l.25-.93c.17-.09.45-.32.97-.32.75,0,1.1.48,1.1,1.3v2.47c0,.2.07.29.25.47h-.66ZM5.82,3.85c-.16-.33-.45-.73-.85-.73-.65,0-.9,1.02-.9,1.55s.28,1.18.75,1.18.83-.66.99-1.11v-.88Z"/>
        <path class="cls-1" d="M8.88,2.16l-.68,1.05,1.18,2.19c.09.17.23.29.42.47h-.97c.18-.18.17-.32.08-.47l-.97-1.77-.54.83v.94c0,.2.07.29.25.47h-.91c.18-.18.25-.28.25-.47V.82c0-.25-.07-.33-.17-.33-.07,0-.17.06-.25.11v-.08c.18-.18.47-.47.66-.47.13,0,.17.13.17.49v3.74l1.35-2.12c.09-.14.11-.29,0-.47h.63c-.26.18-.4.32-.5.47Z"/>
        <path class="cls-1" d="M12.35,2.16v3.24c0,.2.07.29.25.47h-.66v-1.3c-.19.58-.52,1.36-1.2,1.36-.43,0-.81-.32-.81-1.15v-2.62c0-.2-.07-.29-.25-.47h.91c-.18.18-.25.28-.25.47v2.23c0,.68.06,1.43.52,1.43.49,0,.88-.84,1.07-1.42v-2.24c0-.2-.07-.29-.25-.47h.91c-.18.18-.25.28-.25.47Z"/>
        <path class="cls-1" d="M15.32,2.11l.08,1.25h-.08c-.17-.92-.44-1.61-.75-1.61-.39,0-.71,1.01-.85,1.75v1.9c0,.2.07.29.25.47h-.91c.18-.18.25-.28.25-.47v-3c0-.25-.07-.33-.17-.33-.07,0-.17.06-.25.11v-.08c.18-.18.47-.47.66-.47.13,0,.17.13.17.49v1.01c.17-.73.46-1.5.9-1.5.28,0,.61.31.71.48Z"/>
        <path class="cls-1" d="M17.7,5.88v-.9c-.17.43-.48.96-1.14.96-.77,0-1.04-.66-1.04-1.33,0-.49.15-1.54,1.14-1.54.61,0,.87.33,1.04.65v-.61c0-.44-.02-1.37-.59-1.37-.45,0-.89.56-1.23,1.16h-.08l.25-.93c.17-.09.45-.32.97-.32.76,0,1.1.48,1.1,1.3v2.47c0,.2.07.29.25.47h-.66ZM17.7,3.85c-.16-.33-.45-.73-.85-.73-.65,0-.9,1.02-.9,1.55s.28,1.18.76,1.18.83-.66.99-1.11v-.88Z"/>
        <path class="cls-1" d="M21.21,5.4V.82c0-.2-.07-.29-.25-.47h.95c.95,0,1.86.26,1.86,1.38s-.91,1.37-1.86,1.37h-.27v2.08c0,.36.23.53.42.71h-1.1c.18-.18.25-.28.25-.47ZM21.91,2.97c.79,0,1.43-.23,1.43-1.26s-.64-1.26-1.43-1.26h-.27v2.52h.27Z"/>
        <path class="cls-1" d="M26.65,3.11c.73.16,1.3.58,1.3,1.31,0,.85-.73,1.51-1.87,1.51-1.29,0-2.32-.82-2.32-2.15s1-2.15,2.2-2.15c.95,0,1.66.55,1.94,1.48h-1.26ZM24.28,3.11c-.06.21-.08.43-.08.67,0,1.26.85,2.05,1.96,2.05.91,0,1.71-.54,1.71-1.4,0-.8-.69-1.21-1.54-1.32h-2.05ZM27.46,3.02c-.25-.81-.78-1.3-1.49-1.3s-1.41.48-1.66,1.3h3.15Z"/>
        <path class="cls-1" d="M28.98.67h.08v1.01h.58v.09h-.58v2.31c1.34.18,1.59,1.85.42,1.85-.2,0-.83-.05-.83-.96V1.77h-.42v-.09c.43,0,.75-.7.75-1.01ZM29.07,4.82c0,.89.27,1.01.51,1.01.85,0,.76-1.49-.51-1.69v.68Z"/>
        <path class="cls-1" d="M32.66,5.88v-.9c-.17.43-.48.96-1.14.96-.77,0-1.04-.66-1.04-1.33,0-.49.15-1.54,1.14-1.54.61,0,.87.33,1.04.65v-.61c0-.44-.02-1.37-.59-1.37-.45,0-.89.56-1.23,1.16h-.08l.25-.93c.17-.09.45-.32.97-.32.75,0,1.1.48,1.1,1.3v2.47c0,.2.07.29.25.47h-.66ZM32.66,3.85c-.16-.33-.45-.73-.85-.73-.65,0-.9,1.02-.9,1.55s.28,1.18.75,1.18.83-.66.99-1.11v-.88Z"/>
        <path class="cls-1" d="M33.82,5.4V.82c0-.25-.07-.33-.17-.33-.07,0-.17.06-.25.11v-.08c.18-.18.47-.47.66-.47.13,0,.17.13.17.49v4.86c0,.2.07.29.25.47h-.91c.18-.18.25-.28.25-.47Z"/>
      </g>
      <g>
        <path class="cls-2" d="M11.78,8.25c0-.24,0-.37-.03-.44.11,0,.17.01.23.02.07,0,.08.02.08.04,0,0,0,.02,0,.03-.02.04-.02.07-.02.35.05,0,.22,0,.49,0,0-.25,0-.35-.02-.46.12,0,.18.01.25.02.05,0,.06.02.06.04,0,.01,0,.02-.02.06,0,.01-.01.08-.01.15v.18c.22,0,.31,0,.37-.01,0,0,.02,0,.02,0,.01,0,.02,0,.03.01,0,.01.01.07.01.14,0,.1,0,.11-.04.11t-.06,0-.34,0c-.01.33-.06.51-.17.68-.09.15-.22.26-.39.36-.06.03-.14.06-.16.06-.02,0-.02,0-.07-.05-.05-.05-.08-.08-.15-.12.32-.11.48-.24.58-.46.06-.13.09-.26.1-.48h-.14s-.08,0-.17,0c-.04,0-.1,0-.18,0q0,.16,0,.35v.03s0,.04-.03.05c-.03,0-.09.01-.15.01-.07,0-.08,0-.08-.05v-.03c0-.2.01-.24.01-.36-.11,0-.31.01-.37.02,0,0,0,0-.01,0-.02,0-.03,0-.03-.03-.01-.04-.02-.14-.03-.25.11.01.18.02.36.02h.09Z"/>
        <path class="cls-2" d="M14.26,8.29c-.15.2-.41.44-.47.44-.02,0-.03,0-.07-.04-.03-.03-.09-.07-.16-.11.16-.09.32-.21.44-.36.13-.15.21-.28.28-.47.11.04.16.06.24.1.03.02.04.03.04.05,0,.02,0,.03-.03.04-.02.02-.04.04-.1.12h.33c.12,0,.14,0,.21-.02,0,0,.02,0,.02,0,.04,0,.07.03.14.11.04.05.05.08.05.1s0,.04-.04.07c-.02.02-.05.06-.07.1-.24.43-.47.7-.82.96-.15.11-.35.23-.39.23-.02,0-.03,0-.05-.03-.04-.04-.1-.08-.18-.13.32-.15.54-.31.77-.53.16-.16.27-.31.36-.49.02-.04.03-.07.07-.14h-.56Z"/>
        <path class="cls-2" d="M15.69,8.61s-.02,0-.02,0c-.05,0-.07-.08-.08-.3.11.02.26.02.67.02.44,0,.56,0,.6,0,.03,0,.04,0,.08-.02.02,0,.03,0,.04,0,.03,0,.06.02.09.05.06.07.1.13.1.16s-.01.04-.04.07c-.02.02-.03.04-.07.13-.15.32-.31.52-.57.69-.12.08-.31.17-.35.17-.03,0-.05-.01-.09-.06-.06-.07-.08-.09-.15-.12.25-.07.48-.2.64-.36.12-.12.22-.27.28-.46-.83.01-.99.02-1.14.05ZM16.41,7.83q.23,0,.48-.02h.03s.04.02.04.09c0,.03,0,.05,0,.07h0c0,.09,0,.11-.04.11,0,0-.03,0-.05,0-.04,0-.21,0-.28,0-.33,0-.57,0-.69.02h-.02c-.06,0-.07-.03-.08-.28.14.02.28.02.6.02Z"/>
        <path class="cls-2" d="M17.86,8.39c.11-.12.13-.15.17-.17.05-.03.08-.04.14-.04.06,0,.1.01.15.05t.18.17c.14.15.34.33.5.45.11.09.17.13.32.22.02.01.03.02.03.04s-.02.05-.06.13c-.05.09-.08.12-.1.12-.01,0-.02,0-.04-.01-.28-.2-.54-.43-.83-.74-.11-.12-.12-.12-.15-.12-.02,0-.04,0-.06.03-.02.02-.16.2-.23.29-.05.07-.06.08-.11.13-.03.04-.04.05-.05.07-.02.03-.03.04-.04.04-.02,0-.07-.03-.12-.09-.04-.04-.05-.07-.11-.14.1-.06.18-.15.41-.41ZM19.15,8.18c0,.13-.1.23-.24.23s-.24-.1-.24-.23.1-.24.24-.24.24.1.24.24ZM18.8,8.18c0,.06.05.12.12.12.06,0,.12-.05.12-.12s-.05-.12-.12-.12-.12.05-.12.12Z"/>
        <path class="cls-2" d="M19.89,8.64c-.07.05-.1.08-.12.08s-.02,0-.06-.04c-.04-.04-.09-.08-.16-.11.24-.14.38-.27.51-.46.09-.13.16-.26.2-.38.23.09.29.12.29.15,0,.01,0,.02-.03.04-.02.02-.05.06-.11.15h.04c.08,0,.13,0,.15,0,.21,0,.27,0,.34-.03.02,0,.02,0,.04,0,.03,0,.06.02.13.11.05.06.07.09.07.11,0,.02,0,.03-.03.06-.02.02-.04.06-.08.12-.21.38-.36.58-.61.81-.2.18-.51.39-.57.39-.02,0-.04,0-.06-.03-.07-.06-.12-.1-.18-.13.3-.15.54-.31.75-.52t-.06-.07s-.1-.09-.21-.17c-.01-.01-.02-.02-.02-.03,0-.01.03-.04.11-.12.04-.04.05-.04.06-.04.04,0,.17.11.3.24.13-.17.23-.33.28-.47q-.25,0-.57,0c-.1.13-.23.26-.38.38Z"/>
        <path class="cls-2" d="M21.98,7.97s.03.02.03.04c0,0,0,.01,0,.03-.01.05-.01.08-.01.17,0,.54-.1.88-.33,1.17-.05.06-.07.08-.09.08,0,0-.02,0-.04-.01-.06-.04-.11-.06-.21-.08.15-.15.21-.23.28-.38.09-.21.13-.42.13-.73,0-.14,0-.21-.02-.32.12,0,.22.02.28.04ZM22.21,8.18c0-.11,0-.19-.02-.29.24,0,.32.03.32.07,0,.01,0,.02-.01.04,0,.01-.01.05-.01.08q0,.06-.01,1.03c.28-.16.46-.31.65-.54,0,.11.01.2.03.26,0,.02,0,.03,0,.04,0,.04-.02.06-.12.16-.16.15-.27.23-.48.33-.05.03-.08.04-.1.07-.01.01-.04.02-.05.02-.03,0-.11-.05-.16-.11-.04-.04-.06-.08-.06-.11,0-.01,0-.02,0-.04.01-.04.02-.08.02-.2v-.83Z"/>
      </g>
    </g>
  </g>
</svg>