<?xml version="1.0" encoding="UTF-8"?>
<svg id="_レイヤー_2" data-name="レイヤー 2" xmlns="http://www.w3.org/2000/svg" viewBox="0 0 54.5 3.7">
  <defs>
    <style>
      .cls-1 {
        fill: #595757;
      }

      .cls-1, .cls-2, .cls-3, .cls-4, .cls-5 {
        stroke-width: 0px;
      }

      .cls-2 {
        fill: #231815;
      }

      .cls-3 {
        fill: #cdcece;
      }

      .cls-4 {
        fill: #8c6464;
      }

      .cls-5 {
        fill: #fff;
      }
    </style>
  </defs>
  <g id="lay">
    <g>
      <rect class="cls-5" x="0" y="0" width="54.5" height="3.7" rx="1.85" ry="1.85"/>
      <g>
        <path class="cls-4" d="M15.87,1.85c-.92.04-.96.08-1,1-.04-.92-.08-.96-1-1,.92-.04.96-.08,1-1,.04.92.08.96,1,1Z"/>
        <path class="cls-4" d="M32.72,1.85c-.92.04-.96.08-1,1-.04-.92-.08-.96-1-1,.92-.04.96-.08,1-1,.04.92.08.96,1,1Z"/>
        <path class="cls-4" d="M44.98,1.85c-.92.04-.96.08-1,1-.04-.92-.08-.96-1-1,.92-.04.96-.08,1-1,.04.92.08.96,1,1Z"/>
        <g>
          <path class="cls-4" d="M34.49,1.64c0,.1-.04.17-.1.21.1.04.17.13.17.25,0,.18-.14.31-.35.31h-.36v-1.06h.31c.21,0,.34.11.34.29ZM34,1.8h.15c.1,0,.16-.06.16-.14,0-.1-.07-.15-.17-.15h-.14v.29ZM34,2.25h.19c.11,0,.18-.06.18-.15s-.07-.15-.18-.15h-.19v.3Z"/>
          <path class="cls-4" d="M35.67,1.68h-.19c-.04-.11-.13-.19-.29-.19-.21,0-.35.17-.35.39s.14.39.35.39c.16,0,.26-.08.3-.19h.18c-.06.22-.22.35-.48.35-.31,0-.53-.23-.53-.55s.22-.55.53-.55c.26,0,.42.14.48.35Z"/>
          <path class="cls-4" d="M37.09,1.54c0,.17-.1.29-.17.33.1.05.22.15.22.35,0,.26-.21.45-.49.45s-.5-.19-.5-.45c0-.19.11-.31.22-.35-.08-.05-.17-.16-.17-.33,0-.24.17-.44.45-.44s.45.2.45.44ZM36.39,2.21c0,.15.11.24.25.24s.25-.09.25-.24-.12-.24-.25-.24-.25.09-.25.24ZM36.43,1.55c0,.13.09.21.21.21s.21-.08.21-.21-.09-.22-.21-.22-.21.09-.21.22Z"/>
          <path class="cls-4" d="M37.63,2.52c0,.08-.07.15-.15.15s-.15-.06-.15-.15c0-.09.06-.15.15-.15s.15.06.15.15Z"/>
          <path class="cls-4" d="M38.81,2.17c0,.3-.2.5-.48.5-.16,0-.28-.05-.37-.15-.12-.14-.15-.36-.15-.6,0-.54.16-.82.53-.82.25,0,.44.17.45.43h-.25c-.01-.15-.09-.21-.21-.21-.17,0-.27.15-.28.51.05-.07.16-.13.3-.13.29,0,.46.2.46.47ZM38.56,2.18c0-.15-.1-.26-.25-.26-.14,0-.25.11-.25.26,0,.14.1.27.25.27s.25-.11.25-.27Z"/>
          <path class="cls-4" d="M40.39,1.92v.57h-.18v-.53c0-.12-.05-.18-.15-.18-.1,0-.18.08-.18.25v.46h-.18v-.53c0-.12-.05-.18-.15-.18-.1,0-.18.08-.18.25v.46h-.18v-.87h.16v.12c.05-.07.13-.14.25-.14.13,0,.21.06.25.16.04-.08.13-.16.26-.16.19,0,.28.13.28.33Z"/>
          <path class="cls-4" d="M41.84,1.92v.57h-.18v-.53c0-.12-.05-.18-.15-.18-.1,0-.18.08-.18.25v.46h-.18v-.53c0-.12-.05-.18-.15-.18-.1,0-.18.08-.18.25v.46h-.18v-.87h.16v.12c.05-.07.13-.14.25-.14.13,0,.21.06.25.16.04-.08.13-.16.26-.16.19,0,.28.13.28.33Z"/>
        </g>
        <g>
          <path class="cls-4" d="M4.35,1.88c0,.32-.21.53-.54.53h-.39v-1.06h.39c.33,0,.54.21.54.53ZM3.59,2.25h.22c.23,0,.37-.14.37-.37s-.14-.37-.37-.37h-.22v.74Z"/>
          <path class="cls-4" d="M4.54,2.41v-1.06h.17v1.06h-.17Z"/>
          <path class="cls-4" d="M5.69,2.41l-.1-.26h-.45l-.1.26h-.18l.42-1.06h.18l.42,1.06h-.18ZM5.2,2h.34l-.15-.38-.02-.06-.02.06-.15.38Z"/>
          <path class="cls-4" d="M6.61,2.64v-1.11h-.32v-.21c.23,0,.34-.04.38-.2h.18v1.51h-.24Z"/>
          <path class="cls-4" d="M8.16,2.13v.22h-.2v.29h-.24v-.29h-.63v-.2l.58-1.02h.29v1h.2ZM7.34,2.13h.38v-.68l-.04.09-.34.59Z"/>
          <path class="cls-4" d="M8.62,2.52c0,.08-.07.15-.15.15s-.15-.06-.15-.15c0-.09.06-.15.15-.15s.15.06.15.15Z"/>
          <path class="cls-4" d="M9.69,1.53c0,.18-.08.31-.19.44l-.35.45h.55v.22h-.89v-.18l.48-.59c.1-.13.15-.21.15-.34,0-.14-.06-.21-.19-.21-.12,0-.21.08-.21.25h-.24c0-.29.17-.48.45-.48s.43.17.43.43Z"/>
          <path class="cls-4" d="M11.27,1.92v.57h-.18v-.53c0-.12-.05-.18-.15-.18-.1,0-.18.08-.18.25v.46h-.18v-.53c0-.12-.05-.18-.15-.18-.1,0-.18.08-.18.25v.46h-.18v-.87h.16v.12c.05-.07.13-.14.25-.14.13,0,.21.06.25.16.04-.08.13-.16.26-.16.19,0,.28.13.28.33Z"/>
          <path class="cls-4" d="M12.73,1.92v.57h-.18v-.53c0-.12-.05-.18-.15-.18-.1,0-.18.08-.18.25v.46h-.18v-.53c0-.12-.05-.18-.15-.18-.1,0-.18.08-.18.25v.46h-.18v-.87h.16v.12c.05-.07.13-.14.25-.14.13,0,.21.06.25.16.04-.08.13-.16.26-.16.19,0,.28.13.28.33Z"/>
        </g>
        <g>
          <path class="cls-4" d="M17.27,1.47c-.06,0-.09,0-.14,0v-.12s.07,0,.14,0h.17s-.05-.07-.09-.11l.14-.03c.04.06.07.09.1.14h.19s.07-.1.1-.14l.15.03c-.04.05-.06.08-.09.11h.17c.07,0,.09,0,.14,0v.12s-.07,0-.14,0h-.36v.06h.31c.07,0,.09,0,.13,0v.11s-.06,0-.13,0h-.31v.06h.41c.07,0,.1,0,.14,0v.13s-.07,0-.14,0h-.66s0,.03-.01.05h.57s.08,0,.13,0c0,.04,0,.07,0,.13v.37c0,.06,0,.1,0,.14h-.15v-.05h-.52v.05h-.15s0-.07,0-.13v-.14s0-.08,0-.1c-.06.12-.12.19-.2.27-.03-.05-.07-.09-.11-.13.09-.07.14-.12.18-.2.05-.08.08-.14.11-.25h-.12c-.07,0-.1,0-.14,0v-.13s.07,0,.14,0h.38v-.06h-.28c-.07,0-.09,0-.13,0v-.11s.06,0,.13,0h.28v-.06h-.34ZM17.51,1.97v.06h.52v-.06h-.52ZM17.51,2.12v.06h.52v-.06h-.52ZM17.51,2.27v.06h.52v-.06h-.52Z"/>
          <path class="cls-4" d="M19.49,1.6s.08,0,.12,0c0,.03,0,.06,0,.1v.25s0,.07,0,.1c-.05,0-.08,0-.12,0h-.71v.21s0,.05.05.05c.05,0,.15.01.34.01.21,0,.31,0,.34-.03.02-.02.03-.07.03-.18.05.03.09.04.15.05-.01.18-.03.23-.1.26-.06.03-.18.04-.43.04s-.38,0-.45-.03c-.07-.02-.08-.05-.08-.13v-.58s-.04.03-.09.06c-.02-.05-.04-.09-.08-.13.13-.07.22-.15.31-.27.05-.07.07-.1.09-.15l.17.03s-.01.02-.03.05c0,0,0,.02-.02.03h.22c.08,0,.11,0,.13,0l.09.07s-.03.03-.05.06c-.04.06-.09.11-.12.14h.24ZM19.08,1.6s.09-.09.13-.14h-.3c-.04.06-.08.09-.13.14h.3ZM19.04,1.73h-.26v.18h.26v-.18ZM19.18,1.91h.28v-.18h-.28v.18Z"/>
          <path class="cls-4" d="M20.49,1.34s.01-.08.01-.11h.16s0,.03,0,.06c0,.02,0,.04-.01.05h.3c.08,0,.12,0,.17,0v.15s-.09,0-.17,0h-.33s0,.03-.02.07h.24c.08,0,.12,0,.16,0,0,.04,0,.07,0,.15v.38c0,.08,0,.11,0,.15-.05,0-.07,0-.16,0h-.43c-.08,0-.11,0-.16,0,0-.03,0-.08,0-.15v-.38c0-.08,0-.12,0-.15.04,0,.08,0,.16,0h.03s.01-.04.02-.07h-.37c-.06,0-.11,0-.16,0v-.15s.09,0,.16,0h.4ZM20.97,2.29c.07,0,.1,0,.15,0v.15s-.09,0-.16,0h-.83v.05h-.16s0-.1,0-.19v-.56c0-.07,0-.12,0-.15h.17s0,.09,0,.14v.56h.84ZM20.4,1.73h.45v-.07h-.45v.07ZM20.4,1.91h.45v-.07h-.45v.07ZM20.4,2.1h.45v-.07h-.45v.07Z"/>
          <path class="cls-4" d="M21.45,2.06s0-.05,0-.12c-.03.04-.05.06-.1.1-.02-.07-.03-.1-.06-.15.13-.09.25-.23.3-.35l.12.08s0,0-.03.05c-.02.03-.06.08-.09.12v.55c0,.06,0,.11,0,.14h-.16s0-.09,0-.16v-.27ZM21.7,1.32s-.01.01-.05.05c-.08.09-.16.16-.27.24-.02-.05-.04-.08-.08-.13.13-.08.23-.17.28-.26l.12.09v-.02s.07,0,.12,0h.48s.07,0,.1,0l.07.08s0,.01-.02.03c-.07.09-.14.16-.24.25.11.05.22.09.36.11-.03.05-.04.09-.06.14-.1-.02-.17-.05-.27-.09-.05-.02-.08-.04-.14-.08-.11.07-.25.13-.39.18-.02-.06-.03-.08-.07-.13.14-.04.25-.08.35-.13-.09-.07-.13-.12-.19-.22q-.07,0-.09,0v-.11ZM22.33,1.98c.06,0,.1,0,.13,0v.14s-.08,0-.13,0h-.17v.19h.23c.06,0,.11,0,.16,0v.15s-.09,0-.15,0h-.59c-.07,0-.12,0-.16,0v-.15s.1,0,.16,0h.21v-.19h-.16c-.05,0-.1,0-.14,0v-.14s.07,0,.14,0h.16v-.04c0-.06,0-.1,0-.13h.16s0,.07,0,.13v.04h.17ZM21.95,1.43c.03.05.07.09.14.15.07-.05.11-.09.16-.15h-.3Z"/>
          <path class="cls-4" d="M23.53,2.64v-1.11h-.32v-.21c.23,0,.34-.04.38-.2h.18v1.51h-.24Z"/>
          <path class="cls-4" d="M24.95,1.53c0,.19-.11.29-.2.32.13.04.25.15.25.37,0,.27-.19.45-.49.45s-.49-.17-.49-.48h.24c0,.17.11.25.26.25s.24-.09.24-.23c0-.16-.12-.25-.31-.25h-.07v-.21h.06c.18,0,.27-.07.27-.21,0-.13-.07-.22-.2-.22-.11,0-.21.07-.21.24h-.24c0-.29.18-.47.45-.47s.45.19.45.43Z"/>
          <path class="cls-4" d="M25.5,2.52c0,.08-.07.15-.15.15s-.15-.06-.15-.15c0-.09.06-.15.15-.15s.15.06.15.15Z"/>
          <path class="cls-4" d="M26.58,1.53c0,.18-.08.31-.19.44l-.35.45h.55v.22h-.89v-.18l.48-.59c.1-.13.15-.21.15-.34,0-.14-.06-.21-.19-.21-.12,0-.21.08-.21.25h-.24c0-.29.17-.48.45-.48s.43.17.43.43Z"/>
          <path class="cls-4" d="M28.01,1.92v.57h-.18v-.53c0-.12-.05-.18-.15-.18-.1,0-.18.08-.18.25v.46h-.18v-.53c0-.12-.05-.18-.15-.18-.1,0-.18.08-.18.25v.46h-.18v-.87h.16v.12c.05-.07.13-.14.25-.14.13,0,.21.06.25.16.04-.08.13-.16.26-.16.19,0,.28.13.28.33Z"/>
          <path class="cls-4" d="M29.46,1.92v.57h-.18v-.53c0-.12-.05-.18-.15-.18-.1,0-.18.08-.18.25v.46h-.18v-.53c0-.12-.05-.18-.15-.18-.1,0-.18.08-.18.25v.46h-.18v-.87h.16v.12c.05-.07.13-.14.25-.14.13,0,.21.06.25.16.04-.08.13-.16.26-.16.19,0,.28.13.28.33Z"/>
        </g>
        <g>
          <rect class="cls-2" x="45.98" y=".98" width="1.74" height="1.74"/>
          <rect class="cls-1" x="47.72" y=".98" width="1.74" height="1.74"/>
          <rect class="cls-3" x="49.45" y=".98" width="1.74" height="1.74"/>
        </g>
      </g>
    </g>
  </g>
</svg>