<?xml version="1.0" encoding="UTF-8"?>
<svg id="_レイヤー_2" data-name="レイヤー 2" xmlns="http://www.w3.org/2000/svg" viewBox="0 0 40.66 9.61">
  <defs>
    <style>
      .cls-1 {
        stroke: #f096aa;
        stroke-linecap: round;
        stroke-linejoin: round;
        stroke-width: .1px;
      }

      .cls-1, .cls-2 {
        fill: #f096aa;
      }

      .cls-2 {
        stroke-width: 0px;
      }
    </style>
  </defs>
  <g id="lay">
    <g>
      <g>
        <path class="cls-1" d="M2.96.92l.11,1.22h-.08c-.23-.73-.57-1.74-1.36-1.74-.54,0-.91.48-.91,1.01,0,1.49,2.47,1.66,2.47,3.26,0,.85-.55,1.26-1.46,1.26-1.08,0-1.31-.51-1.46-.63l-.22-1.29h.08c.33.73.82,1.81,1.67,1.81.57,0,.94-.48.94-1.06C2.74,3.32.27,3.15.27,1.5.27.71.81.29,1.62.29c.91,0,1.2.51,1.34.63Z"/>
        <path class="cls-1" d="M5.82,5.88v-.9c-.17.43-.48.96-1.14.96-.77,0-1.04-.66-1.04-1.34,0-.49.15-1.54,1.14-1.54.61,0,.87.33,1.04.65v-.61c0-.44-.02-1.37-.59-1.37-.45,0-.89.56-1.23,1.16h-.08l.25-.93c.17-.09.45-.32.97-.32.76,0,1.1.48,1.1,1.3v2.47c0,.2.07.29.25.47h-.66ZM5.82,3.85c-.16-.33-.45-.73-.85-.73-.65,0-.9,1.02-.9,1.55s.28,1.18.76,1.18.83-.66.99-1.11v-.89Z"/>
        <path class="cls-1" d="M8.88,2.16l-.68,1.05,1.18,2.19c.09.17.23.29.41.47h-.97c.18-.18.17-.32.08-.47l-.97-1.77-.54.83v.94c0,.2.07.29.25.47h-.91c.18-.18.25-.28.25-.47V.82c0-.25-.08-.33-.17-.33-.08,0-.17.06-.25.11v-.08c.18-.18.47-.47.66-.47.13,0,.17.13.17.49v3.74l1.35-2.12c.09-.14.11-.29,0-.47h.63c-.26.18-.4.32-.5.47Z"/>
        <path class="cls-1" d="M12.35,2.16v3.24c0,.2.07.29.25.47h-.66v-1.3c-.19.58-.52,1.36-1.2,1.36-.43,0-.81-.32-.81-1.15v-2.62c0-.2-.07-.29-.25-.47h.91c-.18.18-.25.28-.25.47v2.23c0,.68.06,1.43.52,1.43.49,0,.88-.84,1.07-1.42v-2.24c0-.2-.07-.29-.25-.47h.91c-.18.18-.25.28-.25.47Z"/>
        <path class="cls-1" d="M15.32,2.11l.08,1.25h-.08c-.17-.92-.44-1.61-.76-1.61-.39,0-.71,1.01-.86,1.75v1.9c0,.2.07.29.25.47h-.91c.18-.18.25-.28.25-.47v-3c0-.25-.08-.33-.17-.33-.08,0-.17.06-.25.11v-.08c.18-.18.47-.47.66-.47.13,0,.17.13.17.49v1.01c.17-.73.46-1.5.91-1.5.28,0,.61.31.71.48Z"/>
        <path class="cls-1" d="M17.7,5.88v-.9c-.17.43-.48.96-1.14.96-.77,0-1.04-.66-1.04-1.34,0-.49.15-1.54,1.14-1.54.61,0,.87.33,1.04.65v-.61c0-.44-.02-1.37-.59-1.37-.45,0-.89.56-1.23,1.16h-.08l.25-.93c.17-.09.45-.32.97-.32.75,0,1.1.48,1.1,1.3v2.47c0,.2.07.29.25.47h-.66ZM17.7,3.85c-.16-.33-.45-.73-.85-.73-.65,0-.9,1.02-.9,1.55s.28,1.18.75,1.18.83-.66.99-1.11v-.89Z"/>
        <path class="cls-1" d="M23.88.92l.11,1.22h-.08c-.23-.73-.57-1.74-1.36-1.74-.54,0-.91.48-.91,1.01,0,1.49,2.47,1.66,2.47,3.26,0,.85-.55,1.26-1.46,1.26-1.08,0-1.31-.51-1.46-.63l-.22-1.29h.08c.33.73.82,1.81,1.67,1.81.57,0,.94-.48.94-1.06,0-1.44-2.47-1.61-2.47-3.26,0-.8.54-1.22,1.35-1.22.91,0,1.2.51,1.34.63Z"/>
        <path class="cls-1" d="M24.74,5.4v-3c0-.25-.08-.33-.17-.33-.08,0-.17.06-.25.11v-.08c.18-.18.47-.47.66-.47.13,0,.17.13.17.49v.83c.17-.58.43-1.32,1-1.32.37,0,.67.32.67,1.15v.17c.17-.58.43-1.32,1-1.32.37,0,.67.32.67,1.15v2.62c0,.2.07.29.25.47h-.91c.18-.18.25-.28.25-.47v-2.23c0-.68.02-1.43-.37-1.43s-.73.81-.9,1.4v2.26c0,.2.07.29.25.47h-.91c.18-.18.25-.28.25-.47v-2.23c0-.68.03-1.43-.37-1.43s-.73.81-.9,1.4v2.26c0,.2.07.29.25.47h-.91c.18-.18.25-.28.25-.47Z"/>
        <path class="cls-1" d="M31.23,1.63c1.29,0,2.2.82,2.2,2.15s-.91,2.15-2.2,2.15-2.2-.82-2.2-2.15.91-2.15,2.2-2.15ZM31.23,5.84c1.04,0,1.77-.79,1.77-2.06s-.73-2.05-1.77-2.05-1.77.79-1.77,2.05.73,2.06,1.77,2.06Z"/>
        <path class="cls-1" d="M36.05,2.11l.08,1.25h-.08c-.17-.92-.44-1.61-.76-1.61-.39,0-.71,1.01-.86,1.75v1.9c0,.2.07.29.25.47h-.91c.18-.18.25-.28.25-.47v-3c0-.25-.08-.33-.17-.33-.08,0-.17.06-.25.11v-.08c.18-.18.47-.47.66-.47.13,0,.17.13.17.49v1.01c.17-.73.46-1.5.91-1.5.28,0,.61.31.71.48Z"/>
        <path class="cls-1" d="M39.3,3.11c.73.16,1.3.58,1.3,1.31,0,.85-.73,1.51-1.87,1.51-1.29,0-2.32-.82-2.32-2.15s1-2.15,2.2-2.15c.95,0,1.66.55,1.94,1.48h-1.26ZM36.94,3.11c-.06.21-.08.43-.08.67,0,1.26.85,2.05,1.96,2.05.91,0,1.71-.54,1.71-1.4,0-.8-.69-1.21-1.54-1.32h-2.05ZM40.12,3.02c-.25-.81-.78-1.3-1.49-1.3s-1.41.48-1.66,1.3h3.15Z"/>
      </g>
      <g>
        <path class="cls-2" d="M15,8.25c0-.24,0-.37-.03-.44.11,0,.17.01.23.02.07,0,.08.02.08.04,0,0,0,.02,0,.03-.02.04-.02.07-.02.35.05,0,.22,0,.49,0,0-.25,0-.35-.02-.46.12,0,.18.01.25.02.05,0,.06.02.06.04,0,.01,0,.02-.02.06,0,.02-.01.08-.01.15v.18c.22,0,.31,0,.37-.01,0,0,.02,0,.02,0,.01,0,.02,0,.03.01,0,.01.01.07.01.14,0,.1,0,.11-.04.11t-.06,0-.34,0c-.01.33-.06.51-.17.68-.09.15-.22.26-.39.36-.06.03-.14.06-.16.06-.02,0-.02,0-.07-.05-.05-.05-.08-.08-.15-.12.32-.11.48-.24.58-.46.06-.13.09-.26.1-.48h-.14s-.08,0-.17,0c-.04,0-.1,0-.18,0q0,.16,0,.35v.03s0,.04-.03.05c-.03,0-.09.01-.15.01-.07,0-.08,0-.08-.05v-.03c0-.2.01-.24.01-.36-.11,0-.31.01-.37.02,0,0,0,0-.01,0-.02,0-.03,0-.03-.03-.01-.04-.02-.14-.03-.25.11.01.18.02.36.02h.09Z"/>
        <path class="cls-2" d="M17.48,8.29c-.15.2-.41.44-.47.44-.02,0-.03,0-.07-.04-.03-.03-.09-.07-.16-.11.16-.09.32-.22.44-.36.13-.15.21-.28.28-.47.11.04.16.06.24.1.03.02.04.03.04.05,0,.02,0,.03-.03.04-.02.02-.04.04-.1.12h.33c.12,0,.14,0,.21-.02,0,0,.02,0,.02,0,.04,0,.07.03.14.11.04.05.05.07.05.1s0,.04-.04.07c-.02.02-.05.06-.07.1-.24.43-.47.7-.82.96-.15.11-.35.23-.39.23-.02,0-.03,0-.05-.03-.04-.04-.1-.08-.18-.13.32-.15.54-.31.77-.53.16-.16.27-.31.36-.49.02-.04.03-.07.07-.14h-.56Z"/>
        <path class="cls-2" d="M18.91,8.61s-.02,0-.02,0c-.05,0-.07-.07-.08-.3.11.02.26.02.67.02.44,0,.56,0,.6,0,.03,0,.04,0,.08-.02.02,0,.03,0,.04,0,.03,0,.06.02.09.05.06.07.1.13.1.16,0,.02-.01.04-.04.07-.02.02-.03.04-.07.13-.15.32-.31.52-.57.69-.12.08-.31.17-.35.17-.03,0-.05-.01-.09-.06-.06-.07-.08-.09-.15-.12.25-.07.48-.2.64-.36.12-.12.22-.27.28-.46-.83.01-.99.02-1.14.05ZM19.63,7.83q.23,0,.48-.02h.03s.04.02.04.09c0,.03,0,.05,0,.07h0c0,.09,0,.11-.04.11,0,0-.03,0-.05,0-.04,0-.21,0-.28,0-.33,0-.57,0-.69.02h-.02c-.06,0-.07-.03-.08-.28.14.02.28.02.6.02Z"/>
        <path class="cls-2" d="M22.09,9.09c.14.13.23.22.23.24,0,.02-.03.06-.1.12-.05.05-.07.06-.09.06,0,0-.02,0-.03-.02t-.12-.14c-.12-.14-.29-.28-.48-.42-.14.15-.34.32-.5.42-.13.09-.24.15-.27.15-.02,0-.02,0-.08-.06-.03-.04-.08-.08-.14-.12.25-.12.44-.24.65-.43.23-.21.38-.4.55-.7q-.74,0-.86.02s-.03,0-.04,0c-.02,0-.04-.01-.04-.04-.01-.07-.02-.14-.02-.25.15.02.38.03.7.03.13,0,.27,0,.34-.01.03,0,.03,0,.08-.02,0,0,.01,0,.03,0,.04,0,.08.03.13.1.04.06.07.11.07.13,0,.03,0,.04-.06.09-.04.04-.05.05-.12.17-.07.11-.17.25-.25.35.17.11.29.2.42.33Z"/>
        <path class="cls-2" d="M23.38,8.53h.18c.15,0,.5,0,.58-.02.05,0,.05,0,.06,0,.04,0,.04.01.04.09,0,.09,0,.15-.01.16,0,0-.02.01-.03.01h-.01s-.63-.01-.79-.01h-.02v.09s0,.08,0,.11c0,.16,0,.2.06.23.04.02.12.04.24.04.09,0,.19,0,.33-.03.02,0,.03,0,.05,0,.03,0,.04,0,.04.06,0,.06.01.11.01.16,0,.03-.01.04-.04.05-.04,0-.23.02-.35.02-.2,0-.33-.02-.43-.07-.12-.06-.18-.16-.18-.34,0-.03,0-.12,0-.31q-.33,0-.44,0s-.04,0-.05,0h-.02s-.01,0-.02,0c-.02,0-.04-.01-.04-.04-.01-.05-.02-.13-.02-.22.15.01.39.02.59.02v-.34c-.26,0-.29,0-.35.01,0,0-.01,0-.02,0-.02,0-.03,0-.03-.02,0-.04-.02-.15-.02-.23.15.02.33.02.65.02s.52,0,.62-.02h.01s.04.01.04.09q0,.15-.05.15h-.02c-.08,0-.37,0-.56,0v.34Z"/>
        <path class="cls-2" d="M25.23,7.92c.18,0,.32,0,.59,0,.1,0,.13,0,.16-.02.02,0,.03,0,.04,0,.04,0,.08.03.15.12.05.07.08.12.08.15,0,.02-.01.04-.04.05-.04.02-.04.03-.09.09-.08.11-.18.21-.32.34-.06.05-.08.07-.1.07-.02,0-.03,0-.04-.02-.05-.06-.1-.1-.18-.14.17-.1.28-.21.42-.4q-1.13,0-1.26.03s-.02,0-.03,0c-.03,0-.05-.02-.06-.06-.02-.06-.02-.13-.03-.22.11.02.3.03.71.03ZM25.41,8.34s.06.02.06.05t-.01.04s-.02.08-.03.15c-.04.3-.11.5-.23.66-.09.13-.24.25-.37.31-.01,0-.03.01-.04.01-.02,0-.03,0-.05-.03-.04-.05-.1-.09-.17-.14.13-.06.2-.1.27-.17.21-.18.32-.45.32-.81,0-.05,0-.08,0-.12.11,0,.18.02.25.04Z"/>
      </g>
    </g>
  </g>
</svg>