<?xml version="1.0" encoding="UTF-8"?>
<svg id="_レイヤー_2" data-name="レイヤー 2" xmlns="http://www.w3.org/2000/svg" viewBox="0 0 36.76 9.62">
  <defs>
    <style>
      .cls-1 {
        stroke: #f096aa;
        stroke-linecap: round;
        stroke-linejoin: round;
        stroke-width: .1px;
      }

      .cls-1, .cls-2 {
        fill: #f096aa;
      }

      .cls-2 {
        stroke-width: 0px;
      }
    </style>
  </defs>
  <g id="lay">
    <g>
      <g>
        <path class="cls-1" d="M.3,5.4V.82c0-.2-.07-.29-.25-.47h1.51c1.9,0,3.2.94,3.2,2.77s-1.3,2.77-3.2,2.77H.05c.18-.18.25-.28.25-.47ZM1.39,5.76c1.74,0,2.95-.92,2.95-2.66S3.13.45,1.39.45h-.66v5.31h.66Z"/>
        <path class="cls-1" d="M7.38,1.63c1.29,0,2.2.82,2.2,2.15s-.91,2.15-2.2,2.15-2.2-.82-2.2-2.15.91-2.15,2.2-2.15ZM7.38,5.84c1.04,0,1.77-.79,1.77-2.06s-.73-2.05-1.77-2.05-1.77.79-1.77,2.05.73,2.06,1.77,2.06Z"/>
        <path class="cls-1" d="M10.18,5.4V.82c0-.25-.08-.33-.17-.33-.08,0-.17.06-.25.11v-.08c.18-.18.47-.47.66-.47.13,0,.17.13.17.49v4.86c0,.2.07.29.25.47h-.91c.18-.18.25-.28.25-.47Z"/>
        <path class="cls-1" d="M11.4,5.4V.82c0-.25-.07-.33-.17-.33-.07,0-.17.06-.25.11v-.08c.18-.18.47-.47.66-.47.13,0,.17.13.17.49v4.86c0,.2.07.29.25.47h-.91c.18-.18.25-.28.25-.47Z"/>
        <path class="cls-1" d="M12.76,5.4v-3c0-.25-.08-.33-.17-.33-.08,0-.17.06-.25.11v-.08c.18-.18.47-.47.66-.47.13,0,.17.13.17.49v3.28c0,.2.07.29.25.47h-.91c.18-.18.25-.28.25-.47ZM12.88.29c.22,0,.35.13.35.33s-.13.33-.35.33-.35-.13-.35-.33.13-.33.35-.33Z"/>
        <path class="cls-1" d="M16.19,2.11l.08,1.01h-.08c-.17-.68-.48-1.4-1.08-1.4-.41,0-.68.36-.68.76,0,1.08,2.05,1.26,2.05,2.49,0,.64-.56.96-1.25.96-.82,0-1.18-.39-1.29-.48l-.17-1.09h.08c.26.68.79,1.48,1.44,1.48.43,0,.77-.36.77-.8,0-1.04-2.04-1.22-2.04-2.48,0-.61.47-.92,1.09-.92.7,0,.97.39,1.09.48Z"/>
        <path class="cls-1" d="M17.08,5.4V1.11c0-.79.38-1.06.79-1.06.71,0,.85.91.34,1.74.14-.09.3-.16.48-.16.43,0,.81.32.81,1.15v2.62c0,.2.07.29.25.47h-.91c.18-.18.25-.28.25-.47v-2.23c0-.68-.06-1.43-.52-1.43-.49,0-.88.84-1.07,1.42v2.24c0,.2.07.29.25.47h-.91c.18-.18.25-.28.25-.47ZM18,1.98c.7-.98.45-1.82-.07-1.82-.42,0-.44.59-.44,1.24v1.59c.11-.33.27-.74.51-1.01Z"/>
        <path class="cls-1" d="M27.59,5.06c-.29.23-.89.87-2.2.87-1.63,0-2.93-1.08-2.93-2.82s1.21-2.82,2.8-2.82c1.17,0,2.15.66,2.15,1.53,0,.4-.19,1.06-.81,1.29h1v1.95ZM27.17,4.12c-.02-.76-.35-.92-1.03-.92h-.37v-.09h.69c.8-.29.86-.96.86-1.2,0-1-1.05-1.53-1.99-1.53-1.28,0-2.43,1.07-2.43,2.73s1.2,2.72,2.55,2.72c.71,0,1.27-.24,1.73-.56v-1.15Z"/>
        <path class="cls-1" d="M30.34,2.11l.08,1.25h-.08c-.17-.92-.44-1.61-.76-1.61-.39,0-.71,1.01-.86,1.75v1.9c0,.2.07.29.25.47h-.91c.18-.18.25-.28.25-.47v-3c0-.25-.08-.33-.17-.33-.08,0-.17.06-.25.11v-.08c.18-.18.47-.47.66-.47.13,0,.17.13.17.49v1.01c.17-.74.46-1.5.91-1.5.28,0,.61.31.71.48Z"/>
        <path class="cls-1" d="M32.72,5.88v-.9c-.17.43-.48.96-1.14.96-.77,0-1.04-.66-1.04-1.34,0-.49.15-1.54,1.14-1.54.61,0,.87.33,1.04.65v-.61c0-.44-.02-1.37-.59-1.37-.45,0-.89.56-1.23,1.16h-.08l.25-.93c.17-.09.45-.32.97-.32.76,0,1.1.48,1.1,1.3v2.47c0,.2.07.29.25.47h-.66ZM32.72,3.85c-.16-.33-.45-.73-.85-.73-.65,0-.9,1.02-.9,1.55s.28,1.18.76,1.18.83-.66.99-1.11v-.89Z"/>
        <path class="cls-1" d="M36.33,2.16l-1.34,4c-.17.53-.33,1.19-.9,1.19-.37,0-.63-.27-.63-.7,0-.75.8-.85,1.49-.86l-1.29-3.64c-.07-.19-.18-.29-.37-.47h.94c-.18.18-.2.28-.13.47l1.1,3.05,1.01-3.05c.07-.19.05-.29-.11-.47h.61c-.21.18-.32.28-.38.47ZM33.55,6.65c0,.4.24.61.51.61.48,0,.64-.63.81-1.1l.1-.29c-.66,0-1.42.06-1.42.77Z"/>
      </g>
      <g>
        <path class="cls-2" d="M10.07,8.91c0,.14,0,.5.01.6h0s0,.05-.02.05c-.01.01-.1.02-.18.02-.07,0-.08,0-.08-.05h0c0-.07.01-.7.01-.96,0-.51,0-.65-.02-.78.16,0,.23.02.29.03.02,0,.03.02.03.03t0,.05s-.01.06-.02.09c0,0,0,.14-.01.4q.16.04.25.08c.22.08.35.13.54.24.02.01.03.02.03.04,0,.02-.04.13-.08.19-.02.04-.03.05-.04.05,0,0-.02,0-.04-.02-.22-.14-.44-.25-.67-.31v.25ZM10.61,8.22c-.04-.08-.1-.15-.17-.22-.01-.01-.01-.01-.01-.02,0-.01.01-.03.05-.06.03-.02.05-.03.06-.03.02,0,.04.02.09.08.07.08.12.15.12.17,0,.02-.1.1-.13.1,0,0-.01,0-.02-.02ZM10.92,8.06s-.05.03-.06.03c0,0-.01,0-.02-.02-.05-.09-.1-.15-.17-.22,0,0-.01-.01-.01-.02,0-.02.09-.08.11-.08.01,0,.02,0,.05.03.07.06.16.18.16.21,0,.01-.02.03-.07.06Z"/>
        <path class="cls-2" d="M12.17,8.54c.4,0,.63,0,.86-.02h.03c.07,0,.07,0,.07.18,0,.09,0,.11-.04.11h0c-.15,0-.23,0-.86,0-.23,0-.35,0-.55,0h-.06c-.07,0-.08,0-.12,0-.01,0-.02,0-.02,0-.02,0-.04-.01-.04-.03-.01-.05-.02-.17-.02-.27.18.02.33.02.79.02Z"/>
        <path class="cls-2" d="M14.05,8.48c0,.05,0,.15,0,.21,0,.02,0,.04,0,.05,0,.04-.03.05-.2.05-.07,0-.08,0-.08-.05v-.04c0-.17.01-.27.01-.42,0-.26,0-.35-.02-.47.11,0,.22,0,.27.02.03,0,.05.02.05.05,0,.01,0,.02,0,.03-.02.04-.02.09-.02.19v.37ZM14.91,8.2c0,.31-.02.52-.06.67-.08.28-.26.5-.52.65-.05.03-.1.05-.11.05-.01,0-.03,0-.04-.02-.05-.06-.09-.1-.17-.15.14-.05.26-.13.36-.22.11-.11.19-.24.22-.4.03-.13.05-.36.05-.62,0-.18,0-.27-.02-.35.13,0,.21.01.28.02.03,0,.04.02.04.04,0,.01,0,.02,0,.04-.02.05-.02.09-.02.2v.09Z"/>
        <path class="cls-2" d="M15.73,8.83c-.03-.08-.1-.22-.13-.26-.05-.07-.05-.08-.05-.09,0-.02.02-.04.08-.07.07-.04.07-.04.09-.04.02,0,.02,0,.06.06.07.09.18.29.18.33,0,.02-.02.03-.06.06-.05.03-.12.06-.13.06-.02,0-.02,0-.04-.04ZM16.93,8.45s0,.02-.01.03c-.02.03-.04.05-.06.11-.16.35-.26.52-.44.69-.13.13-.33.28-.38.28-.01,0-.02,0-.04-.02-.04-.04-.1-.09-.17-.13.33-.18.52-.35.67-.64.09-.16.14-.33.15-.46.18.05.28.1.28.13ZM16.13,8.73c-.03-.09-.09-.22-.16-.33,0,0,0-.01,0-.02,0-.02.02-.03.08-.06.08-.04.09-.05.1-.05.02,0,.03.01.05.05.07.11.16.29.16.32,0,.01-.01.02-.05.05-.05.03-.13.07-.15.07-.01,0-.02,0-.03-.03Z"/>
        <path class="cls-2" d="M17.94,8.73s-.04.06-.06.06t-.11-.06c-.08-.05-.17-.1-.33-.15-.04-.01-.05-.02-.05-.04,0-.01.02-.05.05-.11,0-.02.02-.03.02-.04.02-.04.04-.06.05-.06.04,0,.2.06.32.12.07.03.15.08.17.09,0,0,.01.02.01.03,0,.02-.03.08-.08.16ZM19.08,8.48s.01.04.01.05c0,.03-.01.05-.05.09-.18.2-.37.37-.59.52-.19.13-.41.25-.62.34-.06.03-.08.04-.11.06-.02.02-.03.02-.04.02-.04,0-.12-.12-.18-.29.21-.04.46-.14.72-.29.16-.09.35-.24.48-.37.12-.11.19-.2.32-.37.01.1.02.13.07.25ZM18.16,8.3s-.04.04-.06.04c0,0-.02,0-.03-.02-.14-.12-.27-.2-.41-.26-.02,0-.03-.02-.03-.03,0,0,0-.02.01-.03.11-.16.11-.17.13-.17.04,0,.23.09.35.17.11.07.13.09.13.11,0,.02-.05.11-.1.18Z"/>
        <path class="cls-2" d="M19.88,8.66c-.08,0-.13,0-.18.01,0,0-.01,0-.01,0-.02,0-.03-.01-.04-.04-.01-.05-.02-.12-.02-.22.08.02.21.02.45.02.2,0,.22,0,.26-.02,0,0,.02,0,.02,0,.04,0,.07.02.12.07.05.04.08.09.08.11,0,0,0,.02-.02.04t-.06.24c-.03.17-.04.24-.05.32t0,.01c.2,0,.23,0,.33,0h.01s.04.02.04.14c0,.09,0,.1-.03.1-.01,0-.02,0-.11,0-.07,0-.31,0-.52,0-.34,0-.6,0-.69.02h-.02s-.04,0-.05-.02c0-.03-.02-.09-.03-.23.15.01.22.02.82.02,0-.02,0-.02,0-.04.03-.14.05-.32.07-.51h-.38Z"/>
        <path class="cls-2" d="M21.85,8.31c-.15.2-.41.44-.48.44-.02,0-.03,0-.07-.04-.03-.03-.09-.07-.16-.11.16-.08.32-.22.44-.36.13-.15.21-.28.28-.48.11.04.17.06.24.1.03.02.04.03.04.05,0,.02,0,.03-.03.04-.02.02-.04.04-.1.12h.33c.12,0,.14,0,.21-.02,0,0,.02,0,.02,0,.04,0,.07.03.14.11.04.05.05.07.05.1s0,.04-.04.07c-.02.02-.05.06-.07.1-.24.43-.47.7-.82.96-.15.11-.35.23-.39.23-.02,0-.03,0-.05-.03-.04-.04-.1-.08-.18-.13.32-.15.55-.31.77-.53.16-.16.27-.31.36-.49.02-.04.03-.07.07-.14h-.56ZM22.89,8.07s-.08.06-.09.06t-.05-.07c-.04-.06-.09-.13-.14-.18,0,0-.01-.01-.01-.02,0-.02.08-.08.11-.08.02,0,.04.02.11.1.06.07.1.13.1.14s0,.02-.03.04ZM22.99,7.96c-.05-.09-.1-.15-.16-.21,0,0-.01-.01-.01-.02,0-.01.01-.02.05-.05.03-.02.04-.03.06-.03.02,0,.08.06.16.15.03.04.05.07.05.08s0,.02-.03.04c-.04.03-.07.05-.08.05,0,0-.01,0-.02-.02Z"/>
        <path class="cls-2" d="M23.53,8.29c0-.15,0-.24-.02-.37.11,0,.2.02.28.03.04.01.05.02.05.04,0,0,0,.02-.01.05q-.02.06-.03,1.06c.33-.11.51-.2.75-.37.12-.09.22-.17.32-.27v.02c0,.08,0,.15.02.24,0,.02,0,.03,0,.04,0,.04-.03.07-.15.16-.12.1-.31.22-.45.29-.12.06-.23.11-.39.16-.05.02-.08.03-.11.05-.02.02-.04.02-.06.02-.06,0-.22-.15-.22-.21,0-.01,0-.02,0-.04,0-.03.01-.06.01-.15v-.74Z"/>
        <path class="cls-2" d="M26.19,8.54c.4,0,.63,0,.86-.02h.03c.07,0,.07,0,.07.18,0,.09,0,.11-.04.11h0c-.15,0-.23,0-.86,0-.23,0-.35,0-.55,0h-.06c-.07,0-.08,0-.12,0-.01,0-.02,0-.02,0-.02,0-.04-.01-.04-.03-.01-.05-.02-.17-.02-.27.18.02.33.02.79.02Z"/>
      </g>
    </g>
  </g>
</svg>