<?xml version="1.0" encoding="UTF-8"?>
<svg id="_レイヤー_2" data-name="レイヤー 2" xmlns="http://www.w3.org/2000/svg" viewBox="0 0 41.06 9.58">
  <defs>
    <style>
      .cls-1 {
        stroke: #f096aa;
        stroke-linecap: round;
        stroke-linejoin: round;
        stroke-width: .1px;
      }

      .cls-1, .cls-2 {
        fill: #f096aa;
      }

      .cls-2 {
        stroke-width: 0px;
      }
    </style>
  </defs>
  <g id="lay">
    <g>
      <g>
        <path class="cls-1" d="M.3,5.4V.82c0-.2-.07-.29-.25-.47h1.51c1.9,0,3.2.94,3.2,2.77s-1.3,2.77-3.2,2.77H.05c.18-.18.25-.28.25-.47ZM1.39,5.76c1.74,0,2.95-.92,2.95-2.66S3.13.45,1.39.45h-.66v5.31h.66Z"/>
        <path class="cls-1" d="M7.38,1.63c1.29,0,2.2.82,2.2,2.15s-.91,2.15-2.2,2.15-2.2-.82-2.2-2.15.91-2.15,2.2-2.15ZM7.38,5.84c1.04,0,1.77-.79,1.77-2.06s-.73-2.05-1.77-2.05-1.77.79-1.77,2.05.73,2.06,1.77,2.06Z"/>
        <path class="cls-1" d="M10.18,5.4V.82c0-.25-.08-.33-.17-.33-.08,0-.17.06-.25.11v-.08c.18-.18.47-.47.66-.47.13,0,.17.13.17.49v4.86c0,.2.07.29.25.47h-.91c.18-.18.25-.28.25-.47Z"/>
        <path class="cls-1" d="M11.4,5.4V.82c0-.25-.07-.33-.17-.33-.07,0-.17.06-.25.11v-.08c.18-.18.47-.47.66-.47.13,0,.17.13.17.49v4.86c0,.2.07.29.25.47h-.91c.18-.18.25-.28.25-.47Z"/>
        <path class="cls-1" d="M12.76,5.4v-3c0-.25-.08-.33-.17-.33-.08,0-.17.06-.25.11v-.08c.18-.18.47-.47.66-.47.13,0,.17.13.17.49v3.28c0,.2.07.29.25.47h-.91c.18-.18.25-.28.25-.47ZM12.88.29c.22,0,.35.13.35.33s-.13.33-.35.33-.35-.13-.35-.33.13-.33.35-.33Z"/>
        <path class="cls-1" d="M16.19,2.11l.08,1.01h-.08c-.17-.68-.48-1.4-1.08-1.4-.41,0-.68.36-.68.76,0,1.07,2.05,1.26,2.05,2.49,0,.64-.56.96-1.25.96-.82,0-1.18-.39-1.29-.48l-.17-1.09h.08c.26.68.79,1.48,1.44,1.48.43,0,.77-.36.77-.8,0-1.04-2.04-1.23-2.04-2.48,0-.61.47-.92,1.09-.92.7,0,.97.39,1.09.48Z"/>
        <path class="cls-1" d="M17.08,5.4V1.11c0-.79.38-1.06.79-1.06.71,0,.85.91.34,1.74.14-.09.3-.16.48-.16.43,0,.81.32.81,1.15v2.62c0,.2.07.29.25.47h-.91c.18-.18.25-.28.25-.47v-2.23c0-.68-.06-1.43-.52-1.43-.49,0-.88.84-1.07,1.42v2.24c0,.2.07.29.25.47h-.91c.18-.18.25-.28.25-.47ZM18,1.98c.7-.98.45-1.82-.07-1.82-.42,0-.44.59-.44,1.24v1.59c.11-.33.27-.74.51-1.01Z"/>
        <path class="cls-1" d="M22.65,5.4V.82c0-.2-.07-.29-.25-.47h1.01c1.4,0,1.88.44,1.88,1.07,0,.8-.76,1.04-1.55,1.13,1.09.12,2.05.36,2.05,1.6,0,1.04-.56,1.72-2.37,1.72h-1.01c.18-.18.25-.28.25-.47ZM23.28,2.5c.66,0,1.59-.25,1.59-1.08,0-.58-.37-.96-1.62-.96h-.16v2.05h.19ZM23.24,5.76c1.66,0,2.12-.75,2.12-1.6,0-1.18-1.16-1.56-2.08-1.56h-.19v3.15h.16Z"/>
        <path class="cls-1" d="M28.56,2.11l.08,1.25h-.08c-.17-.92-.44-1.61-.75-1.61-.39,0-.71,1.01-.85,1.75v1.9c0,.2.07.29.25.47h-.91c.18-.18.25-.28.25-.47v-3c0-.25-.07-.33-.17-.33-.07,0-.17.06-.25.11v-.08c.18-.18.47-.47.66-.47.13,0,.17.13.17.49v1.01c.17-.73.46-1.5.9-1.5.28,0,.61.31.71.48Z"/>
        <path class="cls-1" d="M31.13,1.63c1.29,0,2.2.82,2.2,2.15s-.91,2.15-2.2,2.15-2.2-.82-2.2-2.15.91-2.15,2.2-2.15ZM31.13,5.84c1.04,0,1.77-.79,1.77-2.06s-.73-2.05-1.77-2.05-1.77.79-1.77,2.05.73,2.06,1.77,2.06Z"/>
        <path class="cls-1" d="M35.67,1.69l.85,3.44.71-2.96c.04-.19.02-.29-.12-.47h.61c-.22.18-.32.28-.37.47l-.91,3.77h-.11l-.87-3.33-.79,3.33h-.11l-.98-3.77c-.05-.19-.18-.29-.37-.47h.94c-.18.18-.18.28-.13.47l.73,2.96.82-3.44h.11Z"/>
        <path class="cls-1" d="M38.34,5.4v-3c0-.25-.08-.33-.17-.33-.08,0-.17.06-.25.11v-.08c.18-.18.47-.47.66-.47.13,0,.17.13.17.49v.87c.19-.58.52-1.36,1.2-1.36.43,0,.81.32.81,1.15v2.62c0,.2.07.29.25.47h-.91c.18-.18.25-.28.25-.47v-2.23c0-.68-.06-1.43-.52-1.43-.49,0-.88.84-1.07,1.42v2.24c0,.2.07.29.25.47h-.91c.18-.18.25-.28.25-.47Z"/>
      </g>
      <g>
        <path class="cls-2" d="M11.4,8.91c0,.14,0,.5.01.6h0s0,.05-.02.05c-.01.01-.1.02-.18.02-.07,0-.08,0-.08-.05h0c0-.07.01-.7.01-.96,0-.51,0-.65-.02-.78.16,0,.23.02.29.03.02,0,.03.02.03.03t0,.05s-.01.06-.02.09c0,0,0,.14-.01.4q.16.04.25.08c.22.08.35.13.54.24.02.01.03.02.03.04,0,.02-.04.13-.08.19-.02.04-.03.05-.04.05,0,0-.02,0-.04-.02-.22-.14-.44-.25-.67-.31v.25ZM11.95,8.22c-.04-.08-.1-.15-.17-.22-.01-.01-.01-.01-.01-.02,0-.01.01-.03.05-.06.03-.02.05-.03.06-.03.02,0,.04.02.09.08.07.08.12.15.12.17,0,.02-.1.1-.13.1,0,0-.01,0-.02-.02ZM12.26,8.06s-.05.03-.06.03c0,0-.01,0-.02-.02-.05-.09-.1-.15-.17-.22,0,0-.01-.01-.01-.02,0-.02.09-.08.11-.08.01,0,.02,0,.05.03.07.06.16.18.16.21,0,.01-.02.03-.07.06Z"/>
        <path class="cls-2" d="M13.51,8.54c.4,0,.63,0,.86-.02h.03c.07,0,.07,0,.07.18,0,.09,0,.11-.04.11h0c-.15,0-.23,0-.86,0-.23,0-.35,0-.55,0h-.06c-.07,0-.08,0-.12,0-.01,0-.02,0-.02,0-.02,0-.04-.01-.04-.03-.01-.05-.02-.17-.02-.27.18.02.33.02.79.02Z"/>
        <path class="cls-2" d="M15.38,8.48c0,.05,0,.15,0,.21,0,.02,0,.04,0,.05,0,.04-.03.05-.2.05-.07,0-.08,0-.08-.05v-.04c0-.17.01-.27.01-.42,0-.26,0-.35-.02-.47.11,0,.22,0,.27.02.03,0,.05.02.05.05,0,.01,0,.02,0,.03-.02.04-.02.09-.02.19v.37ZM16.24,8.2c0,.31-.02.52-.06.67-.08.28-.26.5-.52.65-.05.03-.1.05-.11.05-.01,0-.03,0-.04-.02-.05-.06-.09-.1-.17-.15.14-.05.26-.13.36-.22.11-.11.19-.24.22-.4.03-.13.05-.36.05-.62,0-.18,0-.27-.02-.35.13,0,.21.01.28.02.03,0,.04.02.04.04,0,.01,0,.02,0,.04-.02.05-.02.09-.02.2v.09Z"/>
        <path class="cls-2" d="M17.06,8.83c-.03-.08-.1-.22-.13-.26-.05-.07-.05-.08-.05-.09,0-.02.02-.04.08-.07.07-.04.07-.04.09-.04.02,0,.02,0,.06.06.07.09.18.29.18.33,0,.02-.02.03-.06.06-.05.03-.12.06-.13.06-.02,0-.02,0-.04-.04ZM18.26,8.45s0,.02-.01.03c-.02.03-.04.05-.06.11-.16.35-.26.52-.44.69-.13.13-.33.28-.38.28-.01,0-.02,0-.04-.02-.04-.04-.1-.09-.17-.13.33-.18.52-.35.67-.64.09-.16.14-.33.15-.46.18.05.28.1.28.13ZM17.47,8.73c-.03-.09-.09-.22-.16-.33,0,0,0-.01,0-.02,0-.02.02-.03.08-.06.08-.04.09-.05.1-.05.02,0,.03.01.05.05.07.11.16.29.16.32,0,.01-.01.02-.05.05-.05.03-.13.07-.15.07-.01,0-.02,0-.03-.03Z"/>
        <path class="cls-2" d="M19.28,8.73s-.04.06-.06.06t-.11-.06c-.08-.05-.17-.1-.33-.15-.04-.01-.05-.02-.05-.04,0-.01.02-.05.05-.11,0-.02.02-.03.02-.04.02-.04.04-.06.05-.06.04,0,.2.06.32.12.07.03.15.08.17.09,0,0,.01.02.01.03,0,.02-.03.08-.08.16ZM20.41,8.48s.01.04.01.05c0,.03-.01.05-.05.09-.18.2-.37.37-.59.52-.19.13-.41.25-.62.34-.06.03-.08.04-.11.06-.02.02-.03.02-.04.02-.04,0-.12-.12-.18-.29.21-.04.46-.14.72-.29.16-.09.35-.24.48-.37.12-.11.19-.2.32-.37.01.1.02.13.07.25ZM19.49,8.3s-.04.04-.06.04c0,0-.02,0-.03-.02-.14-.12-.27-.2-.41-.26-.02,0-.03-.02-.03-.03,0,0,0-.02.01-.03.11-.16.11-.17.13-.17.04,0,.23.09.35.17.11.07.13.09.13.11,0,.02-.05.11-.1.18Z"/>
        <path class="cls-2" d="M21.21,8.66c-.08,0-.13,0-.18.01,0,0-.01,0-.01,0-.02,0-.03-.01-.04-.04-.01-.05-.02-.12-.02-.22.08.02.21.02.45.02.2,0,.22,0,.26-.02,0,0,.02,0,.02,0,.04,0,.07.02.12.07.05.04.08.09.08.11,0,0,0,.02-.02.04t-.06.24c-.03.17-.04.24-.05.32t0,.01c.2,0,.23,0,.33,0h.01s.04.02.04.14c0,.09,0,.1-.03.1-.01,0-.02,0-.11,0-.07,0-.31,0-.52,0-.34,0-.6,0-.69.02h-.02s-.04,0-.05-.02c0-.03-.02-.09-.03-.23.15.01.22.02.82.02,0-.02,0-.02,0-.04.03-.14.05-.32.07-.51h-.38Z"/>
        <path class="cls-2" d="M23.22,8.22c-.39,0-.67.02-.74.04,0,0,0,0,0,0-.04,0-.06-.07-.06-.3.11.02.25.02.57.02.29,0,.64,0,.7-.01.04,0,.05,0,.09-.02.01,0,.02,0,.02,0,.04,0,.08.04.15.12.04.05.05.07.05.09,0,.02,0,.03-.02.05-.02.03-.02.03-.07.19-.12.39-.37.73-.7.99-.13.1-.26.18-.29.18-.02,0-.03,0-.08-.05-.06-.06-.11-.09-.17-.13.32-.16.5-.3.67-.51.15-.19.25-.4.3-.64q-.17,0-.42,0ZM24.18,8s-.08.06-.09.06t-.05-.07c-.04-.06-.09-.13-.14-.18,0,0-.01-.01-.01-.02,0-.02.08-.08.11-.08.02,0,.04.02.11.1.06.07.1.13.1.14s0,.02-.03.04ZM24.27,7.89c-.05-.09-.1-.15-.16-.21,0,0-.01-.01-.01-.02,0-.01.01-.02.05-.05.03-.02.04-.03.06-.03.02,0,.08.06.16.15.03.04.05.07.05.08s0,.02-.03.04c-.04.03-.07.05-.08.05,0,0-.02,0-.02-.02Z"/>
        <path class="cls-2" d="M24.65,8.61s-.02,0-.02,0c-.05,0-.07-.07-.08-.3.11.02.26.02.67.02.44,0,.56,0,.6,0,.03,0,.04,0,.08-.02.02,0,.03,0,.04,0,.03,0,.06.02.09.05.06.07.1.13.1.16,0,.02-.01.04-.04.07-.02.02-.03.04-.07.13-.15.32-.31.52-.57.69-.12.08-.31.17-.35.17-.03,0-.05-.01-.09-.06-.06-.07-.08-.09-.15-.12.25-.07.48-.2.64-.36.12-.12.22-.27.28-.46-.83.01-.99.02-1.14.05ZM25.37,7.83q.23,0,.48-.02h.03s.04.02.04.09c0,.03,0,.05,0,.07h0c0,.09,0,.11-.04.11,0,0-.03,0-.05,0-.04,0-.21,0-.28,0-.33,0-.57,0-.69.02h-.02c-.06,0-.07-.03-.08-.28.14.02.28.02.6.02Z"/>
        <path class="cls-2" d="M27.24,8.03c0-.12,0-.19-.02-.28.15,0,.25.01.3.03.02,0,.03.02.03.03,0,.01,0,.02-.01.04-.02.03-.02.07-.02.18v.07h.28c.07,0,.11,0,.16-.02.03,0,.04-.01.06-.01.04,0,.1.05.18.13.04.04.05.06.05.08,0,.02,0,.03-.02.06-.02.04-.03.06-.05.17-.05.2-.09.31-.18.46-.15.25-.35.44-.61.57-.06.03-.1.05-.12.05-.01,0-.02,0-.04-.03-.04-.05-.09-.09-.17-.15.18-.07.27-.12.37-.2.22-.15.36-.34.45-.59.04-.11.05-.19.06-.29-.2,0-.28,0-.46,0-.19,0-.31,0-.58,0q0,.14,0,.16c0,.06,0,.1,0,.19h0s0,.04-.02.05c-.02,0-.09.01-.15.01-.08,0-.1,0-.1-.04,0-.01,0-.03,0-.05s0-.26,0-.31c0-.07,0-.13,0-.23.06,0,.18.01.33.01h.31v-.07Z"/>
        <path class="cls-2" d="M30.26,8.36s.02.04.02.05c0,.02,0,.04-.04.08-.12.16-.25.29-.45.44-.22.17-.41.29-.67.41-.17.08-.18.08-.2.11-.02.02-.03.02-.04.02-.02,0-.04-.02-.07-.07-.04-.07-.09-.16-.11-.23.22-.05.49-.17.75-.33.34-.21.55-.42.72-.71.02.08.04.13.1.24ZM28.79,7.99s.05-.05.07-.05c.04,0,.21.11.34.22.08.07.11.1.11.12,0,.02-.04.08-.09.13-.05.06-.07.07-.09.07t-.11-.09c-.06-.06-.17-.15-.23-.18q-.08-.05-.09-.06s-.01-.01-.01-.02c0-.02.04-.08.1-.15Z"/>
      </g>
    </g>
  </g>
</svg>