<?xml version="1.0" encoding="UTF-8"?>
<svg id="_レイヤー_2" data-name="レイヤー 2" xmlns="http://www.w3.org/2000/svg" viewBox="0 0 39.56 9.62">
  <defs>
    <style>
      .cls-1 {
        stroke: #f096aa;
        stroke-linecap: round;
        stroke-linejoin: round;
        stroke-width: .1px;
      }

      .cls-1, .cls-2 {
        fill: #f096aa;
      }

      .cls-2 {
        stroke-width: 0px;
      }
    </style>
  </defs>
  <g id="lay">
    <g>
      <g>
        <path class="cls-1" d="M.3,5.4V.82c0-.2-.07-.29-.25-.47h1.51c1.9,0,3.2.94,3.2,2.77s-1.3,2.77-3.2,2.77H.05c.18-.18.25-.28.25-.47ZM1.39,5.76c1.74,0,2.95-.92,2.95-2.66S3.13.45,1.39.45h-.66v5.31h.66Z"/>
        <path class="cls-1" d="M7.27,5.88v-.9c-.17.43-.48.96-1.14.96-.77,0-1.04-.66-1.04-1.34,0-.49.15-1.54,1.14-1.54.61,0,.87.33,1.04.65v-.61c0-.44-.02-1.37-.59-1.37-.45,0-.89.56-1.23,1.16h-.08l.25-.93c.17-.09.45-.32.97-.32.76,0,1.1.48,1.1,1.3v2.47c0,.2.07.29.25.47h-.66ZM7.27,3.85c-.16-.33-.45-.73-.85-.73-.65,0-.9,1.02-.9,1.55s.28,1.18.76,1.18.83-.66.99-1.11v-.89Z"/>
        <path class="cls-1" d="M10.15,1.77h-.52c-.68,0-.96.21-1.15.87h-.08l.08-.96h2.16v.09l-1.93,4.01h.8c.68,0,.96-.21,1.15-.87h.08l-.08.96h-2.44v-.09l1.93-4.01Z"/>
        <path class="cls-1" d="M13.08,1.77h-.52c-.68,0-.96.21-1.15.87h-.08l.08-.96h2.16v.09l-1.93,4.01h.81c.68,0,.96-.21,1.15-.87h.08l-.08.96h-2.44v-.09l1.93-4.01Z"/>
        <path class="cls-1" d="M14.38,5.4V.82c0-.25-.07-.33-.17-.33-.07,0-.17.06-.25.11v-.08c.18-.18.47-.47.66-.47.13,0,.17.13.17.49v4.86c0,.2.07.29.25.47h-.91c.18-.18.25-.28.25-.47Z"/>
        <path class="cls-1" d="M18.28,3.11c.73.16,1.3.58,1.3,1.31,0,.85-.73,1.51-1.87,1.51-1.29,0-2.32-.82-2.32-2.15s1-2.15,2.2-2.15c.95,0,1.66.55,1.94,1.48h-1.26ZM15.91,3.11c-.06.21-.08.43-.08.67,0,1.26.85,2.05,1.96,2.05.91,0,1.71-.54,1.71-1.4,0-.8-.69-1.21-1.54-1.32h-2.05ZM19.09,3.02c-.25-.81-.78-1.3-1.49-1.3s-1.41.48-1.66,1.3h3.15Z"/>
        <path class="cls-1" d="M22.63,5.4V.82c0-.2-.07-.29-.25-.47h1.01c1.4,0,1.88.44,1.88,1.07,0,.8-.76,1.04-1.55,1.13,1.09.12,2.05.36,2.05,1.6,0,1.04-.56,1.72-2.37,1.72h-1.01c.18-.18.25-.28.25-.47ZM23.25,2.5c.66,0,1.58-.25,1.58-1.08,0-.58-.37-.96-1.62-.96h-.16v2.05h.19ZM23.22,5.76c1.66,0,2.12-.75,2.12-1.6,0-1.18-1.16-1.56-2.08-1.56h-.19v3.15h.16Z"/>
        <path class="cls-1" d="M29.09,3.11c.73.16,1.3.58,1.3,1.31,0,.85-.73,1.51-1.87,1.51-1.29,0-2.32-.82-2.32-2.15s1-2.15,2.2-2.15c.96,0,1.66.55,1.94,1.48h-1.26ZM26.72,3.11c-.06.21-.08.43-.08.67,0,1.26.85,2.05,1.96,2.05.91,0,1.71-.54,1.71-1.4,0-.8-.69-1.21-1.54-1.32h-2.05ZM29.9,3.02c-.25-.81-.78-1.3-1.49-1.3s-1.41.48-1.66,1.3h3.15Z"/>
        <path class="cls-1" d="M31.07,5.4v-3c0-.25-.07-.33-.17-.33-.07,0-.17.06-.25.11v-.08c.18-.18.47-.47.66-.47.13,0,.17.13.17.49v3.28c0,.2.07.29.25.47h-.91c.18-.18.25-.28.25-.47ZM31.19.29c.22,0,.35.13.35.33s-.13.33-.35.33-.35-.13-.35-.33.13-.33.35-.33Z"/>
        <path class="cls-1" d="M32.92,4.52c-.13.06-.24.23-.24.38,0,.74,2.56.09,2.56,1.42,0,.78-.85,1.03-1.57,1.03-.61,0-1.63-.17-1.63-.99,0-.4.27-.68.64-.83-.16-.12-.24-.29-.24-.48,0-.28.17-.44.42-.56-.49-.28-.66-.84-.66-1.35,0-.83.43-1.51,1.38-1.51.38,0,.75.11,1,.4l.58-.58h.08v.36l-.61.28c.24.3.32.69.32,1.06,0,.83-.42,1.52-1.38,1.52-.22,0-.45-.03-.65-.13ZM32.46,6.32c0,.66.66.94,1.19.94.46,0,1.39-.21,1.39-.74,0-.66-1.74-.65-2.25-.91-.2.18-.33.44-.33.71ZM34.51,3.14c0-.57-.18-1.43-.95-1.43s-.95.86-.95,1.43.18,1.42.95,1.42.95-.85.95-1.42Z"/>
        <path class="cls-1" d="M38.2,3.11c.73.16,1.3.58,1.3,1.31,0,.85-.73,1.51-1.87,1.51-1.29,0-2.32-.82-2.32-2.15s1-2.15,2.2-2.15c.95,0,1.66.55,1.94,1.48h-1.26ZM35.84,3.11c-.06.21-.08.43-.08.67,0,1.26.85,2.05,1.96,2.05.91,0,1.71-.54,1.71-1.4,0-.8-.69-1.21-1.54-1.32h-2.05ZM39.02,3.02c-.25-.81-.78-1.3-1.49-1.3s-1.41.48-1.66,1.3h3.15Z"/>
      </g>
      <g>
        <path class="cls-2" d="M12.98,8.66c-.07.05-.1.08-.12.08-.02,0-.02,0-.06-.04-.04-.04-.09-.08-.16-.11.24-.14.38-.27.51-.46.09-.13.16-.26.2-.38.23.09.29.11.29.15,0,.01,0,.02-.03.04-.02.01-.05.05-.11.14h.04c.08,0,.13,0,.14,0,.21,0,.27,0,.34-.03.02,0,.02,0,.04,0,.03,0,.06.02.13.11.05.06.07.09.07.11,0,.02,0,.03-.03.05-.02.02-.04.06-.08.12-.21.38-.36.58-.61.81-.2.18-.51.39-.57.39-.02,0-.04,0-.05-.03-.07-.06-.12-.1-.19-.13.3-.15.54-.31.75-.52t-.06-.07s-.1-.09-.21-.17c-.01-.01-.02-.02-.02-.03,0-.01.03-.04.11-.12.04-.04.05-.04.06-.04.04,0,.17.11.3.24.13-.17.23-.33.28-.48q-.25,0-.57,0c-.1.13-.23.26-.38.38ZM14.43,8.1s-.08.06-.09.06t-.05-.07c-.04-.06-.09-.13-.14-.18,0,0-.01-.01-.01-.02,0-.02.08-.08.11-.08.02,0,.04.02.11.1.06.07.1.13.1.14s0,.02-.03.04ZM14.53,7.98c-.05-.09-.1-.15-.16-.21,0,0-.01-.01-.01-.02,0-.01.01-.02.05-.05.03-.02.04-.03.06-.03.02,0,.08.06.16.15.03.04.05.07.05.08,0,.01,0,.02-.03.04-.04.03-.07.05-.08.05,0,0-.02,0-.02-.02Z"/>
        <path class="cls-2" d="M16.31,9.09c.14.13.23.22.23.25,0,.02-.03.05-.1.12-.05.05-.07.06-.09.06,0,0-.02,0-.03-.02t-.12-.14c-.12-.14-.29-.28-.48-.42-.15.15-.34.32-.5.43-.12.08-.24.15-.27.15-.02,0-.02,0-.08-.06-.03-.03-.08-.08-.14-.12.25-.11.44-.24.65-.43.23-.21.38-.4.55-.7q-.74,0-.87.02s-.03,0-.04,0c-.02,0-.04-.01-.04-.04-.01-.07-.01-.14-.01-.25.15.02.38.03.7.03.13,0,.27,0,.34-.01.03,0,.03,0,.08-.02,0,0,.01,0,.03,0,.04,0,.08.03.13.1.04.06.07.1.07.13s0,.04-.06.09c-.04.03-.05.05-.12.16-.07.11-.17.25-.25.35.17.11.29.2.42.33ZM16.43,8.09c-.05-.09-.09-.15-.16-.22t-.01-.02s.01-.03.05-.05c.03-.02.05-.03.06-.03.02,0,.04.02.09.08.07.08.12.15.12.17,0,.02-.1.1-.13.1,0,0-.01,0-.02-.02ZM16.74,7.92s-.03.02-.04.03c0,0,0,0-.01,0t0,0s-.01,0-.02-.02c-.07-.1-.11-.17-.17-.22t-.01-.01s.09-.08.11-.08c.02,0,.02,0,.05.03.04.03.11.12.15.17,0,0,.01.02.02.04,0,.01-.03.04-.07.06Z"/>
        <path class="cls-2" d="M17.54,7.97s.03.02.03.04c0,0,0,.01,0,.03-.01.05-.01.08-.01.17,0,.54-.1.88-.33,1.17-.05.06-.07.08-.09.08,0,0-.02,0-.04-.01-.06-.04-.11-.06-.21-.08.15-.15.21-.24.28-.38.09-.21.13-.42.13-.73,0-.15,0-.21-.02-.32.12,0,.22.02.28.04ZM17.77,8.18c0-.11,0-.19-.02-.29.24,0,.32.03.32.07,0,.01,0,.02-.01.04,0,.01-.01.05-.01.08q0,.06-.01,1.03c.28-.16.46-.31.65-.54,0,.11.01.2.03.26,0,.02,0,.03,0,.04,0,.04-.02.06-.12.16-.16.15-.27.23-.48.33-.05.02-.08.04-.1.07-.01.01-.04.02-.05.02-.03,0-.11-.05-.16-.11-.04-.04-.06-.08-.06-.11,0-.01,0-.02,0-.04.01-.04.02-.08.02-.2v-.83Z"/>
        <path class="cls-2" d="M19.47,8.39c.11-.12.13-.14.17-.17.05-.03.08-.04.14-.04.06,0,.1.01.15.05t.18.17c.14.15.34.33.5.45.11.09.17.13.32.22.02.01.03.02.03.04,0,.02-.02.05-.06.13-.05.09-.08.12-.1.12-.01,0-.02,0-.04-.01-.27-.2-.54-.43-.83-.74-.11-.12-.12-.12-.15-.12-.02,0-.04,0-.06.03-.02.02-.16.2-.23.29-.05.07-.06.08-.11.13-.03.04-.04.05-.05.07-.02.03-.03.04-.04.04-.02,0-.07-.03-.12-.09-.04-.04-.05-.07-.11-.14.1-.07.18-.15.41-.41ZM20.44,8.4c-.04-.08-.09-.15-.16-.22-.01-.01-.01-.02-.01-.02,0-.01.01-.03.05-.05.04-.02.05-.03.06-.03.02,0,.04.02.09.08.07.08.12.15.12.17,0,.01,0,.02-.03.04-.05.04-.08.06-.1.06,0,0-.02,0-.02-.02ZM20.75,8.23s-.04.02-.04.03t0,0s0,0,0,0c0,0-.01,0-.02-.02-.06-.1-.11-.16-.17-.22,0,0,0,0-.01-.02,0,0,.02-.02.04-.04.04-.02.07-.04.08-.04t.05.03c.07.06.17.19.17.21,0,.01-.02.03-.07.06Z"/>
        <path class="cls-2" d="M22.17,8.54c.4,0,.63,0,.86-.02h.03c.07,0,.07,0,.07.18,0,.09,0,.11-.04.11h0c-.15,0-.23,0-.86,0-.23,0-.35,0-.55,0h-.06c-.07,0-.08,0-.12,0-.01,0-.02,0-.02,0-.02,0-.04-.01-.04-.03-.01-.05-.02-.17-.02-.27.18.02.33.02.79.02Z"/>
        <path class="cls-2" d="M24.08,8.73s-.04.06-.06.06t-.11-.06c-.08-.05-.17-.1-.33-.15-.04-.01-.05-.02-.05-.04,0-.01.02-.05.05-.11,0-.02.02-.03.02-.04.02-.04.04-.06.05-.06.04,0,.2.06.32.12.07.03.15.08.17.09,0,0,.01.02.01.03,0,.02-.03.08-.08.16ZM25.21,8.48s.01.04.01.05c0,.03-.01.05-.05.09-.18.2-.37.37-.59.52-.19.13-.41.25-.62.34-.06.03-.08.04-.11.06-.02.02-.03.02-.04.02-.04,0-.12-.12-.18-.29.21-.04.46-.14.72-.29.16-.09.35-.24.48-.37.12-.11.19-.2.32-.37.01.1.02.13.07.25ZM24.29,8.3s-.04.04-.06.04c0,0-.02,0-.03-.02-.14-.12-.27-.2-.41-.26-.02,0-.03-.02-.03-.03,0,0,0-.02.01-.03.11-.16.11-.17.13-.17.04,0,.23.09.35.17.11.07.13.09.13.11,0,.02-.05.11-.1.18ZM25.02,8.15c-.05-.09-.09-.15-.16-.22-.01-.01-.01-.02-.01-.02,0-.01.01-.03.05-.06.04-.02.05-.03.06-.03.02,0,.04.02.09.08.07.08.12.15.12.17,0,.02-.1.1-.13.1,0,0-.01,0-.02-.02ZM25.32,7.99s-.05.03-.06.03c0,0-.01,0-.02-.02-.06-.1-.1-.15-.17-.22,0,0-.01-.01-.01-.02,0-.02.09-.08.11-.08.02,0,.05.02.09.07.06.07.12.15.12.16,0,.02-.02.03-.07.07Z"/>
        <path class="cls-2" d="M26.03,8.66c-.08,0-.13,0-.18.01,0,0-.01,0-.01,0-.02,0-.03-.01-.04-.04-.01-.05-.02-.12-.02-.22.08.01.21.02.45.02.2,0,.22,0,.26-.02,0,0,.02,0,.02,0,.04,0,.07.02.12.07.05.04.08.09.08.11,0,0,0,.02-.02.04t-.06.24c-.03.17-.04.24-.05.32t0,.01c.2,0,.23,0,.33,0h.01s.04.02.04.14c0,.09,0,.1-.03.1-.01,0-.02,0-.11,0-.07,0-.31,0-.52,0-.34,0-.6,0-.69.02h-.02s-.04,0-.05-.02c0-.03-.02-.09-.03-.23.15.01.22.02.82.02,0-.02,0-.02,0-.04.03-.14.05-.32.07-.51h-.38Z"/>
      </g>
    </g>
  </g>
</svg>