<?xml version="1.0" encoding="UTF-8"?>
<svg id="_レイヤー_2" data-name="レイヤー 2" xmlns="http://www.w3.org/2000/svg" viewBox="0 0 36.9 9.39">
  <defs>
    <style>
      .cls-1 {
        stroke: #f096aa;
        stroke-linecap: round;
        stroke-linejoin: round;
        stroke-width: .1px;
      }

      .cls-1, .cls-2 {
        fill: #f096aa;
      }

      .cls-2 {
        stroke-width: 0px;
      }
    </style>
  </defs>
  <g id="lay">
    <g>
      <g>
        <path class="cls-1" d="M5.48.11c-.18.18-.25.28-.25.47v4.58c0,.2.07.29.25.47h-.93c.18-.18.25-.28.25-.47V.42l-1.97,5.22h-.12L.58.45v4.55c0,.36.23.45.42.63H.05c.18-.18.42-.28.42-.63V.58c0-.2-.07-.29-.25-.47h.68l2.03,4.96L4.8.11h.68Z"/>
        <path class="cls-1" d="M6.35,5.17v-3c0-.25-.07-.33-.17-.33-.07,0-.17.06-.25.11v-.08c.18-.18.47-.47.66-.47.13,0,.17.13.17.49v3.28c0,.2.07.29.25.47h-.91c.18-.18.25-.28.25-.47ZM6.47.05c.22,0,.35.13.35.33s-.13.33-.35.33-.35-.13-.35-.33.13-.33.35-.33Z"/>
        <path class="cls-1" d="M9.73,1.88l.08,1.25h-.08c-.17-.92-.44-1.61-.76-1.61-.39,0-.71,1.01-.86,1.75v1.9c0,.2.07.29.25.47h-.91c.18-.18.25-.28.25-.47v-3c0-.25-.08-.33-.17-.33-.08,0-.17.06-.25.11v-.08c.18-.18.47-.47.66-.47.13,0,.17.13.17.49v1.01c.17-.73.46-1.5.91-1.5.28,0,.61.31.71.48Z"/>
        <path class="cls-1" d="M12.48,1.88l.08,1.25h-.08c-.17-.92-.44-1.61-.76-1.61-.39,0-.71,1.01-.86,1.75v1.9c0,.2.07.29.25.47h-.91c.18-.18.25-.28.25-.47v-3c0-.25-.08-.33-.17-.33-.08,0-.17.06-.25.11v-.08c.18-.18.47-.47.66-.47.13,0,.17.13.17.49v1.01c.17-.73.46-1.5.91-1.5.28,0,.61.31.71.48Z"/>
        <path class="cls-1" d="M15.05,1.39c1.29,0,2.2.82,2.2,2.15s-.91,2.15-2.2,2.15-2.2-.82-2.2-2.15.91-2.15,2.2-2.15ZM15.05,5.6c1.04,0,1.77-.79,1.77-2.05s-.73-2.05-1.77-2.05-1.77.79-1.77,2.05.73,2.05,1.77,2.05Z"/>
        <path class="cls-1" d="M19.87,1.88l.08,1.25h-.08c-.17-.92-.44-1.61-.76-1.61-.39,0-.71,1.01-.86,1.75v1.9c0,.2.07.29.25.47h-.91c.18-.18.25-.28.25-.47v-3c0-.25-.08-.33-.17-.33-.08,0-.17.06-.25.11v-.08c.18-.18.47-.47.66-.47.13,0,.17.13.17.49v1.01c.17-.73.46-1.5.91-1.5.28,0,.61.31.71.48Z"/>
        <path class="cls-1" d="M27.73,4.83c-.29.23-.89.87-2.2.87-1.63,0-2.93-1.08-2.93-2.82S23.82.05,25.4.05c1.17,0,2.15.66,2.15,1.53,0,.4-.19,1.06-.81,1.29h1v1.95ZM27.31,3.88c-.02-.76-.35-.92-1.03-.92h-.37v-.09h.69c.8-.29.86-.96.86-1.2,0-1-1.05-1.53-1.99-1.53-1.28,0-2.43,1.07-2.43,2.73s1.2,2.72,2.55,2.72c.71,0,1.27-.24,1.73-.56v-1.15Z"/>
        <path class="cls-1" d="M30.48,1.88l.08,1.25h-.08c-.17-.92-.44-1.61-.76-1.61-.39,0-.71,1.01-.86,1.75v1.9c0,.2.07.29.25.47h-.91c.18-.18.25-.28.25-.47v-3c0-.25-.08-.33-.17-.33-.08,0-.17.06-.25.11v-.08c.18-.18.47-.47.66-.47.13,0,.17.13.17.49v1.01c.17-.73.46-1.5.91-1.5.28,0,.61.31.71.48Z"/>
        <path class="cls-1" d="M32.86,5.64v-.9c-.17.44-.48.96-1.14.96-.77,0-1.04-.66-1.04-1.34,0-.49.15-1.54,1.14-1.54.61,0,.87.33,1.04.65v-.61c0-.44-.02-1.37-.59-1.37-.45,0-.89.56-1.23,1.16h-.08l.25-.93c.17-.09.45-.32.97-.32.76,0,1.1.48,1.1,1.3v2.47c0,.2.07.29.25.47h-.66ZM32.86,3.62c-.16-.33-.45-.73-.85-.73-.65,0-.9,1.02-.9,1.55s.28,1.18.76,1.18.83-.66.99-1.11v-.89Z"/>
        <path class="cls-1" d="M36.47,1.92l-1.34,4c-.17.53-.33,1.19-.9,1.19-.37,0-.63-.27-.63-.7,0-.75.8-.85,1.49-.86l-1.29-3.64c-.07-.19-.18-.29-.37-.47h.94c-.18.18-.2.28-.13.47l1.1,3.05,1.01-3.05c.07-.19.05-.29-.11-.47h.61c-.21.18-.32.28-.38.47ZM33.7,6.41c0,.4.24.61.51.61.48,0,.64-.63.81-1.1l.1-.28c-.66,0-1.42.06-1.42.77Z"/>
      </g>
      <g>
        <path class="cls-2" d="M12.87,8.78c.22.04.48.11.73.21.18.07.22.09.22.12,0,.02-.03.13-.06.19-.01.04-.03.05-.05.05t-.24-.1c-.21-.1-.62-.21-.87-.24-.08-.01-.09-.01-.09-.04s.03-.12.05-.18c.01-.03.02-.04.05-.04,0,0,.18.03.25.04ZM13.59,8.03c-.12-.05-.29-.11-.43-.15-.14-.04-.36-.08-.44-.09-.03,0-.05-.01-.05-.03,0-.03.03-.14.05-.19,0-.02.02-.03.04-.03,0,0,.02,0,.03,0,0,0,.03,0,.06.01.23.03.5.1.71.17.13.05.14.05.14.08,0,.02-.04.15-.05.2,0,.03-.02.04-.04.04,0,0-.01,0-.03,0ZM13.42,8.29c.11.04.13.06.13.09,0,.02-.04.15-.05.2,0,.02-.02.03-.04.03,0,0-.02,0-.03-.01-.08-.04-.18-.08-.28-.11-.13-.04-.34-.09-.42-.1-.04,0-.04-.01-.04-.04,0-.04.04-.17.05-.2,0-.01.02-.02.04-.02.07,0,.48.11.64.17Z"/>
        <path class="cls-2" d="M14.33,8.38s-.02,0-.02,0c-.05,0-.07-.08-.08-.3.11.02.26.02.67.02.44,0,.56,0,.6,0,.03,0,.04,0,.08-.02.02,0,.03,0,.04,0,.03,0,.06.01.09.05.06.07.1.13.1.16,0,.02-.01.04-.04.07-.02.01-.03.04-.07.13-.15.32-.31.52-.57.69-.12.08-.31.17-.35.17-.03,0-.05-.01-.09-.06-.06-.07-.08-.09-.15-.12.25-.08.48-.2.64-.36.12-.12.22-.27.28-.46-.83.01-.99.02-1.14.05ZM15.05,7.59q.23,0,.48-.02h.03s.04.02.04.09c0,.03,0,.05,0,.07h0c0,.09,0,.11-.04.11,0,0-.03,0-.05,0-.04,0-.21,0-.28,0-.33,0-.57,0-.69.02h-.02c-.06,0-.07-.03-.08-.28.14.02.28.02.6.02Z"/>
        <path class="cls-2" d="M17.1,8.31c.4,0,.63,0,.86-.02h.03c.07,0,.07,0,.07.18,0,.09,0,.11-.04.11h0c-.15,0-.23,0-.86,0-.23,0-.35,0-.55,0h-.06c-.07,0-.08,0-.12,0-.01,0-.02,0-.02,0-.02,0-.04-.01-.04-.03-.01-.05-.02-.17-.02-.27.18.02.33.02.79.02Z"/>
        <path class="cls-2" d="M19.2,8.07c-.15.2-.41.44-.48.44-.02,0-.03,0-.07-.04-.03-.03-.09-.07-.16-.11.16-.08.32-.21.44-.36.13-.15.21-.28.28-.47.11.04.17.06.24.1.03.02.04.03.04.05,0,.02,0,.03-.03.04-.02.02-.04.04-.1.12h.33c.12,0,.14,0,.21-.02,0,0,.02,0,.02,0,.04,0,.07.03.14.11.04.05.05.07.05.1s0,.04-.04.07c-.02.02-.05.06-.07.1-.24.43-.47.7-.82.96-.15.11-.35.23-.39.23-.02,0-.03,0-.05-.03-.04-.04-.1-.08-.18-.13.32-.15.55-.31.77-.53.16-.16.27-.31.36-.49.02-.04.03-.07.07-.14h-.56ZM20.25,7.83s-.08.06-.09.06t-.05-.07c-.04-.06-.09-.13-.14-.18,0,0-.01-.01-.01-.02,0-.02.08-.08.11-.08.02,0,.04.02.11.1.06.07.1.13.1.14,0,.01,0,.02-.03.04ZM20.35,7.72c-.05-.09-.1-.15-.16-.21,0,0-.01-.01-.01-.02,0-.01.01-.02.05-.05.03-.02.04-.03.06-.03.02,0,.08.06.16.15.03.04.05.07.05.08s0,.02-.03.04c-.04.03-.07.05-.08.05,0,0-.01,0-.02-.02Z"/>
        <path class="cls-2" d="M20.88,8.05c0-.15,0-.24-.02-.37.11,0,.2.02.28.03.04.01.05.02.05.04,0,0,0,.02-.01.05q-.02.06-.03,1.06c.33-.11.51-.2.75-.37.12-.09.22-.17.32-.27v.02c0,.08,0,.15.02.24,0,.02,0,.03,0,.04,0,.04-.03.07-.15.16-.12.1-.31.22-.45.29-.12.06-.23.11-.39.16-.05.02-.08.03-.11.05-.02.02-.04.02-.06.02-.06,0-.22-.15-.22-.21,0-.01,0-.02,0-.04,0-.03.01-.06.01-.15v-.74Z"/>
        <path class="cls-2" d="M23.55,8.31c.4,0,.63,0,.86-.02h.03c.07,0,.07,0,.07.18,0,.09,0,.11-.04.11h0c-.15,0-.23,0-.86,0-.23,0-.35,0-.55,0h-.06c-.07,0-.08,0-.12,0-.01,0-.02,0-.02,0-.02,0-.04-.01-.04-.03-.01-.05-.02-.17-.02-.27.18.02.33.02.79.02Z"/>
      </g>
    </g>
  </g>
</svg>