<?xml version="1.0" encoding="UTF-8"?>
<svg id="_レイヤー_2" data-name="レイヤー 2" xmlns="http://www.w3.org/2000/svg" viewBox="0 0 38.12 9.28">
  <defs>
    <style>
      .cls-1 {
        stroke: #f096aa;
        stroke-linecap: round;
        stroke-linejoin: round;
        stroke-width: .1px;
      }

      .cls-1, .cls-2 {
        fill: #f096aa;
      }

      .cls-2 {
        stroke-width: 0px;
      }
    </style>
  </defs>
  <g id="lay">
    <g>
      <g>
        <path class="cls-1" d="M.3,5.11V.52C.3.33.23.23.05.05h1.01C2.47.05,2.94.49,2.94,1.12c0,.8-.76,1.04-1.55,1.13,1.09.12,2.05.36,2.05,1.6,0,1.04-.56,1.72-2.37,1.72H.05c.18-.18.25-.28.25-.47ZM.92,2.21c.66,0,1.58-.25,1.58-1.08,0-.58-.37-.96-1.62-.96h-.16v2.05h.19ZM.89,5.47c1.66,0,2.12-.75,2.12-1.6,0-1.18-1.16-1.56-2.08-1.56h-.19v3.15h.16Z"/>
        <path class="cls-1" d="M6.21,1.82l.08,1.25h-.08c-.17-.92-.44-1.61-.76-1.61-.39,0-.71,1.01-.86,1.75v1.9c0,.2.07.29.25.47h-.91c.18-.18.25-.28.25-.47v-3c0-.25-.08-.33-.17-.33-.08,0-.17.06-.25.11v-.08c.18-.18.47-.47.66-.47.13,0,.17.13.17.49v1.01c.17-.73.46-1.5.91-1.5.28,0,.61.31.71.48Z"/>
        <path class="cls-1" d="M8.78,1.34c1.29,0,2.2.82,2.2,2.15s-.91,2.15-2.2,2.15-2.2-.82-2.2-2.15.91-2.15,2.2-2.15ZM8.78,5.54c1.04,0,1.77-.79,1.77-2.06s-.73-2.05-1.77-2.05-1.77.79-1.77,2.05.73,2.06,1.77,2.06Z"/>
        <path class="cls-1" d="M13.32,1.39l.85,3.44.71-2.96c.04-.19.02-.29-.12-.47h.61c-.22.18-.32.28-.37.47l-.91,3.77h-.11l-.87-3.33-.79,3.33h-.11l-.98-3.77c-.05-.19-.18-.29-.37-.47h.94c-.18.18-.18.28-.13.47l.73,2.96.82-3.44h.11Z"/>
        <path class="cls-1" d="M15.99,5.11v-3c0-.25-.08-.33-.17-.33-.08,0-.17.06-.25.11v-.08c.18-.18.47-.47.66-.47.13,0,.17.13.17.49v.87c.19-.58.52-1.36,1.2-1.36.43,0,.81.32.81,1.15v2.62c0,.2.07.29.25.47h-.91c.18-.18.25-.28.25-.47v-2.23c0-.68-.06-1.43-.52-1.43-.49,0-.88.84-1.07,1.42v2.24c0,.2.07.29.25.47h-.91c.18-.18.25-.28.25-.47Z"/>
        <path class="cls-1" d="M21.56,5.11V.52c0-.2-.07-.29-.25-.47h1.01c1.4,0,1.88.44,1.88,1.07,0,.8-.76,1.04-1.55,1.13,1.09.12,2.05.36,2.05,1.6,0,1.04-.56,1.72-2.37,1.72h-1.01c.18-.18.25-.28.25-.47ZM22.18,2.21c.66,0,1.58-.25,1.58-1.08,0-.58-.37-.96-1.62-.96h-.16v2.05h.19ZM22.15,5.47c1.66,0,2.12-.75,2.12-1.6,0-1.18-1.16-1.56-2.08-1.56h-.19v3.15h.16Z"/>
        <path class="cls-1" d="M27.78,1.87v3.24c0,.2.07.29.25.47h-.66v-1.3c-.19.58-.52,1.36-1.2,1.36-.43,0-.81-.32-.81-1.15V1.87c0-.2-.07-.29-.25-.47h.91c-.18.18-.25.28-.25.47v2.23c0,.68.06,1.43.52,1.43.49,0,.88-.84,1.07-1.42V1.87c0-.2-.07-.29-.25-.47h.91c-.18.18-.25.28-.25.47Z"/>
        <path class="cls-1" d="M28.73,5.11v-3c0-.25-.08-.33-.17-.33-.08,0-.17.06-.25.11v-.08c.18-.18.47-.47.66-.47.13,0,.17.13.17.49v.87c.19-.58.52-1.36,1.2-1.36.43,0,.81.32.81,1.15v2.62c0,.2.07.29.25.47h-.91c.18-.18.25-.28.25-.47v-2.23c0-.68-.06-1.43-.52-1.43-.49,0-.88.84-1.07,1.42v2.24c0,.2.07.29.25.47h-.91c.18-.18.25-.28.25-.47Z"/>
        <path class="cls-1" d="M32.1,5.11v-3c0-.25-.08-.33-.17-.33-.08,0-.17.06-.25.11v-.08c.18-.18.47-.47.66-.47.13,0,.17.13.17.49v.87c.19-.58.52-1.36,1.2-1.36.43,0,.81.32.81,1.15v2.62c0,.2.07.29.25.47h-.91c.18-.18.25-.28.25-.47v-2.23c0-.68-.06-1.43-.52-1.43-.49,0-.88.84-1.07,1.42v2.24c0,.2.07.29.25.47h-.91c.18-.18.25-.28.25-.47Z"/>
        <path class="cls-1" d="M37.69,1.87l-1.34,4c-.17.53-.33,1.19-.9,1.19-.37,0-.63-.27-.63-.7,0-.75.8-.85,1.49-.86l-1.29-3.64c-.07-.19-.18-.29-.37-.47h.94c-.18.18-.2.28-.13.47l1.1,3.05,1.01-3.05c.07-.19.05-.29-.11-.47h.61c-.21.18-.32.28-.38.47ZM34.92,6.36c0,.4.24.61.51.61.48,0,.64-.63.81-1.1l.1-.28c-.66,0-1.42.06-1.42.77Z"/>
      </g>
      <g>
        <path class="cls-2" d="M12.79,7.93c-.39,0-.67.02-.74.04,0,0,0,0,0,0-.04,0-.06-.07-.06-.3.11.02.25.02.57.02.29,0,.64,0,.7-.01.04,0,.05,0,.09-.02.01,0,.02,0,.02,0,.04,0,.08.04.15.12.04.05.05.07.05.09,0,.02,0,.03-.02.05-.02.03-.02.03-.07.19-.12.39-.37.73-.7.99-.13.1-.26.18-.29.18-.02,0-.03,0-.08-.05-.06-.06-.11-.09-.17-.13.32-.16.5-.3.67-.51.15-.19.25-.4.3-.64q-.17,0-.42,0ZM13.74,7.71s-.08.06-.09.06t-.05-.07c-.04-.06-.09-.13-.14-.18,0,0-.01-.01-.01-.02,0-.02.08-.08.11-.08.02,0,.04.02.11.1.06.07.1.13.1.14s0,.02-.03.04ZM13.84,7.6c-.05-.09-.1-.15-.16-.21,0,0-.01-.01-.01-.02,0-.01.01-.02.05-.05.03-.02.04-.03.06-.03.02,0,.08.06.16.15.03.04.05.07.05.08s0,.02-.03.04c-.04.03-.07.05-.08.05,0,0-.02,0-.02-.02Z"/>
        <path class="cls-2" d="M14.21,8.32s-.02,0-.02,0c-.05,0-.07-.07-.08-.3.11.02.26.02.67.02.44,0,.56,0,.6,0,.03,0,.04,0,.08-.02.02,0,.03,0,.04,0,.03,0,.06.02.09.05.06.07.1.13.1.16,0,.02-.01.04-.04.07-.02.02-.03.04-.07.13-.15.32-.31.52-.57.69-.12.08-.31.17-.35.17-.03,0-.05-.01-.09-.06-.06-.07-.08-.09-.15-.12.25-.07.48-.2.64-.36.12-.12.22-.27.28-.46-.83.01-.99.02-1.14.05ZM14.93,7.54q.23,0,.48-.02h.03s.04.02.04.09c0,.03,0,.05,0,.07h0c0,.09,0,.11-.04.11,0,0-.03,0-.05,0-.04,0-.21,0-.28,0-.33,0-.57,0-.69.02h-.02c-.06,0-.07-.03-.08-.28.14.02.28.02.6.02Z"/>
        <path class="cls-2" d="M16.8,7.74c0-.12,0-.19-.02-.28.15,0,.25.01.3.03.02,0,.03.02.03.03,0,.01,0,.02-.01.04-.02.03-.02.07-.02.18v.07h.28c.07,0,.11,0,.16-.02.03,0,.04-.01.06-.01.04,0,.1.05.18.13.04.04.05.06.05.08,0,.02,0,.03-.02.06-.02.04-.03.06-.05.17-.05.2-.09.31-.18.46-.15.25-.35.44-.61.57-.06.03-.1.05-.12.05-.01,0-.02,0-.04-.03-.04-.05-.09-.09-.17-.15.18-.07.27-.12.37-.2.22-.15.36-.34.45-.59.04-.11.05-.19.06-.29-.2,0-.28,0-.46,0-.19,0-.31,0-.58,0q0,.14,0,.16c0,.06,0,.1,0,.19h0s0,.04-.02.05c-.02,0-.09.01-.15.01-.08,0-.1,0-.1-.04,0-.01,0-.03,0-.05,0-.03,0-.26,0-.31,0-.07,0-.13,0-.23.06,0,.18.01.33.01h.31v-.07Z"/>
        <path class="cls-2" d="M19.82,8.07s.02.04.02.05c0,.02,0,.04-.04.08-.12.16-.25.29-.45.44-.22.17-.41.29-.67.41-.17.08-.18.08-.2.11-.02.02-.03.02-.04.02-.02,0-.04-.02-.07-.07-.04-.07-.09-.16-.11-.23.22-.05.49-.17.75-.33.34-.21.55-.42.72-.71.02.08.04.13.1.24ZM18.35,7.7s.05-.05.07-.05c.04,0,.21.11.34.22.08.07.11.1.11.12,0,.02-.04.08-.09.13-.05.06-.07.07-.09.07t-.11-.09c-.06-.06-.17-.15-.23-.18q-.08-.05-.09-.06s-.01-.01-.01-.02c0-.02.04-.08.1-.15Z"/>
        <path class="cls-2" d="M20.74,7.92s0,.02-.02.04c-.02.04-.03.07-.06.2-.07.31-.18.58-.33.78-.06.09-.11.13-.14.13,0,0-.02,0-.03-.01-.07-.04-.13-.06-.22-.08.2-.18.36-.46.44-.8.03-.11.04-.22.04-.32v-.04c.19.02.32.06.32.1ZM21.57,9.02c-.11-.4-.28-.77-.46-1.04-.03-.04-.03-.04-.03-.05,0-.02.02-.03.08-.07.07-.04.1-.06.12-.06.02,0,.03,0,.11.14.1.15.2.35.31.63.08.19.12.33.12.37,0,.02-.01.04-.07.06-.05.03-.14.06-.16.06-.02,0-.03-.01-.04-.04ZM21.56,7.92c-.05-.09-.09-.15-.16-.22-.01-.01-.01-.02-.01-.02,0-.01.01-.03.05-.06.04-.02.05-.03.06-.03.02,0,.04.02.09.08.07.08.12.15.12.17,0,.03-.1.11-.13.11,0,0-.01,0-.02-.02ZM21.87,7.76s-.05.03-.06.03c0,0-.01,0-.02-.02-.06-.1-.09-.14-.16-.22,0,0-.01-.01-.01-.02,0-.02.09-.08.11-.08.02,0,.05.02.09.07.06.07.12.15.12.16,0,.02-.02.03-.07.07Z"/>
        <path class="cls-2" d="M22.92,8.73c.4,0,.73,0,.89-.02.02,0,.04,0,.05,0,.01,0,.02,0,.03,0,.02,0,.02.05.02.17,0,.11,0,.12-.04.12t-.04,0c-.12-.01-.25-.01-.53-.01-.61,0-.9,0-1.03.03-.02,0-.03,0-.04,0-.05,0-.06-.04-.08-.3.18.01.39.02.77.02ZM22.99,7.78c.29,0,.46,0,.59-.02.01,0,.01,0,.02,0,.02,0,.03,0,.04.04,0,.02,0,.09,0,.16,0,.07,0,.09-.04.09,0,0-.02,0-.04,0-.04,0-.37,0-.62,0-.17,0-.28,0-.41.01-.03,0-.06,0-.07,0-.03,0-.04-.01-.05-.03-.01-.03-.02-.16-.02-.26.13.02.27.03.58.03Z"/>
        <path class="cls-2" d="M25.03,8.25c.4,0,.63,0,.86-.02h.03c.07,0,.07,0,.07.18,0,.09,0,.11-.04.11h0c-.15,0-.23,0-.86,0-.23,0-.35,0-.55,0h-.06c-.07,0-.08,0-.12,0-.01,0-.02,0-.02,0-.02,0-.04-.01-.04-.03-.01-.05-.02-.17-.02-.27.18.02.33.02.79.02Z"/>
      </g>
    </g>
  </g>
</svg>