<?xml version="1.0" encoding="UTF-8"?>
<svg id="_レイヤー_2" data-name="レイヤー 2" xmlns="http://www.w3.org/2000/svg" viewBox="0 0 38.26 9.57">
  <defs>
    <style>
      .cls-1 {
        stroke: #f096aa;
        stroke-linecap: round;
        stroke-linejoin: round;
        stroke-width: .1px;
      }

      .cls-1, .cls-2 {
        fill: #f096aa;
      }

      .cls-2 {
        stroke-width: 0px;
      }
    </style>
  </defs>
  <g id="lay">
    <g>
      <g>
        <path class="cls-1" d="M.05,3.11C.05,1.36,1.34.29,2.99.29c1.18,0,1.81.66,1.96.79l.11,1.22h-.08c-.23-.74-.78-1.9-2.03-1.9S.48,1.45.48,3.11s1.2,2.71,2.47,2.71c1.33,0,2.04-1.16,2.27-1.9h.08l-.11,1.22c-.15.13-.9.79-2.22.79C1.34,5.93.05,4.85.05,3.11Z"/>
        <path class="cls-1" d="M7.92,1.63c1.29,0,2.2.82,2.2,2.15s-.91,2.15-2.2,2.15-2.2-.82-2.2-2.15.91-2.15,2.2-2.15ZM7.92,5.84c1.04,0,1.77-.79,1.77-2.06s-.73-2.05-1.77-2.05-1.77.79-1.77,2.05.73,2.06,1.77,2.06Z"/>
        <path class="cls-1" d="M12.74,2.11l.08,1.25h-.08c-.17-.92-.44-1.61-.76-1.61-.39,0-.71,1.01-.86,1.75v1.9c0,.2.07.29.25.47h-.91c.18-.18.25-.28.25-.47v-3c0-.25-.08-.33-.17-.33-.08,0-.17.06-.25.11v-.08c.18-.18.47-.47.66-.47.13,0,.17.13.17.49v1.01c.17-.74.46-1.5.91-1.5.28,0,.61.31.71.48Z"/>
        <path class="cls-1" d="M15.12,5.88v-.9c-.17.43-.48.96-1.14.96-.77,0-1.04-.66-1.04-1.34,0-.49.15-1.54,1.14-1.54.61,0,.87.33,1.04.65v-.61c0-.44-.02-1.37-.59-1.37-.45,0-.89.56-1.23,1.16h-.08l.25-.93c.17-.09.45-.32.97-.32.76,0,1.1.48,1.1,1.3v2.47c0,.2.07.29.25.47h-.66ZM15.12,3.85c-.16-.33-.45-.73-.85-.73-.65,0-.9,1.02-.9,1.55s.28,1.18.76,1.18.83-.66.99-1.11v-.89Z"/>
        <path class="cls-1" d="M16.28,5.4V.82c0-.25-.08-.33-.17-.33-.08,0-.17.06-.25.11v-.08c.18-.18.47-.47.66-.47.13,0,.17.13.17.49v4.86c0,.2.07.29.25.47h-.91c.18-.18.25-.28.25-.47Z"/>
        <path class="cls-1" d="M19.85,5.4V.82c0-.2-.07-.29-.25-.47h1.01c1.4,0,1.88.44,1.88,1.07,0,.8-.76,1.04-1.55,1.13,1.09.12,2.05.36,2.05,1.6,0,1.04-.56,1.72-2.37,1.72h-1.01c.18-.18.25-.28.25-.47ZM20.47,2.5c.66,0,1.58-.25,1.58-1.08,0-.58-.37-.96-1.62-.96h-.16v2.05h.19ZM20.44,5.76c1.66,0,2.12-.75,2.12-1.6,0-1.18-1.16-1.56-2.08-1.56h-.19v3.15h.16Z"/>
        <path class="cls-1" d="M25.76,2.11l.08,1.25h-.08c-.17-.92-.44-1.61-.75-1.61-.39,0-.71,1.01-.85,1.75v1.9c0,.2.07.29.25.47h-.91c.18-.18.25-.28.25-.47v-3c0-.25-.07-.33-.17-.33-.07,0-.17.06-.25.11v-.08c.18-.18.47-.47.66-.47.13,0,.17.13.17.49v1.01c.17-.74.46-1.5.9-1.5.28,0,.61.31.71.48Z"/>
        <path class="cls-1" d="M28.33,1.63c1.29,0,2.2.82,2.2,2.15s-.91,2.15-2.2,2.15-2.2-.82-2.2-2.15.91-2.15,2.2-2.15ZM28.33,5.84c1.04,0,1.77-.79,1.77-2.06s-.73-2.05-1.77-2.05-1.77.79-1.77,2.05.73,2.06,1.77,2.06Z"/>
        <path class="cls-1" d="M32.87,1.69l.85,3.44.71-2.96c.04-.19.02-.29-.12-.47h.61c-.22.18-.32.28-.37.47l-.9,3.77h-.11l-.87-3.33-.79,3.33h-.11l-.98-3.77c-.05-.19-.18-.29-.37-.47h.94c-.18.18-.18.28-.13.47l.73,2.96.82-3.44h.11Z"/>
        <path class="cls-1" d="M35.54,5.4v-3c0-.25-.07-.33-.17-.33-.07,0-.17.06-.25.11v-.08c.18-.18.47-.47.66-.47.13,0,.17.13.17.49v.87c.19-.58.52-1.36,1.2-1.36.43,0,.81.32.81,1.15v2.62c0,.2.07.29.25.47h-.91c.18-.18.25-.28.25-.47v-2.23c0-.68-.06-1.43-.52-1.43-.49,0-.88.84-1.07,1.42v2.24c0,.2.07.29.25.47h-.91c.18-.18.25-.28.25-.47Z"/>
      </g>
      <g>
        <path class="cls-2" d="M12.46,8.29h-.18c-.45,0-.79.01-.89.03-.02,0-.03,0-.04,0-.02,0-.03,0-.03-.03-.01-.05-.01-.11-.02-.27.13.01.29.02.6.02.56,0,.61,0,.83,0,0,.21,0,.33,0,.69,0,.17,0,.52.01.63h0s0,.06-.02.07c-.02,0-.11.01-.18.01q-.08,0-.08-.05s0-.01,0-.09h-.12c-.59,0-.86,0-.99.03,0,0-.01,0-.02,0-.02,0-.03,0-.04-.05,0-.04-.02-.12-.02-.24.15.01.3.02.64.02.22,0,.24,0,.55,0v-.75Z"/>
        <path class="cls-2" d="M14.05,8.54c.4,0,.63,0,.86-.02h.03c.07,0,.07,0,.07.18,0,.09,0,.11-.04.11h0c-.15,0-.23,0-.86,0-.23,0-.35,0-.55,0h-.06c-.07,0-.08,0-.12,0-.01,0-.02,0-.02,0-.02,0-.04-.01-.04-.03-.01-.05-.02-.17-.02-.27.18.02.33.02.79.02Z"/>
        <path class="cls-2" d="M15.53,8.61s-.02,0-.02,0c-.05,0-.07-.07-.08-.3.11.02.26.02.67.02.44,0,.56,0,.6,0,.03,0,.04,0,.08-.02.02,0,.03,0,.04,0,.03,0,.06.02.09.05.06.07.1.13.1.16,0,.02-.01.04-.04.07-.02.02-.03.04-.07.13-.15.32-.31.52-.57.69-.12.08-.31.17-.35.17-.03,0-.05-.01-.09-.06-.06-.07-.08-.09-.15-.12.25-.07.48-.2.64-.36.12-.12.22-.27.28-.46-.83.01-.99.02-1.14.05ZM16.25,7.83q.23,0,.48-.02h.03s.04.02.04.09c0,.03,0,.05,0,.07h0c0,.09,0,.11-.04.11,0,0-.03,0-.05,0-.04,0-.21,0-.28,0-.33,0-.57,0-.69.02h-.02c-.06,0-.07-.03-.08-.28.14.02.28.02.6.02Z"/>
        <path class="cls-2" d="M17.87,7.97s.03.02.03.04c0,0,0,.01,0,.03-.01.05-.01.08-.01.17,0,.54-.1.88-.33,1.17-.05.06-.07.08-.09.08,0,0-.02,0-.04-.01-.06-.04-.11-.06-.21-.08.15-.15.21-.24.28-.38.09-.21.13-.42.13-.73,0-.15,0-.21-.02-.32.12,0,.22.02.28.04ZM18.11,8.18c0-.11,0-.19-.02-.29.24,0,.32.03.32.07,0,.01,0,.02-.01.04,0,.01-.01.05-.01.08q0,.06-.01,1.03c.28-.16.46-.31.65-.54,0,.11.01.2.03.26,0,.02,0,.03,0,.04,0,.04-.02.06-.12.16-.16.15-.27.23-.48.33-.05.02-.08.04-.1.07-.01.01-.04.02-.05.02-.03,0-.11-.05-.16-.11-.04-.04-.06-.08-.06-.11,0-.01,0-.02,0-.04.01-.04.02-.08.02-.2v-.83Z"/>
        <path class="cls-2" d="M20.01,8.22c-.39,0-.67.01-.74.04,0,0,0,0,0,0-.04,0-.06-.07-.06-.3.11.01.25.02.57.02.29,0,.64,0,.7-.01.04,0,.05,0,.09-.02.01,0,.02,0,.02,0,.04,0,.08.04.15.12.04.05.05.07.05.09,0,.01,0,.03-.02.05-.02.03-.02.03-.07.19-.12.39-.37.73-.7.99-.13.1-.26.18-.29.18-.02,0-.03,0-.08-.05-.06-.06-.11-.09-.17-.13.32-.16.5-.3.67-.51.15-.19.25-.4.3-.64q-.17,0-.42,0ZM20.97,8s-.08.06-.09.06t-.05-.07c-.04-.06-.09-.13-.14-.18,0,0-.01-.01-.01-.02,0-.02.08-.08.11-.08.02,0,.04.02.11.1.06.07.1.13.1.14,0,.02,0,.02-.03.04ZM21.06,7.89c-.05-.09-.1-.15-.16-.21,0,0-.01-.01-.01-.02,0-.01.01-.02.05-.05.03-.02.04-.03.06-.03.02,0,.08.06.16.15.03.04.05.07.05.08,0,.01,0,.02-.03.04-.04.03-.07.05-.08.05,0,0-.02,0-.02-.02Z"/>
        <path class="cls-2" d="M21.44,8.61s-.02,0-.02,0c-.05,0-.07-.07-.08-.3.11.02.26.02.67.02.44,0,.56,0,.6,0,.03,0,.04,0,.08-.02.02,0,.03,0,.04,0,.03,0,.06.02.09.05.06.07.1.13.1.16,0,.02-.01.04-.04.07-.02.02-.03.04-.07.13-.15.32-.31.52-.57.69-.12.08-.31.17-.35.17-.03,0-.05-.01-.09-.06-.06-.07-.08-.09-.15-.12.25-.07.48-.2.64-.36.12-.12.22-.27.28-.46-.83.01-.99.02-1.14.05ZM22.16,7.83q.23,0,.48-.02h.03s.04.02.04.09c0,.03,0,.05,0,.07h0c0,.09,0,.11-.04.11,0,0-.03,0-.05,0-.04,0-.21,0-.28,0-.33,0-.57,0-.69.02h-.02c-.06,0-.07-.03-.08-.28.14.02.28.02.6.02Z"/>
        <path class="cls-2" d="M24.03,8.03c0-.12,0-.18-.02-.28.15,0,.25.01.3.03.02,0,.03.02.03.03,0,.01,0,.02-.01.04-.02.03-.02.07-.02.18v.07h.28c.07,0,.11,0,.16-.02.03,0,.04-.01.06-.01.04,0,.1.05.18.12.04.04.05.06.05.08,0,.01,0,.03-.02.06-.02.04-.03.06-.05.17-.05.2-.09.31-.18.46-.15.25-.35.44-.61.57-.06.03-.1.05-.12.05-.01,0-.02,0-.04-.03-.04-.05-.09-.09-.17-.14.18-.08.27-.12.37-.2.22-.15.36-.34.45-.59.04-.11.05-.19.06-.29-.2,0-.28,0-.46,0-.19,0-.31,0-.58,0q0,.14,0,.16c0,.06,0,.1,0,.19h0s0,.04-.02.05c-.02,0-.09.01-.15.01-.08,0-.1,0-.1-.04,0-.01,0-.03,0-.05s0-.26,0-.31c0-.07,0-.13,0-.23.06,0,.18.01.33.01h.31v-.07Z"/>
        <path class="cls-2" d="M27.05,8.36s.02.04.02.05c0,.02,0,.04-.04.08-.12.16-.25.29-.45.44-.22.17-.41.29-.67.41-.17.08-.18.08-.2.11-.02.02-.03.02-.04.02-.02,0-.04-.02-.07-.07-.04-.07-.09-.16-.11-.23.22-.05.49-.17.75-.33.34-.21.55-.42.72-.71.02.08.04.13.1.24ZM25.58,7.99s.05-.05.07-.05c.04,0,.21.11.34.22.08.07.11.1.11.12,0,.02-.04.08-.09.13-.05.06-.07.08-.09.08t-.11-.09c-.06-.05-.17-.15-.23-.18q-.08-.05-.09-.06s-.01-.01-.01-.02c0-.02.04-.08.1-.15Z"/>
      </g>
    </g>
  </g>
</svg>