<?xml version="1.0" encoding="UTF-8"?>
<svg id="_レイヤー_2" data-name="レイヤー 2" xmlns="http://www.w3.org/2000/svg" viewBox="0 0 36.73 9.62">
  <defs>
    <style>
      .cls-1 {
        stroke: #f096aa;
        stroke-linecap: round;
        stroke-linejoin: round;
        stroke-width: .1px;
      }

      .cls-1, .cls-2 {
        fill: #f096aa;
      }

      .cls-2 {
        stroke-width: 0px;
      }
    </style>
  </defs>
  <g id="lay">
    <g>
      <g>
        <path class="cls-1" d="M.3,5.4V.82c0-.2-.07-.29-.25-.47h1.51c1.9,0,3.2.94,3.2,2.77s-1.3,2.77-3.2,2.77H.05c.18-.18.25-.28.25-.47ZM1.39,5.76c1.74,0,2.95-.92,2.95-2.66S3.13.45,1.39.45h-.66v5.31h.66Z"/>
        <path class="cls-1" d="M7.27,5.88v-.9c-.17.43-.48.96-1.14.96-.77,0-1.04-.66-1.04-1.33,0-.49.15-1.54,1.14-1.54.61,0,.87.33,1.04.65v-.61c0-.44-.02-1.37-.59-1.37-.45,0-.89.56-1.23,1.16h-.08l.25-.93c.17-.09.45-.32.97-.32.76,0,1.1.48,1.1,1.3v2.47c0,.2.07.29.25.47h-.66ZM7.27,3.85c-.16-.33-.45-.73-.85-.73-.65,0-.9,1.02-.9,1.55s.28,1.18.76,1.18.83-.66.99-1.11v-.88Z"/>
        <path class="cls-1" d="M10.15,1.77h-.52c-.68,0-.96.21-1.15.87h-.08l.08-.96h2.16v.09l-1.93,4.02h.8c.68,0,.96-.21,1.15-.87h.08l-.08.96h-2.44v-.09l1.93-4.02Z"/>
        <path class="cls-1" d="M13.08,1.77h-.52c-.68,0-.96.21-1.15.87h-.08l.08-.96h2.16v.09l-1.93,4.02h.81c.68,0,.96-.21,1.15-.87h.08l-.08.96h-2.44v-.09l1.93-4.02Z"/>
        <path class="cls-1" d="M14.38,5.4V.82c0-.25-.07-.33-.17-.33-.07,0-.17.06-.25.11v-.08c.18-.18.47-.47.66-.47.13,0,.17.13.17.49v4.86c0,.2.07.29.25.47h-.91c.18-.18.25-.28.25-.47Z"/>
        <path class="cls-1" d="M18.28,3.11c.73.16,1.3.58,1.3,1.31,0,.85-.73,1.51-1.87,1.51-1.29,0-2.32-.82-2.32-2.15s1-2.15,2.2-2.15c.95,0,1.66.55,1.94,1.48h-1.26ZM15.91,3.11c-.06.21-.08.43-.08.67,0,1.26.85,2.05,1.96,2.05.91,0,1.71-.54,1.71-1.4,0-.8-.69-1.21-1.54-1.32h-2.05ZM19.09,3.02c-.25-.81-.78-1.3-1.49-1.3s-1.41.48-1.66,1.3h3.15Z"/>
        <path class="cls-1" d="M27.57,5.06c-.29.23-.89.87-2.2.87-1.64,0-2.93-1.08-2.93-2.82s1.21-2.82,2.8-2.82c1.17,0,2.15.66,2.15,1.53,0,.4-.19,1.06-.81,1.29h1v1.95ZM27.15,4.12c-.03-.76-.35-.92-1.03-.92h-.37v-.09h.69c.8-.29.85-.96.85-1.2,0-1-1.05-1.53-1.99-1.53-1.28,0-2.43,1.07-2.43,2.73s1.2,2.72,2.55,2.72c.71,0,1.27-.24,1.73-.56v-1.15Z"/>
        <path class="cls-1" d="M30.31,2.11l.08,1.25h-.08c-.17-.92-.44-1.61-.76-1.61-.39,0-.71,1.01-.86,1.75v1.9c0,.2.07.29.25.47h-.91c.18-.18.25-.28.25-.47v-3c0-.25-.08-.33-.17-.33-.08,0-.17.06-.25.11v-.08c.18-.18.47-.47.66-.47.13,0,.17.13.17.49v1.01c.17-.73.46-1.5.91-1.5.28,0,.61.31.71.48Z"/>
        <path class="cls-1" d="M32.69,5.88v-.9c-.17.43-.48.96-1.14.96-.77,0-1.04-.66-1.04-1.33,0-.49.15-1.54,1.14-1.54.61,0,.87.33,1.04.65v-.61c0-.44-.02-1.37-.59-1.37-.45,0-.89.56-1.23,1.16h-.08l.25-.93c.17-.09.45-.32.97-.32.75,0,1.1.48,1.1,1.3v2.47c0,.2.07.29.25.47h-.66ZM32.69,3.85c-.16-.33-.45-.73-.85-.73-.65,0-.9,1.02-.9,1.55s.28,1.18.75,1.18.83-.66.99-1.11v-.88Z"/>
        <path class="cls-1" d="M36.3,2.16l-1.34,4c-.17.53-.33,1.19-.91,1.19-.37,0-.63-.27-.63-.7,0-.75.81-.85,1.49-.86l-1.29-3.64c-.07-.19-.18-.29-.37-.47h.94c-.18.18-.2.28-.13.47l1.1,3.05,1.01-3.05c.07-.19.05-.29-.11-.47h.61c-.21.18-.31.28-.38.47ZM33.53,6.65c0,.4.24.61.52.61.48,0,.64-.63.8-1.1l.1-.28c-.66,0-1.42.06-1.42.77Z"/>
      </g>
      <g>
        <path class="cls-2" d="M12.41,8.66c-.07.05-.1.08-.12.08-.02,0-.02,0-.06-.04-.04-.04-.09-.08-.16-.11.24-.14.38-.27.51-.46.09-.13.16-.26.2-.38.23.09.29.11.29.15,0,.01,0,.02-.03.04-.02.01-.05.05-.11.14h.04c.08,0,.13,0,.14,0,.21,0,.27,0,.34-.03.02,0,.02,0,.04,0,.03,0,.06.02.13.11.05.06.07.09.07.11,0,.02,0,.03-.03.05-.02.02-.04.06-.08.12-.21.38-.36.58-.61.81-.2.18-.51.39-.57.39-.02,0-.04,0-.05-.03-.07-.06-.12-.1-.19-.13.3-.15.54-.31.75-.52t-.06-.07s-.1-.09-.21-.17c-.01-.01-.02-.02-.02-.03,0-.01.03-.04.11-.12.04-.04.05-.04.06-.04.04,0,.17.11.3.24.13-.17.23-.33.28-.48q-.25,0-.57,0c-.1.13-.23.26-.38.38ZM13.85,8.09s-.08.06-.09.06t-.05-.07c-.04-.06-.09-.13-.14-.18,0,0-.01-.01-.01-.02,0-.02.08-.08.11-.08.02,0,.04.02.11.1.06.07.1.13.1.14s0,.02-.03.04ZM13.95,7.98c-.05-.09-.1-.15-.16-.21,0,0-.01-.01-.01-.02,0-.01.01-.02.05-.05.03-.02.04-.03.06-.03.02,0,.08.06.16.15.03.04.05.07.05.08,0,.01,0,.02-.03.04-.04.03-.07.05-.08.05,0,0-.02,0-.02-.02Z"/>
        <path class="cls-2" d="M15.74,9.09c.14.13.23.22.23.25,0,.02-.03.05-.1.12-.05.05-.07.06-.09.06,0,0-.02,0-.03-.02t-.12-.14c-.12-.14-.29-.28-.48-.42-.15.15-.34.32-.5.43-.12.08-.24.15-.27.15-.02,0-.02,0-.08-.06-.03-.03-.08-.08-.14-.12.25-.11.44-.24.65-.43.23-.21.38-.4.55-.7q-.74,0-.87.02s-.03,0-.04,0c-.02,0-.04-.01-.04-.04-.01-.07-.01-.14-.01-.25.15.02.38.03.7.03.13,0,.27,0,.34-.01.03,0,.03,0,.08-.02,0,0,.01,0,.03,0,.04,0,.08.03.13.1.04.06.07.1.07.13s0,.04-.06.09c-.04.03-.05.05-.12.16-.07.11-.17.25-.25.35.17.11.29.2.42.33ZM15.85,8.09c-.05-.09-.09-.15-.16-.22t-.01-.02s.01-.03.05-.05c.03-.02.05-.03.06-.03.02,0,.04.02.09.08.07.08.12.15.12.17,0,.02-.1.1-.13.1,0,0-.01,0-.02-.02ZM16.16,7.92s-.03.02-.04.03c0,0,0,0-.01,0t0,0s-.01,0-.02-.02c-.07-.1-.11-.17-.17-.22t-.01-.01s.09-.08.11-.08c.02,0,.02,0,.05.03.04.03.11.12.15.17,0,0,.01.02.02.04,0,.01-.03.04-.07.06Z"/>
        <path class="cls-2" d="M16.96,7.97s.03.02.03.04c0,0,0,.01,0,.03-.01.05-.01.08-.01.17,0,.54-.1.88-.33,1.17-.05.06-.07.08-.09.08,0,0-.02,0-.04-.01-.06-.04-.11-.06-.21-.08.15-.15.21-.24.28-.38.09-.21.13-.42.13-.73,0-.15,0-.21-.02-.32.12,0,.22.02.28.04ZM17.19,8.18c0-.11,0-.19-.02-.29.24,0,.32.03.32.07,0,.01,0,.02-.01.04,0,.01-.01.05-.01.08q0,.06-.01,1.03c.28-.16.46-.31.65-.54,0,.11.01.2.03.26,0,.02,0,.03,0,.04,0,.04-.02.06-.12.16-.16.15-.27.23-.48.33-.05.02-.08.04-.1.07-.01.01-.04.02-.05.02-.03,0-.11-.05-.16-.11-.04-.04-.06-.08-.06-.11,0-.01,0-.02,0-.04.01-.04.02-.08.02-.2v-.83Z"/>
        <path class="cls-2" d="M19.21,8.31c-.15.2-.41.44-.48.44-.02,0-.03,0-.07-.04-.03-.03-.09-.07-.16-.11.16-.08.32-.22.44-.36.13-.15.21-.28.28-.48.11.04.17.06.24.1.03.02.04.03.04.05,0,.02,0,.03-.03.04-.02.02-.04.04-.1.12h.33c.12,0,.14,0,.21-.02,0,0,.02,0,.02,0,.04,0,.07.03.14.11.04.05.05.08.05.1s0,.04-.04.07c-.02.02-.05.06-.07.1-.24.43-.47.7-.82.96-.15.11-.35.23-.39.23-.02,0-.03,0-.05-.03-.04-.04-.1-.08-.18-.13.32-.15.55-.31.77-.53.16-.16.27-.31.36-.49.02-.04.03-.07.07-.14h-.56ZM20.26,8.07s-.08.06-.09.06t-.05-.07c-.04-.06-.09-.13-.14-.18,0,0-.01-.01-.01-.02,0-.02.08-.08.11-.08.02,0,.04.02.11.1.06.07.1.13.1.14s0,.02-.03.04ZM20.35,7.96c-.05-.09-.1-.15-.16-.21,0,0-.01-.01-.01-.02,0-.01.01-.02.05-.05.03-.02.04-.03.06-.03.02,0,.08.06.16.15.03.04.05.07.05.08,0,.01,0,.02-.03.04-.04.03-.07.05-.08.05,0,0-.01,0-.02-.02Z"/>
        <path class="cls-2" d="M20.89,8.29c0-.15,0-.24-.02-.37.11,0,.2.01.28.03.04.01.05.02.05.04,0,0,0,.02-.01.05q-.02.06-.03,1.06c.33-.11.51-.2.75-.37.12-.09.22-.17.32-.27v.02c0,.08,0,.15.02.24,0,.02,0,.03,0,.04,0,.04-.03.07-.15.16-.12.1-.31.22-.45.29-.12.06-.23.11-.39.16-.05.02-.08.03-.11.05-.02.01-.04.02-.06.02-.06,0-.22-.15-.22-.21,0-.01,0-.02,0-.04,0-.03.01-.06.01-.15v-.74Z"/>
        <path class="cls-2" d="M23.55,8.54c.4,0,.63,0,.86-.02h.03c.07,0,.07,0,.07.18,0,.09,0,.11-.04.11h0c-.15,0-.23,0-.86,0-.23,0-.35,0-.55,0h-.06c-.07,0-.08,0-.12,0-.01,0-.02,0-.02,0-.02,0-.04-.01-.04-.03-.01-.05-.02-.17-.02-.27.18.02.33.02.79.02Z"/>
      </g>
    </g>
  </g>
</svg>