<?xml version="1.0" encoding="UTF-8"?>
<svg id="_レイヤー_2" data-name="レイヤー 2" xmlns="http://www.w3.org/2000/svg" viewBox="0 0 31.6 9.36">
  <defs>
    <style>
      .cls-1 {
        stroke: #f096aa;
        stroke-linecap: round;
        stroke-linejoin: round;
        stroke-width: .1px;
      }

      .cls-1, .cls-2 {
        fill: #f096aa;
      }

      .cls-2 {
        stroke-width: 0px;
      }
    </style>
  </defs>
  <g id="lay">
    <g>
      <g>
        <path class="cls-1" d="M1.08,5.64c.18-.18.42-.28.42-.71V.22h-.03C.53.22.27,1.04.13,2.11H.05L.22.11h2.99l.17,2.01h-.08c-.14-1.07-.4-1.9-1.33-1.9h-.03v4.71c0,.43.23.53.41.71h-1.26Z"/>
        <path class="cls-1" d="M4.13,5.16v-3c0-.25-.08-.33-.17-.33-.08,0-.17.06-.25.11v-.08c.18-.18.47-.47.66-.47.13,0,.17.13.17.49v3.28c0,.2.07.29.25.47h-.91c.18-.18.25-.28.25-.47ZM4.26.05c.22,0,.35.13.35.33s-.13.33-.35.33-.35-.13-.35-.33.13-.33.35-.33Z"/>
        <path class="cls-1" d="M5.49,5.16v-3c0-.25-.07-.33-.17-.33-.07,0-.17.06-.25.11v-.08c.18-.18.47-.47.66-.47.13,0,.17.13.17.49v.87c.19-.58.52-1.36,1.2-1.36.43,0,.81.32.81,1.15v2.62c0,.2.07.29.25.47h-.91c.18-.18.25-.28.25-.47v-2.23c0-.68-.06-1.43-.52-1.43-.49,0-.88.84-1.07,1.42v2.24c0,.2.07.29.25.47h-.91c.18-.18.25-.28.25-.47Z"/>
        <path class="cls-1" d="M8.97.44h.08v1.01h.58v.09h-.58v2.31c1.34.18,1.58,1.85.42,1.85-.2,0-.83-.05-.83-.96V1.54h-.42v-.09c.43,0,.75-.7.75-1.01ZM9.05,4.58c0,.88.27,1.01.51,1.01.86,0,.76-1.49-.51-1.69v.68Z"/>
        <path class="cls-1" d="M13.19,5.16V.58c0-.2-.07-.29-.25-.47h1.01c1.4,0,1.88.44,1.88,1.07,0,.8-.76,1.04-1.55,1.13,1.09.12,2.05.36,2.05,1.6,0,1.04-.56,1.72-2.37,1.72h-1.01c.18-.18.25-.28.25-.47ZM13.81,2.26c.66,0,1.59-.25,1.59-1.08,0-.58-.37-.96-1.62-.96h-.16v2.05h.19ZM13.78,5.53c1.66,0,2.12-.75,2.12-1.6,0-1.18-1.16-1.56-2.08-1.56h-.19v3.15h.16Z"/>
        <path class="cls-1" d="M19.1,1.88l.08,1.25h-.08c-.17-.92-.44-1.61-.75-1.61-.39,0-.71,1.01-.85,1.75v1.9c0,.2.07.29.25.47h-.91c.18-.18.25-.28.25-.47v-3c0-.25-.07-.33-.17-.33-.07,0-.17.06-.25.11v-.08c.18-.18.47-.47.66-.47.13,0,.17.13.17.49v1.01c.17-.74.46-1.5.9-1.5.28,0,.61.31.71.48Z"/>
        <path class="cls-1" d="M21.67,1.39c1.29,0,2.2.82,2.2,2.15s-.91,2.15-2.2,2.15-2.2-.82-2.2-2.15.91-2.15,2.2-2.15ZM21.67,5.6c1.04,0,1.77-.79,1.77-2.06s-.73-2.05-1.77-2.05-1.77.79-1.77,2.05.73,2.06,1.77,2.06Z"/>
        <path class="cls-1" d="M26.21,1.45l.85,3.44.71-2.96c.04-.19.02-.29-.12-.47h.61c-.22.18-.32.28-.37.47l-.9,3.77h-.11l-.87-3.33-.79,3.33h-.11l-.98-3.77c-.05-.19-.18-.29-.37-.47h.94c-.18.18-.18.28-.13.47l.73,2.96.82-3.44h.11Z"/>
        <path class="cls-1" d="M28.88,5.16v-3c0-.25-.08-.33-.17-.33-.08,0-.17.06-.25.11v-.08c.18-.18.47-.47.66-.47.13,0,.17.13.17.49v.87c.19-.58.52-1.36,1.2-1.36.43,0,.81.32.81,1.15v2.62c0,.2.07.29.25.47h-.91c.18-.18.25-.28.25-.47v-2.23c0-.68-.06-1.43-.52-1.43-.49,0-.88.84-1.07,1.42v2.24c0,.2.07.29.25.47h-.91c.18-.18.25-.28.25-.47Z"/>
      </g>
      <g>
        <path class="cls-2" d="M8.48,8.38s-.04,0-.05,0-.02,0-.02,0h-.02s-.04-.01-.04-.04c-.01-.05-.02-.12-.02-.23.1.01.12.01.34.02.29,0,.46,0,.52,0,.37,0,.8,0,.87-.01h.02s.03,0,.03.15c0,.1,0,.11-.04.11h-.01c-.1,0-.14,0-.66-.01,0,.17-.02.24-.05.34-.07.25-.2.42-.42.56-.06.04-.11.06-.13.06-.01,0-.02,0-.04-.02-.08-.08-.11-.1-.18-.14.39-.18.53-.39.55-.8-.36,0-.48,0-.65,0ZM9.25,7.64c.21,0,.44,0,.53-.02h.01s.04.02.04.08v.05s0,.04,0,.06c0,.06,0,.07-.05.07h-.03c-.06,0-.46,0-.56,0-.26,0-.46,0-.53.01,0,0-.01,0-.02,0-.02,0-.03,0-.04-.03,0-.05-.02-.15-.02-.24.09.01.38.02.65.02Z"/>
        <path class="cls-2" d="M10.99,8.64c-.17.11-.4.23-.44.23t-.06-.05s-.08-.08-.14-.12c.29-.09.58-.26.84-.49.11-.09.15-.15.21-.24.12.08.2.16.2.19,0,.01,0,.02-.03.03-.03.01-.05.03-.12.09-.05.04-.13.11-.23.19v.35c0,.19,0,.39.01.48v.02s-.02.04-.16.04c-.09,0-.1,0-.1-.03h0v-.02s0-.02,0-.04c0-.05,0-.25,0-.46v-.18Z"/>
        <path class="cls-2" d="M13.63,8.13s.02.04.02.05c0,.02,0,.04-.04.08-.12.16-.25.29-.45.44-.22.17-.41.29-.67.41-.17.08-.18.08-.2.11-.02.02-.03.02-.04.02-.02,0-.04-.02-.07-.07-.04-.07-.09-.16-.11-.23.22-.05.49-.17.75-.33.34-.21.55-.42.72-.71.02.08.04.13.1.24ZM12.17,7.76s.05-.05.07-.05c.04,0,.21.11.34.22.08.07.11.1.11.12,0,.02-.04.08-.09.13-.05.06-.07.08-.09.08t-.11-.09c-.06-.05-.17-.15-.23-.18q-.08-.05-.09-.06s-.01-.01-.01-.02c0-.02.04-.08.1-.15Z"/>
        <path class="cls-2" d="M14.53,8.66c0,.13,0,.49.01.6h0s0,.05-.02.05c-.02.01-.1.02-.18.02-.07,0-.08,0-.08-.05h0c0-.07.01-.7.01-.96,0-.51,0-.65-.02-.78.16.01.23.02.29.03.02,0,.03.02.03.04t0,.05s-.01.06-.02.09c0,0,0,.14-.01.4q.16.04.25.08c.22.08.35.13.54.24.02.01.03.02.03.04,0,.02-.04.13-.08.19-.02.04-.03.05-.04.05,0,0-.02,0-.04-.01-.22-.14-.44-.25-.67-.32v.25Z"/>
        <path class="cls-2" d="M16.35,7.99c-.39,0-.67.01-.74.04,0,0,0,0,0,0-.04,0-.06-.07-.06-.3.11.01.25.02.57.02.29,0,.64,0,.7-.01.04,0,.05,0,.09-.02.01,0,.02,0,.02,0,.04,0,.08.04.15.12.04.05.05.07.05.09,0,.01,0,.03-.02.05-.02.03-.02.03-.07.19-.12.39-.37.73-.7.99-.13.1-.26.18-.29.18-.02,0-.03,0-.08-.05-.06-.06-.11-.09-.17-.13.32-.16.5-.3.67-.51.15-.19.25-.4.3-.64q-.17,0-.42,0ZM17.3,7.76s-.08.06-.09.06t-.05-.07c-.04-.06-.09-.13-.14-.18,0,0-.01-.01-.01-.02,0-.02.08-.08.11-.08.02,0,.04.02.11.1.06.07.1.13.1.14,0,.02,0,.02-.03.04ZM17.4,7.65c-.05-.09-.1-.15-.16-.21,0,0-.01-.01-.01-.02,0-.01.01-.02.05-.05.03-.02.04-.03.06-.03.02,0,.08.06.16.15.03.04.05.07.05.08,0,.01,0,.02-.03.04-.04.03-.07.05-.08.05,0,0-.02,0-.02-.02Z"/>
        <path class="cls-2" d="M17.77,8.38s-.02,0-.02,0c-.05,0-.07-.07-.08-.3.11.02.26.02.67.02.44,0,.56,0,.6,0,.03,0,.04,0,.08-.02.02,0,.03,0,.04,0,.03,0,.06.02.09.05.06.07.1.13.1.16,0,.02-.01.04-.04.07-.02.02-.03.04-.07.13-.15.32-.31.52-.57.69-.12.08-.31.17-.35.17-.03,0-.05-.01-.09-.06-.06-.07-.08-.09-.15-.12.25-.07.48-.2.64-.36.12-.12.22-.27.28-.46-.83.01-.99.02-1.14.05ZM18.49,7.59q.23,0,.48-.02h.03s.04.02.04.09c0,.03,0,.05,0,.07h0c0,.09,0,.11-.04.11,0,0-.03,0-.05,0-.04,0-.21,0-.28,0-.33,0-.57,0-.69.02h-.02c-.06,0-.07-.03-.08-.28.14.02.28.02.6.02Z"/>
        <path class="cls-2" d="M20.36,7.79c0-.12,0-.18-.02-.28.15,0,.25.01.3.03.02,0,.03.02.03.03,0,.01,0,.02-.01.04-.02.03-.02.07-.02.18v.07h.28c.07,0,.11,0,.16-.02.03,0,.04-.01.06-.01.04,0,.1.05.18.12.04.04.05.06.05.08,0,.01,0,.03-.02.06-.02.04-.03.06-.05.17-.05.2-.09.31-.18.46-.15.25-.35.44-.61.57-.06.03-.1.05-.12.05-.01,0-.02,0-.04-.03-.04-.05-.09-.09-.17-.14.18-.08.27-.12.37-.2.22-.15.36-.34.45-.59.04-.11.05-.19.06-.29-.2,0-.28,0-.46,0-.19,0-.31,0-.58,0q0,.14,0,.16c0,.06,0,.1,0,.19h0s0,.04-.02.05c-.02,0-.09.01-.15.01-.08,0-.1,0-.1-.04,0-.01,0-.03,0-.05s0-.26,0-.31c0-.07,0-.13,0-.23.06,0,.18.01.33.01h.31v-.07Z"/>
        <path class="cls-2" d="M23.38,8.13s.02.04.02.05c0,.02,0,.04-.04.08-.12.16-.25.29-.45.44-.22.17-.41.29-.67.41-.17.08-.18.08-.2.11-.02.02-.03.02-.04.02-.02,0-.04-.02-.07-.07-.04-.07-.09-.16-.11-.23.22-.05.49-.17.75-.33.34-.21.55-.42.72-.71.02.08.04.13.1.24ZM21.91,7.76s.05-.05.07-.05c.04,0,.21.11.34.22.08.07.11.1.11.12,0,.02-.04.08-.09.13-.05.06-.07.08-.09.08t-.11-.09c-.06-.05-.17-.15-.23-.18q-.08-.05-.09-.06s-.01-.01-.01-.02c0-.02.04-.08.1-.15Z"/>
      </g>
    </g>
  </g>
</svg>