<?xml version="1.0" encoding="UTF-8"?>
<svg xmlns="http://www.w3.org/2000/svg" preserveAspectRatio="none" version="1.1" viewBox="0 0 21.0522946 6.6370409">
  <defs>
    <style>
      .cls-1 {
        fill: #5f5f5f;
      }
    </style>
  </defs>
  <!-- Generator: Adobe Illustrator 28.7.1, SVG Export Plug-In . SVG Version: 1.2.0 Build 142)  -->
  <g>
    <g id="_レイヤー_1" data-name="レイヤー_1">
      <g id="_レイヤー_1-2" data-name="_レイヤー_1">
        <g id="_レイヤー_1-2">
          <path class="cls-1" d="M.2810045,2.8543497c0-.0881423-.036726-.2334721-.1584464-.2334721v-.0178382h.7712457c.82581,0,1.2025138.686776,1.2025138,1.3384,0,.5918129-.3095476,1.1584425-.8845717,1.1584425-.2864627,0-.5760733-.1914996-.6610678-.6836278v.6657896H.1225581v-.0178382c.1217204,0,.1584464-.1448049.1584464-.2334721v-1.9763835ZM.5506782,2.6455366v1.4307395c.016789.6977937.2896107.9491044.5613829.9491044.467994,0,.7208786-.5241324.7208786-1.076596,0-.6196201-.3126955-1.2785889-.9821579-1.3032479,0,0-.3001038,0-.3001037,0Z"/>
          <path class="cls-1" d="M3.1802587,3.9981019c.0996847-.1059808.1448055-.2581314.1448055-.3892956,0-.1453298-.0566631-.2623284-.1563478-.2623284-.2980051,0-.451205.6379827-.451205,1.4842544,0,.0209861.0031482.0456448.0083947.0739767.0062958.0251834.0146906.0535146.0283313.0745008.0115424.0251834.0283313.0461695.0482684.0603357.0199371.0178382.0461701.0246593.0766.0246593v.0178382h-.575024v-.0178382c.1217204,0,.1584464-.1448049.1584464-.2334721v-1.1935945c0-.1521506-.0367262-.3079735-.1584464-.3079735v-.0178382h.4134296v.8961138c.062959-.5844681.2277012-.9312662.5393473-.9312662.2235037,0,.3347314.1699888.3347314.3467984,0,.1946475-.1332628.400313-.3913942.4071338,0,0-.0199371-.0320041-.0199371-.0320044Z"/>
          <path class="cls-1" d="M5.0071143,4.6109012c-.1563478.2938078-.4333668.5173119-.7229774.5173119-.4543532,0-.6495253-.3084984-.6495253-.6731347,0-.5309528.4134296-1.175756,1.062955-1.175756.3326325,0,.487931.1983204.487931.4354654,0,.3546679-.3431255.7932812-.9643196.7932812-.1049312,0-.2214054-.0104931-.3399776-.0388246-.0083947.3153186.1101778.573975.4165776.573975.2665256,0,.5477417-.1914996.6778566-.4533036,0,0,.0314792.0209864.0314798.0209856ZM3.8812007,4.4304194c.0797479.0246587.1563478.0356764.2297996.0356764.5047199,0,.8593878-.513639.8593878-.8536169,0-.1663162-.0881423-.2906596-.2833148-.2906596-.4428105,0-.7775416.6164719-.8058726,1.1086001Z"/>
          <path class="cls-1" d="M5.4814043,4.0264335c.0031479-.4637969.2182575-.7502593.6274899-.7502593.7481607,0,.6065032,1.7880307,1.0577079,1.7880307v.0178382h-.1846791c-.2602297,0-.3829998-.3326325-.4763886-.7046142.0062958.4674692-.2581311.7576048-.5697775.7576048-.3798518,0-.6358844-.2722968-.6358844-.6657896,0-.1909749.0745008-.336305.1815318-.4428105ZM6.1309297,3.7861406c.0881423,0,.1731373.0136413.2360957.0351521-.0765994-.2691491-.1731373-.4748147-.3462735-.4748147-.3032513,0-.4910789.276494-.5110163.6552965.1710381-.148478.414479-.2156339.6211941-.2156339ZM6.0123569,5.0642048c.2182575,0,.4648457-.2618037.4648457-.6762827,0-.0671559-.0083945-.1416575-.0230847-.2161586-.022036-.102308-.0472194-.2019929-.0703041-.2974804-.0535146-.0209864-.1164736-.0314795-.1783833-.0314795-.2896109,0-.6495253.2156339-.6495253.6264403,0,.3578161.2266519.5949614.4564518.5949608Z"/>
          <path class="cls-1" d="M9.2064684,3.346478c-.1930741,0-.3662103.2586558-.3662103.6946458,0,.2193065.0451208.4847828.1531999.7859361.059811.1453301.1301152.237145.2329472.237145v.0178382h-.1846791c-.5981087,0-.4595991-1.7355651-.9611711-1.7355651-.2948574,0-.4459587.5031459-.4459587,1.4842544,0,.0209861.0031479.0456454.0083945.0739767.0062958.0251834.0146903.0535146.0283313.0745008.0115429.0251834.0283313.0461695.0482687.0603357.0199368.0178382.0461695.0246593.0765994.0246593v.0178382h-.575024v-.0178382c.1217201,0,.1584464-.1448049.1584464-.2334721v-1.1935945c0-.1521506-.0367263-.3079735-.1584464-.3079735v-.0178382h.4134296v.8499443c.0566631-.5598091.2077638-.8850964.5361997-.8850964.3829998,0,.5330512.4706171.6495253.9312662-.0503673-.5524636.1479534-.9312662.4763886-.9312662.7492106,0,.6075519,1.788031,1.0587583,1.788031v.0178382h-.1846791c-.6012572,0-.4595991-1.7355651-.9643202-1.7355657Z"/>
          <path class="cls-1" d="M11.6744541,4.0694553c0,.5167872.2465893.9769113.8027252.9769113.5697781,0,.7932815-.3431255.7932815-.5771226,0-.1201465-.0587623-.2124863-.1615944-.2124863-.0367257,0-.0786991.0110177-.1248686.0393493-.1217207.1096534-.2581306.2051409-.4333671.2051409-.0629584,0-.1332619-.0141656-.2098636-.0424972l.0031479-.0209864c.4197249,0,.5634822-.5739747,1.0262287-.5739747.2214048,0,.2980054.1453298.2980054.2796422,0,.0498423-.0115424.1028329-.0283324.1416575l-.0146903-.0036726c.0115424-.0351521.0178394-.0739767.0178394-.113326,0-.1201465-.051416-.2402929-.1647423-.2402929-.1563478,0-.286463.1626437-.4396629.3147943.033579-.0141656.0619091-.0209864.0902415-.0209864.1112276,0,.1731367.1028329.1731367.237145,0,.2691491-.2549838.676283-.8992614.676283-.6096517,0-1.0094398-.4601241-1.0094398-1.0692508,0-.8997867.7376671-1.4910749,1.4008346-1.4910749.4281205,0,.7145835.3153189.7145835.6164719,0,.237145-.1720874.4601241-.583419.5204598l-.0178394-.0356764c.252884-.0918149.4060851-.3541435.4060851-.5912883,0-.2444901-.1584464-.4637967-.5246567-.4637967-.7009414,0-1.1143716.7717701-1.1143716,1.4485772Z"/>
          <path class="cls-1" d="M14.6754938,3.9981019c.0996853-.1059808.1448055-.2581314.1448055-.3892956,0-.1453298-.0566626-.2623284-.1563478-.2623284-.2980054,0-.4512041.6379827-.4512041,1.4842544,0,.0209861.0031479.0456448.0083945.0739767.0062958.0251834.0146903.0535146.0283324.0745008.0115424.0251834.0283324.0461695.0482693.0603357.0199368.0178382.0461695.0246593.0765994.0246593v.0178382h-.5750234v-.0178382c.1217207,0,.1584453-.1448049.1584453-.2334721v-1.1935945c0-.1521506-.0367257-.3079735-.1584464-.3079735v-.0178382h.4134302v.8961138c.0629584-.5844681.2277007-.9312662.539347-.9312662.2235034,0,.3347311.1699888.3347311.3467984,0,.1946475-.1332619.400313-.3913948.4071338,0,0-.0199368-.0320041-.019938-.0320044Z"/>
          <path class="cls-1" d="M15.2683554,4.0264335c.0031479-.4637969.2182569-.7502593.6274888-.7502593.7481602,0,.6065026,1.7880307,1.057709,1.7880307v.0178382h-.1846791c-.2602303,0-.3829992-.3326325-.4763875-.7046142.0062958.4674692-.2581306.7576048-.5697781.7576048-.3798513,0-.6358844-.2722968-.6358844-.6657896,0-.1909749.0745019-.336305.1815312-.4428105ZM15.9178807,3.7861406c.0881417,0,.1731367.0136413.2360963.0351521-.0765994-.2691491-.1731367-.4748147-.3462735-.4748147-.3032519,0-.4910789.276494-.5110157.6552965.1710381-.148478.4144784-.2156339.6211929-.2156339ZM15.7993079,5.0642048c.2182569,0,.4648462-.2618037.4648462-.6762827,0-.0671559-.0083945-.1416575-.0230859-.2161586-.0220354-.102308-.0472188-.2019929-.070307-.2974804-.0535123-.0209864-.1164707-.0314795-.1783798-.0314795-.2896097,0-.6495253.2156339-.6495253.6264403,0,.3578161.2266514.5949614.4564518.5949608Z"/>
          <path class="cls-1" d="M17.649248,5.645c-.2266514-.0246593-.6044052.1983207-.6044052.5241326,0,.1133257.0650582.1594957.1615944.1594957.3462735,0,1.1290619-.5844678,1.1290619-.9916016,0-.1736614-.0765994-.237145-.1899268-.237145-.3284352,0-.9842564.5204595-1.1941189.5204595-.1448055,0-.2329472-.1558232-.2329472-.2728214,0-.2124857.2298004-.3997881.47429-.3997881.0902415,0,.1815312.0246593.2665262.0849944l-.5477426-1.4275913c-.0451202-.1201465-.1531999-.2759696-.2518359-.2759696v-.0178382h.5897149l-.0031479.0178382c-.0703035,0-.1017827.0603357-.1017827.1306398,0,.0356764.0083945.0713534.0230859.1065052l.4564506,1.1720837.4197249-1.0834165c.0167889-.0461701.0251834-.0923395.0251834-.1311642,0-.1206711-.0765994-.1946475-.1584464-.1946475v-.0178382h.4994734v.0178382c-.102832,0-.2413428.1059808-.3126956.2833148l-.5760727,1.4695642h-.0020986.0020986c.1846791-.0954875.3777527-.177334.5341005-.177334.1815312,0,.3147943.1810071.3147943.4359897,0,.7187802-.6159475,1.1542452-1.0188835,1.1542452-.1930736,0-.3399776-.1023085-.3399776-.325812,0-.3541438.3966413-.5912888.6411309-.5666296,0,0-.0031479.0424975-.0031479.0424958ZM17.1728606,4.9828836c-.2581306,0-.4144784.2266519-.4144784.3436502,0,.0776493.0566626.0918155.0996853.0918155.1080786,0,.3662114-.1768093.6411309-.3221394-.1217207-.0813218-.2329472-.1133257-.3263378-.1133263Z"/>
          <path class="cls-1" d="M.5931755.9451232c0,.1002094.0041972.3630626.0073453.4386131v.0078698c0,.0146903-.003148.0257083-.0104931.0309547-.0115425.0094439-.0765998.0173137-.1364109.0173137-.0514163,0-.0608603-.0047219-.0608603-.0367262v-.0062958c.003148-.0419725.0083945-.5078679.0083945-.6983185,0-.3704078-.003148-.4769131-.0178383-.5687282.1164738.0062958.1678902.0125917.21406.0225602.016789.003148.0241343.0110177.0241343.0241343,0,.006296-.0020986.0187127-.0062958.0372507-.0062958.0194122-.0094438.0398738-.0115425.0676808,0,.003148-.003148.0996848-.0073453.2901353.0762502.021336.1364107.0400489.1804819.0561383.160545.056663.2528847.0965369.3966406.174186.0125917.0078699.0188877.0162643.0188877.0272822,0,.0162643-.0293807.0933889-.0545644.1416574-.0136411.0278068-.0209862.0356766-.0304301.0356766-.0073453,0-.0146904-.003148-.026233-.0110177-.1584464-.1049314-.3242381-.1841546-.487931-.230849,0,0,0,.1804819.0000005.1804824ZM.9940134.4440758c-.0325288-.0582368-.0724027-.1128012-.1206711-.1626437-.0083945-.0099685-.009444-.0099685-.009444-.0146903,0-.0094438.0073453-.0194122.0388246-.0403986.0220357-.0178383.0346275-.0241343.0430219-.0241343.0146904,0,.0293807.0131163.0692547.056663.053515.0577123.0902409.1080793.0902409.1222451,0,.0178383-.0724027.0760753-.0954876.0760753-.006296,0-.0104931-.0036726-.0157395-.0131164ZM1.2196158.3234046c-.0209862.0141658-.0356766.0225602-.0430219.0225602-.0052466,0-.0083945-.0036726-.016789-.0146903-.0388246-.0645328-.0755506-.1128013-.1206711-.1579217-.0052466-.0047219-.0083945-.0099685-.0083945-.0131163,0-.0125917.0650574-.0577123.0839451-.0577123.0083945,0,.0178384.0047219.0346275.0194122.0493177.0466945.1185724.1353614.1185724.1542491,0,.0099685-.0115425.0209862-.0482685.0472192Z"/>
          <path class="cls-1" d="M1.8901274.6340015c0,.0372507.0020986.1112271.0031481.1563478,0,.0162643.0020986.0325288.0020986.0388246,0,.0325288-.0230849.0388246-.1490025.0388246-.0482685,0-.0577121-.006296-.0577121-.0341028v-.0320041c.0062958-.1259177.0094439-.1951724.0094439-.3095475,0-.1867779-.0052467-.2591805-.0178385-.3431256.0828959.001574.1584464.0062958.1951723.0141658.0230849.0052466.0356767.0162643.0356767.0356767,0,.0078698-.0020986.0131163-.0052467.0225602-.0125918.0320041-.0157397.0629588-.0157397.1400834v.272297ZM2.5165679.4246635c0,.2303245-.0146903.3803764-.0451206.4931775-.0577121.2046162-.1867777.3693585-.3767038.4737654-.0398738.0225602-.0713533.0356767-.0818465.0356767-.0115427,0-.0199371-.0047219-.03043-.0178385-.0377753-.0466944-.0661066-.0724026-.1227697-.1096534.1028328-.0388245.1899259-.093389.2612793-.1626437.0818465-.0807973.1353615-.177334.163693-.2932832.0209863-.091815.0356767-.266001.0356767-.451205,0-.1306396-.0052467-.1951724-.0157397-.2549833.0965368.001574.1542492.0083945.2035669.0178383.0209863.0047219.0314793.0131163.0314793.0288561,0,.0083945-.0020986.0146903-.0073454.0293807-.0125917.035152-.0157397.0676808-.0157397.1432314,0,0,0,.0676807.0000003.0676811Z"/>
          <path class="cls-1" d="M3.5711283.6791221c.2948571,0,.4637967-.003148.6264403-.0146904h.0209864c.0482684,0,.0482684.001574.0482684.1311643,0,.0661067-.0041972.0771246-.0325288.0771246h-.0062958c-.1059808-.0047219-.1657916-.0047219-.6316868-.0047219-.1710384,0-.2560325.001574-.4039859.006296h-.0472194c-.0514163,0-.059811.001574-.0902409.0068205-.0083947,0-.0146906.001574-.0178382.001574-.0178382,0-.0283313-.0083945-.0325288-.0225603-.009444-.0403986-.0157399-.1227697-.0157399-.1972711.1311642.0131163.2455395.0162643.5823694.0162644Z"/>
          <path class="cls-1" d="M4.9992445,1.1214078c.1920242-.0162643.35152-.033578.4470075-.0498423-.062959-.1112271-.1217201-.1998943-.1794326-.267575-.0062958-.0078699-.0094438-.0146904-.0094438-.0225603,0-.0146904.0178382-.0272822.0807972-.0645328.0283313-.0162643.0398742-.0194122.0556138-.0194122.013641,0,.0209861.003148.0314792.0131163.0828958.0855191.1815312.2303245.2623284.3882462.0430216.0870931.0807972.1789079.0807972.1998943,0,.0146903-.0167895.0288561-.0535146.0482685-.0482687.0241343-.0954875.0419725-.1112271.0419725-.0146903,0-.0241346-.0099686-.0325291-.0325288-.0104931-.0383-.0304299-.0849945-.051416-.1332629-.1353617.0241343-.2350464.0398738-.3011527.0498423-.2245533.0320041-.2833148.0403986-.5645309.0676808-.0545642.0062958-.0818465.0110179-.1175229.0257083-.0062958.001574-.0104931.0031481-.0178382.0031481-.0125917,0-.0220354-.0062958-.0304302-.0225602-.0251836-.0482685-.0419725-.1065053-.0535152-.1867779.0272823.0010495.0419725.001574.0440712.001574.0223854,0,.0738017-.0026233.1542489-.0078699.0076948-.0174886.0192375-.042847.0346271-.0760753.0849947-.1852039.1962218-.5188858.2539339-.7576046.0199371-.0739766.026233-.1143752.0293809-.1673656.0776493.0131163.1416575.0288561.1951722.0466945.0335778.0115425.0482687.0209862.0482687.0356767,0,.0078698-.0031479.0125917-.0209861.033578-.0083945.0115425-.0262327.0466945-.0356764.0739766-.0062958.0146903-.022036.0661067-.0849944.264427-.0482687.14533-.1416575.3871968-.2067148.5288542.0619094-.006296.1227697-.0115425.153199-.0146907Z"/>
          <path class="cls-1" d="M6.468284.5054606c-.1112271.1479532-.3011527.3252873-.3473233.3252873-.0146903,0-.0209861-.003148-.0535146-.0304301-.0241346-.0209862-.0661069-.0498423-.1196215-.0807973.114375-.0608603.2318985-.1579217.3210901-.2623285.0944382-.1133259.1511013-.2067149.2077638-.3483721.0786986.0257083.1206714.0451205.174186.0739766.022036.0131163.0304299.0225602.0304299.0372507,0,.0110177-.0052465.0209862-.0188875.0304301-.0167895.0131163-.0325291.0325288-.0745008.090241l.2402929.001574c.0870936,0,.1028326-.001574.1511013-.0188877.0062958-.0020986.0115429-.0036726.0178382-.0036726.0262327,0,.0535146.0241343.0996853.0839451.0314792.0388246.0388243.055089.0388243.0724026,0,.0178383-.0041972.0262328-.027282.0487931-.0125917.0125917-.0335778.0435465-.0503673.0724026-.1731373.3142695-.3410269.5125898-.5970594.7025158-.1112271.0839451-.2581311.1694642-.2885616.1694642-.013641,0-.0241346-.0068205-.0388243-.0225602-.027282-.0293809-.0713534-.0598109-.1343118-.093389.2360957-.1128012.3997881-.2261272.561383-.3887708.114375-.1143753.1951722-.2240285.2654763-.3593901.0146903-.0272821.0241346-.0482685.0503673-.1012589,0,0-.4081831.001574-.4081843.0015743ZM7.2353323.3312745c-.0346277.0304301-.0556138.0451205-.0661069.0451205-.0062958,0-.0188875-.0160895-.037775-.0482685-.0262327-.0435465-.0650576-.0933889-.1017833-.1306396-.0062958-.0062958-.0083945-.0094438-.0083945-.0146903,0-.0125917.0619091-.0577123.0786986-.0577123.013641,0,.0325291.0157398.0807972.0708288.0440709.0498423.0745008.0933889.0745008.1049314,0,.0110177-.0052465.0173137-.0199368.03043ZM7.3087849.2489034c-.0388243-.0661068-.0765994-.1128013-.1196215-.1547739-.0062958-.0062958-.0083945-.0094438-.0083945-.0125917,0-.0083945.0083945-.0162643.0356764-.0356767.0209861-.0162643.0304299-.0194122.0419728-.0194122.0178382.001574.059811.0419726.114375.1128013.022036.0293808.0367263.053515.0367263.0613848s-.0041972.0162643-.0241346.0304301c-.0251834.0194122-.0493174.0341028-.059811.0341028-.0062958,0-.0104931-.003148-.0167889-.0162646Z"/>
          <path class="cls-1" d="M7.7001785.4939181c0-.1112272-.0031479-.1773341-.0146903-.272297.0786986.003148.1500514.0115425.2014686.0241343.0262327.0078698.0356764.0146903.0356764.0288561,0,.0068205-.0020986.0146903-.0083945.0341028-.0104931.0311296-.0167889.2889111-.0188875.7733444.2402929-.0802725.373556-.1463793.5477415-.2738709.0923395-.0661067.1584464-.1238191.2318985-.1998943v.0146904c0,.0561383.0052465.1128012.0178382.1789079.0020986.0146904.0031479.0209862.0031479.0257083,0,.0272822-.022036.0498423-.1091285.1175231-.0902409.0713534-.2287506.1615944-.3326325.2145847-.0870936.0451206-.1699888.0807972-.2885616.1190972-.0346277.0131163-.0587612.0241343-.0786986.0388245-.0146903.0110179-.0251834.0162644-.0398742.0162644-.0440709,0-.1594957-.1128012-.1594957-.1563476,0-.0083945.0010493-.0162643.0041972-.0309548.0062958-.0225603.0083945-.0451205.0083945-.1096533,0,0,0-.54302.0000006-.5430201Z"/>
          <path class="cls-1" d="M9.6519025.6791221c.2948563,0,.4637969-.003148.6264406-.0146904h.0209861c.0482693,0,.0482693.001574.0482693.1311643,0,.0661067-.0041972.0771246-.0325285.0771246h-.0062958c-.1059811-.0047219-.1657916-.0047219-.6316871-.0047219-.1710381,0-.2560325.001574-.4039859.006296h-.0472194c-.051416,0-.059811.001574-.0902409.0068205-.0083945,0-.0146903.001574-.0178382.001574-.0178382,0-.0283313-.0083945-.0325291-.0225603-.0094438-.0403986-.0157396-.1227697-.0157396-.1972711.1311645.0131163.2455395.0162643.5823686.0162644Z"/>
        </g>
      </g>
    </g>
  </g>
</svg>