<svg xmlns="http://www.w3.org/2000/svg" width="440.364" height="67.835" viewBox="0 0 440.364 67.835">
  <g id="brand_copy" transform="translate(-431.5 -2095.667)">
    <path id="パス_122" data-name="パス 122" d="M32.846,77.594a1.186,1.186,0,0,1,.754-1.43l1.6-.5a1.041,1.041,0,0,1,1.194.405l1.233,1.751a11.187,11.187,0,0,1,6.61-5.551A8.965,8.965,0,0,1,52.8,73.647c.439-.822,2.843-4.887,7.224-6.244,7.021-2.162,11,2,12.848,7.989l3.575,11.581a1.135,1.135,0,0,1-.754,1.424l-3.209,1a1.149,1.149,0,0,1-1.43-.76L67.415,76.828c-1.126-3.631-3.434-5.185-6.542-4.228A8.7,8.7,0,0,0,55.8,77.256a17.093,17.093,0,0,1,1.03,2.708l3.676,11.925a1.187,1.187,0,0,1-.76,1.43l-3.052.94a1.144,1.144,0,0,1-1.43-.754L51.628,81.7c-1.137-3.688-3.429-5.185-6.66-4.194a6.851,6.851,0,0,0-4.634,5.219L44.669,96.77a1.187,1.187,0,0,1-.754,1.436l-3.209.985a1.174,1.174,0,0,1-1.424-.754Z" transform="translate(398.699 2058.478)" fill="#473636"/>
    <path id="パス_123" data-name="パス 123" d="M51.015,65.9A10.835,10.835,0,0,1,63.993,74.78c.073.411.163,1.194.186,1.622a1.115,1.115,0,0,1-.873,1.21L47.2,80.68a6.966,6.966,0,0,0,8.017,5,10.293,10.293,0,0,0,4.949-2.714c.631-.546,1-.861,1.582-.36l2.078,1.926A.931.931,0,0,1,64,86.085a13.826,13.826,0,0,1-8.2,4.628c-7.173,1.362-12.966-3.35-14.261-10.123C40.273,73.873,43.9,67.247,51.015,65.9m7.269,8.8a5.715,5.715,0,0,0-6.458-4.251,6.1,6.1,0,0,0-5.039,6.441Z" transform="translate(438.025 2053.173)" fill="#473636"/>
    <path id="長方形_50" data-name="長方形 50" d="M.2,0H5.491a.2.2,0,0,1,.2.2V41.976a.2.2,0,0,1-.2.2H.2a.2.2,0,0,1-.2-.2V.2A.2.2,0,0,1,.2,0Z" transform="translate(506.95 2098.375) rotate(-7.77)" fill="#473636"/>
    <path id="長方形_51" data-name="長方形 51" d="M.2,0H5.494a.2.2,0,0,1,.2.2v41.77a.2.2,0,0,1-.2.2H.2a.2.2,0,0,1-.2-.2V.2A.2.2,0,0,1,.2,0Z" transform="translate(523.978 2096.249) rotate(-5.87)" fill="#473636"/>
    <path id="パス_124" data-name="パス 124" d="M63.573,64.389a12.443,12.443,0,0,1,12.9,11.823c.405,6.925-4.667,12.994-11.407,13.394s-12.5-5.033-12.91-11.953A12.436,12.436,0,0,1,63.573,64.389m1.188,20.066c3.795-.225,6.6-3.772,6.362-7.927a6.835,6.835,0,1,0-13.608.805c.248,4.155,3.457,7.347,7.246,7.122" transform="translate(488.232 2047.107)" fill="#473636"/>
    <path id="パス_125" data-name="パス 125" d="M69.476,64.193A10.836,10.836,0,0,1,80.641,75.262c0,.422-.056,1.2-.107,1.627a1.109,1.109,0,0,1-1.075,1.036l-16.4.129a6.963,6.963,0,0,0,6.987,6.356A10.258,10.258,0,0,0,75.4,82.632c.721-.422,1.143-.664,1.627-.073l1.695,2.269a.933.933,0,0,1-.1,1.565,13.879,13.879,0,0,1-8.9,3.074c-7.3.056-12.156-5.613-12.206-12.516-.056-6.835,4.712-12.7,11.953-12.758m5.563,9.965a5.714,5.714,0,0,0-5.591-5.343,6.1,6.1,0,0,0-6.109,5.433Z" transform="translate(513.165 2046.295)" fill="#473636"/>
    <path id="パス_126" data-name="パス 126" d="M62.777,65.6c-.315-.805.084-1.385.929-1.329l3.243.2a1.2,1.2,0,0,1,1.042.788l3.2,13.535.062.006L78.564,65.19a1.1,1.1,0,0,1,1.053-.529l.366.023a1.064,1.064,0,0,1,.98.659L86.475,79.8l.056.006,4.8-13.1c.349-.7,1.25-.642,1.909-.6l2.348.141a.905.905,0,0,1,.816,1.441l-8.44,22.222a1.078,1.078,0,0,1-1.126.535L86.6,90.43a1.1,1.1,0,0,1-.985-.608l-6.407-16.5-.062-.006-8.333,15.6a1.011,1.011,0,0,1-1,.479l-.3-.017a1.056,1.056,0,0,1-.991-.664Z" transform="translate(536.997 2046.644)" fill="#473636"/>
    <path id="パス_127" data-name="パス 127" d="M74.028,63.042c7.815.884,15.7,1.453,23.534,1.909,4.116.231,8.237.417,12.324.479a2.909,2.909,0,0,1,.7.068c.794.141.783.845.771,1.5a24.9,24.9,0,0,1-.2,3.952c-.208,1.165-1.3.861-2.579.693-3.085-.49-5.788-.968-9-.439a16.345,16.345,0,0,0-10.4,6.306,20.2,20.2,0,0,0-4.189,8.879c-1.081,6.148,2.573,8.321,7.984,9.279.9.158,2.072.31,2.657.411.794.141,1.21.27,1.058,1.115a15.163,15.163,0,0,1-1.56,4.206c-.512.732-.951.766-1.852.6-9.014-1.588-16.243-5.81-14.424-16.147a23.854,23.854,0,0,1,8.513-14.177c.692-.535,1.075-.85,1.126-1.115.084-.479-.315-.715-.687-.777s-2.883-.073-3.417-.113c-3.648-.1-8.547-.191-12.1.107a3.533,3.533,0,0,1-.811-.034c-.743-.129-.805-1.34-.861-1.954a25.231,25.231,0,0,1,.1-3.919c.242-1.374.957-1.087,3.316-.833m32.908,19.131c-.146.794-2.517,1.852-3.1,1.751-.372-.068-.462-.467-.636-.766-.783-1.723-1.683-3.418-2.6-5.05-.13-.186-.394-.563-.349-.828.118-.636,2.466-1.588,3.052-1.481s3.738,5.737,3.631,6.373m6.925-1.785c-.13.743-2.46,1.864-3.1,1.751-.372-.068-.512-.529-.676-.828A44.73,44.73,0,0,0,107.42,76.3a1.309,1.309,0,0,1-.248-.749c.113-.636,2.421-1.65,3.052-1.537.535.09,3.75,5.737,3.637,6.373" transform="translate(573.642 2039.986)" fill="#473636"/>
    <path id="パス_128" data-name="パス 128" d="M81.815,87.774c-1.053-.231-2.489-3.463-2.3-4.358.135-.631,1.03-1.2,1.56-1.588A57.022,57.022,0,0,0,96.341,64.4c.265-.445.507-1.053,1.137-.912a34.207,34.207,0,0,1,3.395,1.847c1.036.557,1.9,1.132,1.762,1.762-.073.366-.608.524-.951.563-.563.1-.687.124-1.109.805a61.438,61.438,0,0,1-6.593,8.744c-.079.1-.135.135-.163.242a.535.535,0,0,0,.36.631c.512.163,1.289.394,1.137,1.075-.084.417-.552.535-.918.681-.659.242-.873.963-1.295,2.911l-4.178,19.131c-.507,2.314-.9,4.6-1.391,6.858-.321,1.475-1.053,1.531-3.1,1.087-2.213-.484-2.742-.822-2.4-2.4.5-2.258,1.081-4.442,1.577-6.706l3.344-15.3c.056-.259.011-.546-.31-.614a.546.546,0,0,0-.467.118c-.811.7-3.26,3.085-4.363,2.843m29.553-11.992c-.124.58.253.878.766,1.047l10.934,2.387c1.948.428,3.874.681,5.816,1.109,1.317.287,1.115.957.676,2.956-.428,1.942-.507,2.59-1.773,2.314-1.942-.428-3.868-.957-5.81-1.379l-7.933-1.74c-1-.22-1.515.113-1.745,1.165l-.726,3.311c-.225,1.047.1,1.565,1.1,1.779l6.734,1.475c1.835.4,3.648.687,5.484,1.087,1.109.242.98.822.546,2.815-.417,1.9-.557,2.528-1.655,2.286-1.734-.383-3.609-.9-5.45-1.3L111.6,93.624c-1-.22-1.515.107-1.745,1.16l-.642,2.945c-.231,1.047.1,1.565,1.1,1.779l6.469,1.413c1.892.417,3.857.738,5.748,1.149,1.109.242.918.861.49,2.8-.411,1.892-.512,2.59-1.616,2.348-1.892-.411-3.8-1-5.7-1.408l-6.463-1.413c-1-.22-1.5.056-1.717,1.058-.569,2.348-.918,4.7-1.424,7.015-.484,2.207-1,2.089-3.316,1.582-2.213-.484-2.894-.631-2.443-2.68.614-2.838,1.4-5.641,2.016-8.485l4.47-20.443c.028-.383-.023-.67-.389-.749a.881.881,0,0,0-.659.242c-1.334,1.306-8.445,7.9-9.92,7.578-.946-.2-2.793-3.085-2.584-4.031.113-.529,1.244-1.16,1.695-1.447a49.579,49.579,0,0,0,15.5-16.992c.27-.5.512-.828.985-.726a36.472,36.472,0,0,1,3.783,2.32c.771.5,1.515.878,1.391,1.458-.09.422-.7.45-1.03.434-.743.113-1.07.6-2.027,1.982-.479.67-1.07,1.588-2,2.815a1.453,1.453,0,0,0-.208.45" transform="translate(614.927 2042.949)" fill="#473636"/>
    <path id="パス_129" data-name="パス 129" d="M109.8,66.743c.259.13.569.321.541.642a1.22,1.22,0,0,1-.5.766c-.749.529-.709.693-1.227,2.86-.186.9-.8,3.5-.861,4.245-.051.591.3.783.771.991a3.861,3.861,0,0,1,1.61,2.624c-.017.214-.253.411-.377.563-.3.349-1.481,2.139-1.678,2.5a4.449,4.449,0,0,0-.186.844c-.023.27.062.546.383.574.163.017.338-.13.456-.225,1.227-1.081,3.541-2.821,4.926-3.778,2.308-1.689,5.163-3.378,8.107-3.119a5.8,5.8,0,0,1,4.4,2.764c.788,1.475.653,3.575.518,5.18-.248,2.787-.6,5.563-1.008,8.282-.31,2.3-.687,4.7-.884,6.948-.113,1.284-.332,3.158.9,3.266,1.453.129,3.958-1.971,5.022-2.961a1.53,1.53,0,0,1,1.064-.5c.912.079,2.111,4.24,2.038,5.1-.068.749-2.173,1.965-2.8,2.342-2.286,1.368-5.152,2.68-7.837,2.438-4.5-.394-4.47-5.63-4.166-9.008.422-4.825,1.554-9.645,1.976-14.464.107-1.177.276-3.057-1.334-3.2-1.5-.135-3.164,1.013-4.369,1.773a54.346,54.346,0,0,0-6.3,4.679c-.76.636-2.911,2.337-3.3,3.164-.281.681-.647,7.24-.754,8.473-.028.321-.062,1.937-.09,2.855-.084,2.207-.186,5.112-.237,5.7-.034.372-.028.918-4,.563-1.284-.113-2.246-.2-2.156-1.267.045-.484.9-6.407,1.109-8.817.028-.27-.045-.709-.422-.743s-.822.738-1.424,1.492c-.681.918-2.6,3.665-3.226,4.634-.186.31-.428.614-.749.58-.912-.079-3.789-2.984-3.71-3.89.045-.484.94-1.486,1.244-1.835,3.271-3.975,6.182-8.152,9.042-12.381a5.139,5.139,0,0,0,.867-2.46c.039-.484.191-.957.231-1.385a.712.712,0,0,0-.631-.867,3.27,3.27,0,0,0-.985.186c-1.165.383-5.664,1.712-6.683,1.621-.856-.079-1.216-.918-1.419-1.638a15.427,15.427,0,0,1-.8-3.744c.068-.861,1.2-.76,1.852-.811,1.627-.068,8.535-.647,9.29-1.875a3.338,3.338,0,0,0,.411-1.588c.129-1.447.631-4.639.839-7,.062-.642.062-1.295.09-1.667.056-.591.338-.726.923-.676s4.988,1.036,5.512,1.244" transform="translate(663.589 2052.297)" fill="#473636"/>
    <path id="パス_130" data-name="パス 130" d="M128.973,71.038c.017.377-.569.726-1.137,1.182a52,52,0,0,0-7.482,7.533,1.646,1.646,0,0,0-.5.94c.017.434.462.681.946.659a3.014,3.014,0,0,0,.693-.135,10.071,10.071,0,0,1,2.19-.31,15.743,15.743,0,0,1,6.683,1.329,11.111,11.111,0,0,1,6.846,10.157c.411,9.515-7.82,14.819-16.474,15.19-4.465.2-10.889-1.363-11.125-6.846a6.76,6.76,0,0,1,6.6-6.8,8.755,8.755,0,0,1,7.314,3.508,5.309,5.309,0,0,1,1.115,3.4c.073.372.248.687.676.67,1.4-.062,6.385-3.13,6.154-8.558-.225-5.219-4.729-7.179-9.4-6.976-4.893.208-8.518,2.246-11.812,5.782-2.016,2.134-3.857,4.42-5.692,6.711a.737.737,0,0,1-.58.4c-1.126.045-4-2.843-4.031-3.7-.028-.642.749-1.272,1.216-1.672a213.649,213.649,0,0,0,16-17.594c.411-.45,1.34-1.458,1.317-2-.023-.484-.512-.619-.94-.6a12.838,12.838,0,0,0-1.284.27c-1.272.377-8.789,2.263-9.65,2.3-1.182.045-1.515-3.981-1.554-4.893-.056-1.233-.006-1.346,1.61-1.413l1.284-.056c3.446-.146,10.455-1.2,13.518-2.573a7.21,7.21,0,0,1,2.016-.676c2.151-.1,5.444,3.857,5.489,4.769m-12.46,27.25a2.233,2.233,0,0,0-2.224,2.246c.084,1.937,2.708,2.742,4.318,2.674,1.025-.045,1.408-1.03,1.374-1.892a3.287,3.287,0,0,0-3.468-3.029" transform="translate(709.632 2055.901)" fill="#473636"/>
    <path id="パス_131" data-name="パス 131" d="M115.848,93.81c-1.329.236-1.644.017-1.937-1.295l-2.753-13.338c-.67-3.159-2.3-10.2-2.494-11.255-.158-.9.118-1.165,1.289-1.374l3.727-.664c1.165-.208,1.526-.051,1.683.845.186,1.064,1.087,8.226,1.6,11.745l2.01,13.141c.175,1.334-.039,1.644-1.368,1.881Zm6.171,6.936a3.965,3.965,0,0,1-3.412,4.814,3.483,3.483,0,0,1-4.273-2.843,4.026,4.026,0,0,1,3.327-4.966,3.6,3.6,0,0,1,4.358,3" transform="translate(749.771 2053.747)" fill="#473636"/>
  </g>
</svg>
