<?xml version="1.0" encoding="UTF-8"?>
<svg xmlns="http://www.w3.org/2000/svg" version="1.1" viewBox="0 0 16.4599991 5.3499999">
  <defs>
    <style>
      .cls-1, .cls-2 {
        fill: #5f5f5f;
      }

      .cls-2 {
        stroke: #5f5f5f;
        stroke-linecap: round;
        stroke-linejoin: round;
        stroke-width: .05px;
      }
    </style>
  </defs>
  <!-- Generator: Adobe Illustrator 28.6.0, SVG Export Plug-In . SVG Version: 1.2.0 Build 709)  -->
  <g>
    <g id="_レイヤー_2">
      <g id="lay">
        <g>
          <g>
            <path class="cls-2" d="M2.29,2.4000001c-.0799999.0799999-.0999999.1199999-.0999999.2v1.9100001c0,.0799999.03.1199999.0999999.1999998h-.39c.08-.0799999.1-.1199999.1-.1999998v-1.98l-.8199999,2.1799998h-.05L.25,2.54v1.9000001c0,.1500001.1.1900001.17.2599998H.03c.08-.0799999.17-.1199999.17-.2600002v-1.8499999c0-.0799999-.03-.1199999-.1-.2h.28l.85,2.0699999.78-2.0699999h.28v.0100005Z"/>
            <path class="cls-2" d="M2.76,4.5100002v-1.25c0-.1099999-.03-.1400001-.0699999-.1400001-.03,0-.0699999.03-.0999999.05v-.03c.0799999-.0799999.2-.1900001.27-.1900001.05,0,.0699999.05.0699999.2v1.3699999c0,.0799999.03.1199999.0999999.1999998h-.3799999c.0799999-.0799999.0999999-.1199999.0999999-.1999998l.01-.0099998ZM2.8099999,2.3800001c.0899999,0,.1500001.05.1500001.1400001s-.0599999.1400001-.1500001.1400001-.1500001-.05-.1500001-.1400001.0599999-.1400001.1500001-.1400001Z"/>
            <path class="cls-2" d="M4.2800002,3.1400001l.04.52h-.04c-.0700002-.3799999-.1799998-.6700001-.3199999-.6700001-.1600001,0-.29.4200001-.3599999.73v.7900002c0,.0799999.03.1199999.0999999.1999998h-.3800001c.0799999-.0799999.0999999-.1199999.0999999-.1999998v-1.25c0-.1099999-.03-.1400001-.0699999-.1400001-.03,0-.0699999.03-.0999999.05v-.03c.0799999-.0799999.2-.1900001.27-.1900001.05,0,.0699999.05.0699999.2v.4200001c.0699999-.3099999.1900001-.6300001.3800001-.6300001.1199999,0,.25.1300001.29.2h.02Z"/>
            <path class="cls-2" d="M5.5300002,3.1400001l.04.52h-.04c-.0700002-.3799999-.1799998-.6700001-.3200002-.6700001-.1599998,0-.29.4200001-.3600001.73v.7900002c0,.0799999.0300002.1199999.0999999.1999998h-.3800001c.0799999-.0799999.0999999-.1199999.0999999-.1999998v-1.25c0-.1099999-.0300002-.1400001-.0700002-.1400001-.0300002,0-.0700002.03-.0999999.05v-.03c.0799999-.0799999.1999998-.1900001.27-.1900001.0599999,0,.0700002.05.0700002.2v.4200001c.0700002-.3099999.1900001-.6300001.3800001-.6300001.1199999,0,.25.1300001.29.2h.0200005Z"/>
            <path class="cls-2" d="M6.71,2.9400001c.54,0,.9200001.3399999.9200001.9000001s-.3800001.9000001-.9200001.9000001-.9200001-.3400002-.9200001-.9000001.3800001-.9000001.9200001-.9000001ZM6.71,4.6900001c.4299998,0,.7399998-.3299999.7399998-.8600001s-.3000002-.8600001-.7399998-.8600001-.7399998.3299999-.7399998.8600001.3000002.8600001.7399998.8600001Z"/>
            <path class="cls-2" d="M8.8199997,3.1400001l.04.52h-.04c-.0699997-.3799999-.1800003-.6700001-.3199997-.6700001-.1599998,0-.29.4200001-.3599997.73v.7900002c0,.0799999.0299997.1199999.1000004.1999998h-.3800001c.0799999-.0799999.0999999-.1199999.0999999-.1999998v-1.25c0-.1099999-.0300002-.1400001-.0700002-.1400001-.0300002,0-.0700002.03-.0999999.05v-.03c.0799999-.0799999.1999998-.1900001.27-.1900001.0500002,0,.0699997.05.0699997.2v.4200001c.0699997-.3099999.1899996-.6300001.3800001-.6300001.1199999,0,.25.1300001.29.2h.0199995Z"/>
            <path class="cls-2" d="M12.3100004,4.3699999c-.1199999.0999999-.3699999.3600001-.9200001.3600001-.6800003,0-1.2200003-.4499998-1.2200003-1.1799998s.5100002-1.1799998,1.1700001-1.1799998c.4899998,0,.8999996.27.8999996.6399999,0,.1700001-.0799999.4400001-.3400002.54h.4200001v.8099999l-.0099993.0099998ZM12.1400003,3.97c0-.3199999-.1499996-.3900001-.4300003-.3900001h-.1499996v-.04h.29c.3299999-.1199999.3599997-.4000001.3599997-.5,0-.4200001-.4399996-.6399999-.8299999-.6399999-.5299997,0-1.0100002.4400001-1.0100002,1.1399999s.5,1.1300001,1.0600004,1.1300001c.29,0,.5299997-.0999999.7200003-.23v-.48l-.0100002.01Z"/>
            <path class="cls-2" d="M13.5699997,3.1400001l.04.52h-.04c-.0699997-.3799999-.1800003-.6700001-.3199997-.6700001-.1599998,0-.29.4200001-.3599997.73v.7900002c0,.0799999.0299997.1199999.1000004.1999998h-.3800001c.0799999-.0799999.1000004-.1199999.1000004-.1999998v-1.25c0-.1099999-.0299997-.1400001-.0699997-.1400001-.0299997,0-.0699997.03-.1000004.05v-.03c.0799999-.0799999.1999998-.1900001.2700005-.1900001.0500002,0,.0699997.05.0699997.2v.4200001c.0699997-.3099999.1899996-.6300001.3800001-.6300001.1199999,0,.25.1300001.29.2h.0199986Z"/>
            <path class="cls-2" d="M14.6599998,4.71v-.3800001c-.0699997.1799998-.1999998.4000001-.4700003.4000001-.3199997,0-.4300003-.2800002-.4300003-.5599999,0-.2.0600004-.6399999.4700003-.6399999.25,0,.3599997.1400001.4300003.27v-.25c0-.1800001,0-.5699999-.25-.5699999-.1899996,0-.3699999.23-.5100002.48h-.04l.1000004-.3900001c.0699997-.04.1899996-.1400001.4099998-.1400001.3100004,0,.46.2.46.54v1.03c0,.0799999.0299997.1199999.1000004.1999998h-.2799997l.0099993.0100002ZM14.6599998,3.8599999c-.0699997-.1400001-.1899996-.3-.3500004-.3-.2700005,0-.3699999.4300001-.3699999.6500001,0,.2200003.1199999.4899998.3100004.4899998s.3500004-.2800002.4099998-.46v-.3799999Z"/>
            <path class="cls-2" d="M16.2800007,3.1600001l-.5600004,1.6699998c-.0699997.2199998-.1400003.5-.3800001.5-.1499996,0-.2600002-.1100001-.2600002-.29,0-.3099999.3400002-.3600001.6199999-.3600001l-.54-1.52c-.0299997-.0799999-.0799999-.1199999-.1499996-.2h.3900003c-.0799999.0799999-.0799999.1199999-.0600004.2l.46,1.27.4199991-1.27c.0300007-.0799999.0200005-.1199999-.0400009-.2h.25c-.0900002.0799999-.1299992.1199999-.1599998.2l.0100021.0000002ZM15.1199999,5.0300002c0,.1700001.1000004.25.21.25.1999998,0,.2700005-.2599998.3400002-.46l.04-.1199999c-.2700005,0-.5900002.0300002-.5900002.3200002v.0099998Z"/>
          </g>
          <g>
            <path class="cls-1" d="M.39.93c.15.03.33.08.5.14.13.05.15.0599999.15.08,0,.02-.02.09-.04.13-.01.03-.02.04-.03.04-.0066667,0-.0599999-.0233333-.16-.0700001-.15-.0700001-.42-.14-.59-.17q-.06,0-.06-.03c0-.02.02-.08.04-.12,0-.02.02-.03.03-.03,0,0,.12.02.17.03h-.01ZM.88.42c-.08-.04-.2-.08-.29-.1-.09-.02-.25-.06-.3-.06-.02,0-.03,0-.03-.02s.02-.1.03-.13c0-.01.01-.02.03-.02h.06c.16.02.34.07.48.11.09.03.1.04.1.06,0,.01-.02.1-.03.14,0,.02-.01.02-.03.02h-.0200001ZM.76.59c.08.03.09.04.09.06,0,.01-.02.1-.03.13,0,.02-.01.02-.02.02h-.02c-.06-.03-.12-.05-.19-.08-.09-.03-.23-.06-.29-.07q-.03,0-.03-.02c0-.02.02-.11.04-.14,0,0,.01-.01.02-.01.05,0,.33.07.44.11h-.0100001Z"/>
            <path class="cls-1" d="M1.38.65h-.01c-.03,0-.05-.05-.0599999-.21.0700001.01.1799999.02.46.02h.41c.02,0,.03,0,.0599999-.01h.03c.02,0,.04.01.0599999.04.04.05.0699999.09.0699999.11s0,.03-.03.05c-.01.01-.02.02-.05.09-.0999999.22-.21.36-.39.47-.08.05-.21.11-.24.11-.02,0-.03,0-.0599999-.04-.04-.05-.0599999-.0599999-.1-.08.17-.05.33-.14.4400001-.24.0799999-.08.1500001-.19.1900001-.32-.5699999,0-.6700001.01-.78.03v-.02ZM1.87.12c.1066666,0,.2166668-.0033333.33-.01h.02s.03.02.03.06v.05h0c0,.06,0,.07-.03.07h-.22c-.22,0-.39,0-.47.01h-.01s-.04-.02-.05-.19c.1.01.1900001.02.41.02l-.01-.01Z"/>
            <path class="cls-1" d="M3.27.61c.27,0,.4300001,0,.5799999-.01h.02s.04,0,.04.12c0,.06,0,.07-.03.07h-1.1099999c-.02,0-.03,0-.03-.02,0-.04-.01-.11-.01-.18.1199999.01.23.02.54.02Z"/>
            <path class="cls-1" d="M4.71.45c-.0999999.14-.2800002.3-.3200002.3-.0100002,0-.02,0-.0500002-.03-.02-.02-.0599999-.05-.1100001-.08.1100001-.06.2199998-.15.3000002-.24.0900002-.11.1399999-.19.1900001-.32.0700002.02.1100001.04.1599998.07.02.01.0300002.02.0300002.03s0,.02-.02.03-.0300002.03-.0700002.08h.2199998c.0799999,0,.0999999,0,.1399999-.02h.02c.02,0,.0500002.02.0900002.08.0300002.04.04.05.04.07s0,.02-.0300002.05c-.0100002.01-.0300002.04-.0500002.07-.1599998.29-.3200002.48-.5599999.65-.0999999.08-.2399998.16-.27.16-.0100002,0-.02,0-.04-.02-.0300002-.03-.0700002-.0599999-.1199999-.09.2199998-.1.3699999-.21.52-.36.1100001-.11.1799998-.21.25-.33.0100002-.03.02-.04.0500002-.09h-.3800001l.0100007-.01ZM5.4200001.28s-.0500002.04-.0599999.04c-.0066662,0-.02-.0133334-.04-.04-.0300002-.04-.0599999-.09-.0900002-.12v-.01c0-.01.0599999-.05.0700002-.05s.0300002.01.0799999.07c.04.05.0700002.09.0700002.1s0,.02-.02.03l-.0100002-.02ZM5.4899998.21c-.04-.06-.0700002-.1-.1100001-.14v-.01s0-.02.0300002-.03c.02-.02.0300002-.02.04-.02.02,0,.0599999.04.1100001.1.02.03.0300002.05.0300002.06s0,.02-.02.03c-.02.02-.0500002.03-.0599999.03l-.0200005-.02Z"/>
            <path class="cls-1" d="M5.8499999.44c0-.1,0-.17-.0100002-.25.0700002,0,.1399999.01.1900001.02.02,0,.0300002.01.0300002.03v.03c0,.0133333-.0066667.2533333-.02.72.2199998-.07.3499999-.14.5100002-.25.0900002-.06.1500001-.12.2199998-.19h0c0,.07,0,.12.02.18v.02c0,.03-.02.05-.0999999.11-.0799999.07-.21.15-.3099999.2-.0799999.04-.1599998.08-.27.11-.0300002.01-.0500002.02-.0700002.04-.0100002.01-.02.02-.04.02-.04,0-.1500001-.1-.1500001-.15V.44Z"/>
            <path class="cls-1" d="M7.6700001.61c.27,0,.4300003,0,.5799999-.01h.0200005s.04,0,.04.12c0,.06,0,.07-.0299997.07h-1.1100001c-.02,0-.0300002,0-.0300002-.02,0-.04-.0100002-.11-.0100002-.18.1199999.01.23.02.54.02Z"/>
          </g>
        </g>
      </g>
    </g>
  </g>
</svg>