<svg xmlns="http://www.w3.org/2000/svg" width="276" height="22.825" viewBox="0 0 276 22.825">
  <path id="パス_155" data-name="パス 155" d="M-137.175,0h5.4c4.1,0,6.8-1.8,6.8-5.325A4.222,4.222,0,0,0-128.85-9.7v-.125a3.925,3.925,0,0,0,2.775-3.975c0-3.075-2.4-4.425-6.075-4.425h-5.025Zm1.5-10.275V-17h3.2c3.225,0,4.9.9,4.9,3.375,0,2.075-1.45,3.35-5.05,3.35Zm0,9.025V-9.075h3.55c3.625,0,5.675,1.2,5.675,3.75,0,2.825-2.15,4.075-5.675,4.075Zm16.8,1.25h1.5V-8.225h3.725L-108.8,0h1.7l-4.925-8.35c2.775-.425,4.55-2.1,4.55-5,0-3.55-2.45-4.875-6.075-4.875h-5.325Zm1.5-9.475v-7.5h3.475c3.15,0,4.9.975,4.9,3.625,0,2.625-1.75,3.875-4.9,3.875Zm22.35,9.8c4.45,0,7.575-3.7,7.575-9.5,0-5.775-3.125-9.375-7.575-9.375-4.4,0-7.55,3.6-7.55,9.375C-102.575-3.375-99.425.325-95.025.325Zm0-1.35c-3.6,0-5.975-3.2-5.975-8.15s2.375-8.025,5.975-8.025C-91.4-17.2-89-14.125-89-9.175S-91.4-1.025-95.025-1.025ZM-79.075,0h1.7l3.125-12.175c.325-1.45.7-2.7,1-4.125h.1c.325,1.425.65,2.675.95,4.125L-68.975,0h1.7l4-18.225h-1.45L-66.95-7.675c-.4,1.975-.775,3.95-1.15,5.95h-.125c-.475-2-.925-3.975-1.4-5.95l-2.8-10.55H-73.9l-2.775,10.55c-.475,1.975-.95,3.95-1.4,5.95h-.1c-.4-2-.8-3.975-1.225-5.95l-2.2-10.55h-1.55Zm21.5,0h1.425V-10.925c0-1.825-.125-3.525-.2-5.275h.125l2.05,3.65L-46.75,0h1.55V-18.225h-1.425v10.8c0,1.775.1,3.6.2,5.4h-.125L-48.575-5.7l-7.45-12.525h-1.55ZM-29.85,0h5.4c4.1,0,6.8-1.8,6.8-5.325A4.222,4.222,0,0,0-21.525-9.7v-.125A3.925,3.925,0,0,0-18.75-13.8c0-3.075-2.4-4.425-6.075-4.425H-29.85Zm1.5-10.275V-17h3.2c3.225,0,4.9.9,4.9,3.375,0,2.075-1.45,3.35-5.05,3.35Zm0,9.025V-9.075h3.55c3.625,0,5.675,1.2,5.675,3.75,0,2.825-2.15,4.075-5.675,4.075ZM-5.4.325c3.275,0,6.25-1.7,6.25-7.45v-11.1H-.575V-7.2c0,4.75-2.25,6.175-4.825,6.175-2.525,0-4.725-1.425-4.725-6.175V-18.225h-1.5v11.1C-11.625-1.375-8.675.325-5.4.325ZM8.325,0H9.75V-10.925c0-1.825-.125-3.525-.2-5.275h.125l2.05,3.65L19.15,0H20.7V-18.225H19.275v10.8c0,1.775.1,3.6.2,5.4H19.35L17.325-5.7,9.875-18.225H8.325ZM28.25,0h1.425V-10.925c0-1.825-.125-3.525-.2-5.275H29.6l2.05,3.65L39.075,0h1.55V-18.225H39.2v10.8c0,1.775.1,3.6.2,5.4h-.125L37.25-5.7,29.8-18.225H28.25Zm22.8,0h1.5V-7.325l5.475-10.9h-1.55L53.8-12.65c-.575,1.325-1.25,2.6-1.95,3.95h-.1c-.675-1.35-1.25-2.625-1.9-3.95l-2.675-5.575h-1.6l5.475,10.9ZM76.3-11.4H70.825v1.1h12.4v-1.1H77.5v-4.575H84v-1.1H77.5v-3.75H76.3v3.75H69.95v1.1H76.3Zm-7.775-9.425H67.4V-9.3h1.125Zm-2.325,4.1A13.516,13.516,0,0,0,63.15-19.3l-.775.7A14.119,14.119,0,0,1,65.4-15.925Zm.425,2.5c-1.975.95-3.9,1.85-5.225,2.4l.45,1.075c1.5-.725,3.275-1.575,5-2.375ZM81.4-5.65A31.905,31.905,0,0,1,76.7-2.9a13.291,13.291,0,0,1-2.85-3.525H83.9V-7.45H73.375V-9.625H72.2V-7.45H61.775v1.025H71.05a26.621,26.621,0,0,1-9.6,4.075,5.452,5.452,0,0,1,.75.95,30.406,30.406,0,0,0,5.175-1.8V.15c-1.15.15-2.2.275-3.075.375l.25,1.1c2.7-.35,6.575-.9,10.275-1.425L74.8-.85c-2.15.275-4.325.575-6.275.85V-3.75A18.861,18.861,0,0,0,72.6-6.425h.075a16.377,16.377,0,0,0,10.8,8.35,4.885,4.885,0,0,1,.775-1,17.23,17.23,0,0,1-6.825-3.2,32.389,32.389,0,0,0,4.925-2.7Zm19.325-1.525V-12H108.3v4.825Zm-8.025,0c.075-.95.1-1.9.1-2.775V-12h6.725v4.825ZM99.525-17.85v4.7H92.8v-4.7Zm8.775,4.7h-7.575v-4.7H108.3ZM109.5-19H91.6v9.05c0,3.525-.275,7.95-3.05,11.075a3.324,3.324,0,0,1,.925.85,14.711,14.711,0,0,0,3.125-8h6.925v7.65h1.2v-7.65H108.3v5.9c0,.5-.175.65-.65.65-.5.025-2.225.05-4.175,0A3.712,3.712,0,0,1,103.9,1.7a20,20,0,0,0,4.575-.2C109.2,1.275,109.5.875,109.5-.125Zm13,1v6.225h-4.4V-18ZM118.1-4.275V-10.65h4.4v6.375Zm5.55-14.85h-6.725V-1.2H118.1V-3.15h5.55ZM126.075-5.55a18.515,18.515,0,0,1,3.325,4.5l1.025-.675a18.179,18.179,0,0,0-3.4-4.4Zm12.75-6.125V-12.8h-6.9v-3.75h5.65v-1.1h-5.65v-3.2H130.75v3.2h-5.5v1.1h5.5v3.75h-6.675v1.125H134.1v3.25h-9.85v1.1h9.85v7.5c0,.35-.1.475-.55.5-.4,0-1.825,0-3.55-.05a4.366,4.366,0,0,1,.425,1.15A20.386,20.386,0,0,0,134.4,1.6c.65-.2.875-.6.875-1.425v-7.5H138.5v-1.1h-3.225v-3.25Z" transform="translate(137.175 20.85)" fill="#504f4f"/>
</svg>