<?xml version="1.0" encoding="UTF-8"?>
<svg xmlns="http://www.w3.org/2000/svg" version="1.1" viewBox="0 0 17.0300007 4.8000002">
  <defs>
    <style>
      .cls-1, .cls-2 {
        fill: #5f5f5f;
      }

      .cls-2 {
        stroke: #5f5f5f;
        stroke-linecap: round;
        stroke-linejoin: round;
        stroke-width: .05px;
      }
    </style>
  </defs>
  <!-- Generator: Adobe Illustrator 28.6.0, SVG Export Plug-In . SVG Version: 1.2.0 Build 709)  -->
  <g>
    <g id="_レイヤー_2">
      <g id="lay">
        <g>
          <g>
            <path class="cls-2" d="M.03,3.5999999C.03,2.8699999.57,2.4200001,1.25,2.4200001c.49,0,.75.28.8199999.3299999l.04.51h-.04c-.1-.3099999-.33-.79-.8399999-.79S.21,2.9100001.21,3.5999999s.5,1.1300001,1.03,1.1300001c.55,0,.8500001-.48.95-.79h.03l-.04.5099998c-.0599999.0500002-.38.3299999-.9200001.3299999-.69-.0099998-1.23-.4599996-1.23-1.1799998Z"/>
            <path class="cls-2" d="M3.4200001,2.98c.54,0,.9200001.3399999.9200001.9000001s-.3800001.9000001-.9200001.9000001-.9200001-.3400002-.9200001-.9000001.3800001-.9000001.9200001-.9000001ZM3.4200001,4.7399998c.4300001,0,.7399998-.3299999.7399998-.8600001s-.3-.8600001-.74-.8600001-.74.3299999-.74.8600001.3.8600001.7400002.8600001Z"/>
            <path class="cls-2" d="M5.5300002,3.1800001l.04.52h-.04c-.0700002-.3799999-.1799998-.6700001-.3200002-.6700001-.1599998,0-.29.4200001-.3600001.73v.7900002c0,.0799999.0300002.1199999.0999999.1999998h-.3800001c.0799999-.0799999.0999999-.1199999.0999999-.1999998v-1.25c0-.1099999-.0300002-.1400001-.0700002-.1400001-.0300002,0-.0700002.03-.0999999.05v-.03c.0799999-.0799999.1999998-.1900001.27-.1900001.0500002,0,.0700002.05.0700002.2v.4200001c.0700002-.3099999.1900001-.6300001.3800001-.6300001.1199999,0,.25.1300001.29.2h.0200005Z"/>
            <path class="cls-2" d="M6.6300001,4.75v-.3800001c-.0700002.1799998-.1999998.4000001-.4699998.4000001-.3200002,0-.4299998-.2800002-.4299998-.5599999,0-.1999998.0599999-.6399999.4699998-.6399999.25,0,.3600001.1400001.4299998.27v-.25c0-.1800001,0-.5699999-.25-.5699999-.1900001,0-.3699999.23-.5100002.48h-.04l.0999999-.3900001c.0700002-.04.1900001-.1400001.4099998-.1400001.3099999,0,.46.2.46.54v1.03c0,.0799999.0300002.1199999.0999999.1999998h-.2800002l.0100007.0100002ZM6.6300001,3.9100001c-.0700002-.1400001-.1900001-.3-.3499999-.3-.27,0-.3699999.4299998-.3699999.6500001s.1199999.4899998.3099999.4899998.3499999-.2800002.4099998-.46v-.3799999Z"/>
            <path class="cls-2" d="M7.2199998,4.5500002v-1.9099998c0-.1099999-.0300002-.1400001-.0700002-.1400001-.0300002,0-.0700002.03-.0999999.05v-.03c.0799999-.0799999.1999998-.1900001.27-.1900001.0599999,0,.0700002.05.0700002.2v2.0300002c0,.0799999.0300002.1199999.0999999.1999998h-.3800001c.0799999-.0799999.0999999-.1199999.0999999-.1999998l.0100002-.0100002Z"/>
            <path class="cls-2" d="M8.9200001,4.5500002v-1.9099998c0-.0799999-.0299997-.1199999-.1000004-.2h.4200001c.5799999,0,.7799997.1800001.7799997.45,0,.3299999-.3199997.4300001-.6499996.47.4499998.05.8599997.1500001.8599997.6699998,0,.4400001-.2299995.7199998-.9899998.7199998h-.4200001c.0799999-.0799999.1000004-.1199999.1000004-.1999998ZM9.1800003,3.3399999c.2700005,0,.6599998-.0999999.6599998-.45,0-.24-.1599998-.4000001-.6700001-.4000001h-.0699997v.8499999s.0799999,0,.0799999.0000002ZM9.1700001,4.71c.6899996,0,.8800001-.3099999.8800001-.6700001,0-.49-.4899998-.6500001-.8699999-.6500001h-.0799999v1.3200002h.0699997Z"/>
            <path class="cls-2" d="M11.4899998,3.1800001l.04.52h-.04c-.0699997-.3799999-.1800003-.6700001-.3199997-.6700001-.1599998,0-.29.4200001-.3599997.73v.7900002c0,.0799999.0299997.1199999.1000004.1999998h-.3800001c.0799999-.0799999.1000004-.1199999.1000004-.1999998v-1.25c0-.1099999-.0299997-.1400001-.0699997-.1400001-.0299997,0-.0699997.03-.1000004.05v-.03c.0799999-.0799999.1999998-.1900001.2700005-.1900001.0600004,0,.0699997.05.0699997.2v.4200001c.0699997-.3099999.1899996-.6300001.3800001-.6300001.1199999,0,.25.1300001.29.2h.0199986Z"/>
            <path class="cls-2" d="M12.6700001,2.98c.54,0,.9200001.3399999.9200001.9000001s-.3800001.9000001-.9200001.9000001-.9200001-.3400002-.9200001-.9000001.3800001-.9000001.9200001-.9000001ZM12.6700001,4.7399998c.4300003,0,.7399998-.3299999.7399998-.8600001s-.3000002-.8600001-.7399998-.8600001-.7399998.3299999-.7399998.8600001.3000002.8600001.7399998.8600001Z"/>
            <path class="cls-2" d="M14.6700001,3l.3500004,1.4299998.29-1.24c.0200005-.0799999,0-.1199999-.0500002-.2h.25c-.0900002.0799999-.1300001.1199999-.1599998.2l-.3800001,1.5699999h-.04l-.3599997-1.3899999-.3299999,1.3899999h-.04l-.4099998-1.5700002c-.0200005-.0799999-.0799999-.1199999-.1499996-.2h.3900003c-.0799999.0799999-.0799999.1199999-.0600004.2l.3000002,1.2399998.3400002-1.4299998h.04l.0199986.0000005Z"/>
            <path class="cls-2" d="M15.8900003,4.5500002v-1.25c0-.1099999-.0299997-.1400001-.0699997-.1400001-.0299997,0-.0699997.03-.1000004.05v-.03c.0799999-.0799999.1999998-.1900001.2700005-.1900001.0600004,0,.0700006.05.0700006.2v.3600001c.0799999-.24.2199993-.5699999.5-.5699999.1800003,0,.3400002.1400001.3400002.48v1.0899999c0,.0799999.0300007.1199999.1000004.1999998h-.3799992c.0799999-.0799999.1000004-.1199999.1000004-.1999998v-.9300001c0-.28-.0200005-.6000001-.2199993-.6000001-.2099991,0-.3700008.3499999-.4500008.5899999v.9300001c0,.0799999.0300007.1199999.1000004.1999998h-.3800001c.0799999-.0799999.1000004-.1199999.1000004-.1999998l.0199966.0100002Z"/>
          </g>
          <g>
            <path class="cls-1" d="M.88.48h-.12C.46.48.22.48.16.5h-.02c-.01,0-.02,0-.02-.02,0-.04-.01-.08-.02-.18.09.01.2.01.41.01h.5699999v.9000001h0s0,.04-.01.04h-.12c-.0333334,0-.05-.0133333-.05-.04v-.0599999h-.08c-.4,0-.58,0-.67.02h-.01q-.02,0-.03-.04c0-.03,0-.08-.01-.16.1,0,.2.01.44.01h.38V.48h-.0399999Z"/>
            <path class="cls-1" d="M1.96.65c.27,0,.4300001,0,.5799999-.01h.02s.04,0,.04.12c0,.06,0,.07-.03.07h-1.1099999c-.02,0-.03,0-.03-.02,0-.04-.01-.11-.01-.18.12.01.23.02.54.02Z"/>
            <path class="cls-1" d="M2.96.7h-.01c-.03,0-.05-.05-.0599999-.21.0699999.01.1800001.02.46.02h.4100001c.02,0,.03,0,.0599999-.01h.03c.02,0,.04.01.0599999.04.04.05.0699999.09.0699999.11,0,.02,0,.03-.03.05-.01.01-.02.02-.05.09-.0999999.22-.21.36-.3899999.47-.0799999.05-.21.11-.24.11-.02,0-.03,0-.0599999-.04-.04-.05-.0599999-.0599999-.0999999-.08.1700001-.05.3299999-.14.4400001-.24.0799999-.08.1500001-.19.1900001-.32-.5699999,0-.6700001.01-.78.03l-.0000005-.0200001ZM3.46.17c.1066668,0,.2166669-.0033333.3299999-.01h.02s.03.02.03.06v.05h0c0,.06,0,.07-.03.07h-.22c-.22,0-.3900001,0-.47.01h-.01s-.04-.02-.05-.19c.0999999.01.1900001.02.4100001.02l-.01-.01Z"/>
            <path class="cls-1" d="M4.5599999.26s.02.01.02.03v.02c0,.03-.0100002.06-.0100002.12,0,.37-.0700002.6-.23.8-.04.04-.0500002.0599999-.0599999.0599999h-.0300002c-.04-.03-.0799999-.04-.1500001-.05.0999999-.1.1399999-.16.1900001-.26.0599999-.14.0900002-.28.0900002-.5,0-.1,0-.14-.0100002-.22.0799999,0,.1500001.01.1900001.02l.0000005-.02ZM4.7199998.41c0-.07,0-.13-.0100002-.2.1599998,0,.2199998.02.2199998.05v.79c.1900001-.11.3200002-.21.4400001-.37,0,.08,0,.14.02.18v.03c0,.02-.0100002.04-.0799999.11-.1100001.1-.1900001.15-.3299999.23-.0300002.02-.0500002.03-.0700002.05-.0100002,0-.02.01-.04.01s-.0700002-.04-.1100001-.0700001c-.0300002-.03-.04-.05-.04-.0700001v-.03c.0100002-.03.0100002-.0599999.0100002-.14V.41h-.0099998Z"/>
            <path class="cls-1" d="M6.02.44c-.27,0-.46.01-.5099998.02h0c-.0300002,0-.04-.05-.04-.2.0700002.01.1700001.02.3899999.02h.4699998c.0300002,0,.04,0,.0599999-.02h.02c.0300002,0,.0599999.02.1100001.08q.0300002.04.0300002.06c0,.01,0,.02-.0100002.03-.0100002.02-.02.02-.0500002.13-.0799999.26-.25.5-.48.6800001-.0900002.0700001-.1700001.12-.1999998.12q-.02,0-.0500002-.04c-.04-.04-.0700002-.0599999-.1100001-.09.2199998-.11.3400002-.2.46-.35.0999999-.13.1700001-.27.1999998-.44-.0799999,0-.1766667,0-.2899995,0ZM6.6700001.28s-.0500002.04-.0599999.04c-.0066662,0-.02-.0133334-.04-.04-.0300002-.04-.0599999-.09-.0900002-.12v-.01c0-.01.0599999-.05.0700002-.05s.0300002.02.0799999.07c.04.05.0700002.09.0700002.1s0,.02-.02.03l-.0100002-.02ZM6.7399998.21c-.04-.06-.0700002-.1-.1100001-.14v-.01s0-.02.0300002-.03c.02-.02.0300002-.02.04-.02.02,0,.0599999.04.1100001.1.02.03.0300002.05.0300002.06,0,0,0,.02-.02.03-.02.02-.0500002.03-.0500002.03,0,0-.0100002,0-.02-.02h-.0100002Z"/>
            <path class="cls-1" d="M6.9899998.7h-.0100002c-.0300002,0-.0500002-.05-.0599999-.21.0700002.01.1799998.02.46.02h.4099998c.02,0,.0300002,0,.0599999-.01h.0300002c.02,0,.04.01.0599999.04.04.05.0699997.09.0699997.11,0,.02,0,.03-.0300002.05-.0100002.01-.02.02-.0500002.09-.0999999.22-.21.36-.3899999.47-.0799999.05-.21.11-.2399998.11-.02,0-.0300002,0-.0599999-.04-.04-.05-.0599999-.0599999-.0999999-.08.1700001-.05.3299999-.14.4400001-.24.0799999-.08.1500001-.19.1900001-.32-.5700002,0-.6700001.01-.7799997.03v-.0200001ZM7.48.17c.1066666,0,.2166667-.0033333.3299999-.01h.02s.0300002.02.0300002.06v.05h0c0,.06,0,.07-.0300002.07h-.2200003c-.2199998,0-.3899999,0-.4699998.01h-.0100002s-.04-.02-.0500002-.19c.0999999.01.1900001.02.4099998.02l-.0099993-.01Z"/>
            <path class="cls-1" d="M8.7600002.3c0-.08,0-.13-.0100002-.19.1099997,0,.1700001,0,.1999998.02.0100002,0,.0200005.01.0200005.02v.03c-.0100002.02-.0200005.05-.0200005.12v.05h.1899996s.0799999,0,.1099997-.02h.04c.0299997,0,.0699997.03.1199999.09.0299997.03.0299997.04.0299997.06,0,.01,0,.02-.0100002.04-.0100002.03-.0200005.04-.04.12-.0299997.14-.0600004.21-.1199999.31-.1000004.17-.2399998.3-.4200001.39-.04.02-.0699997.03-.0799999.03s-.0200005,0-.0299997-.02c-.0299997-.03-.0600004-.0599999-.1199999-.1.1199999-.05.1800003-.08.25-.13.1499996-.1.2399998-.23.3000002-.4.0299997-.08.04-.13.04-.2h-.71v.24h0s0,.03-.0200005.03h-.1000004c-.0600004,0-.0699997,0-.0699997-.03v-.41h.4300003v-.04l.0200014-.0100001Z"/>
            <path class="cls-1" d="M10.8199997.53l.0100002.03c0,.02,0,.03-.0299997.05-.0799999.11-.1700001.19-.3000002.3-.1499996.12-.2799997.1899999-.46.28-.1199999.05-.1199999.0599999-.1400003.0700001-.0100002.01-.0200005.02-.0299997.02-.0100002,0-.0299997-.01-.0500002-.04-.0299997-.05-.0600004-.11-.0699997-.16.1499996-.03.3299999-.12.5100002-.23.2299995-.15.3800001-.29.4899998-.49.0200005.06.0299997.09.0699997.16v.01ZM9.8199997.28s.04-.04.0500002-.04c.0299997,0,.1400003.07.2299995.15.0600004.05.0799999.07.0799999.08,0,.01-.0299997.05-.0600004.09-.0299997.04-.0500002.05-.0600004.05-.0066662,0-.0299997-.02-.0699997-.06-.0599995-.06-.1199999-.1-.1599998-.12-.0333338-.02-.0533333-.0333333-.0600004-.04-.0100002-.01,0,0,0-.01s.0299997-.06.0699997-.1h-.0199986Z"/>
          </g>
        </g>
      </g>
    </g>
  </g>
</svg>