<svg id="ml_CL_title_brown-chou" xmlns="http://www.w3.org/2000/svg" xmlns:xlink="http://www.w3.org/1999/xlink" width="260.058" height="140" viewBox="0 0 260.058 140">
  <defs>
    <clipPath id="clip-path">
      <rect id="長方形_248" data-name="長方形 248" width="260.058" height="140" fill="none"/>
    </clipPath>
  </defs>
  <g id="グループ_401" data-name="グループ 401" transform="translate(0 0)" clip-path="url(#clip-path)">
    <path id="パス_1423" data-name="パス 1423" d="M.653,79.809A2.016,2.016,0,0,1,0,78.267V17.193a2.021,2.021,0,0,1,.653-1.542,2.256,2.256,0,0,1,1.59-.6H9.99A8.778,8.778,0,0,1,19.049,24.1V39.98a9.179,9.179,0,0,1-.934,4.25A4.527,4.527,0,0,1,15.5,46.61,4.564,4.564,0,0,1,18.115,48.9a8.614,8.614,0,0,1,.934,4.157v18.3A8.778,8.778,0,0,1,9.99,80.414H2.243a2.256,2.256,0,0,1-1.59-.6M12.374,43.34a1.458,1.458,0,0,0,.515-1.12v-18.3a2.874,2.874,0,0,0-2.9-2.9H6.163V43.807h5.043a1.68,1.68,0,0,0,1.168-.467M12.048,73.6a2.8,2.8,0,0,0,.842-2.054V51.186a1.462,1.462,0,0,0-.515-1.12,1.68,1.68,0,0,0-1.168-.467H6.163V74.44H9.99a2.8,2.8,0,0,0,2.058-.842" transform="translate(0 33.1)" fill="#5a4646"/>
    <path id="パス_1424" data-name="パス 1424" d="M8.163,67.032V22.393a1.9,1.9,0,0,1,2.147-2.147h1.5a2.012,2.012,0,0,1,2.24,2.054l.093,4.016h.093q3.178-6.163,9.433-6.163h.093a1.239,1.239,0,0,1,1.4,1.4v3.734a1.167,1.167,0,0,1-.419.979,1.355,1.355,0,0,1-1.075.234q-4.483-.37-6.912,2.058a8.822,8.822,0,0,0-2.429,6.534V67.032a1.9,1.9,0,0,1-2.147,2.147H10.31a1.9,1.9,0,0,1-2.147-2.147" transform="translate(17.958 44.335)" fill="#5a4646"/>
    <path id="パス_1425" data-name="パス 1425" d="M17.921,67.255a8.859,8.859,0,0,1-2.614-6.537V29.153a8.71,8.71,0,0,1,2.614-6.489,8.842,8.842,0,0,1,6.445-2.57H25.2a8.917,8.917,0,0,1,6.585,2.57,8.8,8.8,0,0,1,2.57,6.489V60.717a8.948,8.948,0,0,1-2.57,6.537A8.83,8.83,0,0,1,25.2,69.872h-.838a8.758,8.758,0,0,1-6.445-2.618m9.341-4.294a2.8,2.8,0,0,0,.842-2.054V29.06a2.951,2.951,0,0,0-.842-2.1,2.733,2.733,0,0,0-2.058-.89H24.27a2.582,2.582,0,0,0-2.006.89,3.033,3.033,0,0,0-.794,2.1V60.906a2.871,2.871,0,0,0,.794,2.054,2.65,2.65,0,0,0,2.006.842H25.2a2.808,2.808,0,0,0,2.058-.842" transform="translate(33.674 44.205)" fill="#5a4646"/>
    <path id="パス_1426" data-name="パス 1426" d="M29.281,67.127,23.211,22.4l-.1-.56a1.511,1.511,0,0,1,.563-1.216,2.258,2.258,0,0,1,1.494-.467h1.866a1.958,1.958,0,0,1,2.243,2.054l4.294,37.356h.093l6.166-37.446a2.087,2.087,0,0,1,2.333-1.965h1.12a2.087,2.087,0,0,1,2.333,1.965l6.073,37.446h.186l4.2-37.356a2.12,2.12,0,0,1,2.333-2.054h1.866a2.066,2.066,0,0,1,1.59.608,1.8,1.8,0,0,1,.374,1.635L56.173,67.127a2.07,2.07,0,0,1-2.24,2.054H50.2a2.083,2.083,0,0,1-2.333-1.962L42.727,35.563,37.5,67.22a2.089,2.089,0,0,1-2.336,1.962H31.521a2.074,2.074,0,0,1-2.24-2.054" transform="translate(50.851 44.333)" fill="#5a4646"/>
    <path id="パス_1427" data-name="パス 1427" d="M37.334,67.1V22.642a1.9,1.9,0,0,1,2.15-2.147h1.494a2.109,2.109,0,0,1,2.333,1.776l.189.467a6.394,6.394,0,0,1,2.659-2.01,7.848,7.848,0,0,1,2.848-.6h.378a7.031,7.031,0,0,1,4.992,2.1q2.194,2.1,2.2,6.585V67.1a1.9,1.9,0,0,1-2.15,2.147H52.649q-2.242,0-2.24-2.147V29.743A5.462,5.462,0,0,0,49.8,26.9a2.468,2.468,0,0,0-2.285-.982h-.282q-3.739,0-3.734,3.83V67.1q0,2.15-2.24,2.147H39.484a1.9,1.9,0,0,1-2.15-2.147" transform="translate(82.132 44.271)" fill="#5a4646"/>
    <path id="パス_1428" data-name="パス 1428" d="M53.386,78.588a8.832,8.832,0,0,1-2.57-6.445V23.959a8.837,8.837,0,0,1,2.57-6.445A8.71,8.71,0,0,1,59.875,14.9h.842a8.759,8.759,0,0,1,6.537,2.566,8.894,8.894,0,0,1,2.522,6.493v17.18a1.959,1.959,0,0,1-2.15,2.15H65.76a2.085,2.085,0,0,1-2.15-2.15V23.863a2.953,2.953,0,0,0-.838-2.1,2.721,2.721,0,0,0-2.054-.89h-.934a2.721,2.721,0,0,0-2.054.89,2.953,2.953,0,0,0-.838,2.1V72.239a2.942,2.942,0,0,0,.838,2.1,2.721,2.721,0,0,0,2.054.89h.934a2.721,2.721,0,0,0,2.054-.89,2.942,2.942,0,0,0,.838-2.1V54.774a2.049,2.049,0,0,1,.611-1.587,2.17,2.17,0,0,1,1.539-.56h1.866a1.954,1.954,0,0,1,2.15,2.147V72.144a8.889,8.889,0,0,1-2.522,6.493A8.759,8.759,0,0,1,60.717,81.2h-.842a8.71,8.71,0,0,1-6.489-2.614" transform="translate(111.791 32.779)" fill="#5a4646"/>
    <path id="パス_1429" data-name="パス 1429" d="M59.12,78.267V17.193a1.9,1.9,0,0,1,2.147-2.147h1.776q2.237,0,2.24,2.147V33.91a6.383,6.383,0,0,1,2.662-2.01,7.833,7.833,0,0,1,2.845-.6h.378a7.038,7.038,0,0,1,5,2.1q2.194,2.1,2.2,6.585V78.267a1.9,1.9,0,0,1-2.147,2.147H74.435q-2.242,0-2.24-2.147V40.914a5.462,5.462,0,0,0-.608-2.848,2.47,2.47,0,0,0-2.288-.982h-.278q-3.739,0-3.738,3.83V78.267q0,2.15-2.24,2.147H61.267a1.9,1.9,0,0,1-2.147-2.147" transform="translate(130.06 33.1)" fill="#5a4646"/>
    <path id="パス_1430" data-name="パス 1430" d="M69.87,67.255a8.859,8.859,0,0,1-2.614-6.537V29.153a8.71,8.71,0,0,1,2.614-6.489,8.842,8.842,0,0,1,6.445-2.57h.838a8.917,8.917,0,0,1,6.585,2.57,8.8,8.8,0,0,1,2.57,6.489V60.717a8.948,8.948,0,0,1-2.57,6.537,8.83,8.83,0,0,1-6.585,2.618h-.838a8.758,8.758,0,0,1-6.445-2.618m9.341-4.294a2.8,2.8,0,0,0,.842-2.054V29.06a2.951,2.951,0,0,0-.842-2.1,2.733,2.733,0,0,0-2.058-.89h-.934a2.582,2.582,0,0,0-2.006.89,3.033,3.033,0,0,0-.794,2.1V60.906a2.871,2.871,0,0,0,.794,2.054,2.65,2.65,0,0,0,2.006.842h.934a2.808,2.808,0,0,0,2.058-.842" transform="translate(147.958 44.205)" fill="#5a4646"/>
    <path id="パス_1431" data-name="パス 1431" d="M77.945,67.268a8.785,8.785,0,0,1-2.57-6.489V22.3a1.9,1.9,0,0,1,2.147-2.15H79.3a1.9,1.9,0,0,1,2.147,2.15V60.964a2.868,2.868,0,0,0,2.9,2.9h.842a2.874,2.874,0,0,0,2.893-2.9V22.3a1.9,1.9,0,0,1,2.147-2.15h1.869a1.9,1.9,0,0,1,2.147,2.15V60.778a8.884,8.884,0,0,1-2.518,6.489,8.764,8.764,0,0,1-6.537,2.566h-.749a8.79,8.79,0,0,1-6.489-2.566" transform="translate(165.819 44.333)" fill="#5a4646"/>
    <path id="パス_1432" data-name="パス 1432" d="M32.207,41.977c.506,0,1.334-.038,1.587-.038.378,0,.63.326.867.56.16.163.63.666.63.845,0,.163-.147.346-.272,1.05a10.9,10.9,0,0,1-4.774,7.744A16.319,16.319,0,0,1,26.783,54a2.331,2.331,0,0,1-.6.157c-.416,0-1.062-1.206-1.062-1.51,0-.2.163-.253.326-.288a12.728,12.728,0,0,0,4.486-2.381,8.508,8.508,0,0,0,2.938-5.245c.016-.125.054-.339.054-.451,0-.342-.307-.378-.634-.378H25.881c-.755,0-1.494.035-2.253.035-.541,0-.541-.16-.541-.954,0-.848-.019-1.046.509-1.046.774,0,1.549.038,2.323.038Zm4.505-.253c0,.253-.63.826-.864.826-.109,0-.163-.086-.237-.157a14,14,0,0,0-1.347-1.446c-.058-.07-.144-.144-.144-.234,0-.2.666-.755.861-.755a6.937,6.937,0,0,1,1.731,1.766m1.622-1.389c0,.253-.63.829-.848.829-.09,0-.179-.106-.234-.163a17.652,17.652,0,0,0-1.35-1.459c-.054-.054-.147-.125-.147-.214,0-.218.669-.758.867-.758a6.669,6.669,0,0,1,1.712,1.766" transform="translate(50.79 84.849)" fill="#5a4646"/>
    <path id="パス_1433" data-name="パス 1433" d="M37.992,43.165c.413,0,1.245,0,1.622-.038a2.218,2.218,0,0,1,.323-.035,2.158,2.158,0,0,1,1.28,1.187,4.427,4.427,0,0,1-.237.742,12.192,12.192,0,0,1-1.043,2.432,15.076,15.076,0,0,1-3.731,4.256c-.506.413-2.451,1.8-3.011,1.8-.413,0-1.245-1.024-1.245-1.334,0-.214.454-.378.634-.464a12.99,12.99,0,0,0,5.533-5.12,4.669,4.669,0,0,0,.486-1.171c0-.435-.486-.4-.774-.4H31.122c-.755,0-1.51.035-2.285.035-.509,0-.509-.179-.509-.883,0-.918.019-1.046.522-1.046.762,0,1.536.038,2.31.038Zm-1.21-3.894c.739,0,1.661-.054,2.128-.054.451,0,.486.2.486,1.1,0,.614,0,.848-.486.848-.723,0-1.424-.035-2.128-.035H32.366c-.7,0-1.4.035-2.109.035-.5,0-.5-.218-.5-.883,0-.845.032-1.062.483-1.062.506,0,1.424.054,2.128.054Z" transform="translate(62.32 86.272)" fill="#5a4646"/>
    <path id="パス_1434" data-name="パス 1434" d="M38.279,42.234a.49.49,0,0,0,.5-.506v-.739c0-.416-.019-1.28-.07-1.658a.911.911,0,0,1-.019-.218c0-.16.144-.179.272-.179.179,0,1.354.09,1.53.09.128,0,.669.019.669.218,0,.09-.144.2-.214.269-.218.182-.2.4-.2,1.443v.774a.494.494,0,0,0,.509.506h2.611a6.042,6.042,0,0,0,.867-.038,2.666,2.666,0,0,1,.358-.016,1.133,1.133,0,0,1,.666.381c.323.3.525.448.525.7a2.084,2.084,0,0,1-.109.47c-.074.234-.125.467-.182.7a12.158,12.158,0,0,1-4.144,7.734c-.541.448-2.794,2.179-3.4,2.179-.416,0-1.19-1.1-1.19-1.386,0-.182.16-.237.323-.307a10.919,10.919,0,0,0,5.536-5.283,10.305,10.305,0,0,0,.79-2.864c0-.435-.358-.47-.7-.47H36.209a.507.507,0,0,0-.509.506v1.8c0,.47.038,1.062.038,1.37,0,.506-.163.506-1.1.506-.774,0-.9-.038-.9-.467,0-.451.019-.9.019-1.354V43.911c0-.323-.019-.63-.019-.941,0-.522.038-.755.883-.755.653,0,1.318.019,1.984.019Z" transform="translate(74.215 85.654)" fill="#5a4646"/>
    <path id="パス_1435" data-name="パス 1435" d="M51.915,43.786c0,.3-.72,1.008-.957,1.242a31.213,31.213,0,0,1-9.782,6.793c-.6.291-.614.307-.758.614a.182.182,0,0,1-.179.109c-.2,0-.579-.723-.7-.938a5.024,5.024,0,0,1-.541-1.082c0-.2.326-.234.56-.307A24.658,24.658,0,0,0,50.6,42.378a.448.448,0,0,1,.307-.2c.362,0,1.008,1.331,1.008,1.6m-9.3-2.976c.234.163,1.1.758,1.1,1.027,0,.416-.848,1.389-1.19,1.389a1.9,1.9,0,0,1-.72-.486,22.775,22.775,0,0,0-2.4-1.677c-.144-.09-.291-.182-.291-.339,0-.272.723-1.427,1.139-1.427a14.353,14.353,0,0,1,2.358,1.514" transform="translate(85.784 86.448)" fill="#5a4646"/>
    <path id="パス_1436" data-name="パス 1436" d="M45.252,43.082a15.829,15.829,0,0,1,2.237,1.242c.486.291,1.4.794,1.4,1.082,0,.323-.717,1.389-1.078,1.389a1.018,1.018,0,0,1-.416-.2,31.756,31.756,0,0,0-2.864-1.821c-.125-.07-.31-.144-.31-.3,0-.291.688-1.389,1.03-1.389m.592,7.731a21.184,21.184,0,0,0,2.147-.723,12.1,12.1,0,0,0,4.486-2.829,15.221,15.221,0,0,0,3.085-5.44c.074-.182.144-.435.374-.435.272,0,1.354.992,1.354,1.354a4,4,0,0,1-.234.7c-.035.125-.09.218-.106.288a16.029,16.029,0,0,1-3.334,5.1,17.429,17.429,0,0,1-6.169,3.642.983.983,0,0,0-.682.522.233.233,0,0,1-.179.109c-.2,0-.342-.4-.454-.611-.2-.432-.4-.867-.6-1.3a.476.476,0,0,1-.032-.163c0-.141.23-.179.339-.214m3.462-10.525c.378.269,1.027.72,1.354.992a.422.422,0,0,1,.2.3c0,.326-.755,1.334-1.082,1.334a.92.92,0,0,1-.448-.234,28.1,28.1,0,0,0-2.65-1.914c-.125-.07-.307-.176-.307-.339,0-.253.774-1.245,1.1-1.245a7.524,7.524,0,0,1,1.571.918c.125.074.214.144.269.182" transform="translate(97.285 86.211)" fill="#5a4646"/>
    <path id="パス_1437" data-name="パス 1437" d="M56.682,40.611c.218,0,.435,0,.614-.019.074,0,.179-.019.253-.019.413,0,1.046.506,1.046.922,0,.144-.058.237-.093.506-.051.342-.109.739-.125.826L58,46.144a.386.386,0,0,0,.381.432h.486c.6,0,1.19-.035,1.8-.035.47,0,.451.307.451.9,0,.5,0,.813-.5.813-.579,0-1.174-.038-1.75-.038H51.495c-.611,0-1.3.038-1.731.038-.486,0-.47-.416-.47-.778,0-.614.038-.938.451-.938.307,0,1.264.035,1.75.035H55.8a.5.5,0,0,0,.5-.432l.342-3.155c0-.051.054-.32.054-.358,0-.288-.25-.378-.486-.378H53.709c-.611,0-1.315.032-1.763.032-.416,0-.416-.3-.416-.88,0-.467-.035-.813.4-.813.3,0,1.062.019,1.782.019Z" transform="translate(108.441 89.258)" fill="#5a4646"/>
    <path id="パス_1438" data-name="パス 1438" d="M65.077,40.949c.829,0,2-.054,2.234-.054.486,0,.5.144.5,1.136,0,.579-.016.918-.486.918-.755,0-1.514-.035-2.25-.035H56.786c-.739,0-1.5.035-2.253.035-.467,0-.486-.339-.486-.9,0-1.011.035-1.155.506-1.155.23,0,1.475.054,2.234.054Z" transform="translate(118.899 89.966)" fill="#5a4646"/>
    <path id="パス_1439" data-name="パス 1439" d="M28.279,11.419a3.756,3.756,0,0,1,1.76,1.661C30.733,14.4,30,15.3,28.82,15.915a8.286,8.286,0,0,1-2.445.848c-.2-.061-.742-.992-.864-1.219-.08-.16-.083-.32.093-.413a2.042,2.042,0,0,1,.448-.112,6.034,6.034,0,0,0,1.533-.493c.416-.218.643-.518.4-.982-.317-.608-1.53-1.254-1.9-1.062a4.867,4.867,0,0,0-.819,1.117c-.765,1.254-1.5,2.493-2.189,3.786-.25.458-.234.451-.23.73-.013.131-.026.3-.138.358-.192.1-.666-.221-.934-.387a4.449,4.449,0,0,1-1.027-.765c-.109-.208.154-.445.294-.6.832-.979,2.224-3.213,3.043-4.413.118-.163.269-.342.15-.566-.061-.112-.179-.15-.467-.307a1.815,1.815,0,0,1-.8-.8c-.214-.416-.7-2.051-.208-2.31.224-.115,1.536-.291,1.651-.067a1.046,1.046,0,0,1,.022.352,2.314,2.314,0,0,0,.173,1.152,1.362,1.362,0,0,0,1.331.483.835.835,0,0,0,.182-.115,5.438,5.438,0,0,1,.8-.5c3.814-1.99,7.773.64,7.92.928.144.269-.666,1.485-1.018,1.67-.189.1-.394-.058-.541-.186A6.217,6.217,0,0,0,29.6,10.607a4.3,4.3,0,0,0-1.334.288c-.109.058-.269.221-.2.365.042.08.138.112.2.16M23.7,4.9a14.143,14.143,0,0,1,1.677.1.312.312,0,0,1,.246.157c.125.24.061,1.677-.2,1.811a.486.486,0,0,1-.336.013,12.721,12.721,0,0,0-3.046-.221c-.2,0-.422.038-.518-.134-.134-.259-.166-1.459.15-1.626A10.523,10.523,0,0,1,23.7,4.9" transform="translate(45.591 10.779)" fill="#5a4646"/>
    <path id="パス_1440" data-name="パス 1440" d="M27.334,10.932a55.488,55.488,0,0,1,1.632-7.209c.125-.5.23-.928.32-1.411.026-.1.058-.3.176-.342a4.7,4.7,0,0,1,1.171.342c.211.067.966.294,1.027.483s-.074.307-.221.374a.788.788,0,0,0-.374.368,17.316,17.316,0,0,0-.624,1.754A23.572,23.572,0,0,0,29.59,8.6a.2.2,0,0,0,.227.115.7.7,0,0,0,.269-.221,4.068,4.068,0,0,1,1.632-1.168,2.133,2.133,0,0,1,2.144.422A3,3,0,0,1,34.4,8.766a9.481,9.481,0,0,1,.317,1.738,9.787,9.787,0,0,0,.266,1.766c.093.294.31.621.656.509.963-.31,1.92-2.912,2.208-3.837.054-.131.128-.307.266-.349.31-.1,1.328,1.066,1.408,1.306a.7.7,0,0,1-.067.438c-.269.522-.534,1.043-.826,1.555A5.8,5.8,0,0,1,35.762,14.8c-1.219.394-2.054-.493-2.4-1.574a11.373,11.373,0,0,1-.419-2.061,8.037,8.037,0,0,0-.259-1.45c-.144-.448-.41-.739-.906-.579a3.312,3.312,0,0,0-1.318.957,5.356,5.356,0,0,0-1.248,2.125,12.493,12.493,0,0,0-.416,4.109c.019.24.083.56-.2.656s-1.808.032-1.9-.259c-.006-.016.054-.813.061-.854.173-1.645.342-3.29.586-4.941" transform="translate(58.709 4.322)" fill="#5a4646"/>
    <path id="パス_1441" data-name="パス 1441" d="M37.016.546c.112.019.23.074.246.182a.332.332,0,0,1-.09.25c-.182.246-.221.234-.176.992,0,.256.038,1.091.074,1.3s.106.221.3.227c.112.019.806.624.845.854.022.144-.118.294-.2.413a4.182,4.182,0,0,0-.659,1.507c.026.176.061.282.147.269s.166-.134.211-.2a6.986,6.986,0,0,1,4.2-2.81,4.279,4.279,0,0,1,4.822,3.747c.41,2.688-1.341,4.707-3.51,6.006a5.51,5.51,0,0,1-1.4.653c-.493.074-1.149-.957-1.2-1.331-.051-.3.157-.39.4-.48,1.872-.742,4.1-2.141,3.744-4.473A2.484,2.484,0,0,0,42.04,5.393c-1.51.23-3.37,1.92-4.138,3.219a1.03,1.03,0,0,0-.106.746c.163,1.053.346,2.1.554,3.126.093.5.461,2.173.486,2.368s-.112.326-1.286.506c-.518.08-.752.1-.806-.259-.022-.141-.058-.483-.067-.573-.067-.554-.15-1.325-.163-1.414-.07-.573-.16-1.162-.246-1.731-.019-.125-.077-.278-.224-.256s-.234.234-.31.339c-.275.461-.867,1.5-1.069,1.949-.038.115-.106.272-.23.291a2.755,2.755,0,0,1-1.546-1.168c-.032-.2.234-.509.352-.675a17.042,17.042,0,0,0,2.4-4.432,1.4,1.4,0,0,0,0-.71l-.032-.234c-.029-.176-.128-.362-.346-.33a1.514,1.514,0,0,0-.294.1,18.7,18.7,0,0,1-1.824.717c-.246.038-.371-.179-.47-.365a7.439,7.439,0,0,1-.5-1.312c-.035-.266.131-.33.365-.362l.25-.042a10.126,10.126,0,0,0,1.93-.477.679.679,0,0,0,.509-.387,1.685,1.685,0,0,0-.022-.746c-.1-.6-.15-1.216-.243-1.821-.038-.25-.086-.445-.106-.566-.029-.2.051-.266.227-.291C35.346.565,36.8.526,37.016.546" transform="translate(70.786 1.189)" fill="#5a4646"/>
    <path id="パス_1442" data-name="パス 1442" d="M41.976,1.648c0,.106-.128.2-.214.237a.807.807,0,0,0-.336.365,7.185,7.185,0,0,0-.506,1.52,9.555,9.555,0,0,0-.2,2.022c0,.144-.006.918.2.918.141,0,.246-.294.317-.474.086-.2.4-.979.618-.982.16,0,.7.314.71.547,0,.054-.262.688-.419,1.126l-.157.432a7.089,7.089,0,0,0-.56,2.243c0,.253.038.451.042.576.006.506-.947.736-1.286.739-.4.006-.528-.317-.64-.656a15.047,15.047,0,0,1-.653-4.192,17.046,17.046,0,0,1,.362-3.7c.1-.451.221-.886.288-1.338.019-.128.067-.451.227-.454.058,0,.854.31.979.365.4.176,1.235.506,1.238.7M47.647,0c.342,0,.381.211.458.48a23.661,23.661,0,0,1,.63,5.184c.045,3.117-.442,5.773-2.682,8.112-.285.291-1.011,1.024-1.427,1.027-.288,0-1.344-.864-1.35-1.242,0-.144.16-.256.266-.31a6.891,6.891,0,0,0,2.413-2.845,10.64,10.64,0,0,0,.765-4.553,17.454,17.454,0,0,0-.7-5.017A1.016,1.016,0,0,1,45.979.6c0-.394,1.469-.6,1.667-.6" transform="translate(85.534 0)" fill="#5a4646"/>
    <path id="パス_1443" data-name="パス 1443" d="M46.439,11.416c.058-.378.09-.736.144-1.11.1-.675.355-.8,1.014-.707.448.067.893.15,1.318.211l6.953,1.021c.429.064.861.109,1.286.173.6.09.912.24.813.918-.058.394-.128.765-.189,1.158l-.2,1.318c-.042.3.042.48.378.547.442.083.9.093,1.344.16.426.064.378.275.282.918-.1.694-.1.819-.672.739-.32-.048-.813-.157-1.616-.275L45.9,14.814c-.6-.09-1.2-.138-1.789-.224-.41-.061-.381-.275-.288-.883.1-.659.125-.854.554-.79.445.064.9.17,1.347.234.339.048.474-.115.518-.416ZM59.315,2.5c-.019.128.064.176.154.189.534.077,1.075.122,1.61.2.429.064.387.221.294.845-.083.589-.1.787-.525.726-.714-.106-1.4-.262-2.112-.365l-2.694-.4c-.23-.035-.426.048-.461.3l-.019.125a9.507,9.507,0,0,0,.192,1.411c.038.115.08.214.224.234a.326.326,0,0,0,.246-.074A10.435,10.435,0,0,0,57.4,4.517c.086-.1.157-.2.3-.176.2.029.643.461.787.589.387.349.707.634.685.813-.029.2-.3.157-.442.154a2.691,2.691,0,0,0-.8.576c-.272.25-.627.56-1.059.9a.481.481,0,0,0-.122.694c.3.426.922,1.171,1.456,1.251.586.086.806-.522,1.082-1.283.093-.259.15-.4.451-.349.429.061,1.165.515,1.1.944a5.12,5.12,0,0,1-.877,1.763,1.756,1.756,0,0,1-1.779.688,4.7,4.7,0,0,1-2.867-2.061.515.515,0,0,0-.33-.23.564.564,0,0,0-.339.077,6.774,6.774,0,0,1-2.269.944c-.518-.077-.992-.947-.957-1.178.035-.253.358-.333.55-.4a16.727,16.727,0,0,0,1.917-.918.515.515,0,0,0,.3-.394.557.557,0,0,0-.032-.294,12.824,12.824,0,0,1-.429-2.8c-.019-.349-.147-.461-.5-.547L49.213,2.7c-.288-.042-.429.064-.474.368L48.7,3.33a.354.354,0,0,0,.349.47l2.48.365a.686.686,0,0,1,.65.771A10.581,10.581,0,0,1,51.13,8.5c-.525.6-1.763.467-2.477.365-.5-.074-.653-.15-.714-.47a2.515,2.515,0,0,1-.029-.915c.029-.2.074-.387.307-.355.285.042.6.16.88.2.659.1.938.064,1.187-1.645.045-.288-.1-.291-.368-.33l-1.072-.157a.472.472,0,0,0-.614.365,10.434,10.434,0,0,1-1.706,3.4c-.352.438-.6.73-.864.691-.41-.061-1.2-.758-1.146-1.117.013-.106.1-.166.16-.25a9.059,9.059,0,0,0,2.182-4.925l.09-.624c.07-.464.08-.771.125-1.094.1-.675.525-.723,1.1-.64.554.083,1.082.2,1.635.278l3.478.509c.317.048.483-.074.534-.413.016-.109.032-.851.045-.941.035-.25.182-.246.432-.208.285.038,1.059.227,1.392.31.246.054.6.09.57.339-.022.163-.2.208-.349.259-.192.08-.211.224-.259.528a.45.45,0,0,0,.451.538l1.856.272a.123.123,0,0,0,.157-.086c.01-.07-.022-.093-.054-.134-.131-.093-.266-.166-.384-.237-.451-.285-.752-.458-.726-.637.022-.16.5-.765.765-.726.2.029,1.894,1.1,1.85,1.421a.751.751,0,0,1-.2.336.2.2,0,0,0-.051.1m-9.629,9.517a.518.518,0,0,0-.429-.573l-.464-.067a.5.5,0,0,0-.57.426L48.049,13a.5.5,0,0,0,.426.57l.461.07a.515.515,0,0,0,.573-.426Zm1.446,1.434a.514.514,0,0,0,.426.573l.48.07a.505.505,0,0,0,.573-.426l.173-1.194a.5.5,0,0,0-.422-.576l-.483-.067a.511.511,0,0,0-.57.426Zm4.115,1.114a.5.5,0,0,0,.573-.426l.173-1.194a.5.5,0,0,0-.422-.573l-.534-.08a.515.515,0,0,0-.573.426l-.176,1.2a.516.516,0,0,0,.426.573Z" transform="translate(96.291 0.44)" fill="#5a4646"/>
    <path id="パス_1444" data-name="パス 1444" d="M59.361,2.394c.074.064.163.147.131.25a.419.419,0,0,1-.218.214c-.285.118-.285.176-.611.845-.128.282-.515,1.088-.589,1.328-.061.189.042.278.179.378a1.31,1.31,0,0,1,.336.976c-.022.07-.112.115-.166.157-.122.093-.64.589-.73.694a1.327,1.327,0,0,0-.122.262c-.026.086-.019.182.083.218a.268.268,0,0,0,.166-.045c.48-.262,1.36-.662,1.882-.877a4.262,4.262,0,0,1,2.88-.429A1.943,1.943,0,0,1,63.822,7.59a3.291,3.291,0,0,1-.211,1.731c-.282.893-.6,1.776-.928,2.634-.269.73-.566,1.485-.8,2.208-.131.41-.336,1.008.058,1.133.464.147,1.437-.358,1.856-.6a.515.515,0,0,1,.387-.083c.291.093.381,1.539.294,1.814-.08.24-.854.483-1.088.563a4.683,4.683,0,0,1-2.739.227c-1.443-.458-1.053-2.17-.707-3.251.49-1.546,1.21-3.037,1.7-4.582.122-.381.314-.982-.2-1.146a2.736,2.736,0,0,0-1.558.262,18.53,18.53,0,0,0-2.4,1.072,6.092,6.092,0,0,0-1.309.794c-.141.2-.739,2.32-.864,2.714-.032.106-.16.63-.237.928-.189.717-.432,1.658-.49,1.85-.042.118-.08.3-1.347-.106-.413-.131-.723-.23-.611-.573.045-.157.755-2.029,1-2.8.029-.086.038-.234-.08-.272s-.326.182-.579.384c-.288.25-1.114,1.008-1.389,1.28-.083.086-.186.166-.288.134a2.575,2.575,0,0,1-.928-1.542c.048-.154.413-.416.538-.509,1.36-1.062,2.614-2.214,3.859-3.389a1.72,1.72,0,0,0,.461-.742c.048-.154.131-.3.176-.435a.24.24,0,0,0-.141-.33,1.193,1.193,0,0,0-.339-.013,12.145,12.145,0,0,1-2.3.045c-.275-.086-.33-.387-.346-.64a5.2,5.2,0,0,1,.01-1.283c.086-.272.448-.157.666-.128.538.1,2.838.41,3.174.064a1.132,1.132,0,0,0,.25-.49c.147-.464.541-1.472.784-2.227.064-.208.115-.419.15-.538.061-.189.163-.214.352-.154s1.555.7,1.709.806" transform="translate(110.77 3.427)" fill="#5a4646"/>
    <path id="パス_1445" data-name="パス 1445" d="M68.652,6.977a3.994,3.994,0,0,1,1.894,5.481c-1.933,3.827-8.473,6.617-11.945,7.491-1.475-3.594-2.915-10.377-1.066-14.028a3.978,3.978,0,0,1,5.552-1.757A3.857,3.857,0,0,1,65.148,7a3.842,3.842,0,0,1,3.5-.022M62.819,4.734A3.436,3.436,0,0,0,58.163,6.2c-2.237,4.419.733,12.688.838,12.963.259-.074,8.7-2.592,10.934-7.014a3.454,3.454,0,0,0-1.584-4.617,3.645,3.645,0,0,0-3.757.563,3.645,3.645,0,0,0-1.776-3.36" transform="translate(124.652 8.059)" fill="#5a4646"/>
  </g>
</svg>
