<?xml version="1.0" encoding="UTF-8"?>
<svg xmlns="http://www.w3.org/2000/svg" version="1.1" viewBox="0 0 281.7799988 19.1200008">
  <defs>
    <style>
      .cls-1 {
        fill: #504f4f;
      }
    </style>
  </defs>
  <!-- Generator: Adobe Illustrator 28.6.0, SVG Export Plug-In . SVG Version: 1.2.0 Build 709)  -->
  <g>
    <g id="_イヤー_2">
      <g id="collection">
        <g>
          <path class="cls-1" d="M0,17.1800003V1.5599999h3.8499999c1.5099998,0,2.7999997.24,3.8600001.71,1.0600004.48,1.9300003,1.0999999,2.5900002,1.8800001s1.1400003,1.6300001,1.4499998,2.5499997c.3100004.9200001.46,1.8400002.46,2.75,0,1.1899996-.21,2.25-.6199999,3.1999998s-.9700003,1.7600002-1.6800003,2.4300003-1.5200005,1.1900005-2.4300003,1.5499992-1.8699999.5400009-2.8800001.5400009H0v.0100002ZM1.08,16.1499996h3.2299999c.9400001,0,1.8200002-.1499996,2.6399999-.46s1.54-.75,2.1700001-1.3400002,1.1099997-1.29,1.46-2.1199999.5299997-1.7700005.5299997-2.8299999c0-.8900003-.1499996-1.75-.4499998-2.5599999s-.75-1.54-1.3500004-2.1700001-1.3400002-1.1300001-2.2200003-1.5-1.9099998-.55-3.0799999-.55H1.08v13.53Z"/>
          <path class="cls-1" d="M16.1200008,1.5599999h1.0799999v15.6200004h-1.0799999V1.5599999Z"/>
          <path class="cls-1" d="M20.3199997,17.1800003L26.9200001.88h.0900002l6.6000004,16.2999984h-1.2099991l-5.7400017-14.5799985.75-.4200001-6.0100002,15.0000005h-1.0799999ZM23.5100002,11h6.9300003l.3099995,1.0100002h-7.5l.2600002-1.0100002Z"/>
          <path class="cls-1" d="M42.7099991,2.8199999h3.2099991v14.3700006h-1.0800018V3.8499999h-2.1300011s0-1.03.0000038-1.03Z"/>
          <path class="cls-1" d="M48.7200012,13.3800001v-.0200005l8.3600006-10.7199996h.0200005v9.8800004h2.0200005v.8599997h-2.0200005v3.8100004h-1.0800018v-3.8099995s-7.2999992,0-7.2999992-.000001ZM56.1599998,5.2600002l-5.7400017,7.3500004-.3499985-.0900002h5.9599991v-7.9000006s.1300011.6399999.1300011.6400003Z"/>
          <path class="cls-1" d="M61.7900009,15.9099998c.1500015-.1499996.3100014-.2200003.5099983-.2200003s.3600006.0699997.5200005.2200003c.1500015.1499996.2299995.3199997.2299995.5300007,0,.2199993-.0800018.3999996-.2299995.5400009s-.3300018.2099991-.5200005.2099991-.3600006-.0699997-.5099983-.2099991c-.1500015-.1399994-.2200012-.3199997-.2200012-.5400009,0-.2099991.0699997-.3799992.2200012-.5300007Z"/>
          <path class="cls-1" d="M76.7199745,8.5799999l.1100006,2.3999996-.1500015-.2200003c.2900009-.75.7799988-1.3400002,1.4599991-1.7699995.6800003-.4300003,1.4300003-.6499996,2.2300034-.6499996.4800034,0,.9199982.0900002,1.3099976.2700005s.6999969.4300003.9499969.75c.2399979.3199997.3799973.6800003.4300003,1.0900002l-.1299973.1300001c.3099976-.7300005.7900009-1.29,1.4499969-1.6700001.6600037-.3800001,1.3700027-.5699997,2.1299973-.5699997.8199997,0,1.4700012.2399998,1.9599991.71.4800034.4799995.7300034,1.1000004.75,1.8599997v6.2699995h-1.0299988v-6.0500002c-.0100021-.5100002-.1800003-.9499998-.4800034-1.3100004-.3099976-.3599997-.7799988-.5500002-1.4100037-.5799999-.5699997,0-1.0999985.1499996-1.5800018.4399996s-.8799973.6800003-1.1800003,1.1700001-.4700012,1.0299997-.5,1.6300001v4.7099991h-1.0299988v-6.0500002c-.0199966-.5100002-.1800003-.9499998-.5-1.3100004-.3199997-.3599997-.7900009-.5500002-1.4199982-.5799999-.5899963,0-1.1299973.1499996-1.6200027.4399996-.4899979.29-.8799973.6899996-1.1800003,1.1999998-.2900009.5100002-.4400024,1.0699997-.4400024,1.6800003v4.6200008h-1.0299988v-8.6099987h.9000168Z"/>
          <path class="cls-1" d="M94.9400024,8.5799999l.1100006,2.3999996-.1500015-.2200003c.2900009-.75.7799988-1.3400002,1.4599991-1.7699995.6800003-.4300003,1.4300003-.6499996,2.2300034-.6499996.4800034,0,.9199982.0900002,1.3099976.2700005s.6999969.4300003.9499969.75c.2399979.3199997.3799973.6800003.4300003,1.0900002l-.1299973.1300001c.3099976-.7300005.7900009-1.29,1.4499969-1.6700001.6600037-.3800001,1.3700027-.5699997,2.1299973-.5699997.8199997,0,1.4700012.2399998,1.9599991.71.4800034.4799995.7300034,1.1000004.75,1.8599997v6.2699995h-1.0299988v-6.0500002c-.0100021-.5100002-.1800003-.9499998-.4800034-1.3100004-.3099976-.3599997-.7799988-.5500002-1.4100037-.5799999-.5699997,0-1.0999985.1499996-1.5800018.4399996s-.8799973.6800003-1.1800003,1.1700001-.4700012,1.0299997-.5,1.6300001v4.7099991h-1.0299988v-6.0500002c-.0199966-.5100002-.1800003-.9499998-.5-1.3100004-.3199997-.3599997-.7900009-.5500002-1.4199982-.5799999-.5899963,0-1.1299973.1499996-1.6200027.4399996-.4899979.29-.8799973.6899996-1.1800003,1.1999998-.2900009.5100002-.4400024,1.0699997-.4400024,1.6800003v4.6200008h-1.0299988v-8.6099987h.9000168Z"/>
          <path class="cls-1" d="M121.5599976.9c-1.0299988,2.7900001-2.0500031,5.5700003-3.0699997,8.35s-2.0400009,5.5599995-3.0699997,8.3500004h-.9700012c1.0400009-2.79,2.0699997-5.5699997,3.0899963-8.3500004s2.0400009-5.5599999,3.0699997-8.3500004c0,0,.9499969,0,.9500046.0000004Z"/>
          <path class="cls-1" d="M134.3899994,8.7799997c-.2599945.6199999-.5500031,1.21-.8800049,1.8299999.3099976-.1499996.6600037-.2600002,1.1000061-.2600002.8099976,0,1.6300049-.0200005,2.4600067-.0200005,1.1900024,0,2.3800049.0200005,3.5899963.04,1.2100067.0200005,1.9400024.7700005,1.9799957,1.6499996.0399933.79.0399933,1.6099997.0399933,2.4200001s0,1.5799999-.0399933,2.3500004c-.0399933,1.0599995-.7899933,1.8500004-2.0899963,1.8899994-.9499969.0200005-1.9100037.0400009-2.8399963.0400009-1.1000061,0-2.1600037-.0200005-3.1199951-.0699997-1.4499969-.0699997-2.1300049-.7900009-2.1600037-1.8700008,0-.3500004-.0200043-.7000008-.0200043-1.0599995,0-1.1900005.0399933-2.4200001.0899963-3.4099998-2.0500031,3.1000004-4.2700043,4.6900005-4.7300034,4.6900005-.3499985,0-.6399994-.3099995-.6399994-.6200008,0-.1299992.0699997-.2900009.2399979-.3999996,2.5500031-1.6700001,4.7100067-4.4899998,5.8300018-7.2199993h-5.3899994c-.3300018,0-.5100021-.2399998-.5100021-.5100002,0-.2399998.1800003-.48.5100021-.48l7.9700012.04v-1.6700001l-5.6300049.02c-.3300018,0-.4799957-.2399998-.4799957-.46,0-.2399998.1499939-.46.4799957-.46l5.6300049.02v-1.6100001l-6.8899994.02c-.3300018,0-.5099945-.24-.5099945-.51,0-.24.1799927-.48.5099945-.48l4.9299927.02c-.3999939-.77-.8800049-1.28-1.4499969-1.8-.0899963-.09-.1100006-.15-.1100006-.24,0-.26.2899933-.48.5899963-.48.5700073,0,2.0700073,1.69,2.0700073,2.22,0,.1099999-.0399933.22-.1100006.3099999h2.9700012c.5099945-.7.9700012-1.63,1.2299957-2.3099999C139.1199951.1099996,139.3600006-.0000004,139.5800018-.0000004c.3300018,0,.6399994.24.6399994.57,0,.37-.8800049,1.63-1.2799988,2.1300002l4.75-.02c.3500061,0,.5099945.24.5099945.48,0,.26-.1499939.51-.5099945.51l-6.7799988-.02v1.6099999l5.5899963-.02c.3099976,0,.4600067.2199998.4600067.46,0,.2199998-.1499939.46-.4600067.46l-5.5899963-.02v1.6700001l7.9900055-.04c.3500061,0,.5299988.2599998.5299988.5099998s-.1799927.4799995-.5099945.4799995h-10.5399933l.0099792.0200005ZM141.5599976,13.6199999h-8.0500031c-.0200043.5299997-.0399933,1.0799999-.0399933,1.6300001h8.1000061v-1.6300001h-.0100098ZM133.4599915,16.0400009c0,.1499996.0200043.3299999.0200043.4799995.0200043,1.2999992.6999969,1.2999992,4.4499969,1.2999992.7700043,0,1.5399933-.0200005,2.3099976-.0400009.7899933-.0200005,1.25-.4200001,1.3000031-1.2299995,0-.1499996.0200043-.3299999.0200043-.5100002,0,0-8.1000061,0-8.1000061.0000019ZM141.5399933,12.4100008c-.0200043-.6999998-.3500061-1.1700001-1.3200073-1.1899996-1.0099945-.0200005-2.1799927-.04-3.3000031-.04-.6999969,0-1.3899994,0-2.0200043.0200005-.8999939.0200005-1.3399963.5100002-1.3600006,1.21v.4200001h8.0299988l-.0200043-.4200001-.0099792-.000001Z"/>
          <path class="cls-1" d="M159.2599945,2.4400001c.9900055,0,1.4299927.51,1.4299927,1.0599999,0,.3699999-.1799927.79-1.9799957,2.6599998,1.3200073,0,2.6199951.02,3.8899994.0700002,1.4499969.04,2.1999969.79,2.2700043,1.7199998.0200043.29.0399933.79.0399933,1.3400002s-.0200043,1.0799999-.0399933,1.4700003c-.0399933.9700003-.7899933,1.7399998-2.2200012,1.7799997-1.4100037.04-3.3000031.0699997-5.2100067.0699997s-3.8099976-.0200005-5.2400055-.04c0,1.0599995,0,2.1999998.0200043,2.9899998.0200043,1.0300007.6600037,1.6100006,1.6100006,1.6900005,1.3000031.1299992,2.8200073.2000008,4.3099976.2000008,1.8300018,0,3.6499939-.0900002,5.0599976-.2900009,1.6499939-.2399998,2.0700073-1.2799997,2.0700073-2.8199997,0-.5500002.2899933-.7299995.5899963-.7299995.3300018,0,.6799927.2200003.6799927.5900002-.0200043,2.5100002-.8600006,3.8299999-3.1199951,4.0699997-1.5800018.1800003-3.4100037.2600002-5.1699982.2600002s-3.3200073-.0900002-4.6399994-.2199993c-1.5-.1499996-2.5099945-1.0599995-2.5299988-2.6400003-.0200043-1.1899996-.0200043-2.79-.0200043-4.3100004,0-1.25,0-2.4400005.0399933-3.2600002.0399933-.8600001.6999969-1.8499999,2.3300018-1.8899999,1.25-.04,2.6000061-.0700002,3.9600067-.0700002,1.4499969-1.5599999,1.9400024-2.1300001,1.9400024-2.49,0-.3099999-.3300018-.3099999-1.25-.3099999s-2.5700073,0-3.4799957.02c-.8399963,1.0800002-4.5800018,5.3000004-5.4799957,5.3000004-.3300018,0-.5700073-.2600002-.5700073-.5500002,0-.1799998.0899963-.3499999.2899933-.48,2.3099976-1.5599999,4.9900055-4.6399999,6.3399963-7.1700001.1300049-.24.3300018-.35.5099945-.35.3099976,0,.6199951.29.6199951.62s-.9499969,1.6300001-1.0099945,1.72l3.9799957-.02-.0199738.0099995ZM157.2799988,7.1300001c-1.25,0-2.4900055.02-3.5200043.04-1.0599976.02-1.5.5700002-1.5200043,1.1900005-.0399933.75-.0700073,2.0699997-.0700073,3.21,1.3899994.0200005,3.2799988.0699997,5.1000061.0699997v-4.5100002h.0100098ZM158.4199982,11.6400003c4.6900024,0,5.1699982,0,5.2799988-1.2300005.0200043-.2200003.0200043-.5500002.0200043-.8999996,0-1.6900001-.0200043-2.3099999-1.5200043-2.3299999-1.1399994-.02-2.4600067-.04-3.7899933-.04v4.5100002l.0099945-.0100002Z"/>
          <path class="cls-1" d="M179.5899963,3.6099999l-.3099976,1.9999998c1.1000061,0,2.2400055,0,3.1900024.04,1.4100037.0700002,2.0899963.9000001,2.1100006,1.8000002.0200043.79.0399933,2.0900002.0399933,3.3400002,0,1.0299997-.0200043,2-.0399933,2.5999994-.0700073,1.21-.8600006,1.8500004-2.2200012,1.9099998-.8800049.04-1.8500061.0699997-2.7899933.0699997-.8399963,0-1.6300049-.0200005-2.3500061-.0699997-1.4299927-.0900002-2.2200012-.7700005-2.2400055-1.8900003-.0200043-.79-.0200043-1.8900003-.0200043-3.0100002s0-2.1999998.0200043-2.9300003c.0200043-.9000001.6799927-1.7799997,2.1600037-1.8299999.3099976,0,.6399994-.04.9900055-.04l.2899933-2h-7.6999969c-.3500061,0-.5299988-.26-.5299988-.53s.1799927-.53.5299988-.53l7.8600006.02.2899933-2.05c.0399933-.35.3300018-.53.6199951-.53.3099976,0,.5899963.2.5899963.55v.09l-.3099976,1.9399999,6.7100067-.02c.3500061,0,.5099945.26.5099945.53s-.1499939.53-.5099945.53h-6.8699951l-.0200043.0100014ZM186.7399902,17.1399994c.3699951,0,.5500031.2600002.5500031.5499992s-.1799927.5699997-.5700073.5699997c-1.5399933.0699997-4.1799927.0900002-6.75.0900002s-5.1300049-.0200005-6.4900055-.0900002c-1.7599945-.0699997-2.6000061-.8400002-2.6199951-2.46-.0200043-.9899998-.0200043-2.1099997-.0200043-3.2799997,0-1.8699999.0200043-3.8500004.0399933-5.6100001,0-.3699999.3099976-.5500002.5899963-.5500002s.5899963.1799998.5899963.5300002v.02c-.0200043,1.2100005-.0200043,2.8200002-.0200043,4.3800006s0,3.0799999.0200043,4.1800003c.0200043,1.2299995.5099945,1.6299992,1.8899994,1.6900005,1.1000061.0400009,3.0800018.0699997,5.1900024.0699997,2.9299927,0,6.0899963-.0400009,7.5700073-.0900002h.030014ZM183.5099945,9.3699989h-7.4799957v1.96h7.4799957v-1.96ZM183.4899902,8.4699993c0-.29-.0200043-.5299997-.0200043-.75-.0399933-1.23-.6999969-1.23-3.7400055-1.23-.8600006,0-1.6900024.02-2.3099976.04-.9499969.04-1.3200073.5300002-1.3399963,1.1900001,0,.1999998-.0200043.46-.0200043.75h7.4400024-.0099945ZM176.0499878,12.2299995c0,.3999996.0200043.75.0200043,1.0100002.0399933,1.2299995.8999939,1.2299995,3.6999969,1.2299995,3.6300049,0,3.7200012-.04,3.7200012-2.2399998h-7.4400024Z"/>
          <path class="cls-1" d="M192.3699951,18.5699997l.3099976-9.3999996c-.75.7299995-2.4900055,2.3099995-3.0599976,2.3099995-.3300018,0-.5700073-.29-.5700073-.5900002,0-.1999998.0899963-.3999996.3099976-.5299997,1.9799957-1.1899996,4.2200012-3.3900003,5.5899963-5.6300001.1300049-.1999998.3099976-.29.4799957-.29.3099976,0,.6199951.29.6199951.6199999,0,.5100002-1.7599945,2.4400001-2.1999969,2.9300003l-.2599945,10.5799999c-.0200043.3700008-.3300018.5499992-.6399994.5499992-.2899933,0-.5700073-.1800003-.5700073-.5300007v-.0200005l-.0099792.0000019ZM190.019989,6.1599998c-.3300018,0-.5899963-.2399998-.5899963-.5500002,0-.1999998.1100006-.4200001.3999939-.5700002,1.8300018-1.0300002,3.5399933-2.8599999,4.6699982-4.6199999.1300049-.22.3300018-.31.5099945-.31.3300018,0,.6199951.26.6199951.59,0,.79-4.4700012,5.4600003-5.5899963,5.4600003h-.019989ZM195.6099854,18.1300011c-.3500061,0-.5299988-.2600002-.5299988-.5100002,0-.2600002.1799927-.5300007.5299988-.5300007l5.8300018.0200005-.0200043-3.4799995-4.1100006.0200005c-.3500061,0-.5299988-.2600002-.5299988-.5100002,0-.2600002.1799927-.5100002.5299988-.5100002h4.1100006l-.0200043-2.3299999c0-.3699999.3099976-.5699997.5899963-.5699997.3099976,0,.5899963.1999998.5899963.5699997l-.0200043,2.3299999h4.1799927c.3500061,0,.5299988.2600002.5299988.5100002,0,.2600002-.1799927.5100002-.5299988.5100002l-4.1799927-.0200005-.0200043,3.4799995,5.6100006-.0200005c.3500061,0,.5099945.2600002.5099945.5100002,0,.2600002-.1499939.5300007-.5099945.5300007h-12.5399933.0000153ZM196.0499878,9.8800011c-.3699951,0-.5700073-.3100004-.5700073-.5900002,0-.2200003.1300049-.4399996.4199982-.4799995,2.2700043-.4200001,4.0299988-1.1399999,5.3899994-2-1.6499939-1.1900001-2.9499969-2.5999999-2.9499969-2.97,0-.3099999.3099976-.53.6199951-.53.1300049,0,.2899933.04.3699951.1800001.8099976,1.0800002,1.7599945,1.9799998,2.8200073,2.7299998,1.25-.9700003,2.7100067-2.79,2.7100067-3.4300001,0-.26-.2400055-.4000001-.8099976-.4000001-1.4100037,0-4.4199982.02-6.3800049.04-.3099976,0-.4600067-.26-.4600067-.53s.1799927-.55.4799957-.55h1.7799988c1.7200012,0,3.5899963.02,5.0800018.04,1.1699982.02,1.6499939.51,1.6499939,1.1400001,0,.75-1.2100067,2.73-3.1199951,4.25,1.5200043.8800001,3.1900024,1.4299998,4.9299927,1.6500001.3500061.04.5299988.3100004.5299988.5699997,0,.29-.2200012.5900002-.6399994.5900002-.6999969,0-3.1499939-.5500002-5.6999969-2.1800003-2.8600006,1.8699999-5.9799957,2.46-6.1399994,2.46l-.0099792.0100002Z"/>
          <path class="cls-1" d="M218.1100006,2.8199999h3.2100067v14.3700006h-1.0800018V3.8499999h-2.1300049v-1.03Z"/>
          <path class="cls-1" d="M232.4100037,2.8199999l-4.4400024,6.1199996-.8099976-.2399998c.25-.1499996.5200043-.25.8099976-.3199997s.6000061-.1000004.9199982-.1000004c.5700073-.0299997,1.1100006.0299997,1.6300049.1899996.5099945.1499996.9700012.3999996,1.3800049.75s.7200012.7799997.9499969,1.3099995.3399963,1.1599998.3399963,1.8900003c0,1-.2200012,1.8699999-.6600037,2.6099997s-1.0399933,1.3199997-1.7899933,1.7299995-1.6100006.6200008-2.5599976.6200008c-.6699982,0-1.3200073-.1399994-1.9400024-.4099998s-1.1399994-.6299992-1.5599976-1.0900002l.5500031-.8800001c.3200073.3800001.75.6999998,1.2799988.96s1.0800018.3799992,1.6499939.3799992c.7599945,0,1.4400024-.1700001,2.0399933-.4899998.5899963-.3299999,1.0599976-.8000002,1.3999939-1.3999996.3399963-.6000004.5099945-1.29.5099945-2.0699997,0-1.0299997-.3200073-1.8299999-.9499969-2.4200001-.6300049-.5900002-1.4700012-.8800001-2.5299988-.8800001-.4100037,0-.7899933.04-1.1399994.1300001s-.6499939.1899996-.8999939.3100004l-.0899963-.0699997,4.2700043-5.8099999.3999939.2h-5.9799957v-1.01h7.2599945l-.0399933-.01Z"/>
          <path class="cls-1" d="M236.3800049,15.9099998c.1499939-.1499996.3200073-.2200003.5099945-.2200003s.3600006.0699997.5200043.2200003c.1499939.1499996.2299957.3199997.2299957.5300007,0,.2199993-.0800018.3999996-.2299957.5400009s-.3300018.2099991-.5200043.2099991-.3600006-.0699997-.5099945-.2099991-.2200012-.3199997-.2200012-.5400009c0-.2099991.0700073-.3799992.2200012-.5300007Z"/>
          <path class="cls-1" d="M68.689991,17.3600006c-.6699982,0-1.3099976-.1200008-1.9100037-.3600006s-1.1100006-.5699997-1.5399933-.9799995l.6199951-.7700005c.3399963.3500004.75.6300001,1.2299957.8199997.4799957.2000008.9799957.2999992,1.5.2999992.75,0,1.3899994-.1599998,1.9400024-.4899998s.9600067-.7700005,1.25-1.3199997c.2899933-.5500002.4400024-1.1599998.4400024-1.8199997s-.1199951-1.3099995-.3500061-1.8599997c-.2299957-.5500002-.6000061-.9899998-1.1000061-1.3100004-.5-.3199997-1.1399994-.4799995-1.9400024-.4799995-.5599976,0-1.0700073.0799999-1.5399933.2399998-.4700012.1599998-.8999939.3699999-1.2799988.6199999h-.0200043V2.8199999h6.5599976v1.01h-5.6100006v5.04l-.1799927-.2399998c.2899933-.1499996.6499939-.2600002,1.0800018-.3400002.4199982-.0799999.8399963-.1199999,1.2299957-.1199999.9499969,0,1.75.21,2.3800049.6199999s1.1000061.96,1.4100037,1.6499996.4600067,1.4499998.4600067,2.29-.1900024,1.6300001-.5700073,2.3299999-.9199982,1.2600002-1.6199951,1.6800003-1.5099945.6299992-2.4299927.6299992l-.0100098-.0099983Z"/>
          <path class="cls-1" d="M252.4600067,8.5799999l.1100006,2.3999996-.1499939-.2200003c.2899933-.75.7799988-1.3400002,1.4600067-1.7699995.6799927-.4300003,1.4299927-.6499996,2.2299957-.6499996.480011,0,.9200134.0900002,1.3099976.2700005.3900146.1800003.7000122.4300003.9500122.75.2399902.3199997.3900146.6800003.4299927,1.0900002l-.1300049.1300001c.3099976-.7300005.7900085-1.29,1.4500122-1.6700001s1.3699951-.5699997,2.1300049-.5699997c.8200073,0,1.4700012.2399998,1.9599915.71.480011.4799995.730011,1.1000004.75,1.8599997v6.2699995h-1.0299988v-6.0500002c-.0100098-.5100002-.1799927-.9499998-.480011-1.3100004-.3099976-.3599997-.7799988-.5500002-1.4100037-.5799999-.5700073,0-1.1000061.1499996-1.5799866.4399996-.480011.29-.8800049.6800003-1.1799927,1.1700001s-.4700012,1.0299997-.5,1.6300001v4.7099991h-1.0299988v-6.0500002c-.0100098-.5100002-.1799927-.9499998-.5-1.3100004-.3200073-.3599997-.7900085-.5500002-1.4199982-.5799999-.5899963,0-1.1199951.1499996-1.6199951.4399996-.4900055.29-.8800049.6899996-1.1799927,1.1999998-.2899933.5100002-.4400024,1.0699997-.4400024,1.6800003v4.6200008h-1.0299988v-8.6099987h.8999939-.0000305Z"/>
          <path class="cls-1" d="M269.2799988,8.5799999l.1099854,2.3999996-.1499939-.2200003c.2900085-.75.7799988-1.3400002,1.4599915-1.7699995.6799927-.4300003,1.4299927-.6499996,2.230011-.6499996.480011,0,.9200134.0900002,1.3099976.2700005.3900146.1800003.7000122.4300003.9500122.75.2399902.3199997.3900146.6800003.4299927,1.0900002l-.1300049.1300001c.3099976-.7300005.7900085-1.29,1.4500122-1.6700001s1.3699951-.5699997,2.1300049-.5699997c.8200073,0,1.4700012.2399998,1.9599915.71.480011.4799995.730011,1.1000004.75,1.8599997v6.2699995h-1.0299988v-6.0500002c-.0100098-.5100002-.1799927-.9499998-.480011-1.3100004-.3099976-.3599997-.7799988-.5500002-1.4100037-.5799999-.5700073,0-1.1000061.1499996-1.5799866.4399996-.480011.29-.8800049.6800003-1.1799927,1.1700001s-.4700012,1.0299997-.5,1.6300001v4.7099991h-1.0299988v-6.0500002c-.0100098-.5100002-.1799927-.9499998-.5-1.3100004-.3200073-.3599997-.7900085-.5500002-1.4200134-.5799999-.5899963,0-1.1199951.1499996-1.6199951.4399996-.4899902.29-.8800049.6899996-1.1799927,1.1999998-.2900085.5100002-.4400024,1.0699997-.4400024,1.6800003v4.6200008h-1.0299988v-8.6099987h.8999939Z"/>
          <path class="cls-1" d="M239.3799896,11.044999c.2899933-.5600004.6600037-1.04,1.1300049-1.4399996s.9799957-.6800003,1.5399933-.8599997c-.5399933-.2299995-.9900055-.5799999-1.3300018-1.04s-.5200043-1-.5200043-1.6199999.1399994-1.1900001.4299927-1.6700001.6900024-.8699999,1.2100067-1.1599998,1.1300049-.4300001,1.8200073-.4300001,1.2700043.1400001,1.7799988.4300001.9100037.6700001,1.1999969,1.1599998.4299927,1.0299997.4299927,1.6500001-.1699982,1.1700001-.5099945,1.6300001c-.3399963.4499998-.7700043.8099999-1.3000031,1.0599999.5700073.1800003,1.1000061.46,1.5800018.8599997s.8699951.8800001,1.1699982,1.4400005c.2899933.5699997.4400024,1.21.4400024,1.9200001,0,.8199997-.2200012,1.5799999-.6499939,2.2799997s-1.0099945,1.249999-1.7299957,1.6699991-1.5299988.6299992-2.4199982.6299992-1.6799927-.2099991-2.3899994-.6299992-1.2799988-.9700003-1.6900024-1.6700001c-.4199982-.6999998-.6300049-1.46-.6300049-2.2799997,0-.7200003.1399994-1.3599997.4299927-1.9200001l.0100098-.0100002ZM240.5099945,14.7649993c.3200073.5699997.7599945,1.0200005,1.3099976,1.3500004.5500031.3400002,1.1499939.5100002,1.8099976.5100002s1.3200073-.1700001,1.8800049-.5100002,1.0200043-.79,1.3500061-1.3500004c.3399963-.5600004.5099945-1.1800003.5099945-1.8400002s-.1699982-1.2799997-.5-1.8299999c-.3300018-.54-.7700043-.9799995-1.3300018-1.3199997s-1.1799927-.5100002-1.8699951-.5100002-1.2700043.1700001-1.8300018.5-1,.7700005-1.3300018,1.3199997-.4900055,1.1599998-.4900055,1.8400002.1600037,1.2700005.4799957,1.8400002h.0100098ZM241.9499969,7.7449993c.4799957.4200001,1.0500031.6299996,1.7299957.6299996s1.2200012-.21,1.6699982-.6300001c.4600067-.4200001.6799927-.9299998.6799927-1.5500002,0-.73-.2299957-1.3299999-.6799927-1.7799997s-1.0099945-.6800001-1.6699982-.6800001-1.25.23-1.7299957.6800001c-.4799957.46-.7100067,1.0500002-.7100067,1.7799997,0,.6199999.2400055,1.1300001.7100067,1.5500007Z"/>
        </g>
      </g>
    </g>
  </g>
</svg>