<?xml version="1.0" encoding="UTF-8"?><svg id="_イヤー_2" xmlns="http://www.w3.org/2000/svg" viewBox="0 0 118.18 119.86"><defs><style>.cls-1{fill:#fff;}</style></defs><g id="mv"><g><path class="cls-1" d="M11.48,28.01c0,.16-.02,.42-.08,.78-.06,.36-.18,.77-.36,1.22-.18,.45-.44,.91-.79,1.35-.54,.68-1.13,1.21-1.78,1.58-.65,.37-1.32,.59-2.01,.66-.69,.07-1.38,.01-2.06-.19-.68-.2-1.32-.52-1.91-.97-.67-.51-1.21-1.07-1.62-1.7-.41-.62-.67-1.28-.79-1.97-.12-.69-.1-1.38,.08-2.07,.17-.7,.5-1.36,.98-2,.44-.59,.92-1.05,1.42-1.39,.5-.33,.95-.58,1.35-.73l1.13,1.92c-.3,.09-.66,.23-1.07,.44-.41,.21-.78,.53-1.11,.96-.25,.34-.43,.71-.52,1.12-.09,.41-.1,.83-.02,1.26,.08,.43,.24,.84,.47,1.23,.24,.39,.56,.74,.95,1.04,.42,.32,.86,.55,1.3,.69,.44,.14,.88,.19,1.31,.15s.83-.17,1.21-.4c.38-.22,.72-.54,1.03-.94,.35-.47,.58-.93,.68-1.38,.1-.45,.13-.83,.1-1.13l2.1,.45Z"/><path class="cls-1" d="M9.18,23.6c-.5-.57-.87-1.21-1.1-1.91-.23-.7-.32-1.42-.28-2.16,.04-.73,.22-1.44,.53-2.11,.31-.67,.76-1.27,1.35-1.78,.58-.51,1.22-.87,1.93-1.09,.71-.22,1.43-.31,2.18-.26,.74,.05,1.45,.23,2.12,.55,.67,.32,1.26,.76,1.76,1.33,.51,.59,.88,1.23,1.11,1.94,.23,.71,.31,1.43,.26,2.16-.06,.73-.24,1.43-.56,2.1-.32,.67-.77,1.25-1.35,1.76-.59,.51-1.23,.89-1.93,1.12-.7,.23-1.42,.32-2.14,.27-.73-.05-1.42-.23-2.09-.55-.67-.32-1.26-.77-1.77-1.36Zm1.69-1.48c.32,.37,.69,.66,1.1,.86,.41,.2,.84,.33,1.29,.36,.45,.04,.89-.01,1.32-.15,.43-.14,.83-.37,1.2-.69,.35-.31,.62-.67,.81-1.07,.19-.4,.29-.82,.3-1.27,.01-.44-.06-.88-.21-1.31-.15-.43-.39-.83-.71-1.2-.33-.38-.7-.67-1.12-.88-.42-.21-.84-.33-1.29-.38-.44-.04-.88,0-1.31,.14-.43,.14-.82,.36-1.18,.68-.36,.32-.64,.68-.83,1.08-.19,.41-.29,.83-.31,1.28-.02,.45,.05,.89,.2,1.33,.16,.44,.4,.84,.73,1.22Z"/><path class="cls-1" d="M17.29,9.93l1.89-1.09,4.46,7.75,4.5-2.59,1.05,1.82-6.38,3.67-5.51-9.57Z"/><path class="cls-1" d="M28.34,10.02c-.24-.72-.34-1.45-.28-2.19,.06-.74,.24-1.44,.56-2.1,.32-.66,.75-1.24,1.3-1.75,.55-.5,1.19-.88,1.93-1.13,.73-.25,1.46-.34,2.2-.27,.74,.07,1.44,.26,2.11,.59,.67,.33,1.25,.77,1.75,1.32,.5,.55,.87,1.18,1.11,1.9,.25,.74,.34,1.48,.28,2.22-.06,.74-.26,1.44-.59,2.09-.33,.66-.77,1.23-1.33,1.72-.55,.49-1.19,.86-1.92,1.11-.74,.25-1.48,.35-2.21,.29-.74-.06-1.43-.25-2.08-.57-.65-.32-1.23-.76-1.72-1.31s-.86-1.2-1.11-1.93Zm2.13-.72c.16,.46,.39,.87,.69,1.22,.3,.35,.65,.62,1.06,.83,.4,.21,.83,.33,1.28,.37,.45,.04,.91-.02,1.37-.18,.45-.15,.83-.38,1.16-.68,.33-.3,.58-.65,.76-1.06,.18-.4,.28-.83,.31-1.29,.02-.46-.04-.92-.2-1.38-.16-.47-.39-.89-.7-1.24-.3-.35-.65-.63-1.04-.84-.39-.21-.81-.33-1.26-.37-.45-.04-.9,.02-1.35,.17-.45,.15-.85,.38-1.18,.68-.33,.3-.59,.66-.78,1.06-.19,.41-.3,.84-.32,1.3-.02,.46,.04,.93,.21,1.4Z"/><path class="cls-1" d="M44.42,.06c.69-.09,1.31-.07,1.86,.03s1.04,.3,1.44,.58c.4,.28,.73,.63,.97,1.06,.25,.43,.4,.92,.47,1.49,.06,.45,.04,.9-.03,1.36-.08,.46-.25,.9-.5,1.3-.26,.41-.62,.75-1.09,1.04-.47,.29-1.07,.47-1.8,.56l-1.55,.19,.43,3.48-2.16,.27L41.1,.47l3.32-.41Zm1.04,5.34c.33-.04,.59-.13,.8-.27,.2-.14,.36-.3,.46-.48,.1-.18,.17-.37,.2-.56,.03-.19,.04-.36,.02-.52-.01-.12-.05-.27-.11-.45s-.15-.36-.29-.53c-.13-.17-.32-.31-.56-.41-.24-.1-.55-.13-.92-.08l-1.55,.19,.41,3.3,1.53-.19Zm2.19,1.09l3.24,3.89-2.52,.31-3.29-3.82,2.57-.38Z"/><path class="cls-1" d="M69.78,12.13c-.14,.07-.39,.15-.74,.24-.36,.09-.78,.15-1.26,.16-.49,.02-1.01-.04-1.56-.18-.84-.22-1.56-.55-2.16-1-.6-.44-1.07-.97-1.42-1.57-.35-.61-.56-1.26-.66-1.96-.09-.7-.05-1.41,.12-2.14,.19-.82,.49-1.54,.9-2.16s.9-1.13,1.48-1.52c.58-.39,1.22-.64,1.93-.76,.71-.12,1.45-.09,2.23,.09,.72,.17,1.33,.42,1.84,.74,.51,.33,.91,.64,1.21,.95l-1.3,1.8c-.2-.24-.48-.51-.83-.81-.36-.29-.8-.5-1.32-.63-.41-.1-.82-.1-1.24-.02-.41,.08-.8,.24-1.16,.49-.36,.24-.67,.55-.94,.93-.26,.37-.45,.81-.57,1.29-.12,.52-.16,1.01-.11,1.47,.05,.46,.18,.88,.39,1.26,.21,.37,.49,.69,.85,.95,.36,.26,.78,.45,1.28,.56,.57,.14,1.09,.16,1.54,.07,.45-.09,.81-.21,1.07-.36l.43,2.1Z"/><path class="cls-1" d="M72.9,8.25c.32-.69,.75-1.28,1.3-1.78,.55-.49,1.17-.87,1.86-1.13s1.4-.38,2.15-.37c.74,.01,1.47,.19,2.18,.51,.7,.32,1.29,.77,1.78,1.32,.49,.56,.86,1.19,1.12,1.88,.26,.7,.37,1.42,.35,2.16-.02,.74-.19,1.46-.51,2.15-.33,.71-.77,1.31-1.32,1.8-.55,.49-1.18,.86-1.87,1.11-.69,.25-1.41,.36-2.15,.33-.74-.02-1.46-.2-2.16-.52-.71-.33-1.31-.77-1.8-1.32-.5-.55-.87-1.17-1.12-1.85-.25-.68-.36-1.4-.34-2.13,.02-.74,.2-1.46,.53-2.17Zm2.04,.95c-.21,.44-.32,.9-.34,1.36-.02,.46,.04,.9,.19,1.33,.15,.43,.37,.81,.67,1.15,.3,.34,.67,.61,1.12,.82,.43,.2,.86,.3,1.3,.31,.44,0,.87-.07,1.28-.24,.41-.17,.78-.41,1.11-.72,.33-.31,.6-.69,.81-1.14,.21-.45,.33-.91,.35-1.38,.02-.46-.04-.91-.18-1.33-.14-.42-.36-.8-.65-1.14-.3-.34-.66-.61-1.1-.81-.44-.2-.88-.31-1.32-.32-.45,0-.88,.07-1.3,.23-.42,.16-.79,.41-1.13,.72-.34,.32-.61,.7-.82,1.16Z"/><path class="cls-1" d="M89.69,25.31l-1.98-11.1,.29,.68-4.1,5.36-1.74-1.35,7.03-9.07,.07,.05,1.86,10.97-.25-.46,4.18-5.47,1.73,1.34-7.04,9.08-.05-.04Z"/><path class="cls-1" d="M99.42,18.91l4.91,5.59-1.58,1.39-1.77-2.02-6.72,5.9-1.43-1.63,6.72-5.9-1.7-1.94,1.58-1.39Z"/><path class="cls-1" d="M96.38,32.08l12.38-1.76,.06,.1-7.17,10.25-1.32-2.15,5.21-6.93,1.75,.78-9.79,1.54-1.12-1.83Zm5.18,.81l1.73,2.82-1.16,1.61-2.49-4.05,1.91-.38Z"/><path class="cls-1" d="M105.89,49.14c-.14-.08-.34-.23-.62-.48-.28-.24-.56-.56-.85-.95s-.53-.86-.73-1.39c-.29-.82-.43-1.6-.4-2.35,.03-.75,.2-1.43,.5-2.06,.3-.63,.72-1.18,1.25-1.65,.53-.47,1.14-.84,1.84-1.11,.78-.3,1.55-.46,2.29-.47,.74-.01,1.44,.11,2.09,.37,.65,.26,1.22,.65,1.72,1.16,.5,.52,.89,1.15,1.18,1.89,.27,.69,.41,1.34,.43,1.94s-.01,1.11-.1,1.53l-2.22-.06c.09-.3,.15-.68,.19-1.14,.04-.46-.03-.94-.23-1.45-.15-.39-.38-.74-.68-1.03-.3-.3-.66-.52-1.06-.69-.4-.16-.84-.24-1.29-.25-.46,0-.92,.08-1.39,.26-.49,.19-.92,.44-1.27,.74-.36,.3-.63,.65-.82,1.03-.19,.38-.29,.8-.3,1.23-.01,.44,.07,.9,.26,1.37,.21,.55,.48,.99,.81,1.31,.33,.32,.63,.55,.91,.68l-1.5,1.54Z"/><path class="cls-1" d="M116.08,48.26l1.47,7.29-2.06,.42-.53-2.63-8.76,1.77-.43-2.13,8.76-1.77-.51-2.53,2.06-.42Z"/><path class="cls-1" d="M118.18,66.35l-.17,2.17-8.91-.68-.39,5.17-2.09-.16,.56-7.34,11.01,.84Z"/><path class="cls-1" d="M116.99,77.35l-1.86,7.3-2.04-.52,1.32-5.19-2.28-.58-1.17,4.59-2.04-.52,1.17-4.59-2.31-.59-1.37,5.39-2.04-.52,1.91-7.5,10.7,2.72Z"/><path class="cls-1" d="M99.16,92.55l10.44-4.27-.6,.43-6.11-2.88,.95-1.99,10.34,4.97-.04,.08-10.33,4.12,.4-.34,6.23,2.94-.95,1.97-10.36-4.97,.03-.05Z"/><path class="cls-1" d="M101.38,104.45c.44-.2,.84-.43,1.22-.69,.38-.26,.68-.54,.91-.85,.28-.38,.42-.73,.43-1.06,0-.33-.14-.61-.45-.83-.21-.16-.46-.21-.74-.17-.29,.04-.59,.15-.91,.31-.32,.17-.64,.35-.95,.56-.29,.19-.59,.36-.91,.51-.32,.16-.65,.26-1,.32-.35,.05-.71,.03-1.09-.06-.38-.1-.79-.3-1.21-.62-.45-.33-.78-.76-.99-1.28-.21-.52-.27-1.09-.18-1.72,.1-.63,.39-1.27,.88-1.93,.25-.34,.54-.66,.87-.95,.33-.3,.69-.57,1.08-.8s.81-.43,1.26-.58l.79,1.78c-.31,.1-.61,.22-.91,.38-.3,.16-.57,.34-.82,.54-.25,.2-.45,.41-.61,.62-.16,.21-.28,.44-.38,.7-.1,.26-.12,.51-.08,.76,.04,.25,.19,.47,.45,.66,.18,.13,.38,.19,.61,.18,.23,0,.48-.07,.75-.18s.53-.25,.79-.41c.31-.2,.64-.39,.99-.58s.72-.34,1.1-.44,.78-.13,1.19-.07c.41,.06,.83,.25,1.25,.56,.51,.38,.88,.83,1.08,1.33,.21,.51,.27,1.05,.18,1.64-.09,.58-.32,1.15-.7,1.72-.53,.72-1.04,1.23-1.54,1.55-.5,.32-1,.57-1.49,.75l-.85-1.65Z"/><path class="cls-1" d="M100.76,109.26l-5.42,5.23-1.46-1.51,3.85-3.72-1.64-1.69-3.41,3.29-1.46-1.51,3.41-3.29-1.66-1.72-4,3.87-1.46-1.51,5.57-5.38,7.67,7.94Z"/><path class="cls-1" d="M85.92,118.02c.48-.05,.94-.13,1.38-.26,.44-.12,.82-.29,1.13-.51,.39-.27,.64-.55,.75-.86,.11-.31,.06-.62-.15-.93-.15-.21-.36-.35-.65-.4-.28-.05-.61-.05-.96,0-.36,.05-.72,.12-1.08,.22-.33,.08-.67,.15-1.03,.19-.35,.04-.7,.03-1.05-.03-.35-.06-.68-.2-1.01-.41-.33-.22-.65-.54-.95-.98-.32-.46-.49-.97-.53-1.53-.03-.56,.1-1.12,.39-1.68,.29-.56,.78-1.07,1.45-1.54,.35-.24,.72-.45,1.13-.62,.41-.18,.83-.31,1.28-.41,.44-.09,.91-.14,1.38-.14l.17,1.94c-.32,0-.65,.01-.98,.07-.33,.05-.65,.14-.95,.24-.3,.11-.56,.24-.77,.39s-.41,.33-.59,.54c-.18,.21-.29,.44-.33,.69-.04,.25,.03,.5,.21,.77,.12,.18,.3,.3,.52,.37,.22,.07,.48,.09,.76,.08,.29-.02,.58-.06,.88-.13,.35-.09,.73-.16,1.12-.22,.39-.06,.79-.08,1.19-.06,.4,.02,.78,.13,1.15,.32,.37,.19,.7,.5,1,.94,.36,.53,.56,1.07,.59,1.61,.03,.55-.09,1.08-.36,1.61-.27,.52-.68,.99-1.22,1.4-.73,.5-1.39,.83-1.96,.97-.58,.14-1.13,.22-1.66,.23l-.26-1.84Z"/></g></g></svg>