<?xml version="1.0" encoding="UTF-8"?>
<svg id="_レイヤー_2" data-name="レイヤー 2" xmlns="http://www.w3.org/2000/svg" viewBox="0 0 11.88 2.01">
  <defs>
    <style>
      .cls-1 {
        fill: #c87290;
        stroke-width: 0px;
      }
    </style>
  </defs>
  <g id="hedder">
    <g>
      <path class="cls-1" d="m.47,2.01H.18V.15h-.07s-.11,0-.11,0v-.15h.52v2.01h-.05Z"/>
      <path class="cls-1" d="m3.15,2.01V.38l-.72,1.63h-.11L1.6.38v1.63h-.13V0h.32l.69,1.56.69-1.56h.32v2.01h-.35Z"/>
      <path class="cls-1" d="m4.82,2.01c-.31,0-.5-.09-.69-.28-.2-.19-.3-.44-.3-.74s.1-.54.3-.72c.2-.18.39-.27.69-.27s.49.09.69.27c.2.18.31.43.31.73s-.1.54-.29.73c-.19.19-.39.28-.7.28Zm0-1.88c-.21,0-.31.07-.43.22-.11.14-.17.36-.17.65s.06.52.17.66c.12.14.22.21.45.21.2,0,.33-.07.44-.21s.15-.36.15-.66-.03-.51-.14-.65c-.11-.15-.25-.22-.47-.22Z"/>
      <path class="cls-1" d="m7.64,2.01l-1.31-1.73v1.68h-.13V0h.35l1.05,1.41V0h.15v2.01h-.1Z"/>
      <path class="cls-1" d="m9.52.13h-.29v1.88h-.35V.13h-.8v-.13h1.96v.13s-.52,0-.52,0Z"/>
      <path class="cls-1" d="m11.54,2.01v-.99h-.97v.99h-.35V0h.35v.89h.97v-.89h.35v2.01h-.35Z"/>
    </g>
  </g>
</svg>