<?xml version="1.0" encoding="UTF-8"?>
<svg id="_レイヤー_2" data-name="レイヤー 2" xmlns="http://www.w3.org/2000/svg" viewBox="0 0 6.79 2.01">
  <defs>
    <style>
      .cls-1 {
        fill: #c87290;
        stroke-width: 0px;
      }
    </style>
  </defs>
  <g id="hedder">
    <g>
      <path class="cls-1" d="m.47,2.01H.18V.15h-.07s-.11,0-.11,0V0h.52v2.01h-.05Z"/>
      <path class="cls-1" d="m3.07,1.74c-.08.08-.17.14-.27.18-.1.04-.2.07-.29.08-.09.01-.22.02-.38.02h-.56V0c.47,0,.57,0,.57,0C2.43,0,2.66.05,2.83.14c.17.09.29.21.37.37.08.15.12.33.12.53,0,.14-.02.28-.07.4-.05.12-.11.22-.18.3Zm-.36-1.4c-.07-.08-.16-.13-.25-.16-.09-.03-.21-.04-.36-.04-.06,0-.13,0-.19,0v1.74h.26c.17,0,.3-.02.4-.06.1-.04.19-.13.25-.26.07-.13.11-.29.11-.5,0-.16-.02-.3-.06-.43-.04-.12-.1-.22-.17-.3Z"/>
      <path class="cls-1" d="m4.71,2.01c-.11-.28-.15-.38-.15-.38l-.14-.34h-.67l-.28.72h-.17L4.13,0h.1l.85,2.01h-.38Zm-.63-1.54l-.28.7h.57l-.29-.7Z"/>
      <path class="cls-1" d="m6.05,1.22v.8h-.35v-.78L4.93,0h.43l.61,1.06L6.59,0h.2l-.74,1.22Z"/>
    </g>
  </g>
</svg>