<?xml version="1.0" encoding="UTF-8"?>
<svg id="_レイヤー_2" data-name="レイヤー 2" xmlns="http://www.w3.org/2000/svg" viewBox="0 0 34.33 34.33">
  <defs>
    <style>
      .cls-1 {
        fill: #c87290;
        stroke-width: 0px;
      }
    </style>
  </defs>
  <g id="hedder">
    <g id="Instagram">
      <path class="cls-1" d="m17.16,3.09c4.58,0,5.13.02,6.94.1,1.67.08,2.58.36,3.19.59.8.31,1.37.68,1.97,1.28.6.6.97,1.17,1.28,1.97.24.6.51,1.51.59,3.19.08,1.81.1,2.35.1,6.94s-.02,5.13-.1,6.94c-.08,1.67-.36,2.58-.59,3.19-.31.8-.68,1.37-1.28,1.97s-1.17.97-1.97,1.28c-.6.24-1.51.51-3.19.59-1.81.08-2.35.1-6.94.1s-5.13-.02-6.94-.1c-1.67-.08-2.58-.36-3.19-.59-.8-.31-1.37-.68-1.97-1.28-.6-.6-.97-1.17-1.28-1.97-.24-.6-.51-1.51-.59-3.19-.08-1.81-.1-2.35-.1-6.94s.02-5.13.1-6.94c.08-1.67.36-2.58.59-3.19.31-.8.68-1.37,1.28-1.97s1.17-.97,1.97-1.28c.6-.24,1.51-.51,3.19-.59,1.81-.08,2.35-.1,6.94-.1m0-3.09c-4.66,0-5.25.02-7.08.1-1.83.08-3.07.37-4.17.8-1.13.44-2.09,1.03-3.04,1.98-.95.95-1.54,1.91-1.98,3.04-.42,1.09-.71,2.34-.8,4.17-.08,1.83-.1,2.42-.1,7.08s.02,5.25.1,7.08c.08,1.83.37,3.07.8,4.17.44,1.13,1.03,2.09,1.98,3.04.95.95,1.91,1.54,3.04,1.98,1.09.42,2.34.71,4.17.8,1.83.08,2.42.1,7.08.1s5.25-.02,7.08-.1c1.83-.08,3.07-.37,4.17-.8,1.13-.44,2.09-1.03,3.04-1.98.95-.95,1.54-1.91,1.98-3.04.42-1.09.71-2.34.8-4.17.08-1.83.1-2.42.1-7.08s-.02-5.25-.1-7.08c-.08-1.83-.37-3.07-.8-4.17-.44-1.13-1.03-2.09-1.98-3.04-.95-.95-1.91-1.54-3.04-1.98-1.09-.42-2.34-.71-4.17-.8-1.83-.08-2.42-.1-7.08-.1h0Z"/>
      <path class="cls-1" d="m17.16,8.35c-4.87,0-8.81,3.95-8.81,8.81s3.95,8.81,8.81,8.81,8.81-3.95,8.81-8.81-3.95-8.81-8.81-8.81Zm0,14.54c-3.16,0-5.72-2.56-5.72-5.72s2.56-5.72,5.72-5.72,5.72,2.56,5.72,5.72-2.56,5.72-5.72,5.72Z"/>
      <circle class="cls-1" cx="26.33" cy="8" r="2.06"/>
    </g>
  </g>
</svg>