<?xml version="1.0" encoding="UTF-8"?>
<svg id="_レイヤー_2" data-name="レイヤー 2" xmlns="http://www.w3.org/2000/svg" viewBox="0 0 10.41 4.62">
  <defs>
    <style>
      .cls-1 {
        fill: #fff;
        stroke: #c97291;
        stroke-width: .13px;
      }

      .cls-2 {
        fill: #c97291;
        stroke-width: 0px;
      }
    </style>
  </defs>
  <g id="Lineup">
    <ellipse class="cls-1" cx="5.2" cy="2.31" rx="5.14" ry="2.24"/>
    <g>
      <path class="cls-2" d="m2.57,1.24s0,0,0-.01c0,0,0,0,0,0h.49s0,0,.01,0l.73,1.68.46-1.53s0-.07-.01-.09c-.02-.02-.05-.03-.08-.04-.04,0-.07,0-.1,0,0,0,0,0,0,0s0,0,0-.01c0,0,0,0,0,0h.5s0,0,0,0,0,0,0,.01c0,0,0,0-.01,0-.05,0-.1,0-.16.02-.06.02-.1.05-.12.12-.1.33-.2.67-.3,1-.1.33-.2.66-.3,1t0,0s0,0-.01,0t0,0s0,0,0,0h0s-.88-2.01-.88-2.01c-.13.41-.26.83-.38,1.24-.06.21-.12.41-.18.62,0,.04,0,.07.02.09.02.02.05.04.08.04.04,0,.07,0,.1,0,0,0,0,0,0,0,0,0,0,0,0,.01,0,0,0,0-.01,0h-.5s0,0,0,0c0,0,0,0,0-.01,0,0,0,0,0,0,.05,0,.1,0,.16-.03.06-.02.1-.05.12-.11l.56-1.85c0-.06,0-.1-.05-.11-.05-.02-.09-.02-.14-.02,0,0,0,0,0,0Z"/>
      <path class="cls-2" d="m4.49,2.65c-.02.16,0,.31.08.46.06.1.14.16.24.17.13.01.25-.02.36-.1.11-.07.19-.17.25-.28h.02c-.07.15-.17.27-.29.36-.12.1-.26.14-.42.15-.21,0-.36-.08-.44-.21-.08-.13-.11-.3-.08-.49.03-.19.11-.37.24-.54.13-.17.3-.3.52-.39.11-.04.23-.06.37-.07.14,0,.25.03.34.11.07.08.08.16.04.24-.05.11-.15.19-.28.24-.13.05-.26.1-.38.12-.03,0-.05.02-.07.02-.12.04-.24.07-.34.12-.06.02-.11.05-.16.09Zm.13-.46c-.07.13-.11.28-.13.43.05-.04.13-.07.23-.11.04-.02.07-.03.12-.04.17-.05.33-.12.47-.21.08-.06.14-.13.16-.22.02-.09.02-.16-.02-.21-.07-.07-.16-.1-.27-.07-.11.03-.21.06-.28.12-.12.09-.21.2-.28.33Z"/>
      <path class="cls-2" d="m5.73,2.08c.07-.08.16-.16.26-.25.11-.09.21-.13.31-.13.05,0,.08.03.09.07,0,.04,0,.09,0,.13,0,.05-.02.09-.03.13-.03.08-.05.17-.09.27-.07.2-.13.39-.17.58,0,.04-.02.08-.02.15,0,.06,0,.13,0,.19,0,.04.02.07.05.11.03.03.06.05.1.05.07,0,.14-.03.21-.08.06-.05.11-.11.16-.19.05-.09.09-.17.12-.25.12-.29.22-.59.3-.89.02-.07.04-.14.06-.21l.28-.03-.11.32c-.1.28-.18.55-.25.83-.01.05-.02.12-.03.19,0,.08,0,.14.02.21.02.06.05.1.12.1.11,0,.24-.07.37-.2.13-.12.24-.28.33-.46.09-.18.14-.34.16-.48,0-.09,0-.17-.03-.24-.04-.07-.09-.12-.16-.15-.02,0-.05-.01-.09-.01-.04,0-.07,0-.09.02,0,0,0,0,0,0,0,0-.01-.02,0-.04,0-.02,0-.04.02-.05.02-.04.06-.06.12-.07.13-.02.24.01.31.09.06.07.08.16.06.28-.02.12-.05.23-.1.35-.05.12-.1.22-.14.3,0,0,0,.02-.02.03-.04.09-.1.18-.18.28-.07.11-.16.2-.26.27s-.2.12-.3.12-.18-.03-.23-.1c-.05-.06-.09-.14-.1-.24-.02-.09-.01-.18,0-.27-.04.11-.08.2-.14.29-.04.08-.1.15-.17.21-.07.06-.15.1-.25.1-.13,0-.22-.05-.29-.16-.07-.1-.09-.22-.06-.37.02-.1.06-.22.11-.37.05-.15.09-.29.12-.41.03-.12.03-.19,0-.21-.04-.02-.1,0-.18.06-.04.03-.07.05-.1.08-.03.03-.05.05-.07.06,0,0,0,0,0,0,0,0,0,0,0,0,0,0,0,0,0,0h0Z"/>
    </g>
  </g>
</svg>