<?xml version="1.0" encoding="UTF-8"?>
<svg id="_レイヤー_2" data-name="レイヤー 2" xmlns="http://www.w3.org/2000/svg" viewBox="0 0 275.24 71.64">
  <defs>
    <style>
      .cls-1 {
        fill: #c87290;
        stroke-width: 0px;
      }

      .cls-2 {
        opacity: .8;
      }
    </style>
  </defs>
  <g id="hedder">
    <g class="cls-2">
      <path class="cls-1" d="m229.83,39.16h18.42c.17,0,.56.09.56-.44,0-.47-.38-.39-.55-.39h-4.64c-.98.1-1.09-.55-1.1-.77v-18.9s0,0,0,0v-2.24s0-14.49,0-14.49c0-.08-.03-.49.02-.55V.33h-12.51c-.58,0-.67.24-.67.45,0,.15.07.39.75.39h4.39c.26,0,.45.52.46.75v35.62c0,.22-.16.77-.41.77h-4.64c-.36,0-.65.04-.65.41s.23.44.6.44Z"/>
      <path class="cls-1" d="m274.61,38.3h-3.84c-.16,0-.31-.41-.4-.53l-17.74-23.53c-.12-.16-.1-.37.05-.5l11.9-10.72c.97-.87,2.21-1.79,3.55-1.79l3.27-.06c.36,0,.62-.09.62-.46,0-.27-.16-.39-.62-.39h-16.22c-.38,0-.62.04-.62.39,0,.36.25.46.62.46h7.89c.25,0,.39.48.44.62.03.07.07.25-.11.41l-16.15,14.19c-.08.04-.15.1-.34.28-.3.46-.63,1.24-.07,2.73l.05.08,13.55,17.86c.09.12.1.26.04.38-.06.12-.18.58-.4.58h-5.88c-.36,0-.63.06-.63.42s.24.44.6.44h20.43c.37,0,.63-.07.63-.43s-.26-.43-.63-.43Z"/>
      <path class="cls-1" d="m39.04,1.56v-.07c-.03-.18-.17-.29-.29-.32-.08-.02-.19-.1-.27-.1-.23,0-.39-.03-.46.03l-.24.18-10.35,20.6c-.25.51-.57.68-.81.18L16.52,1.21c-.17-.46-.62-.86-1.19-.86h-5.8s-3.63.02-3.63.02c-.3,0-.56,0-.7,0H.98s-.57,0-.57,0c-.13.04-.23.16-.23.45,0,.34.28.4.66.4h3.08c2.16-.05,1.77,1.29,1.77,2.33v33.41c0,.63-.25,1.35-.95,1.35H.65c-.37,0-.65.13-.65.48s.27.4.65.4h12.89c.36,0,.61-.07.61-.43s-.24-.46-.61-.46h-5.03c-.7,0-1.25-.72-1.25-1.35V2.75c.24-.74,1.3-.33,1.65-.11l13.97,28.81c.12.31.29.65.87.65s.72-.41.8-.63L39.02,1.72c.01-.05.02-.11.02-.16Z"/>
      <path class="cls-1" d="m54.95,38.33l-5.49-.02c-.7,0-.74-.63-.74-1.26V3.43c0-1.04.02-2.22,2.92-2.22h2.84c.37,0,.63-.07.63-.42,0-.33-.31-.39-.72-.39h-10.02s-.71,0-.71,0c-1.1.09-1.69.78-1.71.8-.31.33-.61.9-.62,1.87v33.97c0,.63-.51,1.28-1.21,1.28h-4.15c-.41,0-.63.16-.63.49s.16.37.57.37h18.98c.41,0,.66-.04.66-.37s-.19-.49-.6-.49Z"/>
      <path class="cls-1" d="m215.94,38.3h-5.04c-.19,0-.37-.39-.43-.55L195.98.76c-.16-.36-.35-.76-.78-.76-.5,0-.68.41-.85.77l-2.7,6.89c-.29.73-.29,1.54-.01,2.28v.04s.19.46.19.46l7.22,18.98,3.14,8.07c.06.15,0,.27-.04.33-.08.12-.21.49-.37.49h-7.19c-.37,0-.61.07-.61.42s.21.43.59.43h21.37c.38,0,.67-.12.67-.47s-.29-.39-.67-.39Z"/>
      <path class="cls-1" d="m175.06,39.19h10.71c.69,0,.77-.14.78-.37.02-.43-.05-.47-.68-.47l-4.83-.02s-.12-.4-.15-.45v-.03s3.11-8.12,3.11-8.12c.02-.05.11-.13.18-.13l10.12.04h.14c.36-.06.58-.11.7-.32.04-.07.15-.41.07-.6-.04-.2-.26-.53-.85-.64l-9.56-.06c-.08,0-.11-.02-.1-.06l5.09-12.91.15-.43c.04-.37-.15-.64-.34-.78-.13-.08-.27-.12-.41-.12-.2,0-.49.08-.76.52l-9.22,23.56c-.05.12-.16.53-.18.55l-3.9-.02c-.51,0-.86-.04-.88.49-.01.28.14.36.8.36Z"/>
      <path class="cls-1" d="m131.19,38.32h-4.05c-.43,0-.57.11-.57.38,0,.35.2.46.55.46h31.96c.41,0,.82-.35.86-.76v-10.68c-.02-.14-.06-.58-.53-.58-.35,0-.53.3-.53.57-1.1,7.62-4.86,10.53-13.74,10.53h-4.77c-.41,0-.7-.4-.7-.79V2.23c0-.18.01-.24.01-.49V.35s-12.45,0-12.45,0c-.36,0-.61.06-.61.41s.25.42.61.42h3.94c.41,0,.75.66.75,1.06v35.07c0,.39-.32,1.02-.73,1.02Z"/>
      <path class="cls-1" d="m109.27,20.22c0-9.49-6.98-17.37-16.62-18.84h0s-.2-.04-.2-.04c-.02,0-.04,0-.05,0h-.07s-.05-.02-.05-.02h-.03s-.04,0-.04,0h0s-.03,0-.03,0c-.39,0-.54.22-.58.36-.04.22.09.41.34.54l-.02.05.26.04h0s0,0,0,0c0,0,0,0,0,0h0s.02,0,.02,0c1.73.3,3.17.93,4.28,1.87,3.1,2.63,3.71,7.87,3.71,16.04s-.62,13.32-3.71,15.84c-1.4,1.14-2.68,1.76-4.27,2.06h-.05s0,0,0,0h-.06s-.1.03-.1.03v.02c-.45.19-.44.52-.43.57.02.11.11.38.52.41h0s0,0,0,0h.01l.17-.02h.05s.02,0,.02,0l.2-.03h0c9.85-1.34,16.71-9.07,16.71-18.88Z"/>
      <path class="cls-1" d="m86.59,39.09h0s.13.02.13.02c.04,0,.07.01.11.02h.03s.05.01.05.01h0s.04,0,.04,0h0s.02,0,.02,0h.02s.05,0,.05,0v-.02c.36-.04.51-.26.54-.41.02-.14-.03-.26-.12-.37h0c-.19-.08-.67-.25-.93-.34-1.38-.33-2.55-.93-3.8-1.95-3.09-2.52-3.71-7.93-3.71-15.84s.61-13.41,3.71-16.04c.24-.2.51-.4.89-.64.11-.07.23-.14.36-.21.14-.07.28-.14.42-.21.07-.04.14-.07.22-.11.14-.06.29-.12.45-.18.15-.06.3-.11.45-.16v.02s.33-.12.33-.12c.37-.11.75-.2,1.13-.27l.21-.04v-.04c.3-.14.39-.38.37-.52-.02-.17-.16-.34-.45-.39v-.03s-.13.02-.13.02c0,0,0,0,0,0,0,0-.03,0-.07.01h-.04s-.08.02-.12.03c-.05,0-.1.02-.1.02h0c-9.69,1.43-16.71,9.32-16.71,18.85s6.84,17.51,16.65,18.87Z"/>
      <path class="cls-1" d="m4.77,59.58c.73,0,1.27.19,1.6.57.33.38.55.86.64,1.44h1.53c-.13-1.25-.53-2.14-1.19-2.65-.66-.51-1.52-.77-2.57-.77-1.24,0-2.25.46-3.05,1.37-.8.91-1.2,2.19-1.2,3.84,0,1.34.36,2.46,1.09,3.35.73.9,1.7,1.34,2.93,1.34,1.09,0,1.99-.29,2.68-.86.7-.57,1.14-1.48,1.31-2.72h-1.53c-.15.69-.41,1.23-.79,1.63s-.9.6-1.55.6c-.85,0-1.48-.32-1.87-.96-.4-.64-.6-1.43-.6-2.36s.14-1.71.42-2.35c.43-.98,1.15-1.47,2.15-1.47Z"/>
      <path class="cls-1" d="m16.16,58.17c-1.34,0-2.4.47-3.19,1.4-.79.93-1.19,2.18-1.19,3.76,0,1.47.37,2.64,1.13,3.51.75.87,1.77,1.31,3.05,1.31,1.53,0,2.66-.49,3.39-1.48.73-.98,1.09-2.23,1.09-3.74s-.41-2.74-1.24-3.55c-.83-.8-1.84-1.21-3.04-1.21Zm2.06,7.43c-.38.79-1.09,1.18-2.12,1.18-.94,0-1.63-.33-2.06-1-.43-.66-.65-1.49-.65-2.49s.22-1.92.65-2.66c.43-.73,1.12-1.1,2.07-1.1,1.07,0,1.83.43,2.26,1.29.28.55.41,1.26.41,2.13,0,.96-.19,1.84-.58,2.63Z"/>
      <rect class="cls-1" x="24.72" y="54.96" width="1.57" height="12.84"/>
      <path class="cls-1" d="m34.71,58.17c-1.34,0-2.4.47-3.19,1.4-.79.93-1.19,2.18-1.19,3.76,0,1.47.37,2.64,1.13,3.51.75.87,1.77,1.31,3.05,1.31,1.53,0,2.67-.49,3.39-1.48.73-.98,1.09-2.23,1.09-3.74s-.41-2.74-1.24-3.55c-.83-.8-1.84-1.21-3.04-1.21Zm2.06,7.43c-.38.79-1.09,1.18-2.12,1.18-.94,0-1.63-.33-2.06-1-.43-.66-.65-1.49-.65-2.49s.22-1.92.65-2.66c.43-.73,1.12-1.1,2.07-1.1,1.07,0,1.83.43,2.26,1.29.28.55.41,1.26.41,2.13,0,.96-.19,1.84-.58,2.63Z"/>
      <path class="cls-1" d="m47.32,58.23c-.62,0-1.17.23-1.65.68-.48.45-.78.84-.9,1.15v-1.62h-1.49v9.36h1.57v-5.39c0-.66.21-1.25.64-1.76.43-.51,1.04-.76,1.83-.76.09,0,.18,0,.26,0,.08,0,.17.02.26.04v-1.66c-.17-.02-.29-.03-.36-.04-.07,0-.12,0-.15,0Z"/>
      <path class="cls-1" d="m62.11,66.07l-2.51-7.63h-1.78l3.46,9.64c-.08.21-.21.53-.39.96-.18.43-.28.67-.31.72-.09.14-.21.26-.35.35-.14.1-.35.14-.64.14-.09,0-.2,0-.32-.03-.12-.02-.32-.06-.59-.14v1.43c.18.05.32.08.44.1.12.02.29.03.51.03.91,0,1.55-.26,1.92-.79.37-.52,1.01-1.98,1.92-4.37.39-1.01.86-2.33,1.44-3.94.76-2.14,1.26-3.51,1.48-4.11h-1.74l-2.53,7.63Z"/>
      <path class="cls-1" d="m73.79,58.17c-1.34,0-2.4.47-3.19,1.4-.79.93-1.19,2.18-1.19,3.76,0,1.47.37,2.64,1.13,3.51.75.87,1.77,1.31,3.05,1.31,1.53,0,2.67-.49,3.39-1.48.73-.98,1.09-2.23,1.09-3.74s-.41-2.74-1.24-3.55c-.83-.8-1.84-1.21-3.04-1.21Zm2.06,7.43c-.38.79-1.09,1.18-2.12,1.18-.94,0-1.63-.33-2.06-1-.43-.66-.65-1.49-.65-2.49s.22-1.92.65-2.66c.43-.73,1.12-1.1,2.07-1.1,1.07,0,1.83.43,2.27,1.29.28.55.41,1.26.41,2.13,0,.96-.19,1.84-.58,2.63Z"/>
      <path class="cls-1" d="m88.12,63.04c0,.92-.11,1.64-.32,2.16-.39.98-1.11,1.47-2.18,1.47-.74,0-1.25-.28-1.52-.84-.15-.3-.22-.69-.22-1.17v-6.22h-1.61v6.37c0,.8.13,1.44.39,1.91.47.89,1.37,1.34,2.68,1.34.84,0,1.56-.25,2.14-.73.3-.25.55-.54.75-.9l-.02,1.38h1.49v-9.36h-1.57v4.6Z"/>
      <path class="cls-1" d="m98.67,58.23c-.62,0-1.17.23-1.65.68-.48.45-.78.84-.9,1.15v-1.62h-1.49v9.36h1.57v-5.39c0-.66.21-1.25.64-1.76.43-.51,1.03-.76,1.83-.76.09,0,.18,0,.26,0,.08,0,.17.02.26.04v-1.66c-.17-.02-.29-.03-.36-.04-.07,0-.12,0-.15,0Z"/>
      <path class="cls-1" d="m109.18,63.2c-.39-.26-1.16-.52-2.32-.8l-1.06-.25c-.46-.11-.81-.24-1.05-.38-.41-.24-.62-.57-.62-.98,0-.37.16-.67.47-.9.31-.23.78-.34,1.38-.34.91,0,1.55.2,1.92.62.23.29.36.61.39.96h1.49c.01-.61-.18-1.17-.58-1.7-.63-.83-1.66-1.24-3.09-1.24-1.09,0-1.96.27-2.61.82-.65.55-.97,1.26-.97,2.15,0,.75.35,1.34,1.03,1.77.39.25.98.47,1.8.66l1.27.31c.68.17,1.14.32,1.37.45.36.21.54.52.54.92,0,.53-.22.92-.68,1.17-.45.25-.98.38-1.57.38-1,0-1.7-.25-2.1-.76-.22-.28-.36-.68-.4-1.2h-1.51c.04.93.35,1.71.94,2.35.59.63,1.59.95,3,.95,1.31,0,2.28-.3,2.93-.91.64-.6.96-1.32.96-2.16s-.3-1.49-.92-1.9Z"/>
      <path class="cls-1" d="m121.93,61.56c-.1-.63-.31-1.18-.62-1.65-.32-.5-.8-.9-1.42-1.21-.62-.31-1.26-.47-1.92-.47-1.31,0-2.37.47-3.18,1.41-.81.94-1.22,2.16-1.22,3.66s.4,2.72,1.21,3.56c.8.85,1.79,1.27,2.94,1.27.47,0,.9-.05,1.27-.14.7-.16,1.29-.48,1.76-.94.28-.27.54-.61.77-1.04.23-.42.37-.81.41-1.15h-1.55c-.11.42-.3.78-.58,1.1-.48.54-1.14.82-1.95.82-.87,0-1.52-.29-1.93-.86-.42-.58-.64-1.34-.67-2.29h6.81c0-.94-.05-1.63-.14-2.06Zm-6.63.81c.03-.8.29-1.47.77-1.99.48-.52,1.09-.78,1.8-.78,1,0,1.71.38,2.14,1.13.23.41.38.95.44,1.64h-5.16Z"/>
      <rect class="cls-1" x="126.42" y="54.96" width="1.57" height="12.84"/>
      <path class="cls-1" d="m135.52,54.78c-1.05,0-1.76.27-2.12.8-.2.3-.32.78-.34,1.43v1.47h-1.3v1.24h1.3v8.08h1.56v-8.08h1.57v-1.24h-1.57c0-1.01.05-1.64.14-1.89.09-.25.38-.37.87-.37.07,0,.13,0,.21,0,.07,0,.19,0,.36.02v-1.43c-.13-.01-.25-.02-.36-.03-.11,0-.21,0-.31,0Z"/>
      <path class="cls-1" d="m149.13,55.83h-1.59v2.61h-1.27v1.28h1.27v6.2c0,.6.13,1.09.39,1.46.26.37.76.56,1.49.56.23,0,.44-.01.63-.03.19-.02.38-.06.56-.11v-1.25c-.12.01-.22.03-.31.03-.09,0-.17,0-.25,0-.29,0-.49-.03-.61-.1-.22-.11-.33-.33-.33-.66v-6.11h1.49v-1.28h-1.49v-2.61Z"/>
      <path class="cls-1" d="m158.26,58.17c-1.34,0-2.4.47-3.19,1.4-.79.93-1.19,2.18-1.19,3.76,0,1.47.37,2.64,1.13,3.51.75.87,1.77,1.31,3.05,1.31,1.53,0,2.66-.49,3.39-1.48.73-.98,1.09-2.23,1.09-3.74s-.41-2.74-1.24-3.55c-.83-.8-1.84-1.21-3.04-1.21Zm2.06,7.43c-.38.79-1.09,1.18-2.12,1.18-.94,0-1.63-.33-2.06-1-.43-.66-.65-1.49-.65-2.49s.22-1.92.65-2.66c.43-.73,1.12-1.1,2.07-1.1,1.07,0,1.83.43,2.26,1.29.28.55.41,1.26.41,2.13,0,.96-.19,1.84-.58,2.63Z"/>
      <path class="cls-1" d="m177.39,66.07l-2.51-7.63h-1.78l3.46,9.64c-.08.21-.21.53-.39.96-.18.43-.28.67-.31.72-.09.14-.21.26-.35.35-.14.1-.35.14-.64.14-.09,0-.2,0-.32-.03-.12-.02-.32-.06-.59-.14v1.43c.18.05.32.08.44.1.12.02.29.03.51.03.91,0,1.55-.26,1.92-.79.37-.52,1.01-1.98,1.92-4.37.39-1.01.86-2.33,1.44-3.94.76-2.14,1.26-3.51,1.48-4.11h-1.74l-2.53,7.63Z"/>
      <path class="cls-1" d="m189.06,58.17c-1.34,0-2.4.47-3.19,1.4-.79.93-1.19,2.18-1.19,3.76,0,1.47.37,2.64,1.13,3.51.75.87,1.77,1.31,3.05,1.31,1.53,0,2.67-.49,3.39-1.48.73-.98,1.09-2.23,1.09-3.74s-.41-2.74-1.24-3.55c-.83-.8-1.84-1.21-3.04-1.21Zm2.06,7.43c-.38.79-1.09,1.18-2.12,1.18-.94,0-1.63-.33-2.06-1-.43-.66-.65-1.49-.65-2.49s.22-1.92.65-2.66c.43-.73,1.12-1.1,2.07-1.1,1.07,0,1.83.43,2.27,1.29.27.55.41,1.26.41,2.13,0,.96-.19,1.84-.58,2.63Z"/>
      <path class="cls-1" d="m203.4,63.04c0,.92-.11,1.64-.32,2.16-.39.98-1.11,1.47-2.18,1.47-.74,0-1.25-.28-1.52-.84-.15-.3-.22-.69-.22-1.17v-6.22h-1.61v6.37c0,.8.13,1.44.39,1.91.47.89,1.37,1.34,2.68,1.34.84,0,1.56-.25,2.14-.73.3-.25.55-.54.75-.9l-.02,1.38h1.49v-9.36h-1.57v4.6Z"/>
      <path class="cls-1" d="m213.94,58.23c-.62,0-1.17.23-1.65.68-.48.45-.78.84-.9,1.15v-1.62h-1.49v9.36h1.57v-5.39c0-.66.21-1.25.64-1.76.43-.51,1.04-.76,1.83-.76.09,0,.18,0,.26,0,.08,0,.17.02.26.04v-1.66c-.17-.02-.29-.03-.36-.04-.07,0-.12,0-.15,0Z"/>
      <path class="cls-1" d="m235.06,58.23c-.59,0-1.12.12-1.59.36-.47.24-.88.61-1.23,1.11-.21-.41-.44-.72-.7-.93-.46-.37-1.05-.55-1.8-.55-.66,0-1.25.18-1.77.53-.3.21-.64.55-1.01,1.01v-1.33h-1.56v9.36h1.57v-4.96c0-1.21.24-2.04.73-2.5.49-.46,1.03-.69,1.62-.69.65,0,1.1.22,1.34.66.15.29.23.76.23,1.39v6.11h1.6v-5.45c0-.97.22-1.66.67-2.07.44-.41.98-.62,1.6-.62.45,0,.83.12,1.14.35.31.23.47.66.47,1.28v6.5h1.63v-6.23c0-.83-.12-1.49-.37-1.97-.46-.91-1.31-1.37-2.57-1.37Z"/>
      <path class="cls-1" d="m246.37,58.17c-1.34,0-2.4.47-3.19,1.4-.79.93-1.19,2.18-1.19,3.76,0,1.47.37,2.64,1.13,3.51.75.87,1.77,1.31,3.05,1.31,1.53,0,2.66-.49,3.39-1.48.73-.98,1.09-2.23,1.09-3.74s-.41-2.74-1.24-3.55c-.83-.8-1.84-1.21-3.04-1.21Zm2.06,7.43c-.38.79-1.09,1.18-2.12,1.18-.94,0-1.63-.33-2.06-1-.43-.66-.65-1.49-.65-2.49s.22-1.92.65-2.66c.43-.73,1.12-1.1,2.07-1.1,1.07,0,1.83.43,2.27,1.29.28.55.41,1.26.41,2.13,0,.96-.19,1.84-.58,2.63Z"/>
      <path class="cls-1" d="m258.64,58.17c-1.34,0-2.4.47-3.19,1.4-.79.93-1.19,2.18-1.19,3.76,0,1.47.37,2.64,1.13,3.51.75.87,1.77,1.31,3.05,1.31,1.53,0,2.66-.49,3.39-1.48.73-.98,1.09-2.23,1.09-3.74s-.41-2.74-1.24-3.55c-.83-.8-1.84-1.21-3.04-1.21Zm2.06,7.43c-.38.79-1.09,1.18-2.12,1.18-.94,0-1.63-.33-2.06-1-.43-.66-.65-1.49-.65-2.49s.22-1.92.65-2.66c.43-.73,1.12-1.1,2.07-1.1,1.07,0,1.83.43,2.26,1.29.28.55.41,1.26.41,2.13,0,.96-.19,1.84-.58,2.63Z"/>
      <path class="cls-1" d="m273.25,59.65c-.35-.44-.67-.74-.95-.92-.48-.3-1.08-.46-1.79-.46-1.29,0-2.28.5-2.97,1.5-.69,1-1.04,2.18-1.04,3.55,0,1.46.38,2.62,1.14,3.5.76.88,1.66,1.32,2.7,1.32.65,0,1.22-.13,1.72-.39.5-.26.93-.67,1.3-1.25v1.3h1.42v-12.89h-1.51v4.73Zm-.64,6.18c-.47.63-1.06.94-1.79.94-.93,0-1.61-.34-2.03-1.01-.42-.68-.64-1.52-.64-2.52,0-1.18.25-2.07.73-2.67.49-.61,1.13-.91,1.92-.91.71,0,1.3.29,1.78.85.48.57.72,1.44.72,2.63s-.23,2.07-.7,2.7Z"/>
    </g>
  </g>
</svg>