<?xml version="1.0" encoding="UTF-8"?>
<svg id="_レイヤー_2" data-name="レイヤー 2" xmlns="http://www.w3.org/2000/svg" viewBox="0 0 14.58 3.05">
  <defs>
    <style>
      .cls-1 {
        fill: #ed7a93;
        stroke-width: 0px;
      }
    </style>
  </defs>
  <g id="MV">
    <g>
      <path class="cls-1" d="m1.66,2.04c.37.33.83.57,1.26.72.05.02.07.05.07.08,0,.05-.05.1-.11.1-.08,0-.79-.32-1.3-.8v.81c0,.05-.04.08-.08.08-.05,0-.09-.02-.09-.08v-.81C.88,2.67.17,2.97.1,2.97c-.06,0-.1-.05-.1-.09,0-.04.02-.07.07-.08.46-.16.89-.42,1.25-.76H.15c-.06,0-.08-.03-.08-.07s.03-.08.08-.08h1.26s0-.23,0-.23h0c0-.06.05-.08.09-.08s.09.02.09.08h0s0,.23,0,.23h1.28c.05,0,.08.04.08.08,0,.04-.03.08-.08.08h-1.21ZM.12,1.52c-.05,0-.09-.05-.09-.09,0-.03.02-.07.06-.08.28-.09.38-.15.58-.28.02-.01.03-.02.04-.02.05,0,.08.05.08.09,0,.03-.01.06-.04.07-.31.22-.59.31-.63.31Zm.49-.81c-.14-.12-.33-.24-.43-.28-.03-.01-.04-.03-.04-.06,0-.04.05-.09.1-.09.08,0,.4.2.49.28.02.02.03.05.03.07,0,.05-.04.1-.09.1-.02,0-.04,0-.06-.02Zm1.16-.35c.18,0,.27.12.27.25,0,.14.01.31.01.46,0,.06,0,.12,0,.17,0,.15-.1.27-.29.28-.07,0-.16,0-.25,0s-.19,0-.26,0c-.2,0-.3-.11-.31-.27,0-.05,0-.11,0-.17,0-.15,0-.31.01-.44,0-.13.09-.27.29-.27.04,0,.08,0,.12,0,.02-.09.06-.3.06-.3.01-.04.05-.07.09-.07.05,0,.09.03.09.08,0,.04-.04.19-.07.28.08,0,.16,0,.23,0Zm.12.49c0-.35,0-.36-.39-.36-.29,0-.38,0-.39.17,0,.05,0,.11,0,.18h.79Zm-.79.14v.22c0,.17.16.17.4.17s.38-.01.38-.18c0-.06,0-.13,0-.21h-.79Zm1.17-.22s-.09-.05-.09-.09c0-.02.01-.05.04-.06.14-.06.34-.19.48-.33.02-.02.04-.03.07-.03.05,0,.09.05.09.1,0,.02-.01.05-.04.08-.13.12-.48.33-.54.33Zm.48.69c-.14-.13-.34-.22-.49-.28-.04-.01-.05-.04-.05-.07,0-.04.04-.08.09-.08.07,0,.37.13.56.28.04.03.05.06.05.09,0,.05-.04.09-.09.09-.02,0-.05,0-.07-.03Z"/>
      <path class="cls-1" d="m5.5,1.43c.19.62.73,1.15,1.28,1.31.05.01.08.06.08.1,0,.06-.04.11-.11.11-.16,0-1.09-.46-1.38-1.42-.32,1.22-1.37,1.45-1.39,1.45-.06,0-.11-.05-.11-.1,0-.04.02-.07.08-.09.73-.22,1.12-.75,1.26-1.36h-1.03c-.06,0-.09-.04-.09-.08,0-.04.03-.09.09-.09h1.06c.02-.14.03-.21.03-.43,0-.12,0-.26,0-.34h-1.21c-.06,0-.09-.04-.09-.08,0-.05.03-.09.09-.09h2.61c.06,0,.09.04.09.09,0,.04-.03.09-.09.09h-1.21c0,.51,0,.58-.04.77h1.11c.06,0,.09.04.09.08,0,.04-.03.09-.09.09h-1.03Z"/>
      <path class="cls-1" d="m7.85.71c-.06,0-.09-.04-.09-.09,0-.05.03-.09.09-.09h1.26s0-.43,0-.43c0-.06.05-.09.1-.09.05,0,.1.03.1.09v.44s1.24,0,1.24,0c.06,0,.09.04.09.09,0,.04-.03.09-.09.09h-2.69Zm2.47,1.63c0,.23-.13.37-.43.37-.07,0-.16-.01-.25-.03-.05,0-.07-.04-.07-.08,0-.05.03-.1.08-.1h.01c.09.02.16.02.23.02.15,0,.24-.05.24-.19h0s0-.69,0-.8c0-.12-.06-.2-.2-.2-.17,0-.4,0-.63,0v1.6c0,.06-.04.09-.09.09s-.1-.03-.1-.09v-1.6c-.22,0-.43,0-.59,0-.14,0-.21.08-.21.21,0,.07,0,.25,0,.44,0,.27,0,.57,0,.69h0c0,.06-.05.09-.09.09s-.1-.03-.1-.09c0-.1,0-.34,0-.58s0-.49,0-.59c0-.2.12-.33.38-.33.18,0,.4,0,.62,0v-.3c0-.06.05-.08.1-.08.04,0,.09.03.09.08v.3c.23,0,.46,0,.67,0,.22,0,.35.13.35.33,0,.1,0,.4,0,.59v.24Z"/>
      <path class="cls-1" d="m12,.99h-.35c-.05,0-.08-.04-.08-.08,0-.04.03-.08.08-.08h.35V.14c0-.06.04-.09.09-.09s.09.03.09.09v.68s.3,0,.3,0c.05,0,.08.04.08.08,0,.04-.02.08-.08.08h-.31v.81c.12-.05.23-.1.32-.15.01,0,.02-.01.04-.01.04,0,.07.04.07.08,0,.03-.01.06-.05.08-.11.06-.83.38-.96.38-.06,0-.09-.04-.09-.09,0-.04.02-.07.07-.09.14-.04.29-.09.43-.14v-.87Zm1.28.58c-.05.09-.12.17-.18.26.29,0,.72,0,1,0,.18,0,.3.1.3.31,0,.05-.02.35-.1.57-.08.21-.24.31-.45.31-.22,0-.27-.06-.27-.12,0-.04.03-.09.08-.09.01,0,.02,0,.03,0,.06.02.12.02.17.02.13,0,.23-.06.28-.2.01-.03.09-.32.09-.51,0-.11-.05-.17-.17-.17h-.06c-.27.77-.8,1.09-.91,1.09-.05,0-.09-.04-.09-.08,0-.03.01-.06.05-.07.37-.19.62-.51.78-.94h-.34c-.31.63-.87.93-.97.93-.06,0-.09-.04-.09-.09,0-.02.01-.05.05-.07.36-.15.65-.42.83-.78h-.33c-.3.33-.61.51-.67.51-.05,0-.08-.04-.08-.08,0-.03.01-.05.04-.07.34-.18.6-.42.81-.75h-.48c-.05,0-.08-.04-.08-.08s.03-.08.08-.08h1.9c.05,0,.08.04.08.08s-.02.08-.08.08h-1.23Zm.2-.4c-.6,0-.64-.04-.64-.41,0-.13,0-.27,0-.39,0-.14.11-.26.32-.27.1,0,.21,0,.32,0s.22,0,.32,0c.19,0,.3.12.31.24,0,.1,0,.21,0,.33,0,.46,0,.5-.65.5Zm.48-.47h-.95c0,.07,0,.13,0,.17,0,.14.08.15.45.15.39,0,.49,0,.5-.16v-.17Zm0-.14c0-.3,0-.31-.41-.31-.12,0-.25,0-.35,0-.18,0-.18.1-.18.3h.94Z"/>
    </g>
  </g>
</svg>