<?xml version="1.0" encoding="UTF-8"?>
<svg id="_レイヤー_2" data-name="レイヤー 2" xmlns="http://www.w3.org/2000/svg" viewBox="0 0 91.08 15.46">
  <defs>
    <style>
      .cls-1 {
        fill: #fff;
        stroke-width: 0px;
      }
    </style>
  </defs>
  <g id="hedder">
    <g>
      <path class="cls-1" d="m0,8.76c0-.16.09-.33.29-.45,1.92-1.14,3.04-2.78,3.9-4.44.11-.22.29-.29.45-.29.27,0,.54.23.54.52,0,.07-.02.14-.05.23-1.52,2.82-3.88,4.91-4.59,4.91-.33,0-.54-.23-.54-.49Zm1.61,6.23c-.31,0-.47-.25-.47-.51,0-.23.14-.47.45-.49.69-.04,1.43-.09,2.17-.16.76-1.45,2.02-4.79,2.48-6.76.07-.27.27-.38.49-.38.31,0,.61.2.61.49,0,.43-1.52,4.52-2.47,6.54,2.26-.25,4.61-.61,6.56-.99-.58-.83-1.23-1.59-1.9-2.22-.11-.11-.16-.22-.16-.33,0-.23.23-.43.51-.43.13,0,.25.04.38.14,1.86,1.61,3.32,4.14,3.32,4.64,0,.38-.29.63-.58.63-.2,0-.38-.13-.49-.4-.14-.43-.36-.85-.6-1.26-3.59.85-9.23,1.48-10.3,1.48ZM5.28,2.15h-.02c-.31,0-.45-.23-.45-.45,0-.23.14-.47.45-.47l2.76-.05h.09c.9,0,1.55.25,1.99,1.14,1.08,2.17,2.44,3.87,4.66,5.2.22.13.31.31.31.49,0,.31-.29.61-.65.61-.56,0-3.36-2.19-5.11-5.76-.31-.63-.72-.78-1.39-.78h-.13l-2.51.07Z"/>
      <path class="cls-1" d="m29.23,4.53c.18,3.32.85,6.67,2.8,8.94.38.43.71.65.99.65.47,0,.85-.61,1.17-1.88.07-.27.29-.4.49-.4.25,0,.51.16.51.47,0,.18-.58,2.82-2.19,2.82-.56,0-1.12-.33-1.61-.89-2.04-2.37-2.85-5.91-3.13-9.72l-8.04.02c-.31,0-.47-.23-.47-.45,0-.23.16-.45.47-.45l7.99.02c-.05-1.07-.07-2.15-.07-3.22,0-.29.25-.45.52-.45.25,0,.51.16.51.51v.02c-.02.58-.02,1.19-.02,1.79,0,.45,0,.9.02,1.35l5.29-.02c.31,0,.45.22.45.45,0,.22-.14.45-.45.45l-5.24-.02Zm-5.58,3.69h-2.49c-.29,0-.43-.2-.43-.42s.14-.43.43-.43h5.78c.29,0,.42.22.42.42,0,.22-.13.43-.42.43h-2.37v4.14c1.19-.34,2.28-.69,3.02-.96.05-.02.13-.04.18-.04.24,0,.42.22.42.43,0,.16-.09.33-.33.42-2.26.87-6.77,2.13-7.32,2.13-.32,0-.51-.25-.51-.51,0-.22.13-.43.45-.49.96-.18,2.08-.43,3.16-.72v-4.41Zm8.85-5.82c-.52-.56-1.45-1.12-1.86-1.32-.16-.07-.23-.22-.23-.34,0-.22.18-.43.45-.43.34,0,1.86.98,2.29,1.37.13.13.2.27.2.4,0,.27-.22.51-.47.51-.13,0-.25-.05-.38-.18Z"/>
      <path class="cls-1" d="m49.93,6.47c-.18,6.58-5.4,8.89-5.89,8.89-.31,0-.49-.22-.49-.47,0-.2.13-.4.36-.51,3.69-1.64,4.9-4.97,5-7.77v-.16c-1.1.05-2.19.13-3.16.22.04.69.05,1.37.05,1.92,0,.33-.02.6-.02.79-.02.45-.31.69-.6.69-.24,0-.45-.18-.45-.52v-.09c.04-.43.07-.96.07-1.52,0-.38-.02-.78-.04-1.17-.76.07-1.41.13-1.9.18-2.22.23-2.66.29-2.8.29-.36,0-.6-.27-.6-.52,0-.27.22-.52.72-.52.61,0,1.28-.04,4.52-.31-.02-.31-.04-.4-.36-2.46,0-.05-.02-.11-.02-.14,0-.38.27-.58.52-.58.58,0,.6.36.83,3.09,1.01-.07,2.15-.16,3.23-.23,0-.04.04-1.26.04-2.01,0-.49-.02-.99-.07-1.48v-.09c0-.38.25-.56.52-.56.6,0,.63.43.63,1.46,0,.31-.02.61-.04.92-.04.56-.05,1.14-.07,1.7,2.44-.14,3.61-.2,4.34-.2.42,0,.65.25.65.51s-.22.51-.67.51c-.98.02-1.68.02-2.51.04-.58,0-1.19.02-1.82.05v.07Z"/>
      <path class="cls-1" d="m68.53,14.53c0,.45-.29.69-.58.69-.25,0-.51-.22-.51-.65v-.02c.02-1.61.13-3.72.13-5.4,0-1.03-.04-1.77-.11-2.19-2.1,2.29-5.4,4.81-6.2,4.81-.34,0-.56-.25-.56-.51,0-.2.11-.4.36-.52,4.19-2.06,7.89-6.56,8.56-8.76.07-.25.31-.36.52-.36.29,0,.58.18.58.54,0,.29-.4,1.48-2.48,3.9.31.31.33,1.03.33,1.39,0,.2-.02.4-.02.61-.04.96-.05,2.57-.05,4.12,0,.83,0,1.64.02,2.33v.02Z"/>
      <path class="cls-1" d="m86.13,7.43c0,2.55.04,5.42.07,7.19.02.58-.33.85-.63.85-.27,0-.52-.22-.52-.63v-.04c.05-1.88.09-4.88.09-7.5,0-3.99-.05-5.08-.22-5.65-.02-.05-.02-.11-.02-.14,0-.33.27-.49.54-.49.42,0,.72.09.72,1.88v.27c-.02.79-.04,2.01-.04,3.38.09-.04.2-.07.33-.07.79,0,4.62,1.05,4.62,2.08,0,.31-.27.6-.58.6-.13,0-.27-.04-.4-.16-.85-.79-2.91-1.46-3.88-1.55h-.09Z"/>
    </g>
  </g>
</svg>