<?xml version="1.0" encoding="UTF-8"?>
<svg id="_レイヤー_2" data-name="レイヤー 2" xmlns="http://www.w3.org/2000/svg" viewBox="0 0 161.62 15.09">
  <defs>
    <style>
      .cls-1 {
        fill: #fff;
        stroke-width: 0px;
      }
    </style>
  </defs>
  <g id="hedder">
    <g>
      <path class="cls-1" d="m12.81,1.39v.27c-.63,0-1.99,0-3.99,3.97l-1.28,2.67v3.69c0,1.35.69,1.82,1.45,1.82v.29H3.94v-.29c.76,0,1.45-.47,1.45-1.82v-2.98C2.73,4.32,1.91,3.05,1.91,3.05,1.12,1.68.52,1.66,0,1.64v-.25h5.2v.25c-.45,0-1.64-.04-.42,2.04l2.6,4.34,1.3-2.67c.31-.63,1.61-3.69-.92-3.69v-.27h5.04Z"/>
      <path class="cls-1" d="m21,13.03c-.13.56-.85,1.25-1.9,1.25,0,0-1.5.02-1.66-1.5-.25.83-1.32,1.5-2.58,1.5,0,0-2.08,0-2.08-1.84s1.52-2.19,4.64-2.98v-1.08c0-1.86-.98-2.85-2.33-2.2-.63.33-.72.65-.61.67.25.04.45.14.61.36.31.42.2.99-.22,1.3-.42.29-1.01.2-1.3-.22-.22-.31-.23-.7-.07-.99.16-.29.43-.79,1.41-1.32.79-.42,1.72-.36,1.72-.36,2.17,0,2.75,1.48,2.75,3.61v2.89s0,1.19.85,1.19c0,0,.4,0,.51-.38l.27.11Zm-6.25-1.01c0,.25.16,1.3,1.3,1.3.78,0,1.21-.56,1.37-.99v-2.57c-1.93.43-2.67,1.25-2.67,2.26Z"/>
      <path class="cls-1" d="m31.45,14.11h-3.38v-.27c.69-.2.72-.76.72-1.68v-3.63c0-1.17-.54-1.79-1.7-1.79-.69,0-1.34.6-1.68,1.26v4.16c0,.99.09,1.5.74,1.66v.29h-3.38v-.29c.69-.2.72-.74.72-1.66V2.66c0-.63-.16-.83-.9-1.03v-.27l2.82-.65v6.9c.33-.99,1.75-2.01,2.91-2.01,1.46,0,2.38.69,2.38,2.85v3.7c0,.99.11,1.52.74,1.68v.27Z"/>
      <path class="cls-1" d="m37.61,14.27c-2.75,0-4.23-1.97-4.23-4.34s1.48-4.34,4.23-4.34,4.25,1.95,4.25,4.34-1.48,4.34-4.25,4.34Zm0-8.4c-1.34,0-1.97.79-1.97,4.06s.63,4.06,1.97,4.06,1.97-.79,1.97-4.06-.61-4.06-1.97-4.06Z"/>
      <path class="cls-1" d="m48.38,14.27c-2.75,0-4.23-1.97-4.23-4.34s1.48-4.34,4.23-4.34,4.25,1.95,4.25,4.34-1.48,4.34-4.25,4.34Zm0-8.4c-1.34,0-1.97.79-1.97,4.06s.63,4.06,1.97,4.06,1.97-.79,1.97-4.06-.61-4.06-1.97-4.06Z"/>
      <path class="cls-1" d="m57.82,13.04c0,.69-.54,1.23-1.21,1.23s-1.21-.54-1.21-1.23.54-1.21,1.21-1.21,1.21.54,1.21,1.21Zm-.69-2.66l.52-9.74h-2.04l.49,9.74h1.03Z"/>
      <path class="cls-1" d="m69.02,8.98c-.71-.45-1.7-.92-2.51-1.05-.25-.04-.38-.23-.38-.45,0-.25.18-.51.54-.51.54,0,2.35.7,2.96,1.05.22.13.31.31.31.49,0,.31-.24.6-.54.6-.13,0-.25-.04-.38-.13Zm9.16-4.64c.13-.23.32-.33.52-.33.25,0,.51.18.51.51,0,.14-.05.31-.16.51-2.38,4.08-5.11,6.79-8.85,8.89-.58.33-1.32.63-1.86.63-.45,0-.65-.31-.65-.6,0-.23.14-.49.43-.52,2.87-.51,7.39-4.21,10.06-9.09Zm-6.88,1.46c-.6-.61-1.48-1.26-2.24-1.57-.18-.07-.25-.22-.25-.36,0-.25.22-.52.54-.52.45,0,1.92.89,2.76,1.64.14.13.22.29.22.45,0,.31-.25.58-.56.58-.16,0-.33-.05-.47-.22Z"/>
      <path class="cls-1" d="m89.4,10.19c-.96.11-2.35.31-3.23.45-.43.07-.76.11-1.21.11-.33-.02-.52-.25-.52-.47s.16-.42.56-.42c.79,0,.92-.02.96-.02.47-.07,1.9-.27,2.49-.34.32-.04.74-.13,1.07-.16.09,0,.16,0,.24.04.13-.65.23-1.17.29-1.41.02-.05.02-.09.02-.14,0-.14-.07-.2-.18-.2-.02,0-3.56.47-3.9.52-.58.11-1.01.14-1.55.14-.31,0-.49-.22-.49-.43s.16-.42.56-.43c.43-.02.87,0,1.3-.07.45-.07,2.64-.33,3.11-.4.14-.02,1.05-.16,1.28-.16h.04c.67,0,.96.4.96.79,0,.11-.02.22-.05.31-.22.58-.42,1.48-.62,2.37-.14.67-.27,1.34-.4,1.9.04,0,.07-.02.11-.02.36,0,.56.22.56.42,0,.22-.22.45-.71.49-.63.04-2.47.23-4.86.51-.34.04-.67.09-1.01.09-.2,0-.69-.02-.69-.47,0-.22.16-.42.56-.42h.05c.13,0,.25.02.38.02.18,0,.36-.02.56-.04.47-.04,3.32-.43,4.1-.51.13-.61.27-1.37.42-2.08-.05.02-.11.04-.18.04Z"/>
      <path class="cls-1" d="m99.22,10.37c-.16,0-.34-.09-.45-.31-.27-.52-.72-1.17-1.16-1.54-.09-.09-.14-.2-.14-.29,0-.23.22-.47.47-.47.54,0,1.81,1.72,1.81,2.1,0,.29-.25.51-.52.51Zm5.15-3.13c0-.34.27-.52.54-.52.47,0,.52.4.52.69,0,.43-.11.87-.29,1.28-1.19,2.82-2.95,4.84-5.96,6.31-.14.07-.27.09-.38.09-.31,0-.49-.22-.49-.45,0-.18.11-.38.33-.47,4.12-1.84,5.73-5.53,5.73-6.81v-.11Zm-2.75,2.26c-.2,0-.4-.11-.49-.38-.18-.56-.54-1.25-.92-1.66-.07-.07-.11-.16-.11-.25,0-.23.23-.47.51-.47.65,0,1.54,2.06,1.54,2.26,0,.31-.27.51-.52.51Z"/>
      <path class="cls-1" d="m113.87,11.35c0,1.21.79,1.59,2.8,1.59,1.57,0,3.36-.25,4.35-.78.16-.09.31-.13.43-.13.34,0,.6.23.6.52,0,.94-2.56,1.45-5.02,1.45-1.61,0-4.17,0-4.17-2.35,0-.18.05-2.08.2-5.58.02-.29.02-.54.02-.78,0-.81-.07-1.26-.11-1.59v-.09c0-.38.29-.6.58-.6.58,0,.63.54.63,1.66,0,.16-.09,2.33-.14,3.14.54-.09,4.25-.79,5.8-2.06.13-.11.27-.14.42-.14.33,0,.65.25.65.58,0,1.3-6.11,2.55-6.92,2.67-.11,2.38-.11,2.42-.11,2.48Zm8.8-6c-.96,0-1.75-.78-1.75-1.73s.79-1.77,1.75-1.77,1.75.81,1.75,1.77-.78,1.73-1.75,1.73Zm0-2.8c-.58,0-1.05.49-1.05,1.07s.47,1.03,1.05,1.03,1.05-.45,1.05-1.03-.47-1.07-1.05-1.07Z"/>
      <path class="cls-1" d="m132.73,6.83c-.79-.58-2-1.21-2.94-1.41-.22-.05-.31-.22-.31-.42,0-.27.2-.56.6-.56.47,0,2.24.65,3.38,1.37.2.13.29.33.29.52,0,.33-.25.63-.6.63-.13,0-.27-.04-.42-.14Zm.16,6.76c-.96.51-1.57.58-1.86.58-.45,0-.67-.29-.67-.58,0-.23.14-.47.45-.51,1.73-.22,6.88-2.93,9.9-8.78.11-.22.33-.33.51-.33.25,0,.51.2.51.52,0,.14-.04.31-.14.49-2.24,4.05-5,6.67-8.69,8.6Z"/>
      <path class="cls-1" d="m147.69,9.23c-.31,0-.52-.22-.52-.49,0-.18.11-.38.36-.54,2.35-1.41,4.64-4.99,4.91-6.11.09-.33.32-.47.56-.47.29,0,.58.2.58.54,0,.25-.2.78-.56,1.39.42-.05.85-.13,1.25-.2.98-.18,1.88-.33,2.35-.33.83,0,1.25.45,1.25.96,0,.18-.05.38-.16.56-2.78,4.93-5.42,8.47-10.39,10.37-.14.05-.27.07-.4.07-.38,0-.61-.23-.61-.51,0-.23.18-.49.56-.61,4.12-1.37,7.26-4.79,9.54-9.27.09-.18.13-.29.13-.38,0-.2-.18-.22-.43-.22-.43.02-1.57.2-2.2.31-.52.09-1.16.18-1.55.23-1.84,2.55-3.87,4.68-4.64,4.68Zm11.62-5.82c-.29-.36-1.34-1.12-1.77-1.32-.2-.09-.27-.22-.27-.33,0-.2.2-.38.45-.38.29,0,2.31,1.05,2.31,1.66,0,.27-.22.49-.45.49-.09,0-.2-.04-.27-.13Zm1.61-1.43c-.31-.34-1.41-1.08-1.84-1.26-.2-.09-.27-.22-.27-.33,0-.2.2-.4.45-.4.22,0,2.37.96,2.37,1.63,0,.25-.22.49-.45.49-.09,0-.18-.04-.25-.13Z"/>
    </g>
  </g>
</svg>