<?xml version="1.0" encoding="UTF-8"?>
<svg xmlns="http://www.w3.org/2000/svg" version="1.1" viewBox="0 0 163.6 24">
  <defs>
    <style>
      .cls-1 {
        fill: #fff;
      }
    </style>
  </defs>
  <!-- Generator: Adobe Illustrator 28.7.1, SVG Export Plug-In . SVG Version: 1.2.0 Build 142)  -->
  <g>
    <g id="_レイヤー_1" data-name="レイヤー_1">
      <g id="hedder">
        <g>
          <path class="cls-1" d="M11.8,7.2v.2c-.6,0-1.8,0-3.7,3.7l-1.2,2.5v3.4c0,1.2.6,1.7,1.3,1.7v.3H3.7v-.3c.7,0,1.3-.4,1.3-1.7v-2.7c-2.5-4.3-3.2-5.5-3.2-5.5-.7-1.3-1.3-1.3-1.8-1.3v-.2h4.8v.2c-.4,0-1.5,0-.4,1.9l2.4,4,1.2-2.5c.3-.6,1.5-3.4-.8-3.4v-.2h4.7Z"/>
          <path class="cls-1" d="M19.4,17.9c-.1.5-.8,1.2-1.8,1.2,0,0-1.4,0-1.5-1.4-.2.8-1.2,1.4-2.4,1.4,0,0-1.9,0-1.9-1.7s1.4-2,4.3-2.7v-1c0-1.7-.9-2.6-2.1-2-.6.3-.7.6-.6.6.2,0,.4.1.6.3.3.4.2.9-.2,1.2-.4.3-.9.2-1.2-.2-.2-.3-.2-.6,0-.9s.4-.7,1.3-1.2c.7-.4,1.6-.3,1.6-.3,2,0,2.5,1.4,2.5,3.3v2.7s0,1.1.8,1.1c0,0,.4,0,.5-.4h.2c0,.1,0,0,0,0ZM13.6,17c0,.2.1,1.2,1.2,1.2s1.1-.5,1.3-.9v-2.4c-1.8.4-2.5,1.2-2.5,2.1Z"/>
          <path class="cls-1" d="M29,18.9h-3.1v-.2c.6-.2.7-.7.7-1.5v-3.3c0-1.1-.5-1.6-1.6-1.6s-1.2.6-1.5,1.2v3.8c0,.9,0,1.4.7,1.5v.3h-3.1v-.3c.6-.2.7-.7.7-1.5v-8.8c0-.6-.1-.8-.8-.9v-.2l2.6-.6v6.4c.3-.9,1.6-1.9,2.7-1.9s2.2.6,2.2,2.6v3.4c0,.9.1,1.4.7,1.5v.2h0Z"/>
          <path class="cls-1" d="M34.7,19.1c-2.5,0-3.9-1.8-3.9-4s1.4-4,3.9-4,3.9,1.8,3.9,4-1.4,4-3.9,4ZM34.7,11.3c-1.2,0-1.8.7-1.8,3.7s.6,3.7,1.8,3.7,1.8-.7,1.8-3.7-.6-3.7-1.8-3.7Z"/>
          <path class="cls-1" d="M44.6,19.1c-2.5,0-3.9-1.8-3.9-4s1.4-4,3.9-4,3.9,1.8,3.9,4-1.4,4-3.9,4ZM44.6,11.3c-1.2,0-1.8.7-1.8,3.7s.6,3.7,1.8,3.7,1.8-.7,1.8-3.7-.6-3.7-1.8-3.7Z"/>
          <path class="cls-1" d="M53.3,17.9c0,.6-.5,1.1-1.1,1.1s-1.1-.5-1.1-1.1.5-1.1,1.1-1.1,1.1.5,1.1,1.1ZM52.7,15.5l.5-9h-1.9l.5,9h.9Z"/>
          <path class="cls-1" d="M63.6,14.2c-.7-.4-1.6-.8-2.3-1-.2,0-.4-.2-.4-.4s.2-.5.5-.5c.5,0,2.2.6,2.7,1,.2.1.3.3.3.5,0,.3-.2.6-.5.6s-.2,0-.4-.1ZM72.1,9.9c.1-.2.3-.3.5-.3s.5.2.5.5,0,.3-.1.5c-2.2,3.8-4.7,6.3-8.2,8.2-.5.3-1.2.6-1.7.6s-.6-.3-.6-.6.1-.5.4-.5c2.6-.5,6.8-3.9,9.3-8.4ZM65.7,11.3c-.6-.6-1.4-1.2-2.1-1.4-.2,0-.2-.2-.2-.3,0-.2.2-.5.5-.5s1.8.8,2.5,1.5c.1.1.2.3.2.4,0,.3-.2.5-.5.5s-.3,0-.4-.2Z"/>
          <path class="cls-1" d="M82.4,15.3c-.9.1-2.2.3-3,.4-.4,0-.7.1-1.1.1-.3,0-.5-.2-.5-.4s.1-.4.5-.4c.7,0,.8,0,.9,0,.4,0,1.8-.2,2.3-.3.3,0,.7-.1,1-.1,0,0,.1,0,.2,0,.1-.6.2-1.1.3-1.3,0,0,0,0,0-.1,0-.1,0-.2-.2-.2s-3.3.4-3.6.5c-.5.1-.9.1-1.4.1s-.5-.2-.5-.4.1-.4.5-.4c.4,0,.8,0,1.2,0,.4,0,2.4-.3,2.9-.4.1,0,1-.1,1.2-.1h0c.6,0,.9.4.9.7s0,.2,0,.3c-.2.5-.4,1.4-.6,2.2-.1.6-.2,1.2-.4,1.8,0,0,0,0,.1,0,.3,0,.5.2.5.4s-.2.4-.7.5c-.6,0-2.3.2-4.5.5-.3,0-.6,0-.9,0s-.6,0-.6-.4.1-.4.5-.4h0c.1,0,.2,0,.4,0s.3,0,.5,0c.4,0,3.1-.4,3.8-.5.1-.6.2-1.3.4-1.9,0,0-.1,0-.2,0h0Z"/>
          <path class="cls-1" d="M91.5,15.5c-.1,0-.3,0-.4-.3-.2-.5-.7-1.1-1.1-1.4,0,0-.1-.2-.1-.3,0-.2.2-.4.4-.4.5,0,1.7,1.6,1.7,1.9s-.2.5-.5.5h0ZM96.2,12.6c0-.3.2-.5.5-.5.4,0,.5.4.5.6,0,.4-.1.8-.3,1.2-1.1,2.6-2.7,4.5-5.5,5.8-.1,0-.2,0-.4,0-.3,0-.5-.2-.5-.4s.1-.4.3-.4c3.8-1.7,5.3-5.1,5.3-6.3h0c0-.1,0-.1,0-.1ZM93.7,14.7c-.2,0-.4-.1-.5-.4-.2-.5-.5-1.2-.8-1.5,0,0-.1-.1-.1-.2,0-.2.2-.4.5-.4.6,0,1.4,1.9,1.4,2.1,0,.3-.2.5-.5.5h0Z"/>
          <path class="cls-1" d="M105,16.4c0,1.1.7,1.5,2.6,1.5s3.1-.2,4-.7c.1,0,.3-.1.4-.1.3,0,.6.2.6.5,0,.9-2.4,1.3-4.6,1.3s-3.8,0-3.8-2.2,0-1.9.2-5.1c0-.3,0-.5,0-.7,0-.7,0-1.2-.1-1.5h0c0-.4.3-.6.5-.6.5,0,.6.5.6,1.5s0,2.1-.1,2.9c.5,0,3.9-.7,5.3-1.9.1-.1.2-.1.4-.1.3,0,.6.2.6.5,0,1.2-5.6,2.3-6.4,2.5-.1,2.2-.1,2.2-.1,2.3h0ZM113.1,10.9c-.9,0-1.6-.7-1.6-1.6s.7-1.6,1.6-1.6,1.6.7,1.6,1.6-.7,1.6-1.6,1.6ZM113.1,8.3c-.5,0-1,.5-1,1s.4.9,1,.9,1-.4,1-.9-.4-1-1-1Z"/>
          <path class="cls-1" d="M122.3,12.2c-.7-.5-1.8-1.1-2.7-1.3-.2,0-.3-.2-.3-.4s.2-.5.6-.5,2.1.6,3.1,1.3c.2.1.3.3.3.5,0,.3-.2.6-.6.6s-.2,0-.4-.1h0ZM122.5,18.4c-.9.5-1.4.5-1.7.5-.4,0-.6-.3-.6-.5s.1-.4.4-.5c1.6-.2,6.3-2.7,9.1-8.1.1-.2.3-.3.5-.3s.5.2.5.5,0,.3-.1.5c-2.1,3.7-4.6,6.1-8,7.9h0Z"/>
          <path class="cls-1" d="M136.1,14.4c-.3,0-.5-.2-.5-.5s.1-.4.3-.5c2.2-1.3,4.3-4.6,4.5-5.6,0-.3.3-.4.5-.4s.5.2.5.5-.2.7-.5,1.3c.4,0,.8-.1,1.2-.2.9-.2,1.7-.3,2.2-.3.8,0,1.2.4,1.2.9s0,.4-.1.5c-2.6,4.5-5,7.8-9.6,9.6-.1,0-.2,0-.4,0-.4,0-.6-.2-.6-.5s.2-.5.5-.6c3.8-1.3,6.7-4.4,8.8-8.5,0-.2.1-.3.1-.4,0-.2-.2-.2-.4-.2-.4,0-1.4.2-2,.3-.5,0-1.1.2-1.4.2-1.7,2.3-3.6,4.3-4.3,4.3h0ZM146.8,9.1c-.3-.3-1.2-1-1.6-1.2-.2,0-.2-.2-.2-.3,0-.2.2-.4.4-.4s2.1,1,2.1,1.5-.2.5-.4.5-.2,0-.2-.1h0ZM148.3,7.7c-.3-.3-1.3-1-1.7-1.2-.2,0-.2-.2-.2-.3,0-.2.2-.4.4-.4s2.2.9,2.2,1.5-.2.5-.4.5-.2,0-.2-.1h0Z"/>
        </g>
      </g>
    </g>
  </g>
</svg>