<?xml version="1.0" encoding="UTF-8"?>
<svg id="_レイヤー_2" data-name="レイヤー 2" xmlns="http://www.w3.org/2000/svg" viewBox="0 0 17.15 2.99">
  <defs>
    <style>
      .cls-1 {
        fill: #ed7a93;
        stroke-width: 0px;
      }
    </style>
  </defs>
  <g id="MV">
    <g>
      <path class="cls-1" d="m0,1.7s.02-.06.06-.09c.37-.22.59-.54.75-.86.02-.04.06-.06.09-.06.05,0,.11.04.11.1,0,.01,0,.03-.01.04C.7,1.38.24,1.79.1,1.79c-.06,0-.1-.04-.1-.09Zm.31,1.21c-.06,0-.09-.05-.09-.1,0-.04.03-.09.09-.09.13,0,.28-.02.42-.03.15-.28.39-.93.48-1.31.01-.05.05-.07.09-.07.06,0,.12.04.12.09,0,.08-.29.87-.48,1.26.44-.05.89-.12,1.27-.19-.11-.16-.24-.31-.37-.43-.02-.02-.03-.04-.03-.06,0-.05.05-.08.1-.08.02,0,.05,0,.07.03.36.31.64.8.64.9,0,.07-.06.12-.11.12-.04,0-.07-.02-.09-.08-.03-.08-.07-.16-.12-.24-.7.16-1.79.29-1.99.29ZM1.02.42h0c-.06,0-.09-.04-.09-.09,0-.05.03-.09.09-.09h.53s.02-.01.02-.01c.17,0,.3.05.38.22.21.42.47.75.9,1.01.04.02.06.06.06.09,0,.06-.06.12-.13.12-.11,0-.65-.42-.99-1.11-.06-.12-.14-.15-.27-.15h-.51Z"/>
      <path class="cls-1" d="m5.66.88c.03.64.16,1.29.54,1.73.07.08.14.13.19.13.09,0,.16-.12.23-.36.01-.05.06-.08.09-.08.05,0,.1.03.1.09,0,.04-.11.54-.42.54-.11,0-.22-.06-.31-.17-.39-.46-.55-1.14-.6-1.88h-1.55c-.06,0-.09-.04-.09-.08,0-.05.03-.09.09-.09h1.54c-.01-.2-.01-.41-.01-.62,0-.06.05-.09.1-.09.05,0,.1.03.1.1h0c0,.12,0,.23,0,.35,0,.09,0,.17,0,.26h1.02c.06,0,.09.04.09.08,0,.04-.03.09-.09.09h-1.01Zm-1.08.71h-.48c-.06,0-.08-.04-.08-.08s.03-.08.08-.08h1.12c.06,0,.08.04.08.08,0,.04-.02.08-.08.08h-.46v.8c.23-.07.44-.13.58-.19.01,0,.02,0,.04,0,.04,0,.08.04.08.08,0,.03-.02.06-.06.08-.44.17-1.31.41-1.42.41-.06,0-.1-.05-.1-.1,0-.04.02-.08.09-.09.18-.04.4-.08.61-.14v-.85Zm1.71-1.13c-.1-.11-.28-.22-.36-.25-.03-.01-.05-.04-.05-.07,0-.04.04-.08.09-.08.07,0,.36.19.44.27.02.02.04.05.04.08,0,.05-.04.1-.09.1-.02,0-.05-.01-.07-.04Z"/>
      <path class="cls-1" d="m9.67,1.25c-.04,1.27-1.04,1.72-1.14,1.72-.06,0-.09-.04-.09-.09,0-.04.02-.08.07-.1.71-.32.95-.96.97-1.5v-.03c-.21.01-.42.02-.61.04,0,.13.01.27.01.37,0,.06,0,.12,0,.15,0,.09-.06.13-.12.13-.04,0-.09-.03-.09-.1v-.02c0-.08.01-.19.01-.29,0-.07,0-.15,0-.23-.15.01-.27.02-.37.03-.43.05-.51.06-.54.06-.07,0-.12-.05-.12-.1,0-.05.04-.1.14-.1.12,0,.25,0,.87-.06,0-.06,0-.08-.07-.47,0-.01,0-.02,0-.03,0-.07.05-.11.1-.11.11,0,.12.07.16.6.2-.01.42-.03.63-.04,0,0,0-.25,0-.39,0-.09,0-.19-.01-.29v-.02c0-.07.05-.11.1-.11.12,0,.12.08.12.28,0,.06,0,.12,0,.18,0,.11-.01.22-.01.33.47-.03.7-.04.84-.04.08,0,.13.05.13.1s-.04.1-.13.1c-.19,0-.33,0-.49,0-.11,0-.23,0-.35.01h0Z"/>
      <path class="cls-1" d="m13.28,2.81c0,.09-.06.13-.11.13-.05,0-.1-.04-.1-.13h0c0-.31.02-.72.02-1.05,0-.2,0-.34-.02-.42-.41.44-1.04.93-1.2.93-.07,0-.11-.05-.11-.1,0-.04.02-.08.07-.1.81-.4,1.53-1.27,1.66-1.7.01-.05.06-.07.1-.07.06,0,.11.04.11.1,0,.06-.08.29-.48.75.06.06.06.2.06.27,0,.04,0,.08,0,.12,0,.19-.01.5-.01.8,0,.16,0,.32,0,.45h0Z"/>
      <path class="cls-1" d="m16.2,1.44c0,.49,0,1.05.01,1.39,0,.11-.06.16-.12.16-.05,0-.1-.04-.1-.12h0c.01-.37.02-.95.02-1.46,0-.77-.01-.98-.04-1.09,0-.01,0-.02,0-.03,0-.06.05-.09.11-.09.08,0,.14.02.14.36v.05c0,.15,0,.39,0,.65.02,0,.04-.01.06-.01.15,0,.89.2.89.4,0,.06-.05.12-.11.12-.03,0-.05,0-.08-.03-.16-.15-.56-.28-.75-.3h-.02Z"/>
    </g>
  </g>
</svg>