<?xml version="1.0" encoding="UTF-8"?>
<svg id="_レイヤー_2" data-name="レイヤー 2" xmlns="http://www.w3.org/2000/svg" viewBox="0 0 56.37 16.87">
  <defs>
    <style>
      .cls-1 {
        fill: #bb778e;
        stroke-width: 0px;
      }
    </style>
  </defs>
  <g id="hedder">
    <g>
      <path class="cls-1" d="m6.05,13.04c-3.97,0-6.05-2.84-6.05-6.43S2.08,0,6.05,0s6.05,3.04,6.05,6.61-2.08,6.43-6.05,6.43Zm3.81,2.04c1.39.47,2.19-.18,2.58-.47l.2.2-1.64,1.39c-1.39,1.14-2.89.72-5.82-.52l-1.48-.63c-1.28-.54-2.15.11-2.55.4l-.22-.22c2.94-2.48,6.02-1.16,6.02-1.16l2.91,1.01ZM6.05.27C3.9.27,2.58,1.66,2.58,6.61s1.32,6.16,3.47,6.16,3.43-1.19,3.43-6.16S8.18.27,6.05.27Z"/>
      <path class="cls-1" d="m18.63,13.04c-2.75,0-4.23-1.97-4.23-4.34s1.48-4.34,4.23-4.34,4.25,1.95,4.25,4.34-1.48,4.34-4.25,4.34Zm0-8.4c-1.34,0-1.97.79-1.97,4.06s.63,4.06,1.97,4.06,1.97-.79,1.97-4.06-.61-4.06-1.97-4.06Z"/>
      <path class="cls-1" d="m29.39,13.04c-2.75,0-4.23-1.97-4.23-4.34s1.48-4.34,4.23-4.34,4.25,1.95,4.25,4.34-1.48,4.34-4.25,4.34Zm0-8.4c-1.34,0-1.97.79-1.97,4.06s.63,4.06,1.97,4.06,1.97-.79,1.97-4.06-.61-4.06-1.97-4.06Z"/>
      <path class="cls-1" d="m44.31,12.88h-4.93v-.27c.74,0,1.59-.07,1.59-1.41V3c0-1.48-1.34-.58-1.66-.31l-.16-.25,3.14-2.44h.6v11.2c0,1.39.79,1.41,1.43,1.41v.27Z"/>
      <path class="cls-1" d="m51.42,13.04c-3.99,0-4.97-3.07-4.97-6.41s.98-6.63,4.97-6.63,4.95,3.27,4.95,6.63-.98,6.41-4.95,6.41Zm0-12.77c-1.62,0-2.56,1.34-2.56,6.36s.97,6.14,2.56,6.14,2.55-1.14,2.55-6.14-.99-6.36-2.55-6.36Z"/>
    </g>
  </g>
</svg>