<?xml version="1.0" encoding="UTF-8"?>
<svg id="_レイヤー_2" data-name="レイヤー 2" xmlns="http://www.w3.org/2000/svg" viewBox="0 0 67.3 12.88">
  <defs>
    <style>
      .cls-1 {
        fill: #fff;
        stroke-width: 0px;
      }
    </style>
  </defs>
  <g id="hedder">
    <g>
      <path class="cls-1" d="m12.05,12.72h-4.64v-.27c1.19,0,.63-1.48.42-1.99l-.58-1.45H2.76c-.25.72-1.21,3.54,1.48,3.43v.27H0v-.27c.58-.02,1.03,0,2.69-4.21L5.78,0h.24c3.32,7.97,4.53,11.06,4.53,11.06.6,1.45,1.01,1.35,1.5,1.39v.27Zm-4.91-3.97l-2.24-5.64-2.08,5.64h4.32Z"/>
      <path class="cls-1" d="m27.27,12.72h-3.38v-.27c.69-.2.72-.74.72-1.66v-3.7c0-1.16-.51-1.77-1.48-1.77-.79,0-1.57.87-1.57,1.55v.23l.02,3.69c0,.99.09,1.5.74,1.66v.27h-3.38v-.27c.69-.2.72-.74.72-1.66v-3.7c0-1.16-.49-1.77-1.46-1.77-.79,0-1.52.89-1.59,1.52v3.97c0,.99.11,1.46.74,1.64v.27h-3.36v-.27c.69-.2.7-.72.7-1.64v-4.46c0-.63-.16-.94-.9-1.25v-.27l2.82-.61v1.86c.45-1.05,1.52-1.86,2.66-1.86,1.26,0,2.04.58,2.28,1.93.36-1.1,1.52-1.93,2.66-1.93,1.45,0,2.33.63,2.33,2.82v3.76c0,.99.09,1.5.74,1.66v.27Z"/>
      <path class="cls-1" d="m37.46,11.63c-.13.56-.85,1.25-1.9,1.25,0,0-1.5.02-1.66-1.5-.25.83-1.32,1.5-2.58,1.5,0,0-2.08,0-2.08-1.84s1.52-2.19,4.64-2.98v-1.08c0-1.86-.98-2.85-2.33-2.2-.63.33-.72.65-.61.67.25.04.45.14.61.36.31.42.2.99-.22,1.3-.42.29-1.01.2-1.3-.22-.22-.31-.23-.7-.07-.99.16-.29.43-.79,1.41-1.32.79-.42,1.72-.36,1.72-.36,2.17,0,2.75,1.48,2.75,3.61v2.89s0,1.19.85,1.19c0,0,.4,0,.51-.38l.27.11Zm-6.25-1.01c0,.25.16,1.3,1.3,1.3.78,0,1.21-.56,1.37-.99v-2.57c-1.93.43-2.67,1.25-2.67,2.26Z"/>
      <path class="cls-1" d="m41.67,12.45c2.71,0,3.61-1.3,3.87-2.48h.27l-.16,2.75h-6.41l4.68-8.08c-2.42,0-3.65.67-3.99,2.11h-.27l.09-2.38h6.36l-4.43,8.08Z"/>
      <path class="cls-1" d="m52.42,12.88c-2.75,0-4.23-1.97-4.23-4.34s1.48-4.34,4.23-4.34,4.25,1.95,4.25,4.34-1.48,4.34-4.25,4.34Zm0-8.4c-1.34,0-1.97.79-1.97,4.06s.63,4.06,1.97,4.06,1.97-.79,1.97-4.06-.61-4.06-1.97-4.06Z"/>
      <path class="cls-1" d="m67.3,12.72h-3.38v-.27c.69-.2.72-.74.72-1.66v-3.7c0-1.05-.61-1.77-1.66-1.77-.81,0-1.63.83-1.7,1.52v3.97c0,.99.11,1.46.74,1.64v.27h-3.36v-.27c.69-.2.71-.72.71-1.64v-4.55c0-.63-.16-.85-.9-1.16v-.27l2.82-.61v1.92c.4-1.08,1.75-1.92,2.89-1.92,1.43,0,2.38.63,2.38,2.82v3.76c0,.99.09,1.5.74,1.66v.27Z"/>
    </g>
  </g>
</svg>