<svg xmlns="http://www.w3.org/2000/svg" width="183.625" height="22.925" viewBox="0 0 183.625 22.925">
  <path id="パス_159" data-name="パス 159" d="M-79.5-19.35A53.16,53.16,0,0,0-72.35-9.4a11.66,11.66,0,0,1,1.975-2.025,35.755,35.755,0,0,1-6.825-8.9Zm-7-.975a23,23,0,0,1-6.45,9.2A12.86,12.86,0,0,1-90.725-9.4a30.692,30.692,0,0,0,6.85-10.2Zm7.3,13.75c1.075,1.325,2.225,2.9,3.25,4.425-3.375.175-6.8.325-9.85.45a100.085,100.085,0,0,0,4.6-9.6l-2.75-.675A65.536,65.536,0,0,1-88.475-1.6c-1.25.05-2.4.1-3.425.125l.3,2.45C-87.175.75-80.7.425-74.575.05q.675,1.125,1.125,2.025L-71.075.8a56.8,56.8,0,0,0-5.9-8.4Zm21.025-2.1H-53.8v-2.25H-64.65v2.25h4.15v6.7c-1.9.35-3.625.675-4.975.9l.675,2.35C-61.6.575-57.125-.4-52.975-1.35l-.175-2.1c-1.675.35-3.375.7-5.025,1Zm8.9-10.9a19.581,19.581,0,0,1,3.375,3.05l1.625-1.45A18.981,18.981,0,0,0-47.75-20.85ZM-43.4-14.25v-2.275h-7.175c-.05-1.4-.075-2.875-.05-4.325h-2.5c0,1.45.05,2.9.1,4.325H-65.55v2.275h12.675c.625,9,2.6,16.275,6.725,16.275,2.075,0,2.9-1.225,3.3-5.725A5.889,5.889,0,0,1-44.9-5.025c-.15,3.25-.45,4.6-1.05,4.6-2.175,0-3.925-5.95-4.475-13.825Zm18.525,1.2v1.825h-3.6V-13.05Zm5.825,1.825h-3.725V-13.05h3.725ZM-22.775-7.65V-9.525h3.725V-7.65Zm-5.7,0V-9.525h3.6V-7.65Zm0,1.75h3.6v3.85h2.1V-5.9h3.725v1.75c0,.3-.1.4-.375.4-.3,0-1.25.025-2.3-.025A6.373,6.373,0,0,1-21.1-1.9a9.507,9.507,0,0,0,3.35-.325c.725-.325.9-.85.9-1.9v-10.65h-3.075c-.475-.275-1.05-.575-1.7-.875a24.717,24.717,0,0,0,4.775-3.4l-1.4-1.125-.475.125H-30.55v1.825h9.675a20.149,20.149,0,0,1-2.75,1.675c-1.1-.475-2.25-.925-3.225-1.275l-1.5,1.25c1.275.5,2.775,1.15,4.125,1.8H-30.65v12.8h2.175ZM-32.4-16.525a19.83,19.83,0,0,0-4.275-3.9l-1.625,1.45a19.234,19.234,0,0,1,4.175,4.125Zm-.625,5.25h-5.65v2.15h3.425V-3.15a39,39,0,0,1-3.725,2.6l1.1,2.3c1.4-1.05,2.65-2.075,3.85-3.1C-32.5.575-30.35,1.4-27.25,1.525c2.9.1,8.15.05,11.025-.075a11.564,11.564,0,0,1,.75-2.275c-3.175.225-8.925.3-11.75.175-2.75-.125-4.725-.875-5.8-2.625Zm28.25-4.1h-3.45v-2.75h3.45Zm0,4.6h-3.45v-2.8h3.45Zm0,4.6h-3.45v-2.85h3.45ZM-2.6-20.025h-7.725V-4.3H-2.6Zm-6.45,16.1A10.659,10.659,0,0,1-11.7.75,16.827,16.827,0,0,1-9.875,2.025,15.484,15.484,0,0,0-6.9-3.4Zm17.15-7.5a19.314,19.314,0,0,1-2.3,6.3,21.582,21.582,0,0,1-2.525-6.3Zm1.075-2.1-.375.05H1.45V-17.6h9.4v-2.125H-.7v9.15C-.7-7.55-.825-3.8-2.2-.775A17.943,17.943,0,0,0-4.125-3.95l-1.825.775A17.992,17.992,0,0,1-4.125.175L-2.2-.775A12.214,12.214,0,0,1-3.1.8,10.024,10.024,0,0,1-1.25,2.05c2.375-3.425,2.7-8.775,2.7-12.625V-10.7A24.491,24.491,0,0,0,4.475-3.25,12.076,12.076,0,0,1,.1.05,7.791,7.791,0,0,1,1.45,1.925,14.514,14.514,0,0,0,5.825-1.4,14.02,14.02,0,0,0,10.2,2.025,8.381,8.381,0,0,1,11.7.175a12.5,12.5,0,0,1-4.5-3.35A23.774,23.774,0,0,0,10.55-13.2ZM33.05-11.3v-.85h2.375c1.2,0,2.075.025,2.475.075v-2.65a16.613,16.613,0,0,1-2.5.15H33.05v-2.9a16.3,16.3,0,0,1,.15-2.175H30.375a17.261,17.261,0,0,1,.125,2.175v2.9H23.9V-17.45a13.474,13.474,0,0,1,.15-2H21.225a13.719,13.719,0,0,1,.15,2v2.875h-2.45a15.541,15.541,0,0,1-2.6-.2v2.725c.4-.05,1.425-.1,2.6-.1h2.45V-8.4c0,1.05-.1,2.075-.125,2.425h2.775A22.228,22.228,0,0,1,23.9-8.4v-3.75h6.6v1c0,6.625-2.2,8.775-6.875,10.5l2.125,2C31.6-1.275,33.05-4.85,33.05-11.3ZM43.9-9.325,45.125-6.85a51.149,51.149,0,0,0,9.225-3.875v8.7A28.969,28.969,0,0,1,54.2.925h3.1a18.8,18.8,0,0,1-.175-2.95V-12.4a42.173,42.173,0,0,0,6.725-5.475l-2.1-2a30.86,30.86,0,0,1-6.95,5.95A41.283,41.283,0,0,1,43.9-9.325ZM77.425-2.3a26.171,26.171,0,0,1-.2,3.2H80.3a29.292,29.292,0,0,1-.2-3.2v-7.725a65.461,65.461,0,0,1,9.45,3.9L90.675-8.85a84.742,84.742,0,0,0-10.575-4v-3.9c0-.875.1-1.975.175-2.8H77.2a18.1,18.1,0,0,1,.225,2.8Z" transform="translate(92.95 20.85)" fill="#bb778e"/>
</svg>