<?xml version="1.0" encoding="UTF-8"?>
<svg id="_レイヤー_2" data-name="レイヤー 2" xmlns="http://www.w3.org/2000/svg" viewBox="0 0 13.87 2.49">
  <defs>
    <style>
      .cls-1 {
        fill: #935aa2;
        stroke-width: 0px;
      }
    </style>
  </defs>
  <g id="MV">
    <g>
      <path class="cls-1" d="m2.33,2.46h-.9v-.05c.23,0,.12-.29.08-.38l-.11-.28h-.87c-.05.14-.23.69.29.66v.05h-.82v-.05c.11,0,.2,0,.52-.81l.6-1.59h.05c.64,1.54.88,2.14.88,2.14.12.28.2.26.29.27v.05Zm-.95-.77l-.43-1.09-.4,1.09h.83Z"/>
      <path class="cls-1" d="m5.38,2.46h-.65v-.05c.13-.04.14-.14.14-.32v-.72c0-.22-.1-.34-.29-.34-.15,0-.3.17-.3.3v.76c0,.19.02.29.15.32v.05h-.65v-.05c.13-.04.14-.14.14-.32v-.72c0-.22-.09-.34-.28-.34-.15,0-.29.17-.31.29v.77c0,.19.02.28.14.32v.05h-.65v-.05c.13-.04.14-.14.14-.32v-.86c0-.12-.03-.18-.17-.24v-.05l.54-.12v.36c.09-.2.29-.36.51-.36.24,0,.39.11.44.37.07-.21.29-.37.51-.37.28,0,.45.12.45.54v.73c0,.19.02.29.14.32v.05Z"/>
      <path class="cls-1" d="m7.54,2.25c-.03.11-.17.24-.37.24,0,0-.29,0-.32-.29-.05.16-.26.29-.5.29,0,0-.4,0-.4-.36s.29-.42.9-.58v-.21c0-.36-.19-.55-.45-.43-.12.06-.14.12-.12.13.05,0,.09.03.12.07.06.08.04.19-.04.25-.08.06-.2.04-.25-.04-.04-.06-.05-.14-.01-.19.03-.06.08-.15.27-.25.15-.08.33-.07.33-.07.42,0,.53.29.53.7v.56s0,.23.17.23c0,0,.08,0,.1-.07l.05.02Zm-1.21-.2s.03.25.25.25c.15,0,.23-.11.27-.19v-.5c-.37.08-.52.24-.52.44Z"/>
      <path class="cls-1" d="m8.51,2.41c.52,0,.7-.25.75-.48h.05l-.03.53h-1.24l.91-1.56c-.47,0-.71.13-.77.41h-.05l.02-.46h1.23l-.86,1.56Z"/>
      <path class="cls-1" d="m10.82,2.49c-.53,0-.82-.38-.82-.84s.29-.84.82-.84.82.38.82.84-.29.84-.82.84Zm0-1.62c-.26,0-.38.15-.38.79s.12.79.38.79.38-.15.38-.79-.12-.79-.38-.79Z"/>
      <path class="cls-1" d="m13.87,2.46h-.65v-.05c.13-.04.14-.14.14-.32v-.72c0-.2-.12-.34-.32-.34-.16,0-.31.16-.33.29v.77c0,.19.02.28.14.32v.05h-.65v-.05c.13-.04.14-.14.14-.32v-.88c0-.12-.03-.16-.17-.22v-.05l.54-.12v.37c.08-.21.34-.37.56-.37.28,0,.46.12.46.54v.73c0,.19.02.29.14.32v.05Z"/>
    </g>
  </g>
</svg>