<?xml version="1.0" encoding="UTF-8"?>
<svg id="_レイヤー_2" data-name="レイヤー 2" xmlns="http://www.w3.org/2000/svg" viewBox="0 0 10.9 3.26">
  <defs>
    <style>
      .cls-1 {
        fill: #935aa2;
        stroke-width: 0px;
      }
    </style>
  </defs>
  <g id="MV">
    <g>
      <path class="cls-1" d="m1.17,2.52c-.77,0-1.17-.55-1.17-1.24S.4,0,1.17,0s1.17.59,1.17,1.28-.4,1.24-1.17,1.24Zm.74.4c.27.09.42-.04.5-.09l.04.04-.32.27c-.27.22-.56.14-1.13-.1l-.29-.12c-.25-.1-.42.02-.49.08l-.04-.04c.57-.48,1.16-.22,1.16-.22l.56.2ZM1.17.05C.75.05.5.32.5,1.28s.25,1.19.67,1.19.66-.23.66-1.19S1.58.05,1.17.05Z"/>
      <path class="cls-1" d="m3.8,2.52c-.53,0-.82-.38-.82-.84s.29-.84.82-.84.82.38.82.84-.29.84-.82.84Zm0-1.62c-.26,0-.38.15-.38.79s.12.79.38.79.38-.15.38-.79-.12-.79-.38-.79Z"/>
      <path class="cls-1" d="m6.06,2.52c-.53,0-.82-.38-.82-.84s.29-.84.82-.84.82.38.82.84-.29.84-.82.84Zm0-1.62c-.26,0-.38.15-.38.79s.12.79.38.79.38-.15.38-.79-.12-.79-.38-.79Z"/>
      <path class="cls-1" d="m8.57,2.49h-.95v-.05c.14,0,.31-.01.31-.27V.58c0-.29-.26-.11-.32-.06l-.03-.05.61-.47h.12v2.17c0,.27.15.27.28.27v.05Z"/>
      <path class="cls-1" d="m9.94,2.52c-.77,0-.96-.59-.96-1.24s.19-1.28.96-1.28.96.63.96,1.28-.19,1.24-.96,1.24ZM9.94.05c-.31,0-.5.26-.5,1.23s.19,1.19.5,1.19.49-.22.49-1.19-.19-1.23-.49-1.23Z"/>
    </g>
  </g>
</svg>