<?xml version="1.0" encoding="UTF-8"?>
<svg xmlns="http://www.w3.org/2000/svg" version="1.1" viewBox="0 0 17.6800003 5.3699999">
  <defs>
    <style>
      .cls-1, .cls-2 {
        fill: #5f5f5f;
      }

      .cls-2 {
        stroke: #5f5f5f;
        stroke-linecap: round;
        stroke-linejoin: round;
        stroke-width: .05px;
      }
    </style>
  </defs>
  <!-- Generator: Adobe Illustrator 28.6.0, SVG Export Plug-In . SVG Version: 1.2.0 Build 709)  -->
  <g>
    <g id="_レイヤー_2">
      <g id="lay">
        <g>
          <g>
            <path class="cls-2" d="M.13,4.5300002v-1.9099998c0-.0799999-.03-.1199999-.1-.2h.63c.7900001,0,1.34.3900001,1.34,1.1499999s-.54,1.1500001-1.34,1.1500001H.03c.08-.0799999.1-.1199999.1-.1999998v.0099998ZM.58,4.6799998c.73,0,1.23-.3800001,1.23-1.1100001s-.5-1.1100001-1.23-1.1100001h-.27v2.21h.27v.0100002Z"/>
            <path class="cls-2" d="M3.1500001,4.73v-.3800001c-.0699999.1799998-.2.4000001-.47.4000001-.3199999,0-.4300001-.2800002-.4300001-.5599999,0-.2.0599999-.6399999.47-.6399999.25,0,.3599999.1400001.4300001.27v-.25c0-.1800001,0-.5699999-.25-.5699999-.1900001,0-.3699999.23-.51.48h-.04l.0999999-.3900001c.0699999-.04.1900001-.1400001.4100001-.1400001.3099999,0,.46.2.46.54v1.03c0,.0799999.03.1199999.0999999.1999998h-.28l.01.0100002ZM3.1500001,3.8800001c-.0699999-.1400001-.1900001-.3-.3499999-.3-.27,0-.3699999.4300001-.3699999.6499999s.1199999.4900002.3099999.4900002.3499999-.2800002.4100001-.46v-.3699999l-.0000002-.0100002Z"/>
            <path class="cls-2" d="M4.4499998,3.02h-.2199998c-.28,0-.4000001.0899999-.48.3600001h-.03l.03-.4000001h.9000001v.04l-.8,1.6700001h.3399999c.2800002,0,.4000001-.0900002.48-.3600001h.04l-.04.4000001h-1.02v-.04s.8000002-1.6700001.7999997-1.6700001Z"/>
            <path class="cls-2" d="M5.7800002,3.02h-.2199998c-.2800002,0-.4000001.0899999-.48.3600001h-.0300002l.0300002-.4000001h.9000001v.04l-.8000002,1.6700001h.3400002c.2800002,0,.4000001-.0900002.48-.3600001h.04l-.04.4000001h-1.02v-.04s.8000002-1.6700001.7999997-1.6700001Z"/>
            <path class="cls-2" d="M6.4299998,4.5300002v-1.9099998c0-.1099999-.0300002-.1400001-.0700002-.1400001-.0300002,0-.0700002.03-.0999999.05v-.03c.0799999-.0799999.1999998-.1900001.27-.1900001.0599999,0,.0700002.05.0700002.2v2.0299997c0,.0799999.0300002.1199999.0999999.1999998h-.3800001c.0799999-.0799999.0999999-.1199999.0999999-.1999998l.0100002-.0099998Z"/>
            <path class="cls-2" d="M8.1599998,3.5699999c.3100004.0699999.54.24.54.55,0,.3499999-.3000002.6300001-.7799997.6300001-.54,0-.9700003-.3400002-.9700003-.9000001s.4200001-.9000001.9200001-.9000001c.3999996,0,.6899996.23.8100004.6199999h-.5299997l.0099993.0000002ZM7.1700001,3.5699999c-.02.0899999-.04.1800001-.04.28,0,.5300002.3499999.8499999.8200002.8499999.3799996,0,.7099996-.2199998.7099996-.5799999,0-.3299999-.29-.5-.6400003-.55h-.8600001.0100007ZM8.5,3.54c-.1000004-.3399999-.3299999-.54-.6199999-.54-.3099999,0-.5900002.2-.6900001.54h1.3200002-.0100002Z"/>
            <path class="cls-2" d="M10.1899996,4.5300002v-1.9099998c0-.0799999-.0299997-.1199999-.1000004-.2h.4200001c.5799999,0,.7799997.1800001.7799997.45,0,.3299999-.3199997.4300001-.6499996.47.4499998.05.8599997.1500001.8599997.6699998,0,.4400001-.2299995.7200003-.9899998.7200003h-.4200001c.0799999-.0799999.1000004-.1199999.1000004-.2000003ZM10.4499998,3.3199999c.2700005,0,.6599998-.0999999.6599998-.45,0-.24-.1599998-.4000001-.6700001-.4000001h-.0699997v.8499999s.0799999,0,.0799999.0000002ZM10.4300003,4.6799998c.6899996,0,.8800001-.3099999.8800001-.6700001,0-.49-.4899998-.6500001-.8699999-.6500001h-.0799999v1.3200002h.0699997Z"/>
            <path class="cls-2" d="M12.9899998,3.5699999c.3100004.0699999.54.24.54.55,0,.3499999-.3000002.6300001-.7799997.6300001-.54,0-.9700003-.3400002-.9700003-.9000001s.4200001-.9000001.9200001-.9000001c.3999996,0,.6899996.23.8100004.6199999h-.5299997l.0099993.0000002ZM12,3.5699999c-.0200005.0899999-.04.1800001-.04.28,0,.5300002.3500004.8499999.8199997.8499999.3800001,0,.71-.2199998.71-.5799999,0-.3299999-.29-.5-.6400003-.55h-.8599997.0100002ZM13.3299999,3.54c-.1000004-.3399999-.3299999-.54-.6199999-.54-.3100004,0-.5900002.2-.6899996.54h1.3199997-.0100002Z"/>
            <path class="cls-2" d="M13.9200001,4.5300002v-1.25c0-.1099999-.0299997-.1400001-.0699997-.1400001-.0299997,0-.0699997.03-.1000004.05v-.03c.0799999-.0799999.1999998-.1900001.2700005-.1900001.0500002,0,.0699997.05.0699997.2v1.3699999c0,.0799999.0299997.1199999.1000004.1999998h-.3800001c.0799999-.0799999.1000004-.1199999.1000004-.1999998l.0099993-.0099998ZM13.9700003,2.4000001c.0900002,0,.1499996.05.1499996.1400001s-.0600004.1400001-.1499996.1400001-.1499996-.05-.1499996-.1400001.0600004-.1400001.1499996-.1400001Z"/>
            <path class="cls-2" d="M14.8000002,4.1599998c-.0600004.0300002-.1000004.0999999-.1000004.1599998,0,.3099999,1.0699997.04,1.0699997.5900002,0,.3299999-.3599997.4299998-.6499996.4299998-.25,0-.6800003-.0700002-.6800003-.4099998,0-.1700001.1099997-.2800002.2700005-.3499999-.0699997-.0500002-.1000004-.1199999-.1000004-.1999998,0-.1199999.0699997-.1799998.1700001-.23-.21-.1199999-.2799997-.3499999-.2799997-.5599999,0-.3499999.1800003-.6300001.5799999-.6300001.1599998,0,.3100004.05.4200001.1700001l.2399998-.24h.0299997v.1500001l-.2600002.1199999c.1000004.1199999.1300001.29.1300001.4400001,0,.3499999-.1800003.6299999-.5699997.6299999-.0900002,0-.1899996-.0100002-.2700005-.0599999l.000001-.0100002ZM14.6099997,4.9099998c0,.2800002.2700005.3899999.5.3899999.1899996,0,.5799999-.0900002.5799999-.3099999,0-.2800002-.7200003-.27-.9399996-.3800001-.0799999.0799999-.1400003.1799998-.1400003.3000002ZM15.46,3.5899999c0-.24-.0799999-.6000001-.3900003-.6000001s-.3999996.3600001-.3999996.5999999.0799999.5900002.3999996.5900002.3900003-.3600001.3900003-.5899999Z"/>
            <path class="cls-2" d="M17.1100006,3.5699999c.3099995.0699999.5400009.24.5400009.55,0,.3499999-.2999992.6300001-.7800007.6300001-.5400009,0-.9700003-.3400002-.9700003-.9000001s.4199991-.9000001.9199991-.9000001c.3999996,0,.6900005.23.8099995.6199999h-.5300007l.0100021.0000002ZM16.1200008,3.5699999c-.0200005.0899999-.0400009.1800001-.0400009.28,0,.5300002.3500004.8499999.8199997.8499999.3799992,0,.7099991-.2199998.7099991-.5799999,0-.3299999-.2900009-.5-.6399994-.55h-.8600006.0100021ZM17.4500008,3.54c-.1000004-.3399999-.3299999-.54-.6200008-.54-.3099995,0-.5900002.2-.6900005.54h1.3199997-.0099983Z"/>
          </g>
          <g>
            <path class="cls-1" d="M.23.71s-.07.05-.08.05-.01,0-.04-.03C.08.7.05.68,0,.65c.16-.1.26-.18.35-.31.06-.09.11-.18.13-.26.16.06.2.08.2.1,0,0,0,.01-.02.02-.01.01-.03.04-.08.1h.13c.15,0,.18,0,.23-.02h.03c.02,0,.04.02.09.07.04.04.05.06.05.08,0,.01,0,.02-.02.04-.01.01-.03.04-.05.08-.14.26-.25.4-.42.55-.13.12-.34.26-.39.26-.01,0-.03,0-.04-.02-.04-.04-.08-.0700001-.13-.09.21-.1.37-.21.51-.36.0933333-.1.08-.1133333-.04-.04-.18.11-.07-.06-.14-.12,0,0-.01-.01-.01-.02,0,0,.02-.03.07-.08q.03-.03.04-.03c.02,0,.11.07.2.16.09-.12.15-.23.19-.32-.1133333,0-.2433333,0-.39,0-.07.09-.16.18-.26.26l-.0000002.01ZM1.22.32s-.05.04-.0599999.04,0,0-.04-.04c-.02-.04-.0599999-.09-.09-.12v-.01c0-.01.0599999-.05.0700001-.05.01,0,.03.01.08.07.04.05.0700001.09.0700001.1s0,.02-.02.03l-.0100002-.02ZM1.28.25c-.04-.06-.0700001-.1-.11-.14v-.01s0-.02.03-.03c.02-.02.03-.02.04-.02.02,0,.0599999.04.11.1.02.03.04.05.04.06,0,0,0,.02-.02.03-.02.02-.05.03-.0599999.03,0,0-.01,0-.02-.02h-.01Z"/>
            <path class="cls-1" d="M2.5,1c.0999999.09.1500001.15.1500001.17,0,.01-.02.04-.0699999.08-.03.03-.05.04-.0599999.04,0,0-.01,0-.02-.01-.0066667-.0066667-.0333333-.0400001-.0799999-.1-.0799999-.09-.2-.19-.3299999-.28-.1.1-.23.22-.34.29-.09.0599999-.17.1-.1799999.1s-.02,0-.05-.04c-.02-.02-.0599999-.05-.09-.08.17-.08.3000001-.17.4399999-.3.1500001-.14.26-.27.3800001-.48-.34,0-.5366668.0033333-.5899999.01-.0799999.01-.02,0-.02,0-.02,0-.03,0-.03-.02,0-.05-.01-.09-.01-.17.1.01.26.02.48.02h.23q.02,0,.05-.01h.02c.03,0,.05.02.0899999.07.03.04.04.07.04.09s0,.02-.04.06c-.02.02-.03.04-.0799999.11-.04.08-.1099999.17-.1700001.24.1199999.08.2.14.29.22l-.0100005-.01ZM2.5799999.32c-.04-.06-.0599999-.1-.1099999-.15-.0333333-.0333333-.0333333-.0366667,0-.01.05.04,0-.02.03-.04.02-.02.03-.02.04-.02s.03.01.0599999.05c.05.05.0799999.1.0799999.11,0,.02-.0699999.07-.0899999.07l-.01-.01ZM2.79.21s-.02.02-.03.02h0s0,0,0,0l-.02-.02c-.04-.07-.0799999-.11-.1099999-.15-.02-.0266667-.02-.03,0-.01.03.03.05-.05.0599999-.05s.01,0,.03.02c.03.02.0799999.08.0999999.12,0,0,0,.01.01.03,0,0-.02.03-.05.04h.01Z"/>
            <path class="cls-1" d="M3.3299999.24s.02.01.02.03v.02c0,.03-.01.06-.01.12,0,.37-.0699999.6-.23.8-.04.04-.05.0599999-.0599999.0599999h-.03c-.04-.03-.0799999-.04-.1500001-.05.0999999-.1.1400001-.16.1900001-.26.0599999-.14.0899999-.28.0899999-.5,0-.1,0-.14-.01-.22.0799999,0,.1500001.01.1900001.02v-.0200001ZM3.49.38c0-.07,0-.13-.01-.2.1600001,0,.22.02.22.05v.79c.1900001-.11.3199999-.21.4399998-.37,0,.08,0,.14.02.18v.03c0,.02-.0100002.04-.0799999.11-.1099999.1-.1900001.15-.3299999.23-.03.02-.05.03-.0699999.05-.01,0-.02.01-.04.01s-.0699999-.04-.1099999-.0700001c-.03-.03-.04-.05-.04-.0700001v-.03c.01-.03.01-.0599999.01-.14V.38h-.0100002Z"/>
            <path class="cls-1" d="M4.6500001.52c.0799999-.08.0900002-.1.1199999-.12.0300002-.02.0599999-.03.0900002-.03.04,0,.0700002,0,.1100001.03.0266666.02.0666666.0566666.1199999.11.0999999.1.23.22.3400002.31.0700002.06.1199999.09.2199998.15.0100002,0,.02.02.02.03s-.0100002.04-.04.09c-.0300002.0599999-.0500002.08-.0700002.08h-.02c-.1900001-.13-.3699999-.29-.5700002-.51q-.0799999-.08-.0999999-.08c-.02,0-.0300002,0-.04.02-.0100002.02-.1100001.14-.1599998.2q-.04.05-.0700002.09c-.02.02-.0300002.03-.04.04-.0100002.02-.02.02-.0300002.02-.02,0-.0500002-.02-.0799999-.06-.02-.03-.04-.04-.0700002-.1.0700002-.05.1300001-.1.2800002-.28l-.0099998.0099999ZM5.3099999.53c-.0300002-.06-.0599999-.1-.1100001-.15v-.01s0-.02.04-.04c.02-.02.0300002-.02.04-.02.0100002,0,.0300002.01.0599999.05.0500002.05.0799999.1.0799999.11,0,0,0,.02-.02.03-.0300002.03-.0500002.04-.0700002.04l-.0100002-.01h-.0099993ZM5.52.42s-.02.02-.0300002.02q-.0066667,0,0,0c.0100002,0,0,0,0,0l-.0100002-.01c-.04-.07-.0700002-.11-.1100001-.15v-.01s.0100002-.01.02-.02c.02-.02.0500002-.03.0500002-.03.0000005,0,.0133333.0066667.04.02.04.02.1100001.13.1100001.14,0,0-.02.02-.04.04h-.0299997Z"/>
            <path class="cls-1" d="M6.4899998.63c.27,0,.4299998,0,.5799999-.01h.02s.04,0,.04.12c0,.06,0,.07-.0300002.07h-1.1100001c-.02,0-.0300002,0-.0300002-.02,0-.04-.0100002-.11-.0100002-.18.1199999.01.23.02.5400009.02Z"/>
            <path class="cls-1" d="M7.79.76s-.0300002.04-.04.04c-.0066667,0-.0333328-.0133333-.0799999-.04-.0500002-.03-.1199999-.07-.23-.1-.02,0-.0300002-.01-.0300002-.03,0,0,.0100002-.03.04-.07,0-.01.0100002-.02.0100002-.03.02-.03.02-.04.04-.04.0300002,0,.1399999.04.2199998.08.0500002.02.0999999.06.1100001.06v.02c0,.02-.02.06-.0599999.11h.02ZM8.5600004.58v.03c0,.02,0,.03-.04.06-.1199999.14-.25.25-.4099998.35-.1300001.09-.2800002.17-.4299998.23-.04.02-.0599999.03-.0700002.04s-.02.01-.0300002.01c-.0300002,0-.0799999-.08-.1199999-.2.1500001-.03.3200002-.1.4900002-.2.1099997-.06.2399998-.16.3299999-.25.0799999-.08.1300001-.13.2200003-.25,0,.07.0200005.09.0500002.17l.0099993.0100001ZM7.9400001.46s-.0300002.03-.04.03c0,0-.0100002,0-.02-.01-.0900002-.08-.1799998-.14-.2800002-.18-.0100002,0-.02-.01-.02-.02v-.02q.0700002-.11.0900002-.11c.0300002,0,.1599998.06.2399998.12.0700002.05.0900002.06.0900002.08,0,.02-.04.08-.0700002.12l.0100002-.01ZM8.4300003.36c-.0299997-.06-.0600004-.1-.1099997-.15v-.01s0-.02.0299997-.04c.0200005-.02.0299997-.02.04-.02s.0299997.01.0600004.05c.0500002.05.0799999.1.0799999.11,0,.02-.0699997.07-.0900002.07l-.0100002-.01ZM8.6400003.25s-.0299997.02-.04.02l-.0200005-.01c-.04-.07-.0699997-.1-.1099997-.15v-.01c0-.01.0600004-.06.0799999-.06.0100002,0,.0299997.02.0600004.05.04.05.0799999.1.0799999.11,0,.01-.0100002.02-.04.04l-.0100002.01Z"/>
            <path class="cls-1" d="M9.1199999.71h-.1300001c-.0100002,0-.0200005,0-.0299997-.02,0-.03-.0100002-.08-.0100002-.15.0500002.01.1400003.02.3100004.02.1400003,0,.1499996,0,.1800003-.01h.0200005c.0299997,0,.0500002.01.0900002.05.0299997.03.0500002.06.0500002.07,0,0,0,.01-.0100002.03-.0066662.0133334-.0200005.07-.04.17-.0200005.12-.0299997.17-.04.22q-.0066671.0333333,0,0h.2200003s.0299997.01.0299997.09c0,.0599999,0,.0700001-.0200005.0700001h-.4200001c-.2299995,0-.4099998,0-.4700003.01h-.0100002s-.0299997,0-.04-.02c0-.02-.0100002-.0599999-.0200005-.15.1099997,0,.1499996.01.5600004.01v-.03c.0200005-.09.04-.22.0500002-.35h-.2600002l-.0100002-.0100001Z"/>
          </g>
        </g>
      </g>
    </g>
  </g>
</svg>