<?xml version="1.0" encoding="UTF-8"?>
<svg xmlns="http://www.w3.org/2000/svg" version="1.1" viewBox="0 0 15.4799995 5.3299999">
  <defs>
    <style>
      .cls-1, .cls-2 {
        fill: #5f5f5f;
      }

      .cls-2 {
        stroke: #5f5f5f;
        stroke-linecap: round;
        stroke-linejoin: round;
        stroke-width: .05px;
      }
    </style>
  </defs>
  <!-- Generator: Adobe Illustrator 28.6.0, SVG Export Plug-In . SVG Version: 1.2.0 Build 709)  -->
  <g>
    <g id="_レイヤー_2">
      <g id="lay">
        <g>
          <g>
            <path class="cls-2" d="M.13,4.4899998v-1.9099998c0-.0799999-.03-.1199999-.1-.2h.63c.7900001,0,1.34.3900001,1.34,1.1499999s-.54,1.1500001-1.34,1.1500001H.03c.08-.0799999.1-.1199999.1-.1999998v.0099998ZM.58,4.6399999c.73,0,1.23-.3800001,1.23-1.1100001s-.5-1.1100001-1.23-1.1100001h-.27v2.21h.27v.0100002Z"/>
            <path class="cls-2" d="M3.1500001,4.6900001v-.3800001c-.0699999.1799998-.2.4000001-.47.4000001-.3199999,0-.4300001-.2800002-.4300001-.5599999,0-.2.0599999-.6399999.47-.6399999.25,0,.3599999.1400001.4300001.27v-.25c0-.1800001,0-.5699999-.25-.5699999-.1900001,0-.3699999.23-.51.48h-.04l.0999999-.3900001c.0699999-.04.1900001-.1400001.4100001-.1400001.3099999,0,.46.2.46.54v1.03c0,.0799999.03.1199999.0999999.1999998h-.28l.01.0100002ZM3.1500001,3.8399999c-.0699999-.1400001-.1900001-.3-.3499999-.3-.27,0-.3699999.4300001-.3699999.6500001,0,.2199998.1199999.4900002.3099999.4900002s.3499999-.2800002.4100001-.46v-.3699999l-.0000002-.0100005Z"/>
            <path class="cls-2" d="M4.6399999,3.1199999l.04.52h-.04c-.0700002-.3800001-.1799998-.6700001-.3200002-.6700001-.1599998,0-.29.4200001-.3600001.73v.79c0,.0799999.03.1199999.0999999.1999998h-.3800001c.0799999-.0799999.0999999-.1199999.0999999-.1999998v-1.25c0-.1099999-.03-.1400001-.0699999-.1400001-.03,0-.0699999.03-.0999999.05v-.03c.0799999-.0799999.2-.1900001.27-.1900001.05,0,.0699999.05.0699999.2v.4200001c.0700002-.3099999.1900001-.6300001.3800001-.6300001.1199999,0,.25.1300001.29.2l.0200005.0000002Z"/>
            <path class="cls-2" d="M5.75,3.1400001l-.2800002.4400001.4900002.9100001c.04.0700002.0999999.1199999.1700001.1999998h-.4099998c.0799999-.0799999.0700002-.1300001.0300002-.1999998l-.4099998-.74-.2199998.3500001v.3899999c0,.0799999.0300002.1199999.0999999.1999998h-.3800001c.0799999-.0799999.0999999-.1199999.0999999-.1999998v-1.9099998c0-.1099999-.0300002-.1400001-.0700002-.1400001-.0300002,0-.0700002.03-.0999999.05v-.03c.0799999-.0799999.1999998-.1900001.27-.1900001.0599999,0,.0700002.05.0700002.2v1.5599999l.5599999-.8800001c.04-.0599999.04-.1199999,0-.2h.2599998c-.1100001.0799999-.1700001.1400001-.21.2l.0299997-.01Z"/>
            <path class="cls-2" d="M7.4899998,4.4899998v-1.9099998c0-.0799999-.0300002-.1199999-.0999999-.2h.4000001c.3900003,0,.7799997.1099999.7799997.5699999s-.3800001.5699999-.7799997.5699999h-.1100001v.8700001c0,.1500001.0999999.2199998.1700001.3000002h-.46c.0799999-.0799999.0999999-.1199999.0999999-.2000003ZM7.7800002,3.48c.3300004,0,.5999999-.0999999.5999999-.52s-.2700005-.53-.5999999-.53h-.1100001v1.05h.1100001Z"/>
            <path class="cls-2" d="M9.8599997,3.53c.3100004.0699999.54.24.54.55,0,.3499999-.3000002.6300001-.7799997.6300001-.54,0-.9700003-.3400002-.9700003-.9000001s.4200001-.9000001.9200001-.9000001c.3999996,0,.6899996.23.8100004.6199999h-.5299997l.0099993.0000002ZM8.8800001,3.53c-.0200005.0899999-.04.1800001-.04.28,0,.5300002.3500004.8499999.8199997.8499999.3800001,0,.71-.2199998.71-.5799999,0-.3299999-.29-.5-.6400003-.55h-.8599997.0100002ZM10.1999998,3.5c-.1000004-.3399999-.3299999-.54-.6199999-.54-.3100004,0-.5900002.2-.6899996.54h1.3199997-.0100002Z"/>
            <path class="cls-2" d="M11.5799999,2.9200001c.54,0,.9200001.3399999.9200001.9000001s-.3800001.9000001-.9200001.9000001-.9200001-.3400002-.9200001-.9000001.3800001-.9000001.9200001-.9000001ZM11.5799999,4.6700001c.4300003,0,.7399998-.3299999.7399998-.8600001s-.3000002-.8600001-.7399998-.8600001-.7399998.3299999-.7399998.8600001.3000002.8600001.7399998.8600001Z"/>
            <path class="cls-2" d="M12.8599997,4.4899998v-1.25c0-.1099999-.0299997-.1400001-.0699997-.1400001-.0299997,0-.0699997.03-.1000004.05v-.03c.0799999-.0799999.1999998-.1900001.2700005-.1900001.0600004,0,.0699997.05.0699997.2v.3600001c.0799999-.24.2200003-.5699999.5-.5699999.1800003,0,.3400002.1400001.3400002.48v1.0899999c0,.0799999.0299997.1199999.1000004.1999998h-.3800001c.0799999-.0799999.1000004-.1199999.1000004-.1999998v-.9300001c0-.28-.0200005-.6000001-.2200003-.6000001-.21,0-.3699999.3499999-.4499998.5899999v.9300001c0,.0799999.0299997.1199999.1000004.1999998h-.3800001c.0799999-.0799999.1000004-.1199999.1000004-.1999998l.0199986.0100002Z"/>
            <path class="cls-2" d="M15.29,3.1400001l-.5600004,1.6699998c-.0699997.2199998-.1400003.5-.3800001.5-.1499996,0-.2600002-.1100001-.2600002-.29,0-.3099999.3400002-.3600001.6199999-.3600001l-.54-1.52c-.0299997-.0799999-.0799999-.1199999-.1499996-.2h.3900003c-.0799999.0799999-.0799999.1199999-.0600004.2l.46,1.27.4200001-1.27c.0299997-.0799999.0200005-.1199999-.04-.2h.25c-.0900002.0799999-.1300001.1199999-.1599998.2l.0100002.0000002ZM14.1400003,5.0100002c0,.1700001.1000004.25.21.25.1999998,0,.2700005-.2600002.3400002-.46l.04-.1199999c-.2700005,0-.5900002.0300002-.5900002.3200002v.0099998Z"/>
          </g>
          <g>
            <path class="cls-1" d="M.23.67s-.07.05-.08.05-.01,0-.04-.03C.08.6600001.05.64,0,.6100001c.16-.1.26-.18.35-.31.06-.09.11-.18.13-.26.16.06.2.08.2.1,0,0,0,.01-.02.02-.01.01-.03.04-.08.1h.13c.15,0,.18,0,.23-.02h.03c.02,0,.04.02.09.07.04.04.05.06.05.08,0,.01,0,.02-.02.04-.01.01-.03.04-.05.08-.14.26-.25.4-.42.5500001-.13.12-.34.26-.39.26-.01,0-.03,0-.04-.02-.04-.04-.08-.0700001-.13-.09.21-.1.37-.21.51-.36.0933333-.1.08-.1133333-.04-.04-.18.11-.07-.06-.14-.12,0,0-.01-.01-.01-.02,0,0,.02-.03.07-.08q.03-.03.04-.03c.02,0,.11.07.2.16.09-.12.15-.23.19-.32-.1133333,0-.2433333,0-.39,0-.07.09-.16.18-.26.26l-.0000002.0099999ZM1.22.28s-.05.04-.0599999.04,0,0-.04-.04c-.02-.04-.0599999-.09-.09-.12v-.01c0-.01.0599999-.05.0700001-.05.01,0,.03.01.08.07.04.05.0700001.09.0700001.1s0,.02-.02.03l-.0100002-.02ZM1.28.21c-.04-.06-.0700001-.1-.11-.14v-.01s0-.02.03-.03c.02-.02.03-.02.04-.02.02,0,.0599999.04.11.1.02.03.04.05.04.06,0,0,0,.02-.02.03-.02.02-.05.03-.0599999.03,0,0-.01,0-.02-.02h-.01Z"/>
            <path class="cls-1" d="M1.9299999.59c.2700001,0,.4299999,0,.58-.01h.02s.04,0,.04.12c0,.06,0,.07-.03.07h-1.1099999c-.02,0-.03,0-.03-.02,0-.04-.01-.11-.01-.18.12.01.23.02.5399998.02Z"/>
            <path class="cls-1" d="M3.3499999.42c-.0999999.14-.28.3-.3199999.3-.01,0-.02,0-.05-.03-.02-.02-.0599999-.05-.1099999-.07.1099999-.06.22-.15.3-.25.0899999-.1.1400001-.19.1900001-.32.0699999.02.1099999.04.1600001.07.02.01.03.02.03.03,0,.01,0,.02-.02.03-.01.01-.03.03-.0699999.08h.22c.0799999,0,.0999999,0,.1400001-.02h.02c.02,0,.05.02.0899999.08.03.04.04.05.04.07s0,.02-.03.04c-.01.01-.03.04-.05.07-.1600001.29-.3199999.48-.5599999.66-.0999999.08-.24.16-.27.16-.01,0-.02,0-.04-.02-.03-.03-.0699999-.0599999-.1199999-.09.22-.1.3699999-.21.52-.36.1099999-.11.1800001-.21.25-.33.01-.03.02-.04.05-.09h-.3799999l.0099993-.01Z"/>
            <path class="cls-1" d="M4.5100002.99s.0900002.05.2399998.05.21,0,.4200001-.03h.0100002c.0100002,0,.02,0,.0300002.02,0,.02.0100002.1.0100002.12s0,.03-.0300002.04c-.0500002.01-.2600002.02-.4299998.02s-.2599998-.01-.3299999-.04c-.0500002-.03-.0900002-.0700001-.0999999-.12,0-.04-.0100002-.07-.0100002-.13v-.34c0-.26,0-.35-.02-.42.1799998.02.2199998.02.2199998.05v.03c0,.01,0,.03-.0100002.06v.28c.2600002-.08.4699998-.18.5599999-.28.0700002.09.1199999.16.1199999.18,0,.01,0,.02-.04.03-.02,0-.0599999.02-.1199999.05-.1799998.09-.3200002.14-.52.19,0,.19,0,.22.0100002.24h-.0100002ZM5.4299998.2c0,.09-.0700002.16-.1599998.16s-.1599998-.07-.1599998-.16.0700002-.16.1599998-.16.1599998.07.1599998.16ZM5.1900001.2s.04.08.0799999.08.0799999-.04.0799999-.08-.04-.08-.0799999-.08-.0799999.04-.0799999.08Z"/>
            <path class="cls-1" d="M6.21.65c-.0900002.12-.1999998.22-.3299999.31-.0799999.06-.21.1299999-.23.1299999-.0100002,0-.02,0-.0500002-.04s-.0500002-.06-.0900002-.09c.1399999-.06.23-.11.3400002-.2s.1799998-.15.27-.28c-.2199998,0-.3800001,0-.4400001.01h-.0300002c-.02,0-.0300002,0-.0300002-.02s-.0100002-.09-.02-.17c.0700002,0,.3000002.02.48.02h.0999999v-.07c0-.1,0-.14-.02-.2.0900002,0,.1500001,0,.1900001.02.0100002,0,.02.01.02.02s0,.01-.0100002.03c-.0100002.02-.0100002.03-.0100002.07v.14h.3600001s.04,0,.04.09,0,.08-.0300002.08h-.3400006l.02.37v.19c0,.17-.0599999.21-.25.21h-.0999999c-.0100002,0-.02-.01-.0300002-.0599999-.0100002-.03-.0300002-.08-.0500002-.12.0700002.01.1199999.02.1700001.02.0700002,0,.0900002-.01.0900002-.0599999h0v-.37l-.0199981-.0300001Z"/>
            <path class="cls-1" d="M7.4499998.91c.27,0,.5,0,.6099997-.01h.0500002c.0100002,0,.0100002.03.0100002.11q0,.08-.0299997.08h-.3899999c-.4099998,0-.6100001,0-.6999998.02h-.0300002c-.0300002,0-.04-.03-.0500002-.21.1199999,0,.27.01.5299997.01ZM7.4899998.27c.1999998,0,.3200002,0,.4000001-.02h.02q.02,0,.0300002.03v.11c0,.05,0,.06-.02.06h-.7800007c-.02,0-.0300002,0-.0300002-.02s-.02-.11-.02-.18c.0900002.01.1900001.02.4000006.02Z"/>
            <path class="cls-1" d="M8.8900003.59c.2700005,0,.4300003,0,.5799999-.01h.0200005s.04,0,.04.12c0,.06,0,.07-.0299997.07h-1.1100006c-.0200005,0-.0299997,0-.0299997-.02,0-.04-.0100002-.11-.0100002-.18.1199999.01.2299995.02.54.02Z"/>
          </g>
        </g>
      </g>
    </g>
  </g>
</svg>