<svg xmlns="http://www.w3.org/2000/svg" xmlns:xlink="http://www.w3.org/1999/xlink" width="214.958" height="140" viewBox="0 0 214.958 140">
  <defs>
    <clipPath id="clip-path">
      <rect id="長方形_257" data-name="長方形 257" width="214.958" height="140" fill="none"/>
    </clipPath>
  </defs>
  <g id="ml_CL_title_silky-pearl" transform="translate(0 0)">
    <g id="グループ_415" data-name="グループ 415" transform="translate(0 0)" clip-path="url(#clip-path)">
      <path id="パス_1484" data-name="パス 1484" d="M2.41,74.6A8.251,8.251,0,0,1,0,68.509V58.085a1.783,1.783,0,0,1,2.017-2.017H3.854a1.781,1.781,0,0,1,2.014,2.017L5.7,68.683A2.69,2.69,0,0,0,8.41,71.4h.876A2.69,2.69,0,0,0,12,68.683V61.411a11.473,11.473,0,0,0-1.138-5.6L2.719,40.74A18.993,18.993,0,0,1,.612,35.748,22.991,22.991,0,0,1,0,30.228V23.484a8.238,8.238,0,0,1,8.5-8.5h.7a8.238,8.238,0,0,1,8.5,8.5v11.91a1.782,1.782,0,0,1-2.017,2.017H14.017A1.782,1.782,0,0,1,12,35.394V23.307a2.69,2.69,0,0,0-2.713-2.713H8.5a2.7,2.7,0,0,0-2.713,2.713v9.109a9.182,9.182,0,0,0,1.4,4.73L14.977,51.6A19.8,19.8,0,0,1,17.3,56.857a25.557,25.557,0,0,1,.483,5.52v6.132a8.243,8.243,0,0,1-8.5,8.5H8.5A8.251,8.251,0,0,1,2.41,74.6" transform="translate(0 29.997)" fill="#5a4646"/>
      <path id="パス_1485" data-name="パス 1485" d="M8.128,19.892V18.664a1.782,1.782,0,0,1,2.017-2.014h1.666q2.1,0,2.1,2.014v1.228q0,2.012-2.1,2.014H10.145a1.782,1.782,0,0,1-2.017-2.014m0,51.418V29.352a1.781,1.781,0,0,1,2.017-2.014h1.666q2.1,0,2.1,2.014V71.31q0,2.012-2.1,2.014H10.145A1.782,1.782,0,0,1,8.128,71.31" transform="translate(16.268 33.325)" fill="#5a4646"/>
      <path id="パス_1486" data-name="パス 1486" d="M12.258,74.406V17.117A1.781,1.781,0,0,1,14.272,15.1h1.666q2.1,0,2.1,2.014V74.406q0,2.012-2.1,2.014H14.272a1.781,1.781,0,0,1-2.014-2.014" transform="translate(24.534 30.229)" fill="#5a4646"/>
      <path id="パス_1487" data-name="パス 1487" d="M16.486,74.406V17.117A1.781,1.781,0,0,1,18.5,15.1h1.753a1.781,1.781,0,0,1,2.014,2.014V50.841L29.71,32.01a2.438,2.438,0,0,1,.876-1.141,2.354,2.354,0,0,1,1.4-.435h1.84q1.751,0,1.753,1.489a5.621,5.621,0,0,1-.174.876L27.345,53.032l8.062,21.022a5.555,5.555,0,0,1,.174.876,1.339,1.339,0,0,1-.483,1.1,1.951,1.951,0,0,1-1.27.393h-1.84a2.172,2.172,0,0,1-2.278-1.576L22.267,55.4V74.406a1.781,1.781,0,0,1-2.014,2.014H18.5a1.781,1.781,0,0,1-2.014-2.014" transform="translate(32.996 30.229)" fill="#5a4646"/>
      <path id="パス_1488" data-name="パス 1488" d="M27.555,77.716a9.08,9.08,0,0,1-2.32-6.441V69.351a1.625,1.625,0,0,1,1.837-1.84h1.84a1.625,1.625,0,0,1,1.837,1.84V71.8a2.916,2.916,0,0,0,2.893,2.977h.612a2.793,2.793,0,0,0,2.059-.831,2.907,2.907,0,0,0,.831-2.146V61.643a6.237,6.237,0,0,1-2.584,1.84,7.7,7.7,0,0,1-2.581.525h-.441a6.649,6.649,0,0,1-4.682-1.93q-2.062-1.927-2.062-6.129V22.135q0-1.922,2.017-1.924h1.837a1.7,1.7,0,0,1,1.93,1.924V54.986a5.315,5.315,0,0,0,.567,2.758,2.322,2.322,0,0,0,2.146.918h.351q3.5,0,3.5-3.59V22.135a1.7,1.7,0,0,1,1.927-1.924h1.84q2.012,0,2.014,1.924V71.452a8.76,8.76,0,0,1-2.365,6.264,7.847,7.847,0,0,1-5.955,2.5h-.612a8.344,8.344,0,0,1-6.438-2.5" transform="translate(49.624 40.453)" fill="#5a4646"/>
      <path id="パス_1489" data-name="パス 1489" d="M38.336,74.407V17.118A1.78,1.78,0,0,1,40.35,15.1h7.27a8.238,8.238,0,0,1,8.5,8.5V44.272a8.238,8.238,0,0,1-8.5,8.5H44.03V74.407a1.783,1.783,0,0,1-2.017,2.014H40.35a1.78,1.78,0,0,1-2.014-2.014m11.21-28.031a2.622,2.622,0,0,0,.789-1.93V23.427a2.69,2.69,0,0,0-2.716-2.716H44.03V47.166h3.59a2.622,2.622,0,0,0,1.927-.789" transform="translate(76.728 30.231)" fill="#5a4646"/>
      <path id="パス_1490" data-name="パス 1490" d="M48.771,64.361a8.223,8.223,0,0,1-2.41-6.132v-29.7a8.113,8.113,0,0,1,2.41-6.045,8.33,8.33,0,0,1,6.087-2.365h.612a8.557,8.557,0,0,1,6.177,2.41,8.1,8.1,0,0,1,2.494,6.087V42.373a1.78,1.78,0,0,1-2.014,2.014H52.052V58.052a2.85,2.85,0,0,0,2.806,2.8h.7a2.634,2.634,0,0,0,2.014-.834,2.763,2.763,0,0,0,.789-1.969V52.884a1.625,1.625,0,0,1,1.84-1.84h2.1a1.625,1.625,0,0,1,1.84,1.84V58.23a8.1,8.1,0,0,1-8.494,8.5h-.789a8.33,8.33,0,0,1-6.087-2.365m9.59-35.828a2.628,2.628,0,0,0-.876-1.969,2.823,2.823,0,0,0-2.014-.834h-.525a2.83,2.83,0,0,0-2.017.834,2.628,2.628,0,0,0-.876,1.969V39.044h6.309Z" transform="translate(92.79 40.277)" fill="#5a4646"/>
      <path id="パス_1491" data-name="パス 1491" d="M56.3,64.578q-2.012-2.148-2.014-6.261V52.884q0-6.222,1.8-9.548a13.564,13.564,0,0,1,6.171-5.517l4.031-2.1V28.533a2.867,2.867,0,0,0-.789-2.059,2.652,2.652,0,0,0-2.014-.831h-.612a2.957,2.957,0,0,0-2.1.831,2.832,2.832,0,0,0-.873,2.146v3.242q0,1.927-1.84,1.927H56.3a1.7,1.7,0,0,1-1.927-1.927V29.232A9.353,9.353,0,0,1,56.7,22.665a8.264,8.264,0,0,1,6.435-2.542h.615a7.731,7.731,0,0,1,5.913,2.5,8.851,8.851,0,0,1,2.323,6.261l.087,35.651a1.627,1.627,0,0,1-1.84,1.84H68.652a1.218,1.218,0,0,1-1.312-.963l-.7-2.014a5.543,5.543,0,0,1-2.407,2.542,6.171,6.171,0,0,1-2.758.789h-.618A6.11,6.11,0,0,1,56.3,64.578m9.241-4.16a3.829,3.829,0,0,0,.744-2.542v-16.2L64.45,42.721a7.556,7.556,0,0,0-3.6,3.635,17.691,17.691,0,0,0-.786,6v5.433q0,3.5,2.188,3.506h1.318a2.46,2.46,0,0,0,1.969-.876" transform="translate(108.653 40.277)" fill="#5a4646"/>
      <path id="パス_1492" data-name="パス 1492" d="M62.464,64.182V22.312A1.781,1.781,0,0,1,64.478,20.3h1.4a1.888,1.888,0,0,1,2.1,1.927l.087,3.764h.087q2.98-5.781,8.848-5.778h.087a1.16,1.16,0,0,1,1.315,1.312v3.5a1.1,1.1,0,0,1-.393.921,1.282,1.282,0,0,1-1.008.219q-4.205-.351-6.483,1.927a8.286,8.286,0,0,0-2.278,6.132V64.182A1.781,1.781,0,0,1,66.231,66.2H64.478a1.781,1.781,0,0,1-2.014-2.014" transform="translate(125.019 40.453)" fill="#5a4646"/>
      <path id="パス_1493" data-name="パス 1493" d="M69.692,74.406V17.117A1.781,1.781,0,0,1,71.706,15.1h1.666q2.1,0,2.1,2.014V74.406q0,2.012-2.1,2.014H71.706a1.781,1.781,0,0,1-2.014-2.014" transform="translate(139.486 30.229)" fill="#5a4646"/>
      <path id="パス_1494" data-name="パス 1494" d="M18.69,45.8a14.682,14.682,0,0,1,2.1,1.165c.456.273,1.318.744,1.318,1.014,0,.3-.675,1.3-1.014,1.3a.955.955,0,0,1-.39-.186,29.781,29.781,0,0,0-2.686-1.708c-.117-.066-.288-.135-.288-.285,0-.273.642-1.3.963-1.3m.558,7.252a20.071,20.071,0,0,0,2.011-.678,11.351,11.351,0,0,0,4.208-2.653,14.233,14.233,0,0,0,2.893-5.1c.069-.171.135-.408.354-.408.252,0,1.267.93,1.267,1.27a3.752,3.752,0,0,1-.219.657c-.033.117-.084.2-.1.27a14.984,14.984,0,0,1-3.128,4.784,16.309,16.309,0,0,1-5.784,3.416.928.928,0,0,0-.642.489.218.218,0,0,1-.168.1c-.186,0-.321-.372-.423-.573-.186-.405-.372-.813-.558-1.219a.384.384,0,0,1-.033-.153c0-.132.219-.168.321-.2m3.245-9.872c.354.252.963.675,1.27.93a.4.4,0,0,1,.183.285c0,.306-.708,1.252-1.014,1.252a.863.863,0,0,1-.42-.219,26.357,26.357,0,0,0-2.485-1.795c-.117-.066-.288-.165-.288-.318,0-.237.726-1.168,1.033-1.168a7.13,7.13,0,0,1,1.471.861c.117.069.2.135.252.171" transform="translate(35.48 84.361)" fill="#5a4646"/>
      <path id="パス_1495" data-name="パス 1495" d="M27.191,42.929c.2.03.426.03.426.2,0,.084-.105.171-.171.237-.1.1-.084.387-.084.54v.372c0,3.5-.237,6.474-2.926,9.043-.135.117-.336.357-.525.357-.252,0-1.5-.624-1.5-.93,0-.12.135-.237.222-.306,2.566-2.131,2.887-4.5,2.887-7.639,0-.507-.015-1.186-.066-1.675,0-.051-.018-.135-.018-.189,0-.147.1-.183.219-.183.324,0,1.186.117,1.54.171M31.2,49.995c0,.522.018.777.27.777.558,0,3.89-2.974,4.427-3.536.087-.081.207-.219.342-.219.285,0,.861,1.084.861,1.354,0,.252-.66.8-.879.978-1.014.879-2.029,1.744-3.092,2.539-.459.354-1.186.894-1.594,1.249-.15.12-.318.3-.522.3a4.362,4.362,0,0,1-1.165-.507c-.237-.132-.543-.3-.543-.606,0-.12.069-1.219.069-2.029V44.382a14.428,14.428,0,0,0-.069-1.726v-.084a.151.151,0,0,1,.171-.168c.1,0,.525.066.66.084.876.117,1.369.168,1.369.354,0,.117-.069.153-.135.237a.658.658,0,0,0-.153.441c-.018.387-.018,1.234-.018,1.657Z" transform="translate(44.847 84.871)" fill="#5a4646"/>
      <path id="パス_1496" data-name="パス 1496" d="M32.685,45.179a.437.437,0,0,0,.372-.438,1.6,1.6,0,0,0-.036-.27l-.081-.387c-.1-.459-.237-1.234-.372-1.675a.586.586,0,0,1-.054-.186c0-.222.288-.222.714-.237.4-.015.807-.033,1.216-.033.1,0,.3,0,.3.153s-.2.285-.2.624c0,.168.171,1.1.2,1.336l.069.288a.52.52,0,0,0,.558.438l1.4-.2c.3-.054,2.164-.357,2.263-.357.306,0,.324.3.372.558a7.309,7.309,0,0,1,.12.843c0,.357-.219.372-1.2.489-.336.036-.759.069-1.3.153l-1.369.207a.429.429,0,0,0-.354.519l.354,1.864a.492.492,0,0,0,.558.4l2.74-.39c.288-.03,2.212-.369,2.3-.369.321,0,.357.252.405.624.018.069.018.135.036.222.018.15.051.387.051.522,0,.372-.171.405-1.2.525-.339.033-.78.084-1.354.168l-2.671.39a.427.427,0,0,0-.354.525l.2,1.114c.084.456.573,2.62.573,2.875,0,.234-.186.285-.372.354a6.581,6.581,0,0,1-1.114.2c-.324,0-.354-.321-.408-.69a.806.806,0,0,0-.033-.207c-.117-.672-.27-1.534-.39-2.194l-.219-1.186a.518.518,0,0,0-.573-.405l-2.974.423c-.321.051-2.062.354-2.215.354-.237,0-.3-.132-.354-.339a7.782,7.782,0,0,1-.171-1.1c0-.324.222-.357,1.12-.441.336-.033.792-.084,1.384-.168l2.905-.423a.426.426,0,0,0,.372-.525l-.336-1.843a.5.5,0,0,0-.591-.423l-1.486.222c-.306.048-2.2.354-2.3.354-.219,0-.318-.2-.354-.405-.033-.237-.135-.81-.135-1.014,0-.321.237-.354,1.117-.456.354-.033.843-.1,1.453-.186Z" transform="translate(56.281 83.966)" fill="#5a4646"/>
      <path id="パス_1497" data-name="パス 1497" d="M44.115,43.907c.777,0,1.876-.051,2.1-.051.456,0,.471.135.471,1.066,0,.543-.015.861-.456.861-.708,0-1.42-.033-2.11-.033H36.338c-.693,0-1.4.033-2.113.033-.438,0-.456-.318-.456-.843,0-.948.033-1.084.474-1.084.216,0,1.384.051,2.1.051Z" transform="translate(67.587 87.777)" fill="#5a4646"/>
      <path id="パス_1498" data-name="パス 1498" d="M44.581,44.966c.168.084.894.456.894.642,0,.12-.168.186-.27.237a.719.719,0,0,0-.288.336,26.1,26.1,0,0,1-3.7,5.31c-.183.219-.708.828-1,.828-.255,0-1.435-.693-1.435-1.048a.347.347,0,0,1,.132-.237A19.176,19.176,0,0,0,43.293,44.9c.054-.12.135-.39.288-.39a4.656,4.656,0,0,1,1,.456m5.054,0a12.2,12.2,0,0,1,1.132,1.369c.492.66,2.725,3.956,2.725,4.6,0,.423-1.306,1.014-1.591,1.014-.2,0-.27-.153-.339-.3a24.5,24.5,0,0,0-3.314-5.478.526.526,0,0,1-.186-.339c0-.3,1.014-.981,1.267-.981a.416.416,0,0,1,.306.12m4.43-1a1.675,1.675,0,1,1-1.672-1.687,1.668,1.668,0,0,1,1.672,1.687m-2.587,0a.912.912,0,1,0,.915-.912.913.913,0,0,0-.915.912" transform="translate(77.627 84.623)" fill="#5a4646"/>
      <path id="パス_1499" data-name="パス 1499" d="M54.991,43.907c.777,0,1.876-.051,2.1-.051.456,0,.471.135.471,1.066,0,.543-.015.861-.456.861-.708,0-1.42-.033-2.11-.033H47.214c-.693,0-1.4.033-2.113.033-.438,0-.456-.318-.456-.843,0-.948.033-1.084.474-1.084.216,0,1.384.051,2.1.051Z" transform="translate(89.355 87.777)" fill="#5a4646"/>
      <path id="パス_1500" data-name="パス 1500" d="M54.436,42.929c.2.03.426.03.426.2,0,.084-.105.171-.171.237-.1.1-.084.387-.084.54v.372c0,3.5-.237,6.474-2.926,9.043-.135.117-.336.357-.525.357-.252,0-1.5-.624-1.5-.93,0-.12.135-.237.222-.306,2.566-2.131,2.887-4.5,2.887-7.639,0-.507-.015-1.186-.066-1.675,0-.051-.018-.135-.018-.189,0-.147.1-.183.219-.183.324,0,1.186.117,1.54.171m4.007,7.065c0,.522.018.777.27.777.558,0,3.89-2.974,4.427-3.536.087-.081.207-.219.342-.219.285,0,.861,1.084.861,1.354,0,.252-.66.8-.879.978-1.014.879-2.029,1.744-3.092,2.539-.459.354-1.186.894-1.594,1.249-.15.12-.318.3-.522.3a4.362,4.362,0,0,1-1.165-.507c-.237-.132-.543-.3-.543-.606,0-.12.069-1.219.069-2.029V44.382a14.43,14.43,0,0,0-.069-1.726v-.084a.151.151,0,0,1,.171-.168c.1,0,.525.066.66.084.876.117,1.369.168,1.369.354,0,.117-.069.153-.135.237a.658.658,0,0,0-.153.441c-.018.387-.018,1.234-.018,1.657Z" transform="translate(99.376 84.871)" fill="#5a4646"/>
      <path id="パス_1501" data-name="パス 1501" d="M20.081,5.055a.317.317,0,0,1-.021.3,1.091,1.091,0,0,0,0,.78c.015.105.048.2.063.345a1.756,1.756,0,0,0,.1.42.26.26,0,0,0,.372.1,18,18,0,0,0,2.563-2.146,1.421,1.421,0,0,1,.354-.315c.2-.1.333.093.5.276a5.459,5.459,0,0,1,.612.864c.123.24-.021.369-.36.636-.735.564-2.374,1.747-3.17,2.269-.462.312-.426.423-.243,1.225.06.234.126.543.2.921a.893.893,0,0,0,.09.291c.048.093.117.114.222.06a.33.33,0,0,0,.135-.144,5.452,5.452,0,0,1,2.218-2.161,3.276,3.276,0,0,1,4.649,1.555c.969,1.9.27,3.716-1.237,5.075a15.669,15.669,0,0,1-2.932,2.032c-.5.252-.609.216-.861-.054a5.04,5.04,0,0,1-.7-.891.339.339,0,0,1,.15-.48c.2-.1.705-.222,1.276-.513,1.567-.8,3.725-2.482,2.707-4.469a1.64,1.64,0,0,0-2.287-.8,5.54,5.54,0,0,0-2.68,3.746c-.039.186-.072.45-.252.54-.345.18-1.417.2-1.636-.225a2.4,2.4,0,0,1-.129-.771,16.777,16.777,0,0,0-.447-2.917,2.033,2.033,0,0,0-.117-.417.246.246,0,0,0-.357-.1c-.093.045-.219.132-.309.174-.336.2-1.441.93-1.744,1.09a.409.409,0,0,1-.546-.1,5.534,5.534,0,0,1-.672-.912c-.2-.39.048-.5.123-.537.21-.108,1.132-.5,1.732-.81,1.069-.546,1.21-.675,1.186-1.063a15.7,15.7,0,0,0-.663-2.071c-.078-.228-.261-.549-.021-.672.153-.078,1.954-.45,2.125-.12" transform="translate(31.069 9.02)" fill="#5a4646"/>
      <path id="パス_1502" data-name="パス 1502" d="M22.532,6.059l.273.018c.348.024.573.006.63.186.042.108-.009.183-.072.27a.635.635,0,0,0-.123.435,11.539,11.539,0,0,0,.246,1.447c.027.078.075.171.171.141s.1-.141.111-.21a6.56,6.56,0,0,1,.846-2.011A4,4,0,0,1,25.7,5.23c.144-.1.321-.213.228-.486a7.055,7.055,0,0,0-.582-.909.974.974,0,0,1-.156-.252c-.075-.222.228-.342.387-.393,1.123-.366,1.336-.366,1.4-.159a.531.531,0,0,1-.012.273.4.4,0,0,0,.006.246,4.789,4.789,0,0,0,.291.561.468.468,0,0,0,.522.237c.279-.021.537-.054.807-.054A3.409,3.409,0,0,1,31.8,6.8a3.688,3.688,0,0,1-2.158,4.8c-.3.1-.339.255-.369.549-.048.39-.246,1.687-.666,1.825-.222.072-1.144-.246-1.231-.5a.391.391,0,0,1,.051-.285,3.251,3.251,0,0,0,.291-1.216c-.057-.18-.228-.21-.384-.249A3.482,3.482,0,0,1,25.14,9.543c-.183-.564.531-.867.66-.909.294-.1.375.108.417.234.465,1.2,1.189,1.444,1.393,1.375a.236.236,0,0,0,.141-.225,12.111,12.111,0,0,0-.51-2.359C26.9,6.6,26.731,6.314,26.473,6.4a3.43,3.43,0,0,0-.921.927,5.291,5.291,0,0,0-.744,4.337,2.953,2.953,0,0,0,.339.708,1.376,1.376,0,0,1,.114.231c.117.372-.663.807-.873.873-.3.1-.5-.228-.75-.66a14.468,14.468,0,0,1-1.18-2.722,18.219,18.219,0,0,1-.723-3.113c-.027-.2-.048-.375-.09-.591-.021-.12,0-.27.129-.312a3.517,3.517,0,0,1,.759-.018m5.637-.024c.054.165.348.9.489,1.318a15.611,15.611,0,0,1,.531,2.266,1.344,1.344,0,0,0,.024.237.252.252,0,0,0,.336.159A2.161,2.161,0,0,0,30.4,7.259,1.921,1.921,0,0,0,28.319,5.74a.2.2,0,0,0-.15.294" transform="translate(43.305 5.786)" fill="#5a4646"/>
      <path id="パス_1503" data-name="パス 1503" d="M35.315,1.989c.018.117-.15.249-.309.411a16.443,16.443,0,0,0-2.044,2.638.512.512,0,0,0-.12.312c.024.132.171.192.321.171a1.161,1.161,0,0,0,.21-.072,2.99,2.99,0,0,1,.669-.18,4.951,4.951,0,0,1,2.137.156A3.5,3.5,0,0,1,38.7,8.331c.492,2.95-1.87,4.922-4.553,5.37-1.384.228-3.449-.009-3.731-1.708a2.122,2.122,0,0,1,1.8-2.374,2.761,2.761,0,0,1,2.416.813,1.7,1.7,0,0,1,.477,1.017c.036.114.1.2.237.183a2.745,2.745,0,0,0,1.588-2.905c-.27-1.615-1.75-2.056-3.2-1.816a5.128,5.128,0,0,0-3.461,2.26c-.546.741-1.033,1.525-1.516,2.308-.042.075-.084.135-.165.15a2.318,2.318,0,0,1-1.4-1c-.033-.2.186-.429.318-.57a68.646,68.646,0,0,0,4.31-6.1c.111-.156.36-.507.336-.675-.027-.147-.186-.171-.318-.15a3.029,3.029,0,0,0-.39.135c-.384.165-2.656,1.039-2.92,1.087-.366.057-.624-1.183-.672-1.465-.066-.384-.054-.42.447-.5l.4-.066A15.673,15.673,0,0,0,32.818,1a2.371,2.371,0,0,1,.6-.291c.666-.111,1.846,1,1.894,1.279m-2.839,8.974a.7.7,0,0,0-.6.786c.1.6.945.75,1.447.666a.5.5,0,0,0,.354-.639,1.034,1.034,0,0,0-1.2-.813" transform="translate(54.419 1.407)" fill="#5a4646"/>
      <path id="パス_1504" data-name="パス 1504" d="M35.067,7.465a52.35,52.35,0,0,1,3.428-6.03c.249-.411.459-.768.672-1.177C39.218.171,39.3,0,39.416,0a4.3,4.3,0,0,1,.96.624c.168.117.783.525.786.714s-.147.255-.3.276a.731.731,0,0,0-.438.225,16.825,16.825,0,0,0-1.038,1.408,21.99,21.99,0,0,0-1.66,2.734.183.183,0,0,0,.171.165.644.644,0,0,0,.3-.123,3.8,3.8,0,0,1,1.783-.609,2,2,0,0,1,1.807.969A2.8,2.8,0,0,1,42,7.444a9.117,9.117,0,0,1-.192,1.642,9.575,9.575,0,0,0-.24,1.663c0,.285.111.642.447.636.948-.018,2.518-2.092,3.028-2.845.084-.1.2-.24.336-.243.3-.006.9,1.321.9,1.558a.654.654,0,0,1-.177.375c-.381.4-.765.792-1.165,1.171a5.449,5.449,0,0,1-3.365,1.834c-1.2.021-1.708-1-1.726-2.068A10.76,10.76,0,0,1,40.034,9.2,7.4,7.4,0,0,0,40.2,7.831c-.009-.438-.165-.777-.657-.768a3.13,3.13,0,0,0-1.444.5,5,5,0,0,0-1.7,1.57A11.77,11.77,0,0,0,34.9,12.708c-.045.219-.075.525-.363.531-.27.006-1.63-.462-1.636-.75,0-.015.276-.714.294-.747.6-1.432,1.2-2.86,1.867-4.277" transform="translate(65.86 0.001)" fill="#5a4646"/>
      <path id="パス_1505" data-name="パス 1505" d="M41.188,10.783c.048-.351.081-.687.126-1.042.09-.633.33-.753.948-.669.417.057.834.135,1.237.189l6.531.909c.4.057.8.093,1.207.15.567.078.855.222.768.858-.054.369-.117.717-.168,1.084l-.174,1.24c-.039.285.039.45.357.51.414.078.84.087,1.261.141.4.057.357.255.27.858-.09.654-.09.771-.624.7-.3-.042-.765-.141-1.519-.246l-10.7-1.489c-.567-.081-1.126-.123-1.678-.2-.384-.051-.357-.255-.276-.822.084-.618.111-.8.513-.747.417.057.849.153,1.267.21.318.045.441-.108.483-.393ZM53.2,2.334c-.015.117.066.162.147.174.5.072,1.011.105,1.513.177.4.054.363.2.282.789-.078.552-.087.741-.486.681-.672-.09-1.318-.231-1.987-.324L50.142,3.48c-.219-.033-.4.045-.432.279l-.018.117A9.771,9.771,0,0,0,49.884,5.2c.036.108.075.2.21.216a.3.3,0,0,0,.231-.069,9.341,9.341,0,0,0,1.093-1.114c.081-.09.144-.183.279-.162.186.024.606.423.741.543.366.327.672.591.648.756-.027.186-.279.15-.414.147a2.532,2.532,0,0,0-.741.546c-.255.237-.585.534-.99.852a.54.54,0,0,0-.2.315.5.5,0,0,0,.09.336c.285.4.87,1.093,1.375,1.165.552.078.75-.5,1-1.21.084-.243.138-.372.423-.333.4.054,1.093.477,1.035.879a4.726,4.726,0,0,1-.807,1.663,1.644,1.644,0,0,1-1.663.654,4.4,4.4,0,0,1-2.7-1.912.482.482,0,0,0-.312-.216.521.521,0,0,0-.315.078,6.458,6.458,0,0,1-2.122.9c-.486-.069-.939-.882-.906-1.1.033-.234.333-.309.513-.372a15.746,15.746,0,0,0,1.795-.876.467.467,0,0,0,.27-.372.537.537,0,0,0-.027-.279,11.762,11.762,0,0,1-.42-2.617c-.024-.327-.147-.429-.474-.51l-3.77-.522c-.267-.036-.4.063-.441.348l-.033.252a.33.33,0,0,0,.33.435l2.326.327a.645.645,0,0,1,.618.717,9.987,9.987,0,0,1-.96,3.347c-.489.564-1.651.453-2.32.36-.468-.066-.612-.135-.675-.435a2.5,2.5,0,0,1-.033-.858c.027-.183.069-.363.285-.336.27.039.561.147.831.186.618.084.876.054,1.1-1.555.036-.267-.1-.267-.348-.3L43.4,4.93a.447.447,0,0,0-.579.345,9.68,9.68,0,0,1-1.57,3.2c-.333.414-.558.69-.81.654-.384-.051-1.129-.7-1.084-1.036.015-.105.09-.159.153-.237a8.556,8.556,0,0,0,2.011-4.634l.081-.588c.06-.435.066-.723.108-1.023C41.8.971,42.2.923,42.737,1c.519.075,1.017.177,1.537.249l3.263.456c.3.039.456-.075.5-.393.015-.1.027-.8.039-.882.033-.234.168-.231.4-.2.27.036,1,.207,1.309.282.234.051.57.081.537.315-.021.153-.18.2-.324.246-.183.075-.2.21-.237.5a.421.421,0,0,0,.423.5l1.741.243c.069.009.138-.015.147-.081a.141.141,0,0,0-.048-.126c-.126-.087-.252-.156-.363-.222-.423-.264-.711-.423-.687-.591.024-.15.459-.72.711-.684.183.024,1.786,1.014,1.744,1.318a.657.657,0,0,1-.18.315.263.263,0,0,0-.048.1m-8.965,8.992a.481.481,0,0,0-.4-.534l-.435-.06a.476.476,0,0,0-.534.4l-.156,1.123a.47.47,0,0,0,.4.534l.435.063a.482.482,0,0,0,.534-.405ZM45.6,12.659a.487.487,0,0,0,.405.537l.45.06a.473.473,0,0,0,.534-.4l.156-1.12a.475.475,0,0,0-.4-.537l-.456-.063a.482.482,0,0,0-.531.405Zm3.869,1.017a.473.473,0,0,0,.534-.405l.156-1.12a.474.474,0,0,0-.4-.534l-.5-.069a.484.484,0,0,0-.534.4l-.156,1.123a.484.484,0,0,0,.405.534Z" transform="translate(77.465 0.423)" fill="#5a4646"/>
      <path id="パス_1506" data-name="パス 1506" d="M53.68,2.3c.072.057.153.135.123.231a.393.393,0,0,1-.2.2c-.267.114-.264.165-.567.8-.117.264-.474,1.02-.543,1.246-.057.18.042.261.171.354a1.218,1.218,0,0,1,.321.912c-.021.066-.105.111-.153.15-.114.087-.594.555-.681.657a1.344,1.344,0,0,0-.111.246c-.027.081-.018.171.078.2a.229.229,0,0,0,.156-.042c.45-.249,1.273-.63,1.762-.834A4.012,4.012,0,0,1,56.732,6,1.832,1.832,0,0,1,57.9,7.143a3.076,3.076,0,0,1-.183,1.624c-.261.843-.552,1.672-.855,2.479-.246.684-.519,1.4-.732,2.074-.117.39-.309.948.063,1.063.435.135,1.345-.345,1.735-.576a.486.486,0,0,1,.363-.084c.273.084.369,1.441.288,1.7-.072.225-.8.459-1.014.537a4.373,4.373,0,0,1-2.569.231c-1.354-.42-1-2.026-.684-3.043.447-1.453,1.114-2.857,1.561-4.31.114-.354.285-.921-.2-1.072a2.529,2.529,0,0,0-1.459.255,17.041,17.041,0,0,0-2.245,1.023,5.841,5.841,0,0,0-1.225.753c-.129.192-.672,2.182-.786,2.554-.033.1-.15.591-.216.87-.174.669-.393,1.558-.45,1.738-.036.111-.069.279-1.264-.09-.39-.123-.678-.21-.579-.534.045-.144.7-1.909.918-2.635.027-.081.033-.219-.078-.255s-.3.174-.537.366c-.267.234-1.036.951-1.294,1.21-.081.084-.174.159-.27.129a2.411,2.411,0,0,1-.882-1.441c.045-.144.387-.393.5-.48,1.267-1.005,2.431-2.1,3.59-3.209a1.559,1.559,0,0,0,.429-.7c.045-.144.123-.279.162-.408a.222.222,0,0,0-.132-.306.94.94,0,0,0-.318-.009,12.277,12.277,0,0,1-2.161.057c-.258-.081-.309-.363-.327-.6a5.044,5.044,0,0,1,0-1.2c.081-.258.42-.153.624-.126.5.084,2.665.366,2.977.036a1.113,1.113,0,0,0,.231-.459c.135-.438.5-1.387.72-2.1.057-.2.1-.393.135-.507.057-.177.153-.2.33-.144s1.462.645,1.609.744" transform="translate(90.663 3.063)" fill="#5a4646"/>
      <path id="パス_1507" data-name="パス 1507" d="M62.843,6.652a3.747,3.747,0,0,1,1.816,5.126c-1.786,3.6-7.9,6.267-11.15,7.11C52.1,15.53,50.7,9.176,52.41,5.739A3.732,3.732,0,0,1,57.6,4.049,3.587,3.587,0,0,1,59.554,6.7a3.6,3.6,0,0,1,3.29-.045M57.357,4.59A3.225,3.225,0,0,0,53,5.994c-2.068,4.163.78,11.9.879,12.153.24-.069,8.143-2.491,10.2-6.654a3.238,3.238,0,0,0-1.519-4.322,3.407,3.407,0,0,0-3.521.558,3.408,3.408,0,0,0-1.687-3.14" transform="translate(103.32 7.198)" fill="#5a4646"/>
    </g>
  </g>
</svg>
