<?xml version="1.0" encoding="UTF-8"?><svg id="_イヤー_2" xmlns="http://www.w3.org/2000/svg" viewBox="0 0 272.42 23.32"><defs><style>.cls-1{fill:#504f4f;}</style></defs><g id="spec"><g><path class="cls-1" d="M4.43,3.46c1.19,0,2.23,.2,3.12,.61,.89,.41,1.58,1.01,2.08,1.81,.5,.8,.74,1.81,.74,3.01,0,.72-.11,1.42-.34,2.09s-.58,1.28-1.08,1.82-1.12,.97-1.89,1.3c-.77,.32-1.69,.49-2.77,.49H1.32v8.05H0V3.46H4.43Zm-.13,9.85c.94,0,1.71-.15,2.34-.45,.62-.3,1.11-.67,1.46-1.13,.35-.46,.6-.94,.76-1.44,.15-.5,.23-.97,.23-1.4,0-.61-.1-1.17-.3-1.67-.2-.5-.49-.94-.88-1.31-.39-.37-.86-.66-1.42-.86-.56-.21-1.2-.31-1.92-.31H1.32V13.32h2.97Z"/><path class="cls-1" d="M14.96,3.46h11.83v1.27h-10.5v7.61h9.45v1.27h-9.45v7.75h10.88v1.27H14.96V3.46Z"/><path class="cls-1" d="M30.54,22.63L38.64,2.63h.11l8.1,20.01h-1.49l-7.05-17.9,.92-.51-7.37,18.41h-1.32Zm3.92-7.59h8.5l.38,1.24h-9.21l.32-1.24Z"/><path class="cls-1" d="M65.04,21.37c-.41,.25-.89,.5-1.43,.73-.54,.23-1.13,.42-1.78,.55-.65,.13-1.35,.2-2.11,.2-1.46,0-2.78-.26-3.97-.77-1.19-.51-2.21-1.21-3.05-2.11-.85-.89-1.5-1.92-1.96-3.08s-.69-2.4-.69-3.71c0-1.4,.24-2.71,.73-3.92,.49-1.21,1.17-2.26,2.05-3.16,.88-.9,1.91-1.6,3.08-2.11s2.44-.76,3.81-.76c1.01,0,1.95,.13,2.83,.4,.88,.27,1.68,.62,2.4,1.05l-.57,1.21c-.63-.4-1.34-.73-2.13-1-.79-.27-1.63-.41-2.51-.41-1.13,0-2.21,.22-3.21,.66-1.01,.44-1.89,1.05-2.66,1.84-.77,.78-1.36,1.7-1.8,2.74-.43,1.04-.65,2.17-.65,3.38s.19,2.24,.58,3.27c.39,1.03,.95,1.93,1.67,2.7,.73,.77,1.61,1.38,2.63,1.82,1.03,.44,2.17,.66,3.43,.66,.94,0,1.8-.13,2.58-.39s1.48-.59,2.09-.99l.62,1.16Z"/><path class="cls-1" d="M84.13,3.46V22.63h-1.32V13.62h-11.56v9.02h-1.32V3.46h1.32V12.38h11.56V3.46h1.32Z"/><path class="cls-1" d="M112.29,21.37c-.41,.25-.89,.5-1.43,.73-.54,.23-1.13,.42-1.78,.55-.65,.13-1.35,.2-2.11,.2-1.46,0-2.78-.26-3.97-.77-1.19-.51-2.21-1.21-3.05-2.11-.85-.89-1.5-1.92-1.96-3.08s-.69-2.4-.69-3.71c0-1.4,.24-2.71,.73-3.92,.49-1.21,1.17-2.26,2.05-3.16,.88-.9,1.91-1.6,3.08-2.11s2.44-.76,3.81-.76c1.01,0,1.95,.13,2.83,.4,.88,.27,1.68,.62,2.4,1.05l-.57,1.21c-.63-.4-1.34-.73-2.13-1-.79-.27-1.63-.41-2.51-.41-1.13,0-2.21,.22-3.21,.66-1.01,.44-1.89,1.05-2.66,1.84-.77,.78-1.36,1.7-1.8,2.74s-.65,2.17-.65,3.38,.19,2.24,.58,3.27c.39,1.03,.94,1.93,1.67,2.7,.73,.77,1.61,1.38,2.63,1.82,1.03,.44,2.17,.66,3.43,.66,.94,0,1.8-.13,2.58-.39,.78-.26,1.48-.59,2.09-.99l.62,1.16Z"/><path class="cls-1" d="M121.55,3.46c.72,0,1.44,.1,2.15,.31s1.36,.53,1.94,.97c.58,.44,1.06,1,1.42,1.69,.36,.68,.54,1.5,.54,2.46,0,.72-.11,1.42-.32,2.09-.22,.67-.57,1.28-1.05,1.82s-1.12,.97-1.89,1.3c-.77,.32-1.73,.49-2.86,.49h-2.97v8.05h-1.32V3.46h4.37Zm-.16,9.85c.95,0,1.75-.13,2.38-.4,.63-.27,1.12-.62,1.49-1.05,.36-.43,.62-.9,.77-1.42,.15-.51,.23-1.01,.23-1.5,0-.58-.1-1.12-.31-1.62-.21-.5-.51-.95-.9-1.34-.4-.39-.87-.69-1.43-.92-.56-.22-1.18-.34-1.86-.34h-3.24V13.32h2.89Zm2.75,.59l5.32,8.72h-1.54l-5.35-8.69,1.57-.03Z"/><path class="cls-1" d="M135.48,16.15c0,1.12,.23,2.08,.69,2.89,.46,.81,1.08,1.44,1.88,1.88,.79,.44,1.69,.66,2.7,.66s1.94-.22,2.74-.66c.8-.44,1.43-1.07,1.89-1.88,.46-.81,.69-1.77,.69-2.89V3.46h1.3v12.77c0,1.39-.29,2.57-.88,3.56-.58,.99-1.38,1.75-2.38,2.27-1,.52-2.12,.78-3.36,.78s-2.36-.26-3.36-.78c-1-.52-1.79-1.28-2.36-2.27s-.86-2.18-.86-3.56V3.46h1.32v12.69Z"/><path class="cls-1" d="M162.94,5.62c-.56-.27-1.24-.52-2.05-.76-.81-.23-1.62-.35-2.43-.35-1.26,0-2.27,.32-3.02,.95-.76,.63-1.13,1.42-1.13,2.38,0,.72,.22,1.32,.65,1.79,.43,.48,1,.88,1.7,1.22,.7,.33,1.45,.65,2.24,.96,.63,.23,1.26,.5,1.88,.78s1.18,.64,1.69,1.05,.9,.93,1.2,1.54c.3,.61,.45,1.37,.45,2.27,0,1.06-.25,2-.76,2.82s-1.21,1.45-2.11,1.9c-.9,.45-1.94,.67-3.13,.67-.96,0-1.82-.12-2.61-.35-.78-.23-1.47-.51-2.05-.82-.58-.31-1.05-.58-1.39-.8l.62-1.08c.4,.29,.88,.58,1.44,.86,.57,.29,1.18,.53,1.85,.73,.67,.2,1.33,.3,2,.3,.77,0,1.53-.15,2.25-.46,.73-.31,1.33-.77,1.81-1.39,.48-.62,.72-1.41,.72-2.36s-.23-1.66-.67-2.23c-.45-.57-1.03-1.03-1.73-1.39-.7-.36-1.45-.68-2.24-.97-.61-.23-1.22-.48-1.84-.74-.61-.26-1.17-.58-1.67-.95-.5-.37-.9-.81-1.2-1.34-.3-.52-.45-1.15-.45-1.89,0-.92,.23-1.72,.7-2.4,.47-.68,1.1-1.22,1.9-1.61,.8-.39,1.71-.59,2.74-.61,.9,0,1.81,.12,2.74,.35s1.73,.53,2.42,.89l-.51,1.03Z"/><path class="cls-1" d="M183.25,3.46V22.63h-1.32V13.62h-11.56v9.02h-1.32V3.46h1.32V12.38h11.56V3.46h1.32Z"/><path class="cls-1" d="M208.03,14.55c.4,1.16,1.03,2.29,1.92,3.35,1.08-.43,3.86-1.59,5.1-2.27,.11-.05,.24-.08,.35-.08,.41,0,.76,.35,.76,.73,0,.46-.05,.59-5.37,2.48,1.65,1.54,3.97,2.7,6.91,3.08,.38,.05,.57,.35,.57,.65,0,.35-.27,.73-.81,.73-2.11,0-8.64-2.05-10.66-8.64-.84,.59-1.7,1.16-2.54,1.67v4.54c1.54-.32,2.94-.7,4-1,.05-.03,.13-.03,.19-.03,.35,0,.62,.3,.62,.62,0,.22-.16,.46-.51,.57-4.02,1.19-10.12,2.35-10.61,2.35-.51,0-.76-.35-.76-.67s.22-.65,.65-.7c1.65-.22,3.43-.51,5.13-.86v-4.05c-3.13,1.73-6.83,2.92-7.23,2.92-.43,0-.7-.35-.7-.7,0-.24,.13-.49,.46-.57,3.48-.94,6.42-2.19,9.37-4.1l-8.61,.05c-.41,0-.59-.3-.59-.59s.19-.59,.59-.59l9.66,.03-.03-1.92c0-.4,.35-.59,.7-.59s.7,.19,.7,.59l-.03,1.92,9.72-.03c.38,0,.57,.3,.57,.59s-.19,.59-.57,.59l-8.93-.05Zm-6.59-7.23c-1.4,1.05-4.51,2.65-5.26,2.65-.46,0-.73-.38-.73-.73,0-.27,.13-.54,.46-.65,1.78-.59,4.08-1.67,5.53-2.62V.67c0-.43,.35-.65,.7-.65s.7,.22,.7,.65V10.96c0,.41-.35,.59-.7,.59s-.7-.19-.7-.59v-3.64Zm-2.73-2.51c-.59-.89-1.4-1.65-2.29-2.29-.16-.13-.24-.27-.24-.4,0-.32,.38-.59,.76-.59,.76,0,3.05,2.02,3.05,2.81,0,.43-.38,.78-.76,.78-.19,0-.38-.08-.51-.3Zm6.59,5.48c-.43,0-.65-.3-.65-.59s.22-.59,.65-.59h4.83v-3.94l-5.34,.03c-.46,0-.65-.3-.65-.59s.22-.62,.65-.62l5.32,.03V.7c0-.46,.38-.7,.76-.7,.35,0,.73,.24,.73,.7V4l5.75-.03c.43,0,.65,.3,.65,.59,0,.32-.22,.62-.65,.62l-5.75-.03-.03,3.94h5.02c.43,0,.62,.3,.62,.59s-.19,.59-.62,.59h-11.28Z"/><path class="cls-1" d="M243.15,20.08v.08c0,1.51-.67,3.02-3.64,3.02-.67,0-1.43-.08-2.35-.24-.43-.08-.65-.4-.65-.73,0-.38,.24-.7,.67-.7h.13c.92,.16,1.65,.27,2.27,.27,1.43,0,2.08-.54,2.08-1.92s-.03-3.18-.03-5.18h-7.29l.03,7.67c0,.49-.35,.7-.73,.7-.35,0-.73-.22-.73-.7v-7.67h-6.91c-.3,3.08-.97,6.05-2.46,8.15-.22,.32-.51,.43-.78,.43-.43,0-.81-.32-.81-.7,0-.13,.05-.27,.14-.4,2.27-3.24,2.7-7.8,2.7-12.09,0-2.02-.11-4-.13-5.72v-.05c0-1.97,1.19-2.97,3.4-3.02,2.11-.05,4.24-.11,6.4-.11,1.78,0,3.62,.03,5.51,.11,1.78,.05,3.02,1.03,3.05,2.7,.08,3.89,.05,10.18,.11,13.17l.03,2.94Zm-10.2-11.47h-6.75c0,.51,.03,1.03,.03,1.57,0,1.08-.03,2.16-.11,3.27h6.83v-4.83Zm0-6.15c-1.59,0-3.18,.05-4.78,.08-1.32,.03-2.02,.67-2.02,1.97,0,.86,.03,1.83,.05,2.86h6.75V2.46Zm8.67,4.91c0-1.08-.03-2.05-.05-2.86-.03-1.19-.49-1.92-1.94-1.97-1.75-.05-3.51-.08-5.26-.08V7.37h7.26Zm-7.26,1.24v4.83h7.29c0-1.62,0-3.29-.03-4.83h-7.26Z"/><path class="cls-1" d="M253.42,19.11c-.43,0-.86,0-1.3-.03-1.24-.08-2.02-1.03-2.05-2.27-.03-1.67-.03-3.97-.03-6.21s0-4.45,.03-5.97c.05-2.16,1.97-2.19,3.43-2.19,.43,0,.86,.03,1.24,.05,1.32,.08,2.16,.97,2.19,2.02,.05,1.57,.08,3.62,.08,5.72,0,2.4-.03,4.83-.08,6.56-.05,2.16-1.62,2.29-3.51,2.29Zm2.24-9.37c0-1.83,0-3.59-.05-4.83-.05-1.16-.81-1.24-2.11-1.24s-2.05,.03-2.11,1.27c-.03,1.11-.05,2.89-.05,4.8h4.32Zm-4.32,1.21c0,2.16,.03,4.29,.05,5.61,.03,1.16,.51,1.27,2.08,1.27,1.27,0,2.11-.08,2.13-1.29,.05-1.46,.05-3.51,.05-5.59h-4.32Zm7.23-1.32c-.43,0-.65-.3-.65-.59,0-.32,.22-.62,.65-.62l5.59,.03-.03-3.46-4.18,.03c-.43,0-.65-.3-.65-.59s.22-.62,.65-.62l4.18,.03V.86c0-.43,.35-.65,.7-.65,.38,0,.73,.22,.73,.65V3.83l4.62-.03c.41,0,.62,.3,.62,.59,0,.32-.22,.62-.62,.62l-4.62-.03v3.46l6.16-.03c.4,0,.59,.3,.59,.59,0,.32-.19,.62-.59,.62h-13.15Zm8.42,4.64l-8.42,.03c-.43,0-.62-.3-.62-.59,0-.32,.22-.65,.62-.65l8.39,.03v-1.86c0-.43,.35-.62,.7-.62,.32,0,.67,.19,.67,.62l.03,1.86,3.48-.03c.38,0,.57,.3,.57,.62,0,.3-.19,.62-.57,.62l-3.48-.03,.03,3.4,.08,2.7v.16c0,1.27-.57,2.78-3.51,2.78-2.62,0-2.67-.57-2.67-.92s.24-.7,.67-.7h.13c.78,.13,1.48,.24,2.08,.24,1.13,0,1.83-.41,1.83-1.7l-.03-5.96Zm-3.75,4.94c-.84-1.11-2.4-1.97-3.1-2.32-.22-.11-.32-.27-.32-.43,0-.32,.32-.65,.7-.65,.65,0,3.94,1.89,3.94,2.94,0,.43-.3,.78-.67,.78-.16,0-.38-.11-.54-.32Z"/></g></g></svg>