<svg xmlns="http://www.w3.org/2000/svg" width="229.475" height="22.825" viewBox="0 0 229.475 22.825">
  <path id="パス_146" data-name="パス 146" d="M-113.912,0h1.375V-11.55c0-1.5-.1-3.5-.175-5.025h.1l1.425,4.075,3.85,10.55h1.2l3.825-10.55,1.425-4.075h.1c-.075,1.525-.175,3.525-.175,5.025V0h1.425V-18.225h-2l-3.75,10.475c-.45,1.325-.875,2.675-1.35,4h-.1c-.475-1.325-.95-2.675-1.425-4l-3.75-10.475h-2Zm21.925,0h10.35V-1.3h-8.85V-9.025h7.225V-10.3h-7.225v-6.65h8.575v-1.275H-91.987Zm16.575,0h9.8V-1.3h-8.3V-18.225h-1.5Zm15.85,0h1.525V-16.95h5.75v-1.275h-13v1.275h5.725Zm15.525,0h1.5V-7.325l5.475-10.9h-1.55l-2.675,5.575c-.575,1.325-1.25,2.6-1.95,3.95h-.1c-.675-1.35-1.25-2.625-1.9-3.95l-2.675-5.575h-1.6l5.475,10.9Zm19.725,0h1.375V-11.55c0-1.5-.1-3.5-.175-5.025h.1l1.425,4.075,3.85,10.55h1.2l3.825-10.55,1.425-4.075h.1c-.075,1.525-.175,3.525-.175,5.025V0h1.425V-18.225h-2L-15.688-7.75c-.45,1.325-.875,2.675-1.35,4h-.1c-.475-1.325-.95-2.675-1.425-4l-3.75-10.475h-2ZM-2.387,0h1.5V-18.225h-1.5ZM11.487.325c3.575,0,5.9-2.15,5.9-4.95,0-2.775-1.75-3.925-3.825-4.85l-2.725-1.2c-1.325-.575-3.1-1.35-3.1-3.425,0-1.875,1.55-3.1,3.875-3.1a5.849,5.849,0,0,1,4.3,1.825l.85-.975a6.961,6.961,0,0,0-5.15-2.2c-3.1,0-5.4,1.875-5.4,4.575,0,2.675,2.075,3.825,3.7,4.55l2.725,1.2c1.8.8,3.225,1.5,3.225,3.7,0,2.075-1.675,3.5-4.375,3.5A7.017,7.017,0,0,1,6.212-3.45L5.287-2.4A8.111,8.111,0,0,0,11.487.325ZM26.737,0h1.525V-16.95h5.75v-1.275h-13v1.275h5.725Zm26.3-11.4H47.563v1.1h12.4v-1.1H54.237v-4.575h6.5v-1.1h-6.5v-3.75h-1.2v3.75h-6.35v1.1h6.35Zm-7.775-9.425H44.138V-9.3h1.125Zm-2.325,4.1a13.516,13.516,0,0,0-3.05-2.575l-.775.7a14.119,14.119,0,0,1,3.025,2.675Zm.425,2.5c-1.975.95-3.9,1.85-5.225,2.4l.45,1.075c1.5-.725,3.275-1.575,5-2.375ZM58.138-5.65a31.905,31.905,0,0,1-4.7,2.75,13.291,13.291,0,0,1-2.85-3.525h10.05V-7.45H50.112V-9.625H48.938V-7.45H38.513v1.025h9.275a26.621,26.621,0,0,1-9.6,4.075,5.452,5.452,0,0,1,.75.95,30.406,30.406,0,0,0,5.175-1.8V.15c-1.15.15-2.2.275-3.075.375l.25,1.1c2.7-.35,6.575-.9,10.275-1.425L51.537-.85c-2.15.275-4.325.575-6.275.85V-3.75a18.861,18.861,0,0,0,4.075-2.675h.075a16.377,16.377,0,0,0,10.8,8.35,4.885,4.885,0,0,1,.775-1,17.23,17.23,0,0,1-6.825-3.2,32.389,32.389,0,0,0,4.925-2.7ZM77.463-7.175V-12h7.575v4.825Zm-8.025,0c.075-.95.1-1.9.1-2.775V-12h6.725v4.825ZM76.262-17.85v4.7H69.537v-4.7Zm8.775,4.7H77.463v-4.7h7.575Zm1.2-5.85h-17.9v9.05c0,3.525-.275,7.95-3.05,11.075a3.324,3.324,0,0,1,.925.85,14.711,14.711,0,0,0,3.125-8h6.925v7.65h1.2v-7.65h7.575v5.9c0,.5-.175.65-.65.65-.5.025-2.225.05-4.175,0A3.712,3.712,0,0,1,80.637,1.7a20,20,0,0,0,4.575-.2c.725-.225,1.025-.625,1.025-1.625Zm13,1v6.225h-4.4V-18Zm-4.4,13.725V-10.65h4.4v6.375Zm5.55-14.85H93.662V-1.2h1.175V-3.15h5.55ZM102.813-5.55a18.515,18.515,0,0,1,3.325,4.5l1.025-.675a18.178,18.178,0,0,0-3.4-4.4Zm12.75-6.125V-12.8h-6.9v-3.75h5.65v-1.1h-5.65v-3.2h-1.175v3.2h-5.5v1.1h5.5v3.75h-6.675v1.125h10.025v3.25h-9.85v1.1h9.85v7.5c0,.35-.1.475-.55.5-.4,0-1.825,0-3.55-.05a4.365,4.365,0,0,1,.425,1.15,20.386,20.386,0,0,0,3.975-.175c.65-.2.875-.6.875-1.425v-7.5h3.225v-1.1h-3.225v-3.25Z" transform="translate(113.912 20.85)" fill="#504f4f"/>
</svg>