<?xml version="1.0" encoding="UTF-8"?>
<svg xmlns="http://www.w3.org/2000/svg" version="1.1" viewBox="0 0 13.9300003 5.2600002">
  <defs>
    <style>
      .cls-1, .cls-2 {
        fill: #5f5f5f;
      }

      .cls-2 {
        stroke: #5f5f5f;
        stroke-linecap: round;
        stroke-linejoin: round;
        stroke-width: .05px;
      }
    </style>
  </defs>
  <!-- Generator: Adobe Illustrator 28.6.0, SVG Export Plug-In . SVG Version: 1.2.0 Build 709)  -->
  <g>
    <g id="_レイヤー_2">
      <g id="lay">
        <g>
          <g>
            <path class="cls-2" d="M2.29,2.3099999c-.0799999.0799999-.0999999.1199999-.0999999.2v1.9100001c0,.0799999.03.1199999.0999999.1999998h-.39c.08-.0799999.1-.1199999.1-.1999998v-1.98l-.8199999,2.1799998h-.05L.25,2.46v1.9000001c0,.1500001.1.1900001.17.2599998H.03c.08-.0799999.17-.1199999.17-.2600002v-1.8499999c0-.0799999-.03-.1199999-.1-.2h.28l.85,2.0699999.78-2.0699999s.28,0,.28.0000002Z"/>
            <path class="cls-2" d="M3.71,3.47c.3099999.0699999.54.24.54.55,0,.3499999-.3.6300001-.78.6300001-.54,0-.97-.3400002-.97-.9000001s.4200001-.9000001.9200001-.9000001c.4000001,0,.6900001.23.8099999.6199999h-.53l.01.0000002ZM2.73,3.47c-.02.0899999-.04.1800001-.04.28,0,.5299997.3499999.8499999.8199999.8499999.3799999,0,.7099998-.2199998.7099998-.5799999,0-.3299999-.29-.5-.6399999-.55h-.8600001.0100002ZM4.0500002,3.4300001c-.0999999-.3399999-.3299999-.54-.6199999-.54-.3099999,0-.5899999.2-.6900001.54h1.3200002-.0100002Z"/>
            <path class="cls-2" d="M4.6199999,4.4200001v-1.9099998c0-.1099999-.0300002-.1400001-.0700002-.1400001-.0300002,0-.0700002.03-.0999999.05v-.03c.0799999-.0799999.1999998-.1900001.27-.1900001.0599999,0,.0700002.05.0700002.2v2.0300002c0,.0799999.0300002.1199999.0999999.1999998h-.3800001c.0799999-.0799999.0999999-.1199999.0999999-.1999998l.0100002-.0100002Z"/>
            <path class="cls-2" d="M5.3699999,2.45h.04v.4200001h.2399998v.04h-.2399998v.96c.5599999.0799999.6599998.7700002.1700001.7700002-.0799999,0-.3499999-.02-.3499999-.4000001v-1.3299999h-.1700001v-.04c.1799998,0,.3099999-.29.3099999-.4200003ZM5.4099998,4.1799998c0,.3699999.1100001.4200001.21.4200001.3600001,0,.3200002-.6199999-.21-.71v.29Z"/>
            <path class="cls-2" d="M7.0700002,3.0699999l-.5599999,1.6699998c-.0700002.2199998-.1399999.5-.3800001.5-.1500001,0-.2600002-.1100001-.2600002-.29,0-.3099999.3400002-.3600001.6199999-.3600001l-.54-1.52c-.0300002-.0799999-.0799999-.1199999-.1500001-.2h.3899999c-.0799999.0799999-.0799999.1199999-.0599999.2l.46,1.27.4200001-1.27c.0300002-.0799999.02-.1199999-.04-.2h.25c-.0900002.0799999-.1300001.1199999-.1599998.2l.0100002.0000002ZM5.9099998,4.9400001c0,.1700001.0999999.25.21.25.1999998,0,.27-.2599998.3400002-.46l.04-.1199999c-.27,0-.5900002.0300002-.5900002.3200002v.0099998Z"/>
            <path class="cls-2" d="M10.7200003,2.3099999c-.0799999.0799999-.1000004.1199999-.1000004.2v1.9100001c0,.0799999.0299997.1199999.1000004.1999998h-.3900003c.0799999-.0799999.1000004-.1199999.1000004-.1999998v-1.98l-.8199997,2.1799998h-.0500002l-.8900003-2.1600001v1.8999999c0,.1500001.1000004.1900001.1700001.2600002h-.3999996c.0799999-.0799999.1700001-.1199999.1700001-.2600002v-1.8499999c0-.0799999-.0299997-.1199999-.1000004-.2h.2799997l.8500004,2.0699999.7799997-2.0699999h.2799997l.0200005.0000002Z"/>
            <path class="cls-2" d="M11.1899996,4.4200001v-1.25c0-.1099999-.0299997-.1400001-.0699997-.1400001-.0299997,0-.0699997.03-.1000004.05v-.03c.0799999-.0799999.1999998-.1900001.2700005-.1900001.0600004,0,.0699997.05.0699997.2v1.3699999c0,.0799999.0299997.1199999.1000004.1999998h-.3800001c.0799999-.0799999.1000004-.1199999.1000004-.1999998l.0099993-.0099998ZM11.2399998,2.29c.0900002,0,.1499996.05.1499996.1400001s-.0600004.1400001-.1499996.1400001-.1499996-.05-.1499996-.1400001.0600004-.1400001.1499996-.1400001Z"/>
            <path class="cls-2" d="M12.7299995,3.05l.04.4200001h-.04c-.0699997-.28-.1999998-.5799999-.4499998-.5799999-.1700001,0-.2799997.1500001-.2799997.3199999,0,.45.8599997.53.8599997,1.04,0,.27-.2299995.4000001-.5199995.4000001-.3400002,0-.4899998-.1599998-.54-.1999998l-.0699997-.46h.0299997c.1099997.2800002.3299999.6199999.6000004.6199999.1800003,0,.3199997-.1500001.3199997-.3299999,0-.4300001-.8500004-.51-.8500004-1.03,0-.25.1999998-.3900001.4499998-.3900001.29,0,.4099998.1600001.4499998.2v-.0100002Z"/>
            <path class="cls-2" d="M13.3800001,2.45h.04v.4200001h.2399998v.04h-.2399998v.96c.5600004.0799999.6599998.7700002.1700001.7700002-.0799999,0-.3500004-.02-.3500004-.4000001v-1.3299999h-.1700001v-.04c.1800003,0,.3100004-.29.3100004-.4200003ZM13.4200001,4.1799998c0,.3699999.1099997.4200001.21.4200001.3599997,0,.3199997-.6199999-.21-.71v.29Z"/>
          </g>
          <g>
            <path class="cls-1" d="M.87.15s.02-.08.03-.13c.13.05.21.09.21.12,0,0,0,.01-.01.02-.03.03-.05.06-.0700001.12-.08.15-.12.23-.19.34.07.06.13.12.19.18.01.01.02.03.02.04,0,.01-.02.04-.06.09-.03.03-.05.05-.06.05,0,0-.02,0-.03-.02-.09-.1-.1-.11-.17-.18-.13.16-.27.3000001-.41.39-.04.03-.07.04-.09.04-.01,0-.02,0-.05-.04-.03-.02-.06-.05-.11-.08.21-.1.38-.24.5299999-.45-.07-.06-.11-.08-.23-.17q-.03-.02-.03-.03c0-.02.02-.04.07-.1.02-.02.03-.03.04-.03.02,0,.12.07.26.17.08-.13.13-.23.17-.35l-.0099999.02Z"/>
            <path class="cls-1" d="M1.76.13s.02.01.02.03v.02c0,.03-.01.06-.01.12,0,.37-.0700001.6-.23.8-.04.04-.05.0599999-.0599999.0599999h-.03c-.04-.03-.08-.04-.15-.05.1-.1.14-.16.1899999-.26.0599999-.14.09-.28.09-.5,0-.1,0-.14-.01-.22.08,0,.15.01.1899999.02v-.02ZM1.92.27c0-.07,0-.13-.01-.2.16,0,.2199999.02.2199999.05v.79c.1900001-.11.3199999-.21.4400001-.37,0,.08,0,.14.02.18v.03c0,.02-.01.04-.0799999.11-.1099999.1-.1900001.15-.3299999.23-.03.02-.05.03-.0699999.05-.01,0-.02.01-.04.01s-.0699999-.04-.11-.0700001c-.03-.03-.04-.05-.04-.0700001v-.03c.01-.03.01-.06.01-.14V.27h-.0100002Z"/>
            <path class="cls-1" d="M2.8699999.57h-.05s-.03,0-.03-.03c0-.04-.01-.09-.01-.15.0699999,0,.0799999,0,.23.01h.9599998s.02,0,.02.1q0,.07-.02.07h-.46c0,.11-.01.16-.03.23-.05.17-.1299999.29-.29.3800001-.04.03-.0699999.04-.0899999.04,0,0-.01,0-.03-.02-.05-.05-.0699999-.0700001-.1299999-.1.26-.12.3600001-.27.3699999-.54h-.4400001v.01ZM3.4000001.07c.1400001,0,.3,0,.3600001-.01h0s.03.01.03.06v.07q0,.04-.03.04h-.7700002q-.02,0-.03-.02c0-.03-.01-.1-.01-.16.0599999,0,.26.01.4400001.01l.01.01Z"/>
            <path class="cls-1" d="M4.5900002.75c-.1199999.08-.27.16-.3000002.16-.02,0-.0333333-.0100001-.04-.03-.0099998-.03-.0599999-.06-.0900002-.08.1999998-.06.3899999-.18.5700002-.34.0700002-.06.0999999-.1.1500001-.16.0799999.05.1399999.11.1399999.13,0,0,0,.01-.02.02-.02,0-.0300002.02-.0799999.06-.0300002.03-.0900002.08-.1599998.13v.59s-.02.03-.1100001.03c-.0599999,0-.0700002,0-.0700002-.02h0v-.47l.0100002-.02Z"/>
            <path class="cls-1" d="M5.8899999.52c.27,0,.4299998,0,.5799999-.01h.02s.04,0,.04.12c0,.06,0,.07-.0300002.07h-1.1100001c-.02,0-.0300002,0-.0300002-.02,0-.04-.0100002-.11-.0100002-.18.1199999.01.23.02.5400009.02Z"/>
            <path class="cls-1" d="M7.0900002.84c.1500001.03.3299999.08.5.14.1300001.05.1500001.06.1500001.08s-.02.09-.04.13c-.0100002.03-.02.04-.0300002.04-.0066667,0-.0599999-.0233333-.1599998-.0700001-.1500001-.0700001-.4200001-.14-.5900002-.17q-.0599999,0-.0599999-.03c0-.02.02-.08.04-.12,0-.02.02-.03.0300002-.03,0,0,.1199999.02.1700001.03h-.0100002ZM7.5799999.33c-.0799999-.04-.1999998-.08-.29-.1-.0900002-.02-.25-.06-.3000002-.06-.02,0-.0300002,0-.0300002-.02s.02-.1.0300002-.13C6.9899998.01,7,0,7.02,0h.0599999c.1599998.02.3400002.07.48.11.0900002.03.0999999.04.0999999.06,0,.01-.02.1-.0300002.14,0,.02-.0100002.02-.0300002.02h-.0199995ZM7.46.51c.0799999.03.0900002.04.0900002.06,0,.01-.02.1-.0300002.13,0,.02-.0100002.02-.02.02h-.02c-.0599999-.03-.1199999-.05-.1900001-.08-.0900002-.03-.23-.06-.29-.07q-.0300002,0-.0300002-.02c0-.02.02-.11.04-.14,0,0,.0100002-.01.02-.01.0500002,0,.3299999.07.4400001.11h-.0099998Z"/>
            <path class="cls-1" d="M9.1000004.89c.1000004.09.1499996.15.1499996.17,0,.01-.0200005.04-.0699997.08-.0299997.03-.0500002.04-.0600004.04,0,0-.0100002,0-.0200005-.01-.0066662-.0066667-.0366669-.04-.0900002-.1-.0799999-.09-.1899996-.19-.3299999-.29-.1000004.1-.2299995.22-.3400002.29-.0799999.0599999-.1700001.1-.1800003.1s-.0200005,0-.0500002-.04c-.0200005-.02-.0600004-.05-.0900002-.08.1700001-.08.3000002-.17.4399996-.3.1499996-.14.2600002-.27.3800001-.48-.3400002,0-.5366669.0033333-.5900002.01-.0799999.01-.0200005,0-.0200005,0-.0200005,0-.0299997,0-.0299997-.02,0-.05-.0100002-.09-.0100002-.17.1000004.01.2600002.02.4799995.02h.2299995q.0200005,0,.0500002-.01h.0200005c.0299997,0,.0500002.02.0900002.07.0299997.04.04.07.04.09s0,.02-.04.06c-.0200005.02-.0299997.04-.0799999.11-.04.08-.1099997.17-.1700001.24.1199999.08.1999998.14.29.23l.0000029-.01Z"/>
            <path class="cls-1" d="M9.8599997.76v.41h0s0,.03-.0100002.04c-.0100002,0-.0699997.02-.1300001.02-.0500002,0-.0600004,0-.0600004-.03h0v-.66c0-.35,0-.44-.0200005-.53.1099997,0,.1599998.01.1999998.02.0100002,0,.0200005.01.0200005.02v.03c0,.02,0,.04-.0100002.06v.27c.0733328.02.1300001.0366667.1700001.05.1499996.05.2399998.09.3699999.16.0100002,0,.0200005.02.0200005.03s-.0299997.09-.0500002.13c-.0100002.03-.0200005.03-.0299997.03,0,0-.0100002,0-.0200005-.01-.1499996-.1-.3000002-.17-.46-.21v.17h.0100012Z"/>
          </g>
        </g>
      </g>
    </g>
  </g>
</svg>