<?xml version="1.0" encoding="UTF-8"?><svg id="_イヤー_2" xmlns="http://www.w3.org/2000/svg" viewBox="0 0 513.94 245.55"><defs><style>.cls-1{fill:#fff;}.cls-2{fill:none;stroke:#fff;stroke-miterlimit:10;stroke-width:1.62px;}</style></defs><g id="photogallery"><path class="cls-2" d="M513.13,0h0c0,134.61-110.13,244.74-244.74,244.74h-22.84C110.94,244.74,.81,134.61,.81,0H.81"/><path class="cls-1" d="M272.71,163.21c-15.09,.36-15.38,.66-15.74,15.74-.36-15.09-.66-15.38-15.74-15.74,15.09-.36,15.38-.66,15.74-15.74,.36,15.09,.66,15.38,15.74,15.74Z"/><g><path class="cls-1" d="M173.39,96.28c-.2,.14-.48,.29-.83,.46-.35,.17-.76,.31-1.23,.43-.47,.11-.99,.17-1.56,.17-.94-.01-1.79-.18-2.56-.51-.77-.33-1.42-.78-1.96-1.34-.54-.57-.95-1.22-1.23-1.96-.28-.74-.43-1.53-.43-2.37,0-.92,.15-1.77,.44-2.54,.29-.78,.72-1.45,1.27-2.02s1.2-1.02,1.94-1.33c.74-.32,1.56-.48,2.44-.48,.74,0,1.41,.1,2.01,.3,.6,.2,1.12,.43,1.55,.69l-.66,1.56c-.34-.24-.75-.46-1.24-.66-.49-.2-1.02-.31-1.6-.31s-1.17,.12-1.7,.36-1,.57-1.41,1c-.41,.43-.73,.93-.96,1.5-.23,.57-.35,1.18-.35,1.85s.1,1.27,.31,1.84c.21,.57,.51,1.07,.9,1.5,.39,.42,.86,.76,1.42,.99s1.18,.36,1.87,.36c.62,0,1.18-.1,1.67-.29,.49-.19,.89-.41,1.21-.65l.7,1.46Z"/><path class="cls-1" d="M177.43,91.06c0-.85,.16-1.65,.48-2.41,.32-.76,.77-1.43,1.35-2.01,.58-.58,1.24-1.04,2-1.37,.75-.33,1.57-.49,2.44-.49s1.65,.16,2.41,.49c.76,.33,1.43,.78,2.01,1.37,.58,.58,1.04,1.26,1.37,2.01,.33,.76,.49,1.57,.49,2.43s-.16,1.67-.49,2.43c-.33,.76-.78,1.43-1.36,2s-1.25,1.02-2.01,1.34-1.57,.48-2.43,.48-1.69-.16-2.44-.48c-.75-.32-1.42-.76-2-1.33-.58-.57-1.03-1.24-1.35-1.99-.32-.75-.48-1.58-.48-2.47Zm1.7,0c0,.66,.12,1.27,.35,1.83s.56,1.06,.99,1.49c.42,.43,.91,.77,1.46,1.01,.55,.24,1.15,.37,1.79,.37s1.24-.12,1.79-.37c.55-.24,1.03-.58,1.45-1,.41-.43,.74-.92,.98-1.49,.24-.57,.36-1.17,.36-1.82s-.12-1.27-.36-1.84c-.24-.57-.56-1.07-.98-1.5-.41-.44-.9-.78-1.46-1.02-.56-.24-1.16-.37-1.79-.37s-1.25,.12-1.81,.37-1.05,.59-1.46,1.02-.73,.93-.96,1.5c-.23,.57-.34,1.18-.34,1.81Z"/><path class="cls-1" d="M194.81,84.9h1.65v10.71h6.24v1.58h-7.89v-12.29Z"/><path class="cls-1" d="M206.65,91.06c0-.85,.16-1.65,.48-2.41,.32-.76,.77-1.43,1.35-2.01,.58-.58,1.24-1.04,2-1.37,.75-.33,1.57-.49,2.44-.49s1.65,.16,2.41,.49c.76,.33,1.43,.78,2.01,1.37,.58,.58,1.04,1.26,1.37,2.01,.33,.76,.49,1.57,.49,2.43s-.16,1.67-.49,2.43c-.33,.76-.78,1.43-1.36,2s-1.25,1.02-2.01,1.34-1.57,.48-2.43,.48-1.69-.16-2.44-.48c-.75-.32-1.42-.76-2-1.33-.58-.57-1.03-1.24-1.35-1.99-.32-.75-.48-1.58-.48-2.47Zm1.7,0c0,.66,.12,1.27,.35,1.83s.56,1.06,.99,1.49c.42,.43,.91,.77,1.46,1.01,.55,.24,1.15,.37,1.79,.37s1.24-.12,1.79-.37c.55-.24,1.03-.58,1.45-1,.41-.43,.74-.92,.98-1.49,.24-.57,.36-1.17,.36-1.82s-.12-1.27-.36-1.84c-.24-.57-.56-1.07-.98-1.5-.41-.44-.9-.78-1.46-1.02-.56-.24-1.16-.37-1.79-.37s-1.25,.12-1.81,.37-1.05,.59-1.46,1.02-.73,.93-.96,1.5c-.23,.57-.34,1.18-.34,1.81Z"/><path class="cls-1" d="M227.29,84.9c.62,0,1.2,.08,1.73,.25,.53,.16,.99,.41,1.38,.73,.39,.32,.7,.72,.92,1.2,.22,.48,.33,1.02,.33,1.63,0,.49-.07,.96-.21,1.43-.14,.46-.37,.89-.7,1.27-.32,.38-.75,.69-1.27,.92-.53,.23-1.18,.35-1.96,.35h-1.82v4.52h-1.65v-12.29h3.26Zm.17,6.17c.49,0,.89-.07,1.22-.22,.32-.15,.58-.34,.76-.57,.18-.23,.31-.48,.39-.74,.08-.26,.12-.52,.12-.77s-.04-.5-.13-.76-.22-.51-.41-.74c-.19-.23-.43-.42-.73-.57-.3-.15-.67-.22-1.1-.22h-1.9v4.59h1.79Zm2.02,.95l3.21,5.17h-1.9l-3.28-5.12,1.97-.05Z"/><path class="cls-1" d="M247.95,93.1l-4.56-8.19h2.02l3.65,6.78-.51,.03,3.62-6.82h2.01l-4.59,8.19v4.1h-1.65v-4.1Z"/><path class="cls-1" d="M257.71,91.06c0-.85,.16-1.65,.48-2.41,.32-.76,.77-1.43,1.35-2.01,.58-.58,1.24-1.04,2-1.37,.75-.33,1.57-.49,2.44-.49s1.65,.16,2.41,.49c.76,.33,1.43,.78,2.01,1.37,.58,.58,1.04,1.26,1.37,2.01,.33,.76,.49,1.57,.49,2.43s-.16,1.67-.49,2.43c-.33,.76-.78,1.43-1.36,2s-1.25,1.02-2.01,1.34-1.57,.48-2.43,.48-1.69-.16-2.44-.48c-.75-.32-1.42-.76-2-1.33-.58-.57-1.03-1.24-1.35-1.99-.32-.75-.48-1.58-.48-2.47Zm1.7,0c0,.66,.12,1.27,.35,1.83s.56,1.06,.99,1.49c.42,.43,.91,.77,1.46,1.01,.55,.24,1.15,.37,1.79,.37s1.24-.12,1.79-.37c.55-.24,1.03-.58,1.45-1,.41-.43,.74-.92,.98-1.49,.24-.57,.36-1.17,.36-1.82s-.12-1.27-.36-1.84c-.24-.57-.56-1.07-.98-1.5-.41-.44-.9-.78-1.46-1.02-.56-.24-1.16-.37-1.79-.37s-1.25,.12-1.81,.37-1.05,.59-1.46,1.02-.73,.93-.96,1.5c-.23,.57-.34,1.18-.34,1.81Z"/><path class="cls-1" d="M276.56,92.84c0,.56,.13,1.05,.4,1.49,.27,.44,.62,.78,1.07,1.03s.94,.37,1.49,.37c.58,0,1.09-.12,1.55-.37,.45-.25,.81-.59,1.06-1.03,.25-.44,.38-.93,.38-1.49v-7.94h1.63v7.99c0,.9-.2,1.68-.61,2.35-.41,.67-.96,1.18-1.67,1.55-.7,.36-1.48,.54-2.35,.54s-1.63-.18-2.33-.54c-.7-.36-1.26-.88-1.67-1.55-.41-.67-.61-1.45-.61-2.35v-7.99h1.65v7.94Z"/><path class="cls-1" d="M292.81,84.9c.62,0,1.2,.08,1.73,.25,.53,.16,.99,.41,1.38,.73,.39,.32,.7,.72,.92,1.2,.22,.48,.33,1.02,.33,1.63,0,.49-.07,.96-.21,1.43-.14,.46-.37,.89-.7,1.27-.32,.38-.75,.69-1.27,.92-.53,.23-1.18,.35-1.96,.35h-1.82v4.52h-1.65v-12.29h3.26Zm.17,6.17c.49,0,.89-.07,1.22-.22,.32-.15,.58-.34,.76-.57,.18-.23,.31-.48,.39-.74,.08-.26,.12-.52,.12-.77s-.04-.5-.13-.76-.22-.51-.41-.74c-.19-.23-.43-.42-.73-.57-.3-.15-.67-.22-1.1-.22h-1.9v4.59h1.79Zm2.02,.95l3.21,5.17h-1.9l-3.28-5.12,1.97-.05Z"/><path class="cls-1" d="M309.15,87.1c-.42-.22-.88-.4-1.38-.56-.5-.16-.99-.24-1.46-.24-.66,0-1.18,.15-1.57,.46-.39,.31-.59,.71-.59,1.22,0,.39,.13,.71,.38,.98,.25,.27,.58,.5,.99,.69,.4,.19,.83,.37,1.28,.54,.37,.14,.75,.3,1.12,.48s.71,.42,1.01,.69,.54,.61,.71,1,.26,.88,.26,1.46c0,.66-.16,1.25-.48,1.78-.32,.53-.79,.95-1.39,1.26-.6,.31-1.32,.46-2.16,.46-.53,0-1.05-.06-1.54-.18-.49-.12-.95-.28-1.37-.48-.42-.2-.79-.41-1.12-.63l.73-1.29c.27,.19,.58,.38,.94,.55,.35,.18,.72,.31,1.1,.42s.76,.15,1.12,.15c.4,0,.78-.07,1.16-.2s.69-.35,.94-.65c.25-.29,.37-.69,.37-1.17,0-.41-.11-.75-.33-1.04-.22-.28-.51-.52-.87-.72s-.75-.38-1.16-.54c-.4-.14-.79-.29-1.18-.48-.39-.18-.75-.4-1.09-.65-.33-.26-.61-.57-.82-.94-.21-.37-.31-.83-.31-1.36,0-.65,.16-1.21,.47-1.69,.31-.48,.74-.86,1.28-1.14,.54-.28,1.17-.43,1.87-.45,.79,0,1.49,.1,2.1,.29,.61,.19,1.14,.43,1.61,.7l-.63,1.28Z"/><path class="cls-1" d="M314.72,84.9h7.99v1.58h-6.34v3.74h5.66v1.6h-5.66v3.79h6.58v1.58h-8.23v-12.29Z"/><path class="cls-1" d="M327.85,84.9h1.65v10.71h6.24v1.58h-7.89v-12.29Z"/><path class="cls-1" d="M340.46,84.9h7.29v1.58h-5.64v3.91h4.95v1.58h-4.95v5.22h-1.65v-12.29Z"/><path class="cls-1" d="M173.86,109.9h8.18v1.58h-3.3v10.71h-1.65v-10.71h-3.23v-1.58Z"/><path class="cls-1" d="M185.93,116.06c0-.85,.16-1.65,.48-2.41,.32-.76,.77-1.43,1.35-2.01,.58-.58,1.24-1.04,2-1.37,.75-.33,1.57-.49,2.44-.49s1.65,.16,2.41,.49c.76,.33,1.43,.78,2.01,1.37,.58,.58,1.04,1.26,1.37,2.01,.33,.76,.49,1.57,.49,2.43s-.16,1.67-.49,2.43c-.33,.76-.78,1.43-1.36,2s-1.25,1.02-2.01,1.34-1.57,.48-2.43,.48-1.69-.16-2.44-.48c-.75-.32-1.42-.76-2-1.33-.58-.57-1.03-1.24-1.35-1.99-.32-.75-.48-1.58-.48-2.47Zm1.7,0c0,.66,.12,1.27,.35,1.83s.56,1.06,.99,1.49c.42,.43,.91,.77,1.46,1.01,.55,.24,1.15,.37,1.79,.37s1.24-.12,1.79-.37c.55-.24,1.03-.58,1.45-1,.41-.43,.74-.92,.98-1.49,.24-.57,.36-1.17,.36-1.82s-.12-1.27-.36-1.84c-.24-.57-.56-1.07-.98-1.5-.41-.44-.9-.78-1.46-1.02-.56-.24-1.16-.37-1.79-.37s-1.25,.12-1.81,.37-1.05,.59-1.46,1.02-.73,.93-.96,1.5c-.23,.57-.34,1.18-.34,1.81Z"/><path class="cls-1" d="M213.98,118.1l-4.56-8.19h2.02l3.65,6.78-.51,.03,3.62-6.82h2.01l-4.59,8.19v4.1h-1.65v-4.1Z"/><path class="cls-1" d="M223.74,116.06c0-.85,.16-1.65,.48-2.41,.32-.76,.77-1.43,1.35-2.01,.58-.58,1.24-1.04,2-1.37,.75-.33,1.57-.49,2.44-.49s1.65,.16,2.41,.49c.76,.33,1.43,.78,2.01,1.37,.58,.58,1.04,1.26,1.37,2.01,.33,.76,.49,1.57,.49,2.43s-.16,1.67-.49,2.43c-.33,.76-.78,1.43-1.36,2s-1.25,1.02-2.01,1.34-1.57,.48-2.43,.48-1.69-.16-2.44-.48c-.75-.32-1.42-.76-2-1.33-.58-.57-1.03-1.24-1.35-1.99-.32-.75-.48-1.58-.48-2.47Zm1.7,0c0,.66,.12,1.27,.35,1.83s.56,1.06,.99,1.49c.42,.43,.91,.77,1.46,1.01,.55,.24,1.15,.37,1.79,.37s1.24-.12,1.79-.37c.55-.24,1.03-.58,1.45-1,.41-.43,.74-.92,.98-1.49,.24-.57,.36-1.17,.36-1.82s-.12-1.27-.36-1.84c-.24-.57-.56-1.07-.98-1.5-.41-.44-.9-.78-1.46-1.02-.56-.24-1.16-.37-1.79-.37s-1.25,.12-1.81,.37-1.05,.59-1.46,1.02-.73,.93-.96,1.5c-.23,.57-.34,1.18-.34,1.81Z"/><path class="cls-1" d="M242.59,117.84c0,.56,.13,1.05,.4,1.49,.27,.44,.62,.78,1.07,1.03s.94,.37,1.49,.37c.58,0,1.09-.12,1.55-.37,.45-.25,.81-.59,1.06-1.03,.25-.44,.38-.93,.38-1.49v-7.94h1.63v7.99c0,.9-.2,1.68-.61,2.35-.41,.67-.96,1.18-1.67,1.55-.7,.36-1.48,.54-2.35,.54s-1.63-.18-2.33-.54c-.7-.36-1.26-.88-1.67-1.55-.41-.67-.61-1.45-.61-2.35v-7.99h1.65v7.94Z"/><path class="cls-1" d="M258.85,109.9c.62,0,1.2,.08,1.73,.25,.53,.16,.99,.41,1.38,.73,.39,.32,.7,.72,.92,1.2,.22,.48,.33,1.02,.33,1.63,0,.49-.07,.96-.21,1.43-.14,.46-.37,.89-.7,1.27-.32,.38-.75,.69-1.27,.92-.53,.23-1.18,.35-1.96,.35h-1.82v4.52h-1.65v-12.29h3.26Zm.17,6.17c.49,0,.89-.07,1.22-.22,.32-.15,.58-.34,.76-.57,.18-.23,.31-.48,.39-.74,.08-.26,.12-.52,.12-.77s-.04-.5-.13-.76-.22-.51-.41-.74c-.19-.23-.43-.42-.73-.57-.3-.15-.67-.22-1.1-.22h-1.9v4.59h1.79Zm2.02,.95l3.21,5.17h-1.9l-3.28-5.12,1.97-.05Z"/><path class="cls-1" d="M276.24,122.19v-12.68h.02l6.44,9.16-.7-.15,6.44-9.01h.02v12.68h-1.65v-8.94l.12,.83-4.62,6.56h-.03l-4.71-6.56,.27-.77v8.87h-1.6Z"/><path class="cls-1" d="M293.27,116.06c0-.85,.16-1.65,.48-2.41,.32-.76,.77-1.43,1.35-2.01,.58-.58,1.24-1.04,2-1.37,.75-.33,1.57-.49,2.44-.49s1.65,.16,2.41,.49c.76,.33,1.43,.78,2.01,1.37,.58,.58,1.04,1.26,1.37,2.01,.33,.76,.49,1.57,.49,2.43s-.16,1.67-.49,2.43c-.33,.76-.78,1.43-1.36,2s-1.25,1.02-2.01,1.34-1.57,.48-2.43,.48-1.69-.16-2.44-.48c-.75-.32-1.42-.76-2-1.33-.58-.57-1.03-1.24-1.35-1.99-.32-.75-.48-1.58-.48-2.47Zm1.7,0c0,.66,.12,1.27,.35,1.83s.56,1.06,.99,1.49c.42,.43,.91,.77,1.46,1.01,.55,.24,1.15,.37,1.79,.37s1.24-.12,1.79-.37c.55-.24,1.03-.58,1.45-1,.41-.43,.74-.92,.98-1.49,.24-.57,.36-1.17,.36-1.82s-.12-1.27-.36-1.84c-.24-.57-.56-1.07-.98-1.5-.41-.44-.9-.78-1.46-1.02-.56-.24-1.16-.37-1.79-.37s-1.25,.12-1.81,.37-1.05,.59-1.46,1.02-.73,.93-.96,1.5c-.23,.57-.34,1.18-.34,1.81Z"/><path class="cls-1" d="M309.88,116.06c0-.85,.16-1.65,.48-2.41,.32-.76,.77-1.43,1.35-2.01,.58-.58,1.24-1.04,2-1.37,.75-.33,1.57-.49,2.44-.49s1.65,.16,2.41,.49c.76,.33,1.43,.78,2.01,1.37,.58,.58,1.04,1.26,1.37,2.01,.33,.76,.49,1.57,.49,2.43s-.16,1.67-.49,2.43c-.33,.76-.78,1.43-1.36,2s-1.25,1.02-2.01,1.34-1.57,.48-2.43,.48-1.69-.16-2.44-.48c-.75-.32-1.42-.76-2-1.33-.58-.57-1.03-1.24-1.35-1.99-.32-.75-.48-1.58-.48-2.47Zm1.7,0c0,.66,.12,1.27,.35,1.83s.56,1.06,.99,1.49c.42,.43,.91,.77,1.46,1.01,.55,.24,1.15,.37,1.79,.37s1.24-.12,1.79-.37c.55-.24,1.03-.58,1.45-1,.41-.43,.74-.92,.98-1.49,.24-.57,.36-1.17,.36-1.82s-.12-1.27-.36-1.84c-.24-.57-.56-1.07-.98-1.5-.41-.44-.9-.78-1.46-1.02-.56-.24-1.16-.37-1.79-.37s-1.25,.12-1.81,.37-1.05,.59-1.46,1.02-.73,.93-.96,1.5c-.23,.57-.34,1.18-.34,1.81Z"/><path class="cls-1" d="M327.25,122.19v-12.29h3.35c1.22,0,2.26,.18,3.11,.55,.85,.37,1.54,.86,2.07,1.48,.53,.62,.91,1.29,1.15,2.03,.24,.74,.36,1.48,.36,2.23,0,.93-.16,1.76-.48,2.5-.32,.74-.77,1.37-1.33,1.89-.56,.52-1.21,.92-1.94,1.2-.73,.28-1.5,.42-2.32,.42h-3.96Zm1.65-1.58h1.99c.67,0,1.29-.1,1.86-.31,.57-.2,1.07-.5,1.5-.88,.42-.39,.76-.86,.99-1.42,.24-.56,.36-1.2,.36-1.93s-.12-1.41-.37-1.98c-.25-.57-.59-1.05-1.02-1.44-.43-.39-.92-.68-1.46-.88-.54-.2-1.11-.3-1.7-.3h-2.14v9.13Z"/></g></g></svg>