<?xml version="1.0" encoding="UTF-8"?><svg id="_イヤー_2" xmlns="http://www.w3.org/2000/svg" viewBox="0 0 242.07 23.43"><defs><style>.cls-1{fill:#fff;}</style></defs><g id="mv"><g><path class="cls-1" d="M0,2.91H5.27V22.68H2.08V6H0V2.91Z"/><path class="cls-1" d="M12.94,22.68V.93h5.99c2.14,0,3.97,.33,5.48,.97,1.51,.65,2.72,1.52,3.65,2.61,.92,1.09,1.59,2.29,2.01,3.61,.42,1.32,.62,2.64,.62,3.96,0,1.62-.28,3.08-.85,4.38-.57,1.3-1.34,2.42-2.34,3.35-.99,.93-2.13,1.64-3.42,2.13-1.29,.49-2.65,.73-4.08,.73h-7.06Zm3.16-3.09h3.28c1.17,0,2.25-.17,3.23-.51,.98-.34,1.84-.84,2.56-1.5,.72-.66,1.28-1.47,1.67-2.43,.39-.96,.58-2.05,.58-3.27,0-1.36-.21-2.54-.64-3.53s-1.01-1.81-1.76-2.46c-.74-.65-1.57-1.13-2.47-1.44-.9-.31-1.82-.47-2.75-.47h-3.69v15.6Z"/><path class="cls-1" d="M33.58,22.68L43.11,0h.21l9.47,22.68h-3.63l-6.91-17.64,2.26-1.53-7.77,19.17h-3.16Zm5.81-8.16h7.71l1.04,2.73h-9.71l.95-2.73Z"/><path class="cls-1" d="M61.22,15.51L53.24,.93h3.9l6.22,11.85-.95,.06L68.57,.93h3.9l-8.1,14.58v7.17h-3.16v-7.17Z"/><path class="cls-1" d="M95.17,.3c-1.41,3.82-2.81,7.65-4.2,11.47-1.39,3.83-2.79,7.66-4.2,11.47h-2.77c1.41-3.82,2.81-7.64,4.21-11.47,1.4-3.83,2.8-7.65,4.21-11.47h2.74Z"/><path class="cls-1" d="M110.92,2.91h5.27V22.68h-3.19V6h-2.08V2.91Z"/><path class="cls-1" d="M123.85,22.68V.18h.03l11.46,16.41-1.37-.3L145.44,.18h.03V22.68h-3.16V7.44l.18,1.62-7.95,11.37h-.06l-8.13-11.37,.57-1.5v15.12h-3.07Z"/><path class="cls-1" d="M151.85,11.82c0-1.5,.28-2.92,.85-4.26,.57-1.34,1.35-2.53,2.35-3.57,1-1.04,2.17-1.85,3.5-2.43,1.33-.58,2.76-.87,4.29-.87s2.96,.29,4.29,.87c1.33,.58,2.51,1.39,3.53,2.43,1.02,1.04,1.82,2.23,2.4,3.57,.58,1.34,.86,2.76,.86,4.26s-.29,2.98-.86,4.32c-.58,1.34-1.38,2.52-2.41,3.54s-2.21,1.82-3.53,2.39-2.75,.85-4.27,.85-2.96-.28-4.29-.84c-1.33-.56-2.5-1.34-3.5-2.35-1-1.01-1.79-2.18-2.35-3.53-.57-1.34-.85-2.8-.85-4.38Zm3.28,0c0,1.12,.2,2.17,.6,3.14,.4,.97,.95,1.82,1.67,2.55,.71,.73,1.54,1.3,2.49,1.71,.94,.41,1.96,.61,3.05,.61s2.07-.2,3.01-.61c.93-.41,1.75-.98,2.46-1.71,.7-.73,1.26-1.58,1.65-2.55,.4-.97,.6-2.01,.6-3.14s-.2-2.16-.61-3.14c-.41-.97-.96-1.82-1.65-2.56-.7-.74-1.52-1.32-2.47-1.74-.95-.42-1.98-.63-3.07-.63s-2.11,.21-3.05,.63c-.94,.42-1.77,1-2.47,1.74-.71,.74-1.25,1.6-1.62,2.58-.38,.98-.57,2.02-.57,3.12Z"/><path class="cls-1" d="M199.1,23.43l-16.65-16.65,.92,.33,.06,15.57h-3.19V.21h.12l16.41,16.65-.71-.18-.06-15.75h3.16V23.43h-.06Z"/><path class="cls-1" d="M204.79,.93h14.38V3.99h-5.69V22.68h-3.19V3.99h-5.51V.93Z"/><path class="cls-1" d="M242.07,.93V22.68h-3.19V13.29h-10.96v9.39h-3.16V.93h3.16V10.2h10.96V.93h3.19Z"/></g></g></svg>