<?xml version="1.0" encoding="UTF-8"?>
<svg xmlns="http://www.w3.org/2000/svg" version="1.1" viewBox="0 0 276.3 23.5">
  <defs>
    <style>
      .cls-1 {
        fill: #504f4f;
      }
    </style>
  </defs>
  <!-- Generator: Adobe Illustrator 28.7.1, SVG Export Plug-In . SVG Version: 1.2.0 Build 142)  -->
  <g>
    <g id="_レイヤー_1" data-name="レイヤー_1">
      <g id="_レイヤー_2">
        <g id="spec">
          <g>
            <path class="cls-1" d="M200.8,14.6c.4,1.2,1,2.3,1.9,3.3,1.1-.4,3.9-1.6,5.1-2.3.1,0,.2,0,.4,0,.4,0,.8.4.8.7s0,.6-5.4,2.5c1.6,1.5,4,2.7,6.9,3.1.4,0,.6.4.6.6s-.3.7-.8.7c-2.1,0-8.6-2-10.7-8.6-.8.6-1.7,1.2-2.5,1.7v4.5c1.5-.3,2.9-.7,4-1,0,0,.1,0,.2,0,.4,0,.6.3.6.6s-.2.5-.5.6c-4,1.2-10.1,2.4-10.6,2.4s-.8-.4-.8-.7.2-.6.6-.7c1.6-.2,3.4-.5,5.1-.9v-4c-3.1,1.7-6.8,2.9-7.2,2.9s-.7-.4-.7-.7.1-.5.5-.6c3.5-.9,6.4-2.2,9.4-4.1h-8.6c-.4,0-.6-.2-.6-.5s.2-.6.6-.6h9.7s0-1.9,0-1.9c0-.4.4-.6.7-.6s.7.2.7.6v1.9s9.7,0,9.7,0c.4,0,.6.3.6.6s-.2.6-.6.6h-8.9c0,0,0,0,0,0ZM194.2,7.4c-1.4,1-4.5,2.7-5.3,2.7s-.7-.4-.7-.7.1-.5.5-.6c1.8-.6,4.1-1.7,5.5-2.6V.7c0-.4.4-.6.7-.6s.7.2.7.6v10.3c0,.4-.4.6-.7.6s-.7-.2-.7-.6v-3.6h0ZM191.4,4.9c-.6-.9-1.4-1.7-2.3-2.3-.2-.1-.2-.3-.2-.4,0-.3.4-.6.8-.6.8,0,3.1,2,3.1,2.8s-.4.8-.8.8-.4,0-.5-.3h0ZM198,10.4c-.4,0-.6-.3-.6-.6s.2-.6.6-.6h4.8v-3.9h-5.3c-.5,0-.6-.3-.6-.6s.2-.6.6-.6h5.3s0-3.3,0-3.3c0-.5.4-.7.8-.7s.7.2.7.7v3.3h5.8c.4,0,.6.3.6.6s-.2.6-.6.6h-5.8s0,3.9,0,3.9h5c.4,0,.6.3.6.6s-.2.6-.6.6h-11.3Z"/>
            <path class="cls-1" d="M235.9,20.2h0c0,1.6-.7,3.1-3.6,3.1s-1.4,0-2.4-.2c-.4,0-.6-.4-.6-.7s.2-.7.7-.7h.1c.9.2,1.6.3,2.3.3,1.4,0,2.1-.5,2.1-1.9s0-3.2,0-5.2h-7.3v7.7c0,.5-.3.7-.7.7s-.7-.2-.7-.7v-7.7h-6.9c-.3,3.1-1,6-2.5,8.1-.2.3-.5.4-.8.4-.4,0-.8-.3-.8-.7s0-.3.1-.4c2.3-3.2,2.7-7.8,2.7-12.1s-.1-4-.1-5.7h0c0-2,1.2-3,3.4-3.1,2.1,0,4.2-.1,6.4-.1s3.6,0,5.5.1c1.8,0,3,1,3,2.7,0,3.9,0,10.2.1,13.2v2.9s0,0,0,0ZM225.7,8.7h-6.8c0,.5,0,1,0,1.6,0,1.1,0,2.2-.1,3.3h6.8v-4.8ZM225.7,2.5c-1.6,0-3.2,0-4.8,0-1.3,0-2,.7-2,2s0,1.8,0,2.9h6.8V2.5ZM234.3,7.4c0-1.1,0-2.1,0-2.9,0-1.2-.5-1.9-1.9-2-1.8,0-3.5,0-5.3,0v4.9h7.3,0ZM227.1,8.7v4.8h7.3c0-1.6,0-3.3,0-4.8h-7.3Z"/>
            <path class="cls-1" d="M246.1,19.2c-.4,0-.9,0-1.3,0-1.2,0-2-1-2-2.3,0-1.7,0-4,0-6.2s0-4.4,0-6c0-2.2,2-2.2,3.4-2.2s.9,0,1.2,0c1.3,0,2.2,1,2.2,2,0,1.6,0,3.6,0,5.7s0,4.8,0,6.6c0,2.2-1.6,2.3-3.5,2.3h0ZM248.4,9.8c0-1.8,0-3.6,0-4.8,0-1.2-.8-1.2-2.1-1.2s-2,0-2.1,1.3c0,1.1,0,2.9,0,4.8h4.3,0ZM244.1,11c0,2.2,0,4.3,0,5.6,0,1.2.5,1.3,2.1,1.3s2.1,0,2.1-1.3c0-1.5,0-3.5,0-5.6h-4.3,0s0,0,0,0ZM251.3,9.7c-.4,0-.6-.3-.6-.6s.2-.6.6-.6h5.6s0-3.4,0-3.4h-4.2c-.4,0-.6-.3-.6-.6s.2-.6.6-.6h4.2s0-3,0-3c0-.4.4-.6.7-.6s.7.2.7.6v3h4.6c.4,0,.6.3.6.6s-.2.6-.6.6h-4.6s0,3.4,0,3.4h6.2c.4,0,.6.3.6.6s-.2.6-.6.6h-13.2ZM259.7,14.4h-8.4c-.4,0-.6-.3-.6-.6s.2-.6.6-.6h8.4s0-1.8,0-1.8c0-.4.4-.6.7-.6s.7.2.7.6v1.9s3.5,0,3.5,0c.4,0,.6.3.6.6s-.2.6-.6.6h-3.5s0,3.4,0,3.4v2.7c0,0,0,.2,0,.2,0,1.3-.6,2.8-3.5,2.8s-2.7-.6-2.7-.9.2-.7.7-.7h.1c.8.1,1.5.2,2.1.2,1.1,0,1.8-.4,1.8-1.7v-6s0,0,0,0ZM256,19.3c-.8-1.1-2.4-2-3.1-2.3-.2-.1-.3-.3-.3-.4,0-.3.3-.6.7-.6.6,0,3.9,1.9,3.9,2.9s-.3.8-.7.8-.4-.1-.5-.3h0Z"/>
          </g>
        </g>
        <g>
          <path class="cls-1" d="M12.8,3.1h4c1.3,0,2.5.2,3.7.7,1.2.4,2.2,1.1,3.1,1.9.9.8,1.6,1.8,2.1,3,.5,1.2.8,2.5.8,4s-.2,2.2-.6,3.3c-.4,1.1-1,2.2-1.8,3.1-.8.9-1.9,1.7-3.3,2.3-1.3.6-3,.9-4.9.9h-3.1V3.1ZM13.9,4.2v16.9h2.4c1.5,0,2.8-.2,4-.7s2.1-1.1,2.8-1.9c.7-.8,1.3-1.7,1.7-2.7.4-1,.6-2.1.6-3.1s-.2-2.5-.7-3.5c-.4-1-1.1-1.9-1.8-2.7s-1.7-1.3-2.7-1.7c-1-.4-2.1-.6-3.3-.6h-2.9Z"/>
          <path class="cls-1" d="M30.6,22.2V3.1h4.1c.6,0,1.2,0,1.9.3.7.2,1.3.5,1.9.9.6.4,1.1.9,1.5,1.6.4.6.6,1.4.6,2.3,0,1.3-.4,2.4-1.1,3.3-.7.9-1.7,1.4-3,1.7.7,1.5,1.5,3.1,2.2,4.6.7,1.5,1.4,3,2.1,4.6h-1.2c-.7-1.5-1.4-3-2.1-4.5s-1.4-3-2.1-4.5c-.2,0-.3,0-.5,0-.2,0-.3,0-.5,0h-2.6v9h-1.1ZM31.7,12.1h2.8c.9,0,1.7-.1,2.4-.4.6-.3,1.1-.6,1.5-1,.4-.4.6-.8.8-1.3.1-.5.2-.9.2-1.4s-.1-1-.4-1.5c-.2-.5-.6-.9-1-1.3-.4-.4-1-.7-1.5-.9-.6-.2-1.2-.3-1.9-.3h-2.9v7.9Z"/>
          <path class="cls-1" d="M44.6,22.2V3.1h11.3v1.1h-10.2v7.8h9.1v1.1h-9.1v8h10.6v1.1h-11.7Z"/>
          <path class="cls-1" d="M77.3,22.2h-1.1c-.6-1.4-1.2-2.7-1.7-4.1-.6-1.4-1.2-2.7-1.7-4.1h-7.7c-.6,1.4-1.2,2.7-1.7,4.1-.6,1.4-1.2,2.7-1.7,4.1h-1.2c1.4-3.4,2.8-6.7,4.2-10,1.4-3.3,2.8-6.6,4.2-10,1.4,3.4,2.8,6.7,4.2,10,1.4,3.3,2.8,6.6,4.2,10ZM69.1,5.5c0-.1,0-.3-.1-.4,0-.1,0-.3-.1-.4-.5,1.4-1,2.7-1.6,4.1-.6,1.3-1.2,2.7-1.8,4.1h6.7c-.5-1.3-1.1-2.5-1.6-3.7-.5-1.2-1-2.4-1.6-3.7Z"/>
          <path class="cls-1" d="M81.7,2.2c1.7,2.2,3.3,4.3,5,6.5,1.7,2.2,3.3,4.3,5,6.5,1.7-2.2,3.3-4.3,5-6.5,1.7-2.2,3.3-4.3,5-6.5v20h-1.1V6.5c0-.2,0-.4,0-.5,0-.2,0-.4,0-.6-1.4,2-2.9,4-4.4,5.9-1.5,1.9-3,3.9-4.5,5.8-1.3-1.6-2.5-3.3-3.7-4.8-1.2-1.6-2.5-3.2-3.7-4.8l-1.1-1.5c0,0-.1-.2-.2-.3,0,0-.1-.2-.2-.3,0,.2,0,.4,0,.6,0,.2,0,.4,0,.5v15.7h-1.1V2.2Z"/>
          <path class="cls-1" d="M124.1,15.1v-1.1h3.6c.5,0,.9,0,1.1.3.2.2.3.6.3,1.1v5.7c-.7.4-1.5.8-2.3,1-.8.2-1.7.4-2.6.4-1.3,0-2.6-.3-3.8-.8-1.2-.5-2.2-1.2-3.1-2.1-.9-.9-1.6-1.9-2.1-3.1-.5-1.2-.8-2.4-.8-3.8s.3-2.6.8-3.8c.5-1.2,1.2-2.2,2.1-3.1.9-.9,1.9-1.6,3.1-2.1,1.2-.5,2.4-.8,3.8-.8s1.8.1,2.6.4c.8.2,1.6.6,2.4,1-.1.1-.2.3-.3.5-.1.2-.2.3-.3.5-.6-.4-1.3-.7-2.1-.9-.7-.2-1.5-.3-2.3-.3-1.2,0-2.3.2-3.3.7-1,.5-2,1.1-2.7,1.9s-1.4,1.7-1.8,2.8c-.4,1.1-.7,2.2-.7,3.4s.2,2.3.7,3.3c.4,1,1.1,2,1.8,2.7s1.7,1.4,2.7,1.9c1,.5,2.1.7,3.3.7s2.7-.3,3.9-.9v-4.6c0-.2,0-.4-.1-.5,0-.1-.3-.2-.6-.2h-3.2Z"/>
          <path class="cls-1" d="M133.4,22.2V3.1h4.1c.6,0,1.2,0,1.9.3.7.2,1.3.5,1.9.9.6.4,1.1.9,1.5,1.6.4.6.6,1.4.6,2.3,0,1.3-.4,2.4-1.1,3.3-.7.9-1.7,1.4-3,1.7.7,1.5,1.5,3.1,2.2,4.6.7,1.5,1.4,3,2.1,4.6h-1.2c-.7-1.5-1.4-3-2.1-4.5-.7-1.5-1.4-3-2.1-4.5-.2,0-.3,0-.5,0-.2,0-.3,0-.5,0h-2.6v9h-1.1ZM134.5,12.1h2.8c.9,0,1.7-.1,2.4-.4.6-.3,1.1-.6,1.5-1,.4-.4.6-.8.8-1.3.1-.5.2-.9.2-1.4s-.1-1-.4-1.5c-.2-.5-.6-.9-1-1.3-.4-.4-1-.7-1.5-.9s-1.2-.3-1.9-.3h-2.9v7.9Z"/>
          <path class="cls-1" d="M163.7,22.2h-1.1c-.6-1.4-1.2-2.7-1.7-4.1-.6-1.4-1.2-2.7-1.7-4.1h-7.7c-.6,1.4-1.2,2.7-1.7,4.1-.6,1.4-1.2,2.7-1.7,4.1h-1.2c1.4-3.4,2.8-6.7,4.2-10,1.4-3.3,2.8-6.6,4.2-10,1.4,3.4,2.8,6.7,4.2,10,1.4,3.3,2.8,6.6,4.2,10ZM155.5,5.5c0-.1,0-.3-.1-.4,0-.1,0-.3-.1-.4-.5,1.4-1,2.7-1.6,4.1-.6,1.3-1.2,2.7-1.8,4.1h6.7c-.5-1.3-1.1-2.5-1.6-3.7-.5-1.2-1-2.4-1.6-3.7Z"/>
          <path class="cls-1" d="M174.7,15v7.2h-1.4v-7.2c-1.2-2-2.4-4-3.5-5.9s-2.4-4-3.5-5.9h1.4c1,1.7,2,3.4,3,5.1,1,1.7,2,3.3,3,5.1,0,.1.1.3.2.4,0,.1.1.2.2.4h0c0-.1.1-.2.2-.4,0-.1,0-.3.1-.4,1-1.7,2-3.4,3-5,1-1.7,2-3.4,3-5.1h1.4l-7,11.9Z"/>
        </g>
      </g>
    </g>
  </g>
</svg>