<?xml version="1.0" encoding="UTF-8"?>
<svg xmlns="http://www.w3.org/2000/svg" version="1.1" viewBox="0 0 276 22.8">
  <defs>
    <style>
      .cls-1 {
        fill: #504f4f;
      }
    </style>
  </defs>
  <!-- Generator: Adobe Illustrator 28.7.1, SVG Export Plug-In . SVG Version: 1.2.0 Build 142)  -->
  <g>
    <g id="_レイヤー_1" data-name="レイヤー_1">
      <g id="_レイヤー_2">
        <g id="spec">
          <g>
            <path class="cls-1" d="M197.4,14.1c.4,1.1,1,2.2,1.8,3.2,1-.4,3.7-1.5,4.9-2.2.1,0,.2,0,.3,0,.4,0,.7.3.7.7s0,.6-5.2,2.4c1.6,1.5,3.8,2.6,6.6,3,.4,0,.5.3.5.6s-.3.7-.8.7c-2,0-8.3-2-10.2-8.3-.8.6-1.6,1.1-2.4,1.6v4.4c1.5-.3,2.8-.7,3.8-1,0,0,.1,0,.2,0,.3,0,.6.3.6.6s-.2.4-.5.5c-3.9,1.1-9.7,2.3-10.2,2.3s-.7-.3-.7-.6.2-.6.6-.7c1.6-.2,3.3-.5,4.9-.8v-3.9c-3,1.7-6.6,2.8-7,2.8s-.7-.3-.7-.7.1-.5.4-.5c3.3-.9,6.2-2.1,9-3.9h-8.3c-.4,0-.6-.2-.6-.5s.2-.6.6-.6h9.3s0-1.8,0-1.8c0-.4.3-.6.7-.6s.7.2.7.6v1.8s9.3,0,9.3,0c.4,0,.5.3.5.6s-.2.6-.5.6h-8.6s0,0,0,0ZM191.1,7.2c-1.3,1-4.3,2.5-5.1,2.5s-.7-.4-.7-.7.1-.5.4-.6c1.7-.6,3.9-1.6,5.3-2.5V.8c0-.4.3-.6.7-.6s.7.2.7.6v9.9c0,.4-.3.6-.7.6s-.7-.2-.7-.6v-3.5h0ZM188.4,4.8c-.6-.9-1.3-1.6-2.2-2.2-.2-.1-.2-.3-.2-.4,0-.3.4-.6.7-.6.7,0,2.9,1.9,2.9,2.7s-.4.7-.7.7-.4,0-.5-.3h0ZM194.8,10c-.4,0-.6-.3-.6-.6s.2-.6.6-.6h4.6v-3.8h-5.1c-.4,0-.6-.3-.6-.5s.2-.6.6-.6h5.1s0-3.2,0-3.2c0-.4.4-.7.7-.7s.7.2.7.7v3.2h5.5c.4,0,.6.3.6.5s-.2.6-.6.6h-5.5s0,3.8,0,3.8h4.8c.4,0,.6.3.6.6s-.2.6-.6.6h-10.9Z"/>
            <path class="cls-1" d="M231.2,19.5h0c0,1.5-.6,3-3.5,3s-1.4,0-2.3-.2c-.4,0-.6-.4-.6-.7s.2-.7.6-.7h.1c.9.2,1.6.3,2.2.3,1.4,0,2-.5,2-1.8s0-3.1,0-5h-7v7.4c0,.5-.3.7-.7.7s-.7-.2-.7-.7v-7.4h-6.6c-.3,3-.9,5.8-2.4,7.8-.2.3-.5.4-.7.4-.4,0-.8-.3-.8-.7s0-.3.1-.4c2.2-3.1,2.6-7.5,2.6-11.6s-.1-3.8-.1-5.5h0c0-1.9,1.1-2.9,3.3-3,2,0,4.1-.1,6.2-.1s3.5,0,5.3.1c1.7,0,2.9,1,2.9,2.6,0,3.7,0,9.8.1,12.7v2.8s0,0,0,0ZM221.4,8.4h-6.5c0,.5,0,1,0,1.5,0,1,0,2.1-.1,3.1h6.6v-4.7ZM221.4,2.5c-1.5,0-3.1,0-4.6,0-1.3,0-1.9.6-1.9,1.9s0,1.8,0,2.7h6.5V2.5ZM229.7,7.2c0-1,0-2,0-2.7,0-1.1-.5-1.8-1.9-1.9-1.7,0-3.4,0-5.1,0v4.7h7,0ZM222.7,8.4v4.6h7c0-1.6,0-3.2,0-4.6h-7Z"/>
            <path class="cls-1" d="M241,18.5c-.4,0-.8,0-1.2,0-1.2,0-1.9-1-2-2.2,0-1.6,0-3.8,0-6s0-4.3,0-5.7c0-2.1,1.9-2.1,3.3-2.1s.8,0,1.2,0c1.3,0,2.1.9,2.1,1.9,0,1.5,0,3.5,0,5.5s0,4.6,0,6.3c0,2.1-1.6,2.2-3.4,2.2h0ZM243.2,9.5c0-1.8,0-3.5,0-4.6,0-1.1-.8-1.2-2-1.2s-2,0-2,1.2c0,1.1,0,2.8,0,4.6h4.2,0ZM239,10.7c0,2.1,0,4.1,0,5.4,0,1.1.5,1.2,2,1.2s2,0,2-1.2c0-1.4,0-3.4,0-5.4h-4.2,0s0,0,0,0ZM246,9.4c-.4,0-.6-.3-.6-.6s.2-.6.6-.6h5.4s0-3.3,0-3.3h-4c-.4,0-.6-.3-.6-.5s.2-.6.6-.6h4s0-2.8,0-2.8c0-.4.3-.6.7-.6s.7.2.7.6v2.9h4.4c.4,0,.6.3.6.5s-.2.6-.6.6h-4.4s0,3.3,0,3.3h5.9c.4,0,.6.3.6.5s-.2.6-.6.6h-12.6ZM254.1,13.9h-8.1c-.4,0-.6-.3-.6-.5s.2-.6.6-.6h8.1s0-1.8,0-1.8c0-.4.3-.6.7-.6s.6.2.6.6v1.8s3.4,0,3.4,0c.4,0,.5.3.5.6s-.2.6-.5.6h-3.3s0,3.2,0,3.2v2.6c0,0,0,.2,0,.2,0,1.2-.5,2.7-3.4,2.7s-2.6-.5-2.6-.9.2-.7.6-.7h.1c.7.1,1.4.2,2,.2,1.1,0,1.8-.4,1.8-1.6v-5.7s0,0,0,0ZM250.5,18.6c-.8-1.1-2.3-1.9-3-2.2-.2-.1-.3-.3-.3-.4,0-.3.3-.6.7-.6.6,0,3.8,1.8,3.8,2.8s-.3.7-.6.7-.4-.1-.5-.3h0Z"/>
          </g>
        </g>
        <g>
          <path class="cls-1" d="M16.7,3h3.9c1.3,0,2.5.2,3.6.6,1.1.4,2.1,1,2.9,1.8.8.8,1.5,1.8,2,2.9.5,1.1.7,2.4.7,3.8s-.2,2.1-.5,3.2c-.4,1.1-.9,2.1-1.7,3-.8.9-1.9,1.6-3.1,2.2-1.3.6-2.9.9-4.7.9h-3V3ZM17.8,4.1v16.3h2.3c1.5,0,2.7-.2,3.8-.7s2-1.1,2.7-1.8c.7-.8,1.3-1.6,1.6-2.6.4-1,.5-2,.5-3s-.2-2.4-.6-3.4c-.4-1-1-1.9-1.8-2.6s-1.6-1.3-2.6-1.6c-1-.4-2-.6-3.2-.6h-2.8Z"/>
          <path class="cls-1" d="M33.8,21.4V3h3.9c.5,0,1.1,0,1.8.3.6.2,1.3.5,1.8.8.6.4,1,.9,1.4,1.5.4.6.6,1.3.6,2.2,0,1.3-.3,2.3-1,3.1-.7.8-1.7,1.4-2.9,1.6.7,1.5,1.4,3,2.1,4.4.7,1.5,1.4,2.9,2.1,4.4h-1.2c-.7-1.5-1.4-2.9-2-4.4s-1.4-2.9-2-4.3c-.2,0-.3,0-.5,0-.1,0-.3,0-.5,0h-2.5v8.6h-1.1ZM34.8,11.7h2.7c.9,0,1.7-.1,2.3-.4.6-.2,1.1-.6,1.4-.9.4-.4.6-.8.7-1.2.1-.4.2-.9.2-1.3s-.1-1-.4-1.4c-.2-.5-.6-.9-1-1.2-.4-.3-.9-.6-1.5-.8-.6-.2-1.2-.3-1.8-.3h-2.8v7.6Z"/>
          <path class="cls-1" d="M47.3,21.4V3h10.9v1.1h-9.8v7.5h8.8v1.1h-8.8v7.7h10.2v1.1h-11.3Z"/>
          <path class="cls-1" d="M78.7,21.4h-1.1c-.6-1.3-1.1-2.6-1.7-3.9-.6-1.3-1.1-2.6-1.7-3.9h-7.4c-.6,1.3-1.1,2.6-1.7,3.9-.6,1.3-1.1,2.6-1.7,3.9h-1.1c1.4-3.2,2.7-6.4,4.1-9.6,1.3-3.2,2.7-6.4,4.1-9.6,1.4,3.2,2.7,6.4,4.1,9.6,1.3,3.2,2.7,6.4,4.1,9.6ZM70.8,5.4c0-.1,0-.2-.1-.4,0-.1,0-.2-.1-.4-.5,1.3-1,2.6-1.5,3.9-.6,1.3-1.1,2.6-1.7,3.9h6.5c-.5-1.2-1-2.4-1.5-3.6-.5-1.2-1-2.4-1.5-3.5Z"/>
          <path class="cls-1" d="M82.9,2.2c1.6,2.1,3.2,4.2,4.8,6.2,1.6,2.1,3.2,4.2,4.8,6.2,1.6-2.1,3.2-4.2,4.8-6.2,1.6-2.1,3.2-4.2,4.8-6.2v19.2h-1.1V6.3c0-.2,0-.3,0-.5,0-.2,0-.3,0-.5-1.4,1.9-2.8,3.8-4.2,5.7-1.4,1.8-2.9,3.7-4.3,5.6-1.2-1.6-2.4-3.1-3.6-4.7-1.2-1.5-2.4-3.1-3.6-4.7l-1.1-1.4c0,0-.1-.2-.2-.2,0,0-.1-.2-.2-.2,0,.2,0,.4,0,.5,0,.2,0,.3,0,.5v15.1h-1.1V2.2Z"/>
          <path class="cls-1" d="M123.7,14.6v-1.1h3.5c.5,0,.9,0,1.1.3.2.2.3.5.3,1.1v5.4c-.7.4-1.4.7-2.2,1-.8.2-1.6.4-2.5.4-1.3,0-2.5-.2-3.7-.7-1.1-.5-2.1-1.2-3-2-.8-.8-1.5-1.8-2-3-.5-1.1-.7-2.4-.7-3.6s.2-2.5.7-3.7c.5-1.1,1.2-2.1,2-3,.8-.8,1.8-1.5,3-2,1.1-.5,2.4-.7,3.7-.7s1.7.1,2.5.3c.8.2,1.6.6,2.3,1-.1.1-.2.3-.3.4,0,.2-.2.3-.3.4-.6-.4-1.3-.7-2-.9-.7-.2-1.4-.3-2.2-.3-1.1,0-2.2.2-3.2.7-1,.4-1.9,1.1-2.6,1.8s-1.3,1.6-1.8,2.7c-.4,1-.6,2.1-.6,3.3s.2,2.2.6,3.2c.4,1,1,1.9,1.8,2.6s1.6,1.3,2.6,1.8c1,.4,2.1.7,3.2.7s2.6-.3,3.7-.9v-4.4c0-.2,0-.4-.1-.5,0-.1-.3-.2-.6-.2h-3.1Z"/>
          <path class="cls-1" d="M132.6,21.4V3h3.9c.5,0,1.1,0,1.8.3.6.2,1.3.5,1.8.8.6.4,1,.9,1.4,1.5.4.6.6,1.3.6,2.2,0,1.3-.3,2.3-1,3.1-.7.8-1.6,1.4-2.9,1.6.7,1.5,1.4,3,2.1,4.4.7,1.5,1.4,2.9,2.1,4.4h-1.2c-.7-1.5-1.4-2.9-2-4.4-.7-1.4-1.4-2.9-2-4.3-.2,0-.3,0-.5,0-.1,0-.3,0-.5,0h-2.5v8.6h-1.1ZM133.7,11.7h2.7c.9,0,1.7-.1,2.3-.4.6-.2,1.1-.6,1.4-.9.4-.4.6-.8.7-1.2.1-.4.2-.9.2-1.3s-.1-1-.4-1.4c-.2-.5-.6-.9-1-1.2-.4-.3-.9-.6-1.5-.8s-1.2-.3-1.8-.3h-2.8v7.6Z"/>
          <path class="cls-1" d="M161.8,21.4h-1.1c-.6-1.3-1.1-2.6-1.7-3.9-.6-1.3-1.1-2.6-1.7-3.9h-7.4c-.6,1.3-1.1,2.6-1.7,3.9-.6,1.3-1.1,2.6-1.7,3.9h-1.1c1.4-3.2,2.7-6.4,4.1-9.6,1.3-3.2,2.7-6.4,4.1-9.6,1.4,3.2,2.7,6.4,4.1,9.6,1.3,3.2,2.7,6.4,4.1,9.6ZM153.9,5.4c0-.1,0-.2-.1-.4,0-.1,0-.2-.1-.4-.5,1.3-1,2.6-1.5,3.9-.6,1.3-1.1,2.6-1.7,3.9h6.5c-.5-1.2-1-2.4-1.5-3.6-.5-1.2-1-2.4-1.5-3.5Z"/>
          <path class="cls-1" d="M172.4,14.5v7h-1.3v-7c-1.1-1.9-2.3-3.8-3.4-5.7s-2.3-3.8-3.4-5.7h1.3c1,1.6,1.9,3.3,2.9,4.9,1,1.6,1.9,3.2,2.9,4.9,0,.1.1.3.2.4,0,.1.1.2.2.4h0c0-.1.1-.2.1-.4,0-.1,0-.2.1-.4,1-1.6,1.9-3.2,2.9-4.8,1-1.6,1.9-3.2,2.9-4.9h1.3l-6.8,11.4Z"/>
        </g>
      </g>
    </g>
  </g>
</svg>