<?xml version="1.0" encoding="UTF-8"?>
<svg id="_レイヤー_2" xmlns="http://www.w3.org/2000/svg" version="1.1" viewBox="0 0 362.817 23.53">
  <!-- Generator: Adobe Illustrator 29.0.0, SVG Export Plug-In . SVG Version: 2.1.0 Build 186)  -->
  <defs>
    <style>
      .st0 {
        isolation: isolate;
      }

      .st1 {
        fill: #504f4f;
      }
    </style>
  </defs>
  <g id="spec">
    <g>
      <path class="st1" d="M298.427,14.55c.4,1.16,1.03,2.29,1.92,3.35,1.08-.43,3.86-1.59,5.1-2.27.11-.05.24-.08.35-.08.41,0,.76.35.76.73,0,.46-.05.59-5.37,2.48,1.65,1.54,3.97,2.7,6.91,3.08.38.05.57.35.57.65,0,.35-.27.73-.81.73-2.11,0-8.64-2.05-10.66-8.64-.84.59-1.7,1.16-2.54,1.67v4.54c1.54-.32,2.94-.7,4-1,.05-.03.13-.03.19-.03.35,0,.62.3.62.62,0,.22-.16.46-.51.57-4.02,1.19-10.12,2.35-10.61,2.35-.51,0-.76-.35-.76-.67s.22-.65.65-.7c1.65-.22,3.43-.51,5.13-.86v-4.05c-3.13,1.73-6.83,2.92-7.23,2.92-.43,0-.7-.35-.7-.7,0-.24.13-.49.46-.57,3.48-.94,6.42-2.19,9.37-4.1l-8.61.05c-.41,0-.59-.3-.59-.59s.19-.59.59-.59l9.66.03-.03-1.92c0-.4.35-.59.7-.59s.7.19.7.59l-.03,1.92,9.72-.03c.38,0,.57.3.57.59s-.19.59-.57.59l-8.93-.05-.02-.02h0ZM291.837,7.32c-1.4,1.05-4.51,2.65-5.26,2.65-.46,0-.73-.38-.73-.73,0-.27.13-.54.46-.65,1.78-.59,4.08-1.67,5.53-2.62V.67c0-.43.35-.65.7-.65s.7.22.7.65v10.28c0,.41-.35.59-.7.59s-.7-.19-.7-.59v-3.64.01h0ZM289.107,4.81c-.59-.89-1.4-1.65-2.29-2.29-.16-.13-.24-.27-.24-.4,0-.32.38-.59.76-.59.76,0,3.05,2.02,3.05,2.81,0,.43-.38.78-.76.78-.19,0-.38-.08-.51-.3l-.01-.01h0ZM295.697,10.29c-.43,0-.65-.3-.65-.59s.22-.59.65-.59h4.83v-3.94l-5.34.03c-.46,0-.65-.3-.65-.59s.22-.62.65-.62l5.32.03V.7c0-.46.38-.7.76-.7.35,0,.73.24.73.7v3.29l5.75-.03c.43,0,.65.3.65.59,0,.32-.22.62-.65.62l-5.75-.03-.03,3.94h5.02c.43,0,.62.3.62.59s-.19.59-.62.59h-11.28l-.01.03Z"/>
      <path class="st1" d="M333.547,20.08v.08c0,1.51-.67,3.02-3.64,3.02-.67,0-1.43-.08-2.35-.24-.43-.08-.65-.4-.65-.73,0-.38.24-.7.67-.7h.13c.92.16,1.65.27,2.27.27,1.43,0,2.08-.54,2.08-1.92s-.03-3.18-.03-5.18h-7.29l.03,7.67c0,.49-.35.7-.73.7-.35,0-.73-.22-.73-.7v-7.67h-6.91c-.3,3.08-.97,6.05-2.46,8.15-.22.32-.51.43-.78.43-.43,0-.81-.32-.81-.7,0-.13.05-.27.14-.4,2.27-3.24,2.7-7.8,2.7-12.09,0-2.02-.11-4-.13-5.72v-.05c0-1.97,1.19-2.97,3.4-3.02,2.11-.05,4.24-.11,6.4-.11,1.78,0,3.62.03,5.51.11,1.78.05,3.02,1.03,3.05,2.7.08,3.89.05,10.18.11,13.17l.03,2.94-.01-.01h0ZM323.347,8.61h-6.75c0,.51.03,1.03.03,1.57,0,1.08-.03,2.16-.11,3.27h6.83s0-4.84,0-4.84ZM323.347,2.46c-1.59,0-3.18.05-4.78.08-1.32.03-2.02.67-2.02,1.97,0,.86.03,1.83.05,2.86h6.75V2.46ZM332.017,7.37c0-1.08-.03-2.05-.05-2.86-.03-1.19-.49-1.92-1.94-1.97-1.75-.05-3.51-.08-5.26-.08v4.91h7.26-.01ZM324.757,8.61v4.83h7.29c0-1.62,0-3.29-.03-4.83h-7.26Z"/>
      <path class="st1" d="M343.817,19.11c-.43,0-.86,0-1.3-.03-1.24-.08-2.02-1.03-2.05-2.27-.03-1.67-.03-3.97-.03-6.21s0-4.45.03-5.97c.05-2.16,1.97-2.19,3.43-2.19.43,0,.86.03,1.24.05,1.32.08,2.16.97,2.19,2.02.05,1.57.08,3.62.08,5.72,0,2.4-.03,4.83-.08,6.56-.05,2.16-1.62,2.29-3.51,2.29v.03ZM346.057,9.74c0-1.83,0-3.59-.05-4.83-.05-1.16-.81-1.24-2.11-1.24s-2.05.03-2.11,1.27c-.03,1.11-.05,2.89-.05,4.8h4.32,0ZM341.737,10.95c0,2.16.03,4.29.05,5.61.03,1.16.51,1.27,2.08,1.27,1.27,0,2.11-.08,2.13-1.29.05-1.46.05-3.51.05-5.59h-4.32.01ZM348.967,9.63c-.43,0-.65-.3-.65-.59,0-.32.22-.62.65-.62l5.59.03-.03-3.46-4.18.03c-.43,0-.65-.3-.65-.59s.22-.62.65-.62l4.18.03V.86c0-.43.35-.65.7-.65.38,0,.73.22.73.65v2.97l4.62-.03c.41,0,.62.3.62.59,0,.32-.22.62-.62.62l-4.62-.03v3.46l6.16-.03c.4,0,.59.3.59.59,0,.32-.19.62-.59.62h-13.15v.01h0ZM357.387,14.27l-8.42.03c-.43,0-.62-.3-.62-.59,0-.32.22-.65.62-.65l8.39.03v-1.86c0-.43.35-.62.7-.62.32,0,.67.19.67.62l.03,1.86,3.48-.03c.38,0,.57.3.57.62,0,.3-.19.62-.57.62l-3.48-.03.03,3.4.08,2.7v.16c0,1.27-.57,2.78-3.51,2.78-2.62,0-2.67-.57-2.67-.92s.24-.7.67-.7h.13c.78.13,1.48.24,2.08.24,1.13,0,1.83-.41,1.83-1.7l-.03-5.96h.02ZM353.637,19.21c-.84-1.11-2.4-1.97-3.1-2.32-.22-.11-.32-.27-.32-.43,0-.32.32-.65.7-.65.65,0,3.94,1.89,3.94,2.94,0,.43-.3.78-.67.78-.16,0-.38-.11-.54-.32h-.01,0Z"/>
    </g>
  </g>
  <g class="st0">
    <g class="st0">
      <path class="st1" d="M0,3.379h4.125c1.347,0,2.619.229,3.817.688,1.197.459,2.245,1.114,3.143,1.965.898.852,1.609,1.885,2.133,3.101.523,1.217.786,2.573.786,4.07,0,1.104-.192,2.236-.575,3.396-.384,1.16-1.006,2.218-1.866,3.172-.861.954-1.979,1.735-3.354,2.343-1.375.608-3.055.912-5.038.912H0V3.379ZM1.151,4.502v17.372h2.441c1.553,0,2.909-.248,4.069-.744,1.16-.495,2.123-1.146,2.891-1.95.767-.804,1.342-1.726,1.726-2.764.383-1.039.576-2.109.576-3.214,0-1.329-.229-2.531-.688-3.606-.459-1.076-1.085-1.993-1.88-2.751-.795-.757-1.722-1.337-2.778-1.739-1.057-.402-2.185-.604-3.382-.604H1.151Z"/>
      <path class="st1" d="M35.248,23.024h-1.179c-.599-1.403-1.193-2.807-1.782-4.209-.589-1.403-1.183-2.807-1.782-4.21h-7.886c-.599,1.403-1.193,2.807-1.782,4.21-.589,1.402-1.183,2.806-1.782,4.209h-1.207c1.459-3.442,2.909-6.866,4.35-10.272,1.44-3.404,2.89-6.828,4.35-10.271,1.459,3.442,2.909,6.866,4.35,10.271,1.44,3.406,2.891,6.83,4.35,10.272ZM26.8,5.877c-.038-.131-.08-.262-.126-.393-.047-.131-.089-.262-.126-.394-.487,1.423-1.034,2.825-1.642,4.21-.608,1.385-1.211,2.778-1.81,4.182h6.932c-.543-1.292-1.081-2.564-1.614-3.818-.533-1.253-1.071-2.516-1.614-3.788Z"/>
      <path class="st1" d="M41.701,3.379h12.376v1.123c-2.245,2.9-4.476,5.795-6.693,8.686-2.217,2.891-4.448,5.795-6.693,8.714h14.2v1.122h-15.688v-1.122c2.245-2.919,4.476-5.823,6.693-8.714,2.217-2.891,4.448-5.786,6.693-8.686h-11.085c-.58,0-1.029-.112-1.347-.337-.318-.225-.477-.607-.477-1.15v-.617h1.179v.337c0,.224.061.388.183.49.122.104.341.154.659.154Z"/>
      <path class="st1" d="M61.345,3.379h12.376v1.123c-2.245,2.9-4.476,5.795-6.693,8.686-2.217,2.891-4.448,5.795-6.693,8.714h14.2v1.122h-15.688v-1.122c2.245-2.919,4.476-5.823,6.693-8.714,2.217-2.891,4.448-5.786,6.693-8.686h-11.085c-.58,0-1.029-.112-1.347-.337-.318-.225-.477-.607-.477-1.15v-.617h1.179v.337c0,.224.061.388.183.49.122.104.341.154.659.154Z"/>
      <path class="st1" d="M78.604,23.024V3.379h1.151v18.523h10.888v1.122h-12.039Z"/>
      <path class="st1" d="M95.245,23.024V3.379h11.646v1.123h-10.496v8.054h9.401v1.124h-9.401v8.223h10.888v1.122h-12.039Z"/>
      <path class="st1" d="M129.79,15.729v-1.123h3.705c.561,0,.954.104,1.179.309.224.206.336.58.336,1.123v5.809c-.749.431-1.548.771-2.399,1.024-.852.253-1.754.379-2.708.379-1.385,0-2.685-.262-3.901-.786-1.216-.523-2.278-1.239-3.185-2.146-.908-.907-1.623-1.969-2.146-3.186-.524-1.216-.786-2.516-.786-3.9s.262-2.69.786-3.916c.523-1.225,1.239-2.291,2.146-3.199.907-.907,1.969-1.627,3.185-2.16s2.516-.8,3.901-.8c.954,0,1.856.121,2.708.364.851.243,1.66.59,2.428,1.038-.112.15-.22.309-.323.478-.103.168-.21.327-.323.477-.655-.393-1.361-.696-2.119-.912-.758-.215-1.548-.322-2.372-.322-1.216,0-2.362.238-3.438.716-1.076.477-2.016,1.122-2.82,1.937-.805.813-1.436,1.764-1.895,2.848-.458,1.086-.688,2.245-.688,3.481,0,1.216.229,2.361.688,3.438s1.09,2.016,1.895,2.82c.804.805,1.735,1.44,2.792,1.908,1.057.468,2.193.701,3.41.701,1.422,0,2.75-.317,3.985-.954v-4.714c0-.225-.047-.402-.14-.533-.094-.131-.299-.196-.617-.196h-3.284Z"/>
      <path class="st1" d="M139.36,23.024V3.379h4.209c.58,0,1.216.095,1.908.281.692.188,1.342.486,1.95.897.608.412,1.118.945,1.53,1.6.411.655.617,1.441.617,2.357,0,1.348-.36,2.466-1.081,3.354-.72.889-1.763,1.474-3.129,1.754.748,1.591,1.492,3.162,2.231,4.715.739,1.553,1.474,3.115,2.203,4.687h-1.263c-.73-1.571-1.459-3.124-2.189-4.658-.73-1.534-1.459-3.077-2.189-4.631-.168.02-.333.033-.491.042-.159.01-.323.015-.491.015h-2.666v9.232h-1.15ZM140.51,12.64h2.919c.972,0,1.782-.13,2.427-.393.646-.262,1.16-.599,1.543-1.01.383-.412.65-.856.8-1.333.149-.478.225-.94.225-1.39,0-.523-.126-1.028-.379-1.516-.252-.485-.604-.916-1.052-1.29-.449-.374-.978-.669-1.586-.885-.608-.215-1.258-.322-1.95-.322h-2.947v8.138Z"/>
      <path class="st1" d="M170.538,23.024h-1.179c-.6-1.403-1.193-2.807-1.782-4.209-.59-1.403-1.184-2.807-1.782-4.21h-7.885c-.599,1.403-1.193,2.807-1.782,4.21-.589,1.402-1.183,2.806-1.782,4.209h-1.207c1.459-3.442,2.909-6.866,4.35-10.272,1.44-3.404,2.89-6.828,4.35-10.271,1.459,3.442,2.909,6.866,4.349,10.271,1.44,3.406,2.891,6.83,4.351,10.272ZM162.09,5.877c-.038-.131-.08-.262-.126-.393-.047-.131-.089-.262-.126-.394-.487,1.423-1.034,2.825-1.642,4.21-.608,1.385-1.211,2.778-1.81,4.182h6.932c-.543-1.292-1.081-2.564-1.614-3.818-.533-1.253-1.071-2.516-1.613-3.788Z"/>
      <path class="st1" d="M181.846,15.588v7.437h-1.403v-7.437c-1.217-2.039-2.428-4.074-3.634-6.104-1.207-2.03-2.419-4.064-3.635-6.104h1.432c1.028,1.759,2.066,3.49,3.115,5.192,1.047,1.702,2.076,3.433,3.087,5.192.056.15.112.285.168.407.057.121.112.248.168.379h.028c.057-.131.107-.258.154-.379.047-.122.099-.257.154-.407,1.048-1.741,2.081-3.466,3.102-5.178,1.02-1.712,2.044-3.447,3.072-5.206h1.432l-7.24,12.208Z"/>
      <path class="st1" d="M214.062,3.379v1.123h-7.185v18.522h-1.15V4.502h-7.185v-1.123h15.52Z"/>
      <path class="st1" d="M215.801,13.23c0-1.385.262-2.69.786-3.916.523-1.225,1.239-2.291,2.146-3.199.907-.907,1.969-1.627,3.186-2.16,1.216-.533,2.516-.8,3.9-.8s2.689.267,3.915.8,2.292,1.253,3.199,2.16c.907.908,1.628,1.975,2.161,3.199.533,1.226.8,2.53.8,3.916s-.267,2.685-.8,3.9c-.533,1.217-1.254,2.278-2.161,3.186s-1.974,1.623-3.199,2.146c-1.226.524-2.53.786-3.915.786s-2.685-.262-3.9-.786c-1.217-.523-2.278-1.239-3.186-2.146s-1.623-1.969-2.146-3.186c-.524-1.216-.786-2.516-.786-3.9ZM216.98,13.259c0,1.234.229,2.39.688,3.466.459,1.076,1.09,2.011,1.895,2.806.805.796,1.74,1.427,2.807,1.895s2.207.701,3.424.701,2.366-.233,3.451-.701,2.035-1.104,2.849-1.908,1.454-1.744,1.922-2.82.702-2.231.702-3.466-.234-2.395-.702-3.48-1.104-2.035-1.908-2.849-1.749-1.454-2.834-1.923c-1.085-.467-2.236-.701-3.452-.701s-2.361.238-3.438.716c-1.076.477-2.016,1.122-2.82,1.937-.805.813-1.436,1.764-1.895,2.848-.458,1.086-.688,2.245-.688,3.481Z"/>
      <path class="st1" d="M239.712,23.024V3.379h4.209c.58,0,1.216.095,1.908.281.692.188,1.343.486,1.95.897.608.412,1.118.945,1.53,1.6.411.655.617,1.441.617,2.357,0,1.348-.36,2.466-1.081,3.354-.72.889-1.763,1.474-3.129,1.754.748,1.591,1.492,3.162,2.231,4.715.738,1.553,1.474,3.115,2.203,4.687h-1.263c-.73-1.571-1.46-3.124-2.189-4.658s-1.459-3.077-2.188-4.631c-.169.02-.333.033-.491.042-.159.01-.323.015-.491.015h-2.666v9.232h-1.15ZM240.862,12.64h2.919c.972,0,1.781-.13,2.427-.393.646-.262,1.16-.599,1.544-1.01.383-.412.649-.856.8-1.333.149-.478.225-.94.225-1.39,0-.523-.127-1.028-.379-1.516-.253-.485-.604-.916-1.053-1.29s-.978-.669-1.586-.885c-.607-.215-1.258-.322-1.95-.322h-2.946v8.138Z"/>
      <path class="st1" d="M254.724,3.379h1.151v19.645h-1.151V3.379Z"/>
      <path class="st1" d="M274.985,20.892l.646.954c-.748.431-1.548.771-2.399,1.024s-1.754.379-2.708.379c-1.385,0-2.685-.262-3.9-.786-1.217-.523-2.278-1.239-3.186-2.146s-1.623-1.969-2.146-3.186c-.524-1.216-.786-2.516-.786-3.9s.262-2.69.786-3.916c.523-1.225,1.239-2.291,2.146-3.199.907-.907,1.969-1.627,3.186-2.16,1.216-.533,2.516-.8,3.9-.8.954,0,1.856.121,2.708.364s1.66.59,2.428,1.038c-.112.15-.22.309-.322.478-.104.168-.211.327-.323.477-.655-.393-1.361-.696-2.118-.912-.758-.215-1.549-.322-2.372-.322-1.216,0-2.361.238-3.438.716-1.076.477-2.016,1.122-2.82,1.937-.805.813-1.436,1.764-1.895,2.848-.458,1.086-.688,2.245-.688,3.481,0,1.216.229,2.361.688,3.438.459,1.076,1.09,2.016,1.895,2.82s1.735,1.44,2.792,1.908,2.193.701,3.41.701c.842,0,1.637-.107,2.385-.322s1.46-.52,2.133-.912Z"/>
    </g>
  </g>
</svg>