<svg xmlns="http://www.w3.org/2000/svg" width="271.65" height="22.825" viewBox="0 0 271.65 22.825">
  <path id="パス_157" data-name="パス 157" d="M-127.875.325a6.829,6.829,0,0,0,5.45-2.6l-.85-.95a5.828,5.828,0,0,1-4.525,2.2c-3.825,0-6.2-3.175-6.2-8.15,0-4.925,2.425-8.025,6.275-8.025a5.122,5.122,0,0,1,3.95,1.825l.85-.975a6.3,6.3,0,0,0-4.8-2.2c-4.625,0-7.85,3.6-7.85,9.425S-132.375.325-127.875.325Zm17.1,0c4.45,0,7.575-3.7,7.575-9.5,0-5.775-3.125-9.375-7.575-9.375-4.4,0-7.55,3.6-7.55,9.375C-118.325-3.375-115.175.325-110.775.325Zm0-1.35c-3.6,0-5.975-3.2-5.975-8.15s2.375-8.025,5.975-8.025c3.625,0,6.025,3.075,6.025,8.025S-107.15-1.025-110.775-1.025Zm14,1.025h1.5V-8.225h3.725L-86.7,0H-85l-4.925-8.35c2.775-.425,4.55-2.1,4.55-5,0-3.55-2.45-4.875-6.075-4.875h-5.325Zm1.5-9.475v-7.5H-91.8c3.15,0,4.9.975,4.9,3.625,0,2.625-1.75,3.875-4.9,3.875Zm18.6-1.15c.725-2.125,1.35-4.05,1.975-6.25h.1c.65,2.2,1.25,4.125,2,6.25l1.1,3.3h-6.3ZM-81.775,0h1.5L-78.2-6.125h7.1L-69.075,0h1.6L-73.85-18.225H-75.4ZM-62.4,0h9.8V-1.3h-8.3V-18.225h-1.5Zm23.1,0h5.4c4.1,0,6.8-1.8,6.8-5.325A4.222,4.222,0,0,0-30.975-9.7v-.125A3.925,3.925,0,0,0-28.2-13.8c0-3.075-2.4-4.425-6.075-4.425H-39.3Zm1.5-10.275V-17h3.2c3.225,0,4.9.9,4.9,3.375,0,2.075-1.45,3.35-5.05,3.35Zm0,9.025V-9.075h3.55c3.625,0,5.675,1.2,5.675,3.75,0,2.825-2.15,4.075-5.675,4.075ZM-21,0h1.5V-8.225h3.725L-10.925,0h1.7L-14.15-8.35c2.775-.425,4.55-2.1,4.55-5,0-3.55-2.45-4.875-6.075-4.875H-21Zm1.5-9.475v-7.5h3.475c3.15,0,4.9.975,4.9,3.625,0,2.625-1.75,3.875-4.9,3.875ZM2.85.325c4.45,0,7.575-3.7,7.575-9.5,0-5.775-3.125-9.375-7.575-9.375-4.4,0-7.55,3.6-7.55,9.375C-4.7-3.375-1.55.325,2.85.325Zm0-1.35c-3.6,0-5.975-3.2-5.975-8.15S-.75-17.2,2.85-17.2c3.625,0,6.025,3.075,6.025,8.025S6.475-1.025,2.85-1.025ZM18.8,0h1.7l3.125-12.175c.325-1.45.7-2.7,1-4.125h.1c.325,1.425.65,2.675.95,4.125L28.9,0h1.7l4-18.225H33.15L30.925-7.675c-.4,1.975-.775,3.95-1.15,5.95H29.65c-.475-2-.925-3.975-1.4-5.95l-2.8-10.55H23.975L21.2-7.675c-.475,1.975-.95,3.95-1.4,5.95h-.1c-.4-2-.8-3.975-1.225-5.95l-2.2-10.55h-1.55ZM40.3,0h1.425V-10.925c0-1.825-.125-3.525-.2-5.275h.125l2.05,3.65L51.125,0h1.55V-18.225H51.25v10.8c0,1.775.1,3.6.2,5.4h-.125L49.3-5.7,41.85-18.225H40.3ZM73.55-11.4H68.075v1.1h12.4v-1.1H74.75v-4.575h6.5v-1.1h-6.5v-3.75h-1.2v3.75H67.2v1.1h6.35Zm-7.775-9.425H64.65V-9.3h1.125Zm-2.325,4.1A13.516,13.516,0,0,0,60.4-19.3l-.775.7a14.119,14.119,0,0,1,3.025,2.675Zm.425,2.5c-1.975.95-3.9,1.85-5.225,2.4l.45,1.075c1.5-.725,3.275-1.575,5-2.375ZM78.65-5.65a31.905,31.905,0,0,1-4.7,2.75A13.291,13.291,0,0,1,71.1-6.425H81.15V-7.45H70.625V-9.625H69.45V-7.45H59.025v1.025H68.3A26.621,26.621,0,0,1,58.7-2.35a5.452,5.452,0,0,1,.75.95,30.406,30.406,0,0,0,5.175-1.8V.15c-1.15.15-2.2.275-3.075.375l.25,1.1c2.7-.35,6.575-.9,10.275-1.425L72.05-.85c-2.15.275-4.325.575-6.275.85V-3.75A18.861,18.861,0,0,0,69.85-6.425h.075a16.377,16.377,0,0,0,10.8,8.35,4.885,4.885,0,0,1,.775-1,17.23,17.23,0,0,1-6.825-3.2,32.389,32.389,0,0,0,4.925-2.7ZM97.975-7.175V-12h7.575v4.825Zm-8.025,0c.075-.95.1-1.9.1-2.775V-12h6.725v4.825ZM96.775-17.85v4.7H90.05v-4.7Zm8.775,4.7H97.975v-4.7h7.575Zm1.2-5.85H88.85v9.05c0,3.525-.275,7.95-3.05,11.075a3.324,3.324,0,0,1,.925.85,14.711,14.711,0,0,0,3.125-8h6.925v7.65h1.2v-7.65h7.575v5.9c0,.5-.175.65-.65.65-.5.025-2.225.05-4.175,0A3.712,3.712,0,0,1,101.15,1.7a20,20,0,0,0,4.575-.2c.725-.225,1.025-.625,1.025-1.625Zm13,1v6.225h-4.4V-18Zm-4.4,13.725V-10.65h4.4v6.375Zm5.55-14.85h-6.725V-1.2h1.175V-3.15h5.55ZM123.325-5.55a18.515,18.515,0,0,1,3.325,4.5l1.025-.675a18.178,18.178,0,0,0-3.4-4.4Zm12.75-6.125V-12.8h-6.9v-3.75h5.65v-1.1h-5.65v-3.2H128v3.2h-5.5v1.1H128v3.75h-6.675v1.125H131.35v3.25H121.5v1.1h9.85v7.5c0,.35-.1.475-.55.5-.4,0-1.825,0-3.55-.05a4.365,4.365,0,0,1,.425,1.15A20.386,20.386,0,0,0,131.65,1.6c.65-.2.875-.6.875-1.425v-7.5h3.225v-1.1h-3.225v-3.25Z" transform="translate(135.575 20.85)" fill="#504f4f"/>
</svg>