<?xml version="1.0" encoding="UTF-8"?>
<svg id="_レイヤー_1" data-name="レイヤー 1" xmlns="http://www.w3.org/2000/svg" version="1.1" viewBox="0 0 14.4 14.8">
  <defs>
    <style>
      .cls-1 {
        fill: #000;
        stroke-width: 0px;
      }
    </style>
  </defs>
  <path class="cls-1" d="M12.7,0c.4,0,.8,0,1.3,0,0,0,0,0,0,0-.3.4-.6.7-.9,1.1-1.4,1.7-2.9,3.3-4.3,5,0,0,0,0,0,.1,0,0,0,0,0,0,1.6,2.3,3.2,4.6,4.8,6.9.3.5.7,1,1,1.5,0,0,0,0,0,0h-4.3c-.1-.2-.3-.4-.4-.6-1.2-1.7-2.3-3.4-3.5-5.1,0,0,0,0,0,0,0,0,0,0,0,0-.2.2-.3.4-.5.6-1.3,1.5-2.6,3-3.8,4.5-.2.2-.3.4-.5.6H0s0,0,0,0c.1-.2.3-.3.4-.5,1-1.2,2-2.3,3-3.5.7-.8,1.4-1.7,2.2-2.5,0,0,0,0,0,0,0,0,0,0,0,0-.7-1-1.4-2-2.1-3.1C2.3,3.4,1.2,1.7,0,0,0,0,0,0,0,0,1.4,0,2.9,0,4.3,0c0,0,0,0,0,0,1.2,1.8,2.4,3.5,3.6,5.3,0,0,0,0,0,0,0,0,0,0,0,0C9.6,3.6,11.1,1.8,12.6,0c0,0,0,0,0,0ZM12.7,13.8s0,0,0,0c-2.5-3.6-5.1-7.3-7.6-10.9-.4-.6-.8-1.2-1.3-1.8,0,0,0,0,0,0-.6,0-1.2,0-1.9,0,0,0,0,0,0,0,0,0,0,0,0,0,1,1.4,1.9,2.8,2.9,4.2,2,2.9,4,5.7,6,8.6,0,0,0,0,.1,0,.6,0,1.2,0,1.8,0h0Z"/>
</svg>