<?xml version="1.0" encoding="UTF-8"?>
<svg id="_レイヤー_1" data-name="レイヤー 1" xmlns="http://www.w3.org/2000/svg" version="1.1" viewBox="0 0 15.8 15.8">
  <defs>
    <style>
      .cls-1 {
        fill: #000;
        stroke-width: 0px;
      }
    </style>
  </defs>
  <path class="cls-1" d="M9.5,15.8c-.3,0-.5,0-.8,0h-.8s-.9,0-.9,0h-2.1c-2.4,0-4.4-1.6-4.8-4,0-.2,0-.5,0-.8C0,8.9,0,6.9,0,4.8,0,2.4,1.7.4,4.1,0c.3,0,.5,0,.8,0C6.9,0,8.9,0,10.9,0c2.5,0,4.4,1.6,4.8,4,0,.2,0,.5,0,.8,0,2,0,4,0,6.1,0,2.4-1.7,4.4-4.1,4.8-.3,0-.6,0-.8,0-.5,0-.9,0-1.4,0ZM7.9,14.8h.8c.7,0,1.5,0,2.2,0,.2,0,.4,0,.7,0,1.9-.3,3.2-1.9,3.2-3.8,0-2,0-4,0-6,0-.2,0-.4,0-.6-.3-1.9-1.9-3.2-3.8-3.2-2,0-4,0-6,0-.2,0-.4,0-.6,0-1.9.3-3.2,1.9-3.2,3.8,0,2,0,4.1,0,6.1,0,.2,0,.4,0,.6.4,1.9,1.9,3.2,3.8,3.2h2.1s.9,0,.9,0Z"/>
  <path class="cls-1" d="M7.9,12.1h0c-2.3,0-4.2-1.9-4.2-4.2h0c0-2.3,1.9-4.2,4.2-4.2h0c1.1,0,2.2.4,3,1.2.8.8,1.2,1.8,1.2,3,0,2.3-1.9,4.2-4.2,4.2ZM4.7,7.9c0,1.8,1.4,3.2,3.2,3.2h0c1.8,0,3.2-1.4,3.2-3.2,0-.9-.3-1.7-.9-2.3-.6-.6-1.4-.9-2.2-.9h0c-1.8,0-3.2,1.4-3.2,3.2h0Z"/>
  <path class="cls-1" d="M12.8,3.6c0-.3-.3-.6-.6-.6-.3,0-.6.3-.6.6,0,.3.3.6.6.6.3,0,.6-.3.6-.6Z"/>
</svg>