<?xml version="1.0" encoding="UTF-8"?>
<svg id="_レイヤー_1" data-name="レイヤー 1" xmlns="http://www.w3.org/2000/svg" version="1.1" viewBox="0 0 300.9 94.3">
  <defs>
    <style>
      .cls-1 {
        fill: #000;
        stroke-width: 0px;
      }
    </style>
  </defs>
  <path class="cls-1" d="M222.6,84.6h0s0,0,0,0h0Z"/>
  <path class="cls-1" d="M144.9,84.5h0c0,0,0-.1,0-.2v.2Z"/>
  <path class="cls-1" d="M214.3,84.6h0c0,0,0,0,0,0h0s0,0,0,0Z"/>
  <path class="cls-1" d="M155.9,84.5h0s0,0,0,0h0Z"/>
  <path class="cls-1" d="M175.3,84.6v-.2c0,0,0,0,0,0v.2h0Z"/>
  <path class="cls-1" d="M164.3,84.6h0s0,0,0,0h0Z"/>
  <path class="cls-1" d="M160.1,38h0s0,0,0,0c0,0,0,0,0,0Z"/>
  <path class="cls-1" d="M292.1,84.6h0s0,0,0,0h0Z"/>
  <path class="cls-1" d="M283.8,84.6h0s0,0,0,0h0Z"/>
  <path class="cls-1" d="M230.9,91.4h-4c-4,0-4.4-5.3-4.4-6.8h0s0,0,0,0c0,0,0,0,0,0v-.4s0,0,0,0v-22.4c0-14.2-11.5-25.7-25.7-25.7h0c-9,0-15,2.9-15,2.9l-4.5-4.5c-.2-.2-.6-.4-.9-.4h0c-.7,0-1.3.6-1.3,1.3v49.1h0v-.2c0,1.5-.4,7.1-4.4,7.1h-2.2c-4,0-4.4-5.3-4.4-6.8h0s0,0,0,0v-.4s0,0,0,0v-39.1s0,0,0,0v-.4c0-1.5.4-6.8,4.4-6.8h3.8c.2,0,.4-.1.5-.3.2-.5.2-1.4.2-1.4,0-.3-.2-.5-.5-.5h-25c-.3,0-.5.2-.5.5,0,0,0,.8.2,1.4,0,.2.3.3.5.3h3.8c4,0,4.4,5.3,4.4,6.8v.4s0,0,0,0v39.1s0,0,0,0v.4s0,0,0,0h0s0,0,0,0h0c0,1.5-.4,6.8-4.4,6.8h-2.2c-4,0-4.4-5.4-4.4-6.9h0v-.2c0,0,0,.1,0,.2v-.4s0,0,0,0v-3.1s0-6.4,0-6.4v-9.9c0-16.8-12.4-29.8-28.3-29.8s-30,12.6-30,29.7,11.9,29.6,29.4,29.6,19.7-9.7,19.7-11.7c.8,6.6,4,10.6,9.1,11h15.2s7,0,7,0c0,0-7,0-6.9,0h19.3s0,0,0,0c0,0,0,0,0,0h12.4c.2,0,.4-.1.5-.3.2-.5.2-1.4.2-1.4,0-.3-.2-.5-.5-.5h-3.9c-4,0-4.4-5.3-4.4-6.8h0v-30.6s0,0,0,0c0-8.8,7.4-15.9,16.4-15.3.2,0,.6,0,.6,0,1.7.2,6.9,1.5,10.1,7.1,2.9,5.2,3.5,10.8,3.7,13.9v24.7s0,0,0,0v.4s0,0,0,0h0c0,.1,0,.1,0,.1h0c0,1.5-.4,6.8-4.4,6.8h-3.9c-.3,0-.5.2-.5.5,0,0,0,.8.2,1.4,0,.2.3.3.5.3h12.4s0,0,0,0c0,0,0,0,0,0h12.4c.2,0,.4-.1.5-.3.2-.5.2-1.4.2-1.4,0-.3-.2-.5-.5-.5ZM135.4,75.5c0,6.5-9.6,16.7-19.4,16.7s-19.7-11-19.7-27.9,8.1-26.9,20.5-26.9,18.6,10.1,18.6,29.6v8.6ZM160.1,38s0,0,0,0c0,0,0,0,0,0h0Z"/>
  <path class="cls-1" d="M183.6,84.4v-.2s0,0,0,.2c0,0,0,0,0,0Z"/>
  <path class="cls-1" d="M175.3,84.4c0-.1,0-.2,0-.2v.2c0,0,0,0,0,0Z"/>
  <circle class="cls-1" cx="160.1" cy="18.6" r="6.8" transform="translate(33.7 118.7) rotate(-45)"/>
  <path class="cls-1" d="M300.9,91.9c0-.3-.2-.5-.5-.5h-3.9c-4,0-4.4-5.3-4.4-6.8h0s0,0,0,0v-.4s0,0,0,0V4.6c0-1.7-1.4-3.1-3.1-3.1h-13.5c-.3,0-.5.2-.5.5,0,0,0,.8.2,1.4,0,.2.3.3.5.3h5.1c1.7,0,3.1,1.4,3.1,3.1v77.4s0,0,0,0v.4s0,0,0,0h0c0,0,0,0,0,0h0c0,1.5-.4,6.8-4.4,6.8h-2.4c-2-.1-3.1-1.7-3.6-3.3-.4-1.5-.1-4.3.2-6.6l.9-5h0c0-.1,0-.5,0-.5,0-.3-.1-.5-.4-.6l-1.4-.3c-.2,0-.5,0-.6.3-.7,1.8-1.6,3.6-2.7,5.4-4.5,6.8-11.3,10.8-17.1,10.6-5.1,0-8.3-2.2-8.6-2.4-4.1-3.1-8.6-7.7-9.3-23.2-.1-2.9,0-5.6.1-7.9h37.8c1.9,0,3.4-1.8,3.1-3.7-2-10.4-12.2-18.4-23.2-18.6h0c0,0-.1,0-.2,0,0,0-.2,0-.3,0-2.5,0-4.8.4-7,1.1-11.6,3.6-20.2,15.2-20.2,29.1s12.4,27.8,27.6,27.8h35.5s0,0,0,0c0,0,0,0,0,0h12.4c.2,0,.4-.1.5-.3.2-.5.2-1.4.2-1.4ZM236.6,48.9c.5-1.2,3-7.1,9.5-10,1.7-.7,3.6-1.1,5.6-1.1,7.9,0,13.3,5.7,14.3,13.1.3,2-.7,3.6-2.6,3.6h-28.2c.4-2.2.9-4,1.5-5.7Z"/>
  <path class="cls-1" d="M73.9,76.2h0c0-.3,0-.5,0-.6,0,0,0,0,0,0,0,0,0,0,0,0-.2-.4-.6-.6-1.1-.6-.9.1-1.2.8-1.8,1.6-4.7,6.6-14.8,10.5-23.4,10.5s-4.4-.1-6.5-.4c-27.2-4.3-31.8-30.2-32.5-37.5-.2-2-.3-4-.3-6,0-27.4,17.5-34.5,26.3-34.5s8,1.7,11.8,5.3c3,2.8,3.8,4.9,5.7,4.7,2.1-.2,3.1-1.8,4.2-5.2l1.4-4.3c.4-1.3.6-2.6.6-3.6,0-4.1-2.6-5.4-9.4-5.4C11.1,0,0,28.7,0,49.3s17.2,45,42.2,45,30.8-15.5,31.6-18.1Z"/>
  <path class="cls-1" d="M92.8,91.4h-4c-4.4-.1-4.3-6.8-4.3-6.8h0s0-75.9,0-75.9v-4.1c0-1.7-1.4-3.1-3.1-3.1h-13.5c-.3,0-.5.2-.5.5,0,0,0,.8.2,1.4,0,.2.3.3.5.3h5.1c1.7,0,3.1,1.4,3.1,3.1v77.9h0c0-.1.1,6.6-4.3,6.7h-4c-.3,0-.5.2-.5.5,0,0,0,.8.2,1.4,0,.2.3.3.5.3h12.4s0,0,0,0c0,0,0,0,0,0h12.4c.2,0,.4-.1.5-.3.2-.5.2-1.4.2-1.4,0-.3-.2-.5-.5-.5Z"/>
</svg>