<svg xmlns="http://www.w3.org/2000/svg" width="247.7" height="22.825" viewBox="0 0 247.7 22.825">
  <path id="パス_145" data-name="パス 145" d="M-118.225,0h1.525V-16.95h5.75v-1.275h-13v1.275h5.725Zm12.975,0h1.5V-18.225h-1.5Zm9.05,0h1.425V-10.925c0-1.825-.125-3.525-.2-5.275h.125l2.05,3.65L-85.375,0h1.55V-18.225H-85.25v10.8c0,1.775.1,3.6.2,5.4h-.125L-87.2-5.7l-7.45-12.525H-96.2Zm23.8,0h1.525V-16.95h5.75v-1.275h-13v1.275H-72.4Zm20.775,0h5.4c4.1,0,6.8-1.8,6.8-5.325A4.222,4.222,0,0,0-43.3-9.7v-.125A3.925,3.925,0,0,0-40.525-13.8c0-3.075-2.4-4.425-6.075-4.425h-5.025Zm1.5-10.275V-17h3.2c3.225,0,4.9.9,4.9,3.375,0,2.075-1.45,3.35-5.05,3.35Zm0,9.025V-9.075h3.55c3.625,0,5.675,1.2,5.675,3.75,0,2.825-2.15,4.075-5.675,4.075ZM-33.325,0h1.5V-8.225H-28.1L-23.25,0h1.7l-4.925-8.35c2.775-.425,4.55-2.1,4.55-5,0-3.55-2.45-4.875-6.075-4.875h-5.325Zm1.5-9.475v-7.5h3.475c3.15,0,4.9.975,4.9,3.625,0,2.625-1.75,3.875-4.9,3.875Zm22.35,9.8c4.45,0,7.575-3.7,7.575-9.5,0-5.775-3.125-9.375-7.575-9.375-4.4,0-7.55,3.6-7.55,9.375C-17.025-3.375-13.875.325-9.475.325Zm0-1.35c-3.6,0-5.975-3.2-5.975-8.15S-13.075-17.2-9.475-17.2c3.625,0,6.025,3.075,6.025,8.025S-5.85-1.025-9.475-1.025ZM6.475,0h1.7L11.3-12.175c.325-1.45.7-2.7,1-4.125h.1c.325,1.425.65,2.675.95,4.125L16.575,0h1.7l4-18.225h-1.45L18.6-7.675c-.4,1.975-.775,3.95-1.15,5.95h-.125c-.475-2-.925-3.975-1.4-5.95l-2.8-10.55H11.65L8.875-7.675c-.475,1.975-.95,3.95-1.4,5.95h-.1c-.4-2-.8-3.975-1.225-5.95l-2.2-10.55H2.4Zm21.5,0H29.4V-10.925c0-1.825-.125-3.525-.2-5.275h.125l2.05,3.65L38.8,0h1.55V-18.225H38.925v10.8c0,1.775.1,3.6.2,5.4H39L36.975-5.7l-7.45-12.525h-1.55Zm33.25-11.4H55.75v1.1h12.4v-1.1H62.425v-4.575h6.5v-1.1h-6.5v-3.75h-1.2v3.75h-6.35v1.1h6.35ZM53.45-20.825H52.325V-9.3H53.45Zm-2.325,4.1a13.516,13.516,0,0,0-3.05-2.575l-.775.7a14.119,14.119,0,0,1,3.025,2.675Zm.425,2.5c-1.975.95-3.9,1.85-5.225,2.4l.45,1.075c1.5-.725,3.275-1.575,5-2.375ZM66.325-5.65a31.905,31.905,0,0,1-4.7,2.75,13.291,13.291,0,0,1-2.85-3.525h10.05V-7.45H58.3V-9.625H57.125V-7.45H46.7v1.025h9.275a26.621,26.621,0,0,1-9.6,4.075,5.452,5.452,0,0,1,.75.95A30.406,30.406,0,0,0,52.3-3.2V.15c-1.15.15-2.2.275-3.075.375l.25,1.1c2.7-.35,6.575-.9,10.275-1.425L59.725-.85c-2.15.275-4.325.575-6.275.85V-3.75a18.861,18.861,0,0,0,4.075-2.675H57.6a16.377,16.377,0,0,0,10.8,8.35,4.885,4.885,0,0,1,.775-1,17.23,17.23,0,0,1-6.825-3.2,32.389,32.389,0,0,0,4.925-2.7ZM85.65-7.175V-12h7.575v4.825Zm-8.025,0c.075-.95.1-1.9.1-2.775V-12H84.45v4.825ZM84.45-17.85v4.7H77.725v-4.7Zm8.775,4.7H85.65v-4.7h7.575Zm1.2-5.85h-17.9v9.05c0,3.525-.275,7.95-3.05,11.075a3.324,3.324,0,0,1,.925.85,14.711,14.711,0,0,0,3.125-8H84.45v7.65h1.2v-7.65h7.575v5.9c0,.5-.175.65-.65.65-.5.025-2.225.05-4.175,0A3.712,3.712,0,0,1,88.825,1.7,20,20,0,0,0,93.4,1.5c.725-.225,1.025-.625,1.025-1.625Zm13,1v6.225h-4.4V-18Zm-4.4,13.725V-10.65h4.4v6.375Zm5.55-14.85H101.85V-1.2h1.175V-3.15h5.55ZM111-5.55a18.515,18.515,0,0,1,3.325,4.5l1.025-.675a18.178,18.178,0,0,0-3.4-4.4Zm12.75-6.125V-12.8h-6.9v-3.75h5.65v-1.1h-5.65v-3.2h-1.175v3.2h-5.5v1.1h5.5v3.75H109v1.125h10.025v3.25h-9.85v1.1h9.85v7.5c0,.35-.1.475-.55.5-.4,0-1.825,0-3.55-.05a4.365,4.365,0,0,1,.425,1.15,20.386,20.386,0,0,0,3.975-.175c.65-.2.875-.6.875-1.425v-7.5h3.225v-1.1H120.2v-3.25Z" transform="translate(123.95 20.85)" fill="#504f4f"/>
</svg>