<?xml version="1.0" encoding="UTF-8"?>
<svg xmlns="http://www.w3.org/2000/svg" version="1.1" viewBox="0 0 15.3100004 4.8000002">
  <defs>
    <style>
      .cls-1, .cls-2 {
        fill: #5f5f5f;
      }

      .cls-2 {
        stroke: #5f5f5f;
        stroke-linecap: round;
        stroke-linejoin: round;
        stroke-width: .05px;
      }
    </style>
  </defs>
  <!-- Generator: Adobe Illustrator 28.6.0, SVG Export Plug-In . SVG Version: 1.2.0 Build 709)  -->
  <g>
    <g id="_レイヤー_2">
      <g id="lay">
        <g>
          <g>
            <path class="cls-2" d="M.17,4.5500002v-1.9099998c0-.0799999-.03-.1199999-.1-.2h.42c.58,0,.78.1800001.78.45,0,.3299999-.32.4300001-.65.47.4499999.05.86.1500001.86.6699998,0,.4400001-.23.7199998-.99.7199998H.06c.08-.0799999.1-.1199999.1-.1999998h.01ZM.42,3.3399999c.27,0,.6600001-.0999999.6600001-.45,0-.24-.16-.4000001-.67-.4000001h-.07v.8499999s.08,0,.08.0000002ZM.41,4.71c.69,0,.88-.3099999.88-.6700001,0-.49-.49-.6500001-.87-.6500001h-.08v1.3200002h.07Z"/>
            <path class="cls-2" d="M2.8699999,3.2v1.3500001c0,.0799999.03.1199999.0999999.1999998h-.28v-.54c-.0799999.2399998-.22.5700002-.5.5700002-.1800001,0-.34-.1399999-.34-.48v-1.0900002c0-.0799999-.03-.1199999-.1-.2h.3799999c-.0799999.0799999-.0999999.1199999-.0999999.2v.9299998c0,.2800002.02.5999999.22.5999999.21,0,.3700001-.3499999.45-.5900002v-.9300001c0-.0799999-.03-.1199999-.0999999-.2h.3800001c-.0799999.0799999-.0999999.1199999-.0999999.2l-.0100002-.0199995Z"/>
            <path class="cls-2" d="M3.27,4.77v-2.1300001c0-.1099999-.03-.1400001-.0699999-.1400001-.03,0-.0699999.03-.0999999.05v-.03c.0799999-.0799999.2-.1900001.27-.1900001.05,0,.0699999.05.0699999.2v1.0599999c.0599999-.27.1600001-.5999999.4400001-.5999999.3499999,0,.46.5.46.9000001s-.0599999.9000001-.49.9000001c-.24,0-.3499999-.1500001-.4200001-.27l-.1400001.27h-.03l.01-.02ZM3.45,4.4400001c.0699999.1199999.1900001.29.3499999.29.2900002,0,.3799999-.5300002.3799999-.8499999s-.1199999-.8399999-.3499999-.8399999c-.21,0-.3099999.4300001-.3699999.72v.6900001l-.01-.0100002Z"/>
            <path class="cls-2" d="M4.6799998,4.77v-2.1300001c0-.1099999-.0300002-.1400001-.0700002-.1400001-.0300002,0-.0700002.03-.0999999.05v-.03c.0799999-.0799999.1999998-.1900001.27-.1900001.0500002,0,.0700002.05.0700002.2v1.0599999c.0599999-.27.1599998-.5999999.4400001-.5999999.3499999,0,.46.5.46.9000001s-.0599999.9000001-.4899998.9000001c-.2399998,0-.3499999-.1500001-.4200001-.27l-.1399999.27h-.0300002l.0099998-.02ZM4.8600001,4.4400001c.0700002.1199999.1900001.29.3499999.29.29,0,.3800001-.5300002.3800001-.8499999s-.1199999-.8399999-.3499999-.8399999c-.21,0-.3099999.4300001-.3699999.72v.6900001l-.0100002-.0100002Z"/>
            <path class="cls-2" d="M6.1300001,4.5500002v-1.9099998c0-.1099999-.0300002-.1400001-.0700002-.1400001-.0300002,0-.0700002.03-.0999999.05v-.03c.0799999-.0799999.1999998-.1900001.27-.1900001.0599999,0,.0700002.05.0700002.2v2.0300002c0,.0799999.0300002.1199999.0999999.1999998h-.3800001c.0799999-.0799999.0999999-.1199999.0999999-.1999998l.0100002-.0100002Z"/>
            <path class="cls-2" d="M7.8600001,3.5999999c.3099999.0699999.5400004.24.5400004.5500002,0,.3499999-.3000002.6300001-.7799997.6300001-.54,0-.9700003-.3400002-.9700003-.9000001s.4200001-.9000001.9200001-.9000001c.4000001,0,.6899996.23.8100004.6199999h-.5299997.0099988ZM6.8699999,3.5999999c-.02.0899999-.04.1800001-.04.28,0,.53.3499999.8500001.8200002.8500001.3799996,0,.7099996-.2199998.7099996-.5799999,0-.3299999-.29-.5-.6399999-.55h-.8600001l.0100002-.0000002ZM8.1999998,3.5599999c-.1000004-.3399999-.3299999-.54-.6199999-.54-.3099999,0-.5900002.2-.6900001.54h1.3200002-.0100002Z"/>
            <path class="cls-2" d="M9.8800001,4.5500002v-1.9099998c0-.0799999-.0299997-.1199999-.1000004-.2h.4200001c.5799999,0,.7799997.1800001.7799997.45,0,.3299999-.3199997.4300001-.6499996.47.4499998.05.8599997.1500001.8599997.6699998,0,.4400001-.2299995.7199998-.9899998.7199998h-.4200001c.0799999-.0799999.1000004-.1199999.1000004-.1999998ZM10.1400003,3.3399999c.2700005,0,.6599998-.0999999.6599998-.45,0-.24-.1599998-.4000001-.6700001-.4000001h-.0699997v.8499999s.0799999,0,.0799999.0000002ZM10.1300001,4.71c.6899996,0,.8800001-.3099999.8800001-.6700001,0-.49-.4899998-.6500001-.8699999-.6500001h-.0799999v1.3200002h.0699997Z"/>
            <path class="cls-2" d="M11.5699997,4.5500002v-1.9099998c0-.1099999-.0299997-.1400001-.0699997-.1400001-.0299997,0-.0699997.03-.1000004.05v-.03c.0799999-.0799999.1999998-.1900001.2700005-.1900001.0600004,0,.0699997.05.0699997.2v2.0300002c0,.0799999.0299997.1199999.1000004.1999998h-.3800001c.0799999-.0799999.1000004-.1199999.1000004-.1999998l.0099993-.0100002Z"/>
            <path class="cls-2" d="M13.1800003,3.2v1.3500001c0,.0799999.0299997.1199999.1000004.1999998h-.2799997v-.54c-.0799999.2399998-.2200003.5700002-.5.5700002-.1800003,0-.3400002-.1399999-.3400002-.48v-1.0900002c0-.0799999-.0299997-.1199999-.1000004-.2h.3800001c-.0799999.0799999-.1000004.1199999-.1000004.2v.9299998c0,.2800002.0200005.5999999.2200003.5999999.21,0,.3699999-.3499999.4499998-.5900002v-.9300001c0-.0799999-.0299997-.1199999-.1000004-.2h.3800001c-.0799999.0799999-.1000004.1199999-.1000004.2l-.0099993-.0199995Z"/>
            <path class="cls-2" d="M14.7399998,3.5999999c.3100004.0699999.54.24.54.5500002,0,.3499999-.3000002.6300001-.7799997.6300001-.54,0-.9700003-.3400002-.9700003-.9000001s.4200001-.9000001.9200001-.9000001c.3999996,0,.6899996.23.8100004.6199999h-.5299997.0099993ZM13.75,3.5999999c-.0200005.0899999-.04.1800001-.04.28,0,.53.3500004.8500001.8199997.8500001.3800001,0,.71-.2199998.71-.5799999,0-.3299999-.29-.5-.6400003-.55h-.8599997l.0100002-.0000002ZM15.0799999,3.5599999c-.1000004-.3399999-.3299999-.54-.6199999-.54-.3100004,0-.5900002.2-.6899996.54h1.3199997-.0100002Z"/>
          </g>
          <g>
            <path class="cls-1" d="M.55.43s0,.01-.01.03c-.02.03-.02.05-.04.14-.05.21-.13.39-.23.53-.04.0599999-.08.09-.09.09h-.02c-.05-.03-.09-.04-.15-.0599999.14-.12.24-.31.3-.54.02-.08.03-.15.03-.22v-.03c.13.01.22.04.22.07l-.01-.0100001ZM1.11,1.1799999c-.08-.27-.19-.53-.31-.71q-.02-.03-.02-.04c0-.01.01-.02.06-.05.04-.03.07-.04.08-.04q.02,0,.08.09c.0700001.1.13.24.21.43.05.13.08.23.08.25s0,.02-.04.04-.1.04-.11.04-.02,0-.03-.02v.01ZM1.1.43c-.03-.06-.0599999-.1-.11-.15v-.01s0-.02.04-.04c.02-.02.03-.02.04-.02s.03.01.0599999.05c.05.05.08.1.08.11,0,.02-.0700001.07-.09.07l-.01-.01h-.0099999ZM1.3099999.32s-.03.02-.04.02l-.01-.01c-.04-.07-.0599999-.1-.11-.15v-.01c0-.01.0599999-.06.08-.06.01,0,.03.02.0599999.05.04.05.08.1.08.11s-.01.02-.04.04l-.0200001.01Z"/>
            <path class="cls-1" d="M2.0899999.44c-.27,0-.46.01-.51.02h0c-.03,0-.04-.05-.04-.2.0700001.01.17.02.39.02h.4699999c.03,0,.04,0,.0599999-.02h.02c.03,0,.0599999.02.1099999.08q.03.04.03.06c0,.01,0,.02-.01.03-.01.02-.02.02-.05.13-.0799999.26-.25.5-.48.6800001-.09.0700001-.17.12-.2.12q-.02,0-.05-.04c-.04-.04-.0700001-.0599999-.11-.09.22-.11.34-.2.4599999-.35.0999999-.13.1700001-.27.2-.44-.0799999,0-.1766665,0-.2899997,0ZM2.74.28s-.05.04-.0599999.04c-.0066667,0-.02-.0133334-.04-.04-.03-.04-.0599999-.09-.0899999-.12v-.01c0-.01.0599999-.05.0699999-.05s.03.02.0799999.07c.04.05.0699999.09.0699999.1s0,.02-.02.03l-.01-.02ZM2.8.21c-.04-.06-.0699999-.1-.1099999-.14v-.01s0-.02.03-.03c.02-.02.03-.02.04-.02.02,0,.0599999.04.1099999.1.02.03.03.05.03.06,0,0,0,.02-.02.03-.02.02-.05.03-.05.03,0,0-.01,0-.02-.02h-.01Z"/>
            <path class="cls-1" d="M3.3199999.26s.02.01.02.03v.02c0,.03-.01.06-.01.12,0,.37-.0699999.6-.23.8-.04.04-.05.0599999-.0599999.0599999h-.03c-.04-.03-.0799999-.04-.1500001-.05.0999999-.1.1400001-.16.1900001-.26.0599999-.14.0899999-.28.0899999-.5,0-.1,0-.14-.01-.22.0799999,0,.1500001.01.1900001.02v-.02ZM3.48.41c0-.07,0-.13-.01-.2.1600001,0,.22.02.22.05v.09c-.0000002.02-.0000002.2533333,0,.7.1900001-.11.3200002-.21.4400001-.37,0,.08,0,.14.02.18v.03c0,.02-.0100002.04-.0799999.11-.1099999.1-.1900001.15-.3299999.23-.03.02-.05.03-.0699999.05-.01,0-.02.01-.04.01s-.0699999-.04-.1099999-.0700001c-.03-.03-.04-.05-.04-.0700001v-.03c.01-.03.01-.0599999.01-.14V.41h-.0100005Z"/>
            <path class="cls-1" d="M4.7800002.44c-.27,0-.46.01-.5099998.02h0c-.0300002,0-.04-.05-.04-.2.0700002.01.1700001.02.3899999.02h.4699998c.0300002,0,.04,0,.0599999-.02h.02c.0300002,0,.0599999.02.1100001.08q.0300002.04.0300002.06c0,.01,0,.02-.0100002.03-.0100002.02-.02.02-.0500002.13-.0799999.26-.25.5-.48.6800001-.0900002.0700001-.1700001.12-.1999998.12q-.02,0-.0500002-.04c-.04-.04-.0700002-.0599999-.1100001-.09.2199998-.11.3400002-.2.46-.35.0999999-.13.1700001-.27.1999998-.44-.0799999,0-.1766667,0-.2899995,0ZM5.4200001.28s-.0500002.04-.0599999.04c-.0066662,0-.02-.0133334-.04-.04-.0300002-.04-.0599999-.09-.0900002-.12v-.01c0-.01.0599999-.05.0700002-.05s.0300002.02.0799999.07c.04.05.0700002.09.0700002.1s0,.02-.02.03l-.0100002-.02ZM5.4899998.21c-.04-.06-.0700002-.1-.1100001-.14v-.01s0-.02.0300002-.03c.02-.02.0300002-.02.04-.02.02,0,.0599999.04.1100001.1.02.03.0300002.05.0300002.06,0,0,0,.02-.02.03-.02.02-.0500002.03-.0500002.03,0,0-.0100002,0-.02-.02h-.0100002Z"/>
            <path class="cls-1" d="M6,.26s.02.01.02.03v.02c0,.03-.0100002.06-.0100002.12,0,.37-.0700002.6-.23.8-.04.04-.0500002.0599999-.0599999.0599999h-.0300002c-.04-.03-.0799999-.04-.1500001-.05.0999999-.1.1399999-.16.1900001-.26.0599999-.14.0900002-.28.0900002-.5,0-.1,0-.14-.0100002-.22.0799999,0,.1500001.01.1900001.02l.0000005-.02ZM6.1700001.41c0-.07,0-.13-.0100002-.2.1599998,0,.2199998.02.2199998.05v.79c.1900001-.11.3200002-.21.4400001-.37,0,.08,0,.14.02.18v.03c0,.02-.0100002.04-.0799999.11-.1100001.1-.1900001.15-.3299999.23-.0300002.02-.0500002.03-.0700002.05-.0100002,0-.02.01-.04.01s-.0700002-.04-.1100001-.0700001c-.0300002-.03-.04-.05-.04-.0700001v-.03c.0100002-.03.0100002-.0599999.0100002-.14V.41h-.0099998Z"/>
            <path class="cls-1" d="M7.6700001.65c.27,0,.4300003,0,.5799999-.01h.0200005s.04,0,.04.12c0,.06,0,.07-.0299997.07h-1.1100001c-.02,0-.0300002,0-.0300002-.02,0-.04-.0100002-.11-.0100002-.18.1199999.01.23.02.54.02Z"/>
          </g>
        </g>
      </g>
    </g>
  </g>
</svg>