<?xml version="1.0" encoding="UTF-8"?>
<svg xmlns="http://www.w3.org/2000/svg" version="1.1" viewBox="0 0 15.5900002 4.71">
  <defs>
    <style>
      .cls-1, .cls-2 {
        fill: #5f5f5f;
      }

      .cls-2 {
        stroke: #5f5f5f;
        stroke-linecap: round;
        stroke-linejoin: round;
        stroke-width: .05px;
      }
    </style>
  </defs>
  <!-- Generator: Adobe Illustrator 28.6.0, SVG Export Plug-In . SVG Version: 1.2.0 Build 709)  -->
  <g>
    <g id="_レイヤー_2">
      <g id="lay">
        <g>
          <g>
            <path class="cls-2" d="M1.26,2.5999999l.04.51h-.03c-.1-.3099999-.24-.73-.57-.73-.22,0-.38.2-.38.4200001,0,.6200001,1.0299999.6900001,1.0299999,1.3599999,0,.3499999-.23.52-.61.52-.45,0-.55-.21-.61-.2599998l-.09-.54h.04c.14.3099999.34.75.7.75.24,0,.39-.1999998.39-.4400001,0-.5999999-1.03-.6700001-1.03-1.3600001,0-.3299999.23-.51.56-.51.3800001,0,.4999999.21.56.26v.02Z"/>
            <path class="cls-2" d="M2.55,4.6599998v-.3800001c-.0699999.1799998-.2.4000001-.47.4000001-.3199999,0-.4300001-.2800002-.4300001-.5599999,0-.2.0599999-.6399999.47-.6399999.25,0,.3600001.1400001.4300001.27v-.25c0-.1800001,0-.5699999-.25-.5699999-.1900001,0-.37.23-.51.48h-.04l.1-.3900001c.0700001-.04.1899999-.1400001.41-.1400001.3099999,0,.46.2.46.54v1.03c0,.0799999.03.1199999.0999999.1999998h-.28l.01.0100002ZM2.55,3.8199999c-.0699999-.1400001-.1900001-.3-.3499999-.3-.27,0-.37.4300001-.37.6500001,0,.2200003.12.4899998.3100001.4899998s.3499999-.2800002.4100001-.46v-.3699999l-.0000002-.01Z"/>
            <path class="cls-2" d="M3.9400001,3.1099999l-.28.4400001.49.9100001c.04.0700002.0999999.1199999.1700001.1999998h-.4100001c.0799999-.0799999.0699999-.1300001.03-.1999998l-.4100001-.74-.22.3500001v.3899999c0,.0799999.03.1199999.0999999.1999998h-.3800001c.0799999-.0799999.0999999-.1199999.0999999-.1999998v-1.9099998c0-.1099999-.03-.1400001-.0699999-.1400001-.03,0-.0699999.03-.0999999.05v-.03c.0799999-.0799999.2-.1900001.27-.1900001.0599999,0,.0699999.05.0699999.2v1.5599999l.5599999-.8800001c.04-.0599999.04-.1199999,0-.2h.2600002c-.1100001.0799999-.1700001.1400001-.21.2l.0300002-.01Z"/>
            <path class="cls-2" d="M5.4899998,3.1099999v1.3500001c0,.0799999.0300002.1199999.0999999.1999998h-.2800002v-.54c-.0799999.2399998-.2199998.5700002-.5.5700002-.1799998,0-.3400002-.1399999-.3400002-.48v-1.0900002c0-.0799999-.0300002-.1199999-.0999999-.2h.3800001c-.0799999.0799999-.0999999.1199999-.0999999.2v.9299998c0,.2800002.02.5999999.2199998.5999999.21,0,.3699999-.3499999.4499998-.5900002v-.9300001c0-.0799999-.0300002-.1199999-.0999999-.2h.3800001c-.0799999.0799999-.0999999.1199999-.0999999.2l-.0099998-.0199995Z"/>
            <path class="cls-2" d="M6.8400002,3.0899999l.04.52h-.04c-.0700002-.3799999-.1799998-.6700001-.3200002-.6700001-.1599998,0-.29.4200001-.3600001.73v.7900002c0,.0799999.0300002.1199999.0999999.1999998h-.3800001c.0799999-.0799999.0999999-.1199999.0999999-.1999998v-1.25c0-.1099999-.0300002-.1400001-.0700002-.1400001-.0300002,0-.0700002.03-.0999999.05v-.03c.0799999-.0799999.1999998-.1900001.27-.1900001.0500002,0,.0700002.05.0700002.2v.4200001c.0700002-.3099999.1900001-.6300001.3800001-.6300001.1199999,0,.25.1300001.29.2h.0200005Z"/>
            <path class="cls-2" d="M7.9400001,4.6599998v-.3800001c-.0700002.1799998-.1999998.4000001-.4699998.4000001-.3200002,0-.4299998-.2800002-.4299998-.5599999,0-.2.0599999-.6399999.4699998-.6399999.25,0,.3600001.1400001.4299998.27v-.25c0-.1800001,0-.5699999-.25-.5699999-.1900001,0-.3699999.23-.5099998.48h-.04l.0999999-.3900001c.0700002-.04.1900001-.1400001.4099998-.1400001.3099999,0,.4599996.2.4599996.54v1.03c0,.0799999.0299997.1199999.1000004.1999998h-.2800002l.0100002.0100002ZM7.9400001,3.8199999c-.0700002-.1400001-.1900001-.3-.3499999-.3-.27,0-.3699999.4300001-.3699999.6500001,0,.2200003.1199999.4899998.3099999.4899998s.3499999-.2800002.4099998-.46v-.3799999Z"/>
            <path class="cls-2" d="M9.6099997,4.4699998v-1.9099998c0-.0799999-.0299997-.1199999-.1000004-.2h.3999996c.3900003,0,.7799997.1099999.7799997.5699999s-.3800001.5699999-.7799997.5699999h-.1099997v.8700001c0,.1500001.1000004.2199998.1700001.3000002h-.46c.0799999-.0799999.1000004-.1199999.1000004-.2000003ZM9.8999996,3.45c.3299999,0,.6000004-.0999999.6000004-.52s-.2700005-.53-.6000004-.53h-.1099997v1.05h.1099997Z"/>
            <path class="cls-2" d="M11.9799995,3.51c.3100004.0699999.54.24.54.55,0,.3499999-.3000002.6300001-.7799997.6300001-.54,0-.9700003-.3400002-.9700003-.9000001s.4200001-.9000001.9200001-.9000001c.3999996,0,.6899996.23.8100004.6199999h-.5299997l.0099993.0000002ZM11,3.51c-.0200005.0899999-.04.1800001-.04.28,0,.5299997.3500004.8499999.8199997.8499999.3800001,0,.71-.2199998.71-.5799999,0-.3299999-.29-.5-.6400003-.55h-.8599997.0100002ZM12.3199997,3.47c-.1000004-.3399999-.3299999-.54-.6199999-.54-.3100004,0-.5900002.2-.6899996.54h1.3199997-.0100002Z"/>
            <path class="cls-2" d="M13.0600004,2.49h.04v.4200001h.2399998v.04h-.2399998v.96c.5600004.0799999.6599998.7700002.1700001.7700002-.0799999,0-.3500004-.02-.3500004-.4000001v-1.3299999h-.1700001v-.04c.1800003,0,.3100004-.29.3100004-.4200003ZM13.1000004,4.2199998c0,.3699999.1099997.4200001.21.4200001.3599997,0,.3199997-.6199999-.21-.71v.29Z"/>
            <path class="cls-2" d="M14.6999998,4.6599998v-.3800001c-.0699997.1799998-.1999998.4000001-.4700003.4000001-.3199997,0-.4300003-.2800002-.4300003-.5599999,0-.2.0600004-.6399999.4700003-.6399999.25,0,.3599997.1400001.4300003.27v-.25c0-.1800001,0-.5699999-.25-.5699999-.1899996,0-.3699999.23-.5100002.48h-.04l.1000004-.3900001c.0699997-.04.1899996-.1400001.4099998-.1400001.3100004,0,.46.2.46.54v1.03c0,.0799999.0299997.1199999.1000004.1999998h-.2799997l.0099993.0100002ZM14.6999998,3.8199999c-.0699997-.1400001-.1899996-.3-.3500004-.3-.2700005,0-.3699999.4300001-.3699999.6500001,0,.2200003.1199999.4899998.3100004.4899998s.3500004-.2800002.4099998-.46v-.3799999Z"/>
            <path class="cls-2" d="M15.29,4.4699998v-1.9099998c0-.1099999-.0299997-.1400001-.0699997-.1400001-.0299997,0-.0699997.03-.1000004.05v-.03c.0799999-.0799999.1999998-.1900001.2700005-.1900001.0600004,0,.0699997.05.0699997.2v2.0299997c0,.0799999.0299997.1199999.1000004.1999998h-.3800001c.0799999-.0799999.1000004-.1199999.1000004-.1999998l.0099993-.0099998Z"/>
          </g>
          <g>
            <path class="cls-1" d="M.3.37C.3.2.3.12.28.07c.07,0,.12,0,.16.01.05,0,.05.01.05.03v.02c-.01.03-.01.05-.02.24h.33c0-.17,0-.24-.02-.31.08,0,.13,0,.17.02.03,0,.04.01.04.03,0,0,0,.01-.01.04,0,.01,0,.06-.01.1v.12h.2799999v.09c0,.07,0,.08-.02.08h-.27c0,.23-.04.35-.11.47-.06.1-.15.1800001-.26.24-.04.02-.09.04-.11.04q-.01,0-.05-.03c-.03-.04-.05-.05-.1-.08.22-.08.33-.17.4-.31.04-.09.06-.18.07-.33h-.34c0,.0733333,0,.1533334,0,.24v.02s0,.03-.02.04h-.1c-.05,0-.06,0-.06-.03v-.27c-.08,0-.21,0-.25.01H.03c-.01,0-.02,0-.02-.02C.01.5000001,0,.43-.01.36c.08,0,.12.01.24.01h.0700001Z"/>
            <path class="cls-1" d="M2,.39c-.1.14-.28.3-.3199999.3-.01,0-.02,0-.05-.03-.02-.02-.0599999-.05-.11-.07.11-.06.22-.15.3000001-.25.09-.1.14-.19.1900001-.32.0699999.02.1099999.04.1600001.07.02.01.03.02.03.03s0,.02-.02.03c-.01.01-.03.03-.0699999.08h.22c.0799999,0,.0999999,0,.1400001-.02h.02c.02,0,.05.02.0899999.08.03.04.04.05.04.07s0,.02-.03.04c-.01.01-.03.04-.05.07-.1600001.29-.3199999.48-.5599999.66-.1.08-.24.16-.27.16-.01,0-.02,0-.04-.02-.03-.03-.0700001-.0599999-.12-.09.22-.1.37-.21.5200001-.36.1099999-.11.1800001-.21.25-.33.01-.03.02-.04.05-.09h-.38l.0099994-.0099999Z"/>
            <path class="cls-1" d="M2.97.61h-.01c-.03,0-.05-.05-.0599999-.21.0699999.01.1800001.02.46.02h.4100001c.02,0,.03,0,.0599999-.01h.03c.02,0,.04.01.0599999.04.04.05.0699999.09.0699999.11s0,.03-.03.05c-.01.01-.02.02-.05.09-.0999999.22-.21.36-.3900001.47-.0799999.05-.21.11-.24.11-.02,0-.03,0-.0599999-.04-.04-.05-.0599999-.0599999-.0999999-.08.1700001-.05.3299999-.14.4400001-.24.0799999-.08.1500001-.19.1900001-.32-.5699999,0-.6700001.01-.78.03l-.0000002-.02ZM3.46.08c.1066668,0,.2166669-.0033333.3299999-.01h.02s.03.02.03.06v.05h0c0,.06,0,.07-.03.07h-.22c-.22,0-.3900001,0-.47.01h-.01s-.04-.02-.05-.19c.0999999.01.1900001.02.4100001.02l-.01-.01Z"/>
            <path class="cls-1" d="M4.4499998.46c.0700002-.09.0900002-.1.1199999-.12.0300002-.02.0599999-.03.0900002-.03.04,0,.0700002,0,.0999999.03.0199995.02.0599999.0566667.1199999.11.0999999.1.23.22.3400002.31.0700002.06.1199999.09.2199998.15.02,0,.02.01.02.03s-.0100002.04-.04.09c-.04.0599999-.0500002.08-.0700002.08h-.02c-.1900001-.13-.3699999-.29-.5700002-.51q-.0799999-.08-.1100001-.08c-.02,0-.0300002,0-.04.02-.0100002.02-.1100001.14-.1599998.2q-.04.05-.0700002.09c-.02.02-.0300002.03-.04.04-.0100002.02-.02.02-.0300002.02-.02,0-.0500002-.02-.0799999-.06-.02-.03-.04-.04-.0700002-.1.0700002-.04.1300001-.1.2800002-.28l.0100007.01ZM5.3299999.31c0,.09-.0700002.16-.1599998.16-.0900002,0-.1599998-.07-.1599998-.16s.0700002-.16.1599998-.16.1599998.07.1599998.16ZM5.0900002.31s.04.08.0799999.08.0799999-.04.0799999-.08-.04-.08-.0799999-.08-.0799999.04-.0799999.08Z"/>
            <path class="cls-1" d="M5.8299999.63s-.0700002.05-.0799999.05q-.0100002,0-.04-.03c-.0300002-.03-.0700002-.05-.1100001-.08.1599998-.1.2599998-.18.3499999-.31C6.0099998.17,6.0599999.08,6.0799999,0c.1599998.06.1999998.08.1999998.1,0,0,0,.01-.02.02-.0100002.01-.0300002.04-.0700002.1h.1300001c.1500001,0,.1799998,0,.23-.02h.0300002c.02,0,.04.02.0900002.07.04.04.0500002.06.0500002.08,0,.01,0,.02-.02.04-.0100002.01-.0300002.04-.0500002.08-.1399999.26-.25.4-.4200001.55-.1300001.12-.3499999.26-.3899999.26-.0100002,0-.0300002,0-.04-.02-.04-.04-.0799999-.0700001-.1300001-.09.21-.1.3699999-.21.5100002-.36.0933337-.1.0800004-.1166667-.04-.05-.1800003.1-.0700002-.06-.1399999-.12,0,0-.0100002-.01-.0100002-.02,0,0,.02-.03.0700002-.08q.0300002-.03.04-.03c.02,0,.1100001.07.1999998.16.0900002-.12.1599998-.23.1900001-.32-.1133332,0-.2433329,0-.3899999,0-.0700002.09-.1599998.18-.2600002.26l-.0100002.0199999Z"/>
            <path class="cls-1" d="M7.25.17s.02.01.02.03v.02c0,.03-.0100002.06-.0100002.12,0,.37-.0700002.6000001-.23.8-.04.04-.0500002.0599999-.0599999.0599999h-.0300002c-.04-.03-.0799999-.04-.1500001-.05.0999999-.1.1399999-.16.1900001-.26.0599999-.14.0900002-.28.0900002-.5,0-.1,0-.14-.0100002-.22.0799999,0,.1500001.01.1900001.02l.0000005-.02ZM7.4200001.32c0-.07,0-.13-.0100002-.2.1599998,0,.2199998.02.2199998.05v.79c.1900001-.11.3200002-.21.4400001-.37,0,.08,0,.14.0200005.18v.03c0,.02-.0100002.04-.0799999.11-.1100001.1-.1900001.15-.3299999.23-.0300002.02-.0500002.03-.0700002.05-.0100002,0-.02.01-.04.01s-.0700002-.04-.1100001-.0700001c-.0300002-.03-.04-.05-.04-.0700001v-.03c.0100002-.03.0100002-.06.0100002-.14V.32h-.0100002Z"/>
          </g>
        </g>
      </g>
    </g>
  </g>
</svg>