<?xml version="1.0" encoding="UTF-8"?>
<svg id="_レイヤー_2" data-name="レイヤー 2" xmlns="http://www.w3.org/2000/svg" viewBox="0 0 4.3 4.3">
  <defs>
    <style>
      .cls-1 {
        fill: #c87290;
        stroke-width: 0px;
      }
    </style>
  </defs>
  <g id="hedder">
    <g id="Instagram">
      <path class="cls-1" d="m2.15.39c.57,0,.64,0,.87.01.21,0,.32.04.4.07.1.04.17.09.25.16s.12.15.16.25c.03.08.06.19.07.4.01.23.01.29.01.87s0,.64-.01.87c0,.21-.04.32-.07.4-.04.1-.09.17-.16.25s-.15.12-.25.16c-.08.03-.19.06-.4.07-.23.01-.29.01-.87.01s-.64,0-.87-.01c-.21,0-.32-.04-.4-.07-.1-.04-.17-.09-.25-.16-.08-.08-.12-.15-.16-.25-.03-.08-.06-.19-.07-.4-.01-.23-.01-.29-.01-.87s0-.64.01-.87c0-.21.04-.32.07-.4.04-.1.09-.17.16-.25s.15-.12.25-.16c.08-.03.19-.06.4-.07.23-.01.29-.01.87-.01m0-.39c-.58,0-.66,0-.89.01-.23.01-.39.05-.52.1-.14.05-.26.13-.38.25-.12.12-.19.24-.25.38-.05.14-.09.29-.1.52-.01.23-.01.3-.01.89s0,.66.01.89c.01.23.05.39.1.52.05.14.13.26.25.38.12.12.24.19.38.25.14.05.29.09.52.1.23.01.3.01.89.01s.66,0,.89-.01c.23-.01.39-.05.52-.1.14-.05.26-.13.38-.25.12-.12.19-.24.25-.38.05-.14.09-.29.1-.52.01-.23.01-.3.01-.89s0-.66-.01-.89c-.01-.23-.05-.39-.1-.52-.05-.14-.13-.26-.25-.38-.12-.12-.24-.19-.38-.25-.14-.05-.29-.09-.52-.1-.23-.01-.3-.01-.89-.01h0Z"/>
      <path class="cls-1" d="m2.15,1.05c-.61,0-1.1.49-1.1,1.1s.49,1.1,1.1,1.1,1.1-.49,1.1-1.1-.49-1.1-1.1-1.1Zm0,1.82c-.4,0-.72-.32-.72-.72s.32-.72.72-.72.72.32.72.72-.32.72-.72.72Z"/>
      <circle class="cls-1" cx="3.3" cy="1" r=".26"/>
    </g>
  </g>
</svg>