<?xml version="1.0" encoding="UTF-8"?>
<svg id="_レイヤー_2" data-name="レイヤー 2" xmlns="http://www.w3.org/2000/svg" viewBox="0 0 4.73 4.44">
  <defs>
    <style>
      .cls-1 {
        fill: #fff;
        stroke-width: 0px;
      }
    </style>
  </defs>
  <g id="MV">
    <g>
      <path class="cls-1" d="m3.3,4.04c0,.22.18.4.4.4s.4-.18.4-.4c0-.22-.18-.4-.4-.4s-.4.18-.4.4Zm.23,0c0-.09.07-.17.17-.17s.17.07.17.17c0,.09-.07.17-.17.17s-.17-.07-.17-.17Z"/>
      <path class="cls-1" d="m1.61,4.04c0,.22.18.4.4.4s.4-.18.4-.4c0-.22-.18-.4-.4-.4s-.4.18-.4.4Zm.23,0c0-.09.07-.17.17-.17s.17.07.17.17c0,.09-.07.17-.17.17s-.17-.07-.17-.17Z"/>
      <path class="cls-1" d="m.09.23l.78.15.11.52s0,0,0,0l.53,2.53c.01.05.06.09.11.09h2.41c.06,0,.12-.05.12-.12s-.05-.12-.12-.12H1.73l-.08-.36h2.53c.05,0,.1-.04.11-.09l.43-1.94s0-.07-.02-.1c-.02-.03-.06-.04-.09-.04H1.2s-.11-.51-.11-.51c0-.05-.05-.08-.09-.09L.14,0C.08-.01.01.03,0,.09c-.01.06.03.12.09.14Zm1.51,2.47l-.36-1.7h3.22s-.38,1.7-.38,1.7H1.6Z"/>
    </g>
  </g>
</svg>