<?xml version="1.0" encoding="UTF-8"?>
<svg id="_レイヤー_2" data-name="レイヤー 2" xmlns="http://www.w3.org/2000/svg" viewBox="0 0 17.84 1.87">
  <defs>
    <style>
      .cls-1 {
        fill: #c87290;
        stroke-width: 0px;
      }
    </style>
  </defs>
  <g id="Lineup">
    <g>
      <path class="cls-1" d="m1.61,1.37V.18l-.75,1.69h-.06L.06.18v1.69h-.06V0h.26l.69,1.55.68-1.55h.26v1.87h-.27v-.5Z"/>
      <path class="cls-1" d="m2.69.25c.19-.17.36-.25.63-.25s.45.08.64.25c.19.17.28.39.28.68s-.09.51-.27.68c-.18.17-.36.26-.65.26s-.46-.09-.64-.26c-.18-.17-.27-.4-.27-.69s.09-.5.28-.67Zm.2,1.33c.12.15.23.22.46.22.21,0,.33-.07.45-.22.12-.15.15-.36.15-.65s-.03-.5-.14-.64c-.12-.15-.25-.22-.48-.22s-.32.07-.44.22c-.11.14-.17.36-.17.65s.06.51.17.65Z"/>
      <path class="cls-1" d="m5.05,0c.18,0,.32.01.43.04.11.03.2.08.27.15.07.08.1.16.1.27,0,.12-.04.23-.13.31-.09.09-.22.15-.39.18.08.04.2.09.37.32,0,0,.14.19.31.6h-.21c-.02-.09-.3-.89-.8-.89h-.08v.89h-.26V0h.41Zm.08.92c.07,0,.13-.03.19-.04.05-.02.1-.05.13-.08.03-.03.06-.07.08-.12.02-.05.03-.11.03-.18,0-.13-.03-.23-.1-.31-.07-.08-.21-.1-.43-.1h-.12v.84h.22Z"/>
      <path class="cls-1" d="m6.92,1.8h.57v.06h-1.08V0h1.09v.06h-.82v.79h.54v.07h-.54v.88h.24Z"/>
      <path class="cls-1" d="m8.85,0h.51c.27,0,.49.04.64.13.15.08.27.19.34.34.08.14.11.31.11.5,0,.13-.02.26-.06.37-.04.11-.1.21-.17.28-.07.08-.15.13-.25.17-.09.04-.18.06-.27.07-.08.01-.2.02-.36.02h-.51V0Zm.55,1.81c.16,0,.29-.02.4-.07s.19-.13.26-.26c.07-.13.11-.3.11-.5,0-.16-.02-.3-.06-.42-.04-.12-.1-.22-.17-.3-.08-.08-.16-.13-.25-.16-.09-.03-.21-.04-.35-.04-.07,0-.15,0-.21,0v1.73h.29Z"/>
      <path class="cls-1" d="m11.32,1.8h.57v.06h-1.08V0h1.09v.06h-.82v.79h.54v.07h-.54v.88h.24Z"/>
      <path class="cls-1" d="m14,.06h-.78v1.81h-.27V.06h-.77v-.06h1.82v.06Z"/>
      <path class="cls-1" d="m14.85,1.18h-.69l-.26.68h-.1l.77-1.87h.05l.79,1.87h-.29c-.1-.24-.14-.34-.14-.34l-.14-.34Zm-.02-.06l-.33-.78-.32.78h.65Z"/>
      <path class="cls-1" d="m16.04,0v1.87h-.27V0h.27Z"/>
      <path class="cls-1" d="m17.84,1.81v.06h-1.3V0h.27v1.81h1.03Z"/>
    </g>
  </g>
</svg>