<?xml version="1.0" encoding="UTF-8"?><svg id="_イヤー_2" xmlns="http://www.w3.org/2000/svg" viewBox="0 0 132.75 25.2"><defs><style>.cls-1{fill:#a3a3a3;}</style></defs><g id="collection"><g><path class="cls-1" d="M17.54,24.36v.84H0V0H3.64V24.36h13.9Z"/><path class="cls-1" d="M26.46,0V25.2h-3.64V0h3.64Z"/><path class="cls-1" d="M53.17,0V25.2h-.67L34.83,2V24.57h-.8V0h3.78l14.32,19.15V0h1.05Z"/><path class="cls-1" d="M67.27,24.33h7.74v.88h-14.63V0h14.7V.84h-11.1V11.52h7.28v.88h-7.28v11.94h3.29Z"/><path class="cls-1" d="M109.94,0V14.21c0,2.1-.21,3.68-.39,4.73-.17,1.02-.77,2.03-1.58,3.01-.77,.98-1.89,1.79-3.33,2.38-1.43,.6-3.08,.88-4.94,.88-2.24,0-4.09-.39-5.64-1.12-1.5-.77-2.59-1.75-3.22-2.94-.67-1.19-1.05-2.8-.91-4.8l.17-2.56V0h3.57V13.9c0,2.7-.04,4.62,.21,5.78,.28,1.16,.84,2.14,2,2.98,1.16,.88,2.73,1.29,4.66,1.29,1.5,0,2.91-.28,4.17-.88,1.22-.56,2.21-1.26,2.8-2.1,.6-.88,1.05-1.75,1.19-2.66,.14-.88,.35-2.31,.35-4.24V0h.88Z"/><path class="cls-1" d="M122.01,0c2.59,0,4.59,.28,5.99,.7,1.36,.38,2.52,1.19,3.43,2.21,.88,1.05,1.33,2.31,1.33,3.89,0,1.37-.31,2.56-.91,3.57-.63,1.05-1.5,1.79-2.62,2.31-1.16,.56-3.15,.67-6.02,.67h-2.7v5.57c0,1.09-.04,1.65,0,2.49v3.82h-3.61V0h5.11Zm6.83,7.07c0-2.07-.49-3.61-1.51-4.55-1.01-.98-2.66-1.47-4.94-1.47-.84,0-1.47,.03-1.89,.07V12.5h1.75c1.44,0,2.59-.03,3.47-.31,.91-.28,1.64-.77,2.24-1.71,.59-.91,.88-2.07,.88-3.4Z"/></g></g></svg>