<svg viewBox="0 0 132.75 25.2" xmlns="http://www.w3.org/2000/svg"><g fill="#a0b0e8"><path d="m17.54 24.36v.84h-17.54v-25.2h3.64v24.36z"/><path d="m26.46 0v25.2h-3.64v-25.2z"/><path d="m53.17 0v25.2h-.67l-17.67-23.2v22.57h-.8v-24.57h3.78l14.32 19.15v-19.15h1.05z"/><path d="m67.27 24.33h7.74v.88h-14.63v-25.21h14.7v.84h-11.1v10.68h7.28v.88h-7.28v11.94h3.29z"/><path d="m109.94 0v14.21c0 2.1-.21 3.68-.39 4.73-.17 1.02-.77 2.03-1.58 3.01-.77.98-1.89 1.79-3.33 2.38-1.43.6-3.08.88-4.94.88-2.24 0-4.09-.39-5.64-1.12-1.5-.77-2.59-1.75-3.22-2.94-.67-1.19-1.05-2.8-.91-4.8l.17-2.56v-13.79h3.57v13.9c0 2.7-.04 4.62.21 5.78.28 1.16.84 2.14 2 2.98 1.16.88 2.73 1.29 4.66 1.29 1.5 0 2.91-.28 4.17-.88 1.22-.56 2.21-1.26 2.8-2.1.6-.88 1.05-1.75 1.19-2.66.14-.88.35-2.31.35-4.24v-14.07h.88z"/><path d="m122.01 0c2.59 0 4.59.28 5.99.7 1.36.38 2.52 1.19 3.43 2.21.88 1.05 1.33 2.31 1.33 3.89 0 1.37-.31 2.56-.91 3.57-.63 1.05-1.5 1.79-2.62 2.31-1.16.56-3.15.67-6.02.67h-2.7v5.57c0 1.09-.04 1.65 0 2.49v3.82h-3.61v-25.23zm6.83 7.07c0-2.07-.49-3.61-1.51-4.55-1.01-.98-2.66-1.47-4.94-1.47-.84 0-1.47.03-1.89.07v11.38h1.75c1.44 0 2.59-.03 3.47-.31.91-.28 1.64-.77 2.24-1.71.59-.91.88-2.07.88-3.4z"/></g></svg>