<?xml version="1.0" encoding="UTF-8"?><svg id="_イヤー_2" xmlns="http://www.w3.org/2000/svg" viewBox="0 0 439.21 114.33"><defs><style>.cls-1{fill:#fff;}</style></defs><g id="mv"><g id="logo"><g><path class="cls-1" d="M11.71,94.06c1.05,.82,1.69,2.23,1.9,4.23h-2.44c-.15-.92-.49-1.69-1.02-2.29-.53-.61-1.38-.92-2.55-.92-1.6,0-2.75,.78-3.43,2.34-.45,1.01-.67,2.26-.67,3.75s.32,2.75,.95,3.77c.63,1.02,1.63,1.53,2.99,1.53,1.04,0,1.87-.32,2.48-.95,.61-.64,1.03-1.5,1.26-2.6h2.44c-.28,1.98-.98,3.43-2.09,4.34-1.11,.92-2.54,1.37-4.28,1.37-1.95,0-3.51-.71-4.67-2.14-1.16-1.43-1.74-3.21-1.74-5.35,0-2.62,.64-4.66,1.91-6.12,1.27-1.46,2.9-2.19,4.87-2.19,1.68,0,3.05,.41,4.11,1.23Z"/><path class="cls-1" d="M30.63,94.75c1.32,1.28,1.98,3.17,1.98,5.66s-.58,4.4-1.75,5.97c-1.16,1.57-2.97,2.35-5.41,2.35-2.04,0-3.66-.7-4.86-2.08-1.2-1.39-1.8-3.25-1.8-5.59,0-2.51,.63-4.51,1.89-5.99,1.27-1.49,2.97-2.23,5.1-2.23,1.91,0,3.53,.64,4.85,1.93Zm-1.56,9.93c.61-1.26,.92-2.66,.92-4.2,0-1.4-.22-2.53-.66-3.4-.7-1.37-1.91-2.06-3.61-2.06-1.52,0-2.62,.58-3.31,1.75-.69,1.17-1.03,2.58-1.03,4.24s.34,2.91,1.03,3.97c.69,1.06,1.78,1.59,3.28,1.59,1.65,0,2.77-.63,3.38-1.89Z"/><path class="cls-1" d="M39.45,87.71h2.51v20.49h-2.51v-20.49Z"/><path class="cls-1" d="M60.24,94.75c1.32,1.28,1.98,3.17,1.98,5.66s-.58,4.4-1.75,5.97c-1.16,1.57-2.97,2.35-5.41,2.35-2.04,0-3.66-.7-4.86-2.08-1.2-1.39-1.8-3.25-1.8-5.59,0-2.51,.63-4.51,1.89-5.99,1.27-1.49,2.97-2.23,5.1-2.23,1.91,0,3.53,.64,4.85,1.93Zm-1.56,9.93c.61-1.26,.92-2.66,.92-4.2,0-1.4-.22-2.53-.66-3.4-.7-1.37-1.91-2.06-3.61-2.06-1.52,0-2.62,.58-3.31,1.75-.69,1.17-1.03,2.58-1.03,4.24s.34,2.91,1.03,3.97c.69,1.06,1.78,1.59,3.28,1.59,1.65,0,2.77-.63,3.38-1.89Z"/><path class="cls-1" d="M69.06,93.26h2.38v2.58c.2-.5,.67-1.11,1.44-1.83,.76-.72,1.64-1.08,2.64-1.08,.04,0,.13,0,.24,.01,.11,.01,.3,.03,.57,.06v2.65c-.15-.03-.29-.05-.41-.06-.12,0-.26-.01-.41-.01-1.26,0-2.24,.41-2.92,1.22-.68,.81-1.02,1.75-1.02,2.81v8.59h-2.51v-14.94Z"/><path class="cls-1" d="M103.15,93.26h2.77c-.35,.96-1.14,3.15-2.35,6.56-.91,2.57-1.68,4.66-2.29,6.28-1.45,3.81-2.47,6.13-3.06,6.97-.59,.84-1.62,1.26-3.07,1.26-.35,0-.62-.01-.81-.04-.19-.03-.43-.08-.71-.15v-2.29c.44,.12,.75,.2,.95,.22,.19,.03,.36,.04,.51,.04,.47,0,.81-.07,1.02-.23,.22-.15,.4-.34,.55-.56,.05-.07,.21-.45,.5-1.14,.29-.69,.5-1.2,.63-1.53l-5.52-15.38h2.84l4,12.17,4.03-12.17Z"/><path class="cls-1" d="M122.6,94.75c1.32,1.28,1.98,3.17,1.98,5.66s-.58,4.4-1.75,5.97c-1.16,1.57-2.97,2.35-5.42,2.35-2.04,0-3.66-.7-4.86-2.08-1.2-1.39-1.8-3.25-1.8-5.59,0-2.51,.63-4.51,1.89-5.99,1.27-1.49,2.97-2.23,5.1-2.23,1.91,0,3.53,.64,4.85,1.93Zm-1.56,9.93c.61-1.26,.92-2.66,.92-4.2,0-1.4-.22-2.53-.66-3.4-.7-1.37-1.91-2.06-3.61-2.06-1.52,0-2.62,.58-3.31,1.75-.69,1.17-1.03,2.58-1.03,4.24s.34,2.91,1.03,3.97c.69,1.06,1.78,1.59,3.28,1.59,1.65,0,2.77-.63,3.39-1.89Z"/><path class="cls-1" d="M133.86,93.26v9.92c0,.76,.12,1.39,.35,1.87,.44,.89,1.25,1.34,2.43,1.34,1.7,0,2.86-.78,3.48-2.34,.33-.83,.5-1.98,.5-3.45v-7.34h2.51v14.94h-2.37l.03-2.2c-.32,.57-.72,1.04-1.19,1.44-.94,.78-2.08,1.17-3.42,1.17-2.09,0-3.51-.71-4.27-2.13-.41-.76-.62-1.78-.62-3.05v-10.16h2.56Z"/><path class="cls-1" d="M150.99,93.26h2.38v2.58c.2-.5,.67-1.11,1.44-1.83,.76-.72,1.64-1.08,2.64-1.08,.04,0,.12,0,.24,.01,.11,.01,.3,.03,.57,.06v2.65c-.15-.03-.29-.05-.41-.06-.13,0-.26-.01-.41-.01-1.26,0-2.24,.41-2.91,1.22-.68,.81-1.02,1.75-1.02,2.81v8.59h-2.51v-14.94Z"/><path class="cls-1" d="M165.61,103.52c.07,.83,.29,1.48,.64,1.92,.64,.81,1.76,1.22,3.36,1.22,.95,0,1.78-.2,2.51-.61,.72-.41,1.08-1.03,1.08-1.87,0-.64-.29-1.13-.86-1.47-.37-.2-1.09-.44-2.18-.71l-2.03-.5c-1.29-.32-2.25-.67-2.86-1.06-1.09-.68-1.65-1.62-1.65-2.82,0-1.42,.52-2.56,1.55-3.43,1.03-.87,2.42-1.31,4.16-1.31,2.28,0,3.93,.66,4.94,1.98,.63,.84,.94,1.74,.92,2.71h-2.37c-.05-.56-.25-1.08-.62-1.54-.59-.66-1.61-.98-3.07-.98-.97,0-1.71,.18-2.21,.54-.5,.36-.75,.84-.75,1.43,0,.65,.33,1.17,.99,1.56,.38,.23,.94,.44,1.68,.61l1.69,.41c1.84,.44,3.07,.86,3.7,1.27,.98,.64,1.46,1.65,1.46,3.03s-.51,2.48-1.53,3.45c-1.02,.97-2.58,1.45-4.67,1.45-2.25,0-3.84-.5-4.78-1.51-.94-1.01-1.44-2.26-1.5-3.74h2.41Z"/><path class="cls-1" d="M191.31,93.67c.99,.5,1.74,1.14,2.26,1.93,.5,.75,.83,1.63,1,2.64,.15,.69,.22,1.78,.22,3.29h-10.87c.05,1.52,.4,2.74,1.07,3.66,.66,.92,1.69,1.38,3.08,1.38,1.3,0,2.34-.44,3.11-1.3,.44-.5,.74-1.09,.92-1.75h2.47c-.06,.55-.28,1.16-.65,1.83-.37,.67-.78,1.22-1.23,1.65-.76,.74-1.69,1.25-2.81,1.51-.6,.15-1.28,.22-2.03,.22-1.85,0-3.42-.68-4.7-2.03-1.29-1.35-1.93-3.25-1.93-5.69s.65-4.35,1.94-5.84c1.29-1.5,2.98-2.25,5.07-2.25,1.05,0,2.07,.25,3.06,.75Zm.9,5.87c-.1-1.09-.34-1.96-.71-2.61-.68-1.21-1.82-1.81-3.41-1.81-1.14,0-2.1,.42-2.88,1.25-.77,.83-1.19,1.89-1.23,3.17h8.23Z"/><path class="cls-1" d="M201.73,87.71h2.51v20.49h-2.51v-20.49Z"/><path class="cls-1" d="M212.86,88.7c.58-.86,1.72-1.28,3.39-1.28,.16,0,.32,0,.49,.01,.17,0,.36,.02,.57,.04v2.29c-.26-.02-.45-.03-.57-.03-.12,0-.23,0-.33,0-.77,0-1.23,.2-1.38,.59-.15,.4-.23,1.4-.23,3.02h2.51v1.98h-2.51v12.89h-2.48v-12.89h-2.08v-1.98h2.08v-2.34c.04-1.04,.22-1.8,.54-2.29Z"/><path class="cls-1" d="M235.44,89.09h2.54v4.17h2.39v2.05h-2.39v9.75c0,.52,.18,.87,.53,1.05,.2,.1,.52,.15,.98,.15,.12,0,.25,0,.39,0,.14,0,.3-.02,.49-.04v1.99c-.29,.08-.59,.15-.9,.18-.31,.04-.65,.05-1.01,.05-1.17,0-1.97-.3-2.39-.9-.42-.6-.63-1.38-.63-2.34v-9.89h-2.02v-2.05h2.02v-4.17Z"/><path class="cls-1" d="M257.38,94.75c1.32,1.28,1.98,3.17,1.98,5.66s-.58,4.4-1.75,5.97c-1.16,1.57-2.97,2.35-5.41,2.35-2.04,0-3.66-.7-4.86-2.08-1.2-1.39-1.8-3.25-1.8-5.59,0-2.51,.63-4.51,1.89-5.99,1.27-1.49,2.97-2.23,5.1-2.23,1.91,0,3.53,.64,4.85,1.93Zm-1.56,9.93c.61-1.26,.92-2.66,.92-4.2,0-1.4-.22-2.53-.66-3.4-.7-1.37-1.91-2.06-3.61-2.06-1.52,0-2.62,.58-3.31,1.75-.69,1.17-1.03,2.58-1.03,4.24s.34,2.91,1.03,3.97c.69,1.06,1.78,1.59,3.28,1.59,1.65,0,2.77-.63,3.39-1.89Z"/><path class="cls-1" d="M287.1,93.26h2.77c-.35,.96-1.14,3.15-2.35,6.56-.91,2.57-1.68,4.66-2.29,6.28-1.45,3.81-2.47,6.13-3.06,6.97-.59,.84-1.62,1.26-3.07,1.26-.35,0-.62-.01-.81-.04-.19-.03-.43-.08-.71-.15v-2.29c.44,.12,.75,.2,.95,.22,.19,.03,.36,.04,.51,.04,.47,0,.81-.07,1.02-.23,.22-.15,.4-.34,.55-.56,.05-.07,.21-.45,.5-1.14,.29-.69,.5-1.2,.63-1.53l-5.52-15.38h2.84l4,12.17,4.03-12.17Z"/><path class="cls-1" d="M306.55,94.75c1.32,1.28,1.98,3.17,1.98,5.66s-.58,4.4-1.75,5.97c-1.16,1.57-2.97,2.35-5.41,2.35-2.04,0-3.66-.7-4.86-2.08-1.2-1.39-1.8-3.25-1.8-5.59,0-2.51,.63-4.51,1.89-5.99,1.27-1.49,2.97-2.23,5.1-2.23,1.91,0,3.53,.64,4.85,1.93Zm-1.56,9.93c.61-1.26,.92-2.66,.92-4.2,0-1.4-.22-2.53-.66-3.4-.7-1.37-1.91-2.06-3.61-2.06-1.52,0-2.62,.58-3.31,1.75-.69,1.17-1.03,2.58-1.03,4.24s.34,2.91,1.03,3.97c.69,1.06,1.78,1.59,3.28,1.59,1.65,0,2.77-.63,3.39-1.89Z"/><path class="cls-1" d="M317.81,93.26v9.92c0,.76,.12,1.39,.35,1.87,.44,.89,1.25,1.34,2.43,1.34,1.7,0,2.86-.78,3.48-2.34,.33-.83,.5-1.98,.5-3.45v-7.34h2.51v14.94h-2.37l.03-2.2c-.32,.57-.72,1.04-1.19,1.44-.94,.78-2.08,1.17-3.42,1.17-2.09,0-3.51-.71-4.27-2.13-.41-.76-.62-1.78-.62-3.05v-10.16h2.56Z"/><path class="cls-1" d="M334.94,93.26h2.38v2.58c.2-.5,.67-1.11,1.44-1.83,.76-.72,1.64-1.08,2.64-1.08,.04,0,.13,0,.24,.01,.11,.01,.3,.03,.57,.06v2.65c-.15-.03-.29-.05-.41-.06-.13,0-.26-.01-.41-.01-1.26,0-2.24,.41-2.92,1.22-.68,.81-1.02,1.75-1.02,2.81v8.59h-2.51v-14.94Z"/><path class="cls-1" d="M359.69,93.26h2.48v2.12c.59-.73,1.13-1.27,1.62-1.61,.83-.57,1.77-.85,2.82-.85,1.19,0,2.15,.29,2.87,.88,.41,.34,.78,.83,1.11,1.48,.56-.8,1.21-1.39,1.97-1.78,.75-.39,1.6-.58,2.54-.58,2.01,0,3.37,.73,4.1,2.18,.39,.78,.58,1.83,.58,3.15v9.94h-2.61v-10.38c0-1-.25-1.68-.75-2.05-.5-.37-1.1-.56-1.82-.56-.99,0-1.84,.33-2.55,.99-.71,.66-1.07,1.76-1.07,3.3v8.69h-2.55v-9.75c0-1.01-.12-1.75-.36-2.22-.38-.7-1.09-1.05-2.13-1.05-.95,0-1.81,.37-2.59,1.1-.78,.73-1.17,2.06-1.17,3.99v7.92h-2.51v-14.94Z"/><path class="cls-1" d="M398,94.75c1.32,1.28,1.98,3.17,1.98,5.66s-.58,4.4-1.75,5.97c-1.16,1.57-2.97,2.35-5.41,2.35-2.04,0-3.66-.7-4.86-2.08-1.2-1.39-1.8-3.25-1.8-5.59,0-2.51,.63-4.51,1.89-5.99,1.27-1.49,2.97-2.23,5.1-2.23,1.91,0,3.53,.64,4.85,1.93Zm-1.56,9.93c.61-1.26,.92-2.66,.92-4.2,0-1.4-.22-2.53-.66-3.4-.7-1.37-1.91-2.06-3.61-2.06-1.52,0-2.62,.58-3.31,1.75-.69,1.17-1.03,2.58-1.03,4.24s.34,2.91,1.03,3.97c.69,1.06,1.78,1.59,3.28,1.59,1.65,0,2.77-.63,3.39-1.89Z"/><path class="cls-1" d="M417.57,94.75c1.32,1.28,1.98,3.17,1.98,5.66s-.58,4.4-1.75,5.97c-1.16,1.57-2.97,2.35-5.41,2.35-2.04,0-3.66-.7-4.86-2.08-1.2-1.39-1.8-3.25-1.8-5.59,0-2.51,.63-4.51,1.89-5.99,1.27-1.49,2.97-2.23,5.1-2.23,1.91,0,3.53,.64,4.85,1.93Zm-1.56,9.93c.61-1.26,.92-2.66,.92-4.2,0-1.4-.22-2.53-.66-3.4-.7-1.37-1.91-2.06-3.61-2.06-1.52,0-2.62,.58-3.31,1.75-.69,1.17-1.03,2.58-1.03,4.24s.34,2.91,1.03,3.97c.69,1.06,1.78,1.59,3.28,1.59,1.65,0,2.77-.63,3.39-1.89Z"/><path class="cls-1" d="M434.53,93.72c.45,.28,.95,.77,1.51,1.46v-7.55h2.42v20.56h-2.26v-2.08c-.58,.92-1.27,1.58-2.07,1.99-.8,.41-1.71,.62-2.74,.62-1.66,0-3.09-.7-4.31-2.1-1.21-1.4-1.82-3.26-1.82-5.58,0-2.18,.55-4.06,1.66-5.66,1.1-1.59,2.69-2.39,4.75-2.39,1.14,0,2.09,.24,2.86,.73Zm-5.6,11.2c.68,1.08,1.76,1.62,3.25,1.62,1.16,0,2.11-.5,2.85-1.5,.75-1,1.12-2.44,1.12-4.3s-.39-3.29-1.15-4.19c-.77-.9-1.72-1.36-2.84-1.36-1.26,0-2.28,.48-3.06,1.45-.78,.97-1.17,2.39-1.17,4.27,0,1.6,.34,2.94,1.01,4.02Z"/></g><g><g><path class="cls-1" d="M396.16,61.15h-7.4c-1.57,.16-1.75-.88-1.75-1.23V29.76h0V3.07c0-.13-.05-.78,.02-.88l-.02-1.66h-19.95c-.92,0-1.08,.39-1.08,.73,0,.23,.12,.62,1.19,.62h7c.41,0,.73,.84,.73,1.19V59.91c.01,.36-.25,1.23-.66,1.23h-7.4c-.58,0-1.04,.07-1.04,.65s.37,.7,.95,.7h29.39c.27,0,.9,.14,.89-.71,0-.76-.61-.63-.88-.63Z"/><path class="cls-1" d="M438.21,61.12h-6.13c-.25,0-.5-.65-.64-.84l-28.3-37.54c-.19-.25-.16-.59,.08-.81l18.98-17.1c1.55-1.4,3.53-2.86,5.66-2.86l5.22-.09c.58,0,.98-.15,.98-.73,0-.43-.26-.62-.98-.62h-25.88c-.61,0-.98,.07-.98,.62,0,.58,.4,.73,.98,.73h12.58c.4,0,.62,.77,.71,.98,.04,.11,.11,.4-.17,.65l-25.77,22.64c-.12,.07-.23,.15-.54,.44-.47,.73-1,1.97-.12,4.36l.08,.12,21.63,28.5c.14,.19,.16,.41,.06,.61-.09,.19-.28,.93-.64,.93h-9.39c-.58,0-1,.09-1,.67s.38,.7,.96,.7h32.6c.59,0,1.01-.12,1.01-.68s-.41-.69-1-.69Z"/></g><path class="cls-1" d="M1.04,61.12H7.56c1.12,0,1.52-1.14,1.52-2.15V5.65c0-1.67,.62-3.79-2.83-3.72H1.33c-.6,0-1.05-.08-1.05-.63,0-.47,.17-.65,.37-.72h7.66c.22,0,.62-.02,1.11,0h5.78l9.26-.03c.9,0,1.62,.65,1.9,1.38l16.11,33.25c.39,.81,.91,.52,1.3-.28L60.27,2.03l.39-.29c.11-.1,.36-.05,.74-.05,.12,0,.31,.13,.43,.17,.19,.06,.41,.23,.46,.51v.12c0,.08,0,.17-.03,.25l-23.09,47.47c-.13,.36-.38,1.01-1.28,1.01s-1.2-.53-1.39-1.03L14.22,4.21c-.56-.35-2.25-1.01-2.64,.17V58.97c0,1.01,.88,2.15,2,2.15h8.03c.59,0,.97,.17,.97,.73s-.4,.68-.97,.68H1.03c-.6,0-1.03-.1-1.03-.64s.45-.77,1.04-.77Z"/><path class="cls-1" d="M57.39,61.16h6.62c1.12,0,1.94-1.04,1.94-2.04V4.91c0-1.55,.49-2.46,.98-2.99,.04-.04,.98-1.14,2.73-1.28h17.12c.66,0,1.15,.1,1.15,.62,0,.56-.41,.67-1.01,.67h-4.53c-4.62,0-4.65,1.89-4.65,3.55V59.12c0,1.01,.06,2.01,1.18,2.01l8.76,.03c.65,0,.96,.26,.96,.78s-.4,.59-1.05,.59h-30.29c-.65,0-.91-.06-.91-.59s.35-.78,1-.78Z"/><g><path class="cls-1" d="M306.1,16.67l11.52,30.29,5.01,12.87c.09,.24,0,.43-.06,.52-.13,.19-.34,.78-.6,.78h-11.47c-.6,0-.97,.11-.97,.66s.34,.69,.94,.69h34.1c.6,0,1.08-.19,1.08-.74s-.46-.62-1.07-.62h-8.05c-.31,0-.59-.63-.69-.89L312.73,1.22c-.26-.57-.55-1.22-1.25-1.22-.8,0-1.09,.65-1.36,1.24l-4.31,11c-.46,1.17-.47,2.46-.02,3.64l.02,.06"/><path class="cls-1" d="M279.36,62.53c-1.05,0-1.3-.13-1.28-.58,.03-.85,.59-.78,1.4-.78l6.22,.03s.22-.68,.29-.87l14.71-37.59c.43-.7,.89-.83,1.21-.83,.22,0,.44,.06,.65,.19,.31,.22,.61,.65,.55,1.25l-.24,.68-8.12,20.6c-.02,.07,.04,.1,.16,.1l15.26,.09c.95,.17,1.29,.7,1.36,1.02,.12,.3-.05,.84-.12,.96-.19,.34-.55,.42-1.11,.51h-.23l-16.15-.05c-.11,0-.25,.13-.28,.2l-4.95,12.96v.05c.04,.08,.18,.68,.24,.71l7.71,.03c.99,0,1.11,.07,1.08,.75-.02,.37-.15,.59-1.25,.59h-17.09Z"/></g><path class="cls-1" d="M203.04,.56c-.57,0-.98,.09-.98,.65s.4,.66,.98,.66h6.28c.66,0,1.19,1.05,1.19,1.68V59.52c0,.63-.51,1.63-1.16,1.63h-6.47c-.69,0-.92,.18-.92,.6,0,.56,.32,.73,.89,.73h51c.66,0,1.31-.56,1.37-1.21v-17.04c-.03-.23-.1-.92-.85-.92-.56,0-.85,.48-.84,.91-1.76,12.16-7.75,16.8-21.92,16.8h-7.61c-.66,0-1.12-.63-1.12-1.26V3.56c0-.29,.02-.39,.02-.79l.02-2.21h-19.89Z"/><g><path class="cls-1" d="M147.85,2.21h0l-.32-.06s-.06-.01-.09-.02l-.11-.02h-.09l-.05-.02h-.12c-.62-.01-.87,.34-.92,.57-.06,.35,.14,.65,.54,.86l-.02,.08,.41,.07h.05c2.76,.49,5.06,1.5,6.83,3,4.95,4.2,5.92,12.56,5.92,25.6s-.99,21.25-5.91,25.27c-2.23,1.82-4.27,2.81-6.82,3.29h-.08l-.09,.03h0l-.17,.03v.02c-.72,.3-.7,.83-.69,.92,.03,.18,.17,.61,.83,.66h.04l.27-.04h.08s.02-.02,.04-.02l.31-.04h0c15.72-2.14,26.67-14.47,26.67-30.13s-11.13-27.72-26.53-30.06Z"/><path class="cls-1" d="M139.56,61.21h0c-.3-.13-1.07-.4-1.48-.55-2.2-.53-4.07-1.48-6.07-3.12-4.92-4.02-5.91-12.65-5.91-25.27s.97-21.4,5.92-25.6c.38-.33,.81-.64,1.41-1.02,.18-.11,.37-.22,.57-.33,.22-.12,.44-.23,.67-.34,.12-.06,.22-.11,.35-.17,.23-.1,.47-.19,.71-.29,.23-.09,.48-.17,.72-.25v.03l.53-.19c.58-.17,1.19-.32,1.81-.42l.33-.06v-.06c.48-.23,.62-.6,.6-.83-.04-.27-.25-.55-.72-.62v-.06l-.2,.03h-.01l-.11,.02h-.07c-.06,.02-.12,.03-.19,.04l-.16,.03h0c-15.47,2.29-26.66,14.88-26.66,30.09s10.91,27.93,26.57,30.11h0l.21,.04c.06,0,.12,.02,.18,.03h.05l.08,.02h.06l.04,.02h.11v-.02c.58-.06,.82-.41,.86-.66,.03-.22-.04-.42-.19-.59Z"/></g></g></g></g></svg>