<?xml version="1.0" encoding="UTF-8"?>
<svg id="_レイヤー_2" data-name="レイヤー 2" xmlns="http://www.w3.org/2000/svg" viewBox="0 0 14.5 3.02">
  <defs>
    <style>
      .cls-1 {
        fill: #c87290;
        stroke-width: 0px;
      }
    </style>
  </defs>
  <g id="hamburger">
    <g>
      <path class="cls-1" d="m2.85,1.35c-.14,0-.81-.55-1.22-1.01-.06-.06-.1-.09-.15-.09-.04,0-.08.03-.13.09C.96.85.25,1.45.1,1.45c-.06,0-.1-.05-.1-.1,0-.04.02-.07.07-.09.43-.22.88-.68,1.16-1.04.07-.09.16-.14.25-.14.08,0,.17.04.26.14.35.38.75.73,1.17.95.04.02.06.05.06.09,0,.06-.05.11-.12.11Zm-1.52.49c-.07.25-.19.58-.31.84.42-.04.82-.09,1.22-.16-.12-.12-.25-.22-.38-.31-.02-.02-.04-.04-.04-.06,0-.04.04-.08.09-.08.15,0,.81.62.81.78,0,.06-.06.1-.11.1-.03,0-.06-.01-.08-.04-.06-.09-.12-.17-.18-.25-.78.17-1.8.25-1.96.25-.05,0-.08-.04-.08-.09s.02-.09.07-.09c.14,0,.29-.02.43-.03.12-.25.23-.59.3-.86H.34c-.06,0-.08-.04-.08-.07,0-.04.03-.09.09-.09h2.27c.06,0,.09.04.09.08,0,.04-.03.09-.09.09h-1.28Zm-.38-.65c-.06,0-.08-.04-.08-.08s.03-.08.08-.08h1.1c.06,0,.08.04.08.08s-.03.08-.09.08H.95Z"/>
      <path class="cls-1" d="m4.44,1.6c-.21.21-.48.4-.55.4-.05,0-.09-.05-.09-.09,0-.03.01-.06.05-.08.61-.33,1-.95,1-1.07,0-.04-.03-.07-.08-.07-.21,0-.58.01-.79.02h0c-.05,0-.08-.04-.08-.08s.03-.08.08-.08h.46s0-.44,0-.44c0-.06.05-.09.09-.09.05,0,.1.03.1.09v.43h.18c.16,0,.23.08.23.18,0,.15-.23.47-.43.71,0,.33.01,1.52.01,1.52,0,.05-.05.08-.09.08-.05,0-.1-.03-.1-.08v-1.34Zm.69.29c-.08-.11-.26-.25-.36-.3-.02-.01-.03-.03-.03-.05,0-.04.04-.08.08-.08.07,0,.48.25.48.37,0,.06-.05.1-.09.1-.02,0-.05-.01-.07-.04Zm-.15.96c-.06,0-.09-.04-.09-.08s.03-.08.09-.08h.82s0-1.37,0-1.37h-.59c-.06,0-.09-.04-.09-.08,0-.04.03-.08.09-.08h.59s0-.99,0-.99c0-.06.05-.09.09-.09.05,0,.1.03.1.09v.99s.64,0,.64,0c.06,0,.09.04.09.08,0,.04-.03.09-.09.09h-.65s0,1.37,0,1.37h.79c.06,0,.09.04.09.08s-.03.08-.09.08h-1.8Z"/>
      <path class="cls-1" d="m8.09,1.42c-.1.24-.22.49-.33.65-.02.04-.06.05-.09.05-.04,0-.09-.04-.09-.09,0-.02,0-.04.02-.07.15-.19.37-.59.48-.93v-.11h-.33c-.06,0-.08-.04-.08-.08,0-.04.03-.08.08-.08h.32V.09c0-.06.04-.09.08-.09s.09.03.09.09c0,0,0,.36,0,.67h.25c.06,0,.08.04.08.08,0,.04-.02.08-.08.08h-.25s0,.37,0,.37c.01-.02.04-.04.07-.04.07,0,.3.23.3.3,0,.04-.04.09-.08.09-.02,0-.04,0-.06-.04-.07-.1-.14-.19-.22-.25h-.01c0,.39.01,1.58.01,1.58,0,.06-.05.08-.09.08-.04,0-.09-.03-.09-.08v-1.52Zm.59-.99c0-.14.07-.24.23-.25.06,0,.13,0,.2,0,.18,0,.35.01.36.24,0,.13,0,.33,0,.51,0,.11,0,.22,0,.3,0,.13-.07.24-.23.25-.02,0-.06,0-.4,0v.75c.17-.08.36-.17.47-.22-.06-.07-.11-.15-.15-.19-.02-.02-.02-.04-.02-.06,0-.04.03-.06.07-.06.07,0,.41.38.41.47,0,.05-.04.09-.08.09-.02,0-.05-.01-.07-.05l-.06-.09c-.16.09-.82.43-.88.43-.05,0-.08-.05-.08-.09,0-.03.01-.06.04-.07.06-.02.13-.05.2-.08V.43Zm.64.33c0-.43,0-.44-.25-.44-.17,0-.23.03-.23.16,0,.06,0,.16,0,.28h.48Zm-.48.14c0,.16,0,.32,0,.44.07,0,.16,0,.22,0,.25,0,.26,0,.26-.44h-.48Zm1.41.55c-.03.12-.07.23-.1.34.01,0,.02,0,.04,0,.04,0,.08.03.08.08v.05c0,.16-.01.47-.01.62s.01.22.15.22c.19,0,.22-.07.22-.33v-.06c0-.06.04-.08.08-.08.04,0,.08.03.08.08v.03c0,.48-.14.52-.38.52-.22,0-.3-.12-.3-.32,0-.13,0-.52.01-.69-.38.92-1.04,1.07-1.08,1.07-.06,0-.09-.04-.09-.09,0-.04.02-.07.06-.08.64-.2.95-.78,1.1-1.37h-.54s-.07-.03-.07-.07.02-.08.07-.08h.19V.35h-.15s-.07-.03-.07-.07c0-.04.03-.08.08-.08h1s.07.04.07.08-.02.08-.07.08h-.21c0,.26-.03.6-.1.95h.38s.07.04.07.08-.02.08-.07.08h-.41Zm-.13-.15c.07-.35.09-.69.09-.96h-.31v.96h.22Z"/>
      <path class="cls-1" d="m13.62,1.94c-.04.19-.1.34-.19.48.36.1.66.24.86.38.03.02.04.05.04.08,0,.05-.04.1-.09.1-.02,0-.04,0-.06-.02-.22-.17-.52-.31-.85-.41-.29.3-.78.45-1.59.45h-.03c-.06,0-.09-.04-.09-.08,0-.05.03-.09.09-.09h.08c.62,0,1.07-.08,1.35-.33-.2-.05-.41-.07-.63-.08-.05.08-.07.13-.15.13-.05,0-.09-.03-.09-.07,0-.01,0-.03.02-.05.1-.16.19-.33.25-.5h-.9c-.06,0-.08-.04-.08-.08,0-.04.03-.08.08-.08h.96c.04-.1.07-.21.1-.31.01-.04.05-.06.09-.06.05,0,.1.03.1.08,0,0,0,.01,0,.02-.03.09-.06.18-.09.27h1.63c.06,0,.08.04.08.08,0,.04-.02.08-.08.08h-.81Zm-.15-1.66v.34c.15,0,.28,0,.41,0,.34,0,.34.15.34.37,0,.06,0,.11,0,.15,0,.14-.09.24-.34.25-.23,0-.5,0-.78,0s-.56,0-.83,0c-.35,0-.36-.14-.36-.36,0-.28.03-.4.35-.4.12,0,.24,0,.37,0v-.34h-.91c-.06,0-.08-.04-.08-.08,0-.04.03-.08.08-.08h2.66c.05,0,.08.04.08.08,0,.04-.03.08-.08.08h-.9Zm-.85.5h-.33c-.17,0-.21.04-.21.23,0,.16.01.23.21.23.09,0,.21,0,.33,0v-.47Zm.12,1.16c-.04.12-.1.24-.15.35.23,0,.46.04.67.09.09-.12.15-.26.18-.44h-.7Zm.56-1.66h-.51v.34h.51v-.34Zm0,.49h-.51v.48h.51v-.48Zm.17,0v.47c.14,0,.27,0,.38,0,.18,0,.2-.07.2-.22,0-.16,0-.25-.2-.25h-.37Z"/>
    </g>
  </g>
</svg>