<svg xmlns="http://www.w3.org/2000/svg" width="104.65" height="23.025" viewBox="0 0 104.65 23.025">
  <path id="パス_131" data-name="パス 131" d="M-46.275-13.4a24.276,24.276,0,0,0,5.325-5.3,25.034,25.034,0,0,0,5.625,5.3Zm-.475,2.15h11.7V-13.2a31.369,31.369,0,0,0,4.425,2.6,11.317,11.317,0,0,1,1.475-2.1,25.131,25.131,0,0,1-10.7-8.25h-2.4a25.283,25.283,0,0,1-10.225,8.6,8.469,8.469,0,0,1,1.375,1.9,30.767,30.767,0,0,0,4.35-2.6Zm-4.3,4.775h6.2A42.57,42.57,0,0,1-47.175-1.25l-3.7.125.3,2.275c4.25-.175,10.6-.45,16.55-.75a17.061,17.061,0,0,1,1.1,1.625L-30.8.7a31.813,31.813,0,0,0-5.8-6.425l-2,1.075a36.445,36.445,0,0,1,2.9,2.975c-3.05.125-6.15.25-8.925.35.9-1.6,1.825-3.475,2.65-5.15h11.45V-8.65H-51.05Zm36.6-.45c-.575-.525-2.65-2.325-3.825-3.275a23.1,23.1,0,0,0,3.1-5.375l-1.3-.875-.4.075H-18.6v-4.6h-2.3v4.6h-3.775v2.125h6.55A20.6,20.6,0,0,1-25.55-6.6,10.979,10.979,0,0,1-24.4-4.45a22.027,22.027,0,0,0,3.5-2.8V1.975h2.3v-9.95c1.025,1.025,2.15,2.225,2.725,2.95Zm6.95,5.9v-9.8h5.05v-2.25H-7.5v-7.7H-9.875v7.7h-5.05v2.25h5.05v9.8h-6.05v2.3h14v-2.3Zm21.825-16.75V-15.3H11.95v-2.475Zm-2.375,6.95v-2.65h2.375v2.65Zm7.575.1V-17.7H21.25v2.175a27.817,27.817,0,0,1-.35,4.8Zm3.25,10.55A.517.517,0,0,1,22.4-.3a.634.634,0,0,1-.1-.4V-8.075c.05-.225.125-.425.175-.65H25.1v-2H22.85a33.037,33.037,0,0,0,.3-4.775v-2.2h1.625v-2H16.8v2h.95v6.975h-1.1v2h3.8A15.667,15.667,0,0,1,17.275-2.65,36.679,36.679,0,0,0,15.25-7.7l-1.8.625c.4.825.775,1.775,1.125,2.7-.9.275-1.775.575-2.625.825v-5.4h4.3v-10.7H10.025v10.7c-.5-.625-2-2.3-2.6-2.85v-1.925H9.5v-2.1H7.425v-5.15H5.275v5.15H2.35v2.1H5.1a30.554,30.554,0,0,1-3.25,9.2,11.848,11.848,0,0,1,1.125,2A24.667,24.667,0,0,0,5.275-8.1V1.95h2.15V-9.25a26.3,26.3,0,0,1,1.5,2.4l1.1-1.8v5.7c-.575.175-1.125.35-1.6.475l.9,2.1C11.05-1,13.15-1.8,15.175-2.6a13.932,13.932,0,0,1,.35,1.375l.7-.275A18.529,18.529,0,0,1,13.775.525a10.182,10.182,0,0,1,1.5,1.425,17.985,17.985,0,0,0,5.15-5.525v2.9c0,1.225.075,1.625.45,1.975a1.838,1.838,0,0,0,1.375.45h1.125a2.37,2.37,0,0,0,1.15-.275A1.745,1.745,0,0,0,25.225.4a26.1,26.1,0,0,0,.2-3.1,5.626,5.626,0,0,1-1.475-.825,23.043,23.043,0,0,1-.075,2.65,1.161,1.161,0,0,1-.2.575.607.607,0,0,1-.45.125ZM44.75-5.625a8.541,8.541,0,0,1-2.875,2.95C40.15-3.1,38.35-3.5,36.575-3.85c.4-.575.825-1.175,1.25-1.775ZM33.5-14.275h3.275v2.9H33.5ZM39-17.95h3.475v1.8H39Zm9.325,3.675v2.9h-3.65v-2.9ZM39-11.375v-2.9h3.475v2.9Zm13.175,5.75v-1.9H39.1Q39.738-8.5,40.3-9.4l-.375-.1h10.7v-6.65h-5.95v-1.8H51.55V-20H30.125v2.05h6.65v1.8h-5.45V-9.5H37.7c-.375.625-.825,1.3-1.275,1.975H29.6v1.9h5.525c-.85,1.225-1.7,2.375-2.4,3.275l2.225.725.4-.55c1.225.275,2.425.525,3.6.825A35.854,35.854,0,0,1,30-.05a5.926,5.926,0,0,1,.875,2.025C35.75,1.6,39.475.9,42.275-.5A69.894,69.894,0,0,1,50,2.05L51.375.15c-1.8-.675-4.175-1.425-6.8-2.125a10.724,10.724,0,0,0,2.775-3.65Z" transform="translate(52.475 20.975)" fill="#bb778e"/>
</svg>