<svg xmlns="http://www.w3.org/2000/svg" width="157.025" height="22.925" viewBox="0 0 157.025 22.925">
  <path id="パス_133" data-name="パス 133" d="M-70.075-20.125h-2.75a16.257,16.257,0,0,1,.15,1.975c0,.45-.025,1.35-.025,2.475q-.937.075-1.725.075a25.258,25.258,0,0,1-3.325-.2l.075,2.4c.825.075,1.775.125,3.3.125q.712,0,1.65-.075c-.025.95-.025,1.9-.025,2.775v1.55c-2.95,1.275-5.525,3.5-5.525,5.625,0,2.4,3.325,4.4,5.5,4.4,1.475,0,2.45-.775,2.45-3.425,0-1-.075-3.1-.1-5.175A16.914,16.914,0,0,1-65.3-8.425c2.275,0,4,1.075,4,3,0,2.1-1.825,3.2-3.925,3.6a13.186,13.186,0,0,1-3,.175l.9,2.55A19.431,19.431,0,0,0-64.15.525c3.675-.875,5.4-2.95,5.4-5.925,0-3.2-2.8-5.2-6.525-5.2a19.528,19.528,0,0,0-5.2.8v-.875c0-.9.025-1.9.05-2.9,1.725-.2,3.575-.5,5.025-.825l-.05-2.45a31.335,31.335,0,0,1-4.925.95c.05-.9.075-1.7.1-2.3C-70.225-18.8-70.15-19.65-70.075-20.125Zm7.475,2.75-1.1,1.9a36.211,36.211,0,0,1,5.775,3.7l1.225-2A44.772,44.772,0,0,0-62.6-17.375ZM-75.825-3.525c0-1,1.3-2.275,3.125-3.175.025,1.625.075,3.075.075,3.875,0,.825-.35,1.15-.85,1.15C-74.325-1.675-75.825-2.525-75.825-3.525Zm31.725-14.6v1.75h-4.7v-1.75Zm-4.7,5.275v-1.875h4.7v1.875Zm6.9,1.825v-8.95h-9.2V1.975h2.3v-13Zm3.475,3.95V-3.45h-5.1V-7.075Zm2.175,5.55v-7.5h-9.425v8.95h2.15v-1.45Zm-1.45-11.3v-1.9h4.825v1.9Zm4.825-5.325v1.775H-37.7V-18.15Zm2.375-1.825h-9.425V-11h7.05V-1c0,.45-.125.6-.6.625-.5,0-2.125.025-3.7-.05a8.077,8.077,0,0,1,.8,2.375,14.365,14.365,0,0,0,4.65-.4c.9-.4,1.225-1.125,1.225-2.525Zm10.35,2.35-3.05-.05a12.79,12.79,0,0,1,.2,2.35c0,1.5.025,4.5.275,6.7C-22.05-2.05-19.725.35-17.2.35c1.825,0,3.375-1.475,4.95-5.75l-1.975-2.325c-.575,2.275-1.675,5-2.925,5-1.675,0-2.7-2.65-3.075-6.575a55.974,55.974,0,0,1-.175-5.625A20.464,20.464,0,0,1-20.15-17.625ZM-7.35-17l-2.475.825c2.525,3,3.95,8.55,4.375,12.85l2.575-1C-3.2-8.375-5.05-14.1-7.35-17ZM19.025-5.95v4.9H8.275v-4.9ZM6,2H8.275V1.025h10.75V2H21.4V-8.05H6ZM7.925-12.95a26.742,26.742,0,0,0,5.625-5.7,28.617,28.617,0,0,0,5.9,5.7Zm4.325-7.975a27.7,27.7,0,0,1-10.275,9.05A8.936,8.936,0,0,1,3.4-10.025a34.059,34.059,0,0,0,4.025-2.55v1.7h12.45V-12.65a32.563,32.563,0,0,0,4.05,2.525A10.32,10.32,0,0,1,25.45-12.2a27.727,27.727,0,0,1-10.825-8.725ZM35.475-18c0,.275-.05,1.1-.125,2.175-1.2.175-2.5.325-3.275.375a15.9,15.9,0,0,1-1.875.025l.25,2.55c1.5-.2,3.575-.475,4.75-.625-.05.7-.1,1.45-.15,2.15C33.7-9.3,31-5.7,29.6-3.95l1.55,2.175c1.05-1.45,2.525-3.6,3.7-5.325-.075,2.775-.075,4.2-.1,6.55,0,.4-.05,1.2-.075,1.65h2.7c-.05-.525-.1-1.25-.125-1.7-.15-2.275-.125-4.05-.125-6.225,0-.8.025-1.675.075-2.6,2.2-2.025,4.7-3.4,7.475-3.4a4.239,4.239,0,0,1,4.5,4.15c.025,4.125-3.475,6-7.775,6.65L42.55.35c5.8-1.125,9.25-3.925,9.225-8.975a6.424,6.424,0,0,0-6.7-6.5,12.6,12.6,0,0,0-7.7,2.875c.025-.4.075-.825.1-1.225.4-.625.875-1.35,1.175-1.8l-.85-1.05h-.025c.175-1.625.375-2.95.525-3.6l-2.925-.1A13.907,13.907,0,0,1,35.475-18ZM74.4-19.425H71.725a16.515,16.515,0,0,1,.175,2.05v3.25c-2.5.225-5.225.475-7.525.7.025-1.2.025-2.25.025-2.95a19.748,19.748,0,0,1,.125-2.275H61.75a14.852,14.852,0,0,1,.175,2.4v3.05c-1.05.1-1.875.175-2.425.225-1.05.1-2.075.15-2.825.15l.275,2.55c.65-.1,1.95-.275,2.725-.375.55-.075,1.325-.15,2.25-.25,0,2.4,0,4.975.025,6.05.1,4.125.75,5.475,6.825,5.475A70.371,70.371,0,0,0,76,.2l.075-2.675a46.667,46.667,0,0,1-7.45.625c-4.075,0-4.175-.8-4.25-3.375-.05-1.025-.025-3.5,0-5.95,2.325-.25,5.05-.5,7.475-.7A35.625,35.625,0,0,1,71.6-8.25c-.05.55-.3.65-.875.65a14.564,14.564,0,0,1-2.4-.325l-.05,2.175a29.447,29.447,0,0,0,3.5.375c1.2,0,1.775-.325,2.025-1.525a38.08,38.08,0,0,0,.375-5.15c.925-.05,1.75-.1,2.4-.1.65-.025,1.75-.05,2.175-.025v-2.45c-.65.05-1.5.125-2.15.15-.7.05-1.525.1-2.375.175.025-1,.025-2.075.05-3.15A14.856,14.856,0,0,1,74.4-19.425Z" transform="translate(78.275 20.925)" fill="#bb778e"/>
</svg>