<?xml version="1.0" encoding="UTF-8"?>
<svg id="_レイヤー_2" data-name="レイヤー 2" xmlns="http://www.w3.org/2000/svg" viewBox="0 0 9.62 2.52">
  <defs>
    <style>
      .cls-1 {
        fill: #c87290;
        stroke-width: 0px;
      }
    </style>
  </defs>
  <g id="hamburger">
    <g>
      <path class="cls-1" d="m.59,0v2.52H.23V.1h-.23v-.1h.59Z"/>
      <path class="cls-1" d="m1.8,0h.69c.37,0,.66.06.86.17.21.11.36.26.46.46.1.19.15.41.15.67,0,.18-.03.35-.08.5-.06.15-.13.28-.23.37-.09.1-.21.18-.34.23-.12.05-.24.08-.36.09-.11.01-.27.02-.48.02h-.69V0Zm.75,2.43c.22,0,.39-.03.53-.09s.26-.17.35-.35c.09-.17.14-.4.14-.67,0-.21-.03-.4-.08-.57-.05-.16-.13-.3-.23-.4-.1-.11-.21-.17-.34-.21-.12-.03-.28-.06-.47-.06-.09,0-.2,0-.28.01v2.33h.38Z"/>
      <path class="cls-1" d="m6,1.59h-.93l-.35.92h-.13l1.04-2.52h.07l1.07,2.52h-.39c-.13-.33-.19-.46-.19-.46l-.19-.46Zm-.03-.08l-.44-1.05-.43,1.05h.87Z"/>
      <path class="cls-1" d="m9.62,0l-.92,1.52v1h-.36v-.97l-.96-1.54h.46l.82,1.42.81-1.42h.15Z"/>
    </g>
  </g>
</svg>