<?xml version="1.0" encoding="UTF-8"?>
<svg id="_レイヤー_2" data-name="レイヤー 2" xmlns="http://www.w3.org/2000/svg" viewBox="0 0 29.59 3.01">
  <defs>
    <style>
      .cls-1 {
        fill: #c87290;
        stroke-width: 0px;
      }
    </style>
  </defs>
  <g id="hamburger">
    <g>
      <path class="cls-1" d="m0,1.7s.02-.06.06-.09c.37-.22.59-.54.75-.86.02-.04.06-.06.09-.06.05,0,.1.05.1.1,0,.01,0,.03-.01.04C.7,1.39.24,1.8.1,1.8c-.06,0-.1-.05-.1-.09Zm.31,1.21c-.06,0-.09-.05-.09-.1,0-.04.03-.09.09-.09.13,0,.28-.02.42-.03.15-.28.39-.93.48-1.31.01-.05.05-.07.09-.07.06,0,.12.04.12.09,0,.08-.29.87-.48,1.26.44-.05.89-.12,1.27-.19-.11-.16-.24-.31-.37-.43-.02-.02-.03-.04-.03-.06,0-.05.04-.08.1-.08.02,0,.05,0,.07.03.36.31.64.8.64.9,0,.07-.06.12-.11.12-.04,0-.07-.02-.09-.08-.03-.08-.07-.17-.12-.25-.7.16-1.79.29-1.99.29ZM1.02.42h0c-.06,0-.09-.05-.09-.09,0-.04.03-.09.09-.09h.54s.02-.01.02-.01c.17,0,.3.05.38.22.21.42.47.75.9,1.01.04.02.06.06.06.09,0,.06-.06.12-.13.12-.11,0-.65-.42-.99-1.11-.06-.12-.14-.15-.27-.15h-.51Z"/>
      <path class="cls-1" d="m5.66.88c.04.64.16,1.29.54,1.73.07.08.14.13.19.13.09,0,.16-.12.23-.36.01-.05.06-.08.09-.08.05,0,.1.03.1.09,0,.04-.11.54-.42.54-.11,0-.22-.06-.31-.17-.39-.46-.55-1.14-.6-1.88h-1.55c-.06,0-.09-.04-.09-.08,0-.05.03-.09.09-.09h1.54c-.01-.2-.01-.41-.01-.62,0-.06.05-.09.1-.09.05,0,.1.03.1.1h0c0,.12,0,.23,0,.35,0,.09,0,.17,0,.26h1.02c.06,0,.09.04.09.08,0,.04-.03.09-.09.09h-1.01Zm-1.08.71h-.48c-.06,0-.08-.04-.08-.08s.03-.08.08-.08h1.12c.06,0,.08.04.08.08,0,.04-.02.08-.08.08h-.46v.8c.23-.07.44-.13.58-.18.01,0,.03,0,.04,0,.05,0,.08.04.08.08,0,.03-.02.06-.06.08-.44.17-1.31.41-1.42.41-.06,0-.1-.05-.1-.1,0-.04.02-.08.09-.09.19-.04.4-.08.61-.14v-.85Zm1.71-1.12c-.1-.11-.28-.22-.36-.26-.03-.01-.04-.04-.04-.07,0-.04.03-.08.09-.08.07,0,.36.19.44.26.02.03.04.05.04.08,0,.05-.04.1-.09.1-.02,0-.05,0-.07-.03Z"/>
      <path class="cls-1" d="m9.33,1.88c.05.15.13.3.25.43.14-.06.5-.21.66-.29.01,0,.03,0,.05,0,.05,0,.1.04.1.09,0,.06,0,.08-.7.32.21.2.51.35.89.4.05,0,.07.05.07.08,0,.05-.04.09-.1.09-.27,0-1.12-.27-1.38-1.12-.11.08-.22.15-.33.22v.59c.2-.04.38-.09.52-.13,0,0,.02,0,.02,0,.04,0,.08.04.08.08,0,.03-.02.06-.07.07-.52.15-1.31.3-1.37.3-.07,0-.1-.04-.1-.09s.03-.08.08-.09c.21-.03.44-.07.66-.11v-.52c-.41.22-.88.38-.94.38-.06,0-.09-.04-.09-.09,0-.03.02-.06.06-.07.45-.12.83-.28,1.21-.53h-1.12c-.05,0-.08-.03-.08-.07s.02-.08.08-.08h1.25s0-.25,0-.25c0-.05.04-.08.09-.08s.09.02.09.08v.25s1.25,0,1.25,0c.05,0,.07.04.07.08s-.02.08-.07.08h-1.16Zm-.85-.94c-.18.14-.58.34-.68.34-.06,0-.09-.05-.09-.09,0-.03.02-.07.06-.08.23-.08.53-.22.72-.34V.09c0-.06.05-.08.09-.08s.09.03.09.08v1.33c0,.05-.04.08-.09.08s-.09-.02-.09-.08v-.47Zm-.35-.33c-.08-.12-.18-.21-.3-.3-.02-.02-.03-.03-.03-.05,0-.04.05-.08.1-.08.1,0,.39.26.39.36,0,.06-.05.1-.1.1-.02,0-.05-.01-.07-.04Zm.85.71c-.06,0-.08-.04-.08-.08s.03-.08.08-.08h.62v-.51h-.69c-.06,0-.08-.04-.08-.07s.03-.08.08-.08h.69s0-.42,0-.42c0-.06.05-.09.1-.09.04,0,.09.03.09.09v.43h.75c.06,0,.08.04.08.07,0,.04-.03.08-.08.08h-.75s0,.51,0,.51h.65c.06,0,.08.04.08.08s-.02.08-.08.08h-1.46Z"/>
      <path class="cls-1" d="m14.23,2.6h0c0,.21-.09.4-.47.4-.09,0-.19-.01-.3-.03-.06-.01-.08-.05-.08-.09,0-.05.03-.09.09-.09h.02c.12.02.21.04.29.04.18,0,.27-.07.27-.25s0-.41,0-.67h-.94v.99c0,.06-.04.09-.09.09-.05,0-.09-.03-.09-.09v-.99h-.89c-.04.4-.13.78-.32,1.06-.03.04-.07.06-.1.06-.06,0-.11-.04-.11-.09,0-.02,0-.04.02-.05.29-.42.35-1.01.35-1.57,0-.26-.01-.52-.02-.74h0c0-.26.15-.39.44-.4.27,0,.55-.01.83-.01.23,0,.47,0,.71.01.23,0,.39.13.39.35.01.5,0,1.32.01,1.71v.38Zm-1.32-1.49h-.87c0,.07,0,.13,0,.2,0,.14,0,.28-.01.42h.88v-.62Zm0-.8c-.21,0-.41,0-.62.01-.17,0-.26.09-.26.25,0,.11,0,.24,0,.37h.87V.32Zm1.12.64c0-.14,0-.27,0-.37,0-.15-.06-.25-.25-.25-.23,0-.45-.01-.68-.01v.64h.94Zm-.94.16v.62h.94c0-.21,0-.43,0-.62h-.94Z"/>
      <path class="cls-1" d="m16.22,2.65c-.08,0-.11-.05-.11-.11,0-.02,0-.03,0-.05.06-.2.09-.87.09-1.17,0-.09,0-.25-.02-.32,0-.02-.01-.05-.01-.08,0-.06.04-.11.1-.11.14,0,.15.14.15.41,0,.15-.05.78-.07,1.05h0c0,.06,0,.08.04.08.1,0,1.13-.63,1.58-1.34.03-.04.07-.07.1-.07.06,0,.11.05.11.11,0,.02,0,.05-.02.07-.51.8-1.69,1.52-1.94,1.52Z"/>
      <path class="cls-1" d="m20.11,2.2c0,.23.15.31.54.31.3,0,.65-.05.84-.15.03-.02.06-.02.08-.02.07,0,.12.05.12.1,0,.18-.5.28-.97.28-.31,0-.81,0-.81-.45,0-.04,0-.4.04-1.08,0-.06,0-.11,0-.15,0-.16-.01-.25-.02-.31v-.02c0-.07.06-.12.11-.12.11,0,.12.1.12.32,0,.03-.02.45-.03.61.11-.02.82-.15,1.12-.4.02-.02.05-.03.08-.03.06,0,.13.05.13.11,0,.25-1.18.49-1.34.52-.02.46-.02.47-.02.48Zm1.64-1.12c-.06-.07-.26-.22-.35-.25-.04-.02-.05-.04-.05-.06,0-.04.04-.08.09-.08.06,0,.45.21.45.33,0,.05-.04.09-.09.09-.02,0-.04,0-.05-.02Zm.31-.28c-.06-.07-.27-.21-.36-.25-.04-.02-.05-.04-.05-.06,0-.04.04-.08.09-.08.05,0,.46.19.46.31,0,.05-.05.1-.09.1-.02,0-.03,0-.05-.02Z"/>
      <path class="cls-1" d="m24.92,2.35c.27-.02.36-.03.4-.03.13,0,.15.06.15.1,0,.05-.05.09-.13.09s-.14,0-.21,0c-.12,0-.59.02-1.08.07-.16.01-.24.02-.3.02-.04,0-.16,0-.16-.1,0-.04.04-.09.12-.09h.01s.09,0,.14,0c.06,0,.12,0,.18,0,.14-.01.38-.03.6-.04.05-.21.14-.52.16-.64h0s0-.03-.03-.03h0c-.12.01-.34.06-.44.07-.1.01-.2.03-.31.03-.06,0-.09-.05-.09-.09s.03-.09.1-.09c.12,0,.22-.01.34-.03.14-.02.33-.06.46-.07.01,0,.02,0,.04,0,.13,0,.17.09.17.16,0,.02,0,.05,0,.06-.09.19-.13.41-.19.62h.1Z"/>
      <path class="cls-1" d="m29.44,1.6h-.19c-.68,0-1.19.03-1.48.04-.18,0-.28.01-.35.01-.14,0-.24-.01-.24-.11,0-.05.04-.1.14-.1h.01c.13,0,.29.01.43.01.29,0,1.05-.04,1.68-.06.12,0,.14.07.14.1,0,.05-.05.1-.15.1h0Z"/>
    </g>
  </g>
</svg>