<?xml version="1.0" encoding="UTF-8"?>
<svg id="_レイヤー_2" data-name="レイヤー 2" xmlns="http://www.w3.org/2000/svg" viewBox="0 0 22.11 2.91">
  <defs>
    <style>
      .cls-1 {
        fill: #c87290;
        stroke-width: 0px;
      }
    </style>
  </defs>
  <g id="hamburger">
    <g>
      <path class="cls-1" d="m1.06,2.38c0,.06.02.13.02.19,0,.15-.12.15-.13.15-.03,0-.04,0-.2-.07-.07-.04-.21-.09-.31-.12-.02,0-.04-.02-.05-.03-.13.1-.2.16-.28.16-.07,0-.1-.04-.1-.09,0-.04.02-.07.06-.09.05-.02.17-.08.78-.55-.03-.29-.04-.53-.04-.76v-.09c-.07.03-.24.06-.3.06-.03,0-.28,0-.28-.14,0-.04.04-.09.09-.09.02,0,.04,0,.07.01.04.02.09.03.14.03.06,0,.14-.01.28-.06,0-.16.02-.32.05-.49,0-.07.06-.1.11-.1.05,0,.1.04.1.1,0,0,0,.02,0,.03-.03.13-.06.25-.07.38.11-.05.21-.1.27-.15.02-.02.05-.03.08-.03.05,0,.09.03.09.08,0,.11-.22.2-.45.29,0,.07,0,.13,0,.2,0,.18.01.38.03.6.33-.24.59-.38.92-.38.36,0,.52.2.52.43,0,.37-.41.73-.76.73-.19,0-.31-.1-.31-.29,0-.02,0-.3.16-.3.05,0,.09.04.09.09,0,.02,0,.04-.02.06-.03.05-.04.1-.04.14,0,.08.05.13.14.13.24,0,.55-.28.55-.54,0-.15-.1-.27-.36-.27-.28,0-.52.15-.87.41.01.12.03.25.04.39Zm-.56.03c.07.02.22.06.3.09.02,0,.04.01.05.01.02,0,.04-.02.04-.06,0-.02,0-.05,0-.09,0-.09-.02-.17-.03-.25q-.14.1-.36.29h0ZM2.63,1c-.06-.07-.18-.15-.32-.15-.11,0-.23.05-.34.18-.02.02-.05.04-.08.04-.04,0-.09-.03-.09-.07,0-.08.2-.31.54-.31.28,0,.47.17.47.26,0,.05-.04.1-.09.1-.02,0-.05-.01-.08-.04Z"/>
      <path class="cls-1" d="m3.8,2.83c.02-.65.02-1.77.02-2.53,0-.3.22-.3.55-.3.12,0,.25,0,.31,0,.18,0,.28.11.28.24,0,.1,0,.22,0,.34,0,.09,0,.17,0,.24,0,.15-.08.27-.31.28-.08,0-.22,0-.36,0-.1,0-.21,0-.3,0v.35c0,.4,0,.87-.01,1.38,0,.06-.05.09-.1.09-.04,0-.09-.03-.09-.08h0ZM4.8.49c0-.07,0-.14,0-.19,0-.14-.09-.15-.39-.15-.41,0-.41.01-.41.34h.8Zm-.8.14v.33c.1,0,.3.01.45.01.35,0,.35-.02.35-.35h-.8Zm1.16,1.82c-.12,0-.23,0-.33,0-.17-.01-.29-.12-.3-.3,0-.07,0-.15,0-.22,0-.08,0-.16,0-.23,0-.16.13-.27.29-.28.08,0,.17,0,.26,0,.13,0,.25,0,.37,0,.18,0,.3.13.3.26,0,.07,0,.15,0,.23,0,.43-.02.54-.6.54Zm-.02-.9c-.43,0-.43.01-.43.42,0,.29.03.31.46.31.4,0,.41-.04.41-.33,0-.4,0-.41-.44-.41Zm.88-.43c-.15,0-.3,0-.38,0-.22-.01-.3-.13-.31-.28,0-.07,0-.15,0-.23,0-.12,0-.25,0-.35,0-.13.1-.23.28-.24.07,0,.2,0,.33,0,.09,0,.19,0,.25,0,.25,0,.33.15.33.28,0,.59,0,1.24,0,1.76,0,.17,0,.32,0,.44,0,.21-.07.41-.46.41-.24,0-.31-.02-.31-.1,0-.05.03-.09.08-.09h.01c.09.01.16.02.23.02.17,0,.25-.06.25-.25,0-.12,0-.24,0-.37,0-.27,0-.56,0-.84v-.16c-.09,0-.2,0-.31,0Zm.31-.62c0-.34-.02-.34-.41-.34s-.42,0-.42.34h.83Zm0,.14h-.83c0,.34.02.35.36.35.16,0,.37,0,.47-.01v-.33Z"/>
      <path class="cls-1" d="m8.65,2.39c-.1,0-.22-.04-.34-.14-.32-.24-.44-.75-.49-1.02,0-.04-.07-.34-.07-.37,0-.06.05-.1.1-.1.05,0,.09.03.1.09.02.11.04.25.06.37.15.86.55.94.6.94s.09-.04.12-.1c.05-.11.07-.25.11-.37.02-.05.05-.07.08-.07.05,0,.1.04.1.1,0,0,0,0,0,.02-.03.15-.08.31-.11.46-.02.12-.12.2-.26.2Zm1.47-.71c-.03-.28-.26-.56-.51-.76-.02-.02-.03-.04-.03-.06,0-.05.04-.09.09-.09.02,0,.06.01.09.04.21.17.57.52.57.83,0,.09-.06.13-.12.13-.05,0-.09-.03-.1-.1Z"/>
      <path class="cls-1" d="m14.19,1.29c-.13,0-.74-.52-1.18-1.01-.05-.06-.1-.09-.15-.09-.04,0-.09.03-.14.09-.42.53-1.08,1.11-1.22,1.11-.06,0-.11-.05-.11-.1,0-.04.02-.07.06-.09.42-.23.87-.7,1.14-1.05.07-.09.16-.13.25-.13s.19.04.27.13c.35.37.71.72,1.14.96.04.02.05.05.05.08,0,.06-.05.11-.12.11Zm-.75,1.5c-.22,0-.41.01-.6.01-.17,0-.34,0-.52-.01-.24-.01-.36-.15-.37-.31,0-.08,0-.16,0-.25s0-.16,0-.23c0-.15.11-.31.36-.32.17,0,.35,0,.54,0s.4,0,.61,0c.21,0,.33.15.35.29,0,.07,0,.14,0,.22,0,.09,0,.19,0,.29,0,.16-.12.31-.36.32Zm.18-.56c0-.28-.01-.38-.23-.39-.13,0-.29,0-.46,0-.2,0-.41,0-.58,0-.21,0-.23.14-.23.37,0,.28,0,.41.23.42.16,0,.36.01.55.01.17,0,.34,0,.49-.01.21-.01.23-.11.23-.39Zm-1.36-1.05c-.06,0-.09-.04-.09-.08s.03-.08.08-.08h1.26c.06,0,.08.04.08.08s-.03.08-.09.08h-1.25Z"/>
      <path class="cls-1" d="m16.23,1.36c0,.06,0,.11-.01.16.1-.1.58-.56,1.12-.56.43,0,.77.32.77.63,0,.6-1.08,1.05-1.22,1.05-.06,0-.09-.04-.09-.09,0-.04.02-.08.07-.1.74-.25,1.03-.61,1.03-.86,0-.2-.23-.47-.59-.47-.41,0-.88.35-1.11.63,0,.12-.01.25-.01.36,0,.19.01.37.03.53v.02c0,.07-.05.11-.1.11-.1,0-.11-.11-.11-.52,0-.11,0-.21,0-.32-.14.16-.33.38-.44.55-.03.05-.08.07-.12.07-.06,0-.1-.04-.1-.09,0-.02.01-.05.04-.08.05-.05.13-.13.17-.19.1-.17.35-.58.49-.84,0-.07.01-.13.02-.2-.45.37-.54.37-.57.37-.06,0-.09-.04-.09-.09s.03-.09.08-.1c.08-.02.46-.28.6-.39.02-.25.04-.49.05-.7,0-.07.05-.09.09-.09.05,0,.1.03.1.09,0,0-.02.22-.06.58.02,0,.03-.01.05-.01.05,0,.09.03.09.09,0,.03,0,.07-.03.11-.05.09-.1.18-.15.28v.06Zm-.23.39l.03-.03v-.04s-.03.07-.05.1l.02-.03Z"/>
      <path class="cls-1" d="m21.14,1.23c-.07.34-.15.71-.39.71-.16,0-.26-.2-.26-.24,0-.05.04-.09.09-.09.02,0,.05.01.07.05.04.06.07.09.1.09.12,0,.18-.32.22-.56v-.02c-.29.09-.59.21-.84.32.01.14.03.28.04.39.03.38.06.58.51.58.21,0,.38-.04.54-.09.02,0,.04,0,.05,0,.07,0,.11.05.11.1,0,.04-.03.09-.1.11-.17.05-.38.07-.55.07-.67,0-.71-.26-.78-1.07-.09.04-.17.08-.23.11-.37.19-.57.22-.58.22-.07,0-.12-.05-.12-.11,0-.04.03-.09.11-.11.23-.05.44-.14.81-.3,0-.08-.01-.15-.02-.2-.02-.2-.04-.34-.06-.46v-.02c0-.07.05-.11.1-.11s.1.03.11.1c.02.1.02.29.03.42,0,.05,0,.12.01.19.27-.11.58-.23.89-.33.02-.19.09-.58.1-.62,0-.06.06-.08.1-.08.06,0,.11.04.11.1,0,.01,0,.02,0,.03-.01.04-.08.32-.11.52.16-.04.41-.09.64-.09.21,0,.27.04.27.11,0,.05-.04.1-.12.1h-.03c-.07-.01-.14-.01-.21-.01-.25,0-.48.05-.59.08l-.02.12Z"/>
    </g>
  </g>
</svg>