<?xml version="1.0" encoding="UTF-8"?>
<svg id="_レイヤー_2" data-name="レイヤー 2" xmlns="http://www.w3.org/2000/svg" viewBox="0 0 36.89 3.07">
  <defs>
    <style>
      .cls-1 {
        fill: #c87290;
        stroke-width: 0px;
      }
    </style>
  </defs>
  <g id="hamburger">
    <g>
      <path class="cls-1" d="m.14,2.89c-.07,0-.11-.04-.11-.1,0-.04.03-.09.1-.12,1.1-.4,1.63-1.64,1.63-1.75,0-.04-.04-.05-.07-.05h-.01c-.27.01-.88.1-1.12.13-.14.01-.24.03-.37.03-.08,0-.18,0-.18-.11,0-.05.04-.1.13-.1h.01s.06,0,.09,0c.12,0,.23-.01.36-.02.3-.02.79-.1,1.17-.13h.04c.17,0,.24.08.24.17,0,.03,0,.07-.02.1-.32.72-.82,1.51-1.79,1.91-.03.01-.06.02-.09.02ZM2.34.68c-.19,0-.34-.15-.34-.34s.15-.34.34-.34.34.16.34.34-.15.34-.34.34Zm0-.54c-.11,0-.2.09-.2.21s.09.2.2.2.2-.09.2-.2-.09-.21-.2-.21Z"/>
      <path class="cls-1" d="m4.2,2.94s-.04,0-.06,0c-.07,0-.12-.05-.12-.1,0-.04.03-.08.09-.11,1.03-.36,1.5-1.36,1.5-1.49,0-.03-.02-.05-.07-.05h-.02c-.27.02-.92.1-1.09.12-.31.03-.36.04-.42.04-.07,0-.12-.06-.12-.11,0-.05.03-.09.12-.09.18,0,.22-.01.38-.02.17-.01.78-.08,1.18-.12.01,0,.03,0,.04,0,.16,0,.25.09.25.2,0,.03-.01.07-.03.11-.38.72-.77,1.26-1.66,1.62Zm1.23-2.38s-.61.08-1.1.09c-.07,0-.1-.05-.1-.1,0-.09.08-.09.15-.09.44,0,.96-.08,1.05-.09h.02c.07,0,.11.04.11.09,0,.04-.04.08-.12.1Z"/>
      <path class="cls-1" d="m9.02,2.85c0,.09-.06.13-.11.13-.05,0-.1-.04-.1-.13h0c0-.31.02-.72.02-1.05,0-.2,0-.34-.02-.42-.41.44-1.04.93-1.2.93-.07,0-.11-.05-.11-.1,0-.04.02-.08.07-.1.81-.4,1.53-1.27,1.66-1.69.01-.05.06-.07.1-.07.06,0,.11.04.11.11,0,.06-.08.29-.48.75.06.06.06.2.06.27,0,.04,0,.08,0,.12,0,.18-.01.5-.01.8,0,.16,0,.32,0,.45h0Z"/>
      <path class="cls-1" d="m11.2,2.37c-.07,0-.12-.05-.12-.1,0-.04.03-.08.09-.11.31-.12.78-.52.87-.89,0-.04.05-.07.1-.07.06,0,.11.03.11.1,0,.01,0,.02,0,.04-.13.49-.86,1.03-1.05,1.03Zm2.5-.21c-.17-.34-.59-.68-.87-.83-.03-.02-.04-.04-.04-.07,0-.05.04-.1.1-.1.15,0,1.01.7,1.01.95,0,.07-.06.12-.11.12-.04,0-.07-.02-.1-.07Zm-.18-1.02c-.06-.07-.26-.22-.35-.26-.04-.02-.05-.04-.05-.06,0-.04.04-.08.09-.08.06,0,.45.21.45.33,0,.05-.04.09-.09.09-.02,0-.04,0-.05-.02Zm.31-.28c-.06-.07-.27-.21-.36-.25-.04-.02-.05-.04-.05-.06,0-.04.04-.08.09-.08.04,0,.46.18.46.31,0,.05-.04.1-.09.1-.02,0-.04,0-.05-.02Z"/>
      <path class="cls-1" d="m15.83,1.78c-.14-.09-.33-.18-.49-.2-.05,0-.07-.04-.07-.09,0-.05.04-.1.1-.1.1,0,.45.14.57.2.04.02.06.06.06.09,0,.06-.05.12-.11.12-.02,0-.05,0-.07-.02Zm1.77-.9s.06-.06.1-.06c.05,0,.1.03.1.1,0,.03,0,.06-.03.1-.46.79-.99,1.31-1.71,1.72-.11.06-.25.12-.36.12-.09,0-.13-.06-.13-.12,0-.05.03-.09.08-.1.56-.1,1.43-.81,1.95-1.76Zm-1.33.28c-.12-.12-.29-.25-.43-.3-.03-.01-.05-.04-.05-.07,0-.05.04-.1.11-.1.09,0,.37.17.53.32.03.02.04.06.04.09,0,.06-.05.11-.11.11-.03,0-.06-.01-.09-.04Z"/>
      <path class="cls-1" d="m21.34,1.64h-.19c-.68,0-1.2.03-1.48.04-.18,0-.28.01-.35.01-.14,0-.24-.01-.24-.11,0-.05.04-.1.14-.1h.01c.13,0,.29.01.43.01.29,0,1.05-.04,1.68-.06.12,0,.14.07.14.1,0,.05-.04.1-.15.1h0Z"/>
      <path class="cls-1" d="m22.8,2.42s.02-.07.06-.09c.2-.1.43-.38.53-.54.02-.03.05-.04.08-.04.05,0,.1.04.1.09,0,.11-.51.69-.66.69-.06,0-.1-.05-.1-.11Zm1.42-.88c0,.27,0,.57.01.81,0,.06,0,.12,0,.17,0,.3-.14.31-.14.31-.05,0-.09-.04-.11-.07-.04-.08-.1-.17-.16-.24-.06-.07-.14-.15-.15-.17-.03-.03-.04-.06-.04-.08,0-.05.05-.08.1-.08.02,0,.05,0,.06.02.15.16.18.21.21.21.02,0,.03-.03.03-.09,0-.21,0-.47,0-.73v-.31c-.19.01-.35.03-.5.04-.24.02-.36.04-.45.04-.14,0-.14-.09-.14-.1,0-.05.04-.1.12-.1h.08c.12,0,.27,0,.38-.02.14-.01.31-.03.51-.04,0-.28,0-.43-.03-.55,0,0,0-.02,0-.03,0-.06.05-.1.11-.1.12,0,.12.13.12.33,0,.09,0,.21,0,.34.1,0,.21-.01.31-.02.4-.03.48-.03.5-.03.11,0,.25.01.25.12,0,.05-.05.1-.16.1-.01,0-.03,0-.04,0-.1-.01-.19-.02-.28-.02-.09,0-.27,0-.58.03v.27Zm.99.78c-.12-.19-.42-.4-.58-.49-.03-.01-.04-.04-.04-.06,0-.04.05-.09.11-.09.1,0,.71.42.71.58,0,.06-.05.12-.11.12-.03,0-.06-.02-.08-.05Zm-.18-1.51c-.18,0-.33-.15-.33-.33s.15-.34.33-.34.33.15.33.34-.15.33-.33.33Zm0-.53c-.11,0-.2.09-.2.2s.09.2.2.2.2-.09.2-.2-.09-.2-.2-.2Z"/>
      <path class="cls-1" d="m27.36,3.07c-.07,0-.1-.05-.1-.1,0-.04.02-.08.07-.1.68-.32,1-1.02,1-1.58h0v-.1c0-.17,0-.27,0-.38,0-.01,0-.12-.01-.25,0-.06,0-.11-.02-.15,0-.01,0-.02,0-.03,0-.07.05-.11.1-.11.06,0,.13.04.13.14,0,.06,0,.11,0,.31,0,.1,0,.18,0,.27,0,.09,0,.18,0,.29v.02c0,.64-.38,1.39-1.09,1.75-.03.02-.06.02-.09.02Zm.11-1.32s0-.02,0-.02c.03-.14.04-.31.04-.47s-.01-.46-.06-.64c0-.02,0-.04,0-.05,0-.08.05-.12.11-.12.1,0,.14.06.14.41,0,.14,0,.32,0,.46v.09c0,.35-.03.45-.14.45-.05,0-.1-.04-.1-.11Z"/>
      <path class="cls-1" d="m31.23,1.78c-.14-.09-.33-.18-.49-.2-.05,0-.07-.04-.07-.09,0-.05.04-.1.1-.1.11,0,.45.14.57.2.04.02.06.06.06.09,0,.06-.05.12-.1.12-.02,0-.05,0-.07-.02Zm1.77-.9s.06-.06.1-.06c.05,0,.1.03.1.1,0,.03-.01.06-.03.1-.46.79-.99,1.31-1.71,1.72-.11.06-.25.12-.36.12-.09,0-.13-.06-.13-.12,0-.05.03-.09.08-.1.55-.1,1.43-.81,1.95-1.76Zm-1.33.28c-.12-.12-.29-.25-.43-.3-.04-.01-.05-.04-.05-.07,0-.05.04-.1.1-.1.09,0,.37.17.53.32.03.02.04.06.04.09,0,.06-.05.11-.11.11-.03,0-.06-.01-.09-.04Z"/>
      <path class="cls-1" d="m36.74,1.64h-.19c-.68,0-1.19.03-1.48.04-.18,0-.28.01-.35.01-.14,0-.24-.01-.24-.11,0-.05.04-.1.14-.1h.01c.13,0,.29.01.43.01.29,0,1.05-.04,1.68-.06.12,0,.14.07.14.1,0,.05-.05.1-.15.1h0Z"/>
    </g>
  </g>
</svg>