<svg xmlns="http://www.w3.org/2000/svg" width="264.325" height="22.625" viewBox="0 0 264.325 22.625">
  <path id="パス_132" data-name="パス 132" d="M-114.75-18.125A1.579,1.579,0,0,1-113.2-19.7a1.6,1.6,0,0,1,1.575,1.575,1.579,1.579,0,0,1-1.575,1.55A1.558,1.558,0,0,1-114.75-18.125Zm-1.325,0a3.1,3.1,0,0,0,.075.675,8.487,8.487,0,0,1-1.075.05H-129.2c-.825,0-2-.1-2.7-.175v2.8c.65-.05,1.65-.1,2.7-.1h12.3A18.115,18.115,0,0,1-120.025-7.2,16.774,16.774,0,0,1-129.8-1.25l2.15,2.35a19.444,19.444,0,0,0,9.925-6.775c2.025-2.675,3.175-6.625,3.75-9.175.025-.15.075-.325.1-.475a3.1,3.1,0,0,0,.675.075,2.881,2.881,0,0,0,2.9-2.875A2.9,2.9,0,0,0-113.2-21,2.875,2.875,0,0,0-116.075-18.125Zm14.15-.725v2.575c.7-.05,1.6-.075,2.4-.075h9.7c.85,0,1.85.025,2.475.075V-18.85a23.883,23.883,0,0,1-2.45.125h-9.725A22.87,22.87,0,0,1-101.925-18.85Zm16.55,6.875-1.775-1.1a4.96,4.96,0,0,1-1.6.225h-12.8c-.725,0-1.675-.075-2.65-.175v2.6c.95-.075,2.05-.1,2.65-.1h12.725a11.784,11.784,0,0,1-2.775,5,16.819,16.819,0,0,1-8.75,4.5l1.95,2.25A18.473,18.473,0,0,0-89.45-4.1a17.689,17.689,0,0,0,3.675-7A4.391,4.391,0,0,1-85.375-11.975Zm6.9,2.65L-77.25-6.85a51.149,51.149,0,0,0,9.225-3.875v8.7a28.968,28.968,0,0,1-.15,2.95h3.1a18.8,18.8,0,0,1-.175-2.95V-12.4a42.173,42.173,0,0,0,6.725-5.475l-2.1-2a30.86,30.86,0,0,1-6.95,5.95A41.283,41.283,0,0,1-78.475-9.325Zm44.15-10.35L-35.95-19a30.068,30.068,0,0,1,2,3.45l1.625-.7A31.364,31.364,0,0,0-34.325-19.675ZM-31.5-20.75l-1.6.675a27.879,27.879,0,0,1,2.05,3.45l1.625-.725C-29.9-18.25-30.85-19.8-31.5-20.75ZM-48.45-7.625a32.049,32.049,0,0,1-3.875,6.85L-49.6.375A36.266,36.266,0,0,0-45.925-6.6a53.3,53.3,0,0,0,2.2-7.7c.125-.55.35-1.5.525-2.125L-46.025-17A37.735,37.735,0,0,1-48.45-7.625ZM-36.125-8.4A85.283,85.283,0,0,1-33.4.3l2.85-.925c-.675-2.35-2-6.25-2.95-8.65-1-2.525-2.65-6.15-3.675-8.025l-2.575.85A66.7,66.7,0,0,1-36.125-8.4Zm17.35-11.075-1.425,2.15c1.55.875,4.225,2.65,5.5,3.575l1.475-2.15C-14.4-16.75-17.225-18.6-18.775-19.475ZM-22.9-1.65-21.425.925a29.292,29.292,0,0,0,8.3-3.1,29.761,29.761,0,0,0,9.775-8.95l-1.525-2.65A25.714,25.714,0,0,1-14.45-4.5,27.454,27.454,0,0,1-22.9-1.65Zm.325-12.15L-24-11.65a62.567,62.567,0,0,1,5.575,3.5l1.45-2.225C-18.15-11.2-21-12.975-22.575-13.8ZM3.3-11.15v3.1c.85-.075,2.35-.125,3.725-.125h13.6c1.1,0,2.25.1,2.8.125v-3.1c-.625.05-1.6.15-2.8.15H7.025C5.675-11,4.125-11.1,3.3-11.15ZM47.225-18.6A1.483,1.483,0,0,1,48.7-20.1a1.5,1.5,0,0,1,1.5,1.5,1.5,1.5,0,0,1-1.5,1.5A1.483,1.483,0,0,1,47.225-18.6Zm-1.325,0a2.8,2.8,0,0,0,2.8,2.8,2.817,2.817,0,0,0,2.825-2.8A2.817,2.817,0,0,0,48.7-21.4,2.8,2.8,0,0,0,45.9-18.6Zm-3.85-.875H39.1a10.651,10.651,0,0,1,.2,1.95V-15.2H32.6a20.757,20.757,0,0,1-2.225-.15v2.625c.675-.05,1.475-.075,2.25-.075H39.3V-2.075c-.025.675-.3.925-.95.925a17.066,17.066,0,0,1-2.85-.275l.225,2.475a37.451,37.451,0,0,0,3.775.175c1.65,0,2.35-.775,2.35-2.125V-12.8h6.3c.625,0,1.475,0,2.2.05v-2.6a16.633,16.633,0,0,1-2.225.15H41.85v-2.3A13.43,13.43,0,0,1,42.05-19.475Zm-5.675,10.4L34.15-10.15a25.951,25.951,0,0,1-4.725,6.5l2.15,1.475A37.353,37.353,0,0,0,36.375-9.075Zm10.575-1.1L44.8-9a43.29,43.29,0,0,1,4.15,6.675l2.3-1.3A53.72,53.72,0,0,0,46.95-10.175ZM75.075-19.15H72.1a19.329,19.329,0,0,1,.15,2.3v4.3c0,4.375-.325,6.325-2.075,8.325a11.661,11.661,0,0,1-6,3.25L66.25,1.2a13.654,13.654,0,0,0,5.975-3.65c1.85-2.1,2.75-4.225,2.75-9.95v-4.45C74.975-17.75,75.025-18.5,75.075-19.15Zm-11.6.2H60.6a16.148,16.148,0,0,1,.1,1.85v8.375c0,.725-.075,1.6-.1,2.025h2.875c-.05-.5-.1-1.375-.1-2.025V-17.1C63.375-17.8,63.425-18.425,63.475-18.95Zm26.75-.525L88.8-17.325c1.55.875,4.225,2.65,5.5,3.575l1.475-2.15C94.6-16.75,91.775-18.6,90.225-19.475ZM86.1-1.65,87.575.925a29.292,29.292,0,0,0,8.3-3.1,29.761,29.761,0,0,0,9.775-8.95l-1.525-2.65A25.714,25.714,0,0,1,94.55-4.5,27.454,27.454,0,0,1,86.1-1.65Zm.325-12.15L85-11.65a62.567,62.567,0,0,1,5.575,3.5l1.45-2.225C90.85-11.2,88-12.975,86.425-13.8ZM112.3-11.15v3.1c.85-.075,2.35-.125,3.725-.125h13.6c1.1,0,2.25.1,2.8.125v-3.1c-.625.05-1.6.15-2.8.15h-13.6C114.675-11,113.125-11.1,112.3-11.15Z" transform="translate(131.9 21.4)" fill="#bb778e"/>
</svg>