<svg xmlns="http://www.w3.org/2000/svg" width="212" height="23.1" viewBox="0 0 212 23.1">
  <path id="パス_129" data-name="パス 129" d="M-93.125-19.35a53.16,53.16,0,0,0,7.15,9.95A11.66,11.66,0,0,1-84-11.425a35.755,35.755,0,0,1-6.825-8.9Zm-7-.975a23,23,0,0,1-6.45,9.2A12.86,12.86,0,0,1-104.35-9.4,30.692,30.692,0,0,0-97.5-19.6Zm7.3,13.75c1.075,1.325,2.225,2.9,3.25,4.425-3.375.175-6.8.325-9.85.45a100.085,100.085,0,0,0,4.6-9.6l-2.75-.675A65.536,65.536,0,0,1-102.1-1.6c-1.25.05-2.4.1-3.425.125l.3,2.45C-100.8.75-94.325.425-88.2.05q.675,1.125,1.125,2.025L-84.7.8a56.8,56.8,0,0,0-5.9-8.4Zm21.025-2.1h4.375v-2.25h-10.85v2.25h4.15v6.7c-1.9.35-3.625.675-4.975.9l.675,2.35C-75.225.575-70.75-.4-66.6-1.35l-.175-2.1c-1.675.35-3.375.7-5.025,1Zm8.9-10.9a19.581,19.581,0,0,1,3.375,3.05l1.625-1.45a18.981,18.981,0,0,0-3.475-2.875Zm5.875,5.325v-2.275H-64.2c-.05-1.4-.075-2.875-.05-4.325h-2.5c0,1.45.05,2.9.1,4.325H-79.175v2.275H-66.5c.625,9,2.6,16.275,6.725,16.275,2.075,0,2.9-1.225,3.3-5.725a5.889,5.889,0,0,1-2.05-1.325c-.15,3.25-.45,4.6-1.05,4.6-2.175,0-3.925-5.95-4.475-13.825Zm19.15,1.975h-4.95v2.025H-30.4v-2.025h-5.15v-3.5h5.85V-17.8h-5.85v-3.175h-2.325V-17.8h-5.65v2.025h5.65Zm-6.775-8.7h-2.175v11.75h2.175Zm-2.65,3.8a14.947,14.947,0,0,0-3.1-2.55l-1.375,1.35A14.753,14.753,0,0,1-48.75-15.7Zm-.125,2.775c-1.85.8-3.7,1.575-5,2.075l.8,1.925c1.425-.625,3.075-1.425,4.675-2.15Zm14.85,8.55A30.979,30.979,0,0,1-36.7-3.325a10.236,10.236,0,0,1-2.1-2.65h9.1V-7.8H-39.775V-9.65H-42.1V-7.8h-9.925v1.825h7.9a25.375,25.375,0,0,1-8.325,2.85A7.255,7.255,0,0,1-51.175-1.45,27.343,27.343,0,0,0-46.6-2.8V-.55l-2.9.375.375,1.975C-46.4,1.45-42.55.9-38.95.375l-.1-1.925c-1.8.25-3.625.5-5.325.725V-3.8a17.158,17.158,0,0,0,3.3-2.175h.05c2,4.175,5.375,6.85,10.4,8.025a7.126,7.126,0,0,1,1.35-1.9,16.191,16.191,0,0,1-6-2.325A30.07,30.07,0,0,0-30.9-4.625Zm20.3-1.8v-3.7h6.05v3.7Zm-7.85,0c.075-.925.1-1.85.1-2.7v-1H-14.6v3.7Zm5.525-9.4v3.525h-5.425V-17.05Zm8.375,3.525h-6.05V-17.05h6.05Zm2.325-5.75H-22.325v8.9c0,3.525-.25,7.95-2.975,10.975a7.7,7.7,0,0,1,1.825,1.525A14.34,14.34,0,0,0-20.35-5.45h5.75V1.7h2.325V-5.45h6.05V-.975c0,.475-.175.625-.625.625-.475,0-2.125.025-3.725-.05A9.606,9.606,0,0,1-9.8,1.85a13.686,13.686,0,0,0,4.675-.4C-4.225,1.1-3.9.4-3.9-.95ZM6.375-.875,8.225.7A5.184,5.184,0,0,1,9.475.175C15.55-1.7,20.725-4.725,24.05-8.8L22.625-11c-3.15,3.95-8.825,7.2-13.3,8.4V-16.275a16.327,16.327,0,0,1,.2-2.5h-3.1A14.8,14.8,0,0,1,6.65-16.25V-2.275A2.759,2.759,0,0,1,6.375-.875Zm40.325-19-1.625.675a30.068,30.068,0,0,1,2,3.45l1.625-.7A36,36,0,0,0,46.7-19.875Zm2.825-1.05-1.6.675a23.29,23.29,0,0,1,2.025,3.425l1.625-.7A30.7,30.7,0,0,0,49.525-20.925ZM35.65-18.95H32.725a14.921,14.921,0,0,1,.175,2.3V-2.975c0,2.1,1.15,3.1,3.175,3.475a27.242,27.242,0,0,0,4.1.25A73.214,73.214,0,0,0,48.95.25V-2.625a41.751,41.751,0,0,1-8.625.825A21.559,21.559,0,0,1,37.2-1.975c-1.175-.25-1.7-.55-1.7-1.75v-5.1a96.637,96.637,0,0,0,10.025-3.15c.8-.3,1.8-.75,2.625-1.075l-1.1-2.525a13.808,13.808,0,0,1-2.425,1.225A68.649,68.649,0,0,1,35.5-11.425V-16.65A22.685,22.685,0,0,1,35.65-18.95ZM74.275-11.9l-1.9-.925a5.065,5.065,0,0,1-1.5.2h-7.1a21.63,21.63,0,0,1-2.2-.125v2.6c.675-.025,1.475-.075,2.225-.075h7.425c-.075,1.4-.725,5.7-1.075,7.825H61.5a20.312,20.312,0,0,1-2.25-.125V.05C60.1.025,60.675,0,61.5,0H74.975c.6,0,1.65.025,2.125.05V-2.5c-.575.05-1.6.1-2.175.1h-2.1c.35-2.325,1.05-7,1.25-8.6C74.125-11.25,74.2-11.625,74.275-11.9Zm11.025.75v3.1c.85-.075,2.35-.125,3.725-.125h13.6c1.1,0,2.25.1,2.8.125v-3.1c-.625.05-1.6.15-2.8.15h-13.6C87.675-11,86.125-11.1,85.3-11.15Z" transform="translate(106.575 20.975)" fill="#bb778e"/>
</svg>