<?xml version="1.0" encoding="UTF-8"?>
<svg id="_レイヤー_2" data-name="レイヤー 2" xmlns="http://www.w3.org/2000/svg" viewBox="0 0 33.56 3.04">
  <defs>
    <style>
      .cls-1 {
        fill: #c87290;
        stroke-width: 0px;
      }
    </style>
  </defs>
  <g id="hamburger">
    <g>
      <path class="cls-1" d="m1.06,2.5c0,.06.02.13.02.19,0,.15-.12.15-.13.15-.03,0-.04,0-.2-.07-.07-.04-.21-.09-.31-.12-.02,0-.04-.02-.05-.03-.13.1-.2.16-.28.16-.07,0-.1-.04-.1-.09,0-.04.02-.07.06-.09.04-.02.17-.08.78-.55-.03-.29-.04-.53-.04-.76v-.09c-.07.03-.24.06-.3.06-.03,0-.28,0-.28-.14,0-.04.04-.09.09-.09.02,0,.05,0,.07.01.04.02.09.03.14.03.06,0,.14-.01.28-.06,0-.16.02-.32.05-.49.01-.07.06-.1.11-.1.05,0,.1.04.1.1,0,0,0,.02,0,.03-.03.13-.06.25-.07.38.11-.05.21-.1.27-.15.02-.02.05-.03.08-.03.05,0,.09.03.09.08,0,.11-.22.2-.45.29,0,.07,0,.13,0,.2,0,.18.01.38.03.6.33-.24.59-.38.92-.38.36,0,.52.2.52.43,0,.37-.41.73-.77.73-.19,0-.31-.1-.31-.29,0-.02.01-.3.16-.3.05,0,.09.04.09.09,0,.02,0,.04-.02.06-.03.05-.04.1-.04.14,0,.08.05.13.14.13.24,0,.55-.28.55-.54,0-.15-.1-.27-.36-.27-.28,0-.52.15-.87.41.01.12.03.25.04.39Zm-.56.03c.07.02.22.06.3.09.02,0,.04.01.05.01.02,0,.04-.02.04-.06,0-.02,0-.05,0-.09-.01-.09-.02-.17-.03-.25q-.14.1-.36.29h.01Zm2.13-1.41c-.06-.07-.19-.15-.33-.15-.11,0-.23.05-.34.18-.02.02-.05.04-.08.04-.05,0-.09-.03-.09-.07,0-.08.2-.31.53-.31.28,0,.47.17.47.26,0,.05-.04.1-.09.1-.02,0-.05-.01-.08-.04Z"/>
      <path class="cls-1" d="m4.78,2.22c-.49.17-1.01.32-1.07.32-.05,0-.08-.05-.08-.09,0-.04.02-.07.06-.08.1-.02.2-.04.3-.07V.34s-.26,0-.26,0c-.05,0-.08-.04-.08-.08,0-.04.03-.08.08-.08h1.47c.06,0,.08.04.08.08,0,.04-.02.08-.08.08h-.25v2.6c0,.06-.04.09-.09.09s-.09-.03-.09-.09v-.71Zm0-1.89h-.62v.51h.62V.33Zm0,.66h-.62v.48h.62v-.48Zm0,.63h-.62v.62c.21-.06.42-.13.61-.2v-.43Zm.44-.81c-.05,0-.08-.04-.08-.08s.03-.08.08-.08c.28,0,.65,0,.89,0,.19,0,.29.08.29.26,0,.12-.06.71-.43,1.27.17.23.4.42.66.55.04.02.05.05.05.08,0,.05-.04.11-.1.11s-.39-.16-.72-.59c-.32.42-.68.62-.75.62-.06,0-.1-.05-.1-.09,0-.03.01-.06.05-.08.28-.14.51-.35.69-.59-.34-.52-.43-1.04-.43-1.11,0-.06.04-.09.09-.09.04,0,.07.02.08.06.05.33.17.68.36.98.32-.51.35-1.01.35-1.09,0-.07-.02-.12-.13-.12-.21,0-.61,0-.87,0h0Z"/>
      <path class="cls-1" d="m8.6,1.64c0,.09-.05.14-.1.14-.1,0-.11-.12-.11-.19,0-.28.08-.59.13-.76.05-.18.15-.44.19-.66,0-.06.05-.08.09-.08.05,0,.11.04.11.11v.02c-.02.14-.1.28-.13.37-.01.03-.01.04-.01.04,0,0,.02-.01.04-.04.11-.12.25-.18.37-.18.17,0,.33.12.41.38.05.19.09.41.09.62,0,.57-.25,1.19-1.08,1.55-.02.01-.05.02-.07.02-.06,0-.1-.04-.1-.09,0-.04.02-.08.08-.1.77-.31.97-.87.97-1.39,0-.19-.02-.37-.06-.54-.05-.2-.15-.28-.27-.28-.16,0-.54.22-.54.99v.06h0Z"/>
      <path class="cls-1" d="m12.07,2.22c0,.06,0,.3,0,.43h0c0,.2-.09.33-.35.33-.15,0-.28-.02-.28-.11,0-.05.03-.09.08-.09h.01c.07.01.13.02.18.02.1,0,.17-.04.17-.16,0-.11,0-.45,0-.87-.02,0-.4.15-.45.15s-.09-.04-.09-.09c0-.04.03-.07.07-.08.15-.04.31-.09.47-.15v-.7h-.42c-.06,0-.08-.04-.08-.08s.03-.08.08-.08h.42V.09c0-.06.05-.09.09-.09s.09.03.09.09v.63h.35c.05,0,.08.04.08.08,0,.05-.03.09-.08.09h-.34s0,.62,0,.62c.12-.05.23-.1.34-.15,0,0,.02,0,.03,0,.04,0,.08.04.08.09,0,.05-.05.09-.44.25v.52Zm1.84-1.32c.16,0,.26.07.26.23,0,.13-.12.68-.46,1.15.19.21.42.37.67.49.04.02.06.05.06.09,0,.05-.04.11-.1.11-.06,0-.43-.19-.74-.55-.39.45-.8.57-.83.57-.06,0-.09-.05-.09-.1,0-.03.01-.06.05-.07.32-.13.57-.32.76-.54-.22-.3-.38-.65-.46-1.01-.09.67-.28,1.23-.69,1.66-.03.03-.06.04-.08.04-.05,0-.09-.04-.09-.09,0-.02.01-.05.04-.07.63-.64.73-1.56.73-2.47-.15,0-.3,0-.39,0h0s-.07-.04-.07-.08c0-.04.02-.08.07-.08.2,0,.5,0,.75,0h.28c.14,0,.24.07.24.2,0,.1-.09.41-.13.52h.24Zm-.29.15c-.05.13-.06.17-.13.17-.05,0-.09-.03-.09-.07,0,0,0-.01,0-.02.11-.25.21-.62.21-.7,0-.06-.04-.09-.11-.09h-.42c0,.09-.01.18-.01.26,0,.63.21,1.15.51,1.54.34-.46.39-.95.39-1,0-.07-.03-.1-.11-.1h-.25Z"/>
      <path class="cls-1" d="m16.35,2.5c-.1,0-.22-.04-.34-.14-.32-.24-.44-.75-.49-1.02,0-.04-.07-.34-.07-.37,0-.06.05-.1.1-.1.05,0,.09.03.1.09.02.11.04.25.06.37.15.86.55.94.6.94s.09-.04.12-.1c.05-.11.07-.25.11-.37.02-.05.05-.07.08-.07.05,0,.1.04.1.1,0,0,0,0,0,.02-.03.15-.08.31-.11.46-.02.12-.12.2-.26.2Zm1.48-.71c-.04-.28-.26-.56-.51-.76-.02-.02-.03-.04-.03-.06,0-.05.04-.09.09-.09.02,0,.06.01.09.04.21.17.57.52.57.83,0,.09-.06.13-.12.13-.05,0-.09-.03-.1-.1Z"/>
      <path class="cls-1" d="m20.5.1c0-.07.05-.1.1-.1s.1.03.1.1v.37c.43,0,.87,0,1.12,0,.06,0,.08.04.08.08s-.03.08-.08.08c-.25,0-.75,0-1.21,0-.32,0-.61,0-.77,0-.17,0-.25.08-.25.23s0,.3,0,.45c0,.53-.04,1.1-.37,1.54-.03.03-.06.05-.09.05-.05,0-.09-.04-.09-.09,0-.02,0-.03.01-.04.31-.42.36-.88.36-1.37,0-.18,0-.36-.01-.54h0c0-.24.11-.38.41-.38.18,0,.43,0,.69,0V.1Zm.32,1.32v.5c.16,0,.33,0,.51,0,.23,0,.32.14.33.28,0,.07,0,.14,0,.22s0,.15,0,.23c0,.15-.1.28-.35.29-.2,0-.38,0-.54,0s-.33,0-.52,0c-.23,0-.35-.13-.36-.28,0-.08,0-.16,0-.23s0-.14,0-.21c0-.14.1-.28.35-.29.12,0,.25,0,.39,0V.85c0-.06.05-.09.09-.09.05,0,.09.03.09.09v.41h.94c.06,0,.09.04.09.08s-.03.08-.09.08h-.94Zm-.75,1c0,.23,0,.34.21.35.15,0,.32,0,.49,0s.36,0,.51,0c.19,0,.2-.1.2-.32,0-.29,0-.36-.21-.37-.14,0-.32,0-.5,0s-.36,0-.51,0c-.2,0-.21.11-.21.34Z"/>
      <path class="cls-1" d="m24.02.76c-.11-.14-.21-.31-.31-.45-.02-.04-.06-.06-.08-.06-.04,0-.07.03-.09.07-.12.21-.33.53-.48.7-.02.03-.06.04-.08.04-.05,0-.09-.04-.09-.09,0-.02.01-.05.04-.08.17-.18.41-.54.48-.68.05-.09.13-.15.21-.15s.16.05.23.14c.08.11.22.29.33.43.01.02.02.04.02.06,0,.05-.05.1-.1.1-.03,0-.05-.01-.08-.04Zm-.96.92c-.05,0-.08-.04-.08-.08s.02-.08.08-.08h.45s0-.36,0-.36h-.28c-.05,0-.08-.04-.08-.08,0-.04.03-.08.08-.08h.28v-.27c0-.06.04-.08.09-.08.04,0,.08.03.08.08v.27h.32c.05,0,.08.04.08.08,0,.04-.02.08-.08.08h-.32v.37h.44s.07.03.07.07c0,.04-.02.08-.08.08h-1.06Zm.05.75c0-.08,0-.16,0-.24,0-.13.09-.23.23-.23.08,0,.16,0,.24,0,.09,0,.19,0,.27,0,.14,0,.24.09.25.21,0,.08,0,.17,0,.26s0,.17,0,.25c0,.13-.1.23-.26.24-.08,0-.17,0-.25,0-.25,0-.46,0-.47-.24,0-.09,0-.17,0-.26Zm.16,0c0,.08,0,.16,0,.21,0,.11.05.12.32.12.23,0,.33,0,.33-.13,0-.05,0-.13,0-.21,0-.08,0-.16,0-.21,0-.12-.06-.13-.33-.13-.25,0-.31,0-.32.13,0,.05,0,.13,0,.21Zm1.9-.23v.71c0,.06-.04.08-.08.08-.04,0-.09-.02-.09-.08v-.71h-.46c0,.25,0,.5,0,.72,0,.06-.04.08-.08.08-.04,0-.08-.03-.08-.08,0-.22,0-.47,0-.72,0-.34,0-.69,0-.95,0-.27.21-.28.62-.28v-.31h-.62c-.06,0-.08-.04-.08-.08,0-.04.03-.08.08-.08h.62s0-.41,0-.41c0-.06.05-.09.09-.09.04,0,.09.03.09.09v.41h.7c.06,0,.08.04.08.08,0,.04-.02.08-.08.08h-.7v.31c.11,0,.22,0,.32,0,.19,0,.3.1.31.28,0,.12,0,.33,0,.54,0,.36,0,.49,0,.82v.02c0,.2-.1.33-.32.33-.16,0-.21-.04-.21-.11,0-.04.02-.08.07-.08,0,0,0,0,.01,0,.05.01.09.02.13.02.08,0,.14-.04.14-.17v-.42h-.47Zm-.17-1.09c-.37,0-.46,0-.46.16,0,.07,0,.15,0,.24h.46v-.4Zm0,.54h-.46v.41h.46v-.41Zm.63-.14c0-.09,0-.18,0-.24,0-.1-.06-.15-.18-.16-.09,0-.18,0-.28,0v.4h.47Zm0,.14h-.47v.41h.47v-.41Zm-.03-1.28c-.08-.09-.17-.15-.28-.21-.02-.01-.03-.03-.03-.05,0-.04.04-.08.08-.08.07,0,.36.16.36.27,0,.05-.04.09-.08.09-.02,0-.03,0-.04-.02Z"/>
      <path class="cls-1" d="m28.26,1.62h-1.36c-.07,0-.11-.05-.11-.1s.04-.1.11-.1h1.36s1.37,0,1.37,0c.07,0,.1.05.1.1s-.04.11-.1.11h-1.37Z"/>
      <path class="cls-1" d="m30.76,2.87c.28,0,.72-.06,1.01-.33.02-.02.04-.02.06-.02.05,0,.09.03.09.08,0,.12-.49.45-1.18.45-.07,0-.1-.04-.1-.08,0-.05.03-.09.09-.09h.03Zm1.28-1.77s.07.03.07.07c0,.03-.02.07-.07.07-.08,0-.3,0-.51,0s-.41,0-.47,0c-.17,0-.28-.09-.29-.23,0-.11,0-.23,0-.35s0-.23,0-.33c0-.14.11-.23.28-.23.09,0,.29,0,.5,0s.4,0,.48,0c.04,0,.07.03.07.06,0,.03-.02.07-.07.07-.09,0-.28,0-.46,0v.21h.23c.23,0,.23.12.23.23,0,.13,0,.22-.24.22-.04,0-.12,0-.21,0v.23c.2,0,.4,0,.48,0h0Zm-.64-.88c-.38,0-.46,0-.46.12,0,.02,0,.05,0,.08h.47v-.21Zm-.47.55h.23c.66,0,.68,0,.69-.07,0-.01,0-.03,0-.05,0-.09,0-.11-.12-.12h-.81v.23Zm.47.11h-.47s0,.07,0,.1c0,.12.08.13.46.13v-.23Zm1.01,1.76c0,.18.05.21.44.21.33,0,.52-.05.52-.31,0-.06.05-.09.09-.09.05,0,.1.03.1.09,0,.41-.34.46-.71.46-.42,0-.62-.04-.62-.29,0-.05,0-.14,0-.21-.25,0-.5,0-.72-.01-.23,0-.33-.12-.34-.28,0-.07,0-.16,0-.25,0-.11,0-.22,0-.3,0-.14.11-.26.33-.27.15,0,.29,0,.45,0,.25,0,.51,0,.78,0,.19,0,.31.11.31.24,0,.08.01.19.01.3,0,.09,0,.19-.01.27-.01.15-.13.28-.33.28-.1,0-.2,0-.3,0,0,.05,0,.1,0,.14Zm.46-.8h-1.54v.2h1.54v-.2Zm0-.14c0-.11-.06-.17-.2-.17-.2,0-.45,0-.7,0-.15,0-.3,0-.42,0-.14,0-.21.07-.21.18v.02h1.53v-.02Zm0,.45h-1.53v.03c0,.13.08.18.21.18.18,0,.42,0,.65,0,.16,0,.33,0,.47,0,.12,0,.2-.06.2-.18v-.04Zm-.38-1.64c-.15.22-.2.28-.26.28-.05,0-.09-.03-.09-.08,0-.01,0-.03.02-.05.17-.18.3-.39.39-.62.01-.03.04-.04.07-.04.04,0,.1.04.1.08s-.11.23-.13.27h.86c.05,0,.08.03.08.07,0,.04-.03.08-.08.08h-.96Zm-.12.6c-.05,0-.08-.04-.08-.08,0-.04.02-.08.08-.08h1.04c.05,0,.08.04.08.08,0,.04-.03.08-.08.08h-1.04Z"/>
    </g>
  </g>
</svg>