<?xml version="1.0" encoding="UTF-8"?>
<svg id="_レイヤー_2" xmlns="http://www.w3.org/2000/svg" version="1.1" viewBox="0 0 23.921 2.857">
  <!-- Generator: Adobe Illustrator 29.0.0, SVG Export Plug-In . SVG Version: 2.1.0 Build 186)  -->
  <defs>
    <style>
      .st0 {
        fill: #c87290;
      }
    </style>
  </defs>
  <g>
    <path class="st0" d="M13.825.113l-.221-.098c-.128.21-.228.43-.3.658-.072.229-.108.48-.108.751s.036.522.108.75c.072.229.172.447.3.657l.221-.096c-.114-.197-.199-.408-.255-.632-.055-.224-.082-.451-.082-.679,0-.226.027-.452.082-.678.055-.225.14-.436.255-.634Z"/>
    <path class="st0" d="M16.673,1.933c-.005.148-.01.263-.017.345-.007.082-.02.138-.036.17-.018.032-.042.048-.075.048h-.273c-.047,0-.076-.011-.089-.033-.013-.021-.02-.071-.02-.15V.045h-.322v2.265c0,.128.011.226.034.297s.062.12.117.149c.055.028.132.042.232.042h.352c.095,0,.169-.023.223-.071.053-.048.093-.125.118-.231s.042-.247.05-.423c-.043-.01-.093-.029-.151-.056-.057-.028-.105-.055-.144-.084Z"/>
    <path class="st0" d="M15.104.399c.047-.009.096-.014.143-.024.162-.032.308-.069.44-.112l-.24-.252c-.075.026-.162.051-.263.075-.1.024-.207.048-.32.068-.114.021-.229.04-.348.057-.118.016-.234.03-.348.042.019.034.036.077.055.128.018.05.03.094.036.13.157-.014.321-.033.49-.055.012-.002.023-.004.034-.006v.389h-.662v.291h.662v.431h-.515v1.201h.303v-.106h.744v.079h.319v-1.174h-.531v-.431h.628v-.291h-.628v-.441ZM15.316,2.37h-.744v-.519h.744v.519Z"/>
    <path class="st0" d="M19.695,2.232c-.032-.015-.056-.031-.075-.048-.002.102-.006.177-.01.226-.006.049-.012.082-.021.097-.009.016-.022.023-.041.023h-.152c-.024,0-.04-.006-.048-.016-.008-.009-.012-.035-.012-.075v-.574h.334V.148h-1.326v1.718h.2c-.013.089-.026.177-.05.253-.031.101-.085.189-.162.266-.076.077-.19.142-.34.195.022.018.046.042.07.073s.048.062.069.094c.021.033.036.061.047.085.176-.069.311-.155.406-.256.095-.103.164-.219.205-.35.035-.109.054-.232.069-.359h.184v.577c0,.091.008.164.024.217.017.054.047.091.089.114.044.022.108.034.193.034h.234c.066,0,.12-.014.16-.043.041-.028.072-.079.094-.153s.038-.178.046-.311c-.024-.007-.053-.018-.088-.029s-.067-.024-.099-.039ZM18.64.409h.717v.234h-.717v-.234ZM18.64.886h.717v.237h-.717v-.237ZM18.64,1.368h.717v.237h-.717v-.237Z"/>
    <path class="st0" d="M17.994,1.829c.04.051.075.095.103.134l.198-.27c-.019-.019-.049-.048-.094-.091-.045-.042-.093-.089-.145-.138-.053-.049-.103-.095-.149-.137-.018-.016-.027-.022-.041-.035.018-.026.039-.045.056-.071.116-.177.209-.362.28-.554l-.179-.118-.058.012h-.157v-.561h-.319v.561h-.41v.294h.704c-.036.069-.06.14-.106.208-.098.144-.207.276-.33.394-.122.118-.248.216-.377.294.016.022.034.051.053.088.019.036.038.075.058.114.019.04.033.075.041.105.125-.083.247-.192.367-.311v1.085h.319v-1.219c.019.021.037.04.056.062.048.053.091.105.132.156Z"/>
    <path class="st0" d="M22.33.176h-1.961v1.092c0,.107-.004.22-.01.338-.007.118-.022.237-.046.355s-.06.233-.108.343c-.048.111-.114.212-.197.306.024.012.052.031.085.056s.064.052.097.08c.033.029.057.053.073.073.093-.101.168-.215.225-.343.057-.127.1-.261.13-.402.012-.058.015-.114.024-.171h.669v.865h.327v-.865h.692v.503c0,.027-.007.046-.019.057s-.032.017-.061.017h-.257c-.062,0-.123-.003-.185-.007.022.043.044.095.065.157s.034.114.041.157c.142.002.259,0,.353-.007.094-.006.171-.022.229-.048.057-.026.097-.064.12-.114s.034-.119.034-.208V.176h-.322ZM22.33.877h-.692v-.391h.692v.391ZM21.31.485v.391h-.62v-.391h.62ZM20.678,1.596c.007-.114.013-.226.013-.325v-.088h.62v.413h-.632ZM21.638,1.596v-.413h.692v.413h-.692Z"/>
    <path class="st0" d="M23.596.673c-.072-.229-.171-.448-.299-.658l-.224.098c.114.198.2.409.256.634s.083.451.083.678c0,.229-.028.455-.083.679s-.141.435-.256.632l.224.096c.128-.21.227-.429.299-.657.072-.228.108-.477.108-.75s-.036-.522-.108-.751Z"/>
  </g>
  <g>
    <path class="st0" d="M2.781.096h-1.19v2.762h-.412V.096H0l.004-.096h2.777v.096Z"/>
    <path class="st0" d="M3.168.385c.286-.258.544-.385.972-.385s.694.127.98.381c.29.254.433.603.433,1.043,0,.429-.138.774-.412,1.036-.278.266-.544.397-.996.397-.437,0-.702-.131-.984-.397-.278-.262-.421-.615-.421-1.052,0-.424.143-.766.428-1.024ZM3.47,2.421c.179.222.349.333.703.333.313,0,.512-.111.69-.333.179-.222.222-.552.222-.992,0-.428-.04-.758-.219-.984-.179-.23-.388-.341-.726-.341-.329,0-.492.111-.671.333-.175.222-.262.552-.262.988,0,.445.087.774.262.996Z"/>
    <path class="st0" d="M6.934,0c.27,0,.488.016.655.068.166.048.305.119.408.23.103.115.154.25.154.409,0,.183-.067.345-.202.472-.139.131-.337.234-.599.27.115.056.306.131.568.484,0,0,.21.285.472.924h-.326c-.031-.131-.452-1.357-1.226-1.357h-.123v1.357h-.405V0h.623ZM7.049,1.405c.111,0,.206-.04.286-.063.083-.024.151-.079.198-.127.051-.048.091-.111.119-.187.032-.079.044-.171.044-.282,0-.198-.048-.349-.147-.468-.099-.119-.325-.159-.654-.159h-.179v1.285h.333Z"/>
    <path class="st0" d="M9.614,0v2.857h-.413V0h.413Z"/>
    <path class="st0" d="M12.653,2.441c-.242.274-.552.416-.929.416-.397,0-.722-.127-.976-.377-.25-.254-.377-.587-.377-1,0-.274.056-.528.175-.77.115-.242.277-.421.488-.536.206-.115.436-.175.686-.175.206,0,.392.044.559.127.162.083.286.175.369.274v.012l-.079.075c-.044-.067-.1-.123-.155-.166-.19-.147-.4-.218-.634-.218-.29,0-.52.119-.69.353-.171.234-.254.567-.254,1.004,0,.413.091.73.277.952.187.218.416.329.695.329.147,0,.298-.036.452-.107.127-.06.23-.151.313-.278l.08.083Z"/>
  </g>
</svg>