<svg xmlns="http://www.w3.org/2000/svg" width="239.55" height="23" viewBox="0 0 239.55 23">
  <path id="パス_130" data-name="パス 130" d="M-110.95-20.125h-2.75a16.257,16.257,0,0,1,.15,1.975c0,.45-.025,1.35-.025,2.475q-.937.075-1.725.075a25.258,25.258,0,0,1-3.325-.2l.075,2.4c.825.075,1.775.125,3.3.125q.712,0,1.65-.075c-.025.95-.025,1.9-.025,2.775v1.55c-2.95,1.275-5.525,3.5-5.525,5.625,0,2.4,3.325,4.4,5.5,4.4,1.475,0,2.45-.775,2.45-3.425,0-1-.075-3.1-.1-5.175a16.914,16.914,0,0,1,5.125-.825c2.275,0,4,1.075,4,3,0,2.1-1.825,3.2-3.925,3.6a13.186,13.186,0,0,1-3,.175l.9,2.55a19.431,19.431,0,0,0,3.175-.375c3.675-.875,5.4-2.95,5.4-5.925,0-3.2-2.8-5.2-6.525-5.2a19.528,19.528,0,0,0-5.2.8v-.875c0-.9.025-1.9.05-2.9,1.725-.2,3.575-.5,5.025-.825l-.05-2.45a31.335,31.335,0,0,1-4.925.95c.05-.9.075-1.7.1-2.3C-111.1-18.8-111.025-19.65-110.95-20.125Zm7.475,2.75-1.1,1.9a36.211,36.211,0,0,1,5.775,3.7l1.225-2A44.771,44.771,0,0,0-103.475-17.375ZM-116.7-3.525c0-1,1.3-2.275,3.125-3.175.025,1.625.075,3.075.075,3.875,0,.825-.35,1.15-.85,1.15C-115.2-1.675-116.7-2.525-116.7-3.525Zm34.3-13.8h1.025V-15.4h7.925a27.784,27.784,0,0,1-2.7,8.525,31.6,31.6,0,0,1-2.7-8.45l-2.25.45A35.213,35.213,0,0,0-77.55-4.6,14.243,14.243,0,0,1-82.4-.25ZM-88.925-3.9V-7.2h4.275v2.7Zm4.275-13.425v2.9h-4.275v-2.9Zm-4.275,4.975h4.275V-9.3h-4.275Zm16.525-5.4-.4.075h-7.925v-1.8h-12.25v2.15h1.825V-3.6c-.875.1-1.65.225-2.35.3l.425,2.325c2.325-.375,5.4-.875,8.425-1.375V1.925h2.25V-.125a8.985,8.985,0,0,1,1.45,1.8,17.123,17.123,0,0,0,4.775-4.15,15.719,15.719,0,0,0,4.7,4.2,8.851,8.851,0,0,1,1.6-1.9,13.766,13.766,0,0,1-4.85-4.375A31.251,31.251,0,0,0-70.9-17.35Zm14.1-2.125L-61.025-20a21.712,21.712,0,0,1-.2,2.375,65.965,65.965,0,0,0-.725,8.05,31.424,31.424,0,0,0,.275,4.05l2.45-.175a11.577,11.577,0,0,1-.1-2.875c.225-3.3,3-7.8,6.05-7.8,2.375,0,3.7,2.55,3.7,6.45,0,6.2-4.1,8.225-9.575,9.075l1.5,2.275C-51.275.25-46.925-2.95-46.925-9.925c0-5.375-2.525-8.725-5.925-8.725-3.025,0-5.425,2.675-6.525,4.95A48.386,48.386,0,0,1-58.3-19.875ZM-29.925-8.25l-.3-2.175c-.9.275-1.825.525-2.725.775v-4.325h2.675v-2.15H-32.95v-4.85h-2.275v4.85H-38.6v2.15h3.375v4.95c-1.4.375-2.7.7-3.75.925l.575,2.275,3.175-.9V-.65c0,.375-.15.475-.475.475-.325.025-1.35.025-2.4-.025a7.951,7.951,0,0,1,.65,2.125,8.8,8.8,0,0,0,3.5-.375c.75-.375,1-1,1-2.2V-7.375Zm7.65-9.35c-.35,2.1-.85,4.85-1.275,6.975l2.125.25L-21.2-11.5h2.5a18.552,18.552,0,0,1-3.35,6.825A23.936,23.936,0,0,1-26.3-14.6c.05-.975.075-1.975.1-3Zm4.725,3.95-.425.075H-20.8c.4-2.1.75-4.3,1-6.05l-1.6-.225-.35.1h-8.425v2.15h1.725c-.1,7.825-.7,14.1-3.9,17.975a14.3,14.3,0,0,1,2,1.475c2.125-2.875,3.15-6.625,3.675-11.225a22.825,22.825,0,0,0,3.125,6.3A14.5,14.5,0,0,1-28.5.025,7.063,7.063,0,0,1-27.15,1.85,17.909,17.909,0,0,0-22.1-1.375a14.333,14.333,0,0,0,4.95,3.35A8.881,8.881,0,0,1-15.6-.05,13.922,13.922,0,0,1-20.525-3a21.652,21.652,0,0,0,4.45-10.125Zm11.025-3.975-3.05-.05a12.79,12.79,0,0,1,.2,2.35c0,1.5.025,4.5.275,6.7C-8.425-2.05-6.1.35-3.575.35-1.75.35-.2-1.125,1.375-5.4L-.6-7.725c-.575,2.275-1.675,5-2.925,5-1.675,0-2.7-2.65-3.075-6.575a55.973,55.973,0,0,1-.175-5.625A20.464,20.464,0,0,1-6.525-17.625ZM6.275-17,3.8-16.175c2.525,3,3.95,8.55,4.375,12.85l2.575-1C10.425-8.375,8.575-14.1,6.275-17ZM34.225-1.025h-9.95v-4.2h9.95Zm-4.15-14.2h-2.35v7.95H22v9.25h2.275V1.05h9.95v.9H36.6V-7.275H30.075v-3.2h8.1V-12.55h-8.1Zm-.875-2.7v-3.05H26.775v3.05h-9v6.35c0,3.575-.175,8.65-2.2,12.2A11.849,11.849,0,0,1,17.55,1.95c2.175-3.825,2.55-9.625,2.55-13.525v-4.1H38.525v-2.25ZM50.55-4.4v3.025H46.3V-4.4Zm-6.3,6.225H46.3V.525h4.25v.85h2.125V-6.3H44.25Zm19.1-13.4V-9.45H60.6v-2.125ZM60.6-5.4V-7.55h2.75V-5.4Zm-4.65,0V-7.55h2.575V-5.4Zm2.575-6.175V-9.45H55.95v-2.125Zm7.275-4v-2.05H64.25L65.575-18.8A13.82,13.82,0,0,0,62.5-20.95l-1.3,1.075a14.467,14.467,0,0,1,2.95,2.25H60.6V-21H58.525v3.375h-5.2v1.075A28.76,28.76,0,0,0,49.1-20.975H47.05A17.738,17.738,0,0,1,42.6-14.9a7.886,7.886,0,0,1,1.5,1.525l.3-.275v1.825h2.975V-9.65h-3.85v1.9h9.65v-1.9h-3.7v-2.175h3.1V-13.65h-3.1v-2.3h-2.1v2.3H44.4a22.418,22.418,0,0,0,4.05-5.225,25.343,25.343,0,0,1,3.45,4.2l1.425-1.75v.85h5.2v2.025h-4.6V1.9H55.95V-3.5h2.575V1.75H60.6V-3.5h2.75V-.375c0,.25-.1.325-.325.325s-.9,0-1.675-.025a6.415,6.415,0,0,1,.625,2A5.881,5.881,0,0,0,64.65,1.55c.575-.35.725-.95.725-1.9v-13.2H60.6v-2.025Zm4.625,4.55v2.55h22.75v-2.55Zm49.8-5.675v-1.825H113.15a18.948,18.948,0,0,0,.7-2L111.775-21a15.157,15.157,0,0,1-3.1,5.875,13.541,13.541,0,0,1,1.825,1.2,14.043,14.043,0,0,0,1.825-2.775Zm-.675,4.525V-14h-8.2v1.825ZM100.925-13.95h2.225v1.15h-2.225Zm2.225-4.8v1.025h-2.225V-18.75Zm3.3,3.475h-5.525V-16.4h5.525ZM109.3-12.8h-4.275v-1.15h3.45v-3.775h-3.45V-18.75h3.925v-1.375H98.8V-11.4h10.5Zm-5.8,8.075h10.925V-3.65H103.5Zm0-2.3h10.925v1.05H103.5Zm0-2.3h10.925v1.05H103.5Zm10.35,9.2c-1.075,0-1.25-.075-1.25-.675V-2.325h4.1V-10.6H101.3v8.275h3.4C104-.8,102.325-.125,97.6.225A5.479,5.479,0,0,1,98.6,2c5.625-.575,7.65-1.8,8.45-4.325h3.275v1.55c0,1.95.65,2.475,3.275,2.475h3.925c2,0,2.65-.625,2.875-3.275a7.693,7.693,0,0,1-1.975-.725c-.1,1.9-.25,2.175-1.125,2.175Z" transform="translate(119.15 21)" fill="#bb778e"/>
</svg>