<?xml version="1.0" encoding="UTF-8"?>
<svg id="_レイヤー_2" data-name="レイヤー 2" xmlns="http://www.w3.org/2000/svg" viewBox="0 0 30.75 2.62">
  <defs>
    <style>
      .cls-1 {
        fill: #c87290;
        stroke-width: 0px;
      }
    </style>
  </defs>
  <g id="hamburger">
    <g>
      <path class="cls-1" d="m3.01,2.56c-.09,0-.18,0-.27,0-.11,0-.22,0-.31,0-.1,0-.1-.1-.1-.1,0-.05.03-.1.1-.1h0s.07,0,.13,0c.04,0,.06-.03.06-.07-.02-.61-.08-1.93-.08-1.93,0-.06-.01-.08-.02-.08-.02,0-.05.06-.06.1-.15.49-.5,1.54-.68,2.01-.04.1-.13.15-.22.15-.08,0-.16-.05-.2-.15-.11-.3-.53-1.58-.67-2.01-.01-.04-.04-.09-.06-.09-.04,0-.05.38-.11,2,0,.04.02.07.06.07.05,0,.07,0,.12,0,.09,0,.11.08.11.1,0,.05-.04.1-.1.1h0c-.09,0-.18,0-.27,0-.11,0-.21,0-.31,0-.1,0-.11-.1-.11-.1,0-.05.03-.1.1-.1h0s.06,0,.12,0c.04,0,.06-.02.06-.07.03-.61.09-1.5.12-1.98H.4s-.02-.07-.06-.07c-.06,0-.07,0-.11,0-.1,0-.11-.09-.11-.1C.11.09.15.05.22.05h0c.08,0,.14,0,.2,0,.04,0,.09,0,.15,0h0c.1,0,.21.07.25.21.19.56.48,1.44.66,1.96.01.04.04.06.06.06.02,0,.04-.02.05-.06.16-.44.5-1.42.67-1.97.04-.11.13-.2.25-.2h0c.06,0,.1,0,.15,0,.06,0,.12,0,.2,0h0c.07,0,.1.05.1.1,0,.05-.03.1-.09.1-.05,0-.06,0-.12,0-.03,0-.06.03-.06.07,0,.01,0,.09.11,1.99,0,.04.02.06.06.06.05,0,.07,0,.12,0,.1,0,.1.1.1.1,0,.05-.03.1-.1.1h0Z"/>
      <path class="cls-1" d="m3.8,1.31c0-.76.54-1.31,1.27-1.31s1.27.55,1.27,1.31-.54,1.3-1.27,1.3-1.27-.51-1.27-1.3Zm2.31,0c0-.67-.46-1.12-1.04-1.12s-1.04.45-1.04,1.12.47,1.1,1.04,1.1,1.04-.44,1.04-1.1Z"/>
      <path class="cls-1" d="m7.12,2.36s.08,0,.14,0c.03,0,.07-.03.07-.07,0-.34,0-.97,0-1.49V.3s-.03-.06-.07-.06c-.06,0-.09,0-.14,0-.02,0-.11,0-.11-.1,0-.05.04-.1.1-.1h0c.08,0,.18,0,.28,0,.12,0,.24,0,.35,0,.11,0,.11.09.11.1,0,.05-.04.1-.1.1h0c-.05,0-.08,0-.14,0-.04,0-.06.02-.06.07,0,.25,0,.64,0,1.02s0,.75,0,.96c0,.08.04.08.22.08s.46,0,.59,0c.14,0,.21-.06.26-.14.03-.06.08-.17.09-.23.01-.05.06-.08.1-.08.06,0,.11.04.11.11,0,.01,0,.03,0,.04-.09.27-.17.49-.54.49h-.01c-.25,0-.53,0-.77,0-.18,0-.35,0-.46,0-.03,0-.11,0-.11-.1,0-.05.04-.1.1-.1h0Z"/>
      <path class="cls-1" d="m11.43,2.36c.05,0,.08,0,.13,0,.04,0,.06-.02.06-.05,0,0,0-.01,0-.02-.06-.16-.14-.38-.2-.58-.01-.03-.02-.05-.06-.05-.05,0-.27,0-.49,0s-.44,0-.49,0c-.04,0-.05.02-.06.05-.04.13-.18.59-.18.6,0,.03.02.05.06.05.06,0,.08,0,.13,0,.06,0,.11.04.11.1,0,.05-.03.1-.1.1h0c-.09,0-.19,0-.29,0-.12,0-.23,0-.33,0-.08,0-.11-.06-.11-.1,0-.05.03-.1.1-.1h0s.06,0,.12,0c.03,0,.07-.03.09-.07.21-.65.56-1.64.71-2.08.04-.13.14-.19.23-.19s.2.07.25.19c.2.57.57,1.63.74,2.07.04.08.09.08.12.08.04,0,.06,0,.09,0,.06,0,.11.04.11.1,0,.05-.04.1-.11.1h0c-.09,0-.2,0-.31,0s-.21,0-.31,0c-.1,0-.11-.08-.11-.1,0-.05.04-.1.1-.1h0Zm-.11-.93c-.11-.33-.32-.93-.38-1.11-.01-.04-.04-.07-.07-.07s-.06.03-.08.08c-.06.15-.38,1.08-.38,1.12,0,.01.01.02.04.02.05,0,.24,0,.43,0s.37,0,.41,0c.02,0,.04,0,.04-.02,0,0,0-.02,0-.03Z"/>
      <path class="cls-1" d="m13.16,2.36s.08,0,.14,0c.04,0,.07-.02.07-.07,0-.32,0-.68,0-1.03s0-.69,0-.96c0-.05-.03-.07-.07-.07-.06,0-.09,0-.14,0-.08,0-.11-.06-.11-.09,0-.05.04-.1.1-.1h0c.08,0,.17,0,.27,0,.12,0,.24,0,.35,0,.06,0,.11.04.11.1,0,.05-.04.1-.1.1h0c-.05,0-.07,0-.13,0-.04,0-.07.03-.07.07,0,.16,0,.33,0,.46s0,.26,0,.32c0,.07.04.07.11.07.13,0,.18-.05.23-.1.49-.51.73-.78.73-.8,0-.01-.02-.02-.04-.02h-.1c-.06,0-.09-.05-.09-.1,0-.04.04-.09.1-.09h0c.08,0,.17,0,.26,0,.11,0,.23,0,.34,0h0c.07,0,.1.05.1.1s-.03.1-.1.1c-.05,0-.07,0-.13,0-.03,0-.07.02-.09.04-.25.28-.58.62-.85.9-.02.02-.04.04-.04.06,0,.04.02.06,1.08,1.09.02.02.04.03.07.03.06,0,.07,0,.12,0,.06,0,.11.04.11.1,0,.05-.04.1-.1.1h0c-.09,0-.19,0-.28,0-.11,0-.22,0-.32,0h0c-.06,0-.09-.05-.09-.1,0-.05.03-.09.08-.09.08,0,.14,0,.14-.02,0,0,0,0,0,0-.29-.31-.63-.64-.89-.92-.04-.05-.1-.07-.19-.07-.03,0-.06,0-.08,0s-.06,0-.06.06c0,.07,0,.19,0,.35s0,.34,0,.54c0,.04.03.07.07.07.06,0,.07,0,.13,0,.05,0,.1.03.1.09,0,.05-.03.1-.09.1h0c-.09,0-.19,0-.29,0-.12,0-.23,0-.33,0-.07,0-.1-.04-.1-.1,0-.05.04-.1.1-.1h0Z"/>
      <path class="cls-1" d="m17,2.53c-.07-.21-.09-.44-.09-.66,0-.6.18-1.19.21-1.5,0-.07.05-.09.09-.09.05,0,.1.04.1.09,0,0,0,.01,0,.02-.07.35-.22.97-.22,1.4,0,.01,0,.24.04.24.01,0,.02-.01.04-.05.04-.1.16-.31.2-.37.02-.03.05-.05.07-.05.04,0,.09.04.09.08,0,.01,0,.02,0,.04-.11.19-.3.52-.3.75,0,.01,0,.03,0,.04h0c0,.06-.01.13-.09.13-.04,0-.08-.03-.11-.09Zm1.91-.09c-.63,0-1.04-.36-1.04-.48,0-.05.05-.09.1-.09.03,0,.06.01.09.05.19.22.47.31.81.31.09,0,.2-.01.3-.02.01,0,.02,0,.02,0,.07,0,.1.05.1.1,0,.08-.04.14-.38.14Zm-.42-1.54c-.16,0-.33-.02-.48-.05-.06-.01-.08-.05-.08-.09,0-.04.04-.09.09-.09,0,0,.01,0,.02,0,.13.03.27.04.39.04.15,0,.3-.01.43-.03h.02c.06,0,.1.04.1.09,0,.06,0,.14-.5.14Z"/>
      <path class="cls-1" d="m21.44,2.48c-.08,0-.12-.06-.12-.11,0-.05.03-.09.11-.1.72-.1,1.53-.49,1.53-1,0-.26-.23-.52-.6-.52-.14,0-.29.03-.44.08-.37.13-.81.38-1.18.55-.03.01-.05.02-.07.02-.07,0-.12-.05-.12-.11,0-.04.02-.08.08-.11.36-.14.82-.39,1.23-.52.18-.06.35-.09.51-.09.51,0,.8.37.8.7,0,.22-.12.46-.43.71-.41.32-1.21.5-1.3.5Z"/>
      <path class="cls-1" d="m25.33,2.28c-.1,0-.22-.04-.34-.14-.32-.24-.44-.75-.49-1.02,0-.04-.07-.34-.07-.37,0-.06.05-.1.1-.1.05,0,.09.03.1.09.02.11.04.25.06.37.15.86.54.94.6.94s.09-.04.12-.1c.04-.11.07-.25.11-.37.02-.05.05-.07.08-.07.05,0,.1.04.1.1,0,0,0,0,0,.02-.03.15-.08.31-.11.46-.02.12-.12.2-.26.2Zm1.47-.71c-.04-.28-.26-.56-.51-.76-.02-.02-.03-.04-.03-.06,0-.05.04-.09.09-.09.02,0,.06.01.09.04.21.17.57.52.57.83,0,.09-.06.13-.12.13-.04,0-.09-.03-.1-.1Z"/>
      <path class="cls-1" d="m30.3,2.59h-.02c-.8-.06-1.21-.58-1.21-1.09,0-.41.3-.71.36-.75.02-.01.03-.03.03-.03,0,0,0,0-.01,0,0,0-.02,0-.04.01-.05.02-.74.34-.89.34-.08,0-.12-.05-.12-.1,0-.04.03-.09.1-.11.39-.1,1.04-.35,1.2-.41.3-.12.62-.21.92-.21.1,0,.15.06.15.11,0,.07-.05.11-.15.11h-.04s-.06,0-.09,0c-.56,0-1.23.45-1.23,1.04,0,.46.43.88,1.05.88.11,0,.16.06.16.12,0,.06-.06.12-.16.12Z"/>
    </g>
  </g>
</svg>