<?xml version="1.0" encoding="UTF-8"?>
<svg id="_レイヤー_2" data-name="レイヤー 2" xmlns="http://www.w3.org/2000/svg" viewBox="0 0 15.51 2.52">
  <defs>
    <style>
      .cls-1 {
        fill: #c87290;
        stroke-width: 0px;
      }
    </style>
  </defs>
  <g id="hamburger">
    <g>
      <path class="cls-1" d="m.59,0v2.52H.23V.1h-.23v-.1h.59Z"/>
      <path class="cls-1" d="m4.01,1.84V.24l-1,2.27h-.09L1.92.24v2.27h-.08V0h.35l.92,2.09.92-2.09h.35v2.52h-.36v-.67Z"/>
      <path class="cls-1" d="m5.45.34c.25-.23.48-.34.86-.34s.61.11.86.33c.25.22.38.53.38.92s-.12.68-.36.91c-.25.23-.48.35-.88.35s-.62-.12-.87-.35c-.24-.23-.37-.54-.37-.93s.13-.67.38-.9Zm.27,1.79c.16.2.31.29.62.29.28,0,.45-.1.61-.29.16-.2.2-.49.2-.87s-.04-.67-.19-.87c-.16-.2-.34-.3-.64-.3s-.43.1-.59.29c-.15.2-.23.49-.23.87s.08.68.23.88Z"/>
      <path class="cls-1" d="m10.18,0v2.52h-.07L8.35.2v2.25h-.08V0h.38l1.43,1.91V0h.1Z"/>
      <path class="cls-1" d="m13.27.08h-1.05v2.43h-.36V.08h-1.04v-.08h2.45v.08Z"/>
      <path class="cls-1" d="m15.51,0v2.52h-.36v-1.28h-1.34v1.28h-.36V0h.36v1.15h1.34V0h.36Z"/>
    </g>
  </g>
</svg>