<?xml version="1.0" encoding="UTF-8"?><svg id="_イヤー_2" xmlns="http://www.w3.org/2000/svg" viewBox="0 0 240.2 25.2"><defs><style>.cls-1{fill:#a0b0e8;}</style></defs><g id="new_colors"><g><path class="cls-1" d="M21.77,18.48V2.42L11.73,25.2h-.88L.84,2.42V25.2H0V0H3.5L12.74,20.9,21.95,0h3.47V25.2h-3.64v-6.72Z"/><path class="cls-1" d="M36.16,3.4c2.52-2.28,4.8-3.4,8.58-3.4s6.13,1.12,8.65,3.36c2.56,2.24,3.82,5.32,3.82,9.21s-1.22,6.83-3.64,9.14c-2.45,2.35-4.8,3.5-8.79,3.5s-6.2-1.15-8.68-3.5c-2.45-2.31-3.71-5.43-3.71-9.28s1.26-6.76,3.78-9.03Zm2.66,17.96c1.58,1.96,3.08,2.94,6.2,2.94,2.76,0,4.52-.98,6.09-2.94,1.58-1.96,1.96-4.87,1.96-8.75s-.35-6.69-1.93-8.68c-1.58-2.03-3.43-3.01-6.41-3.01s-4.34,.98-5.92,2.94c-1.54,1.96-2.31,4.87-2.31,8.72s.77,6.83,2.31,8.79Z"/><path class="cls-1" d="M68.01,0c2.38,0,4.31,.14,5.78,.59,1.47,.42,2.7,1.05,3.61,2.03,.91,1.01,1.37,2.21,1.37,3.6,0,1.61-.59,3.05-1.79,4.17-1.23,1.16-2.98,2.07-5.29,2.38,1.02,.49,2.7,1.16,5.01,4.27,0,0,1.86,2.52,4.17,8.16h-2.87c-.28-1.15-3.99-11.97-10.82-11.97h-1.09v11.97h-3.57V0h5.5Zm1.01,12.39c.98,0,1.82-.35,2.52-.56,.74-.21,1.33-.7,1.75-1.12,.46-.42,.81-.98,1.05-1.65,.28-.7,.38-1.5,.38-2.48,0-1.75-.42-3.08-1.29-4.13-.88-1.05-2.87-1.4-5.78-1.4h-1.58V12.39h2.94Z"/><path class="cls-1" d="M93.14,24.33h7.74v.88h-14.63V0h14.7V.84h-11.1V11.52h7.28v.88h-7.28v11.94h3.29Z"/><path class="cls-1" d="M119.1,0h6.93c3.67,0,6.58,.56,8.65,1.72,2.07,1.12,3.61,2.62,4.62,4.58,1.01,1.92,1.54,4.13,1.54,6.69,0,1.82-.28,3.5-.84,5-.56,1.51-1.3,2.77-2.28,3.75-.95,1.02-2.07,1.79-3.36,2.31-1.26,.53-2.45,.84-3.61,.95-1.12,.14-2.73,.21-4.8,.21h-6.86V0Zm7.46,24.36c2.17,0,3.96-.31,5.36-.91,1.4-.59,2.59-1.75,3.5-3.5,.95-1.75,1.44-3.99,1.44-6.69,0-2.13-.28-3.99-.84-5.67-.52-1.65-1.33-2.98-2.34-4.03-1.02-1.05-2.14-1.75-3.36-2.14-1.26-.35-2.84-.56-4.76-.56-.95,0-2,.04-2.83,.1V24.36h3.85Z"/><path class="cls-1" d="M152.39,24.33h7.74v.88h-14.63V0h14.7V.84h-11.1V11.52h7.28v.88h-7.28v11.94h3.29Z"/><path class="cls-1" d="M188.51,.84h-10.5V25.2h-3.64V.84h-10.4l.04-.84h24.5V.84Z"/><path class="cls-1" d="M199.88,15.96h-9.28l-3.54,9.24h-1.33L196.17,0h.74l10.71,25.2h-3.96c-1.33-3.25-1.89-4.62-1.89-4.62l-1.89-4.62Zm-.32-.84l-4.41-10.57-4.31,10.57h8.72Z"/><path class="cls-1" d="M215.95,0V25.2h-3.64V0h3.64Z"/><path class="cls-1" d="M240.2,24.36v.84h-17.54V0h3.64V24.36h13.9Z"/></g></g></svg>