<?xml version="1.0" encoding="UTF-8"?>
<svg id="_レイヤー_2" data-name="レイヤー 2" xmlns="http://www.w3.org/2000/svg" viewBox="0 0 33.51 2.92">
  <defs>
    <style>
      .cls-1 {
        fill: #c87290;
        stroke-width: 0px;
      }
    </style>
  </defs>
  <g id="MV">
    <g>
      <path class="cls-1" d="m2.48.27v.05c-.12,0-.38,0-.77.77l-.25.52v.71c0,.26.13.35.28.35v.06h-.98v-.06c.15,0,.28-.09.28-.35v-.58C.53.84.37.59.37.59.22.33.1.32,0,.32v-.05h1.01v.05c-.09,0-.32,0-.08.39l.5.84.25-.52c.06-.12.31-.71-.18-.71v-.05h.97Z"/>
      <path class="cls-1" d="m4.4,2.52c-.02.11-.16.24-.37.24,0,0-.29,0-.32-.29-.05.16-.25.29-.5.29,0,0-.4,0-.4-.36s.29-.42.9-.58v-.21c0-.36-.19-.55-.45-.43-.12.06-.14.12-.12.13.05,0,.09.03.12.07.06.08.04.19-.04.25-.08.06-.2.04-.25-.04-.04-.06-.04-.14-.01-.19.03-.06.08-.15.27-.25.15-.08.33-.07.33-.07.42,0,.53.29.53.7v.56s0,.23.16.23c0,0,.08,0,.1-.07l.05.02Zm-1.21-.2s.03.25.25.25c.15,0,.23-.11.27-.19v-.5c-.37.08-.52.24-.52.44Z"/>
      <path class="cls-1" d="m6.57,2.73h-.65v-.05c.13-.04.14-.15.14-.32v-.7c0-.23-.11-.35-.33-.35-.13,0-.26.12-.32.25v.8c0,.19.02.29.14.32v.06h-.65v-.06c.13-.04.14-.14.14-.32V.51c0-.12-.03-.16-.17-.2v-.05l.54-.13v1.33c.06-.19.34-.39.56-.39.28,0,.46.13.46.55v.72c0,.19.02.29.14.32v.05Z"/>
      <path class="cls-1" d="m7.94,2.76c-.53,0-.82-.38-.82-.84s.29-.84.82-.84.82.38.82.84-.29.84-.82.84Zm0-1.62c-.26,0-.38.15-.38.79s.12.79.38.79.38-.15.38-.79-.12-.79-.38-.79Z"/>
      <path class="cls-1" d="m10.21,2.76c-.53,0-.82-.38-.82-.84s.29-.84.82-.84.82.38.82.84-.29.84-.82.84Zm0-1.62c-.26,0-.38.15-.38.79s.12.79.38.79.38-.15.38-.79-.12-.79-.38-.79Z"/>
      <path class="cls-1" d="m12.3,2.52c0,.13-.1.24-.23.24s-.23-.1-.23-.24.1-.23.23-.23.23.11.23.23Zm-.13-.51l.1-1.88h-.39l.09,1.88h.2Z"/>
      <path class="cls-1" d="m14.99,1.74c-.14-.09-.33-.18-.49-.2-.05,0-.07-.04-.07-.09,0-.05.04-.1.1-.1.1,0,.45.14.57.2.04.02.06.06.06.09,0,.06-.05.12-.11.12-.02,0-.05,0-.07-.02Zm1.77-.9s.06-.06.1-.06c.05,0,.1.03.1.1,0,.03,0,.06-.03.1-.46.79-.99,1.31-1.71,1.72-.11.06-.25.12-.36.12-.09,0-.13-.06-.13-.12,0-.05.03-.09.08-.1.56-.1,1.43-.81,1.95-1.76Zm-1.33.28c-.12-.12-.29-.25-.43-.3-.03-.01-.05-.04-.05-.07,0-.05.04-.1.11-.1.09,0,.37.17.53.32.03.02.04.06.04.09,0,.06-.05.11-.11.11-.03,0-.06-.01-.09-.04Z"/>
      <path class="cls-1" d="m19.04,1.97c-.18.02-.45.06-.62.09-.08.01-.15.02-.23.02-.06,0-.1-.05-.1-.09s.03-.08.11-.08c.15,0,.18,0,.19,0,.09-.01.37-.05.48-.07.06,0,.14-.02.21-.03.02,0,.03,0,.04,0,.02-.12.05-.23.06-.27,0,0,0-.02,0-.03,0-.03-.01-.04-.04-.04,0,0-.69.09-.75.1-.11.02-.2.03-.3.03-.06,0-.09-.04-.09-.08s.03-.08.11-.08c.08,0,.17,0,.25-.01.09-.01.51-.06.6-.08.03,0,.2-.03.25-.03h0c.13,0,.19.08.19.15,0,.02,0,.04-.01.06-.04.11-.08.29-.12.46-.03.13-.05.26-.08.37,0,0,.01,0,.02,0,.07,0,.11.04.11.08,0,.04-.04.09-.14.09-.12,0-.48.04-.94.1-.07,0-.13.02-.2.02-.04,0-.13,0-.13-.09,0-.04.03-.08.11-.08h0s.05,0,.07,0c.03,0,.07,0,.11,0,.09,0,.64-.08.79-.1.02-.12.05-.27.08-.4-.01,0-.02,0-.04,0Z"/>
      <path class="cls-1" d="m21.18,2.01s-.07-.02-.09-.06c-.05-.1-.14-.23-.22-.3-.02-.02-.03-.04-.03-.06,0-.05.04-.09.09-.09.1,0,.35.33.35.41,0,.06-.05.1-.1.1Zm1-.6c0-.07.05-.1.11-.1.09,0,.1.08.1.13,0,.08-.02.17-.06.25-.23.55-.57.94-1.15,1.22-.03.01-.05.02-.07.02-.06,0-.09-.04-.09-.09,0-.04.02-.07.06-.09.8-.36,1.11-1.07,1.11-1.32v-.02h0Zm-.53.44s-.08-.02-.09-.07c-.04-.11-.1-.24-.18-.32-.01-.01-.02-.03-.02-.05,0-.05.04-.09.1-.09.13,0,.3.4.3.44,0,.06-.05.1-.1.1Z"/>
      <path class="cls-1" d="m23.98,2.19c0,.23.15.31.54.31.3,0,.65-.05.84-.15.03-.02.06-.02.08-.02.07,0,.12.05.12.1,0,.18-.5.28-.97.28-.31,0-.81,0-.81-.45,0-.04,0-.4.04-1.08,0-.06,0-.11,0-.15,0-.16-.01-.25-.02-.31v-.02c0-.07.06-.12.11-.12.11,0,.12.1.12.32,0,.03-.02.45-.03.61.11-.02.82-.15,1.12-.4.02-.02.05-.03.08-.03.06,0,.13.05.13.11,0,.25-1.18.49-1.34.52-.02.46-.02.47-.02.48Zm1.7-1.16c-.19,0-.34-.15-.34-.33s.15-.34.34-.34.34.16.34.34-.15.33-.34.33Zm0-.54c-.11,0-.2.09-.2.21s.09.2.2.2.2-.09.2-.2-.09-.21-.2-.21Z"/>
      <path class="cls-1" d="m27.77,1.32c-.15-.11-.39-.23-.57-.27-.04-.01-.06-.04-.06-.08,0-.05.04-.11.12-.11.09,0,.43.12.65.26.04.03.06.06.06.1,0,.06-.05.12-.12.12-.02,0-.05,0-.08-.03Zm.03,1.31c-.19.1-.3.11-.36.11-.09,0-.13-.06-.13-.11,0-.04.03-.09.09-.1.34-.04,1.33-.57,1.92-1.7.02-.04.06-.06.1-.06.05,0,.1.04.1.1,0,.03,0,.06-.03.09-.43.78-.97,1.29-1.68,1.66Z"/>
      <path class="cls-1" d="m30.81,1.79c-.06,0-.1-.04-.1-.09,0-.04.02-.07.07-.1.45-.27.9-.96.95-1.18.02-.06.06-.09.11-.09.06,0,.11.04.11.11,0,.05-.04.15-.11.27.08-.01.16-.02.24-.04.19-.04.36-.06.45-.06.16,0,.24.09.24.19,0,.04-.01.07-.03.11-.54.95-1.05,1.64-2.01,2.01-.03.01-.05.01-.08.01-.07,0-.12-.04-.12-.1,0-.05.03-.09.11-.12.8-.27,1.41-.93,1.85-1.79.02-.04.02-.06.02-.07,0-.04-.04-.04-.08-.04-.08,0-.3.04-.43.06-.1.02-.22.04-.3.05-.36.49-.75.91-.9.91Zm2.25-1.12c-.06-.07-.26-.22-.34-.26-.04-.02-.05-.04-.05-.06,0-.04.04-.07.09-.07.06,0,.45.2.45.32,0,.05-.04.09-.09.09-.02,0-.04,0-.05-.02Zm.31-.28c-.06-.07-.27-.21-.36-.25-.04-.02-.05-.04-.05-.06,0-.04.04-.08.09-.08.04,0,.46.19.46.31,0,.05-.04.09-.09.09-.02,0-.03,0-.05-.02Z"/>
    </g>
  </g>
</svg>