<?xml version="1.0" encoding="UTF-8"?><svg id="_イヤー_2" xmlns="http://www.w3.org/2000/svg" viewBox="0 0 236.35 25.27"><defs><style>.cls-1{fill:#fff;}</style></defs><g id="mv"><g><path class="cls-1" d="M3.78,3.4C6.3,1.12,8.58,0,12.36,0s6.13,1.12,8.65,3.36c2.56,2.24,3.82,5.32,3.82,9.21s-1.22,6.83-3.64,9.14c-2.45,2.35-4.8,3.5-8.79,3.5s-6.2-1.16-8.68-3.5C1.26,19.39,0,16.28,0,12.43S1.26,5.67,3.78,3.4Zm2.66,17.96c1.58,1.96,3.08,2.94,6.2,2.94,2.76,0,4.52-.98,6.09-2.94,1.58-1.96,1.96-4.87,1.96-8.75s-.35-6.69-1.93-8.68c-1.58-2.03-3.43-3.01-6.41-3.01s-4.34,.98-5.92,2.94c-1.54,1.96-2.31,4.87-2.31,8.72s.77,6.83,2.31,8.79Z"/><path class="cls-1" d="M49,0V25.2h-.67L30.66,2V24.57h-.8V0h3.78l14.32,19.15V0h1.05Z"/><path class="cls-1" d="M73.26,24.36v.84h-17.54V0h3.64V24.36h13.9Z"/><path class="cls-1" d="M82.18,0V25.2h-3.64V0h3.64Z"/><path class="cls-1" d="M108.89,0V25.2h-.67L90.55,2V24.57h-.8V0h3.78l14.32,19.15V0h1.05Z"/><path class="cls-1" d="M122.99,24.33h7.74v.88h-14.63V0h14.7V.84h-11.1V11.52h7.28v.88h-7.28v11.94h3.29Z"/><path class="cls-1" d="M159.85,19.08c-.21,2.06-1.09,3.64-2.59,4.8-1.5,1.12-3.4,1.58-5.71,1.33-2.31-.25-5.36-2.1-6.72-4.34l.67-.74c1.89,2.7,3.33,3.75,5.85,4.17,1.68,.25,3.04-.14,4.09-1.02,1.02-.84,1.61-1.89,1.72-3.08,.14-1.19-.14-2.24-.88-3.15-.74-.88-2.14-1.89-4.2-3.05-1.82-1.05-3.19-1.93-4.13-2.66-.91-.74-1.58-1.61-2.03-2.66-.42-1.05-.6-2.13-.46-3.25,.17-1.72,.91-3.08,2.24-4.1,1.29-1.02,2.87-1.4,4.69-1.23,1.01,.1,1.92,.39,2.8,.81s1.72,1.23,2.56,2.35l-.77,.63c-.21-.31-.46-.63-.7-.91-1.02-1.19-2.28-1.85-3.78-2-1.43-.17-2.52,.1-3.25,.81-.77,.7-1.19,1.51-1.29,2.45-.11,1.08,.21,2.07,.98,2.94,.74,.88,2.14,1.89,4.2,3.12,1.96,1.12,3.36,2.03,4.24,2.7,.91,.67,1.58,1.51,2.03,2.56,.46,1.09,.59,2.24,.46,3.54Z"/><path class="cls-1" d="M185.64,0V25.2h-3.64V12.39h-13.44v12.81h-3.64V0h3.64V11.52h13.44V0h3.64Z"/><path class="cls-1" d="M194.28,3.4c2.52-2.28,4.8-3.4,8.58-3.4s6.13,1.12,8.65,3.36c2.56,2.24,3.82,5.32,3.82,9.21s-1.22,6.83-3.64,9.14c-2.45,2.35-4.8,3.5-8.79,3.5s-6.2-1.16-8.68-3.5c-2.45-2.31-3.71-5.43-3.71-9.28s1.26-6.76,3.78-9.03Zm2.66,17.96c1.58,1.96,3.08,2.94,6.2,2.94,2.76,0,4.52-.98,6.09-2.94,1.58-1.96,1.96-4.87,1.96-8.75s-.35-6.69-1.93-8.68c-1.58-2.03-3.43-3.01-6.41-3.01s-4.34,.98-5.92,2.94c-1.54,1.96-2.31,4.87-2.31,8.72s.77,6.83,2.31,8.79Z"/><path class="cls-1" d="M225.61,0c2.59,0,4.59,.28,5.99,.7,1.37,.38,2.52,1.19,3.43,2.21,.88,1.05,1.33,2.31,1.33,3.89,0,1.37-.31,2.56-.91,3.57-.63,1.05-1.5,1.79-2.62,2.31-1.16,.56-3.15,.67-6.02,.67h-2.7v5.57c0,1.09-.04,1.65,0,2.49v3.82h-3.61V0h5.11Zm6.83,7.07c0-2.07-.49-3.61-1.51-4.55-1.01-.98-2.66-1.47-4.93-1.47-.84,0-1.47,.03-1.89,.07V12.5h1.75c1.44,0,2.59-.03,3.47-.31,.91-.28,1.64-.77,2.24-1.71,.59-.91,.88-2.07,.88-3.4Z"/></g></g></svg>