<svg xmlns="http://www.w3.org/2000/svg" width="104.8" height="23.15" viewBox="0 0 104.8 23.15">
  <path id="パス_128" data-name="パス 128" d="M-32.125-19.75A27.651,27.651,0,0,1-36.1-15.7l1.725,1.125a32.669,32.669,0,0,0,4.25-3.975Zm-13.975,4a17.329,17.329,0,0,0-4.05-3.725l-1.6,1.35a18.154,18.154,0,0,1,3.95,3.85Zm-.35,2.25c-2.225,1.225-4.45,2.475-5.95,3.2l1.15,1.925c1.625-.95,3.625-2.125,5.425-3.25Zm3.05.675h5v2.2h-5Zm0-3.875h5v2.175h-5ZM-29.85-4.875v-2.05h-9.9v-1.9h3.6v-3.2A31.953,31.953,0,0,1-30.8-8.45l1.45-1.75a32.516,32.516,0,0,0-5.675-3.5l-1.125,1.275V-18.5H-40.2c.25-.65.55-1.4.825-2.15l-2.55-.35c-.125.725-.375,1.675-.6,2.5H-45.55v9.675h3.45v1.9h-9.75v2.05h7.75A22.7,22.7,0,0,1-52.425-.3a11.373,11.373,0,0,1,1.55,1.925A23.3,23.3,0,0,0-42.1-4V1.925h2.35v-5.85A23.408,23.408,0,0,0-30.875,1.45,9.8,9.8,0,0,1-29.3-.5a22.043,22.043,0,0,1-8.475-4.375Zm26.5-4.3V-11.55h-9.275c.025-.35.025-.725.025-1.075V-16.8h9.9v-2.375H-24.55V-16.8h9.5v4.15c0,.35,0,.725-.025,1.1H-23.8v2.375h8.45c-.725,3.475-3,6.95-9.775,9.125A8.768,8.768,0,0,1-23.7,2.025C-17.45-.05-14.675-3.25-13.475-6.65A14.35,14.35,0,0,0-3.575,2,11.559,11.559,0,0,1-2-.225a13.058,13.058,0,0,1-9.975-8.95Zm28.225-6.25v-2.25H14.8V-21.1H12.325v3.425h-9.9v2.25H12.35v3.05H4.9V-1.05H7.225V-10.1H12.35V2.025h2.4V-10.1h5.525v6.275c0,.35-.125.45-.55.475s-1.9.025-3.4-.05a8.38,8.38,0,0,1,.8,2.3A13.317,13.317,0,0,0,21.5-1.5c.9-.375,1.175-1.05,1.175-2.275v-8.6H14.75v-3.05ZM48.475-17h-7.3v-1.625h7.3Zm0,3.225h-7.3v-1.65h7.3Zm2.15-6.525H39.075v8.2h11.55ZM36.925-8.025c-.775.35-1.55.7-2.3,1.05v-6.5H37.15v-2.2H34.625v-5.05h-2.15v5.05h-2.75v2.2h2.75v7.45c-1.225.525-2.35,1-3.25,1.35l.9,2.325c2.1-1,4.8-2.35,7.3-3.625Zm15.45-.9V-10.9H36.75v1.975h3.2a13.42,13.42,0,0,1-4.725,4.6A12.6,12.6,0,0,1,36.8-2.875,16.974,16.974,0,0,0,39.875-5.55h2.1a16.18,16.18,0,0,1-5.4,5.125,6.45,6.45,0,0,1,1.55,1.4,19.212,19.212,0,0,0,5.95-6.525H46.05A14.5,14.5,0,0,1,41.3.75a7.462,7.462,0,0,1,1.675,1.3A17.278,17.278,0,0,0,48-5.55h1.5c-.3,3.525-.625,4.95-1,5.375-.2.25-.4.275-.775.275a16.708,16.708,0,0,1-1.95-.1A4.593,4.593,0,0,1,46.3,1.875a19.684,19.684,0,0,0,2.5-.025,2.174,2.174,0,0,0,1.5-.7c.675-.75,1.05-2.7,1.45-7.7.025-.3.05-.875.05-.875H41.35a11.509,11.509,0,0,0,.925-1.5Z" transform="translate(52.425 21.1)" fill="#bb778e"/>
</svg>