<svg xmlns="http://www.w3.org/2000/svg" width="163.63" height="24" viewBox="0 0 163.63 24">
  <g id="グループ_112" data-name="グループ 112" transform="translate(-1245.37 -2579)">
    <text id="ショッピング" transform="translate(1357 2598)" fill="#bb778e" font-size="16" font-family="NotoSansJP-Medium, Noto Sans JP" font-weight="500" letter-spacing="0.09em"><tspan x="-51.6" y="0">ショッピング</tspan></text>
    <g id="hedder" transform="translate(1245.37 2585.01)">
      <g id="グループ_111" data-name="グループ 111">
        <path id="パス_111" data-name="パス 111" d="M12.81,1.39v.27c-.63,0-1.99,0-3.99,3.97L7.54,8.3v3.69c0,1.35.69,1.82,1.45,1.82v.29H3.94v-.29c.76,0,1.45-.47,1.45-1.82V9.01C2.73,4.32,1.91,3.05,1.91,3.05,1.12,1.68.52,1.66,0,1.64V1.39H5.2v.25c-.45,0-1.64-.04-.42,2.04l2.6,4.34,1.3-2.67c.31-.63,1.61-3.69-.92-3.69V1.39H12.8Z" fill="#bb778e"/>
        <path id="パス_112" data-name="パス 112" d="M21,13.03a1.921,1.921,0,0,1-1.9,1.25,1.645,1.645,0,0,1-1.66-1.5,2.627,2.627,0,0,1-2.58,1.5s-2.08,0-2.08-1.84,1.52-2.19,4.64-2.98V8.38c0-1.86-.98-2.85-2.33-2.2-.63.33-.72.65-.61.67a.87.87,0,0,1,.61.36.923.923,0,0,1-.22,1.3A.94.94,0,0,1,13.5,7.3a3.031,3.031,0,0,1,1.41-1.32,3.635,3.635,0,0,1,1.72-.36c2.17,0,2.75,1.48,2.75,3.61v2.89s0,1.19.85,1.19a.544.544,0,0,0,.51-.38l.27.11Zm-6.25-1.01a1.277,1.277,0,0,0,1.3,1.3,1.458,1.458,0,0,0,1.37-.99V9.76c-1.93.43-2.67,1.25-2.67,2.26Z" fill="#bb778e"/>
        <path id="パス_113" data-name="パス 113" d="M31.45,14.11H28.07v-.27c.69-.2.72-.76.72-1.68V8.53c0-1.17-.54-1.79-1.7-1.79A2.127,2.127,0,0,0,25.41,8v4.16c0,.99.09,1.5.74,1.66v.29H22.77v-.29c.69-.2.72-.74.72-1.66V2.66c0-.63-.16-.83-.9-1.03V1.36L25.41.71v6.9A3.481,3.481,0,0,1,28.32,5.6c1.46,0,2.38.69,2.38,2.85v3.7c0,.99.11,1.52.74,1.68v.27Z" fill="#bb778e"/>
        <path id="パス_114" data-name="パス 114" d="M37.61,14.27a4.056,4.056,0,0,1-4.23-4.34,4.056,4.056,0,0,1,4.23-4.34,4.062,4.062,0,0,1,4.25,4.34A4.051,4.051,0,0,1,37.61,14.27Zm0-8.4c-1.34,0-1.97.79-1.97,4.06s.63,4.06,1.97,4.06,1.97-.79,1.97-4.06-.61-4.06-1.97-4.06Z" fill="#bb778e"/>
        <path id="パス_115" data-name="パス 115" d="M48.38,14.27a4.056,4.056,0,0,1-4.23-4.34,4.241,4.241,0,1,1,8.48,0A4.051,4.051,0,0,1,48.38,14.27Zm0-8.4c-1.34,0-1.97.79-1.97,4.06s.63,4.06,1.97,4.06,1.97-.79,1.97-4.06-.61-4.06-1.97-4.06Z" fill="#bb778e"/>
        <path id="パス_116" data-name="パス 116" d="M57.82,13.04a1.21,1.21,0,1,1-2.42,0,1.2,1.2,0,0,1,1.21-1.21,1.208,1.208,0,0,1,1.21,1.21Zm-.69-2.66L57.65.64H55.61l.49,9.74Z" fill="#bb778e"/>
      </g>
    </g>
  </g>
</svg>