<?xml version="1.0" encoding="UTF-8"?><svg id="_イヤー_2" xmlns="http://www.w3.org/2000/svg" viewBox="0 0 403.85 43.32"><defs><style>.cls-1{fill:#bd8064;}</style></defs><g id="footer"><g><path class="cls-1" d="M33.6,30.48l.54,9.12c-4.44,2.94-6.9,3.72-13.32,3.72C8.76,43.32,0,36.42,0,21.66S8.76,0,20.82,0c6.18,0,9.54,.6,13.32,3.66l-.54,9.12h-.54C33.06,1.08,23.64,.54,20.82,.54,14.94,.54,4.56,1.86,4.56,21.66s10.56,21.12,16.26,21.12c2.46,0,12.24-.54,12.24-12.3h.54Z"/><path class="cls-1" d="M75.96,21.96c0,11.94-5.1,21.36-18.3,21.36s-18.3-9.42-18.3-21.36S44.46,0,57.66,0s18.3,10.08,18.3,21.96Zm-3.6,0c0-16.44-7.62-21.42-14.7-21.42s-14.82,4.98-14.82,21.42,7.68,20.82,14.82,20.82,14.7-4.32,14.7-20.82Z"/><path class="cls-1" d="M107.52,29.76v13.02h-25.74v-.54c2.58,0,2.34-1.92,2.34-6V5.82c0-3.66-.24-4.8-2.82-4.8v-.48h9.48v.48c-2.58,0-3.24,1.02-3.24,5.34V42.24h2.16c12.84,.06,17.34,0,17.34-12.48h.48Z"/><path class="cls-1" d="M149.82,21.96c0,11.94-5.1,21.36-18.3,21.36s-18.3-9.42-18.3-21.36S118.32,0,131.52,0s18.3,10.08,18.3,21.96Zm-3.6,0c0-16.44-7.62-21.42-14.7-21.42s-14.82,4.98-14.82,21.42,7.68,20.82,14.82,20.82,14.7-4.32,14.7-20.82Z"/><path class="cls-1" d="M184.8,42.24v.54h-3.6c-4.74,0-4.44-.06-7.14-13.08-1.32-6.42-7.98-6.42-11.1-6.42h-2.82v14.22c0,4.26,.78,4.74,3.3,4.74v.54h-9.42v-.54c2.58,0,3.12-.24,3.12-6.3V4.86c0-3.72-.48-3.78-3.12-3.78V.54h7.98c11.94,0,16.8,1.44,16.8,11.46,0,8.94-4.86,11.1-10.62,11.1,4.02,.72,8.1-1.2,10.74,14.4,1.2,4.56,4.32,4.62,5.88,4.74Zm-9.48-30.24c0-11.46-6.3-10.92-13.32-10.92h-1.86V22.74h1.86c7.8,0,13.32,.12,13.32-10.74Z"/><path class="cls-1" d="M228.06,29.76v13.02h-25.74v-.54c2.58,0,2.34-1.92,2.34-6V5.82c0-3.66-.24-4.8-2.82-4.8v-.48h9.48v.48c-2.58,0-3.24,1.02-3.24,5.34V42.24h2.16c12.84,.06,17.34,0,17.34-12.48h.48Z"/><path class="cls-1" d="M243.78,.54v.48c-2.58,0-3.3,.42-3.3,4.14V37.2c0,4.08,.78,5.04,3.3,5.04v.54h-10.2v-.54c2.58,0,3.3-.96,3.3-5.04V5.16c0-3.72-.66-4.14-3.3-4.14v-.48h10.2Z"/><path class="cls-1" d="M289.98,.54v.48c-8.28,0-8.04,3-8.04,14.16v27.6h-.66l-24.84-32.82V28.08c0,10.62,.06,14.16,7.56,14.16v.54h-16.44v-.54c8.28,0,8.34-3.36,8.34-14.16V9.24l-2.58-3.42c-3.84-4.8-5.58-4.68-7.14-4.8v-.48h7.5l27.72,37.14V15.18c0-11.16,0-14.16-7.5-14.16v-.48h16.08Z"/><path class="cls-1" d="M318.9,30.9v11.88h-26.52v-.54c2.52,0,2.94-1.2,2.94-5.28V5.04c0-3.72-.3-3.96-2.94-3.96V.54h25.74V10.74h-.54c0-9.48-4.5-9.66-14.22-9.66h-4.38V21.18h5.64c3.24,0,6.9-.06,6.9-5.88h.54v12.3h-.54c0-5.82-3.84-5.88-6.9-5.88h-5.64v20.52h3.36c10.68,0,16.02,.54,16.02-11.34h.54Z"/><path class="cls-1" d="M353.93,43.32c-7.38,0-12.96-4.8-12.96-14.58V6.18c0-4.44-1.02-5.1-3.66-5.1V.54h10.8v.54c-2.58,0-3.96,.12-3.96,5.28V29.34c0,7.86,4.5,12.18,11.82,12.18,7.68,0,11.76-4.8,11.76-12.66V14.04c0-11.34-.36-12.96-6.06-12.96V.54h13.02v.54c-6.66,0-6.42,1.62-6.42,12.96v14.82c.06,8.64-4.8,14.46-14.34,14.46Z"/><path class="cls-1" d="M384.47,34.56c0,7.62-.18,7.68,4.8,7.68v.54h-11.88v-.54c3.3,0,3.96-.06,3.96-7.38V5.4c0-4.56,0-4.38-3.42-4.38v-.48h6.54c11.94,0,19.38,.78,19.38,12.12s-7.44,11.94-19.38,11.94v9.96Zm0-10.5c8.82,0,16.14,.18,16.14-11.4s-7.98-11.64-16.14-11.64V24.06Z"/></g></g></svg>