<?xml version="1.0" encoding="UTF-8"?><svg id="_イヤー_2" xmlns="http://www.w3.org/2000/svg" viewBox="0 0 250.34 43.32"><defs><style>.cls-1{fill:#bd8064;}</style></defs><g id="ranking"><g><path class="cls-1" d="M30.78,42.04v.54h-3.6c-4.74,0-4.44-.06-7.14-13.08-1.32-6.42-7.98-6.42-11.1-6.42h-2.82v14.22c0,4.26,.78,4.74,3.3,4.74v.54H0v-.54c2.58,0,3.12-.24,3.12-6.3V4.66C3.12,.94,2.64,.88,0,.88V.34H7.98C19.92,.34,24.78,1.78,24.78,11.8c0,8.94-4.86,11.1-10.62,11.1,4.02,.72,8.1-1.2,10.74,14.4,1.2,4.56,4.32,4.62,5.88,4.74ZM21.3,11.8C21.3,.34,15,.88,7.98,.88h-1.86V22.54h1.86c7.8,0,13.32,.12,13.32-10.74Z"/><path class="cls-1" d="M71.44,42.04v.54h-10.2v-.54c1.8,0,3.72-.42,.9-7.14l-2.34-6.12h-16.86c-3.3,9.6-4.8,13.26,2.4,13.26v.54h-12v-.54c3,0,4.5-1.02,9-14.46L52.06,.34h.24l14.34,36.3c1.92,4.8,3,5.28,4.8,5.4Zm-11.82-13.8L51.1,5.98l-7.98,22.26h16.5Z"/><path class="cls-1" d="M116.98,.34v.48c-8.28,0-8.04,3-8.04,14.16v27.6h-.66L83.44,9.76V27.88c0,10.62,.06,14.16,7.56,14.16v.54h-16.44v-.54c8.28,0,8.34-3.36,8.34-14.16V9.04l-2.58-3.42c-3.84-4.8-5.58-4.68-7.14-4.8V.34h7.5l27.72,37.14V14.98c0-11.16,0-14.16-7.5-14.16V.34h16.08Z"/><path class="cls-1" d="M129.95,.34v.48c-2.64,0-4.26-.24-4.26,4.14V37.3c0,4.08,1.02,4.74,3.6,4.74v.54h-10.5v-.54c2.52,0,3.36-.66,3.36-4.74V4.96c0-3.72-.78-4.14-3.36-4.14V.34h11.16Zm16.08,38.88l-14.16-19.02C144.83,3.58,147.23,.82,151.97,.82V.34h-13.2v.48c7.2,0,3.6,4.5-3.24,12.54l-6.84,8.34s3.78,5.1,7.26,10.02c6.3,9.12,7.68,10.86,14.04,10.86h3.36v-.54s-4.8,.36-7.32-2.82Z"/><path class="cls-1" d="M167.36,.34v.48c-2.58,0-3.3,.42-3.3,4.14V37c0,4.08,.78,5.04,3.3,5.04v.54h-10.2v-.54c2.58,0,3.3-.96,3.3-5.04V4.96c0-3.72-.66-4.14-3.3-4.14V.34h10.2Z"/><path class="cls-1" d="M213.38,.34v.48c-8.28,0-8.04,3-8.04,14.16v27.6h-.66l-24.84-32.82V27.88c0,10.62,.06,14.16,7.56,14.16v.54h-16.44v-.54c8.28,0,8.34-3.36,8.34-14.16V9.04l-2.58-3.42c-3.84-4.8-5.58-4.68-7.14-4.8V.34h7.5l27.72,37.14V14.98c0-11.16,0-14.16-7.5-14.16V.34h16.08Z"/><path class="cls-1" d="M250.34,25.98v.54c-3.66,0-3.78,0-3.78,14.28-3.72,1.44-8.4,2.52-14.82,2.52-12.96,0-18.54-9.72-18.54-21.66S218.78,0,231.74,0c8.22,0,11.28,1.2,15,3.66l-.6,9.12h-.54c0-10.62-6.78-12.24-13.86-12.24s-14.1,4.62-14.1,21.12,7.38,21.12,14.1,21.12,11.82-2.1,11.82-6.3c0-9.9,0-9.96-4.5-9.96v-.54h11.28Z"/></g></g></svg>