<?xml version="1.0" encoding="UTF-8"?><svg id="_イヤー_2" xmlns="http://www.w3.org/2000/svg" viewBox="0 0 202.39 42.78"><defs><style>.cls-1{fill:#bd8064;}</style></defs><g id="line_up"><g><path class="cls-1" d="M26.22,29.22v13.02H.48v-.54c2.58,0,2.34-1.92,2.34-6V5.28C2.82,1.62,2.58,.48,0,.48v-.48H9.48V.48c-2.58,0-3.24,1.02-3.24,5.34V41.7h2.16c12.84,.06,17.34,0,17.34-12.48h.48Z"/><path class="cls-1" d="M40.88,0V.48c-2.58,0-3.3,.42-3.3,4.14V36.66c0,4.08,.78,5.04,3.3,5.04v.54h-10.2v-.54c2.58,0,3.3-.96,3.3-5.04V4.62c0-3.72-.66-4.14-3.3-4.14v-.48h10.2Z"/><path class="cls-1" d="M87.63,0V.48c-8.28,0-8.04,3-8.04,14.16v27.6h-.66L54.09,9.42V27.54c0,10.62,.06,14.16,7.56,14.16v.54h-16.44v-.54c8.28,0,8.34-3.36,8.34-14.16V8.7l-2.58-3.42C47.13,.48,45.39,.6,43.83,.48v-.48h7.5l27.72,37.14V14.64c0-11.16,0-14.16-7.5-14.16v-.48h16.08Z"/><path class="cls-1" d="M117.24,30.36v11.88h-26.52v-.54c2.52,0,2.94-1.2,2.94-5.28V4.5c0-3.72-.3-3.96-2.94-3.96V0h25.74V10.2h-.54c0-9.48-4.5-9.66-14.22-9.66h-4.38V20.64h5.64c3.24,0,6.9-.06,6.9-5.88h.54v12.3h-.54c0-5.82-3.84-5.88-6.9-5.88h-5.64v20.52h3.36c10.68,0,16.02,.54,16.02-11.34h.54Z"/><path class="cls-1" d="M152.28,42.78c-7.38,0-12.96-4.8-12.96-14.58V5.64c0-4.44-1.02-5.1-3.66-5.1V0h10.8V.54c-2.58,0-3.96,.12-3.96,5.28V28.8c0,7.86,4.5,12.18,11.82,12.18,7.68,0,11.76-4.8,11.76-12.66V13.5c0-11.34-.36-12.96-6.06-12.96V0h13.02V.54c-6.66,0-6.42,1.62-6.42,12.96v14.82c.06,8.64-4.8,14.46-14.34,14.46Z"/><path class="cls-1" d="M183.01,34.02c0,7.62-.18,7.68,4.8,7.68v.54h-11.88v-.54c3.3,0,3.96-.06,3.96-7.38V4.86c0-4.56,0-4.38-3.42-4.38v-.48h6.54c11.94,0,19.38,.78,19.38,12.12s-7.44,11.94-19.38,11.94v9.96Zm0-10.5c8.82,0,16.14,.18,16.14-11.4S191.17,.48,183.01,.48V23.52Z"/></g></g></svg>