<?xml version="1.0" encoding="UTF-8"?><svg id="_イヤー_2" xmlns="http://www.w3.org/2000/svg" viewBox="0 0 373.34 43.32"><defs><style>.cls-1{fill:#bd8064;}</style></defs><g id="color_chart"><g><path class="cls-1" d="M33.6,30.48l.54,9.12c-4.44,2.94-6.9,3.72-13.32,3.72C8.76,43.32,0,36.42,0,21.66S8.76,0,20.82,0c6.18,0,9.54,.6,13.32,3.66l-.54,9.12h-.54C33.06,1.08,23.64,.54,20.82,.54,14.94,.54,4.56,1.86,4.56,21.66s10.56,21.12,16.26,21.12c2.46,0,12.24-.54,12.24-12.3h.54Z"/><path class="cls-1" d="M74.6,21.96c0,11.94-5.1,21.36-18.3,21.36s-18.3-9.42-18.3-21.36S43.1,0,56.3,0s18.3,10.08,18.3,21.96Zm-3.6,0C71,5.52,63.38,.54,56.3,.54s-14.82,4.98-14.82,21.42,7.68,20.82,14.82,20.82,14.7-4.32,14.7-20.82Z"/><path class="cls-1" d="M104.37,29.76v13.02h-25.74v-.54c2.58,0,2.34-1.92,2.34-6V5.82c0-3.66-.24-4.8-2.82-4.8v-.48h9.48v.48c-2.58,0-3.24,1.02-3.24,5.34V42.24h2.16c12.84,.06,17.34,0,17.34-12.48h.48Z"/><path class="cls-1" d="M145.14,21.96c0,11.94-5.1,21.36-18.3,21.36s-18.3-9.42-18.3-21.36S113.64,0,126.84,0s18.3,10.08,18.3,21.96Zm-3.6,0c0-16.44-7.62-21.42-14.7-21.42s-14.82,4.98-14.82,21.42,7.68,20.82,14.82,20.82,14.7-4.32,14.7-20.82Z"/><path class="cls-1" d="M178.95,42.24v.54h-3.6c-4.74,0-4.44-.06-7.14-13.08-1.32-6.42-7.98-6.42-11.1-6.42h-2.82v14.22c0,4.26,.78,4.74,3.3,4.74v.54h-9.42v-.54c2.58,0,3.12-.24,3.12-6.3V4.86c0-3.72-.48-3.78-3.12-3.78V.54h7.98c11.94,0,16.8,1.44,16.8,11.46,0,8.94-4.86,11.1-10.62,11.1,4.02,.72,8.1-1.2,10.74,14.4,1.2,4.56,4.32,4.62,5.88,4.74Zm-9.48-30.24c0-11.46-6.3-10.92-13.32-10.92h-1.86V22.74h1.86c7.8,0,13.32,.12,13.32-10.74Z"/><path class="cls-1" d="M229.41,30.48l.54,9.12c-4.44,2.94-6.9,3.72-13.32,3.72-12.06,0-20.82-6.9-20.82-21.66S204.57,0,216.63,0c6.18,0,9.54,.6,13.32,3.66l-.54,9.12h-.54c0-11.7-9.42-12.24-12.24-12.24-5.88,0-16.26,1.32-16.26,21.12s10.56,21.12,16.26,21.12c2.46,0,12.24-.54,12.24-12.3h.54Z"/><path class="cls-1" d="M261.75,8.58v26.04c0,4.92,.12,6.78,3.24,7.62v.54h-8.7v-.54c1.62-.6,2.04-1.86,2.04-7.62v-11.7h-18.42v11.7c0,7.32,.36,7.02,2.04,7.62v.54h-8.76v-.54c3.18-.84,3.3-1.08,3.3-7.62V8.58c0-6.18-.42-7.02-3.3-7.56v-.48h8.76v.48c-1.68,.54-2.04,.54-2.04,7.56v13.44h18.42V8.58c0-7.02-.36-7.02-2.04-7.56v-.48h8.7v.48c-2.82,.54-3.24,.54-3.24,7.56Z"/><path class="cls-1" d="M306.24,42.24v.54h-10.2v-.54c1.8,0,3.72-.42,.9-7.14l-2.34-6.12h-16.86c-3.3,9.6-4.8,13.26,2.4,13.26v.54h-12v-.54c3,0,4.5-1.02,9-14.46L286.86,.54h.24l14.34,36.3c1.92,4.8,3,5.28,4.8,5.4Zm-11.82-13.8l-8.52-22.26-7.98,22.26h16.5Z"/><path class="cls-1" d="M340.03,42.24v.54h-3.6c-4.74,0-4.44-.06-7.14-13.08-1.32-6.42-7.98-6.42-11.1-6.42h-2.82v14.22c0,4.26,.78,4.74,3.3,4.74v.54h-9.42v-.54c2.58,0,3.12-.24,3.12-6.3V4.86c0-3.72-.48-3.78-3.12-3.78V.54h7.98c11.94,0,16.8,1.44,16.8,11.46,0,8.94-4.86,11.1-10.62,11.1,4.02,.72,8.1-1.2,10.74,14.4,1.2,4.56,4.32,4.62,5.88,4.74Zm-9.48-30.24c0-11.46-6.3-10.92-13.32-10.92h-1.86V22.74h1.86c7.8,0,13.32,.12,13.32-10.74Z"/><path class="cls-1" d="M373.34,.54V9.6h-.54c0-8.64-7.26-8.58-8.94-8.58h-5.94V38.4c0,3.84,1.08,3.84,3.6,3.84v.54h-10.38v-.54c2.52,0,3.6,0,3.6-3.84V1.02h-5.94c-3.72,0-8.94-.06-8.94,8.58h-.48V.54h33.96Z"/></g></g></svg>