<?xml version="1.0" encoding="UTF-8"?><svg id="_イヤー_2" xmlns="http://www.w3.org/2000/svg" viewBox="0 0 546.47 43.32"><defs><style>.cls-1{fill:#bd8064;}</style></defs><g id="new_colors"><g><path class="cls-1" d="M43.8,.54v.48c-8.28,0-8.04,3-8.04,14.16v27.6h-.66L10.26,9.96V28.08c0,10.62,.06,14.16,7.56,14.16v.54H1.38v-.54c8.28,0,8.34-3.36,8.34-14.16V9.24l-2.58-3.42C3.3,1.02,1.56,1.14,0,1.02v-.48H7.5l27.72,37.14V15.18c0-11.16,0-14.16-7.5-14.16v-.48h16.08Z"/><path class="cls-1" d="M72.41,30.9v11.88h-26.52v-.54c2.52,0,2.94-1.2,2.94-5.28V5.04c0-3.72-.3-3.96-2.94-3.96V.54h25.74V10.74h-.54c0-9.48-4.5-9.66-14.22-9.66h-4.38V21.18h5.64c3.24,0,6.9-.06,6.9-5.88h.54v12.3h-.54c0-5.82-3.84-5.88-6.9-5.88h-5.64v20.52h3.36c10.68,0,16.02,.54,16.02-11.34h.54Z"/><path class="cls-1" d="M133.56,.54v.54c-6,0-5.58,1.44-9.9,14.34l-9.3,27.36h-.66l-9.24-27.48-8.52,27.48h-.72L81.91,5.58c-1.44-3.78-3.42-4.5-5.94-4.5V.54h13.2v.54c-5.28,0-4.86,2.52-4.56,3.36l12,34.26,7.56-24.18-2.82-8.94c-1.44-3.78-3.48-4.5-5.94-4.5V.54h13.14v.54c-5.28,0-4.74,2.52-4.56,3.36l11.16,34.44,7.92-23.52c3.42-11.46,4.32-14.28-2.28-14.28V.54h12.78Z"/><path class="cls-1" d="M184.62,30.48l.54,9.12c-4.44,2.94-6.9,3.72-13.32,3.72-12.06,0-20.82-6.9-20.82-21.66S159.78,0,171.84,0c6.18,0,9.54,.6,13.32,3.66l-.54,9.12h-.54c0-11.7-9.42-12.24-12.24-12.24-5.88,0-16.26,1.32-16.26,21.12s10.56,21.12,16.26,21.12c2.46,0,12.24-.54,12.24-12.3h.54Z"/><path class="cls-1" d="M225.63,21.96c0,11.94-5.1,21.36-18.3,21.36s-18.3-9.42-18.3-21.36S194.13,0,207.33,0s18.3,10.08,18.3,21.96Zm-3.6,0c0-16.44-7.62-21.42-14.7-21.42s-14.82,4.98-14.82,21.42,7.68,20.82,14.82,20.82,14.7-4.32,14.7-20.82Z"/><path class="cls-1" d="M255.4,29.76v13.02h-25.74v-.54c2.58,0,2.34-1.92,2.34-6V5.82c0-3.66-.24-4.8-2.82-4.8v-.48h9.48v.48c-2.58,0-3.24,1.02-3.24,5.34V42.24h2.16c12.84,.06,17.34,0,17.34-12.48h.48Z"/><path class="cls-1" d="M296.16,21.96c0,11.94-5.1,21.36-18.3,21.36s-18.3-9.42-18.3-21.36S264.66,0,277.86,0s18.3,10.08,18.3,21.96Zm-3.6,0c0-16.44-7.62-21.42-14.7-21.42s-14.82,4.98-14.82,21.42,7.68,20.82,14.82,20.82,14.7-4.32,14.7-20.82Z"/><path class="cls-1" d="M329.97,42.24v.54h-3.6c-4.74,0-4.44-.06-7.14-13.08-1.32-6.42-7.98-6.42-11.1-6.42h-2.82v14.22c0,4.26,.78,4.74,3.3,4.74v.54h-9.42v-.54c2.58,0,3.12-.24,3.12-6.3V4.86c0-3.72-.48-3.78-3.12-3.78V.54h7.98c11.94,0,16.8,1.44,16.8,11.46,0,8.94-4.86,11.1-10.62,11.1,4.02,.72,8.1-1.2,10.74,14.4,1.2,4.56,4.32,4.62,5.88,4.74Zm-9.48-30.24c0-11.46-6.3-10.92-13.32-10.92h-1.86V22.74h1.86c7.8,0,13.32,.12,13.32-10.74Z"/><path class="cls-1" d="M355.95,38.4s-2.28,4.92-11.22,4.92c-7.92,0-12.18-3.06-12.18-3.06v-11.52h.48c0,10.98,1.92,14.04,11.64,14.04,11.82,0,12.3-11.58,5.52-16.2l-10.62-7.08c-2.88-2.22-10.68-7.08-6.42-14.76,0,0,2.94-4.74,10.2-4.74s12,2.76,12,2.76V12.84h-.6c0-8.64-1.02-12.3-11.4-12.3-6.48,0-13.98,8.76-3.72,15.42l10.56,6.9c8.16,5.4,7.56,12.18,5.76,15.54Z"/><path class="cls-1" d="M409.1,21.66c0,18.78-10.56,21.12-22.5,21.12h-9.96v-.54c2.58,0,3.6-1.44,3.6-5.52V6.42c0-3.72-.96-5.34-3.6-5.34V.54h9.96c11.94,0,22.5,3.54,22.5,21.12Zm-3.96,0c0-20.04-11.22-20.58-18.54-20.58h-2.64V42.24h2.64c7.02,0,18.54,.6,18.54-20.58Z"/><path class="cls-1" d="M438.85,30.9v11.88h-26.52v-.54c2.52,0,2.94-1.2,2.94-5.28V5.04c0-3.72-.3-3.96-2.94-3.96V.54h25.74V10.74h-.54c0-9.48-4.5-9.66-14.22-9.66h-4.38V21.18h5.64c3.24,0,6.9-.06,6.9-5.88h.54v12.3h-.54c0-5.82-3.84-5.88-6.9-5.88h-5.64v20.52h3.36c10.68,0,16.02,.54,16.02-11.34h.54Z"/><path class="cls-1" d="M470.33,32.04c0,10.32-7.14,10.74-17.52,10.74h-9.36v-.54c2.58,0,3.48-1.56,3.48-5.64V6.42c0-3.72-.84-5.34-3.48-5.34V.54h9.36c8.34,0,14.7,1.32,14.7,10.32,0,9.72-8.1,10.26-9.3,10.26,3.9,0,12.12,.9,12.12,10.92ZM450.47,1.08V21.12h4.92c4.14,0,7.56-.96,7.56-10.26,0-8.7-4.98-9.78-9.48-9.78h-3Zm15.3,30.72c0-9.9-5.52-10.14-10.38-10.14h-4.92v20.58h3c6.24,0,12.3,.12,12.3-10.44Z"/><path class="cls-1" d="M488.87,43.32c-7.38,0-12.96-4.8-12.96-14.58V6.18c0-4.44-1.02-5.1-3.66-5.1V.54h10.8v.54c-2.58,0-3.96,.12-3.96,5.28V29.34c0,7.86,4.5,12.18,11.82,12.18,7.68,0,11.76-4.8,11.76-12.66V14.04c0-11.34-.36-12.96-6.06-12.96V.54h13.02v.54c-6.66,0-6.42,1.62-6.42,12.96v14.82c.06,8.64-4.8,14.46-14.34,14.46Z"/><path class="cls-1" d="M546.47,.54V9.6h-.54c0-8.64-7.26-8.58-8.94-8.58h-5.94V38.4c0,3.84,1.08,3.84,3.6,3.84v.54h-10.38v-.54c2.52,0,3.6,0,3.6-3.84V1.02h-5.94c-3.72,0-8.94-.06-8.94,8.58h-.48V.54h33.96Z"/></g></g></svg>