<?xml version="1.0" encoding="UTF-8"?>
<svg xmlns="http://www.w3.org/2000/svg" version="1.1" viewBox="0 0 18.1499996 4.6900001">
  <defs>
    <style>
      .cls-1, .cls-2 {
        fill: #5f5f5f;
      }

      .cls-2 {
        stroke: #5f5f5f;
        stroke-linecap: round;
        stroke-linejoin: round;
        stroke-width: .05px;
      }
    </style>
  </defs>
  <!-- Generator: Adobe Illustrator 28.6.0, SVG Export Plug-In . SVG Version: 1.2.0 Build 709)  -->
  <g>
    <g id="_レイヤー_2">
      <g id="lay">
        <g>
          <g>
            <path class="cls-2" d="M1.26,2.5699999l.04.51h-.03c-.1-.3099999-.24-.73-.57-.73-.22,0-.38.2-.38.4200001,0,.6199999,1.0299999.6900001,1.0299999,1.3600001,0,.3499999-.23.52-.61.52-.45,0-.55-.21-.61-.2599998l-.09-.54h.04c.14.3099999.34.75.7.75.24,0,.39-.1999998.39-.4400001,0-.5999999-1.03-.6700001-1.03-1.3600001,0-.3299999.23-.51.56-.51.3800001,0,.4999999.21.56.26v.0199997Z"/>
            <path class="cls-2" d="M2.55,4.6399999v-.3800001c-.0699999.1799998-.2.4000001-.47.4000001-.3199999,0-.4300001-.2800002-.4300001-.5599999,0-.2.0599999-.6399999.47-.6399999.25,0,.3600001.1400001.4300001.27v-.25c0-.1800001,0-.5699999-.25-.5699999-.1900001,0-.37.23-.51.48h-.04l.1-.3900001c.0700001-.04.1899999-.1400001.41-.1400001.3099999,0,.46.2.46.54v1.03c0,.0799999.03.1199999.0999999.1999998h-.28l.01.0100002ZM2.55,3.79c-.0699999-.1400001-.1900001-.3-.3499999-.3-.27,0-.37.4300001-.37.6499999s.12.4900002.3100001.4900002.3499999-.2800002.4100001-.46v-.3699999l-.0000002-.0100002Z"/>
            <path class="cls-2" d="M3.9400001,3.0899999l-.28.4400001.49.9100001c.04.0700002.0999999.1199999.1700001.1999998h-.4100001c.0799999-.0799999.0699999-.1300001.03-.1999998l-.4100001-.74-.22.3500001v.3899999c0,.0799999.03.1199999.0999999.1999998h-.3800001c.0799999-.0799999.0999999-.1199999.0999999-.1999998v-1.9099998c0-.1099999-.03-.1400001-.0699999-.1400001-.03,0-.0699999.03-.0999999.05v-.03c.0799999-.0799999.2-.1900001.27-.1900001.0599999,0,.0699999.05.0699999.2v1.5599999l.5599999-.8800001c.04-.0599999.04-.1199999,0-.2h.2600002c-.1100001.0799999-.1700001.1400001-.21.2l.0300002-.01Z"/>
            <path class="cls-2" d="M5.4899998,3.0899999v1.3500001c0,.0799999.0300002.1199999.0999999.1999998h-.2800002v-.54c-.0799999.2399998-.2199998.5700002-.5.5700002-.1799998,0-.3400002-.1399999-.3400002-.48v-1.0900002c0-.0799999-.0300002-.1199999-.0999999-.2h.3800001c-.0799999.0799999-.0999999.1199999-.0999999.2v.9299998c0,.2800002.02.5999999.2199998.5999999.21,0,.3699999-.3499999.4499998-.5900002v-.9300001c0-.0799999-.0300002-.1199999-.0999999-.2h.3800001c-.0799999.0799999-.0999999.1199999-.0999999.2l-.0099998-.0199995Z"/>
            <path class="cls-2" d="M6.8400002,3.0699999l.04.52h-.04c-.0700002-.3799999-.1799998-.6700001-.3200002-.6700001-.1599998,0-.29.4200001-.3600001.73v.7900002c0,.0799999.0300002.1199999.0999999.1999998h-.3800001c.0799999-.0799999.0999999-.1199999.0999999-.1999998v-1.25c0-.1099999-.0300002-.1400001-.0700002-.1400001-.0300002,0-.0700002.03-.0999999.05v-.03c.0799999-.0799999.1999998-.1900001.27-.1900001.0500002,0,.0700002.05.0700002.2v.4200001c.0700002-.3099999.1900001-.6300001.3800001-.6300001.1199999,0,.25.1300001.29.2h.0200005Z"/>
            <path class="cls-2" d="M7.9299998,4.6399999v-.3800001c-.0700002.1799998-.1999998.4000001-.4699998.4000001-.3200002,0-.4299998-.2800002-.4299998-.5599999,0-.2.0599999-.6399999.4699998-.6399999.25,0,.3600001.1400001.4299998.27v-.25c0-.1800001,0-.5699999-.25-.5699999-.1900001,0-.3699999.23-.5099998.48h-.04l.0999999-.3900001c.0700002-.04.1900001-.1400001.4099998-.1400001.3099999,0,.4599996.2.4599996.54v1.03c0,.0799999.0299997.1199999.1000004.1999998h-.2800002l.0100002.0100002ZM7.9299998,3.79c-.0700002-.1400001-.1900001-.3-.3499999-.3-.27,0-.3699999.4300001-.3699999.6499999s.1199999.4900002.3099999.4900002.3499999-.2800002.4099998-.46v-.3800001Z"/>
            <path class="cls-2" d="M10.7200003,2.5699999l.04.51h-.0299997c-.1000004-.3099999-.2399998-.73-.5699997-.73-.2200003,0-.3800001.2-.3800001.4200001,0,.6199999,1.0299997.6900001,1.0299997,1.3600001,0,.3499999-.2299995.52-.6099997.52-.4499998,0-.5500002-.21-.6099997-.2599998l-.0900002-.54h.04c.1400003.3099999.3400002.75.6999998.75.2399998,0,.3900003-.1999998.3900003-.4400001,0-.5999999-1.0299997-.6700001-1.0299997-1.3600001,0-.3299999.2299995-.51.5600004-.51.3800001,0,.5.21.5600004.26l-.0000019.0199997Z"/>
            <path class="cls-2" d="M11.1899996,4.4400001v-1.25c0-.1099999-.0299997-.1400001-.0699997-.1400001-.0299997,0-.0699997.03-.1000004.05v-.03c.0799999-.0799999.1999998-.1900001.2700005-.1900001.0500002,0,.0699997.05.0699997.2v.3499999c.0699997-.24.1800003-.55.4200001-.55.1599998,0,.2799997.1400001.2799997.48v.0699999c.0699997-.24.1800003-.55.4200001-.55.1599998,0,.2799997.1400001.2799997.48v1.0899999c0,.0799999.0299997.1199999.1000004.1999998h-.3800001c.0799999-.0799999.1000004-.1199999.1000004-.1999998v-.9300001c0-.28,0-.6000001-.1499996-.6000001s-.3100004.3399999-.3800001.5799999v.9400001c0,.0799999.0299997.1199999.1000004.1999998h-.3800001c.0799999-.0799999.1000004-.1199999.1000004-.1999998v-.9300001c0-.28.0100002-.6000001-.1499996-.6000001s-.3000002.3399999-.3699999.5799999v.9400001c0,.0799999.0299997.1199999.1000004.1999998h-.3800001c.0799999-.0799999.1000004-.1199999.1000004-.1999998l.0199976.0100007Z"/>
            <path class="cls-2" d="M14,2.8699999c.54,0,.9200001.3399999.9200001.9000001s-.3800001.9000001-.9200001.9000001-.9200001-.3400002-.9200001-.9000001.3800001-.9000001.9200001-.9000001ZM14,4.6199999c.4300003,0,.7399998-.3299999.7399998-.8600001s-.3000002-.8600001-.7399998-.8600001-.7399998.3299999-.7399998.8600001.3000002.8600001.7399998.8600001Z"/>
            <path class="cls-2" d="M16.1200008,3.0699999l.0400009.52h-.0400009c-.0699997-.3799999-.1800003-.6700001-.3199997-.6700001-.1599998,0-.29.4200001-.3599997.73v.7900002c0,.0799999.0299997.1199999.1000004.1999998h-.3800001c.0799999-.0799999.1000004-.1199999.1000004-.1999998v-1.25c0-.1099999-.0299997-.1400001-.0699997-.1400001-.0299997,0-.0699997.03-.1000004.05v-.03c.0799999-.0799999.1999998-.1900001.2700005-.1900001.0600004,0,.0699997.05.0699997.2v.4200001c.0699997-.3099999.1899996-.6300001.3800001-.6300001.1199999,0,.249999.1300001.29.2h.0199986Z"/>
            <path class="cls-2" d="M17.5799999,3.48c.3099995.0699999.5400009.24.5400009.5500002,0,.3499999-.2999992.6300001-.7800007.6300001-.5400009,0-.9699993-.3400002-.9699993-.9000001s.4200001-.9000001.9200001-.9000001c.3999996,0,.6900005.23.8099995.6199999h-.5300007.0100002ZM16.5900002,3.48c-.0200005.0899999-.0400009.1800001-.0400009.28,0,.53.3500004.8500001.8199997.8500001.3799992,0,.7099991-.2199998.7099991-.5799999,0-.3299999-.2900009-.5-.6399994-.55h-.8600006l.0100021-.0000002ZM17.9200001,3.45c-.1000004-.3399999-.3299999-.54-.6200008-.54-.3099995,0-.5900002.2-.6900005.54h1.3199997-.0099983Z"/>
          </g>
          <g>
            <path class="cls-1" d="M.3.34C.3.17.3.09.28.04.35.04.4.04.44.05c.05,0,.05.01.05.03v.02c-.01.03-.01.05-.02.24h.33c0-.17,0-.24-.02-.31C.86.03.91.03.95.05c.03,0,.04.01.04.03,0,0,0,.01-.01.04,0,.01,0,.06-.01.1v.12h.2799999v.09c0,.07,0,.08-.02.08h-.27c0,.23-.04.35-.11.47-.06.1-.15.1800001-.26.24-.04.02-.09.04-.11.04q-.01,0-.05-.03c-.03-.04-.05-.05-.1-.08.22-.08.33-.17.4-.31.04-.09.06-.18.07-.33h-.34c0,.0733333,0,.1533334,0,.24v.02s0,.03-.02.04h-.1c-.05,0-.06,0-.06-.03v-.27c-.08,0-.21,0-.25.01H.03c-.01,0-.02,0-.02-.02C.01.4700001,0,.4000001-.01.33c.08,0,.12.01.24.01h.0700001Z"/>
            <path class="cls-1" d="M2,.37c-.1.14-.28.3-.3199999.3-.01,0-.02,0-.05-.03-.02-.02-.0599999-.05-.11-.07.11-.06.22-.15.3000001-.25C1.9100002.2200001,1.9600002.1300001,2.0100002,0c.0699999.02.1099999.04.1600001.07.02.01.03.02.03.03s0,.02-.02.03c-.01.01-.03.03-.0699999.08h.22c.0799999,0,.0999999,0,.1400001-.02h.02c.02,0,.05.02.0899999.08.03.04.04.05.04.07s0,.02-.03.04c-.01.01-.03.04-.05.07-.1600001.29-.3199999.48-.5599999.66-.1.08-.24.16-.27.16-.01,0-.02,0-.04-.02-.03-.03-.0700001-.0599999-.12-.09.22-.1.37-.21.5200001-.36.1099999-.11.1800001-.21.25-.33.01-.03.02-.04.05-.09h-.38l.0099994-.0099999Z"/>
            <path class="cls-1" d="M2.97.59h-.01c-.03,0-.05-.05-.0599999-.21.0699999.01.1800001.02.46.02h.4100001c.02,0,.03,0,.0599999-.01h.03c.02,0,.04.01.0599999.04.04.05.0699999.09.0699999.11,0,.02,0,.03-.03.05-.01.01-.02.02-.05.09-.0999999.22-.21.36-.3900001.47-.0799999.05-.21.11-.24.11-.02,0-.03,0-.0599999-.04-.04-.05-.0599999-.0599999-.0999999-.08.1700001-.05.3299999-.14.4400001-.24.0799999-.08.1500001-.19.1900001-.32-.5699999,0-.6700001.01-.78.03l-.0000002-.0200001ZM3.46.05c.1066668,0,.2166669-.0033333.3299999-.01h.02s.03.02.03.06v.05h0c0,.06,0,.07-.03.07h-.22c-.22,0-.3900001,0-.47.01h-.01s-.04-.02-.05-.19c.0999999.01.1900001.02.4100001.02l-.01-.01Z"/>
            <path class="cls-1" d="M5.1399999.91c.0999999.09.1500001.15.1500001.17,0,.01-.02.04-.0700002.08-.0300002.03-.0500002.04-.0599999.04,0,0-.0100002,0-.02-.01-.0066667-.0066667-.0366669-.04-.0900002-.1-.0799999-.09-.1900001-.19-.3299999-.29-.0999999.1-.23.22-.3400002.29-.0799999.0599999-.1700001.1-.1799998.1-.0100002,0-.02,0-.0500002-.04-.02-.02-.0599999-.05-.0900002-.08.1700001-.08.3000002-.17.4400001-.3.1500001-.14.2599998-.27.3800001-.48-.3400002,0-.5366669.0033333-.5900002.01-.0800004.01-.02,0-.02,0-.02,0-.0300002,0-.0300002-.02,0-.05-.0100002-.09-.0100002-.17.0999999.01.2599998.02.48.02h.23q.02,0,.0500002-.01h.02c.0300002,0,.0500002.02.0900002.07.0300002.04.04.07.04.09s0,.02-.04.06c-.02.02-.0300002.04-.0799999.11-.04.08-.1100001.17-.1700001.24.1199999.08.1999998.14.29.23l.0000005-.0100001Z"/>
            <path class="cls-1" d="M6.02.53h.1199999c.0999999,0,.3400002,0,.3899999-.01h.04q.0300002,0,.0300002.06v.11h-.5799999v.13c0,.11,0,.13.04.15.02.02.0799999.03.1599998.03.0599999,0,.1300001,0,.2199998-.02h.0300002q.02,0,.0300002.04v.11c0,.02,0,.03-.0300002.03s-.1500001.01-.2399998.01c-.1399999,0-.23-.01-.29-.04-.0900002-.04-.1199999-.11-.1199999-.23v-.21h-.3000002c-.0700002,0-.0300002,0-.0300002,0h-.0200005c-.0100002,0-.0300002,0-.0300002-.03s-.0100002-.09-.0100002-.15c.0999999,0,.2599998.02.4000001.02v-.23h-.25c-.0100002,0-.02,0-.02-.02,0-.03-.0100002-.1-.0100002-.16.0999999.01.2199998.01.4400001.01s.3499999,0,.4299998-.01h0s.0300002,0,.0300002.06c0,.0666667-.0100002.1-.0300002.1h-.4000001v.23l.0000014.02Z"/>
            <path class="cls-1" d="M7.2800002.11h.4000001c.0700002,0,.0900002,0,.1100001-.01h.0300002c.0300002,0,.0599999.02.0999999.08.04.05.0500002.08.0500002.1s0,.03-.02.04-.0300002.02-.0599999.06c-.0500002.08-.1199999.15-.2199998.23-.04.04-.0500002.04-.0700002.04,0,0-.02,0-.0300002-.01-.04-.04-.0700002-.07-.1199999-.1.1199999-.07.1900001-.15.29-.28-.5133333,0-.8000002.0066667-.8600001.02-.0900002.02-.02,0-.02,0-.02,0-.04-.01-.04-.04-.0100002-.04-.02-.09-.02-.15.0700002.01.1999998.02.4799995.02ZM7.4000001.4s.04.02.04.03v.03c0,.02-.02.05-.02.1-.0300002.2-.0799999.34-.1599998.45-.0599999.09-.1599998.17-.25.21h-.0300002c-.0100002,0-.02,0-.0300002-.02-.0300002-.04-.0700002-.0599999-.1199999-.09.0900002-.04.1300001-.0700001.1900001-.12.1399999-.12.2199998-.31.2199998-.55v-.08c.0700002,0,.1199999.01.1700001.03l-.0099998.01Z"/>
          </g>
        </g>
      </g>
    </g>
  </g>
</svg>