<?xml version="1.0" encoding="UTF-8"?><svg id="_イヤー_2" xmlns="http://www.w3.org/2000/svg" viewBox="0 0 402.8 23.25"><defs><style>.cls-1{fill:#fff;}</style></defs><g id="mv"><g><path class="cls-1" d="M0,2.73H5.27V22.5H2.08V5.82H0V2.73Z"/><path class="cls-1" d="M12.94,22.5V0h.03l11.46,16.41-1.37-.3L34.52,0h.03V22.5h-3.16V7.26l.18,1.62-7.95,11.37h-.06L15.44,8.88l.57-1.5v15.12h-3.07Z"/><path class="cls-1" d="M40.94,11.64c0-1.5,.28-2.92,.85-4.26,.57-1.34,1.35-2.53,2.35-3.57,1-1.04,2.17-1.85,3.5-2.43,1.33-.58,2.76-.87,4.29-.87s2.96,.29,4.29,.87c1.33,.58,2.51,1.39,3.53,2.43,1.02,1.04,1.82,2.23,2.4,3.57,.58,1.34,.86,2.76,.86,4.26s-.29,2.98-.86,4.32c-.58,1.34-1.38,2.52-2.41,3.54s-2.21,1.82-3.53,2.39-2.75,.85-4.27,.85-2.96-.28-4.29-.84c-1.33-.56-2.5-1.34-3.5-2.35-1-1.01-1.79-2.18-2.35-3.53-.57-1.34-.85-2.8-.85-4.38Zm3.28,0c0,1.12,.2,2.17,.6,3.14,.4,.97,.95,1.82,1.67,2.55,.71,.73,1.54,1.3,2.49,1.71,.94,.41,1.96,.61,3.05,.61s2.07-.2,3.01-.61c.93-.41,1.75-.98,2.46-1.71,.7-.73,1.26-1.58,1.65-2.55,.4-.97,.6-2.01,.6-3.14s-.2-2.16-.61-3.14c-.41-.97-.96-1.82-1.65-2.56-.7-.74-1.52-1.32-2.47-1.74-.95-.42-1.98-.63-3.07-.63s-2.11,.21-3.05,.63c-.94,.42-1.77,1-2.47,1.74-.71,.74-1.25,1.6-1.62,2.58-.38,.98-.57,2.02-.57,3.12Z"/><path class="cls-1" d="M88.19,23.25L71.54,6.6l.92,.33,.06,15.57h-3.19V.03h.12l16.41,16.65-.71-.18-.06-15.75h3.16V23.25h-.06Z"/><path class="cls-1" d="M93.87,.75h14.38V3.81h-5.69V22.5h-3.19V3.81h-5.51V.75Z"/><path class="cls-1" d="M131.15,.75V22.5h-3.19V13.11h-10.96v9.39h-3.16V.75h3.16V10.02h10.96V.75h3.19Z"/><path class="cls-1" d="M150.3,.75h3.16V19.41h10.81v3.09h-13.97V.75Z"/><path class="cls-1" d="M170.14,.75h3.16V22.5h-3.16V.75Z"/><path class="cls-1" d="M180.95,22.5V0h.03l11.46,16.41-1.37-.3L202.54,0h.03V22.5h-3.16V7.26l.18,1.62-7.95,11.37h-.06l-8.13-11.37,.57-1.5v15.12h-3.07Z"/><path class="cls-1" d="M210.21,.75h3.16V22.5h-3.16V.75Z"/><path class="cls-1" d="M218.98,.75h14.38V3.81h-5.69V22.5h-3.19V3.81h-5.51V.75Z"/><path class="cls-1" d="M238.96,.75h14.14V3.81h-10.99v6.21h9.8v3.09h-9.8v6.3h11.4v3.09h-14.56V.75Z"/><path class="cls-1" d="M259.24,22.5V.75h5.99c2.14,0,3.97,.33,5.48,.97,1.51,.65,2.72,1.52,3.65,2.61,.92,1.09,1.59,2.29,2.01,3.61,.42,1.32,.62,2.64,.62,3.96,0,1.62-.28,3.08-.85,4.38-.57,1.3-1.34,2.42-2.34,3.35-.99,.93-2.13,1.64-3.42,2.13-1.29,.49-2.65,.73-4.08,.73h-7.06Zm3.16-3.09h3.28c1.17,0,2.25-.17,3.23-.51,.98-.34,1.84-.84,2.56-1.5,.72-.66,1.28-1.47,1.67-2.43,.39-.96,.58-2.05,.58-3.27,0-1.36-.21-2.54-.64-3.53s-1.01-1.81-1.76-2.46c-.74-.65-1.57-1.13-2.47-1.44-.9-.31-1.82-.47-2.75-.47h-3.69v15.6Z"/><path class="cls-1" d="M310.75,20.82c-.34,.24-.82,.52-1.44,.83-.62,.31-1.36,.58-2.2,.8-.84,.22-1.77,.32-2.78,.3-1.69-.02-3.2-.32-4.54-.9-1.34-.58-2.48-1.37-3.41-2.39-.93-1.01-1.65-2.17-2.14-3.48-.5-1.31-.74-2.7-.74-4.19,0-1.64,.25-3.15,.76-4.53s1.24-2.57,2.19-3.57c.95-1,2.08-1.78,3.39-2.34,1.31-.56,2.74-.84,4.29-.84,1.33,0,2.53,.18,3.6,.53,1.07,.35,1.98,.76,2.74,1.24l-1.31,3c-.58-.4-1.28-.78-2.11-1.16-.83-.37-1.78-.56-2.83-.56-.99,0-1.94,.2-2.84,.6-.9,.4-1.7,.97-2.38,1.71-.68,.74-1.23,1.6-1.62,2.58-.4,.98-.6,2.04-.6,3.18s.18,2.18,.54,3.17c.36,.99,.87,1.84,1.55,2.56s1.47,1.28,2.4,1.68c.92,.4,1.97,.6,3.14,.6,1.11,0,2.09-.17,2.93-.51,.84-.34,1.53-.73,2.07-1.17l1.37,2.85Z"/><path class="cls-1" d="M313.74,11.64c0-1.5,.28-2.92,.85-4.26,.57-1.34,1.35-2.53,2.35-3.57,1-1.04,2.17-1.85,3.5-2.43,1.33-.58,2.76-.87,4.29-.87s2.96,.29,4.29,.87c1.33,.58,2.51,1.39,3.53,2.43,1.02,1.04,1.82,2.23,2.4,3.57,.58,1.34,.86,2.76,.86,4.26s-.29,2.98-.86,4.32c-.58,1.34-1.38,2.52-2.41,3.54s-2.21,1.82-3.53,2.39-2.75,.85-4.27,.85-2.96-.28-4.29-.84c-1.33-.56-2.5-1.34-3.5-2.35-1-1.01-1.79-2.18-2.35-3.53-.57-1.34-.85-2.8-.85-4.38Zm3.28,0c0,1.12,.2,2.17,.6,3.14,.4,.97,.95,1.82,1.67,2.55,.71,.73,1.54,1.3,2.49,1.71,.94,.41,1.96,.61,3.05,.61s2.07-.2,3.01-.61c.93-.41,1.75-.98,2.46-1.71,.7-.73,1.26-1.58,1.65-2.55,.4-.97,.6-2.01,.6-3.14s-.2-2.16-.61-3.14c-.41-.97-.96-1.82-1.65-2.56-.7-.74-1.52-1.32-2.47-1.74-.95-.42-1.98-.63-3.07-.63s-2.11,.21-3.05,.63c-.94,.42-1.77,1-2.47,1.74-.71,.74-1.25,1.6-1.62,2.58-.38,.98-.57,2.02-.57,3.12Z"/><path class="cls-1" d="M342.15,.75h3.16V19.41h10.81v3.09h-13.97V.75Z"/><path class="cls-1" d="M358.89,11.64c0-1.5,.28-2.92,.85-4.26,.57-1.34,1.35-2.53,2.35-3.57,1-1.04,2.17-1.85,3.5-2.43,1.33-.58,2.76-.87,4.29-.87s2.96,.29,4.29,.87c1.33,.58,2.51,1.39,3.53,2.43,1.02,1.04,1.82,2.23,2.4,3.57,.58,1.34,.86,2.76,.86,4.26s-.29,2.98-.86,4.32c-.58,1.34-1.38,2.52-2.41,3.54s-2.21,1.82-3.53,2.39-2.75,.85-4.27,.85-2.96-.28-4.29-.84c-1.33-.56-2.5-1.34-3.5-2.35-1-1.01-1.79-2.18-2.35-3.53-.57-1.34-.85-2.8-.85-4.38Zm3.28,0c0,1.12,.2,2.17,.6,3.14,.4,.97,.95,1.82,1.67,2.55,.71,.73,1.54,1.3,2.49,1.71,.94,.41,1.96,.61,3.05,.61s2.07-.2,3.01-.61c.93-.41,1.75-.98,2.46-1.71,.7-.73,1.26-1.58,1.65-2.55,.4-.97,.6-2.01,.6-3.14s-.2-2.16-.61-3.14c-.41-.97-.96-1.82-1.65-2.56-.7-.74-1.52-1.32-2.47-1.74-.95-.42-1.98-.63-3.07-.63s-2.11,.21-3.05,.63c-.94,.42-1.77,1-2.47,1.74-.71,.74-1.25,1.6-1.62,2.58-.38,.98-.57,2.02-.57,3.12Z"/><path class="cls-1" d="M393.19,.75c1.13,0,2.18,.15,3.14,.45,.96,.3,1.79,.74,2.49,1.32,.7,.58,1.23,1.3,1.61,2.14,.38,.85,.57,1.83,.57,2.93,0,.86-.12,1.72-.37,2.57-.25,.85-.66,1.62-1.24,2.3-.58,.68-1.34,1.23-2.28,1.65-.94,.42-2.11,.63-3.5,.63h-3.16v7.77h-3.16V.75h5.9Zm.39,10.86c.79,0,1.46-.12,2.01-.38,.55-.25,.97-.57,1.28-.96,.31-.39,.53-.81,.66-1.26,.13-.45,.19-.87,.19-1.28s-.06-.83-.19-1.28c-.13-.45-.35-.88-.66-1.29-.31-.41-.72-.74-1.24-.99-.52-.25-1.15-.38-1.91-.38h-3.28v7.8h3.13Zm3.63,1.92l5.6,8.97h-3.69l-5.69-8.91,3.78-.06Z"/></g></g></svg>