<?xml version="1.0" encoding="UTF-8"?>
<svg xmlns="http://www.w3.org/2000/svg" version="1.1" viewBox="0 0 15.1000004 4.1498992">
  <defs>
    <style>
      .cls-1, .cls-2 {
        fill: #5f5f5f;
      }

      .cls-2 {
        stroke: #5f5f5f;
        stroke-miterlimit: 10;
        stroke-width: .01px;
      }
    </style>
  </defs>
  <!-- Generator: Adobe Illustrator 28.6.0, SVG Export Plug-In . SVG Version: 1.2.0 Build 709)  -->
  <g>
    <g id="_レイヤー_1" data-name="レイヤー_1">
      <g>
        <path class="cls-2" d="M1.3457727,2.9482899c0,.4692741-.3091339.7048401-.6167815.7048401-.3069045,0-.6160384-.235566-.6160384-.7048401v-.9103101c0-.0624213-.026752-.165342-.1129528-.165342v-.0126329h.417628v.0126329c-.0862008,0-.114439.1029208-.114439.165342v.9103101c0,.4165133.263061.637217.5224065.637217.2489419,0,.4963977-.20547.4963977-.637217v-.8374853c0-.1330167-.0824852-.2381668-.168686-.2381668v-.0126329h.3596654v.0126329c-.0847146,0-.1671998.107751-.1671998.2381668v.8374853Z"/>
        <path class="cls-2" d="M2.278376,2.3864986c-.2370522,0-.3983071.451811-.3983071,1.0511295,0,.0148622.0022293.0323253.0059449.0523893.0044563.0178346.0104035.0378986.020064.0527608.0081742.0178346.020064.0326969.0341831.0427288.0141191.0126329.0326969.0174631.054247.0174631v.0126329h-.4072244v-.0126329c.0862008,0,.1122096-.1025492.1122096-.165342v-.8452879c0-.107751-.0260089-.2181029-.1122096-.2181029v-.0126329h.2927854v.7022392c.054247-.4566413.2110433-.7271334.4599852-.7271334.5305807,0,.4302608,1.2662599.7497982,1.2662599v.0126329h-.1307874c-.4235728,0-.3254823-1.2291044-.680689-1.2291044Z"/>
        <path class="cls-2" d="M3.1277511,2.3742373v-.0126329h.2927854v1.0760236c0,.0148622.0022293.0323253.0059449.0523893.0044587.0178346.0104035.0378986.020064.0527608.0081742.0178346.020064.0326969.0341831.0427288.0141191.0126329.0326969.0174631.054247.0174631v.0126329h-.4072244v-.0126329c.0862008,0,.1122096-.1025492.1122096-.165342v-.8452879c0-.107751-.0260089-.2181029-.1122096-.2181029ZM3.2258416,2.1234376c0-.0780266.074311-.1932087.1605118-.1932087.0445866,0,.0624213.0274951.0624213.0653937,0,.077655-.074311.1928371-.1627411.1928371-.0423573,0-.0601919-.0274951-.0601919-.0650221Z"/>
        <path class="cls-2" d="M3.8849804,2.3917004h-.1671998v-.030096h.263061c-.0884301-.0326969-.1300443-.117783-.1203839-.2080709.0245226-.2032407.2690059-.3184227.4480955-.3184227.1122096,0,.1991535.0449582.18875.1452781-.0081742.0754257-.0862008.2032407-.2006398.2481988l-.0118898-.0074311c.0520177-.0427288.1159252-.1356176.1159252-.2181029,0-.087687-.0601919-.1382185-.1359892-.1382185-.1070079,0-.2452264.1029208-.2734646.3410876-.0081766.0880586.0141191.1556816.0780266.1556816h.3455463v.030096h-.3514912l-.2325935,1.0459277c-.1107234.4915674-.303189.7122712-.5365256.7122712-.1567963,0-.2392815-.0854577-.2392815-.1805758,0-.0780266.0564764-.1631127.1746309-.2058415l.0104035.0074311c-.0460728.0627928-.0661368.1203839-.0661368.1709154,0,.1025492.0839715.1701722.1805758.1701722.1367323,0,.1991535-.2181029.2950148-.6517077l.235566-1.0685925Z"/>
        <path class="cls-2" d="M4.2639666,3.1715946c0-.3760138.2927854-.832655.7527707-.832655.3195374,0,.458499.2184744.458499.4767052,0,.3734129-.2935286.832655-.7512845.832655-.3217667,0-.4599852-.2184744-.4599852-.4767052ZM4.434882,3.2269563c0,.2181029.087687.3912475.2950148.3912475.3314272,0,.5766536-.4893381.5766536-.8553199,0-.2207037-.0884301-.3938484-.2972441-.3938484-.329941,0-.5744242.4893381-.5744242.8579208Z"/>
        <path class="cls-2" d="M6.1923378,2.8479701c.0705955-.0750541.1025492-.1828051.1025492-.2756939,0-.1029208-.040128-.1857776-.1107234-.1857776-.2110433,0-.3195374.451811-.3195374,1.0511295,0,.0148622.0022293.0323253.0059449.0523893.0044587.0178346.0104035.0378986.020064.0527608.0081742.0178346.020064.0326969.0341831.0427288.0141191.0126329.0326969.0174631.054247.0174631v.0126329h-.4072244v-.0126329c.0862008,0,.1122096-.1025492.1122096-.165342v-.8452879c0-.107751-.0260089-.2181029-.1122096-.2181029v-.0126329h.2927854v.6346162c.0445866-.4139124.1612549-.6595104.3819587-.6595104.1582825,0,.2370522.1203839.2370522.2455979,0,.137847-.094375.2834966-.2771801.2883268l-.0141191-.0226649Z"/>
        <path class="cls-2" d="M7.9564815,2.3864986c-.1367323,0-.2593455.1831767-.2593455.491939,0,.15531.0319537.3433169.1084941.5565896.0423573.1029208.0921457.1679429.1649705.1679429v.0126329h-.1307874c-.4235728,0-.3254823-1.2291044-.680689-1.2291044-.208814,0-.3158219.3563214-.3158219,1.0511295,0,.0148622.0022293.0323253.0059449.0523893.0044587.0178346.0104035.0378986.020064.0527608.0081742.0178346.020064.0326969.0341831.0427288.0141191.0126329.0326969.0174631.054247.0174631v.0126329h-.4072244v-.0126329c.0862008,0,.1122096-.1025492.1122096-.165342v-.8452879c0-.107751-.0260089-.2181029-.1122096-.2181029v-.0126329h.2927854v.6019193c.040128-.3964493.1471358-.6268135.3797293-.6268135.2712352,0,.3775.3332849.4599852.6595104-.0356693-.3912475.1047761-.6595104.3373721-.6595104.5305807,0,.4302608,1.2662599.7497982,1.2662599v.0126329h-.1307874c-.4258022,0-.3254823-1.2291044-.6829183-1.2291044Z"/>
        <path class="cls-2" d="M9.4345278,3.6156029v-.0126329c.0765404,0,.1070079-.0850861.1107234-.1478789v-1.4371752c-.0037156-.0601919-.0341831-.1452781-.1107234-.1452781v-.0126329h.5870571c.3351427,0,.5015994.1980389.5015994.3986787,0,.1679429-.1181545.3336565-.3529774.3838164.3611516.0627928.5283514.3035605.5283514.5290945,0,.2359375-.1768602.4566413-.4941683.4566413-.2028691,0-.4057382-.1330167-.4659301-.4793061v.4666732h-.3039321ZM9.7384599,2.6272663h.2244193c.2556299,0,.3700689-.1727731.3700689-.3485187,0-.1906078-.1330167-.3886467-.3700689-.3886467h-.2244193v.7371654ZM9.7384599,2.6577338v.2756939c.0156053.4715035.2065847.6420473.3953347.6420473.2429971,0,.3760138-.1932087.3760138-.4038804,0-.2455979-.1828051-.5138607-.5870571-.5138607h-.1842913Z"/>
        <path class="cls-2" d="M10.8271164,1.7470522v-.0122613h.2927854v1.7028371c0,.0148622.0022293.0323253.0059449.0523893.0044587.0178346.0104035.0352977.020064.0527608.0163484.0326969.0468159.0601919.0884301.0601919v.0126329h-.4072244v-.0126329c.0862008,0,.1122096-.1025492.1122096-.165342v-1.472473c0-.107751-.0260089-.2181029-.1122096-.2181029Z"/>
        <path class="cls-2" d="M11.471393,2.868034c.0022293-.3284547.1545669-.5313238.4443799-.5313238.5298376,0,.4295177,1.2662599.7490551,1.2662599v.0126329h-.1307874c-.1842913,0-.2712352-.235566-.3373721-.4989985.0044587.3310556-.1828051.5365256-.4035089.5365256-.2690059,0-.4503248-.1928371-.4503248-.4715035,0-.1352461.0527608-.2381668.1285581-.3135925ZM11.9313783,2.6978618c.0624213,0,.1226132.0096604.1671998.0248942-.054247-.1906078-.1226132-.3362574-.2452264-.3362574-.2147589,0-.3477756.1958096-.3618947.4640724.121127-.1051501.2935286-.1527092.4399213-.1527092ZM11.8474068,3.6029701c.1545669,0,.3291978-.185406.3291978-.4789346,0-.0475591-.0059449-.1003199-.0163484-.1530807-.0156053-.0724532-.03344-.1430487-.0497884-.2106718-.0378986-.0148622-.0824852-.0222933-.1263287-.0222933-.2050984,0-.4599852.1527092-.4599852.4436368,0,.2534006.1605118.4213435.323253.4213435Z"/>
        <path class="cls-2" d="M12.8416883,3.2042914c0,.2132726.0884301.3838164.2972441.3838164.18875,0,.3879036-.1356176.4800492-.3210236l.0222933.0148622c-.1107234.2080709-.3069045.3663534-.512003.3663534-.3217667,0-.4599852-.2184744-.4599852-.4767052,0-.3760138.2927854-.832655.7527707-.832655.2095571,0,.329941.1478789.329941.2961294,0,.1252141-.0862008.2507997-.2771801.2834966l-.0118898-.0104035c.0817421-.0375271.161998-.195438.161998-.3306841,0-.1129528-.054247-.2084424-.2103002-.2084424-.3277116,0-.572938.4767052-.572938.8352559Z"/>
        <path class="cls-2" d="M13.8486027,1.7470522v-.0122613h.2927854v1.3643504c.0646506-.3611516.2511713-.7527707.552874-.7527707.1404478,0,.2229331.1029208.2229331.2207037,0,.1356176-.1047785.2961294-.3559498.3589223.2957579.057591.263061.6769734.5387549.6769734v.0126329h-.18875c-.263061,0-.2816388-.6621112-.5409843-.6621112v-.0274951c.2615748,0,.4124262-.2660335.4124262-.4265453,0-.0728248-.0282382-.1226132-.0884301-.1226132-.357436,0-.5446998.5792544-.552874.9653002v.0954897c0,.0148622.0022293.0323253.0059449.0523893.0044587.0178346.0104035.0352977.020064.0527608.0163484.0326969.0468159.0601919.0884275.0601919v.0126329h-.4072218v-.0126329c.0862008,0,.1122096-.1025492.1122096-.165342v-1.472473c0-.107751-.0260089-.2181029-.1122096-.2181029Z"/>
      </g>
      <g>
        <path class="cls-1" d="M.3849311.3652387c-.0594488,0-.0772835.0011147-.1188976.006688-.0029724,0-.0096604.0011147-.0111467.0011147-.0156053,0-.0230364-.0078027-.0274951-.0326969-.0059449-.0297244-.0089173-.0694808-.0089173-.1151821.0646506.0115182.1404478.0137475.424316.0137475.0245226,0,.03344-.0011147.0527608-.0104035.0104035-.0044587.0170915-.0055733.0260089-.0055733.0193209,0,.0505315.0248942.0847146.0683661.0193209.0248942.0274951.0386417.0274951.0501599,0,.0055733-.0037156.0111467-.0118898.0215502q-.0178346.0226649-.0386417.1541954c-.0111467.0694808-.0304675.1757456-.0431004.2407677.020064,0,.0282382,0,.0468159-.0011147.0557333-.0011147.0958612-.0022293.1092372-.0037156.026752,0,.0445866-.0011147.0535039-.0011147q.0208071-.0011147.0297244-.0011147c.020064,0,.0222933.0092889.0222933.0720817,0,.0661368-.0014862.0705955-.0245226.0705955-.0089173,0-.0222933-.0011147-.0884301-.003344-.0222933-.0011147-.2400246-.0044587-.276437-.0044587-.2467126,0-.4235728.0044587-.5038288.0115182-.0052018.0011147-.0111467.0011147-.0156053.0011147-.0193209,0-.0282382-.0059449-.0319537-.0185778-.006688-.0271235-.0126329-.0694808-.0170915-.131159.0891732.0092889.1047785.0092889.5521309.0104035.0245226-.131159.0416142-.2396531.0594488-.3938484h-.2704921Z"/>
        <path class="cls-1" d="M1.5857973.7442249c.2073278,0,.3812156-.003344.4629577-.0104035.0126329-.0011147.0208071-.0011147.0252657-.0011147.0066857,0,.0104035.0011147.013376.0022293.0081742.0048302.0104035.0241511.0104035.0869439,0,.0583342-.0022293.064279-.0215502.064279q-.0022293,0-.0193209-.0014862c-.0601919-.0055733-.1300443-.006688-.2771801-.006688-.3150787,0-.4644439.003344-.5342963.0137475-.0111467.0022293-.0163484.0022293-.0208094.0022293-.0260065,0-.0304652-.0204355-.0401256-.1575394.0928888.0055733.2043553.0078027.4012795.0078027ZM1.6207235.2537722c.1530807,0,.2407677-.003344.3061614-.0115182.006688-.0011147.0081742-.0011147.0126329-.0011147.0126329,0,.0170915.003344.0193209.0193209.0007431.0092889.0022293.0490453.0022293.080999,0,.0390133-.0037156.0479306-.0185778.0479306-.0044587,0-.0096604,0-.0193209-.0011147-.0222933-.0011147-.1894931-.0022293-.3217667-.0022293-.087687,0-.1471358.0011147-.2103002.0055733-.0141191.0011147-.0326969.0022293-.0349262.0022293-.0141191,0-.0215502-.0055733-.0260089-.0170915-.0059449-.0159769-.0118898-.0832283-.0118898-.1367323.0698524.0104035.1426772.0137475.3024459.0137475Z"/>
        <path class="cls-1" d="M2.6588485.3128494c-.2043553,0-.3477756.006688-.384188.0170915-.0014862.0011147-.0029724.0011147-.0037179.0011147-.0215479,0-.0282359-.0375271-.0319514-.15531.0557333.0092889.1293012.0115182.2979872.0115182.1530807,0,.3321703-.003344.3604085-.0070595.0208071-.0022293.0274951-.003344.0483022-.0111467.0052018-.0022293.0074311-.0022293.0126329-.0022293.0193209,0,.0431004.0182062.0795128.0613066.0215502.0274951.0260089.0345546.0260089.0468159,0,.0081742-.0029724.0148622-.0111467.0252657-.0111467.0137475-.0126329.0170915-.0378986.0969759-.0639075.2010113-.1902362.3812156-.3611516.5138607-.0691093.0523893-.1337598.0921457-.1508514.0921457-.0126329,0-.0148622-.0011147-.0416165-.0271235-.0304652-.0308391-.0542447-.0479306-.0854553-.0650221.1679429-.0835999.2593455-.1541954.3470325-.2649188.0787697-.1006914.127815-.2076993.1545669-.3355143q-.0891732.0011147-.2184744.0022293Z"/>
        <path class="cls-1" d="M3.6278643.6951796c-.0639075.0798844-.1441634.1497367-.2415108.2091855-.0326969.0204355-.0713386.0397564-.0787697.0397564-.0096604,0-.0141191-.003344-.0341831-.0297244-.026752-.0341831-.0364124-.0434719-.0564764-.0605635.0646506-.0226649.1367323-.0650221.2095571-.1207554.0572195-.0445866.0951181-.0821137.1449065-.1449065q-.2236762.003344-.2474557.006688-.0104035.0011147-.0170915.0022293h-.0044587c-.006688,0-.0118898-.003344-.0126329-.0089173-.006688-.0241511-.0089173-.0505315-.0104035-.1133243.0460728.0048302.1783465.0092889.296501.0092889h.0423573l-.0007431-.0364124c-.0022293-.0538755-.0059449-.0858292-.0126329-.121127.0683661.0022293.1062648.0055733.1285581.0115182.0096604.0022293.0126329.0055733.0126329.0126329,0,.0055733-.0007431.0078027-.006688.0170915-.006688.010032-.0081742.0182062-.0081742.0431004,0,.0126329,0,.0286097.0014862.0412426l.0007431.0308391c.1486221-.0011147.1701722-.0022293.1828051-.0022293.0118898-.0011147.0185778-.0011147.0252657-.0011147.0156053,0,.0170915.0055733.0170915.0557333,0,.0538755-.0014862.0561048-.0185778.0561048h-.0052018c-.0014862,0-.0341831-.0011147-.0378986-.0011147-.0326969,0-.0624213,0-.0854577-.0011147q-.0549902-.0011147-.0728248-.0011147l.0089173.1906078c.0007431.0137475.0007431.0170915.006688.0936319.0014862.0159769.0014862.0237795.0014862.0364124,0,.0364124-.0081742.0650221-.0230364.0880586-.0193209.0286097-.0594488.0423573-.1300467.0423573-.0572171,0-.0676207-.0022293-.0757949-.0148622-.0007431-.003344-.006688-.0230364-.0170915-.0616782-.0007431-.0059449-.0052018-.0163484-.020064-.0471875.0408711.0081742.0691093.0115182.0988337.0115182.0371555,0,.0468159-.006688.0468159-.0352977v-.0059449l-.0074311-.1906078Z"/>
        <path class="cls-1" d="M4.6711911.4975123c.208814,0,.3284547-.0022293.4436368-.0104035h.0148622c.0341831,0,.0341831.0011147.0341831.0928888,0,.0468159-.0029724.0546186-.0230364.0546186h-.0044587c-.0750541-.003344-.1174114-.003344-.4473524-.003344-.121127,0-.1813189.0011147-.2860974.0044587h-.03344c-.0364124,0-.0423573.0011147-.0639075.0048302-.0059449,0-.0104035.0011147-.0126329.0011147-.0126329,0-.020064-.0059449-.0230364-.0159769-.006688-.0286097-.0111467-.0869439-.0111467-.1397047.0928888.0092889.1738878.0115182.4124262.0115182Z"/>
        <path class="cls-1" d="M5.6825641.8107333c.1359892-.0115182.2489419-.0237795.316565-.0352977-.0445866-.0787697-.0862008-.1415625-.1270719-.1894931-.0044587-.0055733-.006688-.0104035-.006688-.0159769,0-.0104035.0126329-.0193209.0572195-.0457013.020064-.0115182.0282382-.0137475.0393848-.0137475.0096604,0,.0148622.0022293.0222933.0092889.0587057.0605635.1285581.1631127.1857776.2749508.0304675.0616782.0572195.1267003.0572195.1415625,0,.0104035-.0118898.0204355-.0378986.0341831-.0341831.0170915-.067623.0297244-.0787697.0297244-.0104035,0-.0170915-.0070595-.0230364-.0230364-.0074311-.0271235-.0215502-.0601919-.0364124-.094375-.0958612.0170915-.1664567.0282382-.2132726.0352977-.1590256.0226649-.2006398.0286097-.3997933.0479306-.0386417.0044587-.0579626.0078027-.0832283.0182062-.0044587.0011147-.0074311.0022293-.0126329.0022293-.0089173,0-.0156053-.0044587-.0215502-.0159769-.0178346-.0341831-.0297244-.0754257-.0378986-.1322736q.0289813.0011147.0312106.0011147.0237795,0,.1092372-.0055733.0081742-.0185778.0245226-.0538755c.0601919-.131159.1389616-.367468.1798327-.5365256.0141191-.0523893.0185778-.080999.0208071-.1185261.0549902.0092889.1003199.0204355.1382185.0330684.0237795.0081742.0341831.0148622.0341831.0252657,0,.0055733-.0022293.0089173-.0148622.0237795-.0059449.0081742-.0185778.0330684-.0252657.0523893-.0044587.0104035-.0156053.0468159-.0601919.1872638-.0341831.1029208-.1003199.2742077-.1463927.3745276.0438435-.0044587.0869439-.0081742.1084941-.0104035Z"/>
        <path class="cls-1" d="M6.7422393.3310556c-.2043553.0011147-.3485187.0078027-.3849311.0182062-.0007431.0011147-.0022293.0011147-.0029724.0011147-.0215502,0-.0289813-.0375271-.0319537-.15531.0557333.0081742.1285581.0115182.2979872.0115182.1523376,0,.3321703-.003344.3604085-.006688.0208071-.0022293.0274951-.0037156.0475591-.0115182.0059449-.0022293.0081742-.0022293.0126329-.0022293.0193209,0,.0438435.0182062.0802559.0616782.0215502.0271235.0260089.0341831.0260089.0468159,0,.0078027-.0029724.0148622-.0111467.0248942-.0111467.0137475-.0126329.0170915-.0378986.0969759-.0639075.2010113-.1902362.3812156-.3618947.5138607-.0683661.0523893-.1330167.0925172-.1501083.0925172-.0126329,0-.0148622-.0011147-.0416142-.0274951-.0304675-.0308391-.0549902-.0490453-.0854577-.0650221.1679429-.0847146.2593455-.1541954.3470325-.2660335.0787697-.0992052.127815-.2065847.1538238-.3343996q-.0884301.0011147-.2177313.0011147ZM7.2349214.2158735c-.0245226.0215502-.0393848.0319537-.0460728.0319537q-.0074311,0-.0274951-.0341831c-.0185778-.0308391-.0460728-.0665084-.0720817-.0925172-.0044587-.0048302-.0059449-.0070595-.0059449-.0104035,0-.0092889.0438435-.0412426.0557333-.0412426.0096604,0,.0230364.0115182.0572195.0505315.0312106.0352977.0527608.0661368.0527608.0739395,0,.0081742-.0037156.0126329-.0141191.0219218ZM7.2869392.1575394c-.0274951-.0468159-.054247-.0798844-.0847146-.1096088-.0044587-.0044587-.0059449-.006688-.0059449-.0089173,0-.0059449.0059449-.0115182.0252657-.0252657.0148622-.0115182.0215502-.0137475.0297244-.0137475.0126329.0011147.0423573.0297244.080999.0798844.0163484.0204355.0260089.0375271.0260089.0434719,0,.0055733-.0029724.0115182-.0170915.0215502-.0178346.0137475-.0349262.0241511-.0416142.0241511-.0052018,0-.0081742-.0022293-.0126329-.0115182Z"/>
        <path class="cls-1" d="M7.4801478.5335532c-.0022293,0-.0074311.0011147-.0089173.0011147-.0252657,0-.0349262-.0390133-.0431004-.1564247.0557333.0089173.134503.0126329.3470325.0126329.2281348,0,.289813,0,.3113632-.0026009.0170915-.0011147.0208071-.0022293.0431004-.0089173.0081742-.003344.0148622-.0044587.0222933-.0044587.0170915,0,.0304675.0078027.0490453.0271235.0304675.0356693.0512746.067623.0512746.080999,0,.0126329-.0059449.0219218-.0193209.036784-.0096604.0078027-.0148622.0182062-.0364124.0672515-.0765404.1679429-.1627411.2704921-.2972441.3559498-.0616782.040128-.1605118.0858292-.1835482.0858292-.0163484,0-.0252657-.0070595-.0445866-.0297244-.0297244-.0352977-.0431004-.0479306-.0750541-.0639075.1300443-.0386417.2481988-.1040354.3329134-.1850345.0639075-.0616782.1122096-.1415625.1449065-.2407677-.4324902.0055733-.512003.0092889-.5937451.0241511ZM7.8539323.1281865q.1181545,0,.249685-.0092889h.0141191c.0148622,0,.020064.0115182.0215502.0457013,0,.0137475,0,.0263804.0007431.0378986v.0044587c0,.0412426-.0044587.0523893-.0193209.0523893-.0044587,0-.013376-.0011147-.0237795-.0011147-.0215502-.0022293-.1070079-.0044587-.1426772-.0044587-.1709154,0-.2935286.0022293-.3604085.0078027h-.0096604c-.0297244,0-.0341831-.0170915-.0408711-.1449065.074311.0092889.1463927.0115182.3106201.0115182Z"/>
        <path class="cls-1" d="M8.5985288.6450197c-.0170915-.0423573-.0535039-.1129528-.0691093-.1359892-.0252657-.0364124-.026752-.0386417-.026752-.0457013,0-.0089173.0126329-.0204355.0438435-.0375271.0364124-.0204355.0386417-.0215502.0453297-.0215502.0081742,0,.0126329.0044587.0312106.0282382.0364124.0479306.094375.151966.094375.1690576,0,.0081742-.0081742.0159769-.0304675.0297244-.026752.0159769-.0631644.0330684-.0698524.0330684-.0081742,0-.0111467-.0044587-.0185778-.0193209ZM9.2212552.4510679c0,.0055733-.0029724.0089173-.0074311.0144906-.0111467.0148622-.0178346.0263804-.0326969.0583342-.0824852.1828051-.1359892.2682628-.2273917.3596654-.0683661.0683661-.1731447.1460212-.1976673.1460212-.0074311,0-.0126329-.0022293-.0193209-.0092889-.020064-.0204355-.0520177-.0453297-.0891732-.0661368.1724016-.091031.2682628-.1835482.3485187-.3321703.0445866-.084343.074311-.1735162.0787697-.2396531.094375.0263804.1463927.0512746.1463927.0687377ZM8.808829.5922589c-.0148622-.0468159-.0468159-.1140674-.0824852-.17203-.0022293-.0037156-.0029724-.0059449-.0029724-.0115182,0-.0081742.0081742-.0137475.0431004-.0330684.0423573-.0230364.0445866-.0241511.0505315-.0241511.0081742,0,.0148622.0059449.0282382.0286097.0364124.0583342.080999.1493652.080999.1679429,0,.006688-.0052018.0122613-.0237795.0237795-.0260089.0159769-.0698524.0364124-.0787697.0364124-.006688,0-.0104035-.0044587-.0148622-.0159769Z"/>
        <path class="cls-1" d="M9.8283762.367468c-.0787697.1051501-.2132726.2307357-.2467126.2307357-.0096604,0-.0148622-.0022293-.0371555-.0219218-.0170915-.0148622-.0468159-.0352977-.0847146-.0568479.080999-.0445866.1642274-.1118381.2273917-.1872638.0668799-.0787697.1070079-.1449065.1471358-.2452264.0557333.0182062.0854577.0304675.1233563.0523893.0156053.0089173.0215502.0148622.0215502.0248942,0,.0092889-.0037181.0148622-.0141191.0230364-.0111467.0078027-.0222933.0226649-.0520177.0627928l.1701722.0011147c.0616782,0,.0728248-.0011147.1070079-.0137475.0044587-.0011147.0081742-.0022293.0126329-.0022293.0185778,0,.0378986.0170915.0705955.0594488.0215502.0282382.0274951.0386417.0274951.0512746s-.0037156.0182062-.0193209.0341831c-.0089173.0104035-.0237795.0319537-.0356693.0512746-.1233563.2225615-.2415108.3630094-.4235728.4989985-.0787697.0590773-.182062.1196408-.2036122.1196408-.0096604,0-.0178346-.0044587-.0274951-.0159769-.0193209-.0204355-.0505315-.0419857-.0951181-.0661368.1664567-.0798844.283125-.1597687.397564-.2749508.080999-.0821137.1382185-.1597687.1880069-.2545153.0104035-.0193209.0170915-.0341831.0356693-.0720817l-.2890699.0011147Z"/>
      </g>
    </g>
  </g>
</svg>