<?xml version="1.0" encoding="UTF-8"?>
<svg id="_レイヤー_2" data-name="レイヤー 2" xmlns="http://www.w3.org/2000/svg" viewBox="0 0 282.03 19.12">
  <defs>
    <style>
      .cls-1 {
        fill: #504f4f;
        stroke-width: 0px;
      }
    </style>
  </defs>
  <g id="collection">
    <g>
      <path class="cls-1" d="m0,17.18V1.56h3.85c1.51,0,2.8.24,3.86.71,1.06.48,1.93,1.1,2.59,1.88.66.78,1.14,1.63,1.45,2.55.31.92.46,1.84.46,2.75,0,1.19-.21,2.25-.62,3.2-.41.95-.97,1.76-1.68,2.43s-1.52,1.19-2.43,1.55-1.87.54-2.88.54H0Zm1.08-1.03h3.23c.94,0,1.82-.15,2.64-.46.82-.31,1.54-.75,2.17-1.34.62-.59,1.11-1.29,1.46-2.12.35-.83.53-1.77.53-2.83,0-.89-.15-1.75-.45-2.56-.3-.81-.75-1.54-1.35-2.17-.6-.63-1.34-1.13-2.22-1.5-.88-.37-1.91-.55-3.08-.55H1.08v13.53Z"/>
      <path class="cls-1" d="m16.12,1.56h1.08v15.62h-1.08V1.56Z"/>
      <path class="cls-1" d="m20.32,17.18L26.92.88h.09l6.6,16.3h-1.21l-5.74-14.59.75-.42-6.01,15h-1.08Zm3.19-6.18h6.93l.31,1.01h-7.5l.26-1.01Z"/>
      <path class="cls-1" d="m42.71,2.82h3.21v14.37h-1.08V3.85h-2.13v-1.03Z"/>
      <path class="cls-1" d="m48.72,13.38v-.02l8.36-10.71h.02v9.88h2.02v.86h-2.02v3.81h-1.08v-3.81h-7.3Zm7.44-8.12l-5.74,7.35-.35-.09h5.96v-7.9l.13.64Z"/>
      <path class="cls-1" d="m61.79,15.91c.15-.15.31-.22.51-.22s.36.07.52.22c.15.15.23.32.23.53,0,.22-.08.4-.23.54-.15.14-.33.21-.52.21s-.36-.07-.51-.21c-.15-.14-.22-.32-.22-.54,0-.21.07-.38.22-.53Z"/>
      <path class="cls-1" d="m65.48,17.18c.94-.91,1.84-1.81,2.72-2.7.87-.89,1.65-1.75,2.34-2.6.69-.84,1.24-1.66,1.64-2.45.4-.79.6-1.56.6-2.31,0-.65-.1-1.19-.3-1.63-.2-.44-.45-.8-.77-1.07s-.66-.47-1.03-.59-.74-.19-1.09-.19c-.63,0-1.15.11-1.56.32s-.74.49-.98.83c-.24.34-.41.69-.52,1.07-.1.37-.15.73-.15,1.07,0,.51.07.98.22,1.39.15.41.36.76.64,1.06l-.66.59c-.26-.23-.49-.51-.68-.83-.19-.32-.33-.66-.43-1.04-.1-.38-.14-.76-.14-1.14,0-.79.17-1.51.51-2.17.34-.65.84-1.17,1.5-1.56.66-.39,1.46-.58,2.4-.58.84,0,1.57.19,2.19.58.62.39,1.11.92,1.45,1.58.34.67.52,1.41.52,2.23s-.19,1.61-.57,2.4c-.38.79-.88,1.58-1.51,2.35-.62.78-1.3,1.55-2.02,2.31-.73.76-1.43,1.52-2.12,2.27l-.42-.22h7.44v1.03h-9.2Z"/>
      <path class="cls-1" d="m78.13,8.58l.11,2.4-.15-.22c.29-.75.78-1.34,1.46-1.77.68-.43,1.43-.65,2.23-.65.48,0,.92.09,1.31.27.39.18.7.43.95.75.24.32.38.68.43,1.09l-.13.13c.31-.73.79-1.29,1.45-1.67.66-.38,1.37-.57,2.13-.57.82,0,1.47.24,1.96.71s.73,1.1.75,1.86v6.27h-1.03v-6.05c-.01-.51-.18-.95-.48-1.31-.31-.36-.78-.55-1.41-.58-.57,0-1.1.15-1.58.44-.48.29-.88.68-1.18,1.17-.3.48-.47,1.03-.5,1.63v4.71h-1.03v-6.05c-.02-.51-.18-.95-.5-1.31-.32-.36-.79-.55-1.42-.58-.59,0-1.13.15-1.62.44-.49.29-.88.69-1.18,1.2-.29.51-.44,1.07-.44,1.68v4.62h-1.03v-8.6h.9Z"/>
      <path class="cls-1" d="m94.94,8.58l.11,2.4-.15-.22c.29-.75.78-1.34,1.46-1.77.68-.43,1.43-.65,2.23-.65.48,0,.92.09,1.31.27.39.18.7.43.95.75.24.32.38.68.43,1.09l-.13.13c.31-.73.79-1.29,1.45-1.67.66-.38,1.37-.57,2.13-.57.82,0,1.47.24,1.96.71s.73,1.1.75,1.86v6.27h-1.03v-6.05c-.01-.51-.18-.95-.48-1.31-.31-.36-.78-.55-1.41-.58-.57,0-1.1.15-1.58.44-.48.29-.88.68-1.18,1.17-.3.48-.47,1.03-.5,1.63v4.71h-1.03v-6.05c-.02-.51-.18-.95-.5-1.31-.32-.36-.79-.55-1.42-.58-.59,0-1.13.15-1.62.44-.49.29-.88.69-1.18,1.2-.29.51-.44,1.07-.44,1.68v4.62h-1.03v-8.6h.9Z"/>
      <path class="cls-1" d="m121.56.9c-1.03,2.79-2.05,5.57-3.07,8.35-1.02,2.78-2.04,5.56-3.07,8.35h-.97c1.04-2.79,2.07-5.57,3.09-8.35s2.04-5.56,3.07-8.35h.95Z"/>
      <path class="cls-1" d="m134.39,8.78c-.26.62-.55,1.21-.88,1.83.31-.15.66-.26,1.1-.26.81,0,1.63-.02,2.46-.02,1.19,0,2.38.02,3.59.04,1.21.02,1.94.77,1.98,1.65.04.79.04,1.61.04,2.42s0,1.58-.04,2.35c-.04,1.06-.79,1.85-2.09,1.89-.95.02-1.91.04-2.84.04-1.1,0-2.16-.02-3.12-.07-1.45-.07-2.13-.79-2.16-1.87,0-.35-.02-.7-.02-1.06,0-1.19.04-2.42.09-3.41-2.05,3.1-4.27,4.69-4.73,4.69-.35,0-.64-.31-.64-.62,0-.13.07-.29.24-.4,2.55-1.67,4.71-4.49,5.83-7.22h-5.39c-.33,0-.51-.24-.51-.51,0-.24.18-.48.51-.48l7.97.04v-1.67l-5.63.02c-.33,0-.48-.24-.48-.46,0-.24.15-.46.48-.46l5.63.02v-1.61l-6.89.02c-.33,0-.51-.24-.51-.51,0-.24.18-.48.51-.48l4.93.02c-.4-.77-.88-1.28-1.45-1.8-.09-.09-.11-.15-.11-.24,0-.26.29-.48.59-.48.57,0,2.07,1.69,2.07,2.22,0,.11-.04.22-.11.31h2.97c.51-.7.97-1.63,1.23-2.31.11-.29.35-.4.57-.4.33,0,.64.24.64.57,0,.37-.88,1.63-1.28,2.13l4.75-.02c.35,0,.51.24.51.48,0,.26-.15.51-.51.51l-6.78-.02v1.61l5.59-.02c.31,0,.46.22.46.46,0,.22-.15.46-.46.46l-5.59-.02v1.67l7.99-.04c.35,0,.53.26.53.51s-.18.48-.51.48h-10.54Zm7.17,4.84h-8.05c-.02.53-.04,1.08-.04,1.63h8.1v-1.63Zm-8.1,2.42c0,.15.02.33.02.48.02,1.3.7,1.3,4.44,1.3.77,0,1.54-.02,2.31-.04.79-.02,1.25-.42,1.3-1.23,0-.15.02-.33.02-.51h-8.1Zm8.08-3.63c-.02-.7-.35-1.17-1.32-1.19-1.01-.02-2.18-.04-3.3-.04-.7,0-1.39,0-2.02.02-.9.02-1.34.51-1.36,1.21v.42h8.03l-.02-.42Z"/>
      <path class="cls-1" d="m159.26,2.44c.99,0,1.43.51,1.43,1.06,0,.37-.18.79-1.98,2.66,1.32,0,2.62.02,3.89.07,1.45.04,2.2.79,2.27,1.72.02.29.04.79.04,1.34s-.02,1.08-.04,1.47c-.04.97-.79,1.74-2.22,1.78-1.41.04-3.3.07-5.21.07s-3.81-.02-5.24-.04c0,1.06,0,2.2.02,2.99.02,1.03.66,1.61,1.61,1.69,1.3.13,2.82.2,4.31.2,1.83,0,3.65-.09,5.06-.29,1.65-.24,2.07-1.28,2.07-2.82,0-.55.29-.73.59-.73.33,0,.68.22.68.59-.02,2.51-.86,3.83-3.12,4.07-1.58.18-3.41.26-5.17.26s-3.32-.09-4.64-.22c-1.5-.15-2.51-1.06-2.53-2.64-.02-1.19-.02-2.79-.02-4.31,0-1.25,0-2.44.04-3.26.04-.86.7-1.85,2.33-1.89,1.25-.04,2.6-.07,3.96-.07,1.45-1.56,1.94-2.13,1.94-2.49,0-.31-.33-.31-1.25-.31s-2.57,0-3.48.02c-.84,1.08-4.58,5.3-5.48,5.3-.33,0-.57-.26-.57-.55,0-.18.09-.35.29-.48,2.31-1.56,4.99-4.64,6.34-7.17.13-.24.33-.35.51-.35.31,0,.62.29.62.62s-.95,1.63-1.01,1.72l3.98-.02Zm-1.98,4.69c-1.25,0-2.49.02-3.52.04-1.06.02-1.5.57-1.52,1.19-.04.75-.07,2.07-.07,3.21,1.39.02,3.28.07,5.1.07v-4.51Zm1.14,4.51c4.69,0,5.17,0,5.28-1.23.02-.22.02-.55.02-.9,0-1.69-.02-2.31-1.52-2.33-1.14-.02-2.46-.04-3.78-.04v4.51Z"/>
      <path class="cls-1" d="m179.59,3.61l-.31,2c1.1,0,2.25,0,3.19.04,1.41.07,2.09.9,2.11,1.8.02.79.04,2.09.04,3.34,0,1.03-.02,2-.04,2.6-.07,1.21-.86,1.85-2.22,1.91-.88.04-1.85.07-2.79.07-.84,0-1.63-.02-2.35-.07-1.43-.09-2.22-.77-2.24-1.89-.02-.79-.02-1.89-.02-3.01s0-2.2.02-2.93c.02-.9.68-1.78,2.16-1.83.31,0,.64-.04.99-.04l.29-2h-7.7c-.35,0-.53-.26-.53-.53s.18-.53.53-.53l7.86.02.29-2.05c.04-.35.33-.53.62-.53.31,0,.59.2.59.55v.09l-.31,1.94,6.71-.02c.35,0,.51.26.51.53s-.15.53-.51.53h-6.87Zm7.15,13.53c.37,0,.55.26.55.55s-.18.57-.57.57c-1.54.07-4.18.09-6.75.09s-5.13-.02-6.49-.09c-1.76-.07-2.6-.84-2.62-2.46-.02-.99-.02-2.11-.02-3.28,0-1.87.02-3.85.04-5.61,0-.37.31-.55.59-.55s.59.18.59.53v.02c-.02,1.21-.02,2.82-.02,4.38s0,3.08.02,4.18c.02,1.23.51,1.63,1.89,1.69,1.1.04,3.08.07,5.19.07,2.93,0,6.09-.04,7.57-.09h.02Zm-3.24-7.77h-7.48v1.96h7.48v-1.96Zm-.02-.9c0-.29-.02-.53-.02-.75-.04-1.23-.7-1.23-3.74-1.23-.86,0-1.69.02-2.31.04-.95.04-1.32.53-1.34,1.19,0,.2-.02.46-.02.75h7.44Zm-7.44,3.76c0,.4.02.75.02,1.01.04,1.23.9,1.23,3.7,1.23,3.63,0,3.72-.04,3.72-2.24h-7.44Z"/>
      <path class="cls-1" d="m192.37,18.57l.31-9.4c-.75.73-2.49,2.31-3.06,2.31-.33,0-.57-.29-.57-.59,0-.2.09-.4.31-.53,1.98-1.19,4.22-3.39,5.59-5.63.13-.2.31-.29.48-.29.31,0,.62.29.62.62,0,.51-1.76,2.44-2.2,2.93l-.26,10.58c-.02.37-.33.55-.64.55-.29,0-.57-.18-.57-.53v-.02Zm-2.35-12.41c-.33,0-.59-.24-.59-.55,0-.2.11-.42.4-.57,1.83-1.03,3.54-2.86,4.67-4.62.13-.22.33-.31.51-.31.33,0,.62.26.62.59,0,.79-4.47,5.46-5.59,5.46Zm5.59,11.97c-.35,0-.53-.26-.53-.51,0-.26.18-.53.53-.53l5.83.02-.02-3.48-4.11.02c-.35,0-.53-.26-.53-.51,0-.26.18-.51.53-.51h4.11l-.02-2.33c0-.37.31-.57.59-.57.31,0,.59.2.59.57l-.02,2.33h4.18c.35,0,.53.26.53.51,0,.26-.18.51-.53.51l-4.18-.02-.02,3.48,5.61-.02c.35,0,.51.26.51.51,0,.26-.15.53-.51.53h-12.54Zm.44-8.25c-.37,0-.57-.31-.57-.59,0-.22.13-.44.42-.48,2.27-.42,4.03-1.14,5.39-2-1.65-1.19-2.95-2.6-2.95-2.97,0-.31.31-.53.62-.53.13,0,.29.04.37.18.81,1.08,1.76,1.98,2.82,2.73,1.25-.97,2.71-2.79,2.71-3.43,0-.26-.24-.4-.81-.4-1.41,0-4.42.02-6.38.04-.31,0-.46-.26-.46-.53s.18-.55.48-.55h1.78c1.72,0,3.59.02,5.08.04,1.17.02,1.65.51,1.65,1.14,0,.75-1.21,2.73-3.12,4.25,1.52.88,3.19,1.43,4.93,1.65.35.04.53.31.53.57,0,.29-.22.59-.64.59-.7,0-3.15-.55-5.7-2.18-2.86,1.87-5.98,2.46-6.14,2.46Z"/>
      <path class="cls-1" d="m218.11,2.82h3.21v14.37h-1.08V3.85h-2.13v-1.03Z"/>
      <path class="cls-1" d="m232.41,2.82l-4.44,6.12-.81-.24c.25-.15.52-.25.81-.32.29-.07.6-.1.92-.1.57-.03,1.11.03,1.63.19.51.15.97.4,1.38.75s.72.78.95,1.31.34,1.16.34,1.89c0,1-.22,1.87-.66,2.61-.44.74-1.04,1.32-1.79,1.73-.75.41-1.61.62-2.56.62-.67,0-1.32-.14-1.94-.41-.62-.27-1.14-.63-1.56-1.09l.55-.88c.32.38.75.7,1.28.96.53.26,1.08.38,1.65.38.76,0,1.44-.17,2.04-.49.59-.33,1.06-.8,1.4-1.4.34-.6.51-1.29.51-2.07,0-1.03-.32-1.83-.95-2.42-.63-.59-1.47-.88-2.53-.88-.41,0-.79.04-1.14.13-.35.09-.65.19-.9.31l-.09-.07,4.27-5.81.4.2h-5.98v-1.01h7.26Z"/>
      <path class="cls-1" d="m236.38,15.91c.15-.15.32-.22.51-.22s.36.07.52.22c.15.15.23.32.23.53,0,.22-.08.4-.23.54s-.33.21-.52.21-.36-.07-.51-.21-.22-.32-.22-.54c0-.21.07-.38.22-.53Z"/>
      <path class="cls-1" d="m240.08,17.18c.94-.91,1.84-1.81,2.72-2.7.87-.89,1.65-1.75,2.34-2.6.69-.84,1.24-1.66,1.64-2.45s.6-1.56.6-2.31c0-.65-.1-1.19-.3-1.63-.2-.44-.46-.8-.77-1.07-.32-.27-.66-.47-1.03-.59s-.74-.19-1.09-.19c-.63,0-1.15.11-1.56.32-.41.21-.74.49-.98.83-.24.34-.42.69-.52,1.07s-.15.73-.15,1.07c0,.51.07.98.22,1.39.15.41.36.76.64,1.06l-.66.59c-.26-.23-.49-.51-.68-.83s-.33-.66-.43-1.04c-.1-.38-.14-.76-.14-1.14,0-.79.17-1.51.51-2.17.34-.65.84-1.17,1.5-1.56s1.46-.58,2.4-.58c.84,0,1.57.19,2.19.58.62.39,1.11.92,1.45,1.58.34.67.52,1.41.52,2.23s-.19,1.61-.57,2.4c-.38.79-.88,1.58-1.51,2.35-.62.78-1.3,1.55-2.02,2.31-.73.76-1.43,1.52-2.12,2.27l-.42-.22h7.44v1.03h-9.2Z"/>
      <path class="cls-1" d="m252.72,8.58l.11,2.4-.15-.22c.29-.75.78-1.34,1.46-1.77.68-.43,1.43-.65,2.23-.65.48,0,.92.09,1.31.27.39.18.7.43.95.75.24.32.39.68.43,1.09l-.13.13c.31-.73.79-1.29,1.45-1.67.66-.38,1.37-.57,2.13-.57.82,0,1.47.24,1.96.71.48.48.73,1.1.75,1.86v6.27h-1.03v-6.05c-.01-.51-.18-.95-.48-1.31-.31-.36-.78-.55-1.41-.58-.57,0-1.1.15-1.58.44-.48.29-.88.68-1.18,1.17s-.47,1.03-.5,1.63v4.71h-1.03v-6.05c-.01-.51-.18-.95-.5-1.31-.32-.36-.79-.55-1.42-.58-.59,0-1.12.15-1.62.44-.49.29-.88.69-1.18,1.2-.29.51-.44,1.07-.44,1.68v4.62h-1.03v-8.6h.9Z"/>
      <path class="cls-1" d="m269.54,8.58l.11,2.4-.15-.22c.29-.75.78-1.34,1.46-1.77.68-.43,1.43-.65,2.23-.65.48,0,.92.09,1.31.27.39.18.7.43.95.75.24.32.39.68.43,1.09l-.13.13c.31-.73.79-1.29,1.45-1.67.66-.38,1.37-.57,2.13-.57.82,0,1.47.24,1.96.71.48.48.73,1.1.75,1.86v6.27h-1.03v-6.05c-.01-.51-.18-.95-.48-1.31-.31-.36-.78-.55-1.41-.58-.57,0-1.1.15-1.58.44-.48.29-.88.68-1.18,1.17s-.47,1.03-.5,1.63v4.71h-1.03v-6.05c-.01-.51-.18-.95-.5-1.31-.32-.36-.79-.55-1.42-.58-.59,0-1.12.15-1.62.44-.49.29-.88.69-1.18,1.2-.29.51-.44,1.07-.44,1.68v4.62h-1.03v-8.6h.9Z"/>
    </g>
  </g>
</svg>