<?xml version="1.0" encoding="UTF-8"?><svg id="_イヤー_2" xmlns="http://www.w3.org/2000/svg" viewBox="0 0 266.7 12.38"><defs><style>.cls-1{fill:#504f4f;}</style></defs><g id="collection"><g><path class="cls-1" d="M2.62,.5c.7,0,1.32,.12,1.85,.36,.53,.24,.94,.6,1.23,1.07,.29,.47,.44,1.07,.44,1.78,0,.43-.07,.84-.2,1.24-.13,.4-.35,.76-.64,1.08-.29,.32-.67,.58-1.12,.77-.45,.19-1,.29-1.64,.29H.78v4.77H0V.5H2.62Zm-.08,5.84c.55,0,1.02-.09,1.38-.26,.37-.18,.66-.4,.86-.67,.21-.27,.36-.56,.45-.86,.09-.3,.14-.58,.14-.83,0-.36-.06-.69-.18-.99-.12-.3-.29-.56-.52-.78-.23-.22-.51-.39-.84-.51-.33-.12-.71-.18-1.14-.18H.78V6.34h1.76Z"/><path class="cls-1" d="M11.46,.5c.43,0,.85,.06,1.27,.18,.42,.12,.81,.31,1.15,.58,.35,.26,.63,.59,.84,1,.21,.41,.32,.89,.32,1.46,0,.43-.06,.84-.19,1.24-.13,.4-.34,.76-.62,1.08s-.66,.58-1.12,.77c-.46,.19-1.02,.29-1.7,.29h-1.76v4.77h-.78V.5h2.59Zm-.1,5.84c.57,0,1.04-.08,1.41-.24s.67-.37,.88-.62c.21-.26,.37-.54,.46-.84s.14-.6,.14-.89c0-.34-.06-.66-.18-.96-.12-.3-.3-.56-.54-.79-.23-.23-.52-.41-.85-.54-.33-.13-.7-.2-1.1-.2h-1.92V6.34h1.71Zm1.63,.35l3.15,5.17h-.91l-3.17-5.15,.93-.02Z"/><path class="cls-1" d="M18.27,6.19c0-.8,.15-1.55,.45-2.25,.3-.7,.71-1.32,1.25-1.86,.53-.54,1.15-.96,1.85-1.26s1.45-.46,2.25-.46,1.55,.15,2.26,.46,1.32,.73,1.86,1.26c.53,.54,.95,1.16,1.26,1.86,.3,.7,.46,1.45,.46,2.25s-.15,1.55-.46,2.25c-.3,.7-.72,1.31-1.26,1.85-.53,.53-1.15,.95-1.86,1.25-.7,.3-1.46,.45-2.26,.45s-1.55-.14-2.25-.43-1.31-.69-1.85-1.22c-.53-.52-.95-1.14-1.25-1.84s-.45-1.47-.45-2.3Zm.8,.02c0,.69,.13,1.34,.38,1.95,.26,.61,.61,1.14,1.07,1.6,.46,.46,.99,.82,1.59,1.08,.6,.26,1.25,.39,1.93,.39s1.36-.13,1.97-.39c.61-.26,1.14-.62,1.6-1.08,.46-.46,.82-.99,1.08-1.6,.26-.61,.39-1.26,.39-1.97s-.13-1.35-.39-1.96c-.26-.61-.62-1.15-1.08-1.62-.46-.46-.99-.83-1.6-1.1-.61-.27-1.26-.4-1.95-.4s-1.36,.14-1.97,.41c-.61,.27-1.14,.64-1.59,1.11-.45,.47-.81,1.01-1.06,1.62-.25,.61-.38,1.26-.38,1.94Z"/><path class="cls-1" d="M32.78,11.86V.5h2.8c1.1,0,2.03,.17,2.81,.52,.77,.35,1.4,.8,1.88,1.37,.48,.57,.83,1.18,1.06,1.86,.22,.67,.34,1.34,.34,2,0,.86-.15,1.64-.45,2.33-.3,.69-.71,1.28-1.22,1.77-.52,.49-1.11,.87-1.77,1.13-.66,.26-1.36,.39-2.1,.39h-3.34Zm.78-.75h2.35c.68,0,1.32-.11,1.92-.34,.6-.22,1.12-.55,1.58-.98,.45-.43,.81-.94,1.06-1.54,.26-.6,.38-1.29,.38-2.06,0-.65-.11-1.27-.33-1.86-.22-.59-.55-1.12-.98-1.58-.44-.46-.98-.82-1.62-1.09-.64-.27-1.39-.4-2.24-.4h-2.13V11.1Z"/><path class="cls-1" d="M45.28,8.02c0,.66,.14,1.23,.41,1.71,.27,.48,.64,.85,1.11,1.11,.47,.26,1,.39,1.6,.39s1.15-.13,1.62-.39c.47-.26,.85-.63,1.12-1.11,.27-.48,.41-1.05,.41-1.71V.5h.77v7.57c0,.82-.17,1.53-.52,2.11-.35,.59-.82,1.03-1.41,1.34-.59,.31-1.26,.46-1.99,.46s-1.4-.15-1.99-.46c-.59-.31-1.06-.76-1.4-1.34-.34-.59-.51-1.29-.51-2.11V.5h.78v7.52Z"/><path class="cls-1" d="M64.03,11.1c-.25,.15-.53,.29-.85,.43-.32,.14-.67,.25-1.06,.33-.38,.08-.8,.12-1.25,.12-.86,0-1.65-.15-2.35-.46s-1.31-.72-1.81-1.25c-.5-.53-.89-1.14-1.16-1.82-.27-.69-.41-1.42-.41-2.2,0-.83,.14-1.61,.43-2.32,.29-.71,.69-1.34,1.22-1.87,.52-.53,1.13-.95,1.82-1.25,.69-.3,1.45-.45,2.26-.45,.6,0,1.16,.08,1.68,.24,.52,.16,1,.37,1.42,.62l-.34,.72c-.37-.23-.79-.43-1.26-.59-.47-.16-.97-.24-1.49-.24-.67,0-1.31,.13-1.9,.39-.6,.26-1.12,.62-1.58,1.09-.45,.46-.81,1.01-1.06,1.62-.26,.62-.38,1.29-.38,2s.11,1.33,.34,1.94c.23,.61,.56,1.14,.99,1.6,.43,.46,.95,.82,1.56,1.08,.61,.26,1.29,.39,2.03,.39,.55,0,1.06-.08,1.53-.23,.46-.15,.88-.35,1.24-.58l.37,.69Z"/><path class="cls-1" d="M66.93,.5h7.01v.75h-6.22V5.76h5.6v.75h-5.6v4.59h6.45v.75h-7.23V.5Z"/><path class="cls-1" d="M77.15,11.86V.5h2.8c1.1,0,2.03,.17,2.81,.52,.77,.35,1.4,.8,1.88,1.37,.48,.57,.83,1.18,1.06,1.86,.22,.67,.34,1.34,.34,2,0,.86-.15,1.64-.45,2.33-.3,.69-.71,1.28-1.22,1.77-.52,.49-1.11,.87-1.77,1.13-.66,.26-1.36,.39-2.1,.39h-3.34Zm.78-.75h2.35c.68,0,1.32-.11,1.92-.34,.6-.22,1.12-.55,1.58-.98,.45-.43,.81-.94,1.06-1.54,.26-.6,.38-1.29,.38-2.06,0-.65-.11-1.27-.33-1.86-.22-.59-.55-1.12-.98-1.58-.44-.46-.98-.82-1.62-1.09-.64-.27-1.39-.4-2.24-.4h-2.13V11.1Z"/><path class="cls-1" d="M96.35,.5c1.1,0,1.95,.23,2.55,.68,.6,.45,.9,1.19,.9,2.2,0,.5-.1,.96-.29,1.38-.19,.42-.48,.76-.86,1.02-.38,.27-.85,.44-1.42,.51l-.08-.38c.59,.04,1.12,.19,1.61,.44,.49,.25,.87,.59,1.17,1.01,.29,.42,.44,.91,.44,1.48,0,.51-.1,.96-.3,1.34-.2,.38-.46,.69-.8,.94-.34,.25-.72,.44-1.14,.56-.43,.12-.88,.18-1.34,.18h-2.96V.5h2.51Zm.37,5.31c.81,0,1.39-.22,1.75-.66,.36-.44,.54-.98,.54-1.63,0-.81-.24-1.39-.71-1.74-.47-.35-1.11-.53-1.91-.53h-1.76V5.81h2.1Zm.05,5.33c.51,0,.98-.08,1.41-.25,.43-.17,.77-.42,1.02-.76,.26-.34,.38-.76,.38-1.26,0-.55-.14-1-.43-1.34-.29-.34-.65-.58-1.09-.74-.44-.15-.89-.23-1.34-.23h-2.1v4.58h2.14Z"/><path class="cls-1" d="M106.37,7.81L102.13,.5h.96l3.82,6.66-.27,.02,3.81-6.67h.94l-4.24,7.31v4.05h-.78V7.81Z"/><path class="cls-1" d="M124.45,1.78c-.33-.16-.74-.31-1.22-.45-.48-.14-.96-.21-1.44-.21-.75,0-1.34,.19-1.79,.56-.45,.37-.67,.84-.67,1.41,0,.43,.13,.78,.38,1.06,.26,.28,.59,.52,1.01,.72,.42,.2,.86,.39,1.33,.57,.37,.14,.74,.29,1.11,.46,.37,.17,.7,.38,1,.62,.3,.25,.54,.55,.71,.91,.18,.36,.26,.81,.26,1.34,0,.63-.15,1.19-.45,1.67-.3,.49-.71,.86-1.25,1.13-.53,.27-1.15,.4-1.86,.4-.57,0-1.08-.07-1.54-.21-.46-.14-.87-.3-1.22-.49-.35-.19-.62-.34-.82-.47l.37-.64c.23,.17,.52,.34,.86,.51,.34,.17,.7,.31,1.1,.43,.39,.12,.79,.18,1.18,.18,.46,0,.9-.09,1.34-.27,.43-.18,.79-.46,1.07-.82,.28-.37,.42-.83,.42-1.4s-.13-.98-.4-1.32-.61-.61-1.02-.82c-.42-.21-.86-.41-1.33-.58-.36-.14-.73-.29-1.09-.44-.36-.15-.69-.34-.99-.56-.3-.22-.54-.48-.71-.79-.18-.31-.26-.68-.26-1.12,0-.54,.14-1.02,.42-1.42,.28-.41,.65-.72,1.13-.95,.47-.23,1.02-.35,1.62-.36,.53,0,1.07,.07,1.62,.21,.55,.14,1.03,.31,1.43,.53l-.3,.61Z"/><path class="cls-1" d="M127.07,11.86l4.8-11.86h.06l4.8,11.86h-.88l-4.18-10.61,.54-.3-4.37,10.91h-.78Zm2.32-4.5h5.04l.22,.74h-5.46l.19-.74Z"/><path class="cls-1" d="M140.16,5.62l-.03,.56,.05-.14,5.62-5.54h1.01l-4.7,4.66,5.23,6.7h-.99l-4.82-6.21-1.38,1.31,.02,4.9h-.8V.5h.8V5.62Z"/><path class="cls-1" d="M150.56,8.02c0,.66,.14,1.23,.41,1.71,.27,.48,.64,.85,1.11,1.11,.47,.26,1,.39,1.6,.39s1.15-.13,1.62-.39c.47-.26,.85-.63,1.12-1.11,.27-.48,.41-1.05,.41-1.71V.5h.77v7.57c0,.82-.17,1.53-.52,2.11-.35,.59-.82,1.03-1.41,1.34-.59,.31-1.26,.46-1.99,.46s-1.4-.15-1.99-.46c-.59-.31-1.06-.76-1.4-1.34-.34-.59-.51-1.29-.51-2.11V.5h.78v7.52Z"/><path class="cls-1" d="M163.74,.5c.43,0,.85,.06,1.27,.18,.42,.12,.81,.31,1.15,.58,.35,.26,.63,.59,.84,1,.21,.41,.32,.89,.32,1.46,0,.43-.06,.84-.19,1.24-.13,.4-.34,.76-.62,1.08s-.66,.58-1.12,.77c-.46,.19-1.02,.29-1.7,.29h-1.76v4.77h-.78V.5h2.59Zm-.1,5.84c.57,0,1.04-.08,1.41-.24s.67-.37,.88-.62c.21-.26,.37-.54,.46-.84s.14-.6,.14-.89c0-.34-.06-.66-.18-.96-.12-.3-.3-.56-.54-.79-.23-.23-.52-.41-.85-.54-.33-.13-.7-.2-1.1-.2h-1.92V6.34h1.71Zm1.63,.35l3.15,5.17h-.91l-3.17-5.15,.93-.02Z"/><path class="cls-1" d="M170.29,11.86l4.8-11.86h.06l4.8,11.86h-.88l-4.18-10.61,.54-.3-4.37,10.91h-.78Zm2.32-4.5h5.04l.22,.74h-5.46l.19-.74Z"/><path class="cls-1" d="M187.49,11.86V.24h.02l5.6,7.95-.34-.05L198.35,.24h.02V11.86h-.77V2.05l.06,.38-4.74,6.67h-.03l-4.77-6.67,.13-.35V11.86h-.77Z"/><path class="cls-1" d="M201.98,.5h.78V11.86h-.78V.5Z"/><path class="cls-1" d="M209.47,7.81l-4.24-7.31h.96l3.82,6.66-.27,.02,3.81-6.67h.94l-4.24,7.31v4.05h-.78V7.81Z"/><path class="cls-1" d="M215.97,11.86l4.8-11.86h.06l4.8,11.86h-.88l-4.18-10.61,.54-.3-4.37,10.91h-.78Zm2.32-4.5h5.04l.22,.74h-5.46l.19-.74Z"/><path class="cls-1" d="M227.23,.53h.9l3.76,10.27-.18-.05,2.37-6.4,.37,1.01-2.74,7.02-4.48-11.86Zm5.23,0h.78l3.9,10.27-.24-.06,3.81-10.21h.83l-4.56,11.84-4.53-11.84Z"/><path class="cls-1" d="M243.15,11.86l4.8-11.86h.06l4.8,11.86h-.88l-4.18-10.61,.54-.3-4.37,10.91h-.78Zm2.32-4.5h5.04l.22,.74h-5.46l.19-.74Z"/><path class="cls-1" d="M256.24,5.62l-.03,.56,.05-.14,5.62-5.54h1.01l-4.7,4.66,5.23,6.7h-.99l-4.82-6.21-1.38,1.31,.02,4.9h-.8V.5h.8V5.62Z"/><path class="cls-1" d="M265.92,.5h.78V11.86h-.78V.5Z"/></g></g></svg>