<svg viewBox="0 0 333.38 15.48" xmlns="http://www.w3.org/2000/svg"><g fill="#fff"><path d="m3.28.62c.88 0 1.65.15 2.31.45s1.17.75 1.54 1.34.55 1.34.55 2.23c0 .53-.08 1.05-.25 1.55s-.43.95-.8 1.35-.83.72-1.4.96-1.25.36-2.05.36h-2.2v5.96h-.98v-14.2zm-.1 7.3c.69 0 1.27-.11 1.73-.33s.82-.5 1.08-.84.45-.7.56-1.07.17-.72.17-1.04c0-.45-.07-.87-.22-1.24s-.36-.7-.65-.97-.64-.49-1.05-.64-.89-.23-1.42-.23h-2.4v6.36z"/><path d="m14.32.62c.53 0 1.06.08 1.59.23s1.01.39 1.44.72.78.74 1.05 1.25.4 1.11.4 1.82c0 .53-.08 1.05-.24 1.55s-.42.95-.78 1.35-.83.72-1.4.96-1.28.36-2.12.36h-2.2v5.96h-.98v-14.2zm-.12 7.3c.71 0 1.29-.1 1.76-.3s.83-.46 1.1-.78.46-.67.57-1.05.17-.75.17-1.11c0-.43-.08-.83-.23-1.2s-.38-.7-.67-.99-.65-.51-1.06-.68-.87-.25-1.38-.25h-2.4v6.36zm2.04.44 3.94 6.46h-1.14l-3.96-6.44z"/><path d="m22.84 7.74c0-1 .19-1.94.56-2.81s.89-1.65 1.56-2.32 1.44-1.2 2.31-1.58 1.81-.57 2.81-.57 1.94.19 2.82.57 1.65.91 2.32 1.58 1.19 1.45 1.57 2.32.57 1.81.57 2.81-.19 1.94-.57 2.81-.9 1.64-1.57 2.31-1.44 1.19-2.32 1.56-1.82.56-2.82.56-1.94-.18-2.81-.54-1.64-.87-2.31-1.52-1.19-1.42-1.56-2.3-.56-1.84-.56-2.88zm1 .02c0 .87.16 1.68.48 2.44s.77 1.43 1.34 2 1.24 1.02 1.99 1.35 1.56.49 2.41.49 1.7-.16 2.46-.49 1.43-.78 2-1.35 1.02-1.24 1.35-2 .49-1.58.49-2.46-.16-1.68-.49-2.45-.78-1.44-1.35-2.02-1.24-1.04-2-1.37-1.57-.5-2.44-.5-1.7.17-2.46.51-1.42.8-1.99 1.39-1.01 1.26-1.32 2.03-.47 1.58-.47 2.43z"/><path d="m40.98 14.82v-14.2h3.5c1.37 0 2.54.22 3.51.65s1.75 1 2.35 1.71 1.04 1.48 1.32 2.32.42 1.67.42 2.5c0 1.08-.19 2.05-.56 2.91s-.88 1.6-1.53 2.21-1.38 1.08-2.21 1.41-1.7.49-2.62.49zm.98-.94h2.94c.85 0 1.65-.14 2.4-.42s1.4-.69 1.97-1.22 1.01-1.18 1.33-1.93.48-1.61.48-2.57c0-.81-.14-1.59-.41-2.33s-.68-1.4-1.23-1.97-1.22-1.03-2.02-1.36-1.73-.5-2.8-.5h-2.66z"/><path d="m56.6 10.02c0 .83.17 1.54.51 2.14s.8 1.06 1.39 1.39 1.25.49 2 .49 1.44-.16 2.03-.49 1.06-.79 1.4-1.39.51-1.31.51-2.14v-9.4h.96v9.46c0 1.03-.22 1.91-.65 2.64s-1.02 1.29-1.76 1.68-1.57.58-2.49.58-1.75-.19-2.49-.58-1.32-.95-1.75-1.68-.64-1.61-.64-2.64v-9.46h.98z"/><path d="m80.04 13.88c-.31.19-.66.37-1.06.54s-.84.31-1.32.41-1 .15-1.56.15c-1.08 0-2.06-.19-2.94-.57s-1.63-.9-2.26-1.56-1.11-1.42-1.45-2.28-.51-1.78-.51-2.75c0-1.04.18-2.01.54-2.9s.87-1.67 1.52-2.34 1.41-1.19 2.28-1.56 1.81-.56 2.82-.56c.75 0 1.45.1 2.1.3s1.25.46 1.78.78l-.42.9c-.47-.29-.99-.54-1.58-.74s-1.21-.3-1.86-.3c-.84 0-1.63.16-2.38.49s-1.4.78-1.97 1.36-1.01 1.26-1.33 2.03-.48 1.61-.48 2.5.14 1.66.43 2.42.7 1.43 1.24 2 1.19 1.02 1.95 1.35 1.61.49 2.54.49c.69 0 1.33-.1 1.91-.29s1.1-.44 1.55-.73z"/><path d="m83.66.62h8.76v.94h-7.78v5.64h7v.94h-7v5.74h8.06v.94h-9.04z"/><path d="m96.44 14.82v-14.2h3.5c1.37 0 2.54.22 3.51.65s1.75 1 2.35 1.71 1.04 1.48 1.32 2.32.42 1.67.42 2.5c0 1.08-.19 2.05-.56 2.91s-.88 1.6-1.53 2.21-1.38 1.08-2.21 1.41-1.7.49-2.62.49zm.98-.94h2.94c.85 0 1.65-.14 2.4-.42s1.4-.69 1.97-1.22 1.01-1.18 1.33-1.93.48-1.61.48-2.57c0-.81-.14-1.59-.41-2.33s-.68-1.4-1.23-1.97-1.22-1.03-2.02-1.36-1.73-.5-2.8-.5h-2.66z"/><path d="m120.44.62c1.37 0 2.44.28 3.19.85s1.13 1.48 1.13 2.75c0 .63-.12 1.2-.36 1.72s-.6.95-1.07 1.28-1.06.55-1.77.64l-.1-.48c.73.05 1.4.24 2.01.55s1.09.73 1.46 1.26.55 1.14.55 1.85c0 .64-.12 1.2-.37 1.67s-.58.87-1 1.18-.9.55-1.43.7-1.09.23-1.68.23h-3.7v-14.2zm.46 6.64c1.01 0 1.74-.27 2.19-.82s.67-1.23.67-2.04c0-1.01-.3-1.74-.89-2.18s-1.39-.66-2.39-.66h-2.2v5.7zm.06 6.66c.64 0 1.23-.1 1.76-.31s.96-.52 1.28-.95.48-.95.48-1.58c0-.69-.18-1.25-.54-1.67s-.81-.73-1.36-.92-1.11-.29-1.68-.29h-2.62v5.72z"/><path d="m132.96 9.76-5.3-9.14h1.2l4.78 8.32-.34.02 4.76-8.34h1.18l-5.3 9.14v5.06h-.98z"/><path d="m155.56 2.22c-.41-.2-.92-.39-1.52-.56s-1.2-.26-1.8-.26c-.93 0-1.68.23-2.24.7s-.84 1.05-.84 1.76c0 .53.16.98.48 1.33s.74.65 1.26.9 1.07.48 1.66.71c.47.17.93.37 1.39.58s.88.47 1.25.78.67.69.89 1.14.33 1.01.33 1.68c0 .79-.19 1.48-.56 2.09s-.89 1.08-1.56 1.41-1.44.5-2.32.5c-.71 0-1.35-.09-1.93-.26s-1.09-.38-1.52-.61-.78-.43-1.03-.59l.46-.8c.29.21.65.43 1.07.64s.88.39 1.37.54.99.22 1.48.22c.57 0 1.13-.11 1.67-.34s.99-.57 1.34-1.03.53-1.04.53-1.75-.17-1.23-.5-1.65-.76-.76-1.28-1.03-1.07-.51-1.66-.72c-.45-.17-.91-.36-1.36-.55s-.87-.43-1.24-.7-.67-.6-.89-.99-.33-.85-.33-1.4c0-.68.17-1.27.52-1.78s.82-.9 1.41-1.19 1.27-.44 2.03-.45c.67 0 1.34.09 2.03.26s1.28.39 1.79.66l-.38.76z"/><path d="m158.84 14.82 6-14.82h.08l6 14.82h-1.1l-5.22-13.26.68-.38-5.46 13.64zm2.9-5.62h6.3l.28.92h-6.82z"/><path d="m175.2 7.02-.04.7.06-.18 7.02-6.92h1.26l-5.88 5.82 6.54 8.38h-1.24l-6.02-7.76-1.72 1.64.02 6.12h-1v-14.2h1z"/><path d="m188.2 10.02c0 .83.17 1.54.51 2.14s.8 1.06 1.39 1.39 1.25.49 2 .49 1.44-.16 2.03-.49 1.06-.79 1.4-1.39.51-1.31.51-2.14v-9.4h.96v9.46c0 1.03-.22 1.91-.65 2.64s-1.02 1.29-1.76 1.68-1.57.58-2.49.58-1.75-.19-2.49-.58-1.32-.95-1.75-1.68-.64-1.61-.64-2.64v-9.46h.98z"/><path d="m204.68.62c.53 0 1.06.08 1.59.23s1.01.39 1.44.72.78.74 1.05 1.25.4 1.11.4 1.82c0 .53-.08 1.05-.24 1.55s-.42.95-.78 1.35-.83.72-1.4.96-1.28.36-2.12.36h-2.2v5.96h-.98v-14.2zm-.12 7.3c.71 0 1.29-.1 1.76-.3s.83-.46 1.1-.78.46-.67.57-1.05.17-.75.17-1.11c0-.43-.08-.83-.23-1.2s-.38-.7-.67-.99-.65-.51-1.06-.68-.87-.25-1.38-.25h-2.4v6.36zm2.04.44 3.94 6.46h-1.14l-3.96-6.44z"/><path d="m212.86 14.82 6-14.82h.08l6 14.82h-1.1l-5.22-13.26.68-.38-5.46 13.64zm2.9-5.62h6.3l.28.92h-6.82z"/><path d="m234.36 14.82v-14.52h.02l7 9.94-.42-.06 6.98-9.88h.02v14.52h-.96v-12.26l.08.48-5.92 8.34h-.04l-5.96-8.34.16-.44v12.22z"/><path d="m252.48.62h.98v14.2h-.98z"/><path d="m261.84 9.76-5.3-9.14h1.2l4.78 8.32-.34.02 4.76-8.34h1.18l-5.3 9.14v5.06h-.98z"/><path d="m269.96 14.82 6-14.82h.08l6 14.82h-1.1l-5.22-13.26.68-.38-5.46 13.64zm2.9-5.62h6.3l.28.92h-6.82z"/><path d="m284.04.66h1.12l4.7 12.84-.22-.06 2.96-8 .46 1.26-3.42 8.78-5.6-14.82zm6.54 0h.98l4.88 12.84-.3-.08 4.76-12.76h1.04l-5.7 14.8z"/><path d="m303.94 14.82 6-14.82h.08l6 14.82h-1.1l-5.22-13.26.68-.38-5.46 13.64zm2.9-5.62h6.3l.28.92h-6.82z"/><path d="m320.3 7.02-.04.7.06-.18 7.02-6.92h1.26l-5.88 5.82 6.54 8.38h-1.24l-6.02-7.76-1.72 1.64.02 6.12h-1v-14.2h1z"/><path d="m332.4.62h.98v14.2h-.98z"/></g></svg>