<?xml version="1.0" encoding="UTF-8"?>
<svg id="_レイヤー_2" data-name="レイヤー 2" xmlns="http://www.w3.org/2000/svg" viewBox="0 0 237.78 23.46">
  <defs>
    <style>
      .cls-1 {
        fill: #504f4f;
        stroke-width: 0px;
      }
    </style>
  </defs>
  <g id="spec">
    <g>
      <path class="cls-1" d="m2.08,13.87c-.46,0-.78-.32-.78-.73,0-.27.16-.57.54-.81,3.48-2.11,6.96-7.58,7.34-9.12.13-.49.49-.7.84-.7.43,0,.86.3.86.81,0,.38-.3,1.16-.84,2.08.62-.08,1.27-.19,1.86-.3,2.51-.46,2.89-.49,3.32-.49,1.3,0,1.97.73,1.97,1.57,0,.27-.08.54-.22.81-3.78,7.13-8.04,12.55-15.47,15.39-.22.08-.4.11-.59.11-.57,0-.92-.35-.92-.75,0-.35.27-.73.84-.92,9.69-3.24,14.36-13.85,14.36-14.41,0-.27-.19-.32-.57-.32-.65.03-2.35.3-3.29.46-.78.13-1.73.27-2.32.35-2.75,3.81-5.78,6.99-6.94,6.99Z"/>
      <path class="cls-1" d="m32.05,23.46c-.51,0-.81-.38-.81-.78,0-.3.16-.62.57-.81,5.29-2.48,7.75-7.88,7.75-12.17v-.78c0-1.3.05-2.08.05-2.92,0-.08,0-.89-.08-1.94-.03-.43-.05-.84-.14-1.16-.03-.11-.03-.19-.03-.27,0-.54.38-.81.81-.81.46,0,.97.32,1,1.05.03.49.05.84.05,2.38,0,.78-.03,1.43-.05,2.08-.03.67-.03,1.38-.03,2.21v.19c0,4.94-2.94,10.77-8.42,13.55-.24.13-.49.19-.67.19Zm.84-10.2c0-.05.03-.13.03-.19.22-1.05.3-2.38.3-3.64s-.08-3.56-.43-4.97c-.03-.14-.05-.27-.05-.38,0-.59.41-.89.84-.89.76,0,1.11.49,1.11,3.13,0,1.05.03,2.48.05,3.56v.7c0,2.67-.24,3.51-1.05,3.51-.41,0-.78-.35-.78-.84Z"/>
      <path class="cls-1" d="m56.16,4.56h.32c1.08,0,2.21-.11,3.29-.19,1.19-.08,5.8-.54,10.2-.78h.35c1.51,0,2.19.62,2.19,1.43,0,2.4-7.02,7.13-8.53,7.13-.11,0-.24-.03-.35-.08-.89,4.16-2.65,7.42-7.4,10.31-.3.16-.54.24-.78.24-.54,0-.89-.38-.89-.81,0-.3.19-.62.62-.84,5.7-2.92,7.02-7.88,7.02-10.69,0-.54-.05-1.08-.13-1.51,0-.05-.03-.11-.03-.13,0-.43.43-.73.86-.73.81,0,1,.73,1,2,0,.27,0,.57-.03.84,3.81-1.62,6.8-4.62,6.8-5.4,0-.24-.24-.32-.78-.32-1.84,0-7.37.51-10.15.86-1.43.19-2.24.3-3.73.3-.59,0-.94-.43-.94-.84s.32-.78,1.05-.78h.03Z"/>
      <path class="cls-1" d="m86.1,20.46c-.62,0-.86-.4-.86-.84,0-.14.03-.24.05-.35.43-1.57.67-6.72.67-9.02,0-.73-.03-1.92-.19-2.46-.05-.19-.11-.41-.11-.62,0-.46.32-.84.81-.84,1.08,0,1.16,1.05,1.16,3.19,0,1.13-.38,5.99-.51,8.1v.11c0,.32.05.49.27.49.81,0,8.75-4.89,12.17-10.34.22-.35.51-.51.81-.51.43,0,.84.38.84.84,0,.19-.05.35-.16.54-3.91,6.15-13.09,11.71-14.95,11.71Z"/>
      <path class="cls-1" d="m114.61,10.28c-1.19-.86-3-1.81-4.4-2.11-.32-.08-.46-.32-.46-.62,0-.4.3-.84.89-.84.7,0,3.35.97,5.05,2.05.3.19.43.49.43.78,0,.49-.38.94-.89.94-.19,0-.4-.05-.62-.22Zm.24,10.09c-1.43.76-2.35.86-2.78.86-.67,0-1-.43-1-.86,0-.35.22-.7.67-.75,2.59-.32,10.29-4.37,14.79-13.12.16-.32.49-.49.75-.49.38,0,.76.3.76.78,0,.22-.05.46-.22.73-3.35,6.05-7.48,9.96-12.98,12.85Z"/>
      <path class="cls-1" d="m138.73,8.75c-.51,0-.89-.46-.89-.89,0-.38.27-.7.94-.7.81,0,1.81-.19,2.54-.32,1-.16,4.37-1.08,6.53-1.3.14-.03.3-.03.43-.03,1.27,0,1.86.67,1.86,1.4,0,1.13-3.32,5.51-4.05,6.37,4.48,2.08,8.12,4.99,8.12,6.15,0,.51-.38.92-.84.92-.24,0-.49-.13-.7-.41-1.62-2.11-4.99-4.45-7.53-5.59-4.43,4.8-9.55,6.64-10.09,6.64-.57,0-.92-.38-.92-.76,0-.32.22-.62.73-.81,9.04-3.1,13.33-11.63,13.33-12.12,0-.19-.16-.32-.49-.32h-.13c-1.67.16-4.7.97-6.18,1.29-2.05.46-2.54.46-2.65.46h-.03Zm13.9-2.59c-.32-.59-1.7-2-2.29-2.4-.22-.16-.32-.32-.32-.49,0-.27.32-.51.67-.51.54,0,3.13,2.11,3.13,2.92,0,.43-.41.76-.76.76-.16,0-.32-.08-.43-.27Zm2.83-1.57c-.35-.59-1.81-2-2.4-2.38-.24-.13-.32-.32-.32-.49,0-.27.32-.54.67-.54.62,0,3.21,2.13,3.21,2.89,0,.43-.38.78-.73.78-.16,0-.32-.08-.43-.27Z"/>
      <path class="cls-1" d="m173.39,14.55c.4,1.16,1.03,2.29,1.92,3.35,1.08-.43,3.86-1.59,5.1-2.27.11-.05.24-.08.35-.08.41,0,.76.35.76.73,0,.46-.05.59-5.37,2.48,1.65,1.54,3.97,2.7,6.91,3.08.38.05.57.35.57.65,0,.35-.27.73-.81.73-2.11,0-8.64-2.05-10.66-8.64-.84.59-1.7,1.16-2.54,1.67v4.54c1.54-.32,2.94-.7,4-1,.05-.03.13-.03.19-.03.35,0,.62.3.62.62,0,.22-.16.46-.51.57-4.02,1.19-10.12,2.35-10.61,2.35-.51,0-.76-.35-.76-.67s.22-.65.65-.7c1.65-.22,3.43-.51,5.13-.86v-4.05c-3.13,1.73-6.83,2.92-7.23,2.92-.43,0-.7-.35-.7-.7,0-.24.13-.49.46-.57,3.48-.94,6.42-2.19,9.37-4.1l-8.61.05c-.41,0-.59-.3-.59-.59s.19-.59.59-.59l9.66.03-.03-1.92c0-.4.35-.59.7-.59s.7.19.7.59l-.03,1.92,9.72-.03c.38,0,.57.3.57.59s-.19.59-.57.59l-8.93-.05Zm-6.59-7.23c-1.4,1.05-4.51,2.65-5.26,2.65-.46,0-.73-.38-.73-.73,0-.27.13-.54.46-.65,1.78-.59,4.08-1.67,5.53-2.62V.67c0-.43.35-.65.7-.65s.7.22.7.65v10.28c0,.41-.35.59-.7.59s-.7-.19-.7-.59v-3.64Zm-2.73-2.51c-.59-.89-1.4-1.65-2.29-2.29-.16-.13-.24-.27-.24-.4,0-.32.38-.59.76-.59.76,0,3.05,2.02,3.05,2.81,0,.43-.38.78-.76.78-.19,0-.38-.08-.51-.3Zm6.59,5.48c-.43,0-.65-.3-.65-.59s.22-.59.65-.59h4.83v-3.94l-5.34.03c-.46,0-.65-.3-.65-.59s.22-.62.65-.62l5.32.03V.7c0-.46.38-.7.76-.7.35,0,.73.24.73.7v3.29l5.75-.03c.43,0,.65.3.65.59,0,.32-.22.62-.65.62l-5.75-.03-.03,3.94h5.02c.43,0,.62.3.62.59s-.19.59-.62.59h-11.28Z"/>
      <path class="cls-1" d="m208.52,20.08v.08c0,1.51-.67,3.02-3.64,3.02-.67,0-1.43-.08-2.35-.24-.43-.08-.65-.4-.65-.73,0-.38.24-.7.67-.7h.13c.92.16,1.65.27,2.27.27,1.43,0,2.08-.54,2.08-1.92s-.03-3.18-.03-5.18h-7.29l.03,7.67c0,.49-.35.7-.73.7-.35,0-.73-.22-.73-.7v-7.67h-6.91c-.3,3.08-.97,6.05-2.46,8.15-.22.32-.51.43-.78.43-.43,0-.81-.32-.81-.7,0-.13.05-.27.14-.4,2.27-3.24,2.7-7.8,2.7-12.09,0-2.02-.11-4-.13-5.72v-.05c0-1.97,1.19-2.97,3.4-3.02,2.11-.05,4.24-.11,6.4-.11,1.78,0,3.62.03,5.51.11,1.78.05,3.02,1.03,3.05,2.7.08,3.89.05,10.18.11,13.17l.03,2.94Zm-10.2-11.47h-6.75c0,.51.03,1.03.03,1.57,0,1.08-.03,2.16-.11,3.27h6.83v-4.83Zm0-6.15c-1.59,0-3.18.05-4.78.08-1.32.03-2.02.67-2.02,1.97,0,.86.03,1.83.05,2.86h6.75V2.46Zm8.67,4.91c0-1.08-.03-2.05-.05-2.86-.03-1.19-.49-1.92-1.94-1.97-1.75-.05-3.51-.08-5.26-.08v4.91h7.26Zm-7.26,1.24v4.83h7.29c0-1.62,0-3.29-.03-4.83h-7.26Z"/>
      <path class="cls-1" d="m218.78,19.11c-.43,0-.86,0-1.3-.03-1.24-.08-2.02-1.03-2.05-2.27-.03-1.67-.03-3.97-.03-6.21s0-4.45.03-5.97c.05-2.16,1.97-2.19,3.43-2.19.43,0,.86.03,1.24.05,1.32.08,2.16.97,2.19,2.02.05,1.57.08,3.62.08,5.72,0,2.4-.03,4.83-.08,6.56-.05,2.16-1.62,2.29-3.51,2.29Zm2.24-9.37c0-1.83,0-3.59-.05-4.83-.05-1.16-.81-1.24-2.11-1.24s-2.05.03-2.11,1.27c-.03,1.11-.05,2.89-.05,4.8h4.32Zm-4.32,1.21c0,2.16.03,4.29.05,5.61.03,1.16.51,1.27,2.08,1.27,1.27,0,2.11-.08,2.13-1.29.05-1.46.05-3.51.05-5.59h-4.32Zm7.23-1.32c-.43,0-.65-.3-.65-.59,0-.32.22-.62.65-.62l5.59.03-.03-3.46-4.18.03c-.43,0-.65-.3-.65-.59s.22-.62.65-.62l4.18.03V.86c0-.43.35-.65.7-.65.38,0,.73.22.73.65v2.97l4.62-.03c.41,0,.62.3.62.59,0,.32-.22.62-.62.62l-4.62-.03v3.46l6.16-.03c.4,0,.59.3.59.59,0,.32-.19.62-.59.62h-13.15Zm8.42,4.64l-8.42.03c-.43,0-.62-.3-.62-.59,0-.32.22-.65.62-.65l8.39.03v-1.86c0-.43.35-.62.7-.62.32,0,.67.19.67.62l.03,1.86,3.48-.03c.38,0,.57.3.57.62,0,.3-.19.62-.57.62l-3.48-.03.03,3.4.08,2.7v.16c0,1.27-.57,2.78-3.51,2.78-2.62,0-2.67-.57-2.67-.92s.24-.7.67-.7h.13c.78.13,1.48.24,2.08.24,1.13,0,1.84-.41,1.84-1.7l-.03-5.96Zm-3.75,4.94c-.84-1.11-2.4-1.97-3.1-2.32-.22-.11-.32-.27-.32-.43,0-.32.32-.65.7-.65.65,0,3.94,1.89,3.94,2.94,0,.43-.3.78-.67.78-.16,0-.38-.11-.54-.32Z"/>
    </g>
  </g>
</svg>