<?xml version="1.0" encoding="UTF-8"?><svg id="_レイヤー_1" xmlns="http://www.w3.org/2000/svg" viewBox="0 0 41.5437886 5.6285075"><path d="M20.7722393,5.6285075c-.0059852,0-.0132095-.0020791-.0178297-.0059012-.0056072-.0046202-.1379543-.1139924-.1896583-.1764908-.0557781-.0676856-.1102122-.1423015-.1102122-.2447854,0-.0931176.0732298-.1688675.1632183-.1688675.0641995,0,.1202296.0298211.1538309.07911.0337693-.0492889.0902825-.07911.155154-.07911.0911435,0,.1625252.0741748.1625252.1688675,0,.1024839-.0544341.1770998-.1101912.2447644-.051788.0625614-.1848281.1719336-.1904773.1765538-.0045992.0037801-.0103954.0058592-.0163596.0058592Z" style="fill:#e83f66;"/><rect y="5.3028119" width="19.0423907" height=".0553917" style="fill:#71423f;"/><rect x="22.501425" y="5.3028119" width="19.0423636" height=".0553917" style="fill:#71423f;"/><path d="M12.1338425,3.096608c-.0742433.1938169-.1660129.3839014-.2727934.5648982-.1056716.1791035-.2212964.329267-.3436558.4462712-.1177615.1126226-.2365508.1697453-.353014.1697453-.1473777,0-.2828007-.1017498-.4024825-.3023825-.1235495-.207178-.2199711-.4743998-.2866143-.7942004-.0669407-.3213693-.1038595-.6465252-.1097557-.9665963-.0086009-.3260214.0159576-.6222372.072918-.8804524.0568522-.2577554.1439427-.4637163.2588373-.6121759.1138397-.1471072.2496414-.2186188.4151674-.2186188.116896,0,.2433395.0574473.3757874.1707731.1363426.1166526.2759038.2807181.414897.487869.0888485.1305276.1607658.241906.2198359.3405184l.0080599.0134693h.0597733l-.0085468-.0344034c-.0375138-.1505421-.0686176-.3299161-.0924187-.5331182-.0241527-.2060691-.03938-.3844423-.0452762-.5301701l-.0006491-.0163362-.051524-.0257755-.0103319.0298326c-.0174451.0504963-.0433289.084494-.076948.1010737-.0366213.0180402-.0768939.0242339-.1230627.0189598-.0527952-.0060585-.1243609-.0203932-.2129931-.0426798-.1677709-.0407324-.3010031-.061369-.3960183-.061369-.2812861,0-.524896.1153002-.7240412.3426551-.1966568.224515-.3449541.5128061-.4407536.8568406-.0956643.3434665-.1411299.6933972-.1351796,1.0401905.0114408.5052871.124442.9180204.3358934,1.2266777.2139667.3123898.5281416.4707755.9337886.4707755.0424093,0,.1026965-.0101696.1843235-.0311578.0780028-.0200687.1646876-.0433289.2609469-.0696183.0970437-.030076.1849997-.0546885.2688716-.0752981.0856029-.0209883.1496226-.0316447.1903008-.0316447h.026019l.0102507-.1641737c.0150109-.2045815.0305358-.3711894.047467-.5092901.0171476-.1397234.038785-.2623534.0642901-.3644818l.0086279-.0344034h-.0631812l-.0068158.0177968Z" style="fill:#71423f;"/><path d="M14.5864948,1.4695845c-.2261378-.1095122-.4682602-.1650392-.7196055-.1650392-.2310603,0-.4653121.0592324-.6962371.1760743-.2308439.1167878-.4244174.2917802-.5753382.5200817-.1509478.2283015-.2274631.5057469-.2274631.8245198,0,.3355418.073513.621534.2185106.8500249.1448623.2282745.3335945.399859.5609223.5099392.2261378.1094852.4682602.1650392.7196055.1650392.2373351,0,.4730474-.0585291.7005916-.1739105.2285449-.1159223.4199547-.2902115.5689011-.5180532.1494332-.2285449.2252182-.5073968.2252182-.828712,0-.3352173-.0727557-.6211554-.2162928-.8499167-.1431584-.2281933-.3311873-.3998049-.5588126-.5100474ZM12.933263,3.2523431c-.1287966-.2645171-.1941144-.5319552-.1941144-.7949577,0-.2944308.0776782-.5298726.230898-.6998073.1524354-.1690962.3770045-.2548344.6674864-.2548344.2319258,0,.456035.0881183.66608.2619477.2126144.175939.3863626.3999942.5164034.6659177.13023.2663022.1962511.527195.1962511.77543,0,.179374-.0354853.3442509-.1054552.4899787-.0694831.1447541-.1729368.2594864-.3074673.3410053-.1353419.0820598-.2986771.1236577-.4854619.1236577-.2317364,0-.4567112-.0853595-.6686765-.2536443-.2132635-.1693667-.3868765-.3896353-.5159436-.6546933Z" style="fill:#71423f;"/><path d="M16.3567037,4.1861588c-.0371081-.0294269-.0652097-.0784355-.0835203-.1456737-.0194466-.0715116-.0293187-.1717468-.0293187-.2978387V.0253428l-.1014523-.0253428-.0098991.0060314c-.0645065.039326-.1670136.0851431-.3046274.1361533-.1431313.0530387-.2593241.0924728-.3551778.1205473l-.0199064.0058421v.0677521l.0333216-.0068969c.027777-.005788.0529305-.0099802.0763529-.012712.0512536-.0076542.0905525-.0043275.116869.0099262.016796.0091148.0408406.0359992.0599085.1121899.0166608.0667243.0251264.1722066.0251264.3135528l.0043275,2.9902602c0,.1272819-.0091418.2260566-.027182.2936194-.0174181.0651826-.0437346.1137586-.0781921.1443755-.0352689.0313742-.0873069.0554999-.1547073.0716739l-.0212046.0051389v.0595569l.2070969-.0101155c.1199523-.0086009.2182942-.0129283.2922941-.0129283.076948,0,.1855677.0043275.3233708.0129824l.2279499.0098991v-.0602601l-.0221783-.0044898c-.0677791-.0137397-.1213587-.0359181-.1592512-.0659399Z" style="fill:#71423f;"/><path d="M18.862584,1.4695845c-.2261378-.1095122-.4682602-.1650392-.7196055-.1650392-.2310603,0-.4653121.0592324-.6962371.1760743-.2308439.1167878-.4244174.2917802-.5753382.5200817-.1509478.2283015-.2274631.5057469-.2274631.8245198,0,.3355418.073513.621534.2185106.8500249.1448623.2282745.3335945.399859.5609223.5099392.2261378.1094852.4682602.1650392.7196055.1650392.2373351,0,.4730474-.0585291.7005916-.1739105.2285449-.1159223.4199547-.2902115.5689011-.5180532.1494332-.2285449.2252182-.5073968.2252182-.828712,0-.3352173-.0727557-.6211554-.2162928-.8499167-.1431584-.2281933-.3311873-.3998049-.5588126-.5100474ZM17.2093521,3.2523431c-.1287966-.2645171-.1941144-.5319552-.1941144-.7949577,0-.2944308.0776782-.5298726.230898-.6998073.1524354-.1690962.3770045-.2548344.6674864-.2548344.2319258,0,.456035.0881183.66608.2619477.2126144.175939.3863626.3999942.5164034.6659177.13023.2663022.1962511.527195.1962511.77543,0,.179374-.0354853.3442509-.1054552.4899787-.0694831.1447541-.1729368.2594864-.3074673.3410053-.1353419.0820598-.2986771.1236577-.4854619.1236577-.2317364,0-.4567112-.0853595-.6686765-.2536443-.2132635-.1693667-.3868765-.3896353-.5159436-.6546933Z" style="fill:#71423f;"/><path d="M20.9844816,1.274307c-.1102966.0064912-.2027964.0683471-.2750112.1838908-.0696183.1113514-.1239282.2525624-.1615231.4197113-.0153625.0685635-.0298596.1418601-.0433289.2195113l-.0059503-.7572816-.068861-.0306169-.0125497.0080599c-.0605576.0388121-.1559785.0840342-.2917532.1382359-.1274172.0508749-.2426904.0936358-.3425469.1271197l-.0189057.0063289v.0662645l.0327806-.0061126c.0818434-.0154437.1437534.0060314.1893272.065372.0478727.0623427.0721607.1636869.0721607.3014088l.0129824,1.7351023c0,.1674734-.0199605.2889132-.0593676.3610739-.037622.0689151-.1080517.1159764-.2092606.1399398l-.0213128.0050307v.0595569l.2198629-.0100073c.1345575-.0086009.2373351-.0129283.3054929-.0129283.059611,0,.1712329.0043816.3320528.0129824l.2408782.0097909v-.0603683l-.0224488-.0043275c-.1146241-.022016-.1923023-.0662104-.2374163-.1350714-.0460876-.0704297-.0707543-.1936005-.0733508-.3659964l-.0129824-1.1301209c-.005788-.1623345.0125497-.3029776.0545803-.4179262.0415979-.1138397.0925539-.2014441.1515158-.260406.0563654-.0563654.1087279-.0849268.155681-.0849268.0474941,0,.083304.0112244.1062937.0333757.0227734.0219349.0327806.0538501.0305087.0976117l-.0006491.0123063.0326184.0326184.0195818-.0195818c.0482514-.0482514.0916884-.1166526.1291752-.2033374.0373786-.0865225.0563654-.1673923.0563654-.2403373,0-.0933924-.0259108-.1675545-.0770291-.220458-.0512806-.0531468-.1218185-.0787331-.2076108-.0754874Z" style="fill:#71423f;"/><path d="M24.5520545,3.096608c-.0742162.1938169-.1660129.3839014-.2727934.5648982-.1056446.1791035-.2212964.329267-.3436558.4462712-.1177615.1126226-.2365508.1697453-.353014.1697453-.1474047,0-.2828007-.1017498-.4024555-.3023825-.1235495-.207178-.2199982-.4743998-.2866413-.7942004-.0669136-.3213693-.1038595-.6465252-.1097557-.9665963-.0086009-.3260214.0159576-.6222372.072918-.8804524.0568522-.2577554.1439427-.4637163.2588373-.6121759.1138127-.1471072.2496414-.2186188.4151674-.2186188.116896,0,.2433124.0574473.3757874.1707731.1363696.1166526.2758767.2807181.414897.487869.0888756.1305276.1607658.241906.2198359.3405184l.0080599.0134693h.0597733l-.0085468-.0344034c-.0375409-.1505421-.0685905-.3299161-.0923917-.5331182-.0241798-.2060691-.03938-.3844423-.0452762-.5301701l-.0007032-.0163362-.051497-.0257755-.0103319.0298326c-.0174722.0504963-.0433289.084494-.076975.1010737-.0365672.0180672-.0768127.0242609-.1230627.0189598-.0527411-.0060585-.1243609-.0203932-.212966-.0426798-.167798-.0407324-.3010302-.061369-.3960183-.061369-.2812861,0-.524869.1153002-.7240412.3426551-.1966839.224515-.3449541.5128061-.4407536.8568406-.0956373.3434665-.1411299.6933972-.1351796,1.0401905.0114678.5052871.1244691.9180204.3359205,1.2266777.2139397.3123898.5281146.4707755.9337616.4707755.0424093,0,.1027235-.0101696.1842965-.0311578.0780569-.0200687.1647146-.0433289.261001-.0696183.0969896-.030076.1849456-.0546885.2688446-.0752981.08563-.0209883.1496226-.0316447.1903008-.0316447h.026019l.0102778-.1641737c.0149839-.2045815.0305087-.3711894.04744-.5092901.0171476-.1397234.038785-.2623534.0643171-.3644818l.0086009-.0344034h-.0631812l-.0068158.0177968Z" style="fill:#71423f;"/><path d="M26.6129077,4.1092919c-.0421929-.0706461-.0649122-.1941415-.0675087-.3668619l-.0129824-1.8476167c0-.1822409-.0498742-.3276712-.148162-.4322339-.0989911-.1052929-.2308169-.1526518-.3935841-.1405078-.1222513.015065-.236118.0565547-.3384629.123279-.0831417.0542287-.1624427.1271197-.2364967.2172664l-.0041652-1.6433327h-.094934l-.0059503.0030833c-.0880642.0453574-.1943038.0930408-.3157436.1417249-.1216562.0487653-.234928.0877396-.3367319.1158412l-.0203391.0055987v.0672652l.0326725-.0059503c.0853595-.0154707.1522731.0049225.203716.0625862.0527411.0592053.0795174.1687446.0795174.3256157v3.0075972c0,.1680684-.0193655.2911852-.0575555.3660505-.0369458.0723771-.105915.1193302-.2109105.1435641l-.0214751.0049766v.059611l.2287072-.0099532c.1199793-.0086009.2081517-.0129283.2620288-.0129283.0795715,0,.1838096.0043275.3104965.0129824l.2538066.0097368v-.0598815l-.021962-.004652c-.0643712-.0135775-.1148945-.0355935-.1501094-.0654531-.0344575-.0292105-.0621534-.0778946-.0822762-.1447541-.0207178-.0690233-.031266-.1697453-.031266-.2995156l-.0172017-1.9630792c.112839-.1323126.2194031-.2006057.3169337-.2030399.0975305-.0035161.1779675.0402726.2404996.1308521.064209.0929867.0967732.2041758.0967732.330457v1.7050263c0,.1268492-.0084927.2257862-.0251535.2941603-.0156871.064209-.0426257.1132717-.0800042.145836-.0372704.032402-.089146.0557704-.1541664.0695101l-.021962.004652v.0600979l.21989-.0100073c.1345305-.0086009.234387-.0129283.2968109-.0129283.0771373,0,.1827819.0043275.3146617.0129283l.219349.0100073v-.0587455l-.0203391-.0056257c-.0973683-.0268845-.164931-.0737294-.2064207-.1432395Z" style="fill:#71423f;"/><path d="M28.6989684,3.9088756c-.0186622.0726475-.0459254.1308521-.081032.1730991-.0319152.0384064-.065994.0570686-.104184.0570686-.0427879,0-.0770291-.0200687-.1046709-.0612879-.0299137-.0446271-.0450599-.1049413-.0450599-.1793199V1.8818308c0-.1822139-.0402455-.3194761-.1196007-.407973-.0801665-.0893624-.1860816-.1346928-.3148781-.1346928-.1445919,0-.2908065.0374327-.434587.1112432-.1424281.0731344-.2620288.1726123-.3556105.2956479-.0941767.1239282-.1419413.2555105-.1419413.3910958,0,.0998566.0297514.1793199.0884969.2362803.0586373.0568522.13426.0856841.2248125.0856841.0930949,0,.1779675-.0344575.2523461-.102453l.0122251-.0111433-.0146052-.058475-.025478.0045979c-.0505233.0090877-.0823844-.010981-.1034808-.0650204-.0246125-.0630189-.037054-.146972-.037054-.2495873,0-.1386957.026614-.2595675.0790306-.3592618.0499283-.09488.1112703-.1409946.1875421-.1409946.0690233,0,.1248477.0754334.1658506.2241634.0438698.1590078.0661022.361101.0661022.6006539v.3551778c-.3088196.1575743-.5440181.3334863-.6991041.5230839-.1592512.1945742-.2399587.4232273-.2399587.6796304,0,.138912.0399751.2577013.1188975.353014.0803288.0971519.1850538.1463769.3112539.1463769.1223594,0,.2304382-.0267222.321153-.0794633.0752981-.0437616.1459983-.1056986.2108023-.1845669.0230979.0747031.0631271.1350714.1193302.1800772.0696724.0557163.1621181.0839531.2747949.0839531.1160846,0,.2148593-.0366754.2935112-.1089984.0777323-.0714034.130798-.1791576.1577907-.3202875l.0027588-.0143889-.0533903-.0533903-.0120628.0470613ZM27.6698942,4.1347159c-.071187,0-.1299325-.0401915-.1796444-.1229004-.0519297-.0863873-.0782733-.2016605-.0782733-.3427363,0-.1999295.0412733-.3843341.1226299-.5480751.0748113-.1505962.1953315-.2760931.3585856-.3735695v1.1899483c0,.0268845.0009737.0487382.0028129.0652367-.0388391.0455467-.0742162.0791928-.1052118.1000188-.0316988.0212587-.0723771.0320774-.1208989.0320774Z" style="fill:#71423f;"/><path d="M30.042434,1.274307c-.1102966.0064912-.2027964.0683471-.2750112.1838908-.0696183.1113514-.1239282.2525624-.1615231.4197113-.0153625.0685635-.0298596.1418601-.0433289.2195113l-.0059503-.7572816-.068861-.0306169-.0125497.0080599c-.0605847.0388391-.1560056.0840613-.2917802.1382359-.1274442.0508749-.2426633.0936358-.342574.1271197l-.0188786.0063289v.0662645l.0327806-.0061126c.0817352-.0153355.1437264.0060044.1893272.065372.0478727.0623427.0721607.1636869.0721607.3014088l.0129824,1.7351023c0,.1674734-.0199605.2889132-.0593405.3610739-.0376491.0689151-.1080788.1159764-.2092877.1399398l-.0213128.0050307v.0595569l.21989-.0100073c.1345305-.0086009.2373081-.0129283.3054659-.0129283.059611,0,.1712599.0043816.3320798.0129824l.2408782.0097909v-.0603683l-.0224488-.0043275c-.1146241-.022016-.1923023-.0662104-.2374163-.1350714-.0460876-.0704297-.0707543-.1936005-.0733508-.3659964l-.0129824-1.1301209c-.005788-.1623345.0125497-.3029776.0545803-.4179262.0415979-.1138397.0925539-.2014441.1515158-.260406.0563654-.0563654.1087279-.0849268.155681-.0849268.0474941,0,.083304.0112244.1062937.0333757.0227734.0219349.0327806.0538501.0305087.0976117l-.0006491.0123063.0326184.0326184.0195818-.0195818c.0482514-.0482514.0916884-.1166526.1291752-.2033374.0373786-.0865225.0563654-.1673923.0563654-.2403373,0-.0933924-.0259108-.1675545-.0770291-.220458-.0512806-.0531468-.1219267-.0787331-.2076108-.0754874Z" style="fill:#71423f;"/><path d="M31.6121725,3.8712266l-.0099532.0374327c-.0245043.0923917-.05669.1570334-.0956373.1920318-.0383523.0345657-.0789765.0513347-.1242527.0513347-.0529034,0-.0930408-.0270467-.122684-.0827089-.0322938-.0605306-.0486841-.1544369-.0486841-.2790682V1.5076663l.4067829.008655v-.1301489l-.4067829.008655v-.4754275h-.0591242l-.0043816.0223677c-.024883.1269844-.0669677.2228651-.1250641.2850185-.0585291.0626132-.1265246.105915-.201985.1287154-.0802206.0242068-.1788871.0420577-.2932407.0530387l-.0250453.0023801v.0961512h.2466662v2.3221247c0,.1696912.0338625.3011925.100668.3908794.0686446.0921212.1722336.1388039.307846.1388039.1320963,0,.2441239-.0354853.3331076-.1055364.0887133-.0703756.1488652-.1791576.1786707-.3233167l.0037865-.0182836-.0606929-.040516Z" style="fill:#71423f;"/></svg>