<?xml version="1.0" encoding="UTF-8"?>
<svg id="_レイヤー_2" data-name="レイヤー 2" xmlns="http://www.w3.org/2000/svg" viewBox="0 0 17.25 17.25">
  <defs>
    <style>
      .cls-1 {
        stroke-dasharray: 0 0 .73 .73;
      }

      .cls-1, .cls-2 {
        fill: none;
      }

      .cls-1, .cls-2, .cls-3 {
        stroke: #8c6464;
        stroke-miterlimit: 10;
        stroke-width: .16px;
      }

      .cls-4 {
        fill: #8c6464;
      }

      .cls-4, .cls-5 {
        stroke-width: 0px;
      }

      .cls-5, .cls-3 {
        fill: #fff;
      }
    </style>
  </defs>
  <g id="lay">
    <g>
      <path class="cls-5" d="M8.62,17.25c4.76,0,8.62-3.86,8.62-8.62S13.39,0,8.62,0,0,3.86,0,8.62s3.86,8.62,8.62,8.62"/>
      <g>
        <line class="cls-2" x1=".74" y1="8.5" x2="1.08" y2="8.5"/>
        <line class="cls-1" x1="1.81" y1="8.5" x2="10.22" y2="8.5"/>
        <line class="cls-2" x1="10.58" y1="8.5" x2="10.93" y2="8.5"/>
        <polygon class="cls-4" points="11.84 8.5 10.55 9.03 10.86 8.5 10.55 7.98 11.84 8.5"/>
      </g>
      <path class="cls-4" d="M6.84,7.97s-.31-.84-.33-1.77.26-1.2.6-1.2c.45,0,.56.65.39,1.29s-.66,1.68-.66,1.68Z"/>
      <path class="cls-3" d="M8.84,7.97s-.31-.84-.33-1.77.26-1.2.6-1.2c.45,0,.56.65.39,1.29s-.66,1.68-.66,1.68Z"/>
      <path class="cls-3" d="M8.15,5.48s-.2,1.11.23,2.3,1.01,2.37.93,3.4-.51,1.25-.98.96c-.47-.29-1.88-1.13-1.88-3.58,0-2.08,1.7-3.08,1.7-3.08Z"/>
      <path class="cls-3" d="M5.15,7.97s-.31-.84-.33-1.77.26-1.2.6-1.2c.45,0,.56.65.39,1.29s-.66,1.68-.66,1.68Z"/>
      <path class="cls-3" d="M4.46,5.48s-.2,1.11.23,2.3,1.01,2.37.93,3.4-.51,1.25-.98.96-1.88-1.13-1.88-3.58c0-2.08,1.7-3.08,1.7-3.08Z"/>
      <path class="cls-4" d="M6.45,5s-.42,1.36,0,2.55.93,2.6.85,3.63-.51,1.25-.98.96-1.88-1.13-1.88-3.58,2-3.56,2-3.56Z"/>
      <g>
        <path class="cls-4" d="M16.41,8.32c-.07-.03-.11-.1-.17-.14-.61-.55-1.31-.91-2.12-1.04-.09-.01-.19-.02-.29-.02-.06,0-.1-.02-.15-.06-.13-.12-.21-.27-.28-.44-.01-.03-.01-.06-.05-.08-.04.08-.03.16-.01.24.02.11.06.21.12.29.03.04.02.05-.02.06-.08.02-.14,0-.2-.04-.21-.13-.36-.31-.44-.54-.01-.04-.02-.08-.07-.13-.05.37.12.62.39.83-.36-.03-.6-.23-.8-.51-.05.29.3.61.77.73-.28.32-.36.71-.35,1.11.01.41.1.79.45,1.07-.02,0-.04.01-.06.02-.02,0-.05.01-.07.02-.04.01-.07.04-.07.08,0,.04.03.07.07.08.1.04.21.05.32.06.56.03,1.08-.11,1.58-.36.55-.28,1.03-.66,1.41-1.15.01-.02.02-.04.05-.05v-.03Z"/>
        <path class="cls-5" d="M13.56,9.59c.23-.04.44-.11.65-.19.56-.22,1.05-.56,1.48-.98.03-.03.02-.04,0-.07-.61-.48-1.29-.81-2.06-.93-.02,0-.03,0-.06,0,.2.34.25.71.25,1.09,0,.37-.05.74-.25,1.08Z"/>
        <path class="cls-5" d="M12.98,7.97c0,.1.03.17.09.18.05,0,.11-.05.15-.14.03-.08.04-.16,0-.24-.03-.09-.11-.1-.17-.03-.05.05-.07.14-.07.23Z"/>
      </g>
    </g>
  </g>
</svg>