<?xml version="1.0" encoding="UTF-8"?>
<svg id="_レイヤー_2" data-name="レイヤー 2" xmlns="http://www.w3.org/2000/svg" xmlns:xlink="http://www.w3.org/1999/xlink" viewBox="0 0 17.25 17.25">
  <defs>
    <style>
      .cls-1 {
        clip-path: url(#clippath);
      }

      .cls-2, .cls-3, .cls-4, .cls-5 {
        fill: none;
      }

      .cls-2, .cls-6, .cls-7 {
        stroke-width: 0px;
      }

      .cls-3 {
        stroke-width: .18px;
      }

      .cls-3, .cls-4, .cls-5 {
        stroke-miterlimit: 10;
      }

      .cls-3, .cls-5 {
        stroke: #8c6464;
      }

      .cls-4 {
        stroke: #fff;
      }

      .cls-4, .cls-5 {
        stroke-width: .39px;
      }

      .cls-6 {
        fill: #8c6464;
      }

      .cls-7 {
        fill: #fff;
      }
    </style>
    <clipPath id="clippath">
      <path class="cls-2" d="M10.87,11.31c.95-.8,1.64-1.92,1.88-3.23.55-3-1.44-5.88-4.44-6.44-3-.55-5.89,1.44-6.44,4.44s1.44,5.88,4.44,6.44c1.31.24,2.61,0,3.69-.61l1.02.55-.15-1.15Z"/>
    </clipPath>
  </defs>
  <g id="lay">
    <g>
      <path class="cls-7" d="M8.62,17.25c4.76,0,8.62-3.86,8.62-8.62S13.39,0,8.62,0,0,3.86,0,8.62s3.86,8.62,8.62,8.62"/>
      <g>
        <path class="cls-5" d="M5.77,9.15s-1.68-.8-1.54-2.07c.1-.94.95-1.39,1.68-1.61"/>
        <polygon class="cls-6" points="7.01 5.28 5.61 6.21 5.85 5.51 5.36 4.96 7.01 5.28"/>
      </g>
      <g class="cls-1">
        <path class="cls-6" d="M12.98,4.12s-5.38.86-7.36,3.63.93,5.44,1.24,5.81h6.12V4.12Z"/>
        <path class="cls-7" d="M6.04,8.84s-.59,1.23,1,2.26,2.93,1.2,2.93,1.2l-.92.48s-4.34-1.92-3.01-3.93Z"/>
        <path class="cls-7" d="M10.96,5.66s1.47-.63,1.74-.7v.35s-.74.03-1.74.35Z"/>
        <g>
          <path class="cls-4" d="M5.71,6.83s1.75-.62,2.55.38c.59.74.31,1.66-.06,2.33"/>
          <polygon class="cls-7" points="7.57 10.44 7.9 8.79 8.23 9.45 8.96 9.49 7.57 10.44"/>
        </g>
        <g>
          <path class="cls-4" d="M7.6,5.51s1.75-.62,2.55.38c.59.74.31,1.66-.06,2.33"/>
          <polygon class="cls-7" points="9.46 9.12 9.79 7.47 10.12 8.13 10.85 8.17 9.46 9.12"/>
        </g>
      </g>
      <g>
        <path class="cls-6" d="M9.26,13.74c.75.35,1.42.21,2.09-.07.52-.22,1.04-.4,1.57-.6.33-.12.68-.14,1.03-.12.53.03.72.39.45.85-.34.57-.86.93-1.46,1.15-1.46.55-2.85.08-3.68-1.21Z"/>
        <path class="cls-6" d="M11.5,13.45c-.62.29-1.2.46-1.83.31-.02,0-.04,0-.05,0-.2-.07-.4-.14-.42-.39-.01-.17.25-.35.49-.37.63-.05,1.2.16,1.81.45Z"/>
      </g>
      <path class="cls-3" d="M10.87,11.31c.95-.8,1.64-1.92,1.88-3.23.55-3-1.44-5.88-4.44-6.44-3-.55-5.89,1.44-6.44,4.44s1.44,5.88,4.44,6.44c1.31.24,2.61,0,3.69-.61l1.02.55-.15-1.15Z"/>
    </g>
  </g>
</svg>