<?xml version="1.0" encoding="UTF-8"?>
<svg id="_レイヤー_2" data-name="レイヤー 2" xmlns="http://www.w3.org/2000/svg" viewBox="0 0 17.25 17.25">
  <defs>
    <style>
      .cls-1 {
        fill: #8c6464;
      }

      .cls-1, .cls-2 {
        stroke-width: 0px;
      }

      .cls-2 {
        fill: #fff;
      }
    </style>
  </defs>
  <g id="lay">
    <g>
      <path class="cls-2" d="M8.62,17.25c4.76,0,8.62-3.86,8.62-8.62S13.39,0,8.62,0,0,3.86,0,8.62s3.86,8.62,8.62,8.62"/>
      <g>
        <path class="cls-1" d="M12.78,12.17c-1.2-.56-2.27-.33-3.34.12-.83.35-1.67.65-2.51.96-.53.2-1.09.22-1.64.19-.84-.05-1.16-.62-.73-1.35.54-.91,1.37-1.48,2.34-1.85,2.34-.88,4.57-.14,5.89,1.94Z"/>
        <path class="cls-1" d="M9.2,12.64c.99-.47,1.92-.73,2.93-.49.03,0,.06,0,.08.01.32.11.65.22.68.62.02.28-.4.55-.79.59-1.02.08-1.92-.26-2.9-.72Z"/>
      </g>
      <path class="cls-1" d="M2.69,9.9c-.61.13-.66.24-.31.75-.51-.35-.62-.3-.75.31-.13-.61-.24-.66-.75-.31.35-.51.3-.62-.31-.75.61-.13.66-.24.31-.75.51.35.62.3.75-.31.13.61.24.66.75.31-.35.51-.3.62.31.75Z"/>
      <path class="cls-1" d="M10.45,4.28c-.61.13-.66.24-.31.75-.51-.35-.62-.3-.75.31-.13-.61-.24-.66-.75-.31.35-.51.3-.62-.31-.75.61-.13.66-.24.31-.75.51.35.62.3.75-.31.13.61.24.66.75.31-.35.51-.3.62.31.75Z"/>
      <path class="cls-1" d="M16.1,6.06c-.61.13-.66.24-.31.75-.51-.35-.62-.3-.75.31-.13-.61-.24-.66-.75-.31.35-.51.3-.62-.31-.75.61-.13.66-.24.31-.75.51.35.62.3.75-.31.13.61.24.66.75.31-.35.51-.3.62.31.75Z"/>
      <polygon class="cls-1" points="14 7.07 11.42 9.47 11.6 9.65 14 7.07"/>
      <polygon class="cls-1" points="5.95 9.79 3.3 9.9 6.17 9.86 2.6 5.61 2.39 5.81 5.95 9.79"/>
      <polygon class="cls-1" points="8.67 8.22 9.24 5.78 8.72 8.6 6.14 4 6.59 3.83 8.67 8.22"/>
    </g>
  </g>
</svg>