<?xml version="1.0" encoding="UTF-8"?>
<svg id="_レイヤー_1" data-name=" レイヤー 1" xmlns="http://www.w3.org/2000/svg" viewBox="0 0 33.95 8.844">
  <g id="_レイヤー_2" data-name=" レイヤー 2">
    <g id="lay">
      <path d="M.904,7.271c.079.059.128.177.147.324h-.187c-.01-.069-.039-.128-.079-.177-.039-.049-.108-.069-.197-.069-.128,0-.216.059-.265.177-.039.079-.049.177-.049.295s.02.216.069.295c.049.079.128.118.226.118.079,0,.147-.02.187-.069.049-.049.079-.118.098-.197h.187c-.02.157-.079.265-.157.334-.088.069-.197.108-.334.108-.147,0-.275-.059-.364-.167s-.138-.246-.138-.413c0-.206.049-.364.147-.472s.226-.167.373-.167c.128,0,.236.029.314.098" style="fill: #fa64af;"/>
      <path d="M2.25,8.097c.049-.098.069-.206.069-.324,0-.108-.02-.197-.049-.265-.059-.108-.147-.157-.275-.157-.118,0-.206.049-.255.138-.049.088-.079.197-.079.324s.029.226.079.305c.049.079.138.118.255.118.128,0,.216-.049.265-.147M2.368,7.33c.098.098.157.246.157.442s-.049.344-.138.462c-.088.118-.226.187-.423.187-.157,0-.285-.049-.373-.157s-.138-.255-.138-.432c0-.197.049-.344.147-.462s.226-.177.393-.177c.147,0,.275.049.373.147" style="fill: #fa64af;"/>
      <rect x="3.046" y="6.78" width=".197" height="1.582" style="fill: #fa64af;"/>
      <path d="M4.54,8.097c.049-.098.069-.206.069-.324,0-.108-.02-.197-.049-.265-.059-.108-.147-.157-.275-.157-.118,0-.206.049-.255.138-.049.088-.079.197-.079.324s.029.226.079.305c.049.079.138.118.255.118.128,0,.216-.049.265-.147M4.658,7.33c.098.098.157.246.157.442s-.049.344-.138.462c-.088.118-.226.187-.423.187-.157,0-.285-.049-.373-.157-.088-.108-.138-.255-.138-.432,0-.197.049-.344.147-.462s.226-.177.393-.177c.147,0,.275.049.373.147" style="fill: #fa64af;"/>
      <path d="M5.336,7.213h.187v.197s.049-.088.108-.138c.059-.059.128-.079.206-.079h.059v.206h-.059c-.098,0-.177.029-.226.098-.049.059-.079.138-.079.216v.668h-.197v-1.169Z" style="fill: #fa64af;"/>
      <path d="M7.979,7.213h.216c-.029.079-.088.246-.187.511-.069.197-.128.364-.177.481-.108.295-.187.472-.236.54-.049.069-.128.098-.236.098h-.059c-.02,0-.029,0-.059-.01v-.177s.059.02.069.02h.039c.039,0,.059,0,.079-.02.02-.01.029-.029.039-.039,0,0,.02-.039.039-.088s.039-.088.049-.118l-.423-1.189h.216l.305.943.314-.943.01-.01Z" style="fill: #fa64af;"/>
      <path d="M9.355,8.097c.049-.098.069-.206.069-.324,0-.108-.02-.197-.049-.265-.059-.108-.147-.157-.275-.157-.118,0-.206.049-.255.138-.049.088-.079.197-.079.324s.029.226.079.305c.049.079.138.118.255.118.128,0,.216-.049.265-.147M9.482,7.33c.098.098.157.246.157.442s-.049.344-.138.462-.226.187-.423.187c-.157,0-.285-.049-.373-.157s-.138-.255-.138-.432c0-.197.049-.344.147-.462.098-.118.226-.177.393-.177.147,0,.275.049.373.147" style="fill: #fa64af;"/>
      <path d="M10.347,7.213v.766c0,.059,0,.108.029.147.029.069.098.108.187.108.128,0,.226-.059.265-.177.029-.069.039-.157.039-.265v-.57h.197v1.16h-.187v-.167s-.049.079-.088.108c-.069.059-.157.088-.265.088-.157,0-.275-.059-.334-.167-.029-.059-.049-.138-.049-.236v-.786h.197l.01-.01Z" style="fill: #fa64af;"/>
      <path d="M11.674,7.213h.187v.197s.049-.088.108-.138c.059-.059.128-.079.206-.079h.059v.206h-.059c-.098,0-.177.029-.226.098-.049.059-.079.138-.079.216v.668h-.197v-1.169Z" style="fill: #fa64af;"/>
      <path d="M12.804,7.999c0,.069.02.118.049.147.049.059.138.098.255.098.069,0,.138-.02.197-.049.059-.029.088-.079.088-.147,0-.049-.02-.088-.069-.118-.029-.02-.088-.029-.167-.059l-.157-.039c-.098-.02-.177-.049-.226-.079-.088-.049-.128-.128-.128-.216,0-.108.039-.197.118-.265s.187-.098.324-.098c.177,0,.305.049.383.157.049.069.069.138.069.206h-.187s-.02-.079-.049-.118c-.049-.049-.128-.079-.236-.079-.079,0-.128.01-.167.039-.039.029-.059.069-.059.108,0,.049.029.088.079.118.029.02.069.029.128.049l.128.029c.138.029.236.069.285.098.079.049.118.128.118.236s-.039.197-.118.265c-.079.079-.197.108-.364.108-.177,0-.295-.039-.373-.118-.069-.079-.108-.177-.118-.285h.187l.01.01Z" style="fill: #fa64af;"/>
      <path d="M14.857,7.694c0-.088-.029-.147-.059-.206-.049-.088-.138-.138-.265-.138-.088,0-.167.029-.226.098-.059.069-.088.147-.098.246h.649ZM14.789,7.242c.079.039.138.088.177.147s.069.128.079.206c.01.049.02.138.02.255h-.845c0,.118.029.216.079.285s.128.108.236.108c.098,0,.177-.029.236-.098.029-.039.059-.088.069-.138h.187s-.02.088-.049.138-.059.098-.098.128c-.059.059-.128.098-.216.118-.049.01-.098.02-.157.02-.147,0-.265-.049-.364-.157-.098-.108-.147-.255-.147-.442s.049-.334.147-.452c.098-.118.226-.177.393-.177.079,0,.157.02.236.059" style="fill: #fa64af;"/>
      <rect x="15.594" y="6.78" width=".197" height="1.582" style="fill: #fa64af;"/>
      <path d="M16.459,6.859c.049-.069.138-.098.265-.098h.079v.177h-.069c-.059,0-.098.02-.108.049s-.02.108-.02.236h.197v.157h-.197v.992h-.197v-.992h-.157v-.157h.157v-.177c0-.079.02-.138.039-.177" style="fill: #fa64af;"/>
      <path d="M18.198,6.888h.197v.324h.187v.157h-.187v.757s.01.069.039.079c.02,0,.039.01.079.01h.069v.157s-.049.01-.069.01h-.079c-.088,0-.147-.02-.187-.069-.029-.049-.049-.108-.049-.177v-.766h-.157v-.157h.157s0-.324,0-.324Z" style="fill: #fa64af;"/>
      <path d="M19.78,8.097c.049-.098.069-.206.069-.324,0-.108-.02-.197-.049-.265-.059-.108-.147-.157-.275-.157-.118,0-.206.049-.255.138-.049.088-.079.197-.079.324s.029.226.079.305c.049.079.138.118.255.118.128,0,.216-.049.265-.147M19.898,7.33c.098.098.157.246.157.442s-.049.344-.138.462-.226.187-.423.187c-.157,0-.285-.049-.373-.157-.088-.108-.138-.255-.138-.432,0-.197.049-.344.147-.462s.226-.177.393-.177c.147,0,.275.049.373.147" style="fill: #fa64af;"/>
      <path d="M22.198,7.213h.216c-.029.079-.088.246-.187.511-.069.197-.128.364-.177.481-.108.295-.187.472-.236.54-.049.069-.128.098-.236.098h-.059c-.02,0-.029,0-.059-.01v-.177s.059.02.069.02h.039c.039,0,.059,0,.079-.02.02-.01.029-.029.039-.039,0,0,.02-.039.039-.088s.039-.088.049-.118l-.423-1.189h.216l.305.943.314-.943.01-.01Z" style="fill: #fa64af;"/>
      <path d="M23.583,8.097c.049-.098.069-.206.069-.324,0-.108-.02-.197-.049-.265-.049-.108-.147-.157-.275-.157-.118,0-.206.049-.255.138-.049.088-.079.197-.079.324s.029.226.079.305c.049.079.138.118.255.118.128,0,.216-.049.265-.147M23.701,7.33c.098.098.157.246.157.442s-.049.344-.138.462-.226.187-.423.187c-.157,0-.285-.049-.373-.157-.088-.108-.138-.255-.138-.432,0-.197.049-.344.147-.462s.226-.177.393-.177c.147,0,.275.049.373.147" style="fill: #fa64af;"/>
      <path d="M24.576,7.213v.766c0,.059,0,.108.029.147.029.069.098.108.187.108.128,0,.226-.059.265-.177.029-.069.039-.157.039-.265v-.57h.197v1.16h-.187v-.167s-.049.079-.088.108c-.069.059-.157.088-.265.088-.157,0-.275-.059-.334-.167-.029-.059-.049-.138-.049-.236v-.786h.197l.01-.01Z" style="fill: #fa64af;"/>
      <path d="M25.892,7.213h.187v.197s.049-.088.108-.138c.059-.059.128-.079.206-.079h.069v.206h-.059c-.098,0-.177.029-.226.098-.049.059-.079.138-.079.216v.668h-.197v-1.16l-.01-.01Z" style="fill: #fa64af;"/>
      <path d="M27.809,7.213h.197v.167c.049-.059.088-.098.128-.128.069-.039.138-.069.216-.069.088,0,.167.02.226.069.029.029.059.069.088.118.039-.059.098-.108.147-.138.059-.029.128-.049.197-.049.157,0,.265.059.314.167.029.059.049.138.049.246v.766h-.206v-.806c0-.079-.02-.128-.059-.157-.039-.029-.088-.039-.138-.039-.079,0-.138.029-.197.079-.059.049-.079.138-.079.255v.668h-.197v-.757c0-.079,0-.138-.029-.167-.029-.049-.088-.079-.167-.079-.069,0-.138.029-.197.088-.059.059-.088.157-.088.305v.609h-.197v-1.16l-.01.01Z" style="fill: #fa64af;"/>
      <path d="M30.648,8.097c.049-.098.069-.206.069-.324,0-.108-.02-.197-.049-.265-.059-.108-.147-.157-.275-.157-.118,0-.206.049-.255.138-.049.088-.079.197-.079.324s.029.226.079.305c.049.079.138.118.255.118.128,0,.216-.049.265-.147M30.766,7.33c.098.098.157.246.157.442s-.049.344-.138.462-.226.187-.423.187c-.157,0-.285-.049-.373-.157-.088-.108-.138-.255-.138-.432,0-.197.049-.344.147-.462s.226-.177.393-.177c.147,0,.275.049.373.147" style="fill: #fa64af;"/>
      <path d="M32.162,8.097c.049-.098.069-.206.069-.324,0-.108-.02-.197-.049-.265-.059-.108-.147-.157-.275-.157-.118,0-.206.049-.255.138-.049.088-.079.197-.079.324s.029.226.079.305c.049.079.138.118.255.118.128,0,.216-.049.265-.147M32.28,7.33c.098.098.157.246.157.442s-.049.344-.138.462-.226.187-.423.187c-.157,0-.285-.049-.373-.157s-.138-.255-.138-.432c0-.197.049-.344.147-.462.098-.118.226-.177.393-.177.147,0,.275.049.373.147" style="fill: #fa64af;"/>
      <path d="M33.164,8.117c.049.079.138.128.255.128.088,0,.167-.039.216-.118.059-.079.088-.187.088-.334s-.029-.255-.088-.324c-.059-.069-.138-.108-.216-.108-.098,0-.177.039-.236.108-.059.079-.088.187-.088.334,0,.128.029.226.079.314M33.596,7.242s.069.059.118.118v-.58h.187v1.592h-.177v-.157c-.049.069-.098.118-.157.157-.059.029-.128.049-.216.049-.128,0-.236-.049-.334-.167-.098-.108-.138-.255-.138-.432,0-.167.039-.314.128-.442.088-.128.206-.187.364-.187.088,0,.157.02.226.059" style="fill: #fa64af;"/>
      <path d="M30.629,4.726h-.57c-.118.01-.138-.069-.138-.098v-2.329h0V.039h-1.543c-.069,0-.079.029-.079.059,0,.02,0,.049.088.049h.54s.059.069.059.088v4.392s-.02.098-.049.098h-.57s-.079,0-.079.049.029.059.069.059h2.27s.069.01.069-.059c0-.059-.049-.049-.069-.049" style="fill: #fa64af;"/>
      <path d="M33.881,4.726h-.472s-.039-.049-.049-.069l-2.191-2.899s-.01-.049,0-.059l1.464-1.327c.118-.108.275-.226.442-.226h.403s.079-.02.079-.059c0-.029-.02-.049-.079-.049h-2.005s-.079,0-.079.049.029.059.079.059h.973s.049.059.059.079c0,0,0,.029-.01.049l-1.995,1.749s-.02.01-.039.029c-.039.059-.079.157,0,.334h0l1.67,2.211c.01.01.01.029,0,.049,0,.01-.02.069-.049.069h-.727s-.079,0-.079.049.029.049.079.049h2.516s.079,0,.079-.049-.029-.049-.079-.049" style="fill: #fa64af;"/>
      <path d="M.079,4.726h.501c.088,0,.118-.088.118-.167V.432c0-.128.049-.295-.216-.285H.098S.02.147.02.098C.02.069.039.049.049.049h1.847c.069,0,.128.049.147.108l1.248,2.575c.029.059.069.039.098-.02L4.658.157l.029-.02h.059s.02.01.029.01.029.02.039.039h0v.029l-1.788,3.665s-.029.079-.098.079-.088-.039-.108-.079L1.101.324s-.177-.079-.206.01v4.225c0,.079.069.167.157.167h.619s.079.01.079.059-.029.049-.079.049H.079s-.079,0-.079-.049.039-.059.079-.059" style="fill: #fa64af;"/>
      <path d="M4.442,4.726h.511c.088,0,.147-.079.147-.157V.383c0-.118.039-.187.079-.226,0,0,.079-.088.216-.098h1.327c.049,0,.088,0,.088.049,0,.039-.029.049-.079.049h-.354c-.354,0-.364.147-.364.275v4.147c0,.079,0,.157.088.157h.678c.049,0,.079.02.079.059s-.029.049-.079.049h-2.339c-.049,0-.069,0-.069-.049s.029-.059.079-.059" style="fill: #fa64af;"/>
      <path d="M23.662,1.287l.894,2.339.383.992v.039c-.01.02-.029.059-.049.059h-.884s-.079,0-.079.049.029.049.069.049h2.633s.079-.01.079-.059-.039-.049-.079-.049h-.619s-.049-.049-.049-.069L24.183.098s-.039-.098-.098-.098-.088.049-.108.098l-.334.855c-.039.088-.039.187,0,.285h0" style="fill: #fa64af;"/>
      <path d="M21.598,4.835c-.079,0-.098-.01-.098-.049,0-.069.049-.059.108-.059h.481s.02-.049.02-.069l1.14-2.909c.029-.049.069-.069.088-.069s.029,0,.049.01c.02.02.049.049.039.098l-.02.049-.629,1.592h1.189c.069.02.098.059.108.088v.079c-.02.029-.039.029-.088.039h-1.268s-.02.01-.02.02l-.383,1.002h0s.01.059.02.059h.599c.079,0,.088,0,.079.059,0,.029-.01.049-.098.049h-1.317v.01Z" style="fill: #fa64af;"/>
      <path d="M15.702.039s-.079,0-.079.049.029.049.079.049h.481c.049,0,.088.079.088.128v4.324s-.039.128-.088.128h-.501c-.049,0-.069.01-.069.049s.029.059.069.059h3.94c.049,0,.098-.039.108-.098v-1.317s0-.069-.069-.069c-.039,0-.069.039-.069.069-.138.943-.599,1.297-1.69,1.297h-.59c-.049,0-.088-.049-.088-.098V.039h-1.533.01Z" style="fill: #fa64af;"/>
      <path d="M11.428.167h-.029c-.049,0-.069.029-.069.049,0,.029.01.049.039.069h0l.029.01h0c.216.039.393.118.531.226.383.324.462.973.462,1.975s-.079,1.641-.462,1.955c-.177.138-.334.216-.531.255h-.01c-.059.029-.059.069-.049.069,0,.01.01.049.069.049h.039c1.218-.167,2.064-1.12,2.064-2.329S12.617.354,11.428.167" style="fill: #fa64af;"/>
      <path d="M10.789,4.736h0s-.079-.029-.118-.039c-.167-.039-.314-.118-.472-.246-.383-.314-.462-.983-.462-1.955s.079-1.651.462-1.975c.029-.029.059-.049.108-.079.01,0,.029-.02.049-.029.02,0,.029-.02.049-.029,0,0,.02,0,.029-.01.02,0,.039-.02.059-.02s.039-.01.059-.02h0l.039-.01c.049-.01.088-.02.138-.029h.029c.039-.02.049-.049.049-.069s-.02-.039-.059-.049h-.039c-1.199.177-2.064,1.15-2.064,2.329s.845,2.162,2.054,2.329h.029s.059-.029.069-.049c0-.02,0-.029-.02-.049" style="fill: #fa64af;"/>
    </g>
  </g>
</svg>