<?xml version="1.0" encoding="UTF-8"?>
<svg id="_レイヤー_2" data-name="レイヤー 2" xmlns="http://www.w3.org/2000/svg" xmlns:xlink="http://www.w3.org/1999/xlink" viewBox="0 0 20.42 63.84">
  <defs>
    <style>
      .cls-1 {
        fill: #fff;
        stroke-width: 0px;
      }
    </style>
    <image id="image" width="500" height="500" xlink:href="../Links/02_023.png"/>
  </defs>
  <g id="lay">
    <g>
      <g>
        <path class="cls-1" d="M7.32,3.71l1.82-.43c-.05-.73-.33-1.57-.97-2.33l-.57-.16c-.55-.16-.67.02-.91.34V0c.24.32.37.53.91.68l5.73,1.62.6-.14h.11v.49l-6.72,1.6c-.26.06-.39.24-.63.46v-1.13c.24.22.37.2.63.14ZM13.09,2.36l-4.69-1.34c.56.68.79,1.53.83,2.25l3.86-.91Z"/>
        <path class="cls-1" d="M6.62,4.9h6.79c.34,0,.44-.09.44-.2,0-.09-.08-.21-.15-.3h.11c.24.22.62.57.62.79,0,.16-.17.21-.65.21h-3.37c.87.17,1.92.47,1.92,1.28,0,1-1.6,1.34-2.86,1.34s-2.86-.18-2.86-1.42c0-.7.46-1.01.85-1.21l-.85-.4v-.09ZM7.7,5.4c-.4.19-.93.54-.93,1,0,.83,1.7,1.1,2.71,1.1s2.69-.36,2.69-1.02c0-.6-1.38-.91-2.28-1.08h-2.18Z"/>
        <path class="cls-1" d="M12.33,10.91c0,1.55-1.09,2.64-2.86,2.64s-2.86-1.1-2.86-2.64,1.09-2.64,2.86-2.64,2.86,1.1,2.86,2.64ZM6.75,10.91c0,1.25,1.05,2.13,2.73,2.13s2.73-.88,2.73-2.13-1.05-2.13-2.73-2.13-2.73.88-2.73,2.13Z"/>
        <path class="cls-1" d="M11.63,16.85h-4.3c-.26,0-.39.08-.63.3v-.8h1.73c-.78-.23-1.81-.63-1.81-1.44,0-.52.43-.98,1.52-.98h3.49c.26,0,.39-.08.63-.3v1.1c-.24-.22-.37-.3-.63-.3h-2.96c-.9,0-1.9.07-1.9.63,0,.59,1.11,1.06,1.89,1.29h2.97c.26,0,.39-.08.63-.3v1.1c-.24-.22-.37-.3-.63-.3Z"/>
        <path class="cls-1" d="M13.6,17.98v.1h-1.34v.7h-.12v-.7h-3.07c-.24,1.61-2.46,1.91-2.46.5,0-.24.06-1,1.27-1h4.25v-.5h.12c0,.52.92.9,1.34.9ZM8.1,18.08c-1.18,0-1.34.32-1.34.62,0,1.03,1.97.92,2.25-.62h-.9Z"/>
        <path class="cls-1" d="M14.04,23.49c-.24-.22-.37-.4-.63-.4h-6.57v.64c0,.82,1.3,1.13,1.99,1.3v.1l-2.14-.2v-2.65c.24.22.37.3.63.3h6.09c.26,0,.39-.08.63-.3v1.22Z"/>
        <path class="cls-1" d="M10.37,28.76c-.21.88-.77,1.57-1.74,1.57-1.12,0-2-.88-2-2.25,0-1.55,1.09-2.78,2.86-2.78s2.86,1.2,2.86,2.64c0,1.15-.74,2-1.96,2.33v-1.52ZM10.37,25.92c-.27-.07-.57-.1-.89-.1-1.68,0-2.72,1.02-2.72,2.35,0,1.1.71,2.06,1.86,2.06,1.06,0,1.61-.83,1.75-1.85v-2.46ZM10.48,29.74c1.08-.3,1.72-.94,1.72-1.8s-.64-1.7-1.72-2v3.79Z"/>
        <path class="cls-1" d="M7.32,30.78h3.99c.34,0,.44-.09.44-.2,0-.09-.08-.21-.15-.3h.11c.24.22.62.57.62.79,0,.16-.17.21-.65.21h-1.15c.78.23,1.81.63,1.81,1.44,0,.52-.43.98-1.52.98h-3.49c-.26,0-.39.08-.63.3v-1.1c.24.22.37.3.63.3h2.96c.9,0,1.9-.07,1.9-.63,0-.59-1.11-1.06-1.89-1.29h-2.97c-.26,0-.39.08-.63.3v-1.1c.24.22.37.3.63.3Z"/>
        <path class="cls-1" d="M11.69,36.99l-1.34.1v-.1c.9-.21,1.86-.58,1.86-1.3,0-.5-.47-.82-1.01-.82-1.43,0-1.68,2.46-3.31,2.46-.85,0-1.27-.67-1.27-1.51,0-.99.51-1.42.64-1.56l1.45-.2v.1c-.9.31-1.96.95-1.96,1.73,0,.52.47.93,1.06.93,1.38,0,1.63-2.46,3.3-2.46.81,0,1.23.57,1.23,1.31,0,.84-.51,1.17-.64,1.31Z"/>
        <path class="cls-1" d="M7.32,40.53h6.09c.26,0,.39-.08.63-.3v1.82c0,2.29-1.25,3.85-3.67,3.85s-3.67-1.57-3.67-3.85v-1.82c.24.22.37.3.63.3ZM6.84,41.84c0,2.1,1.22,3.54,3.53,3.54s3.53-1.45,3.53-3.54v-.79h-7.05v.79Z"/>
        <path class="cls-1" d="M10.37,49.62c-.21.88-.77,1.57-1.74,1.57-1.12,0-2-.88-2-2.25,0-1.55,1.09-2.78,2.86-2.78s2.86,1.2,2.86,2.64c0,1.15-.74,2-1.96,2.33v-1.52ZM10.37,46.77c-.27-.07-.57-.1-.89-.1-1.68,0-2.72,1.02-2.72,2.35,0,1.1.71,2.06,1.86,2.06,1.06,0,1.61-.83,1.75-1.85v-2.46ZM10.48,50.6c1.08-.3,1.72-.94,1.72-1.8s-.64-1.7-1.72-2v3.79Z"/>
        <path class="cls-1" d="M11.69,54.26l-1.34.1v-.1c.9-.21,1.86-.58,1.86-1.3,0-.5-.47-.82-1.01-.82-1.43,0-1.68,2.46-3.31,2.46-.85,0-1.27-.67-1.27-1.51,0-.99.51-1.42.64-1.56l1.45-.2v.1c-.9.31-1.96.95-1.96,1.73,0,.52.47.93,1.06.93,1.38,0,1.63-2.46,3.3-2.46.81,0,1.23.57,1.23,1.31,0,.84-.51,1.17-.64,1.31Z"/>
        <path class="cls-1" d="M7.32,55.38h3.99c.34,0,.44-.09.44-.2,0-.09-.08-.21-.15-.3h.11c.24.22.62.57.62.79,0,.16-.17.21-.65.21h-4.36c-.26,0-.39.08-.63.3v-1.1c.24.22.37.3.63.3ZM14.12,55.53c0,.26-.17.42-.44.42s-.44-.16-.44-.42.17-.42.44-.42.44.16.44.42Z"/>
        <path class="cls-1" d="M8.49,57.37c-.08-.16-.3-.29-.5-.29-.99,0-.12,3.07-1.89,3.07-1.04,0-1.36-1.03-1.36-1.89,0-.73.23-1.96,1.31-1.96.54,0,.9.32,1.1.77.16-.19.39-.29.64-.29.37,0,.59.2.75.5.37-.59,1.11-.8,1.79-.8,1.1,0,2.01.52,2.01,1.66,0,.46-.15.9-.53,1.21l.77.7v.1h-.47l-.37-.74c-.4.29-.91.39-1.41.39-1.1,0-2.02-.51-2.02-1.66,0-.27.04-.54.18-.78ZM6.11,56.82c-.88,0-1.25.79-1.25,1.43,0,.56.28,1.68.99,1.68.88,0,.86-2.09,1.21-2.7-.24-.24-.59-.4-.94-.4ZM10.33,59.28c.76,0,1.9-.22,1.9-1.14s-1.14-1.14-1.9-1.14-1.89.22-1.89,1.14,1.13,1.14,1.89,1.14Z"/>
        <path class="cls-1" d="M7.32,60.63h3.99c.34,0,.44-.09.44-.2,0-.09-.08-.21-.15-.3h.11c.24.22.62.57.62.79,0,.16-.17.21-.65.21h-1.15c.78.23,1.81.63,1.81,1.44,0,.52-.43.98-1.52.98h-3.49c-.26,0-.39.08-.63.3v-1.1c.24.22.37.3.63.3h2.96c.9,0,1.9-.07,1.9-.63,0-.59-1.11-1.06-1.89-1.29h-2.97c-.26,0-.39.08-.63.3v-1.1c.24.22.37.3.63.3Z"/>
      </g>
      <use transform="translate(11.93 2.74) rotate(45) scale(.02)" xlink:href="#image"/>
      <use transform="translate(6.74 33.85) rotate(45) scale(.02)" xlink:href="#image"/>
      <use transform="translate(13.68 48.73) rotate(45) scale(.02)" xlink:href="#image"/>
    </g>
  </g>
</svg>