<?xml version="1.0" encoding="UTF-8"?><svg id="_レイヤー_1" xmlns="http://www.w3.org/2000/svg" viewBox="0 0 41.5299988 6.843959"><path d="M20.7653267,6.7407697c-.0059832,0-.0132051-.0020784-.0178238-.0058993-.0056054-.0046186-.1379084-.1139545-.1895952-.1764321-.0557596-.0676631-.1101756-.1422541-.1101756-.244704,0-.0930866.0732055-.1688113.163164-.1688113.0641781,0,.1201896.0298112.1537797.0790837.0337581-.0492725.0902524-.0790837.1551024-.0790837.0911132,0,.1624712.0741502.1624712.1688113,0,.1024498-.054416.1770409-.1101546.244683-.0517708.0625406-.1847666.1718764-.190414.1764951-.0045976.0037789-.0103919.0058573-.0163542.0058573Z" style="fill:#e83f66;"/><rect y="6.415168" width="19.0360575" height=".0553733" style="fill:#71423f;"/><rect x="22.4939143" y="6.415168" width="19.0360845" height=".0553733" style="fill:#71423f;"/><path d="M16.6312099,5.7083926h-.0108306c-.1054667,0-.2045649-.0399151-.2796491-.1082251-.0414971-.0074638-.139784-.0202009-.3482431-.0272591-.2019283-.0068959-.5223849-.0138729-.9795833-.0214179-.0792218.0000811-.2130834.0052733-.3909571.0155766l-.2372596.0111146c-.1149182.0045432-.2240357-.0361832-.306097-.1145531-.0821018-.0783699-.1285477-.1869195-.1285477-.300418v-.0107901c0-.191625.1311033-.3584247.3173332-.4036131.0004868-.0001623.000933-.0002434.0013792-.0004056.0146031-.0382925.0382114-.1285883.0382114-.3151833l.005395-3.3040298c0-.1306165-.0118853-.2095543-.0218641-.2528768-.0045837-.0199576-.0099788-.0347229-.0147653-.0444583-.0011358-.0003245-.0023527-.0005679-.0036913-.0008924-.188461-.0434848-.3219981-.2113391-.3219981-.4047489v-.0107901c0-.1127277.0458375-.2206283.1269252-.2989171S14.2663615-.0039298,14.380225.0002889l.3028113.0108306c.2083374.0106684.3521778.0159417.4340362.0159417.0637263,0,.1579973-.0049894.280217-.014887.0049894-.0004056.0100193-.0006896.0150087-.000933l.2433442-.0107901c.1148371-.0048677.2236706.0365077.3055696.1148371s.1282232.1867573.1282232.300134v.0107901c0,.191625-.1311033.3584247-.3173332.4036131-.0042187.0005679-.0612113.0636046-.0612113.3210246v3.5521201c.10786-.0057601.1954786-.0264478.2557569-.0606028.0804792-.0456752.1601878-.1261545.2367728-.2393284.0932569-.1375935.1857026-.3329504.274822-.5808784.0593048-.1648526.2156795-.2747814.390876-.2747814h.0162257c.1336183,0,.2590831.0642536.3371285.1727221.078086.1084685.0991793.2478469.0567492.3745692-.0163473.0487581-.0554917.1944645-.1340645.6218482-.0820612.4462866-.0971511.5743881-.0998283.6087865-.0168341.2162068-.1972228.3830877-.4141192.3830877ZM16.2414292,5.4631419c.0000811.0000811.0001217.0002434.0001623.0003245-.0000406-.0000811-.0000811-.0002434-.0001623-.0003245Z" style="fill:#ffdde2;"/><path d="M16.862101,5.5785874c-.1066837,0-.2095138-.0410509-.2869912-.115121-.0819801-.0783699-.1283855-.1868384-.1283855-.3002557v-.0107901c0-.1921117.1317117-.3590737.318469-.4039376.0088024-.0021093.0161851-.0041375.0222697-.0060035.0066525-.0234461.0215396-.0944333.0215396-.260584l-.0107901-2.1609325c0-.0245007-.0008924-.0446205-.0021905-.0608462-.2039159-.027178-.3601284-.2016849-.3601284-.411726v-.0107901c0-.1830254.1198265-.3445518.2950229-.3975285.0298552-.0090864.0615764-.0193085.0950418-.0306665-.0956097-.1030329-.2007925-.2783511-.2007925-.5506176,0-.2896279.1190963-.4695704.2190058-.5694799.0998283-.0998689.2797303-.2190058.5694799-.2190058.289709,0,.469611.1190963.5695204.2190058s.2190058.279852.2190058.5694799c0,.1955191-.0542342.3410632-.1202321.4457187.0417405.0647404.0656733.1414066.0661195.2225348l.0162257,2.9525822c0,.1964115.0296118.2583935.0299363.2589614.0000406.0005679.0105467.0070582.0365888.0144408.1782794.0510297.3011887.2139352.3011887.3993945v.0107901c0,.1130928-.0461214.2213179-.1276959.2996067-.0815745.0783699-.1901241.1207189-.3045961.1154455l-.2649649-.0107901c-.0040158-.0001623-.0080723-.0004056-.0121287-.0007302-.1794557-.0124938-.2714552-.015171-.3170087-.015171-.0855092,0-.2134079.0051922-.3801265.0154144l-.2445612.0111957c-.0062874.0002434-.0125749.0004056-.0188218.0004056ZM16.7789039,4.7664935h0ZM16.8112741,4.733312h0ZM17.4366514.9026786h0ZM17.3957627.8767987c.0060441.0060035.0122098.0108712.0178888.0146031.0057195-.003813.0119664-.0086807.018051-.0147653.0060035-.0060035.0108306-.0121692.0145625-.0177671-.0037725-.0057601-.0085996-.0119259-.0146437-.0179293l-.0358587.0358587ZM17.3810785.8588693c.0037725.005679.008559.0117636.0146031.0178482l.0358587-.0359398c-.0060441-.0060035-.0122098-.0107901-.0178888-.0146031-.0056384.003813-.0117636.0085996-.0177265.014522-.0061657.0061657-.0110334.0124126-.0148465.0181727ZM17.3906111.8148978h0Z" style="fill:#ffdde2;"/><path d="M20.8652942,5.5785874c-.0065714,0-.0131022-.0001623-.0197142-.0004868l-.2271186-.0107901c-.1753588-.0105467-.3033792-.0157389-.385846-.0157389-.0849007,0-.2047272.0051111-.3561531.0153332-.0028395.0001623-.005679.0003245-.0085185.0004056l-.2325136.0107901c-.0320862.0017037-.0639291-.0007302-.0950012-.0064903-.030342.005679-.0613735.0081128-.0929324.0066525l-.2595699-.0107901c-.0031234-.0001623-.0062469-.0003245-.0093703-.0005679-.1977907-.012656-.2975785-.0153332-.3464988-.0153332-.0849007,0-.2047272.0051111-.3561531.0153332l-.2351908.0111957c-.113823.0058412-.224198-.0359398-.3063809-.1143097s-.12871-.1870007-.12871-.3005802v-.0107901c0-.1921117.1317117-.3591548.3185096-.4039376.0073015-.0017037.013589-.0034074.018984-.00503.0071799-.0315589.0194302-.108144.0194302-.2615575v-2.1630419c0-.0257988-.0010141-.0470544-.0025555-.0644158-.0824669-.011358-.1605528-.0471355-.2231839-.1040064-.0866856-.0787755-.1365794-.190408-.1365794-.3074761v-.0107901c0-.1817273.1181633-.3423613.2916156-.396555.1035602-.0322891.2291062-.0795057.3732306-.1402708.1429886-.0602783.2504835-.111308.3196859-.1517099.0822235-.0480279.1785633-.0661195.2725504-.0519221l.0702976.0107901c.0830348.0127371.1573077.0496505.216004.1028706.1387293-.0702571.2899119-.1130117.4515599-.1275336.3941617-.03667.6502836.1117948.7957872.2421679.2136919.1917061.3219981.4767908.3219981.8474659v2.3144272c0,.1658262.0193491.2360021.0264073.2560408.0050705.0029206.0162662.0085185.0370351.0142786.1798208.0498939.3042716.2136107.3042716.4002057v.0107901c0,.1135796-.0465271.2222103-.12871.3005802-.0774369.0738267-.1801859.1147965-.2866667.1147965ZM19.5027044,2.1772848l.0151304,2.3018523c0,.160634.0147653.232757.0220669.258718.0073827-.0374001.0177671-.1150399.0177671-.2559597v-2.1684775c0-.065146-.0072204-.1204755-.0210933-.1633112-.0099382.0072204-.021215.0161445-.0338711.027178ZM19.5715012,4.7346912h0ZM18.1701726,4.733312h0Z" style="fill:#ffdde2;"/><path d="M21.8510838,5.6327c-.294739,0-.5566616-.0825886-.7785069-.2454941-.0000406-.0000811-.0001217-.0000811-.0001623-.0001623-.2168964-.159417-.3821547-.3951758-.4912317-.7007048-.0981246-.2747003-.1458686-.6033509-.1458686-1.0047736,0-.4121316.0545993-.810228.1623377-1.1832558.1150804-.3987454.294455-.7308846.5330938-.9870876.2716986-.2917373.6199011-.4459621,1.0069641-.4459621.2885732,0,.5382861.1337805.7032198.3768408.1354842.1993322.2041998.4452319.2041998.7307223,0,.1517099-.0213367.306746-.06328.4608086-.039834.146112-.0976784.2846791-.1720731.4122127-.0725287.1598227-.1461931.2755116-.2306477.3625622-.1101722.1135796-.2482525.1898401-.3992322.2205066-.0958125.0195519-.2231027.0311533-.3887667.0352097-.0034074.0000811-.0068959.0001623-.0103033.0001623h-.0076261c.0154144.1551984.0381303.3041499.0679044.4450697.0432414.20493.1017348.3647527.173939.4753305.0137918.0210933.0248252.0344795.0324513.0425923.0263667-.0039753.053139-.0162257.0871318-.0481091.0339116-.0318834.0993821-.1141475.156253-.3069082.0348852-.1180416.1203943-.2146654.233406-.2635857s.2419245-.0451884.3518533.0102222l.0215801.0108712c.1742635.0877808.2639103.2850036.2155578.4740325-.0586557.2291874-.1426235.4261668-.2494694.5853405-.1192586.177752-.2670743.3142909-.4393096.4058036-.1721542.0914316-.3650772.1377558-.5734146.1377558ZM21.8010277,2.4569339c-.0032451.0197142-.0064091.0397529-.0094109.0601972-.0135484.0924051-.0240951.1848102-.0314778.2768908.0172803-.0004868.0330192-.0011358.0472167-.0017848.0008924-.0236895.0014603-.0515976.0014603-.0840489,0-.0852658-.0025961-.1692336-.0077883-.2512542Z" style="fill:#ffdde2;"/><path d="M23.584227,5.6327c-.3078006,0-.5695204-.1139041-.7569267-.3293808-.1752371-.2016037-.2640725-.4797926-.2640725-.8268593v-2.2117188c0-.0642536-.0014603-.1132551-.0033263-.1500062-.1921117-.0392661-.3319769-.2085808-.3319769-.4069394v-.0162257c0-.1990888.1413254-.3701883.3368446-.4079129l.8447887-.1624999c.0700948-.0129805.1419745-.008194.2092298.0142786l.0162257.0054356c.0972728.0326136.1763729.0988142.2260234.1831065.0315589-.0154955.0654705-.0270968.1012481-.0342361.1142286-.0228782.2497939-.0471355.4031264-.0720419l.4454753-.0857526c.0887543-.0166313.1804293-.0038942.261233.0361832l.0107901.0053545c.1413254.0700948.2307288.2142598.2307288.3720542v2.8605827c0,.1758861.0143597.2603406.0229593.2949824.0051922.02085.010141.0331003.0128183.0390227.0077883.0060846.0277459.0199576.067661.0374813.0061657.0027584.0123315.0055979.0184161.0086807l.0108712.0054356c.177752.0888355.2676422.2912505.214422.4827132-.0533013.1915438-.2339739.3189963-.4328193.3028518-.2560408-.0201198-.5279828-.0180105-.7484894-.0048677-.008194.0004868-.016469.0007302-.024663.0007302h-.048677c-.1040064,0-.1995755-.0383737-.2727532-.1020594-.1706939.1073327-.3549362.1616075-.5491572.1616075ZM25.3516063,4.7444266h0ZM23.9184754,2.1092993v2.2265653c0,.071474.0039753.1248564.0090052.1635546.0092486-.0087619.0195519-.0186595.0308287-.0299363v-2.1993062c0-.0649837-.0014603-.1143097-.0034074-.151142-.0123315-.0027584-.0245007-.0060035-.0364266-.0097354Z" style="fill:#ffdde2;"/><path d="M26.4972997,6.843945c-.0067336,0-.0134673-.0001623-.0202009-.0004868l-.2217236-.0107901c-.1732089-.0105467-.3047989-.0157389-.3962305-.0157389h0c-.0927296,0-.2381115.0052733-.4320892.0156578l-.2295119.0108712c-.1127683.0055979-.2241574-.0359398-.3063403-.1143097-.0822641-.0783699-.1287506-.1870007-.1287506-.3005802v-.0107901c0-.1934098.1335371-.3612642.3219981-.4047489.0160634-.0037319.0220669-.0073015.022148-.0073827l-.0013792-.0010547c.0173614-.0353719.0465676-.121449.0465676-.3006614v-3.2714974c0-.1753182-.005679-.2791624-.0116013-.3397652-.2059035-.0268535-.3615076-.2024962-.3615076-.4118882,0-.1898401.1287506-.3610208.3127495-.4079129l.8056848-.2054979c.033506-.0085996.0679855-.0128994.1026273-.0128994h.0649026c.0958936,0,.1841612.0324513.2544994.0870506.1380803-.0434036.2866262-.0653894.4431226-.0653894.3114514,0,.7441896.1108212,1.0365759.6385606.1933287.3489327.2872752.8296177.2872752,1.4693952,0,.4326571-.0477845.825399-.1420556,1.1674358-.1051422.382033-.2762418.6861829-.5083497.90385-.1285883.117636-.272591.2067148-.4317646.2682912-.1654205.0638479-.3365201.0954068-.5029953.0927296l.0007302.0838866c0,.1662318.0315589.245413.0502995.2781888.0160634.0279893.0253931.0313155.0433225.0356964.1862705.0451884.3173738.2119882.3173738.4036131v.0107901c0,.1136607-.0465676.2223726-.1289128.3007425-.0773964.0737456-.1800236.1146342-.2864639.1146342ZM26.490566,4.3510356c.0359398.08916.0753682.1621754.1154455.2136919.0535447.0686345.0889977.0896467.098652.0945144.0105467.0052733.0206066.009492.0296929.0125749.0162257-.0280704.0399962-.0807226.0611707-.1724787.0323702-.1406764.0488392-.3085308.0488392-.4987766,0-.3086119-.0369134-.6366946-.1097665-.9751618-.0655516-.3051234-.1504929-.5631113-.2527957-.7680413l.0087619,2.0936772Z" style="fill:#ffdde2;"/><path d="M16.4608527,5.2010678c-.088143-.0216302-.2395544-.0359602-.4542341-.0432604s-.5434586-.01433-.9868776-.0216302c-.0935506,0-.2341468.0054075-.4217888.0162226l-.2325246.0108151v-.0108151c.1335664-.0324453.2260355-.1073398.2784887-.2244133s.0784095-.2820036.0784095-.4947907l.0054075-3.2823819v-.0216302c0-.1370814-.0108151-.2522621-.0324453-.3460831s-.0584015-.1711489-.1108547-.2325246-.1254551-.1027434-.2190057-.1243736v-.0108151l.3028227.0108151c.2092721.0108151.3585205.0162226.4488265.0162226.0757057,0,.1800714-.0054075.3136378-.0162226l.2433397-.0108151v.0108151c-.2525325.0613757-.3785284.3028227-.3785284.7246115v3.6555027c0,.0973359.0281193.1738527.083817.2298208s.1449223.083817.2676736.083817c.2125167,0,.3877212-.038664.5245322-.1162623s.2622661-.2000793.3758246-.3677133.220628-.3920473.3217491-.6732398h.0162226c-.0362306.108151-.0854393.3344569-.1487076.6786473s-.0984174.5615739-.1054472.6516096h-.0108151c-.0178449-.0397455-.0713796-.0702981-.1595227-.0919283Z" style="fill:#71423f;"/><path d="M17.0729871,5.055064c.0502902-.0432604.088143-.1089621.1135585-.1973755s.0378528-.2135982.0378528-.3758246l-.0108151-2.1630194c0-.1695266-.0313638-.2893038-.0946321-.359602s-.1524929-.1073398-.2676736-.1108547v-.0108151c.1189661-.0359602.2606438-.0873319.4244925-.1541151s.2893038-.1251847.3758246-.1757453l.0811132.0216302.0162226,2.9525214c0,.2163019.0297415.3731208.0892245.4704567s.1524929.1641191.2784887.2000793v.0108151l-.2649699-.0108151c-.1551966-.0108151-.2703774-.0162226-.3460831-.0162226-.0935506,0-.2287393.0054075-.4055661.0162226l-.2379321.0108151v-.0108151c.0903061-.0216302.1606042-.0540755.2108944-.0973359ZM17.1378777,1.1345914c-.0648906-.0648906-.0973359-.1568189-.0973359-.275785s.0324453-.2108944.0973359-.275785.1568189-.0973359.275785-.0973359.2108944.0324453.275785.0973359.0973359.1568189.0973359.275785-.0324453.2108944-.0973359.275785-.1568189.0973359-.275785.0973359-.2108944-.0324453-.275785-.0973359Z" style="fill:#71423f;"/><path d="M18.431904,5.055064c.0502902-.0432604.0876023-.1089621.1108547-.1973755s.0351491-.2135982.0351491-.3758246v-2.1630194c0-.1730415-.0324453-.2982263-.0973359-.3758246s-.1530336-.1108547-.2649699-.1000396v-.0108151c.1151808-.0359602.2525325-.0873319.4109737-.1541151s.2811925-.1251847.3677133-.1757453l.0702981.0108151.0108151.4866794c.1011212-.1405963.2125167-.2568585.335268-.3487869s.2633476-.1451927.4217888-.1595227c.198457-.0181153.3585205.0278489.4812718.1378925s.1838566.2893038.1838566.5380511v2.3144307c0,.2198168.02866.3777173.0865208.4731605s.1514114.1614153.2811925.1973755v.0108151l-.227117-.0108151c-.1800714-.0108151-.3152601-.0162226-.4055661-.0162226-.0935506,0-.2217095.0054075-.3839359.0162226l-.2325246.0108151v-.0108151c.0903061-.0181153.1606042-.0486679.2108944-.0919283s.0876023-.1100436.1108547-.2000793.0351491-.2163019.0351491-.3785284v-2.1684269c0-.1765565-.0362306-.3217491-.108151-.4353076s-.167634-.1703378-.2866001-.1703378c-.079491,0-.1595227.0251451-.2406359.0757057s-.1649302.1262663-.251451.227117l.0162226,2.4712496c0,.1622265.0135189.2884927.0405566.3785284s.0659721.1568189.1162623.2000793.1189661.073813.2054868.0919283v.0108151l-.2595623-.0108151c-.1692563-.0108151-.2936299-.0162226-.3731208-.0162226-.0935506,0-.2217095.0054075-.3839359.0162226l-.227117.0108151v-.0108151c.0903061-.0216302.1606042-.0540755.2108944-.0973359Z" style="fill:#71423f;"/><path d="M21.3184534,5.0523602c-.1497891-.1100436-.2649699-.2784887-.3460831-.5056058s-.1216698-.5156097-.1216698-.8652077c0-.3750135.0486679-.7308302.1460038-1.0679908s.2433397-.6102418.4380114-.8192436.4288186-.3136378.7029813-.3136378c.1514114,0,.2714589.0648906.359602.1946717s.1324849.2955225.1324849.4974945c0,.1154512-.0162226.2325246-.0486679.3514906s-.079491.2290097-.1405963.3298605c-.0540755.122481-.1070695.2108944-.1595227.2649699s-.1135585.0884134-.1838566.1027434-.1757453.0235228-.3163416.0270377h-.3082303c-.0611053.0035149-.0989581.0135189-.1135585.0297415s-.0216302.0478568-.0216302.0946321c.0108151.2920076.0432604.5658999.0973359.8219474s.1314034.4615343.2325246.6164605.2200872.2325246.3568982.2325246c.1476261,0,.2795703-.0540755.394751-.1622265s.2054868-.2722701.2703774-.4920869l.0216302.0108151c-.0470457.1838566-.1108547.3360791-.191968.4569378s-.1773676.2108944-.2893038.2703774-.2379321.0892245-.3785284.0892245c-.2054868,0-.3828544-.0548866-.5326435-.1649302ZM21.634795,3.21109c.198457,0,.3336457-.010004.4055661-.0297415s.1205883-.0621868.1460038-.1270774.0378528-.1803417.0378528-.3460831c0-.1838566-.0108151-.3604131-.0324453-.5299397s-.0605645-.310934-.1162623-.4244925-.1308627-.1703378-.2244133-.1703378c-.1189661,0-.2179242.083817-.2974152.251451s-.136811.3750135-.1730415.6218681-.0524532.4912758-.0486679.7327228c0,.0181153.0091928.0270377.0270377.0270377l.275785-.0054075Z" style="fill:#71423f;"/><path d="M23.1407972,5.03073c-.108151-.1243736-.1622265-.3090414-.1622265-.5542737v-2.2116873c0-.1514114-.0070298-.2622661-.0216302-.3325642s-.0448827-.1216698-.0919283-.1541151-.1205883-.0559681-.2217095-.0702981v-.0162226c.2990374-.0575904.5137171-.0992285.6434983-.1243736l.2000793-.0378528.0162226.0054075v2.8011101c0,.1549263.0151411.2792999.0459642.3731208s.0719204.1614153.1243736.2027831.11464.0621868.1865604.0621868c.0827355,0,.1611449-.0251451.2352284-.0757057s.1665525-.1387036.2784887-.2649699v-2.3630987c0-.1514114-.0070298-.2622661-.0216302-.3325642s-.0443419-.1216698-.0892245-.1541151-.1178846-.0559681-.2190057-.0702981v-.0162226c.108151-.0216302.2395544-.045153.394751-.0702981l.275785-.0540755.1730415-.0324453.0108151.0054075v2.8605931c0,.1695266.0118966.3009301.0351491.394751s.059483.1668229.108151.2190057.1178846.098147.2081906.1378925l.0108151.0054075c-.136811-.0108151-.2747035-.0162226-.4136775-.0162226s-.2692959.0035149-.3920473.0108151h-.0486679l-.0324453-.4866794c-.1551966.1873716-.2920076.325264-.4109737.4136775s-.2449619.1324849-.3785284.1324849c-.1876419,0-.335268-.0621868-.443419-.1865604Z" style="fill:#71423f;"/><path d="M25.4779396,6.1879454c.059483-.1208587.0892245-.2820036.0892245-.4839756v-3.2715668c0-.1911568-.0064891-.3333754-.0189264-.4271963s-.0448827-.1684451-.0973359-.2244133-.1378925-.0892245-.2568585-.1000396v-.0054075l.8057247-.2054868h.0648906v.3082303c.0865208-.093821.1881827-.1649302.3055265-.2135982s.2476657-.0730019.3920473-.0730019c.2920076,0,.5164209.1414074.6732398.4244925s.2352284.7056851.2352284,1.2680701c0,.3966437-.0421789.7489455-.1270774,1.0571757s-.2152204.5453513-.3920473.7110926c-.0865208.0792206-.1854789.1405963-.2974152.1838566s-.2233317.0648906-.335268.0648906c-.1660117,0-.3120155-.0397455-.4380114-.1189661l.0054075.6218681c0,.1981866.0351491.3587908.1054472.4812718s.17196.2000793.3055265.2325246v.0108151l-.2217095-.0108151c-.1768268-.0108151-.3152601-.0162226-.4163812-.0162226s-.2525325.0054075-.4542341.0162226l-.227117.0108151v-.0108151c.1405963-.0324453.2406359-.1089621.3001189-.2298208ZM27.0217947,4.9793583c.079491-.0865208.138974-.2154908.1784491-.3866397s.059483-.3685244.059483-.5921266c0-.3387829-.0394751-.6929773-.1189661-1.0625833s-.1854789-.6786473-.3190454-.9273946-.2741627-.3731208-.4217888-.3731208c-.0432604,0-.0903061.01433-.1405963.0432604-.0719204.0359602-.136811.0900357-.1946717.1622265l.0108151,2.5848081c.0578608.1622265.1254551.2928187.2027831.3920473s.1579004.1695266.2406359.2108944.1638487.0621868.2433397.0621868c.0973359,0,.1838566-.0378528.2595623-.1135585Z" style="fill:#71423f;"/></svg>