<?xml version="1.0" encoding="UTF-8"?>
<svg id="_レイヤー_2" data-name="レイヤー 2" xmlns="http://www.w3.org/2000/svg" viewBox="0 0 2.67 29.18">
  <defs>
    <style>
      .cls-1 {
        fill: #8c6464;
        stroke: #8c6464;
        stroke-linecap: round;
        stroke-linejoin: round;
        stroke-width: .05px;
      }
    </style>
  </defs>
  <g id="lay">
    <g>
      <path class="cls-1" d="M2.52,2.45c-.08-.08-.12-.11-.21-.11H.26c-.09,0-.13.03-.21.11v-.42c.08.08.12.11.21.11h2.11L.05,1.27v-.06L2.36.26H.33C.17.26.13.37.05.45V.03c.08.08.12.19.28.19h1.97c.09,0,.13-.03.21-.11v.3L.31,1.31l2.21.83v.3Z"/>
      <path class="cls-1" d="M.26,3.06h1.34c.11,0,.15-.03.15-.07,0-.03-.03-.08-.05-.11h.04c.08.08.21.21.21.29,0,.06-.06.08-.22.08H.26c-.09,0-.13.03-.21.11v-.41c.08.08.12.11.21.11ZM2.54,3.11c0,.1-.06.16-.15.16s-.15-.06-.15-.16.06-.16.15-.16.15.06.15.16Z"/>
      <path class="cls-1" d="M.26,3.82h2.04c.11,0,.15-.03.15-.07,0-.03-.03-.08-.05-.11h.04c.08.08.21.21.21.29,0,.06-.06.08-.22.08H.26c-.09,0-.13.03-.21.11v-.41c.08.08.12.11.21.11Z"/>
      <path class="cls-1" d="M1.71,5.44l-.47-.3-.98.53c-.08.04-.13.1-.21.19v-.43c.08.08.14.07.21.04l.79-.43-.37-.24h-.42c-.09,0-.13.03-.21.11v-.41c.08.08.12.11.21.11h2.04c.11,0,.15-.03.15-.07,0-.03-.03-.08-.05-.11h.04c.08.08.21.21.21.29,0,.06-.06.08-.22.08H.76l.94.6c.06.04.13.05.21,0v.28c-.08-.11-.14-.18-.21-.22Z"/>
      <path class="cls-1" d="M1.28,7.44c.78,0,1.26.58,1.26,1.31,0,.53-.3.81-.35.88l-.54.05v-.04c.33-.1.85-.35.85-.9s-.47-1.1-1.21-1.1S.07,8.17.07,8.73c0,.59.52.91.85,1.02v.04l-.54-.05c-.06-.07-.35-.4-.35-.99,0-.73.48-1.31,1.26-1.31Z"/>
      <path class="cls-1" d="M.26,10.27h1.91c.35,0,.47.17.47.35,0,.32-.41.38-.78.15.04.06.07.13.07.21,0,.19-.14.36-.51.36H.26c-.09,0-.13.03-.21.11v-.41c.08.08.12.11.21.11h.99c.3,0,.64-.03.64-.23,0-.22-.37-.39-.63-.48H.26c-.09,0-.13.03-.21.11v-.41c.08.08.12.11.21.11ZM1.79,10.68c.44.31.81.2.81-.03,0-.19-.26-.2-.55-.2h-.71c.15.05.33.12.45.23Z"/>
      <path class="cls-1" d="M1.94,12.79c0,.57-.37.98-.96.98S.03,13.37.03,12.79s.37-.98.96-.98.96.41.96.98ZM.07,12.79c0,.46.35.79.92.79s.92-.33.92-.79-.35-.79-.92-.79-.92.33-.92.79Z"/>
      <path class="cls-1" d="M1.94,15.15c0,.38-.17.62-.21.67l-.45.04v-.04c.3-.08.62-.23.62-.66,0-.46-.35-.8-.92-.8s-.92.33-.92.82.32.65.62.72v.04l-.45-.04c-.04-.05-.21-.32-.21-.73,0-.59.37-1.01.96-1.01s.96.44.96.99Z"/>
      <path class="cls-1" d="M1.94,17.28c0,.57-.37.98-.96.98s-.96-.41-.96-.98.37-.98.96-.98.96.41.96.98ZM.07,17.28c0,.46.35.79.92.79s.92-.33.92-.79-.35-.79-.92-.79-.92.33-.92.79Z"/>
      <path class="cls-1" d="M.26,20.07h2.04c.09,0,.13-.03.21-.11v.45c0,.63-.2.84-.48.84-.36,0-.46-.34-.5-.69-.05.49-.16.92-.72.92-.47,0-.77-.25-.77-1.06v-.45c.08.08.12.11.21.11ZM.1,20.33c0,.74.33.95.71.95.52,0,.69-.52.69-.93v-.09H.1v.07ZM1.55,20.35c0,.29.11.71.48.71.26,0,.43-.17.43-.72v-.07h-.91v.09Z"/>
      <path class="cls-1" d="M1.73,22.93l-.56.04v-.04c.41-.08.72-.2.72-.34,0-.17-.45-.32-.78-.38H.26c-.09,0-.13.03-.21.11v-.41c.08.08.12.11.21.11h1.34c.11,0,.15-.03.15-.07,0-.03-.03-.08-.05-.11h.04c.08.08.21.21.21.29,0,.06-.06.08-.22.08h-.45c.33.08.67.2.67.4,0,.13-.14.27-.21.32Z"/>
      <path class="cls-1" d="M1.94,24.3c0,.57-.37.98-.96.98s-.96-.41-.96-.98.37-.98.96-.98.96.41.96.98ZM.07,24.3c0,.46.35.79.92.79s.92-.33.92-.79-.35-.79-.92-.79-.92.33-.92.79Z"/>
      <path class="cls-1" d="M1.92,26.54l-1.53.38,1.32.31c.08.02.13,0,.21-.06v.27c-.08-.1-.13-.14-.21-.17l-1.68-.4v-.05l1.48-.39-1.48-.35v-.05l1.68-.44c.08-.02.13-.08.21-.16v.42c-.08-.08-.13-.08-.21-.06l-1.32.33,1.53.37v.05Z"/>
      <path class="cls-1" d="M.26,27.96h1.34c.11,0,.15-.03.15-.07,0-.03-.03-.08-.05-.11h.04c.08.08.21.21.21.29,0,.06-.06.08-.22.08h-.39c.26.09.61.23.61.53,0,.19-.14.36-.51.36H.26c-.09,0-.13.03-.21.11v-.41c.08.08.12.11.21.11h.99c.3,0,.64-.03.64-.23,0-.22-.37-.39-.63-.48H.26c-.09,0-.13.03-.21.11v-.41c.08.08.12.11.21.11Z"/>
    </g>
  </g>
</svg>