<?xml version="1.0" encoding="UTF-8"?>
<svg id="_レイヤー_2" data-name="レイヤー 2" xmlns="http://www.w3.org/2000/svg" viewBox="0 0 17.83 17.13">
  <defs>
    <style>
      .cls-1 {
        fill: none;
        stroke: #f096aa;
        stroke-linecap: round;
        stroke-linejoin: round;
        stroke-width: .2px;
      }

      .cls-2 {
        opacity: .8;
      }

      .cls-3 {
        fill: #fff;
      }

      .cls-3, .cls-4 {
        stroke-width: 0px;
      }

      .cls-4 {
        fill: #f096aa;
      }
    </style>
  </defs>
  <g id="lay">
    <g>
      <g class="cls-2">
        <polygon class="cls-4" points="11.42 .24 11.34 .22 11.27 .24 11.21 .28 11.14 .31 11.07 .32 11 .35 10.94 .38 10.86 .38 10.8 .43 10.72 .42 10.66 .47 10.6 .49 10.52 .51 10.44 .5 10.39 .57 10.32 .57 10.25 .59 10.2 .66 10.14 .7 10.07 .74 10 .76 9.95 .81 9.88 .83 9.81 .86 9.74 .87 9.69 .93 9.63 .97 9.58 1.03 9.52 1.06 9.46 1.1 9.42 1.17 9.33 1.17 9.29 1.24 9.26 1.31 9.18 1.33 9.11 1.37 9.06 1.41 9.02 1.48 8.98 1.53 8.92 1.58 8.9 1.65 8.82 1.68 8.78 1.75 8.74 1.8 8.7 1.87 8.68 1.94 8.62 1.98 8.6 2.06 8.51 2.09 8.51 2.17 8.47 2.23 8.39 2.27 8.39 2.35 8.37 2.42 8.33 2.48 8.31 2.55 8.23 2.59 8.23 2.67 8.17 2.73 8.16 2.8 8.13 2.87 8.1 2.95 8.05 2.88 8 2.83 7.92 2.8 7.87 2.76 7.81 2.71 7.75 2.67 7.7 2.62 7.67 2.54 7.59 2.52 7.54 2.46 7.49 2.41 7.41 2.4 7.34 2.36 7.31 2.28 7.23 2.27 7.16 2.24 7.1 2.2 7.03 2.17 6.99 2.1 6.92 2.08 6.85 2.06 6.77 2.06 6.7 2.02 6.65 1.97 6.57 1.96 6.5 1.95 6.44 1.89 6.38 1.86 6.3 1.87 6.23 1.87 6.17 1.81 6.1 1.8 6.03 1.78 5.95 1.8 5.89 1.73 5.82 1.72 5.75 1.7 5.67 1.75 5.6 1.74 5.54 1.67 5.46 1.72 5.39 1.69 5.32 1.68 5.25 1.66 5.18 1.69 5.1 1.65 5.03 1.71 4.96 1.67 4.89 1.68 4.82 1.71 4.75 1.69 4.68 1.71 4.6 1.69 4.53 1.7 4.46 1.7 4.39 1.73 4.33 1.77 4.25 1.77 4.18 1.75 4.11 1.77 4.04 1.77 3.98 1.84 3.89 1.81 3.83 1.87 3.76 1.85 3.69 1.88 3.61 1.88 3.55 1.94 3.47 1.93 3.41 1.97 3.36 2.03 3.29 2.06 3.22 2.08 3.14 2.08 3.07 2.1 3.03 2.17 2.94 2.16 2.88 2.2 2.82 2.24 2.74 2.25 2.7 2.31 2.64 2.36 2.57 2.38 2.5 2.41 2.46 2.47 2.41 2.52 2.34 2.56 2.26 2.57 2.2 2.6 2.15 2.66 2.1 2.71 2.02 2.73 1.98 2.79 1.94 2.86 1.89 2.9 1.83 2.95 1.75 2.97 1.74 3.06 1.67 3.09 1.61 3.13 1.58 3.2 1.51 3.23 1.48 3.31 1.4 3.33 1.38 3.41 1.32 3.45 1.26 3.5 1.24 3.57 1.21 3.64 1.15 3.68 1.13 3.76 1.09 3.81 1.06 3.88 1.02 3.94 .98 4 .94 4.06 .89 4.11 .82 4.15 .79 4.22 .79 4.3 .76 4.36 .72 4.43 .7 4.49 .66 4.55 .64 4.62 .63 4.7 .54 4.74 .55 4.82 .51 4.88 .46 4.94 .47 5.02 .47 5.09 .39 5.14 .42 5.23 .37 5.29 .37 5.36 .31 5.42 .33 5.5 .34 5.57 .3 5.64 .25 5.7 .26 5.78 .26 5.85 .24 5.92 .2 5.98 .23 6.06 .19 6.13 .22 6.2 .2 6.27 .2 6.35 .17 6.41 .14 6.48 .12 6.55 .14 6.63 .12 6.7 .13 6.77 .16 6.84 .16 6.91 .15 6.99 .1 7.06 .11 7.13 .12 7.2 .1 7.28 .12 7.35 .11 7.42 .17 7.49 .15 7.56 .18 7.63 .16 7.71 .16 7.78 .14 7.85 .19 7.92 .18 7.99 .22 8.06 .18 8.14 .21 8.21 .26 8.28 .23 8.36 .27 8.43 .29 8.5 .28 8.57 .29 8.64 .33 8.71 .35 8.78 .34 8.85 .4 8.91 .42 8.98 .41 9.06 .46 9.11 .45 9.2 .53 9.24 .51 9.32 .58 9.38 .57 9.45 .64 9.5 .66 9.57 .66 9.65 .68 9.72 .72 9.78 .75 9.84 .76 9.92 .83 9.96 .87 10.02 .91 10.08 .95 10.14 .98 10.2 1 10.27 1.05 10.33 1.08 10.39 1.09 10.47 1.14 10.53 1.19 10.57 1.21 10.65 1.25 10.71 1.3 10.76 1.35 10.81 1.41 10.85 1.42 10.94 1.45 11 1.52 11.05 1.59 11.08 1.63 11.14 1.68 11.19 1.69 11.27 1.75 11.31 1.79 11.37 1.86 11.41 1.91 11.46 1.92 11.55 1.98 11.59 2.01 11.65 2.09 11.68 2.12 11.75 2.15 11.82 2.22 11.86 2.29 11.88 2.31 11.96 2.35 12.02 2.42 12.05 2.49 12.09 2.52 12.16 2.58 12.19 2.62 12.25 2.7 12.27 2.74 12.33 2.77 12.4 2.85 12.43 2.87 12.51 2.92 12.56 3.02 12.55 3.05 12.62 3.12 12.65 3.18 12.7 3.22 12.76 3.25 12.82 3.34 12.83 3.39 12.88 3.44 12.94 3.5 12.97 3.55 13.03 3.6 13.07 3.65 13.12 3.74 13.13 3.78 13.2 3.81 13.27 3.9 13.26 3.95 13.32 4.02 13.34 4.08 13.39 4.13 13.44 4.19 13.48 4.23 13.54 4.3 13.57 4.34 13.63 4.4 13.67 4.47 13.7 4.55 13.7 4.59 13.78 4.65 13.81 4.71 13.85 4.78 13.88 4.83 13.93 4.91 13.95 4.97 13.98 5.04 14 5.07 14.09 5.14 14.11 5.22 14.12 5.27 14.18 5.32 14.23 5.41 14.22 5.45 14.28 5.53 14.29 5.59 14.33 5.63 14.41 5.71 14.41 5.79 14.42 5.85 14.46 5.9 14.51 5.95 14.58 6.02 14.59 6.08 14.64 6.14 14.67 6.23 14.67 6.29 14.7 6.34 14.76 6.42 14.76 6.47 14.83 6.55 14.83 6.6 14.87 6.68 14.88 6.74 14.93 6.81 14.94 6.87 14.98 6.94 15 6.99 15.06 7.06 15.09 7.14 15.09 7.19 15.14 7.27 15.14 7.34 15.17 7.4 15.21 7.46 15.23 7.52 15.29 7.59 15.31 7.65 15.34 7.74 15.32 7.78 15.4 7.87 15.38 7.92 15.44 7.99 15.46 8.07 15.45 8.12 15.51 8.19 15.53 8.26 15.55 8.32 15.6 8.4 15.59 8.46 15.62 8.53 15.66 8.6 15.67 8.66 15.71 8.73 15.72 8.79 15.77 8.86 15.8 8.93 15.82 9.01 15.82 9.07 15.85 9.14 15.87 9.22 15.87 9.28 15.92 9.36 15.89 9.43 15.92 9.49 15.97 9.57 15.95 9.63 15.98 9.69 16.04 9.78 16.01 9.84 16.03 9.91 16.06 9.97 16.11 10.04 16.15 10.12 16.11 10.18 16.17 10.25 16.19 10.33 16.17 10.39 16.22 10.46 16.23 10.54 16.24 10.61 16.25 10.68 16.26 10.74 16.33 10.82 16.29 10.88 16.34 10.96 16.32 11.03 16.35 11.1 16.36 11.17 16.39 11.24 16.42 11.31 16.42 11.38 16.42 11.45 16.45 11.53 16.44 11.6 16.47 11.67 16.47 11.74 16.51 11.81 16.52 11.87 16.57 11.95 16.54 12.01 16.59 12.09 16.59 12.15 16.63 12.23 16.62 12.31 16.6 12.37 16.66 12.44 16.67 12.52 16.67 12.58 16.7 12.66 16.65 12.73 16.67 12.8 16.74 12.87 16.75 12.94 16.76 13.01 16.77 13.09 16.74 13.16 16.75 13.23 16.76 13.3 16.81 13.37 16.82 13.45 16.77 13.52 16.82 13.6 16.79 13.66 16.86 13.74 16.84 13.81 16.81 13.88 16.86 13.96 16.84 14.03 16.85 14.1 16.85 14.17 16.88 14.25 16.86 14.32 16.9 14.39 16.92 14.47 16.88 14.53 16.95 14.61 16.92 14.68 16.95 14.75 16.95 14.83 16.93 14.9 16.97 14.97 16.92 15.05 16.92 15.12 16.93 15.19 16.94 15.27 16.95 15.34 17 15.41 16.97 15.48 16.97 15.56 17.01 15.63 16.95 15.7 17.01 15.78 17.01 15.85 16.97 15.92 17.01 16 17 16.07 16.98 16.14 17 16.22 17.02 16.29 16.98 16.37 17.03 16.44 16.97 16.51 17.01 16.59 16.97 16.68 17.02 16.64 16.93 16.63 16.86 16.58 16.8 16.53 16.73 16.5 16.67 16.47 16.6 16.47 16.52 16.46 16.45 16.43 16.38 16.42 16.3 16.36 16.25 16.33 16.18 16.31 16.11 16.28 16.04 16.24 15.97 16.26 15.89 16.25 15.81 16.2 15.75 16.16 15.69 16.18 15.61 16.15 15.54 16.1 15.47 16.07 15.41 16.1 15.32 16.04 15.26 16.04 15.19 16.04 15.11 16.02 15.04 15.96 14.98 15.99 14.9 15.92 14.84 15.95 14.75 15.9 14.69 15.87 14.62 15.88 14.55 15.88 14.47 15.86 14.4 15.85 14.33 15.8 14.26 15.83 14.18 15.77 14.12 15.78 14.04 15.8 13.97 15.8 13.89 15.75 13.82 15.79 13.75 15.72 13.68 15.72 13.61 15.76 13.53 15.72 13.46 15.72 13.39 15.7 13.32 15.72 13.24 15.74 13.17 15.72 13.1 15.7 13.03 15.69 12.95 15.69 12.88 15.74 12.81 15.68 12.73 15.72 12.66 15.74 12.59 15.73 12.51 15.73 12.44 15.73 12.37 15.78 12.3 15.72 12.22 15.73 12.15 15.78 12.08 15.76 12 15.8 11.93 15.78 11.86 15.83 11.79 15.85 11.72 15.8 11.64 15.88 11.58 15.85 11.5 15.88 11.44 15.89 11.36 15.93 11.3 15.94 11.23 15.97 11.16 15.98 11.09 16.02 11.03 16.01 10.95 16.02 10.88 16.05 10.81 16.1 10.75 16.12 10.68 16.09 10.6 16.16 10.54 16.2 10.48 16.19 10.4 16.24 10.34 16.26 10.27 16.24 10.19 16.29 10.13 16.34 10.08 16.33 9.99 16.36 9.93 16.4 9.87 16.41 9.79 16.49 9.75 16.49 9.67 16.52 9.6 16.57 9.55 16.6 9.49 16.61 9.41 16.64 9.34 16.67 9.28 16.71 9.22 16.75 9.16 16.78 9.1 16.78 9.02 16.84 8.97 16.83 8.89 16.88 8.83 16.91 8.77 16.93 8.7 16.95 8.63 17.03 8.59 17.05 8.52 17.07 8.45 17.08 8.38 17.14 8.33 17.18 8.27 17.15 8.18 17.23 8.14 17.25 8.07 17.27 8 17.28 7.93 17.33 7.87 17.32 7.79 17.38 7.74 17.4 7.67 17.4 7.6 17.41 7.53 17.46 7.47 17.46 7.4 17.49 7.33 17.51 7.27 17.51 7.19 17.57 7.14 17.57 7.06 17.61 7 17.62 6.93 17.62 6.86 17.6 6.78 17.66 6.72 17.61 6.65 17.68 6.59 17.68 6.52 17.65 6.44 17.67 6.37 17.67 6.3 17.72 6.24 17.71 6.17 17.66 6.09 17.72 6.02 17.73 5.95 17.73 5.88 17.68 5.81 17.72 5.74 17.7 5.67 17.67 5.61 17.71 5.53 17.67 5.47 17.69 5.39 17.67 5.32 17.68 5.25 17.65 5.18 17.64 5.11 17.59 5.05 17.62 4.97 17.57 4.9 17.61 4.82 17.59 4.75 17.53 4.68 17.54 4.61 17.54 4.53 17.49 4.47 17.5 4.39 17.43 4.33 17.42 4.26 17.39 4.2 17.36 4.13 17.36 4.05 17.34 3.98 17.31 3.92 17.33 3.83 17.3 3.77 17.24 3.71 17.19 3.65 17.22 3.56 17.19 3.49 17.11 3.45 17.11 3.37 17.07 3.31 17.03 3.25 17 3.18 16.95 3.13 16.95 3.05 16.91 2.99 16.87 2.93 16.86 2.85 16.8 2.8 16.76 2.74 16.74 2.66 16.68 2.62 16.68 2.53 16.58 2.51 16.58 2.43 16.52 2.38 16.49 2.31 16.46 2.25 16.39 2.21 16.36 2.14 16.29 2.1 16.26 2.04 16.22 1.97 16.18 1.91 16.1 1.89 16.09 1.8 16.01 1.78 16 1.69 15.92 1.66 15.86 1.63 15.83 1.55 15.77 1.51 15.74 1.44 15.65 1.43 15.62 1.35 15.58 1.29 15.52 1.25 15.43 1.24 15.39 1.18 15.35 1.11 15.28 1.09 15.22 1.04 15.18 .98 15.1 .96 15.05 .92 14.98 .9 14.92 .84 14.85 .82 14.79 .78 14.74 .73 14.67 .7 14.62 .65 14.55 .64 14.5 .58 14.41 .59 14.35 .54 14.27 .55 14.22 .49 14.16 .46 14.08 .45 14.01 .43 13.96 .36 13.88 .38 13.82 .33 13.75 .33 13.68 .3 13.61 .31 13.54 .27 13.47 .27 13.41 .21 13.34 .21 13.26 .22 13.2 .17 13.12 .19 13.05 .18 12.98 .17 12.92 .12 12.84 .15 12.77 .12 12.7 .13 12.63 .14 12.56 .1 12.49 .13 12.41 .12 12.34 .16 12.27 .15 12.2 .16 12.13 .1 12.06 .14 11.99 .16 11.92 .17 11.84 .13 11.78 .18 11.71 .19 11.64 .22 11.56 .2 11.49 .19 11.42 .24"/>
        <polygon class="cls-1" points="11.42 .24 11.34 .22 11.27 .24 11.21 .28 11.14 .31 11.07 .32 11 .35 10.94 .38 10.86 .38 10.8 .43 10.72 .42 10.66 .47 10.6 .49 10.52 .51 10.44 .5 10.39 .57 10.32 .57 10.25 .59 10.2 .66 10.14 .7 10.07 .74 10 .76 9.95 .81 9.88 .83 9.81 .86 9.74 .87 9.69 .93 9.63 .97 9.58 1.03 9.52 1.06 9.46 1.1 9.42 1.17 9.33 1.17 9.29 1.24 9.26 1.31 9.18 1.33 9.11 1.37 9.06 1.41 9.02 1.48 8.98 1.53 8.92 1.58 8.9 1.65 8.82 1.68 8.78 1.75 8.74 1.8 8.7 1.87 8.68 1.94 8.62 1.98 8.6 2.06 8.51 2.09 8.51 2.17 8.47 2.23 8.39 2.27 8.39 2.35 8.37 2.42 8.33 2.48 8.31 2.55 8.23 2.59 8.23 2.67 8.17 2.73 8.16 2.8 8.13 2.87 8.1 2.95 8.05 2.88 8 2.83 7.92 2.8 7.87 2.76 7.81 2.71 7.75 2.67 7.7 2.62 7.67 2.54 7.59 2.52 7.54 2.46 7.49 2.41 7.41 2.4 7.34 2.36 7.31 2.28 7.23 2.27 7.16 2.24 7.1 2.2 7.03 2.17 6.99 2.1 6.92 2.08 6.85 2.06 6.77 2.06 6.7 2.02 6.65 1.97 6.57 1.96 6.5 1.95 6.44 1.89 6.38 1.86 6.3 1.87 6.23 1.87 6.17 1.81 6.1 1.8 6.03 1.78 5.95 1.8 5.89 1.73 5.82 1.72 5.75 1.7 5.67 1.75 5.6 1.74 5.54 1.67 5.46 1.72 5.39 1.69 5.32 1.68 5.25 1.66 5.18 1.69 5.1 1.65 5.03 1.71 4.96 1.67 4.89 1.68 4.82 1.71 4.75 1.69 4.68 1.71 4.6 1.69 4.53 1.7 4.46 1.7 4.39 1.73 4.33 1.77 4.25 1.77 4.18 1.75 4.11 1.77 4.04 1.77 3.98 1.84 3.89 1.81 3.83 1.87 3.76 1.85 3.69 1.88 3.61 1.88 3.55 1.94 3.47 1.93 3.41 1.97 3.36 2.03 3.29 2.06 3.22 2.08 3.14 2.08 3.07 2.1 3.03 2.17 2.94 2.16 2.88 2.2 2.82 2.24 2.74 2.25 2.7 2.31 2.64 2.36 2.57 2.38 2.5 2.41 2.46 2.47 2.41 2.52 2.34 2.56 2.26 2.57 2.2 2.6 2.15 2.66 2.1 2.71 2.02 2.73 1.98 2.79 1.94 2.86 1.89 2.9 1.83 2.95 1.75 2.97 1.74 3.06 1.67 3.09 1.61 3.13 1.58 3.2 1.51 3.23 1.48 3.31 1.4 3.33 1.38 3.41 1.32 3.45 1.26 3.5 1.24 3.57 1.21 3.64 1.15 3.68 1.13 3.76 1.09 3.81 1.06 3.88 1.02 3.94 .98 4 .94 4.06 .89 4.11 .82 4.15 .79 4.22 .79 4.3 .76 4.36 .72 4.43 .7 4.49 .66 4.55 .64 4.62 .63 4.7 .54 4.74 .55 4.82 .51 4.88 .46 4.94 .47 5.02 .47 5.09 .39 5.14 .42 5.23 .37 5.29 .37 5.36 .31 5.42 .33 5.5 .34 5.57 .3 5.64 .25 5.7 .26 5.78 .26 5.85 .24 5.92 .2 5.98 .23 6.06 .19 6.13 .22 6.2 .2 6.27 .2 6.35 .17 6.41 .14 6.48 .12 6.55 .14 6.63 .12 6.7 .13 6.77 .16 6.84 .16 6.91 .15 6.99 .1 7.06 .11 7.13 .12 7.2 .1 7.28 .12 7.35 .11 7.42 .17 7.49 .15 7.56 .18 7.63 .16 7.71 .16 7.78 .14 7.85 .19 7.92 .18 7.99 .22 8.06 .18 8.14 .21 8.21 .26 8.28 .23 8.36 .27 8.43 .29 8.5 .28 8.57 .29 8.64 .33 8.71 .35 8.78 .34 8.85 .4 8.91 .42 8.98 .41 9.06 .46 9.11 .45 9.2 .53 9.24 .51 9.32 .58 9.38 .57 9.45 .64 9.5 .66 9.57 .66 9.65 .68 9.72 .72 9.78 .75 9.84 .76 9.92 .83 9.96 .87 10.02 .91 10.08 .95 10.14 .98 10.2 1 10.27 1.05 10.33 1.08 10.39 1.09 10.47 1.14 10.53 1.19 10.57 1.21 10.65 1.25 10.71 1.3 10.76 1.35 10.81 1.41 10.85 1.42 10.94 1.45 11 1.52 11.05 1.59 11.08 1.63 11.14 1.68 11.19 1.69 11.27 1.75 11.31 1.79 11.37 1.86 11.41 1.91 11.46 1.92 11.55 1.98 11.59 2.01 11.65 2.09 11.68 2.12 11.75 2.15 11.82 2.22 11.86 2.29 11.88 2.31 11.96 2.35 12.02 2.42 12.05 2.49 12.09 2.52 12.16 2.58 12.19 2.62 12.25 2.7 12.27 2.74 12.33 2.77 12.4 2.85 12.43 2.87 12.51 2.92 12.56 3.02 12.55 3.05 12.62 3.12 12.65 3.18 12.7 3.22 12.76 3.25 12.82 3.34 12.83 3.39 12.88 3.44 12.94 3.5 12.97 3.55 13.03 3.6 13.07 3.65 13.12 3.74 13.13 3.78 13.2 3.81 13.27 3.9 13.26 3.95 13.32 4.02 13.34 4.08 13.39 4.13 13.44 4.19 13.48 4.23 13.54 4.3 13.57 4.34 13.63 4.4 13.67 4.47 13.7 4.55 13.7 4.59 13.78 4.65 13.81 4.71 13.85 4.78 13.88 4.83 13.93 4.91 13.95 4.97 13.98 5.04 14 5.07 14.09 5.14 14.11 5.22 14.12 5.27 14.18 5.32 14.23 5.41 14.22 5.45 14.28 5.53 14.29 5.59 14.33 5.63 14.41 5.71 14.41 5.79 14.42 5.85 14.46 5.9 14.51 5.95 14.58 6.02 14.59 6.08 14.64 6.14 14.67 6.23 14.67 6.29 14.7 6.34 14.76 6.42 14.76 6.47 14.83 6.55 14.83 6.6 14.87 6.68 14.88 6.74 14.93 6.81 14.94 6.87 14.98 6.94 15 6.99 15.06 7.06 15.09 7.14 15.09 7.19 15.14 7.27 15.14 7.34 15.17 7.4 15.21 7.46 15.23 7.52 15.29 7.59 15.31 7.65 15.34 7.74 15.32 7.78 15.4 7.87 15.38 7.92 15.44 7.99 15.46 8.07 15.45 8.12 15.51 8.19 15.53 8.26 15.55 8.32 15.6 8.4 15.59 8.46 15.62 8.53 15.66 8.6 15.67 8.66 15.71 8.73 15.72 8.79 15.77 8.86 15.8 8.93 15.82 9.01 15.82 9.07 15.85 9.14 15.87 9.22 15.87 9.28 15.92 9.36 15.89 9.43 15.92 9.49 15.97 9.57 15.95 9.63 15.98 9.69 16.04 9.78 16.01 9.84 16.03 9.91 16.06 9.97 16.11 10.04 16.15 10.12 16.11 10.18 16.17 10.25 16.19 10.33 16.17 10.39 16.22 10.46 16.23 10.54 16.24 10.61 16.25 10.68 16.26 10.74 16.33 10.82 16.29 10.88 16.34 10.96 16.32 11.03 16.35 11.1 16.36 11.17 16.39 11.24 16.42 11.31 16.42 11.38 16.42 11.45 16.45 11.53 16.44 11.6 16.47 11.67 16.47 11.74 16.51 11.81 16.52 11.87 16.57 11.95 16.54 12.01 16.59 12.09 16.59 12.15 16.63 12.23 16.62 12.31 16.6 12.37 16.66 12.44 16.67 12.52 16.67 12.58 16.7 12.66 16.65 12.73 16.67 12.8 16.74 12.87 16.75 12.94 16.76 13.01 16.77 13.09 16.74 13.16 16.75 13.23 16.76 13.3 16.81 13.37 16.82 13.45 16.77 13.52 16.82 13.6 16.79 13.66 16.86 13.74 16.84 13.81 16.81 13.88 16.86 13.96 16.84 14.03 16.85 14.1 16.85 14.17 16.88 14.25 16.86 14.32 16.9 14.39 16.92 14.47 16.88 14.53 16.95 14.61 16.92 14.68 16.95 14.75 16.95 14.83 16.93 14.9 16.97 14.97 16.92 15.05 16.92 15.12 16.93 15.19 16.94 15.27 16.95 15.34 17 15.41 16.97 15.48 16.97 15.56 17.01 15.63 16.95 15.7 17.01 15.78 17.01 15.85 16.97 15.92 17.01 16 17 16.07 16.98 16.14 17 16.22 17.02 16.29 16.98 16.37 17.03 16.44 16.97 16.51 17.01 16.59 16.97 16.68 17.02 16.64 16.93 16.63 16.86 16.58 16.8 16.53 16.73 16.5 16.67 16.47 16.6 16.47 16.52 16.46 16.45 16.43 16.38 16.42 16.3 16.36 16.25 16.33 16.18 16.31 16.11 16.28 16.04 16.24 15.97 16.26 15.89 16.25 15.81 16.2 15.75 16.16 15.69 16.18 15.61 16.15 15.54 16.1 15.47 16.07 15.41 16.1 15.32 16.04 15.26 16.04 15.19 16.04 15.11 16.02 15.04 15.96 14.98 15.99 14.9 15.92 14.84 15.95 14.75 15.9 14.69 15.87 14.62 15.88 14.55 15.88 14.47 15.86 14.4 15.85 14.33 15.8 14.26 15.83 14.18 15.77 14.12 15.78 14.04 15.8 13.97 15.8 13.89 15.75 13.82 15.79 13.75 15.72 13.68 15.72 13.61 15.76 13.53 15.72 13.46 15.72 13.39 15.7 13.32 15.72 13.24 15.74 13.17 15.72 13.1 15.7 13.03 15.69 12.95 15.69 12.88 15.74 12.81 15.68 12.73 15.72 12.66 15.74 12.59 15.73 12.51 15.73 12.44 15.73 12.37 15.78 12.3 15.72 12.22 15.73 12.15 15.78 12.08 15.76 12 15.8 11.93 15.78 11.86 15.83 11.79 15.85 11.72 15.8 11.64 15.88 11.58 15.85 11.5 15.88 11.44 15.89 11.36 15.93 11.3 15.94 11.23 15.97 11.16 15.98 11.09 16.02 11.03 16.01 10.95 16.02 10.88 16.05 10.81 16.1 10.75 16.12 10.68 16.09 10.6 16.16 10.54 16.2 10.48 16.19 10.4 16.24 10.34 16.26 10.27 16.24 10.19 16.29 10.13 16.34 10.08 16.33 9.99 16.36 9.93 16.4 9.87 16.41 9.79 16.49 9.75 16.49 9.67 16.52 9.6 16.57 9.55 16.6 9.49 16.61 9.41 16.64 9.34 16.67 9.28 16.71 9.22 16.75 9.16 16.78 9.1 16.78 9.02 16.84 8.97 16.83 8.89 16.88 8.83 16.91 8.77 16.93 8.7 16.95 8.63 17.03 8.59 17.05 8.52 17.07 8.45 17.08 8.38 17.14 8.33 17.18 8.27 17.15 8.18 17.23 8.14 17.25 8.07 17.27 8 17.28 7.93 17.33 7.87 17.32 7.79 17.38 7.74 17.4 7.67 17.4 7.6 17.41 7.53 17.46 7.47 17.46 7.4 17.49 7.33 17.51 7.27 17.51 7.19 17.57 7.14 17.57 7.06 17.61 7 17.62 6.93 17.62 6.86 17.6 6.78 17.66 6.72 17.61 6.65 17.68 6.59 17.68 6.52 17.65 6.44 17.67 6.37 17.67 6.3 17.72 6.24 17.71 6.17 17.66 6.09 17.72 6.02 17.73 5.95 17.73 5.88 17.68 5.81 17.72 5.74 17.7 5.67 17.67 5.61 17.71 5.53 17.67 5.47 17.69 5.39 17.67 5.32 17.68 5.25 17.65 5.18 17.64 5.11 17.59 5.05 17.62 4.97 17.57 4.9 17.61 4.82 17.59 4.75 17.53 4.68 17.54 4.61 17.54 4.53 17.49 4.47 17.5 4.39 17.43 4.33 17.42 4.26 17.39 4.2 17.36 4.13 17.36 4.05 17.34 3.98 17.31 3.92 17.33 3.83 17.3 3.77 17.24 3.71 17.19 3.65 17.22 3.56 17.19 3.49 17.11 3.45 17.11 3.37 17.07 3.31 17.03 3.25 17 3.18 16.95 3.13 16.95 3.05 16.91 2.99 16.87 2.93 16.86 2.85 16.8 2.8 16.76 2.74 16.74 2.66 16.68 2.62 16.68 2.53 16.58 2.51 16.58 2.43 16.52 2.38 16.49 2.31 16.46 2.25 16.39 2.21 16.36 2.14 16.29 2.1 16.26 2.04 16.22 1.97 16.18 1.91 16.1 1.89 16.09 1.8 16.01 1.78 16 1.69 15.92 1.66 15.86 1.63 15.83 1.55 15.77 1.51 15.74 1.44 15.65 1.43 15.62 1.35 15.58 1.29 15.52 1.25 15.43 1.24 15.39 1.18 15.35 1.11 15.28 1.09 15.22 1.04 15.18 .98 15.1 .96 15.05 .92 14.98 .9 14.92 .84 14.85 .82 14.79 .78 14.74 .73 14.67 .7 14.62 .65 14.55 .64 14.5 .58 14.41 .59 14.35 .54 14.27 .55 14.22 .49 14.16 .46 14.08 .45 14.01 .43 13.96 .36 13.88 .38 13.82 .33 13.75 .33 13.68 .3 13.61 .31 13.54 .27 13.47 .27 13.41 .21 13.34 .21 13.26 .22 13.2 .17 13.12 .19 13.05 .18 12.98 .17 12.92 .12 12.84 .15 12.77 .12 12.7 .13 12.63 .14 12.56 .1 12.49 .13 12.41 .12 12.34 .16 12.27 .15 12.2 .16 12.13 .1 12.06 .14 11.99 .16 11.92 .17 11.84 .13 11.78 .18 11.71 .19 11.64 .22 11.56 .2 11.49 .19 11.42 .24"/>
      </g>
      <g>
        <path class="cls-3" d="M7.85,7.78s0,0,0,.01c0,0,0,.01-.01.02,0,0-.02.02-.04.02-.02-.01-.04-.03-.06-.04-.02-.01-.04-.03-.06-.04v-.04s-.03.02-.04.03c-.01,0-.03,0-.05,0-.02,0-.04,0-.06,0,0,.02,0,.03,0,.04,0,0-.01,0-.03,0v.04s.04,0,.04,0l.04.03.07-.02s.03,0,.03,0c0,0,0,.01.01.03,0,0,0-.01.02-.02.01-.01.02-.02.04-.03v.03s0,.01,0,.02c0,0,0,.02-.01.02-.02-.01-.04-.02-.06-.02-.02,0-.04,0-.06.01v.03s.02,0,.03,0c.01,0,.02.01.03.02h-.04s.06,0,.07,0c.01,0,.04,0,.07.01-.01.02-.03.04-.06.05-.03,0-.05.02-.07.02,0,0-.01,0-.02,0-.01,0-.02-.01-.02-.03v-.04s-.03,0-.03,0-.01,0-.02,0c0,0-.02,0-.03,0,0,0-.02,0-.04,0,0,0,0,0,0-.01-.01,0-.02-.01-.04,0-.02-.01-.02-.02-.01-.02h.01s-.01,0-.02,0c-.01,0-.02-.01-.02-.02-.02,0-.04,0-.06.01-.02,0-.03,0-.05.01-.01,0-.03,0-.04-.01,0,0,0-.01,0-.02.02,0,.03,0,.03,0s0-.01,0-.03c0-.02-.02-.03-.04-.04s-.04-.02-.06-.04c-.02,0-.04,0-.05,0,0,0-.02,0-.02,0,0,0-.01,0-.02,0,0,0-.02,0-.03-.01h-.04s0-.03,0-.03v-.03s.03,0,.03,0c0,.01.02.03.05.04.01,0,.03.01.04.02,0-.02,0-.03,0-.03,0,0,0-.02-.01-.04h-.03s-.03,0-.03,0c-.02-.01-.05-.01-.08,0,0,0,0,0-.01,0,0-.01-.02-.03-.03-.05-.01-.02-.02-.04-.03-.05s0-.03,0-.03v-.04s-.08.02-.08.02v-.03s.03,0,.03,0c0,0,0-.01,0-.04h-.04s0-.01,0,0c0,0,0,.01-.03.02,0,0,0,.02-.02.03,0,0-.01.01-.02.02,0,0-.01,0-.02,0l-.04-.03s.03,0,.03,0c0,0,0-.01,0-.03-.03,0-.06,0-.08,0s-.06,0-.09,0c-.03,0-.05-.01-.07-.02-.02,0-.03-.02-.03-.03s0-.01,0-.01c0,0,0,0,0,0,0,0,0,0,0,0,0,0,.01,0,.02-.02l.03-.04-.07.02v-.03s-.02-.06-.02-.06c0,0-.02-.01-.02-.01,0,0,0,0,0,0,0,0,0,0,0,0,0,0,0,0,0-.02l.07-.02s-.01-.03-.03-.03c-.01,0-.03,0-.04-.01s-.03,0-.04,0c-.01,0-.02,0-.02-.02h.03s-.01-.05-.01-.05c-.01,0-.03.01-.04.03-.01.01-.02,0-.02,0,0,0-.02,0-.03,0-.01,0-.03,0-.05-.01-.02,0-.03,0-.04-.01-.02,0-.03,0-.04,0v.03s.04.07.04.08c0,.01.01.02.02.03,0,0,0,0,0,.01s0,0,0,.02c0,.02,0,.05.02.09.01.04.02.07.02.09l-.04.07v.04s-.01.05-.01.05c.02.01.03.02.03.02,0,0,0,.02.02.04l-.03.04h.03s.03-.05.03-.05v.03s.05.03.05.03c-.02.02-.02.03-.03.04,0,0,0,.02,0,.04h-.04s.05.04.05.04c0,0,.01-.02.01-.03,0,0,.01.02.02.02,0,0-.01.02,0,.02,0,0,0,.01,0,.02,0,0,0,.01.01.02,0,0,0,.02.01.04-.02,0-.03,0-.05.01-.01,0-.02.02-.02.04.01,0,.02.01.02.01,0,0,0,0,0,0,0,0,0,0,0,0,0,0,0,0,0,.01h.04s.02.04.04.06.04.06.07.09h-.03s0,.03,0,.03c0,0,0,.01,0,.02v.02s-.03,0-.03.01c0,0-.02,0-.04,0,0-.02-.01-.03-.02-.03,0,0-.03,0-.06.01,0,.02,0,.03.01.03,0,0,0,.02,0,.03-.02-.02-.03-.02-.04-.02,0,0-.02,0-.04,0,0,.02,0,.04.01.05s0,.03.01.05c0,.02,0,.03,0,.03,0,0,.01,0,.04,0,0,0,0-.01.02-.02,0,0,0-.01.02-.02,0,0,.02-.01.03-.01v.04s-.02.03-.04.04c-.01,0-.03.01-.05.01,0,.02,0,.03,0,.03,0,0-.01,0-.03.01-.01,0-.02-.01-.04-.01-.01,0-.03,0-.04,0-.01,0-.02,0-.03-.02,0,0-.02-.02-.02-.04,0,0,0-.01,0-.02,0-.02,0-.04.02-.05-.02,0-.03,0-.05,0-.01,0-.03,0-.04,0-.01,0-.02,0-.03,0h.03s.02-.04.03-.03c0,0,0,0,0-.02-.02,0-.03,0-.04,0,0,0,0-.01-.01-.03.02,0,.02-.01,0-.02-.01-.01-.02-.03-.02-.05v-.03s0,.03,0,.03l.04.03s.03,0,.04,0c0,0,.03,0,.06-.02-.03-.01-.04-.02-.04-.03,0,0,0-.02.02-.04-.04,0-.07-.02-.11-.02-.04,0-.06-.02-.09-.05,0,0,.01,0,.02,0,0,0,.01-.02,0-.04.02,0,.04,0,.06-.01.02,0,.05-.01.08-.02v-.03s-.08.02-.08.02c0-.02,0-.03,0-.03,0,0-.02,0-.04,0h.04s-.01-.07-.02-.08c0,0,0-.02,0-.04l-.07.05s0-.03,0-.04c0,0,0-.02,0-.03l.03-.04s.02.03.03.04c.01,0,.02,0,.01,0h.03s-.02,0-.03,0c0,0,0-.01,0-.03.01-.02.02-.03.02-.02,0,0,0,0,0-.02-.01,0-.02,0-.03,0,0,0-.02,0-.04,0v-.04s-.01,0-.01,0c0,0,0,0,0,0,0,0,0-.01,0-.02l-.02-.07.05.03s0,.02,0,.02c0,0,0,0,0,0,0,0,0,0,0,0,0,0,0,0,.02.01v-.04s0,0,0,0c0,0,0-.02,0-.03-.04,0-.06,0-.06,0,0,0-.01-.03-.02-.07v-.03s.03,0,.03,0c-.02,0-.04,0-.06,0s-.04,0-.06-.02c.02-.02.02-.03,0-.04-.01,0-.02-.01-.02-.03.01-.02.02-.04.03-.04,0,0,.02,0,.04-.01,0-.01,0-.02,0-.01,0,0,.02,0,.04,0,0-.03-.01-.05-.02-.07,0-.01-.02-.03-.05-.06-.02,0-.03,0-.04,0,0,0-.02,0-.03,0,0,0,0-.01-.02-.02,0,0-.02,0-.03-.02-.01,0-.02-.02-.03-.03s-.02-.03-.02-.06c.02,0,.03,0,.05,0,.02,0,.04,0,.05,0v-.04s-.04,0-.07-.03c-.02-.02-.03-.04-.04-.06,0,0,.02,0,.03,0,0,0,.02,0,.02,0h.02s0-.04,0-.04c-.02,0-.02,0-.01,0,0,0,0-.01,0-.03,0,0-.02,0-.02,0,0,0-.01,0-.02,0,0,0-.01,0-.02-.01,0,0-.01-.03-.02-.05.02.01.04.02.04.02,0,0,0,0,0-.03-.01,0-.02-.01-.02-.02,0,0,0-.02,0-.03,0-.01,0-.03,0-.04s0-.03,0-.05c0,.02.01.03.03.03,0,0,.01,0,.02,0v-.04s-.05-.03-.06-.04c-.01,0-.03-.02-.04-.03-.01,0-.02-.01-.03-.01,0-.02,0-.04,0-.05,0-.02,0-.04,0-.05h-.03s0-.05,0-.07c.01-.01.02-.03.04-.05-.02,0-.03-.01-.03-.02,0,0,0-.01,0-.02,0,0,0,0,0,0,0,0,0,0-.03,0v-.03s0-.04,0-.05c0-.01,0-.02,0-.02.02.02.04.02.04,0,0-.01,0-.03,0-.04.02,0,.03,0,.03,0,0,0,0,0,0,0,0,0,0,0,0,0,0,0,.01,0,.03,0,.01,0,.03,0,.05-.01.02,0,.04,0,.06-.01v.04s.04-.01.04-.01c-.01.02-.02.04-.02.04,0,0,.01.01.04.03h.03s.08.05.08.05c-.01,0-.01,0,0,.02,0,0,.02.02.04.02s.03.02.04.03c.02,0,.02.02.03.03,0,0,.02.01.03.03.01.01.03.03.04.04.01.02.03.03.04.05.01.02.02.03.03.03-.02,0-.03.01-.03.02,0,0,0,.01,0,.01-.02,0-.04,0-.07,0-.03,0-.04,0-.04.02.04,0,.08,0,.13,0s.09-.02.12-.02v-.04s0,.04,0,.04c0,0,.02,0,.02,0,0,0,0,0,0,0,0,0,0,0,0,.01,0,0,0,.01.02.02.01-.02.03-.03.03-.02,0,0,.02.01.03,0,0,0,0,.02,0,.03,0,0-.01.01-.02.02,0,0-.01.01-.02.02,0,0,0,.01,0,.02.02.01.04.02.04.03s0,.01.01.03c.02,0,.04,0,.06-.01.01,0,.03,0,.04,0,.02,0,.03,0,.04-.01,0,.02,0,.04.01.06,0,.02,0,.04.01.05h-.02s-.04.02-.05.02c-.02,0-.03,0-.04.01,0,0-.01.02-.03.04.02,0,.04,0,.06,0,.02,0,.04,0,.06-.01.02,0,.04,0,.05-.01.02,0,.03,0,.04,0,.02,0,.04,0,.06.03.02.02.04.04.04.06.02,0,.03-.01.03-.02,0,0,0-.01,0-.02.04,0,.06,0,.07.02.01.02.03.04.05.05h-.04s-.04,0-.06,0c-.02.01-.04.03-.08.03,0,0,0,.02.02.02,0,0,.02,0,.02,0,0,0,.01,0,.01,0s0,0-.01,0c0,0,.02,0,.04,0,.02,0,.03,0,.05,0,.02,0,.03,0,.04.01.01,0,.02.01.02.02h.04s-.07,0-.07,0c0,0,0,.02,0,.02,0,0,0,0,0,0,0,0,0,0,0,0,0,0,0,0,0,.02v-.04s-.04.04-.04.04-.02,0-.04.01v.04s.04-.01.04-.01c.02,0,.04,0,.06-.01.02,0,.06-.01.11-.03v-.04s-.04-.02-.05-.03c0,0,0-.02,0-.03.02,0,.04,0,.05,0,.02,0,.04,0,.05.02,0,0,.02,0,.03.01,0,.01.02.03.03.04.01.01.02.03.04.04s.03.01.05,0c.01-.01.02-.03.03-.04,0-.01,0-.03,0-.04,0-.01,0-.02,0-.03,0-.01,0-.02,0-.02-.01-.03-.03-.06-.04-.09-.02-.03-.03-.06-.04-.08.02,0,.03,0,.04,0,0,0,.02,0,.03,0,0-.02,0-.03,0-.03,0,0,0-.02,0-.03-.02-.01-.04-.03-.04-.04,0,0-.03-.03-.05-.05.02,0,.04-.01.05-.03.01-.02.03-.04.04-.07-.02,0-.03,0-.03,0,0,0,0-.01-.01-.03,0,0-.02,0-.02,0-.02,0-.04,0-.05.01.01-.04.02-.07.01-.09,0-.02-.02-.05-.04-.09-.01,0-.02-.02-.02-.03,0-.01,0-.02,0-.04v-.04s0-.02,0-.03c-.02-.01-.04-.02-.05-.04,0-.01-.02-.03-.02-.05,0-.02,0-.04,0-.06,0-.02,0-.05-.02-.09-.02,0-.04,0-.06-.01-.02-.01-.03-.04-.04-.07.01-.02.02-.04.03-.04,0,0,.02,0,.04-.01l-.04-.02s0-.03,0-.04c0,0,.01,0,.03,0l-.02-.07h.04s0-.04,0-.05c0,0,0-.02-.01-.02s0-.02,0-.03c0-.01,0-.03.02-.05h.04s0,.02,0,.02c.02,0,.03-.01.03-.03,0-.01.01-.02.03-.02,0,.02,0,.03,0,.03,0,0,0,0,.02,0v.04s.03-.04.04-.04c0,0,.01,0,.03-.01,0,.02.01.03.03.03.01,0,.02.01.02.03-.01.02-.02.04-.03.04,0,0-.01,0-.03.01.02.02.03.03.04.05,0,.02.03.03.05.04.02,0,.03,0,.04-.01,0,0,.02,0,.04,0,0,0,0,.01,0,.01,0,.01.02.01.03.01,0,.02,0,.03,0,.04,0,0-.01.02,0,.04.02,0,.03,0,.03,0,0,0,0,0,0,0,0,0,0,0,0,.01,0,0,0,.01.01.02h.03s-.01.03-.02.04c0,.01-.02.03-.02.04,0,.01,0,.02,0,.03,0,.01,0,.03.02.04l.02-.04s.01.03.01.04h.01s0,.01,0,.02c0,0,0,0-.01.02-.02,0-.03,0-.03.01,0,0,0,.03.01.06,0,0,.02,0,.03.01s.02.02.03.04c.01.01.02.03.03.04,0,.01.01.03.01.03-.02,0-.03,0-.03.01,0,0,0,.01,0,.04,0,0,0,.02,0,.03s0,.02,0,.02v.02s.01.03.02.05c0,.02,0,.03-.02.05.04.01.07.03.08.04,0,.02.02.03.02.05l.04.02s.02,0,.02,0,0,0,0,0c0,0,0,0,0,.01,0,0,0,.01.02.02-.01,0-.02,0-.02,0,0,0,0,0,0,0,0,0,0,0,0,.01,0,0,0,.01-.01.02-.02-.01-.03-.02-.02-.03,0,0,0,0-.02,0v.04s.02.03.02.03c.02,0,.03-.01.02-.02,0,0,0,0,0,.01,0,0,.02.01.02.02,0,0,0,0,0,.01,0,0,0,0,0,.02,0,0,0,.01,0,.02h-.03s0-.02,0-.02v.03s.02.04.02.04v.04s.04,0,.04.01c0,.01.01.03.02.04.01.02.02.03.01.05,0,.01,0,.03-.02.04,0,.02-.01.04-.02.06s0,.05,0,.08c.02,0,.03-.01.04-.02,0,.01,0,.03,0,.05,0,0,0,.02,0,.03,0,0,0,.01,0,.02,0,0,0,0,0,.01,0,0,0,.01,0,.03h.03s0,0,0,0h.03s0,.02,0,.02c-.01.03-.02.04-.02.05s0,.02,0,.03c.02,0,.04,0,.05.01.01.01.03.03.03.04-.01,0-.02,0-.03,0,0,0-.01.02-.03.04.02,0,.03,0,.04,0,.01,0,.02.01.03.02,0,0,.02.02.03.03s.02.02.03.03c0,.01,0,.02,0,.03,0,0-.01,0-.02,0,.02.01.04.02.04.03,0,0,0,.01,0,.03-.02,0-.03,0-.03.01,0,0,0,.01,0,.03,0,0-.01,0-.01,0,0,0,0,0,0,0,0,0,0,0-.01,0,0,0-.02,0-.04,0,0,0,.02,0,.03.02,0,.02.02.04.03.06.01.02.02.04.03.06s.02.02.03.02c0,0,0-.01,0-.01ZM5.64,6.52v.04s.04,0,.05-.01c0,0,.01-.02.02-.04h-.03s-.04.02-.04.02ZM5.72,6.54v.03s.02.01.03.02c0,0,0,0,0,.01s0,0,0,0,0,0,.02,0c0-.02,0-.03,0-.04,0,0,0-.02,0-.03h-.04ZM5.75,6.98h.04s0-.05,0-.05h-.04s0,.05,0,.05ZM5.84,7.07l.07-.02-.02-.07s-.03,0-.04-.01c0-.01-.03-.03-.05-.04-.01.02-.02.04-.03.04s-.01.02-.03.05c.04,0,.06-.01.06,0,0,0,.01.02.02.06ZM5.83,6.67s0,.03-.01.04-.01.02,0,.04h.04s-.02-.08-.02-.08ZM5.83,7.33h.04s-.05-.04-.05-.04c0,.02,0,.03,0,.04,0,0,0,0,.02,0ZM5.93,6.65v.03s.04-.01.04-.01v-.03s-.04.01-.04.01ZM5.97,7.11v.04s.04,0,.04,0v-.04s-.04,0-.04,0ZM5.98,7.18v.03s.04,0,.04,0v-.03s-.04,0-.04,0ZM5.99,7.06s0,.03.01.04c0,0,0,.02,0,.04.01,0,.02,0,.02,0,0,0,0,0,0-.02,0,0,0-.01,0-.02v-.04s-.05,0-.05,0ZM6.06,6.39h-.04s0,.04,0,.04c0,0,.01,0,.04,0v-.04ZM6.07,7.23h-.04s.05.04.05.04v-.04ZM6.07,6.8v.04s.04,0,.04,0v-.04s-.04,0-.04,0ZM6.12,8.11h.04s-.01,0-.02,0c0,0,0,0,0,0s0,0,0-.01c0,0,0,0-.02-.02v.04ZM6.12,7.29v.04s.04-.04.04-.04h-.04ZM6.15,6.66h-.03s.04.03.04.03v-.03ZM6.13,8.33s.03,0,.03,0c0,0,0-.01,0-.04h-.04s0,.04,0,.04ZM6.17,6.89h-.04s0,.04,0,.04h.04s0-.04,0-.04ZM6.14,6.6s.04.02.06.02c.02,0,.03,0,.05-.01,0-.01-.01-.02-.02-.03,0,0-.01,0-.02,0h-.07ZM6.17,7.69s0,.03,0,.04c0,0,0,.01,0,.02,0,0,0,0-.01,0,0,0,0,0,0,.02v.04s.04-.04.04-.04c0,0,.01-.02.02-.02,0,0,0,0,0,0,0,0,0,0,0,0,0,0,0,0,0-.02,0,0,0-.01,0-.02-.01,0-.02-.01-.03,0ZM6.26,6.83v-.03s-.04,0-.04,0v-.04s0,.04,0,.04c0,.02,0,.02,0,.03s.01,0,.03,0ZM6.33,8.06h-.04s-.02-.02-.03-.02c-.01,0-.03,0-.05,0v.04s.09.02.09.02c0-.01,0-.03.01-.04,0,0,.01,0,.02,0ZM6.33,6.78v-.04s-.04,0-.04,0v.04s.04,0,.04,0ZM6.41,6.94s-.04.01-.06.01c-.02,0-.04,0-.06.01,0,.02.01.03.03.04.02.01.04.02.06.01.02,0,.04-.02.05-.03.01-.02.03-.03.05-.03v-.03s-.05-.02-.05-.02c.02,0,.04,0,.06-.02.02,0,.05-.01.08-.02v-.03s-.04,0-.04,0c-.02,0-.04.01-.06.01-.01,0-.03,0-.04.01-.01,0-.03,0-.03,0h-.04s.04.03.04.04c0,0,0,.01.01.03ZM6.59,7.28s0-.03-.01-.04c0,0,0-.02,0-.03h-.03s-.04.02-.04.02v.03s.02,0,.03,0c.01,0,.02.01.02.03h.03ZM6.59,7.11v-.04s-.08.01-.08.01v.04s.03,0,.04,0c0,0,.02.01.04.03v-.04ZM6.71,6.98s-.03,0-.05,0c-.01,0-.03,0-.04,0-.01,0-.02,0-.03,0,0,0,0,.02.01.02,0,0,0,0,.01.01,0,0,0,0,0,.01,0,0,0,.01,0,.02h.07s.01-.03.02-.04,0,0,0,0c0,0,0,0,0,0s0,0,0-.02ZM6.69,7.22s-.03-.02-.04-.02c0,0-.02,0-.04,0v.03s.08-.02.08-.02ZM6.69,7.36v-.03s-.04,0-.04,0v.03s.04,0,.04,0ZM6.79,7.34v-.03s-.04,0-.04,0v.03s.04,0,.04,0ZM6.81,7.24v.04s.04-.01.04-.01c0,0,0-.01,0-.02-.01-.01-.02-.01-.04,0ZM6.83,7.16v.03s.02,0,.03,0c0,0,.01,0,.02,0,0,0,0,0,.01.02l.02-.04s-.02,0-.02,0c0,0-.02,0-.02,0,0,0-.02,0-.02-.01ZM7.02,5.79v-.04s-.04,0-.04,0c0,0-.01,0-.02,0-.02,0-.04,0-.04,0v.04s.07,0,.08-.01.02,0,.04-.01ZM6.96,7.09v.04s.04,0,.04,0c0-.02,0-.02,0-.02,0,0-.01,0-.04-.01ZM7.02,7.01l-.03.05h.04s0,0,0,0h0s.02-.03.02-.03c0,0,0-.01,0-.03h-.03ZM7.05,7.18h-.04s0,.04,0,.04c0,0,.01,0,.05,0v-.04ZM7.12,7.16s0-.03-.01-.03c0,0-.03,0-.06,0v.04s.04,0,.04,0c0,0,0,.01,0,.03.02,0,.04-.01.06-.02.02,0,.04,0,.06-.01h-.04s-.03.05-.05.06c-.02.01-.03.03-.04.05v.03s.04,0,.04,0h.04s0-.04,0-.04c.02,0,.04-.01.05-.03s.03-.03.05-.03c.02.02.03.03.02.04,0,.01,0,.02.03.03h.04s.01-.04,0-.04c0,0,0,0,.01,0l.03-.04v.04s.04,0,.04-.01.01-.02.02-.04c-.01,0-.02,0-.03,0l-.05-.02s-.02.04-.03.04c0,0-.02,0-.03.01v.04s-.02-.01-.03-.02c0,0-.02-.02-.03-.03,0,0-.02-.01-.03-.02v-.05s-.02-.02-.02-.02c-.02,0-.04.01-.05.03-.01.02-.03.03-.05.03ZM7.08,7.46l-.02.05s.03.01.05,0c0,0,.02-.01.02-.02v-.04s-.05,0-.05,0ZM7.15,5.7s0,.01,0,.02c0,0,0,0,0,.01,0,0,0,0,0,0,0,0,0,0,.02,0v-.03ZM7.17,5.95v.04s.06.03.06.03c.01-.02.02-.04.02-.05s0-.03-.01-.07h-.03s0,.02,0,.03c0,0,0,.02,0,.03s0,.02-.01.03v-.04ZM7.25,7.39s0,.02,0,.01c0,0,.01,0,.04,0v-.03s-.04.01-.04.01ZM7.33,7.46l.07-.02v-.04s-.04,0-.04,0c0,0-.02,0-.04,0v.04ZM7.42,7.81l.03-.05-.04-.02h-.03s0,.02,0,.02l.04.04ZM7.5,6.57h-.04s-.01.01-.01.01c0,0,0,0,0,0,0,0,0,0-.02,0,0,0-.02,0-.04-.01v.08s.05,0,.05,0c.01,0,.02,0,.03,0,0,0,.02,0,.04,0v-.04ZM7.44,7.73v-.04s-.04.01-.04.01v.04s.04-.01.04-.01ZM7.51,7.72v-.04s-.04,0-.04,0c0,0,0,.02,0,.02,0,0,0,0,0,0,0,0,0,0,.01,0,0,0,.01,0,.02.01ZM7.56,6.82s-.02-.01-.02-.02c0,0,0,0,0,0,0,0,0,0,0,0,0,0,0,0-.02,0v.04s.02,0,.03,0c0,0,0,0,0,0t0,0s0,0,.01-.02ZM7.55,7.89v.03s.04-.01.04-.01v-.03s-.04.01-.04.01ZM7.66,7.42s-.02.04-.02.04c0,0-.01,0-.04,0v.04s.04-.02.04-.02c.01,0,.02,0,.03,0,0,0,.01,0,.02,0s0-.01.01-.03c-.02,0-.03,0-.03,0s0-.01-.01-.03ZM7.66,7.27h-.03s-.02.05-.02.05c0,0,.01,0,.02.01s0,0,0,.01c0,0,0,0,0,0,0,0,0,0,.02,0,0-.02,0-.03,0-.03h0s0-.02,0-.02c0,0,0,0,.02-.02ZM7.72,7.52s0,.03,0,.03c0,0,0,0,0-.03h0ZM7.75,7.48h-.04s0,.04,0,.04h.04s0-.04,0-.04Z"/>
        <path class="cls-3" d="M9.68,7.26s0,.03-.02.04c-.01,0-.02.01-.04.02s-.03,0-.05.01-.04.01-.06.02c-.02,0-.03,0-.04.01,0,0-.02.01-.03.03,0-.01-.01-.02-.02-.02,0,0,0,0-.02,0,0,.02-.03.04-.05.06-.02.02-.04.03-.06.03-.02,0-.03,0-.04,0,0,0-.02-.01-.03,0v.03s-.01,0-.01-.01c0,0,0-.01-.02-.01-.02,0-.03.01-.04.02,0,0,0,.01-.01.02-.01,0-.02,0-.03-.02,0,0-.02-.02-.04-.04-.01,0-.04.01-.06.03s-.06.01-.09,0c0,0,0-.01-.02-.02-.01,0-.02,0-.04,0s-.02,0-.03,0-.01,0-.01.01l-.02-.09h-.03s0-.02-.01-.02c0,0-.01-.01-.03-.02-.02,0-.03,0-.04,0-.01,0-.02.02-.02.03-.02-.03-.04-.05-.05-.07,0-.02-.02-.03-.04-.04,0,.01,0,.02-.01.03,0,0,0,0-.01,0-.02-.02-.03-.03-.04-.03,0,0-.02-.01-.04-.02.01,0,.03,0,.04-.01.01,0,.03-.02.04-.04h-.06s-.03.01-.05,0c-.02,0-.03,0-.05,0,0-.01,0-.02-.01-.02,0,0-.01,0-.03,0l.03-.04.02-.03v-.02s0-.02-.01-.05h-.03s0,.03,0,.04c0,0,0,.01,0,.03-.02,0-.03-.02-.04-.02,0,0-.02,0-.03,0h-.03s0-.01.01-.01c0,0,0,0,0,0,0,0,0,0,0,0h0s-.03-.04-.04-.05c0-.01,0-.03-.01-.04v-.03s.05.01.07,0c.02,0,.03-.03.04-.06-.03,0-.05,0-.07,0-.02,0-.05,0-.08.03v-.06s.01,0,.03,0c.01,0,.02-.02.02-.03v-.03s-.04,0-.04,0v.03s-.02,0-.02,0v-.03s-.04,0-.06,0c-.02,0-.03,0-.05,0-.01,0-.03,0-.03,0,0,0-.02,0-.03.01,0-.02,0-.03-.01-.04,0-.01-.01-.02-.03-.01.03,0,.06-.01.08-.02.02,0,.04-.02.07-.04,0-.02,0-.03,0-.03,0,0,0-.02.02-.04-.02,0-.03,0-.04,0,0,0-.02,0-.03-.02.01,0,.02-.02.02-.04,0-.03,0-.05.02-.06.01,0,.04,0,.06-.02.03,0,.04-.02.06-.04-.02,0-.03,0-.05-.02,0,0-.02-.02-.03-.03.01-.02.02-.03.03-.04,0,0,.02,0,.03,0-.01,0-.02,0-.03-.01,0,0,0,0,0-.01h.03s-.01-.07-.01-.07c.03,0,.05-.01.07-.02.02,0,.03-.02.04-.03-.01,0-.02-.01-.02-.01h0s0,0,0,0c0,0,0,0,0-.01,0,0,0-.02.01-.03,0,0,0-.02.01-.03,0-.01.01-.02.03-.03.01-.01.03-.02.05-.02,0-.02,0-.04,0-.05,0,0,0-.02,0-.02,0,0,0-.01,0-.02,0,0,0-.02.01-.04h-.03s0,.02,0,.02c0,0,0,0,0,0,0,0,0,0,0,0,0,0,0,0-.01.02,0-.02-.01-.03-.03-.03-.01,0-.02-.01-.02-.03h.06s0-.04,0-.04c.02.02.04.03.05.04.02.01.04.02.05.04,0-.02,0-.03,0-.03,0,0,.02,0,.05-.01,0-.01,0-.02,0-.03s0-.01,0-.03c0,0,0-.01.01-.02.01-.01.03-.02.04-.02h-.03s0,0,0-.01c0,0,0,0,0,0t0,0s0,0-.01-.01c-.02.02-.03.03-.04.04-.01,0-.03,0-.04.01v-.03s.02-.03.04-.02c.01,0,.03,0,.04-.03,0-.01,0-.02.02-.03.01,0,.04,0,.07-.02.01,0,.04,0,.06,0,.03,0,.04-.02.05-.06v-.03s.03,0,.05,0c.02,0,.04,0,.07,0s.05,0,.07,0c.02,0,.04,0,.06,0,.01-.02.02-.04.03-.04,0,0,.02,0,.06-.01,0,0,.02.01.02.01s0,0,.01,0,.01,0,.02-.01c0,0,.02,0,.04-.01v.03s-.02,0-.02,0c0,0-.02.01-.03.03-.03-.03-.06-.02-.09.01.03,0,.05.02.07.01s.04,0,.06-.01c.02,0,.04-.02.05-.03.02,0,.04-.02.06-.02,0,0,.01,0,.02.01.01,0,.02.02.02.04h.03s0-.03,0-.03c0,0,.02,0,.06-.02v.03s.01.03.02.05c0,.01.02.03.03.04.02.01.03.01.03,0,0-.01.01-.02.03-.02v.04s.03,0,.05,0,.02,0,.03.02c0,.01,0,.02,0,.03,0,0,0,.02,0,.03.01,0,.03,0,.05,0s.03,0,.05,0c-.01,0-.02,0-.03.01,0,0-.01.01-.03.03.02,0,.03,0,.05.01.02,0,.02.02.03.04-.01.02-.03.03-.03.04,0,0,0,.02.01.03,0,0,0,0,.02-.01.01,0,.03,0,.05,0v.03s-.02,0-.04.01c-.01,0-.03,0-.04,0v.06s.04.02.04.03c0,0,0,.02-.02.04.02.01.03.02.03.03s0,.01,0,.03c0,0,0,0-.01,0,0,0-.01.02,0,.03-.04-.03-.07-.04-.1-.04-.03,0-.06,0-.09,0v-.03s-.03,0-.04,0c0,0-.02,0-.04-.03,0,.02,0,.03,0,.03,0,0,0,0-.03,0,.02.01.04.02.06.02.02,0,.03,0,.05,0l-.02.04s-.05.04-.08.04-.05,0-.08-.01v.03s.04,0,.04,0c0,0,0,.01,0,.03,0,.02,0,.02,0,.03,0,0,0,0-.03,0,0-.01,0-.03-.02-.04-.01-.01-.01-.03,0-.05v-.03s-.02,0-.04.02c-.01.01-.02.02-.04.04,0,.01-.02.02-.03.04,0,.01-.01.02,0,.03-.03,0-.07-.01-.12-.01s-.08.02-.1.06l-.04-.02s-.04,0-.05,0h-.02s-.03.01-.03.01c.02.01.03.02.03.02,0,0,0,.01.01.03h-.06s-.02,0-.02,0c0,0,0,.01-.01.01-.01,0-.03,0-.03,0,0,0-.02,0-.04-.02,0,.03,0,.05,0,.05,0,0-.02.01-.05.02v-.03s-.04,0-.06,0c-.02,0-.05,0-.08,0,0,.02,0,.02,0,.01,0,0,.01,0,.03,0l-.06.02v.03s.01.03.01.03.01,0,.03,0h-.06s0,.04,0,.04,0,0-.02.01v-.02s-.01-.03-.02-.04h-.03s0-.02,0-.03c0,0,0-.02.02-.03h-.03s-.03.04-.04.04c-.01,0-.03.02-.04.04h.03s.01.02.03.03c.02,0,.03.01.05.01,0,.02,0,.03-.02.03,0,0-.01.02,0,.03-.02-.01-.03-.02-.02-.02,0,0,0,0-.02,0,0,.02,0,.03-.01.03,0,0-.01,0-.02,0,0,0,0,0-.01.01,0,0,0,.02,0,.04h.03s.03-.03.04-.04c.02,0,.04-.01.07-.02v.03s0,.03,0,.03c0,0,0,0-.02.01,0,0-.02-.01-.02-.02,0,0,0,0,0,0,0,0,0,0,0,0,0,0,0,0-.01,0l-.02.04h.03s0,.02,0,.02,0,.02-.02.04c.03,0,.05,0,.07-.01s.04,0,.06.02c-.02,0-.02,0-.03.02,0,.01-.01.02-.03.02.03,0,.06,0,.09,0,.03,0,.06.03.08.06-.01,0-.02,0-.02.01s0,.01,0,.02c-.01,0-.02,0-.03,0,0,0-.02,0-.03,0,.02.01.04.01.05,0,.01-.01.03-.02.04-.02l.04.03s-.02.03-.02.04-.01,0-.03,0h.03s0,.01.02,0,.03,0,.05,0l.04.05s.08,0,.11,0,.04.03.04.06c.03,0,.05-.03.08-.08,0,.02,0,.02.01.03,0,0,.02,0,.03,0,0,0,.02,0,.03,0s.02,0,.03,0v.03s-.02,0-.04.01c-.01,0-.03.02-.04.04h.03s.03,0,.03,0,.02,0,.03,0c.01-.03.02-.05.04-.07.01-.01.03-.03.04-.05.01,0,.03,0,.05,0,.02,0,.04,0,.06-.01.02,0,.04-.01.06-.02.02,0,.03-.01.04-.01,0,.01,0,.02,0,.03,0,0,0,0,.01,0,.01,0,.02,0,.03,0,.03,0,.05,0,.06-.01.04-.01.07-.03.1-.06.03-.03.04-.05.04-.06h.03s.07-.07.07-.07l.06-.03s.03.02.05.02c.02,0,.03.01.03.03h-.03s0,.04,0,.04c0,0,0,.01,0,.03h-.03s0,.04,0,.04c-.03.02-.05.04-.06.07-.02.02-.05.04-.09.05v.03s-.02,0-.02,0l-.07.02.07-.02-.07.02ZM8.26,6.74v-.03s0-.03,0-.03c-.01.02-.02.02-.02.02,0,0,0,0,0,.01l-.02.04h.06ZM8.26,6.29v.03s.04,0,.04,0v-.03s-.04,0-.04,0ZM8.34,6.37s0-.02,0-.03c0,0-.01,0-.03,0h-.03s.04.03.04.03h.03ZM8.33,6.6h.03s0-.04,0-.04c-.02,0-.03.01-.04.02s-.01.02-.01.03h.03ZM8.37,6.31s0,0-.01,0c0,0-.01.02,0,.03h.03s0-.03,0-.03ZM8.4,6.33v.03s.03,0,.03,0c0,0,0,0,.01.02.03,0,.05-.01.07-.02.01,0,.02-.01.03-.02,0,0,.01,0,.02-.01,0,0,.01,0,.03-.01.02,0,.03,0,.05,0,.02,0,.03,0,.05,0,.01,0,.02,0,.02-.02v-.02s.04,0,.05,0c.02,0,.02.02.03.04.02,0,.03,0,.04,0,.01,0,.03,0,.05,0v-.03s-.07.01-.07.01v-.03s.03-.01.05-.03c.03-.02.06-.03.09-.03h.03s.06-.02.09-.03c.03,0,.05-.02.06-.04.02.03.05.05.09.05.04,0,.06.01.08,0v-.03s-.03,0-.04,0-.02,0-.04-.02c0,0-.01,0-.02-.01-.01,0-.02-.02-.03-.04,0,0,.02-.02.04-.03.02-.01.03-.02.05-.04.02-.01.03-.02.05-.03.02-.01.03-.02.03-.03-.01,0-.02,0-.03,0,0,0,0,0,0-.02.02,0,.03,0,.05,0s.03,0,.05,0c0,.01,0,.02,0,.03,0,0,.02.01.04.03l.05-.04v-.03s-.04,0-.04,0v-.03c-.05,0-.1,0-.13.02s-.07.04-.12.06c0-.01,0-.03,0-.03,0,0,0-.03-.01-.06.02,0,.04,0,.07-.02s.05-.02.04-.03c-.02,0-.04,0-.07.01-.03,0-.06.01-.09.02-.02-.01-.02-.02-.02-.02,0,0,0,0-.02,0,0,0,.02,0,.02,0,0,0,.01,0,.02,0h.02s0-.04,0-.04c-.03,0-.05,0-.06,0,0,0-.02,0-.04-.02-.01,0-.02.02-.03.02-.02.02-.04.02-.06.03,0,.02,0,.03,0,.03,0,0,.01,0,.03,0,.02,0,.03,0,.03,0,0,0,.01,0,.03,0,0,0,.02.01.03.02,0,0,.02,0,.02.01h.02s-.01.05,0,.07.02.03.02.04c-.01.02-.03.04-.04.06-.01.02-.02.04-.04.06v-.03s-.02-.03-.02-.03h.03s-.01-.07-.01-.07c0,.04-.02.05-.02.04,0,0-.02-.01-.04-.02-.02,0-.03,0-.04.02,0,.01-.02,0-.02,0-.02,0-.02,0-.02-.01,0-.01,0-.01-.02-.01h-.03s-.03-.02-.03-.04c0,0-.01-.01-.04,0v.03s.04.02.04.02h-.03s-.03.02-.05.03c-.02,0-.04,0-.06,0-.02,0-.04,0-.06,0-.02,0-.04,0-.05.02,0,0,0,.01,0,.02v.04s-.05.01-.05.01v.03s-.05,0-.08,0c-.02,0-.05,0-.08.02v.03s.04.03.03.06-.02.04-.03.04c0,.01,0,.02-.02.01-.01,0-.03,0-.05,0v.03ZM8.61,7.05s-.04-.02-.05-.02c-.02,0-.03,0-.05,0v.03s.04,0,.04,0c.02,0,.03,0,.04,0,0,0,.01,0,.03,0ZM8.57,6.52v-.03s-.04,0-.04,0v.03s.04,0,.04,0ZM8.57,6.04v.03s.04,0,.04,0v-.03s-.04,0-.04,0ZM8.64,5.93s0,0,.01,0c.01,0,.02,0,.03.02v-.03s-.04,0-.04,0ZM8.67,5.92v.03s.06,0,.07,0c0,0,.02,0,.04,0,.02,0,.03,0,.03,0s0-.01,0-.02c-.03,0-.06,0-.07,0-.01,0-.03,0-.06,0ZM8.73,5.75h-.03s0,.03,0,.03h.03s0-.03,0-.03ZM8.88,5.85s-.03,0-.03,0c0,0-.02,0-.04-.02-.01,0-.03,0-.04,0-.02,0-.03,0-.05,0v.03s.04,0,.06.01c.02,0,.04.02.05.03,0-.01,0-.02,0-.03,0,0,0-.02.02-.04,0,.02,0,.03,0,.03,0,0,.01,0,.03,0v-.03ZM8.76,5.71h-.03s0,.02.02.02c.01.01.02.02.03.04l.02-.03v-.03s-.03,0-.03,0ZM8.78,6.44v-.03s-.04,0-.04,0v.03s.04,0,.04,0ZM8.78,5.68v.03s.02,0,.02,0c0,0,0,0,0,0,0,0,0,0,0,0,0,0,.02,0,.03.01v-.06s-.04,0-.04,0c0,0-.02,0-.03,0ZM8.99,7.32v-.03s-.04,0-.04,0v.03s.04,0,.04,0ZM9.16,6.24h.03s-.03,0-.04-.01c-.01,0-.03,0-.06,0v.03s.04,0,.05,0c.01,0,.02,0,.02-.02ZM9.25,6.09s0-.02,0-.03c0,0,0-.02,0-.03-.02.02-.03.03-.03.04s0,.02,0,.03h.03ZM9.25,5.77v.03s.04,0,.04,0c.01,0,.02,0,.03,0,0,0,0-.01,0-.03h-.06ZM9.34,5.75h-.03s0,.04,0,.04.01,0,.03,0v-.03ZM9.42,6.12h-.03s.04.03.04.03v-.03ZM9.41,7.18s0,.03,0,.03c0,0,0,.02-.02.03h.03s0-.04,0-.04v-.03ZM9.43,6.02v-.03s-.04,0-.04,0v.03s.04,0,.04,0ZM9.43,6.22v-.03s-.03,0-.03,0v.04s0-.04,0-.04c0,.01,0,.02.02.03h.02ZM9.55,5.97h-.03s0,.04,0,.04c0,0,0,.01-.02.03.02,0,.03,0,.04,0h.02s0-.07,0-.07Z"/>
        <path class="cls-3" d="M11.97,4.91s.01,0,.03-.01h.03s.02.05.02.05c-.01.02-.02.03-.02.03,0,0-.01,0-.03.01l.04.02s-.03,0-.03.01c0,0-.01.02-.02.03.02,0,.03.03.04.05,0,.02,0,.04-.01.04h-.03s.01.05.02.06c0,0,.02.01.03.02,0,0,0,.02,0,.03,0,.02,0,.03,0,.05s0,.03,0,.05,0,.03,0,.03c.02.01.03.01.03,0,0,0,0,0,0,.01,0,.02-.02.04-.02.05,0,.01,0,.02-.02.03h-.03s0,.04,0,.04c.02,0,.03,0,.04.01,0,.01.01.04.02.07-.02,0-.03.01-.03.02s0,.02-.02.02c0,.03,0,.04,0,.04-.01,0-.01,0,0,.02,0,0,.01,0,.02.01,0,0,.01,0,.02.01s0,.01.01.02c-.02,0-.03.01-.03.01,0,0-.01.01-.02.03,0,.02,0,.05,0,.07,0,.02,0,.04,0,.05,0,.02,0,.03,0,.03,0,0-.01.01-.02.02,0,0-.02,0-.02,0,0,0,0,0-.01.01,0,0,0,.02,0,.04l.04.02h-.03s.03.09.03.09l.02.08h-.03s.02.07.02.07c-.01,0-.02,0-.02,0,0,0,0,0,0,.01.02.01.03.02.03.02,0,0,.02,0,.03,0,0,.03-.01.07,0,.09,0,.03,0,.05,0,.07-.01,0-.02,0-.03.01,0,0,0,.01-.01.02s0,.01,0,.02c0,0-.01.02-.03.03,0-.01-.01-.02-.03-.02-.01,0-.02,0-.02-.02,0,.02-.02.03-.02.03,0,0-.02.01-.06.02,0-.01,0-.02,0-.02,0,0,0,0-.01-.01h-.03s-.04-.13-.04-.13h-.03s-.02,0-.02-.01c0,0,0,0-.01,0,.01,0,.02,0,.02-.01,0,0,0-.01,0-.03h-.03s0,.04,0,.04h-.03s0-.02,0-.02v-.03s-.02-.01-.03-.02c0,0,0,0-.01-.01,0,0,0,0-.02,0,0,0-.02,0-.03,0l-.04-.14-.06.02-.03-.09-.06.02-.02-.06v-.03s-.03-.06-.03-.06l-.04-.02s-.03-.03-.04-.05c0-.02,0-.05,0-.06l-.05.02s0-.02,0-.03c0,0,0,0-.01,0-.01.02-.02.04-.02.05,0,.01,0,.02-.02.03-.02,0-.03-.02-.03-.02,0,0,0,0-.02,0l-.06.02v.03s.03,0,.04,0c0,0,.01,0,.01,0,0,0,0,0,.01,0,0,0,.01-.01.03-.02v.03s-.03.04-.02.04c0,0,.01.01.02.03-.01.02-.02.03-.04.04s-.03.02-.04.04h.03s0-.01.01,0c.01,0,.02,0,.03.02-.01.02-.03.03-.04.03-.01,0-.02,0-.01.02.02,0,.03.02.02.04,0,.02,0,.03,0,.05l-.06.02v.03s.04.02.05.02,0,.01.01.03c-.02,0-.03.01-.03.02,0,0,0,.02.01.05h-.03s0,.04,0,.04l-.06.02v.03s.07-.01.07-.01v.22s-.01.03-.02.04c0,0-.01.02-.02.04.04,0,.06,0,.07.02.01.01.03.02.04.03h-.03s-.01.03-.02.03c0,0-.02.01-.03.02,0,0-.02,0-.03.01-.01,0-.03.01-.03.02,0,0-.01.02-.02.03,0,0-.01.02-.02.03,0,0-.02.02-.03.02,0-.01,0-.02-.01-.02,0,0-.01,0-.03,0,.01-.02.02-.03.02-.04,0,0,0-.02,0-.03h-.03s0,.03,0,.02c0,0-.01,0-.03.02,0-.03-.03-.04-.05-.04-.03,0-.07.01-.11.03.01-.02.01-.03,0-.04s-.03-.02-.05-.03h-.03s0-.02,0-.04c0-.02,0-.03,0-.05,0,0-.02,0-.02,0s0,0-.01,0c0,0-.01,0-.02,0,0,0-.02-.01-.03-.02h.03s.03-.02.03-.02c-.02-.02-.04-.04-.04-.05,0,0-.01-.03-.02-.05-.04,0-.06,0-.06-.02s-.01-.02-.02-.05c0,0,0,0,0,0,0,0,0-.01-.02-.02l-.04-.02s-.03-.03-.03-.07c0-.04-.01-.07-.02-.1-.02-.01-.03-.02-.04-.04,0-.01-.01-.03-.02-.04,0,0,0,0,0,0,0,0,0-.02,0-.03-.02-.01-.03-.02-.05-.02-.01,0-.02,0-.03-.02l-.03-.11v-.03s-.04-.04-.04-.06c0,0,0-.02,0-.02,0-.01-.01-.02-.02-.02,0,0-.01,0-.02,0-.01-.02-.02-.03-.04-.05-.01-.01-.02-.03-.03-.04,0-.01-.01-.02-.01-.03.02,0,.03,0,.03,0,0,0,0,0,0-.01,0,0-.01-.02-.03-.02,0,0-.01,0-.02,0,.01-.02.02-.03.02-.02,0,0,0,0,0-.02h-.03s-.03-.01-.04-.02c0-.01-.02-.01-.03-.01l-.05-.15s.06-.07.08-.1.03-.06.05-.1c.03,0,.06-.01.1-.01.03,0,.07,0,.1-.01,0,.01.01.03.03.04.01.01.02.03.03.04h-.03s.02.01.03.02c0,0,.01,0,.02.01,0,0,0,.01,0,.02,0,.02-.01.03,0,.03,0,0,0,0,.01,0l.03.09s.01,0,.01,0h0s0-.01,0,0c0,0,0,0,.02,0-.01.02-.02.03-.02.02s0,0,0,.02l.04.02s-.02,0-.01,0,0,0,0,.03c.02,0,.03,0,.04,0,.01,0,.02,0,.02.02v.03s-.03-.02-.03-.02v.03s-.02.01-.02.01c.02,0,.03,0,.04,0,.01,0,.02,0,.02.02,0,.02-.03.04-.06.06s-.06.04-.07.04v.03s.07-.02.07-.02h.03s.02-.04.02-.04c0,0,.01,0,.03-.01l.04.02.02.06s.02,0,.01,0c0,0,0,.01,0,.03-.01,0-.03,0-.04.02-.01,0-.03.02-.04.04.02,0,.04.01.05.01.01,0,.03,0,.04,0,0,.01.01.02.03.02.02,0,.03.02.04.05.01,0,.03,0,.03.03,0,.02,0,.04,0,.06.03,0,.05-.01.06-.01,0,0,.02,0,.04.01,0-.01,0-.04,0-.06s0-.05,0-.06c0-.01,0-.03.01-.03s.02-.02.03-.04c-.01,0-.02,0-.03,0,0,0,0,0,0-.02-.02,0-.03-.03-.01-.06.01-.03.02-.06.03-.08,0-.01-.01-.03-.03-.04-.01-.01-.02-.03-.03-.04.01,0,.02-.01.02-.02,0,0,0-.01,0-.02.02,0,.02-.01,0-.02-.01,0-.02-.02-.02-.03h.03s-.01-.02-.02-.02c0,0,0,0,0-.02,0,0,0-.02,0-.03,0,0,0-.01,0-.02,0-.01,0-.02.02-.02,0-.03,0-.07,0-.1,0-.03,0-.06-.02-.09,0,0,0-.02.02-.02.01,0,.02-.01.03-.02,0,0,.02,0,.03-.01l-.02-.05s.02-.03.02-.03c0,0,.01,0,.03-.01.02.02.04.05.05.07,0,.02.02.04.05.07.01-.02.02-.03.02-.03s.01,0,.03-.01c.01,0,.02,0,.03,0,0,0,.02,0,.04.02h-.03s-.06.03-.06.03c.02,0,.04.01.06.01.02,0,.04,0,.07-.02,0,.03,0,.05,0,.06,0,.01-.01.02,0,.04.03,0,.06-.02.08-.02.02,0,.04,0,.06.01l.02.06h-.03s0-.01-.01-.02c0,0-.01,0-.03,0v.03s.04,0,.06-.01c.02,0,.03,0,.05.01-.01,0-.03,0-.04.01-.01,0-.01.02-.01.03l-.03.03.06-.02.02.06-.09.03v.03s.04-.03.06-.03c.02,0,.06,0,.1-.02,0,0,0,0,0,.01,0,0,.02.01.03,0,0,.02-.02.03-.02.04,0,0,0,.02,0,.03l.04.02s.03,0,.03,0c0,0,0,0,.01.02l-.03.04s.03,0,.04,0,.02,0,.02.02c-.01,0-.02,0-.04,0-.02,0-.02.01,0,.04h-.03s.05,0,.07,0c.01,0,.02,0,.03.02h.03s-.03,0-.03,0h-.03s.02.07.02.07l.06-.02s0,.02.02.02c0,0,.02.01.03.02.01,0,.03.01.04.02-.01.02-.02.03-.04.04s-.03.01-.05.02v.03s.1-.03.1-.03l.02.05h.03s.03-.02.03-.02h-.03s0,.04,0,.05c0,.02-.02.03-.04.03v.03s.04.02.04.02.02,0,.03,0c0-.02.02-.03.02-.03s.01,0,.03-.01l-.04-.14s.02,0,.02,0,0,0,.01-.01v-.03s0-.03.01-.03c0,0,.01,0,.03-.01v.03s.02-.03.03-.02c0,0,0,0,0-.02h-.03s-.02.01-.03.01c-.02,0-.03,0-.04-.02,0-.01,0-.03,0-.04,0-.02,0-.03.01-.05h.03s-.01-.03-.02-.03c0,0,0-.01,0-.04,0-.01,0-.02,0-.03,0,0,0,0,.02-.01,0-.01-.01-.03-.03-.05-.01-.02-.01-.03,0-.03l.02-.04v.03s.03,0,.03,0c0,0,0,0,.01-.02-.02,0-.03-.02-.04-.03,0-.01-.02-.02-.05-.03.01-.02.02-.04.03-.06.01-.02.02-.04.03-.06v-.03s.05-.02.05-.02c-.02,0-.03-.02-.04-.05-.01-.02-.02-.05-.03-.08.03,0,.05-.02.05-.02,0,0,0-.02,0-.05h-.03s0-.02,0-.05c0-.01,0-.02,0-.04,0-.02,0-.03,0-.05,0-.02,0-.03,0-.05s0-.03,0-.05c0-.01,0-.03.02-.04,0-.02.03-.03.06-.03.03,0,.06,0,.09-.02v.03s.02.03.02.03c-.02,0-.03,0-.03.01,0,0,0,.01,0,.03h.03s-.02.02-.03.02-.01,0-.03.01v.03s.05.02.05.02c0-.01,0-.02,0-.03ZM10.02,5.47s.05-.02.06-.02c0,0,.01-.01.03-.03l-.06.02s-.03,0-.03,0c0,0-.01.01-.03.02,0,0,0,0,0,.02,0,.01.02.02.04.03v-.03ZM10.13,5.6s0,0,.01,0c.01,0,.02,0,.02.02v-.03s-.01,0-.02-.01c0,0-.02-.01-.03,0v.03ZM10.2,5.51h-.03s-.03.02-.03.02c.02,0,.03.02.04.02s.02,0,.03,0v-.03ZM10.16,5.4s-.02.03-.02.04c0,0,0,.01,0,.03h.03s.02-.03.02-.03.02,0,.03-.02h-.03s-.04-.01-.04-.01ZM10.28,5.55h-.03s0,.04,0,.04c0,0,0,.02,0,.03-.02,0-.04-.02-.04-.02,0,0-.02,0-.03,0v.03s.02.03.02.03c0-.02.02-.03.03-.03,0,0,.03,0,.06,0,0-.01,0-.03,0-.05,0,0,0-.02.01-.02v-.03ZM10.22,5.78v.03s.07-.02.07-.02v-.03s0-.01,0-.02.01,0,.02-.01c0,0,0,0,.01,0,0,0,0,0-.02,0,0-.01-.02-.02-.05-.03-.03,0-.05-.02-.07-.03v.03s.03,0,.04,0c0,0,0,0,.01.02h.03s-.03,0-.03,0c0,.01,0,.02,0,.03s0,.02-.02.03v-.03s0,.03,0,.03ZM10.38,5.99l.06.04h.03s.06-.03.06-.03c-.02,0-.04-.01-.07,0-.03,0-.05,0-.07,0ZM10.47,6.27h.03s0-.03,0-.04c0,0,0,0,0-.01s0,0-.02-.01c0,0-.02-.01-.03-.03.02,0,.03,0,.03-.02,0,0,0-.02-.01-.05-.01.02-.02.04-.04.05-.01.02-.02.03-.04.03,0,0,0,0,0,.01,0,0,.02.01.03,0,0,0,.01,0,.02,0,.01,0,.02.02.03.05ZM10.56,5.93l-.04-.02s.03.01.03,0c0,0,0,0,0,.01ZM10.55,6h-.03s0,.04,0,.04c.01,0,.02,0,.02-.01,0,0,.01-.02.03-.04h-.03ZM10.71,6.29h-.03s-.04.03-.06.05c-.02,0-.03.02-.04.03-.01.01-.02.02-.03.03v.03s.03-.01.04-.03c0,0,0-.01.01-.02.02,0,.03.02.03.02,0,0,0,0,.02,0h.03s0-.04,0-.04c.02,0,.03-.01.03-.02,0-.01,0-.02.02-.02v-.03ZM10.66,6.12h-.03s-.03.02-.03.02v.03s.07-.02.07-.02v-.03ZM10.69,6.24s0-.02,0-.01c0,0-.01,0-.03,0v.03s.04,0,.04,0ZM10.75,5.18v.03s-.02,0-.02,0v-.03s.02,0,.02,0ZM10.74,6.16h.03s0-.02,0-.03c0-.01,0-.02.02-.02-.02,0-.03,0-.03,0,0,0-.02,0-.04-.02l.02.06ZM10.76,6.37v.03s.04,0,.04,0h.03s0-.04,0-.04l-.06.02ZM10.77,5.81l.04.02s0-.02-.01-.02c0,0-.01,0-.03,0ZM10.78,5.74l.03.09s.06-.03.09-.05.05-.06.06-.09c-.01,0-.03,0-.03,0,0,0-.01,0-.01,0,0,0,0,0,0,0,0,0,0,0-.02,0-.01,0-.02,0-.03.01s-.01.01-.02.03v.03s-.02,0-.02,0c0,0-.02,0-.04-.02ZM10.8,5.49v.03s.03,0,.03-.01c0,0,0-.01,0-.03h-.03ZM10.8,5.6v.03s.04,0,.04,0v-.03s0-.03.01-.03c0,0,.02,0,.04,0v-.03s-.05-.01-.05-.01c-.01,0-.03.01-.03.03s-.01.03,0,.04ZM10.83,6.35h.03s0-.04,0-.04c0,0,.01-.02,0-.03h-.03s0,.04,0,.04c0,0-.01.02,0,.03ZM10.88,5.86h.03s-.03,0-.03,0c0,.01,0,.02,0,.02s0,0-.02.02h.03s0-.04,0-.04ZM10.91,5.85h.03s0-.03,0-.03l.06-.02v-.03s-.07.02-.07.02c-.01,0-.02.01-.03.02,0,.01,0,.02-.02.02h.03s0,.02,0,.02ZM10.96,6.78v-.03s-.03,0-.04,0-.02,0-.04-.02v.03s.02.02.03.02c.01,0,.02,0,.02.02l.02-.04ZM10.99,6.55l-.03-.08-.06.02s.04.04.04.04c0,0,0,.02-.01.04h.03s.03-.02.03-.02ZM11.01,6.3v-.03s-.04,0-.05,0c0,0-.02-.01-.03,0,0,.01,0,.02,0,.02,0,0,0,0-.02.02,0,0,0,0,.02,0,.01,0,.02,0,.02.02l.06-.02ZM10.97,6.18l-.06.02s0,0,.01,0c.01,0,.02,0,.02.02,0,0,0-.01,0-.02,0-.01,0-.02.02-.02ZM10.99,5.89s.02-.03.02-.03c0,0,.01,0,.03-.01-.02,0-.03-.01-.04-.02,0,0-.02,0-.03,0l-.02.04s.03,0,.03,0c0,0,0,0,0,.01ZM10.98,5.34v.03s.03-.04.03-.04c0,0,0,0,0-.01,0,0-.02,0-.03,0v.03ZM11.04,6.16v-.03s-.04,0-.04,0c.01,0,.02,0,.03,0,0,0,0,0,0,0ZM11.07,5.41s-.03-.02-.03-.02c0,0-.02,0-.03,0v.03s.07-.02.07-.02ZM11.03,5.69v-.03s-.01.01-.02.02c0,.01,0,.02.02.01ZM11.13,5.29s0,.01,0,.02c0,.01,0,.02-.02.02v-.03s-.02-.03-.02-.03h.03s0,.02,0,.02ZM11.11,5.83h0s0,0,0,0v.03s0-.03,0-.03ZM11.34,5.66v.03s.04,0,.04,0v-.03s-.04,0-.04,0ZM11.4,5.83v-.03s-.02-.02-.02,0c0,0,0,.01-.02.02v.03s.04,0,.04,0ZM11.42,6.14l.04.02s-.03-.02-.02-.02c0,0,0,0-.01,0ZM11.53,5.73v-.03s.01.02.01.02c0,0,0,0-.01,0Z"/>
        <path class="cls-3" d="M8.1,11.63v.04s-.03.03-.05.05-.03.03-.04.05c-.01.02-.03.03-.05.04-.02.01-.04.02-.06.03,0,.02,0,.03,0,.04,0,0,0,.02-.02.05-.03-.01-.06-.01-.1,0-.04.01-.08.03-.11.06v.03s-.02,0-.02,0v.03s-.02.01-.02.01v-.03s-.04.01-.04.03c0,.01,0,.02-.03.03h.03s-.03,0-.03,0c0,.02-.01.04-.03.05-.02,0-.04.01-.06.02-.02,0-.04,0-.05,0-.02,0-.02,0-.02.02-.02,0-.03,0-.03.01,0,0-.01.02-.03.04.01-.02.02-.04.02-.04,0,0-.02-.02-.04-.03,0,0,0,.02,0,.03,0,.01-.02.02-.03.04-.01.01-.02.02-.04.03-.01,0-.03.01-.03.02h-.04s-.03.03-.03.04c0,.01-.01.02-.03.03-.04,0-.07-.02-.1-.02-.03,0-.06,0-.09,0h-.04s-.04,0-.04,0c0,.01-.01.02-.03.03-.02-.01-.04-.02-.04-.03,0,0-.02-.01-.04-.02,0,.03-.03.04-.11.03,0-.01-.01-.03-.02-.04s-.03-.02-.07,0c0,.02,0,.03-.01.04-.01,0-.03.01-.05.02v-.04s.01-.04.03-.04c.02,0,.03-.01.05-.02v-.03s-.08.03-.12.05c-.04.02-.07.04-.08.04l-.03-.1s0-.02-.02-.02c0,0-.02,0-.03,0-.01,0-.02,0-.03,0s-.01,0-.02-.01c.01-.02.03-.04.07-.04s.07-.02.09-.05c-.02,0-.04.02-.07.03-.03.02-.05.02-.07,0-.02,0-.03,0-.04,0,0,0,0-.01,0-.02-.02,0-.03,0-.04,0-.02,0-.04,0-.04-.02,0-.02,0-.03,0-.04.01,0,.02-.02,0-.04.01,0,.03,0,.04,0,.01,0,.02,0,.03,0,.01,0,.02-.01.03-.02-.04,0-.07,0-.08,0,0,0-.02,0-.04,0v.03s-.03.01-.03.01c0-.02-.01-.03-.02-.03,0,0-.02,0-.03,0-.01,0-.03,0-.04,0-.01,0-.03-.01-.04-.03h.03s.07-.03.07-.03c-.02-.01-.04-.02-.04-.03,0,0-.02-.01-.05-.02h-.03s-.01-.02-.01-.02l.02-.05s.05.02.07.03c.02,0,.05,0,.09,0l-.04-.02.02-.05s-.08,0-.11-.01c-.04,0-.06,0-.08,0,0-.02.02-.04.02-.04s.02,0,.04-.02l-.03-.1h-.04s0-.02,0-.02c.02,0,.05-.02.09-.03.04-.01.06-.03.07-.06-.03,0-.06.02-.08.02-.02,0-.04,0-.06-.01,0,.02,0,.03,0,.03,0,0-.01,0-.03.01l-.04-.02s0-.02.01-.02c0,0,0,0,0,0,0,0,0,0-.01,0,0,0-.02-.01-.03-.03.02,0,.03,0,.03-.01,0,0,0-.01,0-.03l-.02-.07s.02-.02.02-.03c0,0,0-.02,0-.03,0,0,0-.01,0-.02,0,0,.01,0,.03-.01,0,.02.02.03.03.03.02,0,.03,0,.05-.01-.01-.01-.02-.03-.03-.03s-.02-.01-.03-.02c0,0,0-.01-.01-.02,0,0,0-.01,0-.03,0-.04.01-.06.02-.08,0-.02,0-.04,0-.08h.04s-.01-.04-.02-.05c0,0-.02-.01-.02-.02,0,0-.02,0-.02,0h.04s-.02-.08-.02-.08l.02-.04s.04-.01.07-.02c.03-.01.05-.03.06-.05,0-.02-.02-.04-.04-.06-.02-.03-.02-.05,0-.07,0,.02,0,.03.01.03,0,0,.01,0,.03,0,.01-.02.02-.03.03-.02s.02,0,.04,0v-.03s-.03-.03-.04-.03-.04-.02-.07-.05l.14-.04s-.01-.06,0-.07c0-.01,0-.03,0-.04v-.04s.02-.01.02-.02.03-.01.07,0c0-.02-.01-.04-.01-.06,0-.02,0-.03,0-.04,0-.01,0-.02,0-.03,0,0,0-.01,0-.02h.03s.02.05.02.05c.02,0,.03,0,.03-.01,0,0,0-.01,0-.03,0,.02.02.02.03.02.02,0,.03-.02.04-.04-.02,0-.03,0-.03,0,0,0-.02,0-.05-.02.01-.03.03-.04.04-.05.01,0,.01-.02,0-.04.02,0,.02,0,.02,0,0,0,0,.01.02.02v-.03s-.02-.03-.04-.03c-.01,0-.02-.01-.03-.03l.14-.04v-.03s.08-.03.09-.04c.02,0,.02-.02.02-.04l.09.05s0-.03,0-.03c0,0,.01,0,.02,0,.02.01.04.02.05.02s.02.01.05.03c0-.04.02-.08.06-.11.04-.03.07-.06.1-.09.02.01.05.02.06.02.02,0,.03.02.04.06h.04s.01.02.01.02c0,0,.01,0,.03,0,0-.01,0-.02,0-.02,0,0,0,0,0,0,0,0,0,0,.02,0,0,0,.02,0,.04,0v-.04s.03.03.04.04c0,.02.03.03.05.04,0,0,.01-.02.01-.02,0,0,0,0,0,0,0,0,0,0,0,0,0,0,0,0,.02,0,0,.01,0,.03,0,.03,0,0,0,.02-.02.05h.04s.07-.03.07-.03c0,.02,0,.03.01.03,0,0,.01,0,.03,0l.02.07.02-.05v.04s.03.07.03.07c.01,0,.02,0,.03.02v.02s0-.02,0-.01c0,0-.01,0-.03.02,0,.01-.02.02-.04.04,0-.02,0-.03-.01-.03s-.02-.01-.04-.02c0,0,0,.01,0,.02,0,0-.01,0-.02.01,0,0-.02,0-.02,0,0,0,0,0,0,.02v-.03s-.08.02-.08.02l-.17.05s-.01-.04-.02-.05c0-.01-.02-.02-.04,0h-.03s-.01-.02-.01-.02-.01,0-.03,0c-.02-.01-.05-.01-.06-.01-.02,0-.04,0-.05.01,0,.02,0,.03,0,.03,0,0,0,.02-.01.04.01,0,.02,0,.03,0,0,0,0,.01.01.03l-.27.08v.04s.02.03.02.03l-.07.02s0,.06,0,.07c-.01,0-.03.02-.04.02h-.04s-.02.05-.02.07c0,.02,0,.04-.02.06-.02-.01-.04-.02-.05-.02,0,0-.02,0-.03,0v.03s.03,0,.02,0,0,.02,0,.03c0,.02,0,.03,0,.03,0,0-.01,0-.03.01l-.02-.07h-.04s.01.04.01.04c0,.02,0,.03.01.04,0,0,.02.01.04.02-.02,0-.04.02-.05.03s-.03.03-.05.03c0-.02,0-.03,0-.04,0,0,0,0-.02,0-.01.02-.03.04-.04.05-.02,0-.05.02-.08.03v.03s.04,0,.04,0c0,0,0-.01.02-.02.01,0,.02,0,.02,0,.02,0,.03,0,.03,0,0,0,0,.01.01.03h-.03s-.02.06-.02.07c0,.02,0,.03,0,.05l.02.07s-.05.06-.06.08c-.01.03-.02.06-.03.1v.03s.02,0,.03,0c.01,0,.02.01.03.03-.01.02-.02.04-.02.04,0,0,0,.02,0,.03.02,0,.03,0,.03,0,0,0,0,.01.01.03h-.03s-.07.03-.07.03c.02.01.04.02.06.02.02,0,.03,0,.03.02,0,.02,0,.03,0,.04s-.01.02,0,.04l.09.05s-.02.04-.02.06c0,.02,0,.03-.03.03l.05.02s.03.03.03.03c0,0,0,.02,0,.04h.03s.01,0,.02.01c0,0,.01,0,.02,0,.01,0,.02.01.02.02s0,.01,0,.02c0,0,0,0,0,.01,0,0,.02,0,.03,0,0,0,.03,0,.07,0,.03,0,.07,0,.1,0,.04,0,.07,0,.1.01.03,0,.05.02.05.03v.03s0,.02,0,.03c0,.02,0,.04,0,.05l.07-.02.07-.02s0,.03,0,.03c0,0,0,.02-.02.05.02,0,.03,0,.04,0,0,0,.01,0,.02,0s.01,0,.02,0c0,0,.02,0,.04,0v-.03s-.05-.02-.05-.03c0,0,0,0,.03-.01l.07-.02s.02.04.04.05c.02.01.04.03.06.04l.21-.06s-.01-.02-.02-.02c-.01,0,0,0,.01,0l.06-.02s0-.03,0-.04c0,0,0-.02.02-.05.01,0,.03.01.04.02.02,0,.03,0,.05,0,.02,0,.04,0,.06-.01h.04s-.04-.03-.04-.04,0-.02-.01-.03h.04s.03-.02.03-.02c0,0,0,.02,0,.03,0,0,0,.02,0,.03,0,.01,0,.02,0,.03l.07-.02s.01.03.02.04c0,.01.02.02.04.01v-.03s-.02-.03-.02-.03c0,0-.01,0-.03,0v-.04s-.04,0-.03,0c0,0,0-.01-.03-.02.02,0,.03-.02.03-.04s0-.04.02-.06c0,.02.02.03.04.04.02.01.04.02.06,0v-.04s-.02-.03-.02-.03l.06-.02.11-.03s.02-.01.03-.02c0,0,0-.01,0-.02.02,0,.04,0,.06,0,.03,0,.05,0,.09.03,0,.01,0,.03,0,.04,0,.01.02.03.02.04,0,0,.01.02.01.02,0,0,0,.01,0,.01,0,.02,0,.04-.01.06,0,.01-.02.02-.03.03ZM5.97,11.41s0-.02-.01-.02c0,0-.02,0-.04,0,0,0,0,0,.02,0,.02,0,.03,0,.03.02ZM6,11.14h-.04s.02.08.02.08v-.04s.02-.01.02-.01,0-.01,0-.03ZM6.03,11.02v.03s.04-.01.04-.01v-.03s-.04.01-.04.01ZM6.05,11.2v.03s.04.02.05.02c0,0,0,0,0-.03,0-.02,0-.02,0-.01,0,0-.01,0-.04,0ZM6.13,10.95v-.03s-.05.01-.05.01l.05.02ZM6.08,11.68v.03s.04-.01.04-.01v-.03s-.04,0-.04,0ZM6.12,10.8l-.02.04s.04.02.04.02c0,0,.02,0,.03,0v-.03s-.04,0-.04,0c0,0,0,0,0-.02ZM6.19,11.42v-.03s-.02,0-.03,0c-.01,0-.02-.01-.03-.03l.02.07h.04ZM6.24,12.08v-.03s-.04.01-.04.01l.04.02ZM6.22,11.86l.02.07h.03s0-.04,0-.05c0,0,0,0,.02,0h-.03s0-.02,0-.02c0,0,0-.02.02-.05l-.07.02v.04ZM6.26,10.53h-.03s0,.03,0,.02c0-.01,0-.02.02-.02ZM6.33,10.37l-.07.02.04.02h.04s0-.04,0-.04ZM6.37,10.27l-.06.02s.02.05.03.04c.01-.01.03-.02.04-.02v-.03ZM6.44,12.21s-.03,0-.04,0c0,0-.02,0-.04-.02v.03s.05.03.05.03l.02-.05ZM6.42,12.03s0,.03,0,.04c0,0,0,.02.02.03.03-.03.06-.04.08-.04.03,0,.05,0,.09-.01v-.03s-.08-.01-.11,0c-.02,0-.05,0-.09.02ZM6.49,10.16v.04s.05-.01.08-.02.05-.03.06-.05h-.03s-.1.04-.1.04ZM6.5,9.82v.03s.04,0,.04,0v-.03s-.04.01-.04.01ZM6.52,11.88s0,.03,0,.04c0,0-.01.02,0,.04l.07-.02-.02-.07h-.03ZM6.52,12.11s.02.03.03.03c.01,0,.03,0,.05-.01v-.04s-.08.02-.08.02ZM6.55,9.88h.04s0,.02,0,.02v-.03s-.05.01-.05.01ZM6.6,12.27l.03-.04h-.04s0,.04,0,.04ZM6.66,12.07h-.04s.01.05.01.05c.02,0,.03-.01.03-.01,0,0,0-.02,0-.04h.03s-.03,0-.03,0ZM6.72,12.28v-.04s-.03.04-.04.05c0,0-.02.01-.03.02l.07-.02ZM6.73,11.82h-.03s0,.03,0,.02c0,0,0-.02.02-.02ZM6.78,12.11h-.04s.05.04.05.04v-.04ZM6.89,11.96s.01,0,.02-.01c0,0,0,0,0,0t0,0s0,0,.02,0c-.02,0-.03,0-.03.01,0,0,0,.01,0,.03.02,0,.03-.01.03-.03,0-.01.01-.02.03-.03,0-.02-.01-.03-.03-.03-.01,0-.02-.01-.03-.03-.01.03-.02.04-.02.05,0,0,0,.02,0,.04ZM6.91,9.69s0,.03,0,.03c0,0-.01,0-.03.01.03.01.04.02.05.02,0,0,.03,0,.06-.01v-.04s-.04,0-.04,0c-.02-.01-.03-.02-.03-.02,0,0,0,0-.02,0ZM6.97,12.12s0,.03-.01.04c-.01.01-.02.03-.04.05.03-.01.05-.02.06-.02,0,0,.02,0,.05.01v-.03s-.03-.07-.03-.07h-.03ZM7.05,12.13v.04s.05.02.06.02c.01,0,.02.01.03.02,0,0,.01,0,.02.01,0,0,.02,0,.04.01v-.04s-.05.01-.05.01l-.04-.02s.03,0,.03-.01c0,0,.01-.02.03-.04l-.05-.03-.07.02ZM7.38,9.77s-.04.02-.06.04-.03.04-.02.06h.03s.07-.03.07-.03l-.02-.07ZM7.53,11.84h-.03s.04.03.05.05c0,.01.02.02.04,0v-.04s-.06-.02-.06-.02ZM7.63,11.81v.03s.04,0,.05,0c0,0,0,.01,0,.02l-.02-.07h-.04ZM7.81,11.64v.03s.04-.01.04-.01c0,0,.01-.02.02-.04l-.07.02ZM7.89,11.54h-.04s0,.03.01.03c0,0,.01,0,.03,0v-.03ZM7.92,11.53v.03s.04-.01.04-.01h.03s0-.04,0-.04l-.02.04-.02-.07s0,.03,0,.04c0,0-.01,0-.03.02Z"/>
        <path class="cls-3" d="M9.39,11.63l-.09.03s-.03.01-.04.03c-.01.01-.03.02-.04.03-.02,0-.03-.01-.04-.02s-.02,0-.03,0c0-.02,0-.03,0-.04,0,0,0-.02-.02-.03l-.16.02s0,0,0-.01c-.01,0-.02-.01-.03-.01h-.03s0-.01-.01-.02c0,0-.02,0-.03-.02,0-.02.01-.04,0-.04,0,0-.01-.01-.03-.02h-.03s-.03.01-.04,0c0,0-.02,0-.03,0h-.03s-.02-.04-.04-.06-.03-.02-.05-.03c-.02,0-.03-.01-.05-.02-.02,0-.03-.02-.05-.04l-.03-.09.02-.03s-.01,0-.02-.02c-.01-.01-.02-.02-.03-.04h-.03s-.01-.01-.03-.02c-.01,0-.02-.02-.03-.05h.03s0-.04,0-.04c0,0,0-.02.02-.04-.02,0-.04-.01-.05-.02s-.02,0-.03-.02c.01,0,.03-.01.06-.02.02,0,.03-.02.03-.04-.03,0-.06.01-.09,0-.03,0-.06-.01-.08-.02h.03s.01-.01.02-.02c.02,0,.03-.02.04-.04-.02-.01-.04-.02-.06-.01-.02,0-.04,0-.08.02h.03s0-.04.02-.05c.02-.01.03-.02.02-.04,0-.02-.01-.03-.02-.04,0-.01-.02-.01-.03,0l.02-.04.09-.03-.02-.07s-.05.04-.05.04c0,0-.03.01-.06.02v-.03s0-.03,0-.04c.01,0,.02-.02.03-.05l-.02-.06.06-.02s0-.04,0-.06c0-.01,0-.02,0-.04l.06-.02v-.03s-.04,0-.04,0l-.02-.06s.03-.01.04-.03.04-.02.08-.01v-.03s-.03,0-.04,0c0,0,0,0-.01,0,0,0,0,0,0,0,0,0,0,0,0-.01h.04s0-.04,0-.03.01,0,0-.02l.02-.04-.06.02.02-.04h.03s0-.03.02-.03c.02,0,.03,0,.04,0,0-.03,0-.04,0-.05.01,0,.03-.01.04-.03v-.07s.07-.01.1-.01c.03,0,.06,0,.1-.01,0,.02,0,.02,0,.01,0,0,0-.02.02-.02,0,0,0,.01,0,.02,0,0,.02,0,.03,0l.06-.02v-.03s-.05-.02-.05-.02l.06-.02.09-.03s0,.02,0,.03c0,0,0,.02.02.03l.07-.02s0,.02.01.02c0,0,.01,0,.03,0,0,.01.01.02.03.02.01,0,.03,0,.04,0,.01,0,.02.01.02.02,0,0,.01.02.02.03,0,0,.02.01.03.02.01,0,.03,0,.05,0,0-.02,0-.02.01-.02.01,0,.03,0,.05,0,0,.03,0,.05,0,.06,0,.01-.01.02,0,.04.01-.02.02-.03.03-.03,0,0,.02,0,.04.01v.03s.07-.02.07-.02l.02.07h.03s0,.02,0,.02c.01,0,.02,0,.02.03s0,.04,0,.06l.06-.02s.01.03.02.04c.01.01.02.02.03.03,0,.01.02.02.03.04.01.01.02.03.03.06,0,0,0,0-.01,0,0,0,0,.02,0,.03,0,0,0,0-.02,0-.01,0-.02-.01-.02-.02.02.05.03.08.04.1.01.02.01.04,0,.06v.03s-.06.02-.06.02l.03.09s.02-.02.02-.02c0,0,0,.02.01.04,0,0,.01-.02.01-.02s0,0,0-.01c0,0,0,0,0,0,0,0,0,0,.02,0v.03s.02.03.02.03l.02.06s-.03.01-.03.03c0,.01-.01.02-.02.02h.03s.04,0,.04,0h-.04s.02.08.02.08c-.01,0-.03,0-.03,0,0,0-.02,0-.03.02,0,.01.01.02.02.02.01,0,.02.02.03.05-.02,0-.02,0-.03.01,0,0,0,.01,0,.03v.03s-.02.01-.02.02c0,0,0,.02.01.06-.01,0-.02,0-.02,0s0,0,0,.04c0-.02.01-.03.02-.03,0,0,.02,0,.04.01-.01.03-.02.04-.03.05,0,0-.01.02,0,.03,0,.04-.02.06-.03.07-.01.01-.02.03-.03.05l.04.02-.02.04s-.02,0-.03.01c0,0-.02.02-.05.05.01,0,.02,0,.03,0,0,0,0,0,.01.02,0,.02,0,.03,0,.03,0,0,0,0-.02.01l-.06.02.02.06-.12.04v-.03s-.04-.03-.04-.03c-.02,0-.04.01-.04.02-.01,0-.02.02-.01.03ZM8.37,10.6h.03s0-.02,0-.02c0,0-.02,0-.03,0h-.04s-.02.02-.02.03c0,0,0,.01,0,.02l.06-.02ZM8.33,10.37h.03s-.01-.04-.01-.04h-.03s.01.04.01.04ZM8.39,10.87s0-.03,0-.04c0,0,.01-.02.02-.02,0,0,.02-.01.02-.02,0,0,.02-.02.02-.04h-.03s-.01-.02-.03-.01-.03,0-.04,0c0,.02-.01.04,0,.06,0,.02,0,.04.02.08h.03ZM8.42,10.45v.03s.1-.03.1-.03c.01,0,.02-.01.03-.02,0,0,0-.01,0-.02-.02,0-.03,0-.03,0,0,0-.02,0-.04-.02,0,.02,0,.03,0,.04-.01,0-.03.01-.05.02ZM8.48,10.29s0,0-.01,0c0,0,0,.02,0,.04.01,0,.03,0,.03,0,0,0,.02.01.04,0,0-.02.02-.03.02-.03,0,0,.01,0,.03-.01v-.04s-.11.03-.11.03ZM8.58,11.41v-.03s-.03,0-.03,0v.03s.03,0,.03,0ZM8.56,10.57s.03,0,.03-.01,0-.01,0-.03h-.03s0,.02,0,.03c0,.01,0,.01.02,0ZM8.62,10.32s-.03,0-.03,0c0,0,0-.01-.01-.03,0,.02,0,.03,0,.04,0,0,0,.02,0,.02,0,0,0,.01-.01.01.02,0,.03,0,.04,0,0,0,.02.01.04,0l-.02-.06ZM8.59,10.02h-.03s0,.04,0,.04h.03s0-.04,0-.04ZM8.88,11.38s.07.03.11.04c.04,0,.08.01.12.01s.08,0,.12,0c.04,0,.07,0,.09-.02,0,.02,0,.02,0,.01,0,0,0-.02.02-.02v-.03s.05,0,.04-.03c0-.02,0-.05,0-.09l.07-.02v-.03s0-.07.03-.09c.02-.03.03-.06.04-.1.01-.04.02-.09.02-.13,0-.04,0-.08,0-.12,0-.04,0-.08,0-.12,0-.04,0-.08.01-.11-.02,0-.04-.03-.05-.06-.01-.03-.02-.06-.03-.09h-.03s-.01,0-.02,0c0,0-.01,0-.02,0,0-.01-.01-.02-.02-.02,0,0-.01,0-.02,0v-.04s-.08.02-.08.02v-.03s-.04,0-.06,0c0,0-.02,0-.02,0v-.03s.01,0,0,0c0,0,0-.01,0-.03h-.03s-.02.04-.02.05c0,0-.01,0-.03.01l-.04-.02s0,.02-.03.02-.04,0-.06,0c-.01.01-.03.02-.05.04-.02.01-.05.02-.07.04-.02.01-.05.02-.06.04-.02.01-.03.02-.04.03-.03.03-.04.05-.04.06,0,.02,0,.03,0,.05-.01,0-.02,0-.03.01h0s0,.02-.01.03c0,0-.01,0-.03.01l.02.06s-.05.02-.05.04c0,.02,0,.04-.01.08-.02-.01-.03-.01-.03,0s-.01.02-.03.02c.01.02.03.05.04.08,0,.04.02.07.03.11,0,.04.01.07.01.1,0,.03,0,.05-.01.06-.02,0-.03-.02-.02-.02s0,0-.01,0v.03s.08.01.1.03c.02.02.04.05.05.09.01,0,.02,0,.01,0,0,0,0,.02,0,.03.02,0,.04,0,.05.01s.02.01.02.02c0,0,0,.01.01.02,0,0,.02.01.04.01ZM8.64,10.18h-.03s0,.03.01.03c0,0,.01,0,.02,0v-.03ZM8.72,10.29h-.04s.06.06.06.06l.02-.04h-.03s0-.02,0-.02ZM8.98,10.28v.03s.04,0,.04,0v-.03s-.04,0-.04,0ZM9.07,10.25h.03s.03-.02.03-.02h.03s-.04-.03-.04-.03,0-.01-.01-.03c0,.02,0,.03-.01.04-.01,0-.02.02-.03.04ZM9.6,10.23s-.02,0-.03.01c0,0,0,.01,0,.03v.04s.01-.03.02-.04,0-.01,0-.02c0,0,0,0,0,0,0,0,0,0,0-.01ZM9.71,11.34v-.04s-.04,0-.04,0h-.04s.01.05.01.05l.07-.02ZM9.69,11.17h.03s0-.04,0-.04l-.02.04Z"/>
        <path class="cls-3" d="M10.5,9.89h.02s0,0,.02-.01.01,0,.02,0c.01.03.02.05.04.06.01,0,.02.03.04.06-.04,0-.07,0-.08,0-.02,0-.03.02-.04.04v.03s.04,0,.04,0c0,.01,0,.02,0,.02,0,0,0,.01.02.04h.03s-.02-.06-.02-.06c0,0,0-.01.03-.02h.03s.01.02.03.03c.01.01.02.03,0,.05h-.03s-.03.01-.04,0c0,0-.02-.01-.03,0v.03s.04.02.03.03c0,0,0,.02,0,.03.02,0,.03,0,.03,0,0,0,0,.01.02.03v.03s.01.01.01.02c0,.01,0,.02-.02.02h-.03s.04.03.06.03c.02,0,.03,0,.05.02,0,.01,0,.03,0,.05,0,0,0,.02,0,.02.02.01.04.02.04.02,0,0,.02,0,.03,0,0,.02-.01.04,0,.05,0,.02.02.04.05.07-.03,0-.05.02-.05.03,0,.01-.01.02-.03.02l.02.03.09-.03s-.02.03-.04.04c-.01,0-.02.02-.03.05,0,0,.02,0,.03,0,0,0,.02,0,.02,0,0,0,.01,0,.02,0s.01.01.02.03c-.02,0-.03,0-.03.01,0,0,0,.01,0,.03-.02-.01-.03-.02-.04-.02,0,0-.02,0-.03,0l.02.06s0,.01.02.02c.01,0,.03.01.04.01s.03,0,.04,0,.02-.02.02-.04l.02.06s-.01.01-.02.02c0,.01,0,.02,0,.04,0,.01,0,.03,0,.05.02.01.04.02.04.02,0,0,0,.01.01.03-.02,0-.03,0-.03.01,0,0,0,.02-.02.04,0-.02,0-.03-.01-.03,0,0-.02,0-.04-.02v.03s.02.03.02.03c0,0,0,0,0,.01,0,.01,0,.02-.02.02.01,0,.02,0,.02,0s0,.01.03.02c-.02,0-.03,0-.04,0,0,0-.02,0-.02,0,0,0,0,0-.01.01,0,0,0,0-.01.01h-.03s.02-.02.03-.03c0,0,.01-.02,0-.04h-.03s-.03.01-.04,0-.01-.03-.02-.04c-.02-.01-.04-.02-.07-.01-.02,0-.04,0-.04-.02l-.04-.05s-.02-.03-.03-.05c0-.01-.02-.03-.02-.05h.03s0,.02,0,.02v-.03s-.01-.03-.02-.04c0,0-.01-.01-.02-.02,0,0-.01,0-.02-.01s-.01,0-.01-.02c0,0,0,0,0-.02v-.04s.01,0,.02,0c0,0,0,0,0-.01-.02,0-.04-.01-.05-.01-.01,0-.03,0-.03-.03h.03s-.02-.06-.03-.06c-.01,0-.02-.01-.03-.03,0,0,0-.01,0-.02,0-.02,0-.03,0-.05-.01-.02-.03-.04-.04-.05s-.02-.02-.02-.03,0-.02,0-.03c0-.01,0-.02,0-.04,0,0,0-.01-.02-.02,0,0-.01,0-.02-.01,0,0-.01,0-.02-.02,0,0,0-.02,0-.04h.03s-.02-.04-.03-.06c-.02-.02-.02-.04-.01-.07v-.03s-.03-.02-.03-.04c0-.02-.01-.04-.02-.06s-.01-.04-.02-.07c0-.02,0-.04-.01-.06.01-.02.02-.04.02-.04,0,0,0-.03-.02-.06-.02,0-.03-.02-.02-.03,0,0,0-.02,0-.04h-.03s0-.02,0-.02v-.03s-.03-.02-.03-.03c0-.01,0-.03-.01-.06.01-.02,0-.04,0-.07-.02-.02-.03-.04-.03-.06,0-.02,0-.03,0-.04,0,0,.01-.02,0-.04-.02,0-.03-.02-.04-.02,0,0,0-.01-.01-.03,0-.01,0-.03,0-.05s0-.04,0-.05l-.05-.02s.02-.02.02-.04,0-.03,0-.04c0-.01,0-.03,0-.04,0-.02,0-.03,0-.05,0-.02,0-.03,0-.03,0,0,0,0,.03-.02,0,0,0-.01-.01-.02s0-.02,0-.03v-.04s0-.03,0-.04c0,0,0-.02,0-.03,0-.01-.01-.02-.02-.02s-.02-.01-.02-.03c0,0,0-.03,0-.05s-.01-.05-.01-.08c0-.03,0-.06,0-.08,0-.02,0-.04.02-.04v-.03s.03.02.05.03c.02.01.03.03.04.04v.03s.05.03.05.04c0,.02.02.04.03.07v.04s.02.03.03.04c0,.01.01.03.02.04h.03s.04,0,.06.02c.02.01.03.04.04.07,0,.02,0,.02,0,.02-.01,0-.01,0,0,.02,0,.01.02.03.04.04.02,0,.03.02.02.04h-.03s.03.03.02.04c0,0,0,.01.02.02.02.02.03.04.03.05,0,.01,0,.03,0,.04s0,.02,0,.04c0,.01,0,.03,0,.04.02.01.04.03.05.06.01.03.02.06.03.09h-.03s.01.04.01.04c.02.01.03.02.03.03,0,0,0,.01.01.03-.01,0-.02,0-.02.01s0,.01,0,.03c0,.01.01.03.02.04,0,.01.02.03.04.04-.01,0-.02,0-.03.01,0,0,0,.03-.01.06.01,0,.02,0,.01,0,0,0,0,.02,0,.03h.03s.03-.01.03,0c0,.01.01.03.02.04,0,0-.01,0-.02.01s-.02.01-.03.02c0,.01-.02.02-.03.03l-.02.04h.03ZM10.09,8.9v.03s.04,0,.04,0v-.03s-.04,0-.04,0ZM10.17,9.25v.03s.04-.01.04-.01l.06-.02v-.03s-.07.02-.07.02h-.03ZM10.21,9.47h-.03s.06,0,.06,0v-.03s-.04,0-.04,0v.03ZM10.25,9.39s.03,0,.05,0c.02,0,.04.02.06.02l-.02-.06s-.01,0-.02,0c-.02,0-.04,0-.05,0h-.03s0,.04,0,.04ZM10.32,9.57h-.03s-.01.02-.01.02c0,0,0,.02,0,.03.01,0,.02,0,.02,0,0,.01,0,.02.02,0,.01-.02.02-.03.02-.04,0,0,0-.02-.01-.03ZM10.34,9.74h.03s-.01-.04-.01-.04h-.03s0,.04,0,.04c0,0,0,0,.01,0ZM10.34,9.54v.03s.04-.01.04-.01c0,0-.01-.02-.03-.02,0,0-.01,0-.02,0ZM10.51,10.33v-.03s-.04,0-.04,0c-.02,0-.03-.01-.04-.01,0,0-.01.01-.03.04v.03s.06-.02.07-.02c0,0,.02,0,.04-.01ZM10.48,10.03h-.03s0,.04,0,.04h.03s-.01-.04-.01-.04ZM10.66,10.38s-.03,0-.04,0c0,0-.03,0-.06,0l.04.02s.02.02.03.02c.01,0,.03,0,.04-.01l-.02-.03ZM10.72,10.64v-.03s-.09-.04-.09-.04v.03s.02,0,.03,0c0,0,0,0,0,0,0,0,0,0,0,.01s0,.02,0,.03l.06-.02ZM10.73,10.46s-.02.04-.02.04c0,0,0,.02,0,.03l.06-.02s-.02-.02-.03-.02c-.01,0-.02-.01-.03-.03ZM10.8,10.88v.03s.04-.01.04-.01v-.03s-.04.01-.04.01Z"/>
        <path class="cls-3" d="M12.32,10.74l-.09.03s-.03.01-.04.03c-.01.01-.03.02-.04.03-.02,0-.03-.02-.04-.02,0,0-.02,0-.03,0,0-.02,0-.03,0-.04,0,0,0-.02-.02-.03l-.16.02s0,0,0-.01c-.01,0-.02-.01-.03-.01h-.03s0-.01-.01-.02c0,0-.02,0-.03-.02,0-.02.01-.04,0-.04,0,0-.01-.01-.03-.02h-.03s-.03.01-.04,0c0,0-.02,0-.03,0h-.03s-.02-.04-.04-.06-.03-.02-.05-.03c-.02,0-.03-.01-.05-.02-.02,0-.03-.02-.05-.04l-.03-.09.02-.03s-.01,0-.02-.02c-.02-.01-.02-.02-.03-.04h-.03s-.01-.01-.03-.02-.02-.02-.03-.05h.03s0-.04,0-.04c0,0,0-.02.02-.04-.02,0-.04-.01-.05-.02s-.02,0-.03-.02c.01,0,.03-.01.05-.02.02,0,.03-.02.03-.04-.03,0-.06.01-.09,0-.03,0-.06-.01-.08-.02h.03s.01-.01.02-.02c.02,0,.03-.02.04-.04-.02-.01-.04-.02-.06-.01-.02,0-.04,0-.08.02h.03s0-.04.02-.05c.02-.01.03-.02.02-.04,0-.02-.01-.03-.02-.04,0-.01-.02-.01-.03,0l.02-.04.09-.03-.02-.07s-.05.04-.05.04c0,0-.03.01-.06.02v-.03s0-.03,0-.04c.01,0,.02-.02.03-.05l-.02-.06.06-.02s0-.04,0-.06c0-.01,0-.02,0-.04l.06-.02v-.03s-.04,0-.04,0l-.02-.06s.03-.01.04-.03c.01-.01.04-.02.08-.01v-.03s-.03,0-.04,0c0,0,0,0-.01,0,0,0,0,0,0,0,0,0,0,0,0-.01h.04s0-.04,0-.03c.01,0,.02,0,.01-.02l.02-.04-.06.02.02-.04h.03s0-.03.02-.03c.02,0,.03,0,.04,0,0-.03,0-.04,0-.05.01,0,.03-.01.04-.03v-.07s.07-.01.1-.01c.03,0,.06,0,.1-.01,0,.02,0,.02,0,.01,0,0,0-.02.03-.02,0,0,0,.01,0,.02,0,0,.02,0,.03,0l.06-.02v-.03s-.05-.02-.05-.02l.06-.02.09-.03s0,.03,0,.03c0,0,0,.02.02.03l.07-.02s0,.02.01.02c0,0,.01,0,.03,0,0,.01.01.02.03.02.01,0,.03,0,.04,0,.01,0,.02.01.02.02,0,0,.01.02.02.03,0,0,.02.01.03.02.01,0,.03,0,.05,0,0-.02,0-.02.01-.02.01,0,.03,0,.05,0,0,.03,0,.05,0,.06,0,.01-.01.02,0,.04.01-.02.02-.03.03-.03,0,0,.02,0,.04.01v.03s.07-.02.07-.02l.02.07h.03s0,.02,0,.02c.01,0,.02,0,.02.03,0,.02,0,.04,0,.06l.07-.02s.01.03.02.04c.01.01.02.02.03.03,0,.01.02.02.03.04.01.01.02.03.03.06,0,0,0,0-.01,0,0,0,0,.02,0,.03,0,0,0,0-.02,0-.01,0-.02,0-.02-.02.02.05.03.08.04.1.01.02.02.04,0,.06v.03s-.06.02-.06.02l.03.09s.02-.02.02-.02c0,0,0,.02.01.04,0,0,.01-.02.01-.02,0,0,0,0,0-.01,0,0,0,0,0,0,0,0,0,0,.02,0v.03s.02.03.02.03l.02.06s-.03.02-.03.03c0,.01-.01.02-.02.02h.03s.04,0,.04,0h-.04s.02.08.02.08c-.01,0-.03,0-.03,0,0,0-.02,0-.03.02,0,.01.01.02.02.02.01,0,.02.02.03.05-.02,0-.02,0-.03.01,0,0,0,.01,0,.03v.03s-.02.01-.02.02c0,0,0,.02.01.06-.01,0-.02,0-.02,0s0,0,0,.04c0-.02.01-.03.02-.03,0,0,.02,0,.04.01-.01.02-.02.04-.03.05,0,0-.01.02,0,.03,0,.04-.02.06-.03.07-.01.01-.02.03-.03.05l.04.02-.02.04s-.02,0-.03.01c0,0-.02.02-.05.05.01,0,.02,0,.03,0,0,0,0,0,.01.02,0,.02,0,.03,0,.03s0,0-.02.01l-.06.02.02.06-.12.04v-.03s-.04-.03-.04-.03c-.02,0-.04.01-.05.02-.01,0-.01.02,0,.03ZM11.3,9.7h.03s0-.02,0-.02c0,0-.02,0-.03,0h-.04s-.02.02-.02.03c0,0,0,.01,0,.02l.06-.02ZM11.26,9.48h.03s-.01-.04-.01-.04h-.03s.01.04.01.04ZM11.32,9.97s0-.03,0-.04.01-.02.02-.02c0,0,.02-.01.02-.02,0,0,.02-.02.02-.04h-.03s-.01-.02-.03-.01c-.02,0-.03,0-.04,0,0,.02-.01.04,0,.06,0,.02,0,.04.02.08h.03ZM11.35,9.55v.03s.1-.03.1-.03c.01,0,.02-.01.03-.02,0,0,0-.01,0-.02-.02,0-.03,0-.03,0,0,0-.02,0-.04-.02,0,.02,0,.03,0,.04-.01,0-.03.01-.05.02ZM11.41,9.4s0,0-.01,0c0,0,0,.02,0,.04.01,0,.03,0,.03,0s.02,0,.04,0c0-.02.02-.03.02-.03,0,0,.01,0,.03-.01v-.04s-.11.03-.11.03ZM11.51,10.51v-.03s-.03,0-.03,0v.03s.03,0,.03,0ZM11.49,9.67s.03,0,.03-.01c0,0,0-.01,0-.03h-.03s0,.02,0,.03c0,.01,0,.01.02,0ZM11.55,9.42s-.03,0-.03,0c0,0,0-.01-.01-.03,0,.02,0,.03,0,.04,0,0,0,.02,0,.02,0,0,0,.01-.01.01.02,0,.03,0,.04,0,0,0,.02.01.04,0l-.02-.06ZM11.52,9.13h-.02s0,.04,0,.04h.02s0-.04,0-.04ZM11.81,10.49s.07.03.11.04c.04,0,.08.01.12.01s.08,0,.12,0c.04,0,.07,0,.09-.02,0,.02,0,.02,0,.01,0-.01,0-.02.02-.02v-.03s.05,0,.04-.03c0-.02,0-.05,0-.09l.07-.02v-.03s0-.07.03-.09c.02-.03.03-.06.04-.1.01-.04.02-.09.02-.13,0-.04,0-.08,0-.12,0-.04,0-.08,0-.12,0-.04,0-.07.01-.11-.02,0-.04-.03-.05-.06s-.02-.06-.03-.09h-.03s-.01,0-.02,0c0,0-.02,0-.02,0,0-.01-.01-.02-.02-.02,0,0-.01,0-.02,0v-.04s-.08.02-.08.02v-.03s-.04,0-.06,0c0,0-.02,0-.02,0v-.03s.01,0,0,0c0,0,0-.01,0-.03h-.03s-.02.04-.02.05-.01,0-.03.01l-.04-.02s0,.02-.03.02-.04,0-.06,0c-.01.01-.03.02-.05.04-.02.01-.05.03-.07.04-.02.01-.05.03-.07.04s-.03.02-.04.03c-.03.03-.04.05-.04.06,0,.02,0,.03,0,.05-.01,0-.02,0-.03.01h0s0,.02-.01.03c0,0-.01,0-.03.01l.02.06s-.05.02-.05.04c0,.02,0,.04-.01.08-.02-.01-.03-.01-.03,0,0,0-.01.02-.03.02.01.02.03.05.04.08,0,.04.02.07.03.11,0,.04.01.07.01.1,0,.03,0,.05-.01.06-.02,0-.03-.02-.02-.02,0,0,0,0-.01,0v.03s.08.01.1.03c.02.02.04.05.05.09.01,0,.02,0,.01,0,0,0,0,.01,0,.03.02,0,.04,0,.05.01,0,0,.02.01.02.02,0,0,0,.01.01.02,0,0,.02.01.04.01ZM11.57,9.29h-.03s0,.03.01.03c0,0,.01,0,.02,0v-.03ZM11.65,9.4h-.04s.06.06.06.06l.02-.04h-.03s0-.02,0-.02ZM11.91,9.38v.03s.04,0,.04,0v-.03s-.04,0-.04,0ZM12,9.36h.03s.03-.02.03-.02h.03s-.04-.03-.04-.03,0-.01-.01-.03c0,.01,0,.03-.01.04s-.02.02-.03.05ZM12.53,9.33s-.02,0-.03.01,0,.01,0,.03v.04s.01-.03.02-.04c0,0,0-.01,0-.02,0,0,0,0,0,0,0,0,0,0,0-.01ZM12.64,10.44v-.04s-.04,0-.04,0h-.04s.01.05.01.05l.07-.02ZM12.62,10.27h.03s0-.04,0-.04l-.02.04Z"/>
        <path class="cls-3" d="M13.68,10.34s-.07,0-.09.03c-.02-.02-.03-.04-.04-.04,0,0-.02,0-.04,0v.03s0,.04,0,.04c-.02-.01-.03-.02-.03-.02,0,0,0,.01-.03.03,0-.01,0-.02-.01-.03,0,0-.02-.01-.04-.02l.06-.02v-.03s-.04,0-.05,0c-.01,0-.02,0-.03-.02,0-.02,0-.04,0-.06,0-.02-.01-.05-.03-.07-.01-.03-.02-.05-.04-.08-.01-.02-.03-.05-.04-.07.01,0,.02,0,.02-.01,0,0,0-.01,0-.02h.03s0-.04.01-.05c0,0,0-.01,0-.03-.01,0-.03,0-.06,0-.03,0-.04-.01-.04-.03l.02-.04s-.02,0-.03-.03c0,0-.01-.02-.02-.04,0-.02.01-.03.01-.04,0,0,0-.02,0-.03h-.03s.06,0,.06,0c-.03-.02-.04-.03-.04-.03,0,0,0,0,0-.02-.01,0-.02,0-.01,0,0,0,0-.01,0-.02v-.03s.02,0,.02,0v-.03s-.04-.02-.05-.02c0,0,0-.01-.01-.03v-.03s-.04,0-.04,0v-.03s.05-.02.05-.02c0-.01-.01-.02-.02-.03,0,0,0-.01,0-.03-.02,0-.03,0-.05,0-.01,0-.03-.02-.03-.04.01,0,.02,0,.02,0,0,0,0,0,0-.02-.02,0-.03-.01-.03-.02,0,0,0-.01-.01-.03h.03s.03-.02.03-.02c0,0,0-.01,0-.02-.02,0-.03.01-.03.02s-.02.02-.05.03l-.03-.08.02-.04s.03.01.05.01c.02,0,.03,0,.04,0v-.03s-.03,0-.03,0c-.02,0-.04,0-.05,0s-.02,0-.03-.04c0,0,0,0,.01,0,0,0,.01-.02,0-.03-.02-.01-.03-.01-.04,0s-.02,0-.03-.04c.01,0,.02,0,.02-.01,0,0,0-.01,0-.02.02,0,.02.01.02.02,0,0,0,0,.01,0,.01-.02.02-.02.03-.02,0,0,0,0,0-.01v-.03s-.04,0-.06,0c-.01,0-.03,0-.05,0l.02-.04.02-.03s-.02-.03-.02-.04c0-.02,0-.03,0-.04s0-.03,0-.04,0-.03-.02-.04c.01-.01.02-.02.02-.03,0,0,0-.02,0-.03,0-.01,0-.02,0-.04,0-.01,0-.03.02-.05,0,.01.01.02.02.03s.02,0,.02,0c0,0,.02,0,.02,0,0,0,.01.01.02.03v.03s.04.01.05.02c.01,0,.03.02.04.05.02.02.03.05.02.08,0,.03,0,.05,0,.07.03,0,.04,0,.05,0s.02.03.03.07c0,.02-.02.04-.02.05s0,.03,0,.05h.03s.03-.02.03-.02c0,.01,0,.02,0,.03,0,0,0,.01,0,.02,0,0,0,0,0,.02,0,0,0,.02,0,.03.01,0,.02,0,.03,0,0,0,.02.02.05.03-.02,0-.03,0-.03.01,0,0,0,.01,0,.02l.09-.03s-.03-.01-.03-.02c0,0,0-.01-.01-.03l.06-.02s.03.02.03.01c0,0,0,0,0,.01-.01,0-.02,0-.02.01,0,0,0,.01,0,.02h.02s.03-.02.03-.02v-.03s-.05-.02-.05-.02c.02,0,.03-.01.03-.03,0-.01,0-.03.01-.05h-.03s-.01,0-.02,0c0,0-.02,0-.02,0,.03,0,.05-.03.07-.05.02-.02.02-.05.02-.07,0,.02-.02.03-.04.02-.02,0-.03,0-.04,0v-.03s0-.02,0-.03c0,0,.01,0,.04-.01l.06-.02v-.03s-.04,0-.04,0c.01-.02.02-.03.02-.03,0,0,0-.02,0-.03h-.03s.05-.06.08-.07c.04-.02.07-.03.1-.04v-.03s.02,0,.03-.02c.01,0,.01-.02,0-.03h-.03s-.02.01-.03.01c0,0,0,0,0-.02h.03s.06-.03.08-.05c.03-.02.05-.03.08-.04,0-.03-.02-.04-.02-.05,0,0,0-.02.02-.04,0,0,.01-.01.02-.01,0,0,.02,0,.02,0,0,0,.01,0,.02,0,0,0,.01,0,.02-.02,0-.01,0-.02-.01-.02,0,0-.01-.01-.04-.03h.03s.01-.02.02-.02.02,0,.03,0,.02,0,.03,0c0,0,.02,0,.03-.02,0,.03.03.05.06.07s.05.02.07.02c0-.02.01-.03.02-.03,0,0,.02,0,.03-.01v.03s0,.02,0,.03c0,.01,0,.03,0,.04,0,.02,0,.03,0,.04s0,.02,0,.03c-.01,0-.03,0-.04,0,0,0-.02,0-.02,0,0,.01,0,.02,0,.02,0,0,0,0-.02,0,.02.01.03.03.05.04s.03.02.03.04l-.02.03s-.03-.01-.05,0c-.02,0-.03,0-.04,0v.03s0-.03,0-.03c-.02.02-.05.04-.08.05-.03.01-.07.02-.11.04v.03s-.01.03-.01.03l-.03-.02h-.03s0,.03,0,.03c0,.02-.01.03-.02.02,0,0-.02,0-.03.02h.03s.03-.02.03-.02c0,.02-.01.03-.01.05,0,.01-.01.02-.03.03-.02,0-.03-.01-.05,0-.02,0-.03,0-.04,0,0,0-.01,0-.02,0,0,0-.01.02,0,.03,0,.01,0,.02.01.03,0,0,.01,0,.02.01,0,0,0,0,.01,0,0,0,.01.01.01.03l.08-.03v.03s-.02.01-.03.01c0,0,0,0,0,.01s0,0,0,.02,0,.02,0,.04l-.06.02s0,0,0,.01c0,.01,0,.02-.02.02,0,.01,0,.02-.01.02-.01,0-.02,0-.03.02.02.01.03.02.04.02,0,0,.02.01.03.02l-.05.02v.02s-.01.01-.01.02c0,.01-.01.02-.03.02,0-.01,0-.02,0-.03s0,0-.01,0c0,.02-.02.03-.04.03-.02,0-.03,0-.04.03,0,0,.01,0,.01.01,0,0,0,.01,0,.01v.03s.04.02.04.02v.03s-.02,0-.02,0c0,0-.01.01-.01.02,0,.02,0,.03,0,.04,0,0,.01,0,.01,0,0,0,0,0,0,0,0,0,0,0,0,0,0,0,0,0,.02,0,0,.01,0,.02-.02.04-.02.01-.02.03-.01.06h.02s0-.03,0-.03c0,0,.01,0,.03,0v.03s-.02,0-.02,0c0-.02-.01-.02-.02,0,0,.01-.02.02-.03.03l-.02.04v-.03s0,.03,0,.03l.08-.03s-.01.03-.02.03c0,0-.01,0-.03.01l.02.05s-.03,0-.03.03c0,.03,0,.05,0,.08,0-.02.02-.02.02-.01,0,.01.01.03.02.06,0,.02-.01.04-.02.07,0,.03,0,.05,0,.06.02.01.03.01.03,0,0,0,0,0,0,.01,0,.03,0,.06.01.09.02.03.03.05.04.08,0,.01,0,.02,0,.03,0,0-.01.02,0,.04h.03s0,.02,0,.02v.03ZM13.26,9.69h.03s0-.03,0-.03c-.01.02-.02.02-.02.02,0,0,0,0,0,.01ZM13.33,9.73v-.03s-.03,0-.03,0v.03s.03,0,.03,0ZM13.38,9.07s-.02,0-.03.01c0,0,0,.01,0,.03v-.03s-.04,0-.04,0c.02,0,.02,0,.02-.01,0,0,0-.01,0-.02.02,0,.03,0,.03,0,0,0,0,0,0,.01ZM13.35,9.26v.03s.04,0,.04,0h.03s0-.04,0-.04h-.03s-.03.02-.03.02ZM13.37,9.53l.06-.02v-.03s-.07.02-.07.02v.03ZM13.54,8.89l.03.11v-.03s.01,0,.02-.01c0,0,0-.01,0-.03v-.03s-.05-.02-.05-.02ZM13.55,8.74v.03s.02.02.02.02c0,0,.01,0,.03,0,.01,0,.02-.01.03-.02,0,0,0-.01,0-.02-.02,0-.04-.01-.04-.01,0,0-.01,0-.03,0ZM13.59,9.06l.02.06s.02-.01.03-.02c0-.01,0-.02.02-.02v-.03s-.06.02-.06.02ZM13.63,9.39l-.03-.02s.02,0,.02,0c0,0,0,0,.01.02ZM13.61,9.33l.09-.03v.03s-.02,0-.02,0l-.06.02v-.03ZM13.64,8.52v-.03s.02,0,.03,0c0,0,.02,0,.03.01l-.06.02ZM13.69,8.75s-.02,0-.02.01c0,0,0,.01,0,.03h.03s0-.04,0-.04c0,0,0,0,.02-.01h-.03ZM13.71,8.44h-.03s0-.02,0-.02h.03s0,.02,0,.02ZM13.71,8.81s-.02,0-.02.01c0,0,0,.01,0,.03l.06-.02v-.03s-.03,0-.03,0ZM13.73,8.4s0,.02,0,.02c0,0,0,0-.02.02v-.03s.02,0,.02,0ZM13.75,8.95s-.02,0-.03,0c0,0,0,0-.01-.02,0,0,.01.01.02.02,0,0,.01,0,.02,0ZM13.76,8.61s-.02,0-.03.01c-.02.01-.02.02-.02.04.02,0,.03.01.03.01,0,0,.02,0,.03,0l.04-.08s-.01,0-.01.01c0,0,0,0,0,0,0,0,0,0,0,0,0,0,0,0-.02,0h-.03ZM13.77,8.92s-.02,0-.02,0c0,0,0-.01-.01-.03l.04.03ZM13.92,8.32h-.03s0,.02,0,.02c0,0,0,0,.02,0v-.03ZM13.94,8.59v.03s.02.02.04.02.03,0,.04,0v-.03s-.03,0-.04,0c0,0-.02,0-.04,0ZM14.18,8.57v-.03s.01,0,0,0c0,0,0,.01.02.02h-.03Z"/>
      </g>
    </g>
  </g>
</svg>