<?xml version="1.0" encoding="UTF-8"?>
<svg id="_レイヤー_2" data-name="レイヤー 2" xmlns="http://www.w3.org/2000/svg" viewBox="0 0 54.85 4.25">
  <defs>
    <style>
      .cls-1 {
        fill: none;
        stroke: #8c6464;
        stroke-miterlimit: 10;
        stroke-width: .15px;
      }

      .cls-2 {
        fill: #8c6464;
        stroke-width: 0px;
      }
    </style>
  </defs>
  <g id="lay">
    <g>
      <rect class="cls-1" x=".08" y=".08" width="54.7" height="4.1" rx="2.05" ry="2.05"/>
      <path class="cls-2" d="M18.85,2.13c-.92.04-.96.08-1,1-.04-.92-.08-.96-1-1,.92-.04.96-.08,1-1,.04.92.08.96,1,1Z"/>
      <path class="cls-2" d="M39.69,2.13c-.92.04-.96.08-1,1-.04-.92-.08-.96-1-1,.92-.04.96-.08,1-1,.04.92.08.96,1,1Z"/>
      <g>
        <path class="cls-2" d="M41.85,1.79c0,.12-.05.21-.13.27.13.05.22.16.22.31,0,.24-.17.39-.46.39h-.46v-1.36h.4c.27,0,.44.15.44.38ZM41.23,1.99h.19c.13,0,.21-.07.21-.18,0-.12-.08-.19-.22-.19h-.18v.37ZM41.23,2.57h.25c.14,0,.23-.07.23-.2s-.09-.19-.23-.19h-.25v.39Z"/>
        <path class="cls-2" d="M43.38,1.84h-.24c-.05-.15-.17-.24-.38-.24-.27,0-.45.21-.45.5s.18.5.45.5c.21,0,.33-.11.38-.25h.23c-.08.28-.28.45-.61.45-.4,0-.68-.3-.68-.71s.28-.71.68-.71c.33,0,.54.18.61.45Z"/>
        <path class="cls-2" d="M45.16,1.67c0,.22-.12.36-.22.41.12.06.28.19.28.44,0,.33-.27.56-.62.56s-.62-.24-.62-.56c0-.23.13-.38.27-.44-.1-.06-.22-.19-.22-.41,0-.3.22-.55.56-.55s.56.25.56.55ZM44.28,2.51c0,.19.14.29.32.29s.31-.11.31-.29-.15-.3-.31-.3-.32.11-.32.3ZM44.34,1.68c0,.16.11.27.26.27s.26-.1.26-.27-.11-.27-.26-.27-.26.11-.26.27Z"/>
        <path class="cls-2" d="M45.84,2.89c0,.1-.08.19-.19.19s-.19-.08-.19-.19c0-.11.08-.19.19-.19s.19.08.19.19Z"/>
        <path class="cls-2" d="M47.31,2.46c0,.37-.25.62-.6.62-.2,0-.35-.07-.46-.19-.15-.17-.19-.45-.19-.75,0-.67.2-1.02.66-1.02.32,0,.55.21.56.54h-.31c-.01-.18-.11-.26-.26-.26-.22,0-.34.18-.35.63.06-.09.21-.17.37-.17.36,0,.58.25.58.59ZM47,2.47c0-.18-.12-.33-.31-.33-.18,0-.32.14-.32.33,0,.17.12.34.32.34s.31-.14.31-.34Z"/>
        <path class="cls-2" d="M49.28,2.15v.71h-.23v-.66c0-.15-.06-.23-.18-.23-.13,0-.22.11-.22.31v.58h-.23v-.66c0-.15-.07-.23-.19-.23-.13,0-.22.11-.22.31v.58h-.23v-1.09h.2l.02.15c.05-.09.15-.17.3-.17.16,0,.27.08.31.2.06-.1.16-.2.32-.2.24,0,.35.17.35.41Z"/>
        <path class="cls-2" d="M51.1,2.15v.71h-.23v-.66c0-.15-.06-.23-.18-.23-.13,0-.22.11-.22.31v.58h-.23v-.66c0-.15-.07-.23-.19-.23-.13,0-.22.11-.22.31v.58h-.23v-1.09h.2l.02.15c.05-.09.15-.17.3-.17.16,0,.27.08.31.2.06-.1.16-.2.32-.2.24,0,.35.17.35.41Z"/>
      </g>
      <g>
        <path class="cls-2" d="M4.95,2.1c0,.41-.27.68-.7.68h-.5v-1.36h.5c.43,0,.7.28.7.68ZM3.97,2.57h.28c.3,0,.47-.18.47-.48s-.17-.48-.47-.48h-.28v.96Z"/>
        <path class="cls-2" d="M5.19,2.78v-1.36h.22v1.36h-.22Z"/>
        <path class="cls-2" d="M6.67,2.78l-.13-.33h-.57l-.13.33h-.24l.54-1.36h.23l.54,1.36h-.24ZM6.04,2.25h.43l-.19-.49-.03-.08-.03.08-.19.49Z"/>
        <path class="cls-2" d="M7.84,3.05v-1.38h-.4v-.26c.28,0,.43-.05.47-.25h.23v1.89h-.3Z"/>
        <path class="cls-2" d="M9.77,2.41v.27h-.25v.36h-.3v-.36h-.79v-.25l.73-1.28h.37v1.25h.25ZM8.75,2.42h.48v-.86l-.05.11-.42.74Z"/>
        <path class="cls-2" d="M10.35,2.89c0,.1-.08.19-.19.19s-.19-.08-.19-.19c0-.11.08-.19.19-.19s.19.08.19.19Z"/>
        <path class="cls-2" d="M11.7,1.66c0,.22-.1.39-.23.55l-.44.56h.69v.28h-1.11v-.22l.6-.73c.13-.16.19-.26.19-.42,0-.17-.08-.27-.24-.27-.15,0-.26.1-.26.31h-.3c0-.36.22-.59.56-.59s.54.21.54.54Z"/>
        <path class="cls-2" d="M13.67,2.15v.71h-.23v-.66c0-.15-.06-.23-.18-.23-.13,0-.22.11-.22.31v.58h-.23v-.66c0-.15-.07-.23-.19-.23-.13,0-.22.11-.22.31v.58h-.23v-1.09h.2l.02.15c.05-.09.15-.17.3-.17.16,0,.27.08.31.2.06-.1.16-.2.32-.2.24,0,.35.17.35.41Z"/>
        <path class="cls-2" d="M15.49,2.15v.71h-.23v-.66c0-.15-.06-.23-.18-.23-.13,0-.22.11-.22.31v.58h-.23v-.66c0-.15-.07-.23-.19-.23-.13,0-.22.11-.22.31v.58h-.23v-1.09h.2l.02.15c.05-.09.15-.17.3-.17.16,0,.27.08.31.2.06-.1.16-.2.32-.2.24,0,.35.17.35.41Z"/>
      </g>
      <g>
        <path class="cls-2" d="M20.5,1.58c-.08,0-.12,0-.17,0v-.16c.05,0,.09,0,.17,0h.22c-.04-.06-.06-.09-.11-.14l.18-.04c.06.07.09.12.13.18h.25s.09-.12.12-.18l.19.04c-.05.07-.07.1-.11.14h.22c.08,0,.12,0,.17,0v.16c-.05,0-.1,0-.17,0h-.46v.08h.39c.09,0,.11,0,.16,0v.14s-.08,0-.16,0h-.39v.08h.52c.09,0,.13,0,.17,0v.16c-.05,0-.09,0-.17,0h-.85s-.01.04-.02.07h.73c.06,0,.1,0,.16,0,0,.05,0,.09,0,.17v.47c0,.08,0,.12,0,.17h-.2v-.06h-.66v.06h-.19c0-.05,0-.1,0-.17v-.18s0-.1,0-.12c-.08.15-.15.24-.26.34-.04-.07-.09-.12-.14-.16.12-.09.18-.16.24-.25.07-.1.1-.19.13-.32h-.16c-.08,0-.12,0-.17,0v-.16s.09,0,.17,0h.49v-.08h-.36c-.08,0-.12,0-.16,0v-.14s.07,0,.16,0h.36v-.08h-.43ZM20.81,2.21v.07h.66v-.07h-.66ZM20.81,2.4v.07h.66v-.07h-.66ZM20.81,2.6v.07h.66v-.07h-.66Z"/>
        <path class="cls-2" d="M23.35,1.73c.06,0,.1,0,.15,0,0,.04,0,.07,0,.13v.32c0,.05,0,.08,0,.13-.06,0-.11,0-.15,0h-.91v.27s.01.06.07.07c.06.01.2.01.43.01.26,0,.4-.01.43-.04.03-.02.04-.09.04-.24.07.03.12.05.2.07-.02.23-.04.3-.13.33-.08.03-.23.04-.55.04s-.49-.01-.57-.03c-.08-.02-.11-.06-.11-.17v-.75s-.06.04-.11.08c-.02-.06-.06-.12-.1-.17.17-.09.29-.2.4-.34.07-.09.09-.13.11-.2l.21.04s-.02.03-.04.06c0,.01-.01.02-.02.04h.29c.11,0,.14,0,.17-.01l.11.09s-.03.04-.07.08c-.06.08-.12.14-.15.18h.3ZM22.82,1.73c.05-.05.11-.12.16-.18h-.39c-.05.07-.1.12-.17.18h.39ZM22.77,1.9h-.33v.23h.33v-.23ZM22.95,2.13h.36v-.23h-.36v.23Z"/>
        <path class="cls-2" d="M24.64,1.4c.01-.06.02-.1.02-.14l.21.02s0,.02-.01.06c0,.02,0,.04-.01.07h.39c.1,0,.16,0,.22-.01v.19c-.06,0-.11,0-.22,0h-.43s-.01.04-.02.09h.31c.1,0,.15,0,.21,0,0,.05,0,.09,0,.2v.49c0,.1,0,.15,0,.19-.06,0-.09,0-.21,0h-.55c-.11,0-.14,0-.2,0,0-.04,0-.1,0-.19v-.49c0-.1,0-.15,0-.2.05,0,.1,0,.21,0h.04s.02-.05.03-.09h-.48c-.08,0-.14,0-.2.01v-.19c.06,0,.12.01.21.01h.51ZM25.26,2.63c.09,0,.13,0,.19-.01v.19c-.06,0-.11-.01-.2-.01h-1.06v.07h-.21c0-.06.01-.13.01-.24v-.71c0-.09,0-.15,0-.19h.22s0,.11,0,.18v.72h1.08ZM24.52,1.91h.57v-.09h-.57v.09ZM24.52,2.14h.57v-.09h-.57v.09ZM24.52,2.38h.57v-.09h-.57v.09Z"/>
        <path class="cls-2" d="M25.87,2.33s0-.07,0-.16c-.04.05-.07.08-.13.13-.03-.09-.04-.12-.08-.19.17-.12.32-.3.39-.45l.15.1s0,.01-.04.06c-.02.03-.07.1-.11.15v.71c0,.07,0,.14,0,.18h-.2c0-.06.01-.12.01-.2v-.34ZM26.19,1.38s-.02.02-.06.07c-.1.12-.21.21-.35.3-.03-.07-.05-.1-.1-.16.17-.1.3-.22.36-.33l.15.11v-.03s.09.01.16.01h.61c.05,0,.1,0,.13,0l.1.1s-.01.01-.03.03c-.09.12-.18.21-.31.32.14.07.29.12.46.15-.04.06-.06.11-.08.19-.13-.03-.22-.06-.35-.12-.06-.03-.1-.05-.19-.1-.14.09-.31.17-.51.23-.03-.08-.04-.1-.09-.17.18-.04.32-.1.45-.17-.11-.1-.17-.16-.24-.28q-.09,0-.12,0v-.15ZM27,2.23c.08,0,.13,0,.17,0v.18s-.1,0-.17,0h-.22v.25h.29c.08,0,.15,0,.2-.01v.19c-.06,0-.12-.01-.2-.01h-.76c-.09,0-.15,0-.21.01v-.19c.05,0,.12.01.21.01h.27v-.25h-.21c-.07,0-.13,0-.18,0v-.18s.09,0,.18,0h.21v-.05c0-.08,0-.12,0-.17h.2s0,.08,0,.17v.05h.22ZM26.51,1.52c.04.07.09.12.18.19.09-.06.14-.11.2-.19h-.38Z"/>
        <path class="cls-2" d="M28.51,3.05v-1.38h-.4v-.26c.28,0,.43-.05.47-.25h.23v1.89h-.3Z"/>
        <path class="cls-2" d="M30.29,1.66c0,.23-.13.36-.25.4.16.05.32.19.32.46,0,.34-.24.56-.61.56s-.61-.22-.61-.59h.3c0,.22.14.31.32.31s.29-.11.29-.29c0-.21-.15-.31-.39-.31h-.08v-.26h.08c.23,0,.33-.08.33-.27,0-.17-.09-.27-.25-.27-.14,0-.26.09-.26.3h-.3c0-.36.22-.58.56-.58s.56.24.56.54Z"/>
        <path class="cls-2" d="M30.97,2.89c0,.1-.08.19-.19.19s-.19-.08-.19-.19c0-.11.08-.19.19-.19s.19.08.19.19Z"/>
        <path class="cls-2" d="M32.44,2.46c0,.37-.25.62-.6.62-.2,0-.35-.07-.46-.19-.15-.17-.19-.45-.19-.75,0-.67.2-1.02.66-1.02.32,0,.55.21.56.54h-.31c-.01-.18-.11-.26-.26-.26-.22,0-.34.18-.35.63.06-.09.21-.17.37-.17.36,0,.58.25.58.59ZM32.14,2.47c0-.18-.12-.33-.31-.33-.18,0-.32.14-.32.33,0,.17.12.34.32.34s.31-.14.31-.34Z"/>
        <path class="cls-2" d="M34.42,2.15v.71h-.23v-.66c0-.15-.06-.23-.18-.23-.13,0-.22.11-.22.31v.58h-.23v-.66c0-.15-.07-.23-.19-.23-.13,0-.22.11-.22.31v.58h-.23v-1.09h.2l.02.15c.05-.09.15-.17.3-.17.16,0,.27.08.31.2.06-.1.16-.2.32-.2.24,0,.35.17.35.41Z"/>
        <path class="cls-2" d="M36.23,2.15v.71h-.23v-.66c0-.15-.06-.23-.18-.23-.13,0-.22.11-.22.31v.58h-.23v-.66c0-.15-.07-.23-.19-.23-.13,0-.22.11-.22.31v.58h-.23v-1.09h.2l.02.15c.05-.09.15-.17.3-.17.16,0,.27.08.31.2.06-.1.16-.2.32-.2.24,0,.35.17.35.41Z"/>
      </g>
    </g>
  </g>
</svg>