<?xml version="1.0" encoding="UTF-8"?><svg id="_レイヤー_1" xmlns="http://www.w3.org/2000/svg" viewBox="0 0 43.2070897 7.9499998"><path d="M2.1846188,6.4065933L.6882111,1.1821602c0-.0040548-.002396-.0073724-.0068194-.0099527-.0044234-.0022117-.0066351.0011059-.0066351.0099527l-.06672,3.3470579c0,.3922103.0355717.7129086.1068994.9620948.0711434.2495549.1612707.4353387.2705661.5580887.1089268.1223814.2414453.2101127.397371.2635624l.0468146.020274v.0132703l-.3072437-.0132703c-.1693803-.0044234-.3273334-.0088468-.4744123-.0132703-.0980526,0-.2427354.0044234-.4342328.0132703l-.2137989.0132703v-.0132703c.1738037-.0759355.3061378-.2694603.3975553-.5813117.0912331-.3118514.1413653-.6789957.1502121-1.10217l.0669043-3.2604325c.0044234-.2045834-.0044234-.3582974-.0267249-.4607734s-.069116-.1861525-.1402594-.2506607c-.0713277-.0645083-.1848623-.1234873-.340788-.176937v-.020274l.3206983.0136389c.187074.0132703.340788.0199054.4609577.0199054h.3006086c.0223014,0,.0423912.007741.0600849.0235916.017878.015482.0311483.0342815.0401794.0567673l1.2426137,4.542857L3.6543016.594582c.0134546-.0534497.0468146-.0803589.1002643-.0803589h.1336243c.1559257,0,.3496349-.0066351.5813117-.0199054l.4141431-.0136389.0066351.0136389c-.0578731.0132703-.1046877.0298581-.1402594.0501321-.035756.0199054-.0646926.0431284-.0868097.0700376-.0892057.06672-.1559257.1736194-.2005286.3206983s-.0645083.338392-.0600849.5746766l.1135346,4.014995c.0088468.2403394.043497.425386.1035819.5544025.0600849.1293852.161455.2137989.3039261.2539783v.0132703l-.2337043-.0132703c-.204952-.0088468-.3675129-.0132703-.4876826-.0132703-.1782271,0-.3853909.0044234-.6213068.0132703l-.2405237.0132703v-.0132703c.1424711-.035756.2482647-.0892057.3173807-.1603491.0689317-.0711434.1122444-.1647726.1301224-.2805188s.0223014-.2849423.0134546-.5079566l-.1269891-4.5963067c0-.0044234-.0022117-.0066351-.0066351-.0066351s-.0066351.0022117-.0066351.0066351l-1.376238,5.6317567-.1002643-.0132703Z" style="fill:#71423f;"/><path d="M5.3982368,6.2130684c.0622966-.0534497.1091111-.1349144.1402594-.2440256s.0468146-.263931.0468146-.4644596l-.0132703-2.6721171c0-.2093754-.0390736-.3575602-.1170364-.4441856-.0779629-.086994-.1881799-.1327027-.330651-.1371262v-.0132703c.1468946-.0446029.3218041-.1080053.5243601-.1905759.2027403-.082202.3575602-.1544512.4644596-.2171164l.10008.0269092.0200897,3.6474822c0,.2672486.0366776.461142.110217.5813117s.1881799.2027403.3441056.2473432v.0132703l-.3273334-.0132703c-.1916817-.0132703-.3341529-.020274-.4275977-.020274-.1159306,0-.2829149.0070038-.5011371.020274l-.2939734.0132703v-.0132703c.1113229-.0269092.1981326-.06672.2606134-.1201697ZM5.4784113,1.3694185c-.0801746-.0803589-.1201697-.1938934-.1201697-.3406037,0-.1470789.0399951-.2606134.1201697-.3409723.0801746-.0799903.1937091-.1201697.340788-.1201697.1468946,0,.2604291.0401794.3406037.1201697.0801746.0803589.120354.1938934.120354.3409723,0,.1467102-.0401794.2602448-.120354.3406037-.0801746.0799903-.1937091.1201697-.3406037.1201697-.1470789,0-.2606134-.0401794-.340788-.1201697Z" style="fill:#71423f;"/><path d="M7.0721343,7.8729585c-.0646926-.051238-.112613-.1268048-.1437613-.2270691s-.0423912-.2215398-.03336-.3641953l.0267249-.0066351c.0578731.0221171.1269891.0412853.2071637.0567673s.1603491.0235916.2405237.0235916c.2226457,0,.4029003-.0490263.5411323-.1470789.1378634-.0980526.235916-.2760954.2939734-.5344971l.220434-.9219154-.4209626.0066351-.9219154-3.0329948c-.0624809-.204952-.1159306-.3542426-.1603491-.4475031-.0446029-.0936292-.0925233-.161455-.143577-.2038461-.051238-.0423912-.1303067-.0877313-.2372061-.1371262v-.0199054c.1245931.0132703.3651168.0199054.7215711.0199054.1557414,0,.3428154-.0040548.5610377-.0132703l.2672486-.0066351v.0199054c-.1603491.035756-.2749896.1194325-.3439213.2506607-.069116.1315969-.0635867.3262276.0165878.5846293l.781656,2.5386771.527862-2.2246139c.048842-.2005286.0600849-.3841007.03336-.5514536-.0267249-.1669843-.0801746-.3015301-.1603491-.4040061s-.1782271-.169196-.2939734-.2005286v-.0132703l.253794.0132703c.187074.0136389.3251217.020274.4143274.020274.0534497,0,.1535297-.0066351.3006086-.020274l.1669843-.0132703v.0132703c-.1647726.071512-.3006086.2038461-.407508.3977396-.1068994.1935248-.1981326.4530324-.2738837.7781541l-.9152803,3.8081999c-.0624809.2624565-.1336243.4685144-.2137989.617805s-.1736194.25619-.2805188.3206983-.2316769.0969467-.374148.0969467c-.102476,0-.1859681-.0258033-.2504764-.0770413Z" style="fill:#71423f;"/><path d="M9.7945679,6.2027471c-.1157463-.1400751-.1736194-.3125887-.1736194-.5175407,0-.3874183.1201697-.7283906.3606934-1.0221797.2405237-.2941577.6034288-.5632494,1.089084-.8083808v-.5746766c0-.374148-.0346502-.6867367-.1035819-.9385032-.069116-.2517666-.1682744-.3774656-.297291-.3774656-.1336243,0-.2429197.0799903-.3273334.2403394-.0847823.1603491-.1269891.3520309-.1269891.5746766,0,.1647726.0200897.2985812.0600849.4006885.0401794.1028446.1091111.1448672.2071637.1271735l.0066351.0265405c-.1068994.0980526-.2270691.1470789-.3606934.1470789-.1292009,0-.2349944-.0401794-.3173807-.1201697-.0823863-.0803589-.1236716-.1916817-.1236716-.3339686,0-.2005286.0702219-.3933162.2104813-.5779941s.3184866-.3328627.5344971-.4441856.433127-.1669843.6513493-.1669843c.187074,0,.338392.0645083.4543226.1935248.1157463.1293852.1736194.3295451.1736194.6012171v3.1133537c0,.1245931.025619.2248574.076857.3004243.051238.0759355.1168521.1139032.1970267.1139032.0713277,0,.135836-.0346502.1938934-.1035819.0576888-.0693003.1022917-.1636667.1336243-.284205l.0132703.0136389c-.0399951.2093754-.1168521.366407-.2303867.4707261-.1137189.1046877-.2550842.1570316-.4242801.1570316-.1647726,0-.297291-.0401794-.3975553-.1201697s-.1636667-.1938934-.1903916-.3406037c-.1113229.1515023-.2338886.2661427-.3675129.3439213-.13344.0777785-.2917617.1168521-.474228.1168521-.1826506,0-.3319412-.0700376-.4476874-.2104813ZM10.8936046,6.0958477c.0556614-.0375991.1168521-.0965781.1837564-.176937-.0046077-.0221171-.0066351-.0600849-.0066351-.1135346v-1.9105508c-.2939734.1603491-.5055606.3708304-.6347614.6310752-.1292009.2606134-.1937091.5492419-.1937091.8651481,0,.2274377.0422068.4110099.1269891.5514536.0844137.1400751.1891014.2101127.3138788.2101127.084598,0,.1548199-.0187996.2104813-.0567673Z" style="fill:#71423f;"/><path d="M13.5294127,6.3332381l-.7882911-3.4941368c-.0624809-.2805188-.1303067-.4876826-.2038461-.6211225-.0735394-.1338086-.1726979-.2296495-.297291-.2875226v-.0265405l.1068994.0066351c.1647726.0044234.3361803.0066351.5144074.0066351.1647726,0,.3518466-.0044234.561222-.0132703l.3206983-.0132703v.0265405c-.1649569.0446029-.274068.1448672-.3273334.3007929-.0534497.1559257-.0492106.3829948.0132703.6812074l.5344971,2.4251425.7682014-3.4336833h.0735394l1.0221797,3.5206773.4275977-2.0978091c.0576888-.2941577.0788844-.5389206.0634024-.7350257-.0156663-.1957365-.0591633-.346133-.1303067-.4508207-.0713277-.1046877-.1693803-.1747253-.2939734-.2104813v-.0265405l.2471588.0132703c.1603491.0088468.2917617.0132703.3942377.0132703.0757511,0,.169196-.0044234.2805188-.0132703l.1669843-.0132703v.0331757c-.0978683.0490263-.1881799.1349144-.2705661.2572959s-.1568473.271672-.2237516.4475031c-.06672.1761997-.1268048.3752539-.1802546.5978996l-.6413966,3.1199888h-.2338886v-.0132703l-.9219154-3.2869731-.7414765,3.3002433h-.2405237v-.0132703Z" style="fill:#71423f;"/><path d="M16.9634646,6.2027471c-.1157463-.1400751-.1736194-.3125887-.1736194-.5175407,0-.3874183.1201697-.7283906.3606934-1.0221797.2405237-.2941577.6034288-.5632494,1.089084-.8083808v-.5746766c0-.374148-.0346502-.6867367-.1035819-.9385032-.069116-.2517666-.1682744-.3774656-.297291-.3774656-.1336243,0-.2429197.0799903-.3273334.2403394-.0847823.1603491-.1269891.3520309-.1269891.5746766,0,.1647726.0200897.2985812.0600849.4006885.0401794.1028446.1091111.1448672.2071637.1271735l.0066351.0265405c-.1068994.0980526-.2270691.1470789-.3606934.1470789-.1292009,0-.2349944-.0401794-.3173807-.1201697-.0823863-.0803589-.1236716-.1916817-.1236716-.3339686,0-.2005286.0702219-.3933162.2104813-.5779941s.3184866-.3328627.5344971-.4441856.433127-.1669843.6513493-.1669843c.187074,0,.338392.0645083.4543226.1935248.1157463.1293852.1736194.3295451.1736194.6012171v3.1133537c0,.1245931.025619.2248574.076857.3004243.051238.0759355.1168521.1139032.1970267.1139032.0713277,0,.135836-.0346502.1938934-.1035819.0576888-.0693003.1022917-.1636667.1336243-.284205l.0132703.0136389c-.0399951.2093754-.1168521.366407-.2303867.4707261-.1137189.1046877-.2550842.1570316-.4242801.1570316-.1647726,0-.297291-.0401794-.3975553-.1201697s-.1636667-.1938934-.1903916-.3406037c-.1113229.1515023-.2338886.2661427-.3675129.3439213-.13344.0777785-.2917617.1168521-.474228.1168521-.1826506,0-.3319412-.0700376-.4476874-.2104813ZM18.0625013,6.0958477c.0556614-.0375991.1168521-.0965781.1837564-.176937-.0046077-.0221171-.0066351-.0600849-.0066351-.1135346v-1.9105508c-.2939734.1603491-.5055606.3708304-.6347614.6310752-.1292009.2606134-.1937091.5492419-.1937091.8651481,0,.2274377.0422068.4110099.1269891.5514536.0844137.1400751.1891014.2101127.3138788.2101127.084598,0,.1548199-.0187996.2104813-.0567673Z" style="fill:#71423f;"/><path d="M21.767488,4.896731c.1953679.3387606.3472388.6001113.4541383.7851579.1068994.184678.2012658.3295451.2838364.4342328s.1658784.176937.2506607.2171164v.0132703c-.1518709-.0088468-.2956322-.0143761-.4312839-.0165878s-.2617193.0011059-.3774656.0099527l-.1599805.0066351c-.071512-.169196-.1570316-.3527681-.2572959-.551085s-.2263319-.4353387-.3774656-.7114341c-.276464-.4946863-.4858395-.8754694-.6281263-1.1423494v1.5629433c0,.2005286.0176937.3564543.0538183.4677771.0353874.1113229.0855195.1927876.1496592.2440256.0648769.051238.1526081.089943.263931.1168521v.0132703l-.3206983-.0132703c-.204952-.0132703-.3715677-.020274-.5005842-.020274-.102476,0-.2432884.0070038-.4209626.020274l-.3007929.0132703v-.0132703c.1113229-.0313326.197211-.0722493.2572959-.1238559.0600849-.0508694.1032132-.1312283.130491-.2403394.0265405-.1091111.0398108-.263931.0398108-.4644596V1.2090694c0-.3030046-.0390736-.5042704-.1168521-.6045347s-.1994227-.1327027-.364011-.0969467v-.0132703c.1378634-.0446029.3160905-.1201697.5346814-.2270691.217485-.1068994.3826262-.1961052.4939491-.2672486l.1002643.0265405v3.8480108l.7084852-.7549311c.1511337-.1647726.2388649-.3372861.263931-.5175407.0243288-.1806232-.0117958-.3328627-.1068994-.4578244-.0958409-.1245931-.2307553-.1957365-.4047433-.2137989v-.0132703l.3678815.0132703c.4047433.0180623.7748365.0136389,1.1088051-.0132703v.0199054c-.0626652.0401794-.1400751.1061622-.2337043.197211-.0936292.0914174-.2071637.2082696-.3406037.350925l-.3007929.3273334-.6281263.7081165c.2137989.3472388.4836278.8061691.8087495,1.3760537Z" style="fill:#71423f;"/><path d="M23.0167368,6.2130684c.0622966-.0534497.1087425-.1349144.1400751-.2440256s.0468146-.263931.0468146-.4644596l-.0132703-2.6721171c0-.2093754-.0390736-.3575602-.1168521-.4441856-.0781472-.086994-.1883642-.1327027-.3310196-.1371262v-.0132703c.1470789-.0446029.3218041-.1080053.5245444-.1905759.2027403-.082202.3575602-.1544512.4644596-.2171164l.1002643.0269092.0199054,3.6474822c0,.2672486.0368619.461142.110217.5813117s.1879955.2027403.3439213.2473432v.0132703l-.3273334-.0132703c-.1913131-.0132703-.3339686-.020274-.4275977-.020274-.1157463,0-.2827306.0070038-.5009528.020274l-.2937891.0132703v-.0132703c.1113229-.0269092.1979482-.06672.2606134-.1201697ZM23.0967271,1.3694185c-.0799903-.0803589-.1201697-.1938934-.1201697-.3406037,0-.1470789.0401794-.2606134.1201697-.3409723.0803589-.0799903.1938934-.1201697.3406037-.1201697.1470789,0,.2606134.0401794.3409723.1201697.0799903.0803589.1201697.1938934.1201697.3409723,0,.1467102-.0401794.2602448-.1201697.3406037-.0803589.0799903-.1938934.1201697-.3409723.1201697-.1467102,0-.2602448-.0401794-.3406037-.1201697Z" style="fill:#71423f;"/><path d="M26.0265086,5.4647724c.0423912-.3785714.0678258-.7571428.0770413-1.1357143h.0199054c.0088468.3516623.0600849.6823132.153714.991953.0932605.3096397.220434.5610377.3807831.7549311s.3472388.2904715.5610377.2904715c.2539783,0,.4452914-.0766727.5746766-.2303867.1290165-.153714.1935248-.3505564.1935248-.5912644,0-.2937891-.0921547-.6155933-.2772013-.9654124-.184678-.3494505-.4309153-.6889484-.7379747-1.0188621-.2495549-.2580331-.4412366-.4762554-.5746766-.6546668-.13344-.1780428-.2418139-.369356-.3240158-.574308-.0825706-.204952-.1234873-.4342328-.1234873-.6882111,0-.2628251.058979-.4865767.176937-.6712547.117958-.1850466.2683544-.32291.4508207-.4143274.1828349-.0914174.3719363-.1371262.5680414-.1371262.0799903,0,.1625609.0081096.2469745.0235916.0847823.015482.1714077.0364933.2606134.0634024.1647726.0446029.2827306.06672.3542426.06672.0711434,0,.1290165-.0298581.1736194-.089943.0446029-.0604535.06672-.1371262.06672-.2307553h.020274c-.004792.2230143.0121644.520121.0501321.8920573.0375991.3719363.0833078.689317.1367575.9517735l-.0199054.0070038c-.0980526-.2274377-.2071637-.4567186-.3273334-.6882111-.1515023-.2985812-.3030046-.5311796-.4545069-.6981638s-.32291-.2506607-.5142231-.2506607c-.2182223,0-.3800459.0626652-.484365.1872583-.1046877.1245931-.1570316.2915774-.1570316.5009528,0,.2539783.0423912.4865767.1268048.6981638.0847823.2115871.1949993.4032689.330651.5746766.1360203.1714077.3173807.3704618.5444498.5978996.2137989.2137989.3955279.4172764.5444498.6111698.1492906.1935248.2683544.3962651.3575602.6078523s.1338086.4309153.1338086.6579844c0,.276464-.0493949.527862-.1470789.7549311-.0980526.2270691-.2473432.409904-.4475031.5477674-.2005286.138232-.44566.2071637-.7350257.2071637-.0980526,0-.1905759-.0099527-.2772013-.0298581-.086994-.020274-.1883642-.0479204-.3041104-.0836764-.1780428-.0534497-.3070594-.0799903-.3874183-.0799903-.1470789,0-.2584017.0645083-.3339686.1935248h-.020274c.0534497-.2536097.1013701-.5698845.1437613-.948456Z" style="fill:#71423f;"/><path d="M29.0300139,6.2027471c-.1161149-.1400751-.173988-.3125887-.173988-.5175407,0-.3874183.1205383-.7283906.3608777-1.0221797.240708-.2941577.6034288-.5632494,1.0888997-.8083808v-.5746766c0-.374148-.0342815-.6867367-.1035819-.9385032-.0689317-.2517666-.1680901-.3774656-.2971067-.3774656-.1338086,0-.2429197.0799903-.3273334.2403394-.0847823.1603491-.1271735.3520309-.1271735.5746766,0,.1647726.020274.2985812.0604535.4006885.0398108.1028446.1091111.1448672.2067951.1271735l.0070038.0265405c-.1068994.0980526-.2274377.1470789-.3608777.1470789-.1293852,0-.2351787-.0401794-.3173807-.1201697-.0825706-.0803589-.1234873-.1916817-.1234873-.3339686,0-.2005286.0700376-.3933162.2104813-.5779941.1400751-.184678.318118-.3328627.5341285-.4441856s.433127-.1669843.6517179-.1669843c.1868897,0,.338392.0645083.4541383.1935248.1157463.1293852.1736194.3295451.1736194.6012171v3.1133537c0,.1245931.0258033.2248574.0770413.3004243.0508694.0759355.1168521.1139032.1968424.1139032.0711434,0,.1360203-.0346502.1938934-.1035819.0578731-.0693003.102476-.1636667.13344-.284205l.0136389.0136389c-.0401794.2093754-.1172208.366407-.2307553.4707261-.1135346.1046877-.2550842.1570316-.4242801.1570316-.1647726,0-.2971067-.0401794-.397371-.1201697s-.1636667-.1938934-.1902073-.3406037c-.1116915.1515023-.2340729.2661427-.3675129.3439213-.1338086.0777785-.291946.1168521-.4744123.1168521-.1828349,0-.3317568-.0700376-.4475031-.2104813ZM30.1288663,6.0958477c.0556614-.0375991.1168521-.0965781.1835721-.176937-.0044234-.0221171-.0066351-.0600849-.0066351-.1135346v-1.9105508c-.2937891.1603491-.5053763.3708304-.6343928.6310752-.1293852.2606134-.1938934.5492419-.1938934.8651481,0,.2274377.0423912.4110099.1268048.5514536.0847823.1400751.18947.2101127.3140631.2101127.0844137,0,.1548199-.0187996.2104813-.0567673Z" style="fill:#71423f;"/><path d="M33.8334844,4.896731c.1957365.3387606.3472388.6001113.4541383.7851579.1068994.184678.2016344.3295451.2838364.4342328.0825706.1046877.1658784.176937.2506607.2171164v.0132703c-.1515023-.0088468-.2952636-.0143761-.4309153-.0165878-.1360203-.0022117-.2617193.0011059-.3774656.0099527l-.1603491.0066351c-.0711434-.169196-.1570316-.3527681-.2572959-.551085s-.2259633-.4353387-.3774656-.7114341c-.2760954-.4946863-.4854708-.8754694-.6277577-1.1423494v1.5629433c0,.2005286.0176937.3564543.0534497.4677771.0353874.1113229.0855195.1927876.1500278.2440256s.1526081.089943.263931.1168521v.0132703l-.3206983-.0132703c-.204952-.0132703-.3719363-.020274-.5009528-.020274-.102476,0-.2429197.0070038-.4209626.020274l-.3004243.0132703v-.0132703c.1113229-.0313326.1968424-.0722493.2569272-.1238559.0604535-.0508694.1035819-.1312283.130491-.2403394.0265405-.1091111.0401794-.263931.0401794-.4644596V1.2090694c0-.3030046-.0390736-.5042704-.1172208-.6045347-.0777785-.1002643-.1990541-.1327027-.3638267-.0969467v-.0132703c.1378634-.0446029.3162749-.1201697.5344971-.2270691.2178537-.1068994.3829948-.1961052.4943177-.2672486l.1002643.0265405v3.8480108l.7081165-.7549311c.1511337-.1647726.2392335-.3372861.263931-.5175407.0243288-.1806232-.0114272-.3328627-.1068994-.4578244-.0958409-.1245931-.2307553-.1957365-.4043747-.2137989v-.0132703l.3675129.0132703c.405112.0180623.7748365.0136389,1.1088051-.0132703v.0199054c-.0622966.0401794-.1400751.1061622-.2337043.197211-.0936292.0914174-.2071637.2082696-.3406037.350925l-.3007929.3273334-.6277577.7081165c.2137989.3472388.4832591.8061691.8083808,1.3760537Z" style="fill:#71423f;"/><path d="M35.4369758,6.1828417c-.13344-.153714-.2005286-.381889-.2005286-.6848936v-2.7322019c0-.1872583-.0088468-.3240158-.0265405-.4110099-.0180623-.0866254-.0556614-.1503964-.1135346-.1902073-.0578731-.0401794-.1492906-.0693003-.2738837-.086994v-.0199054c.369356-.0711434.6343928-.12275.7947419-.153714l.2473432-.0468146.0199054.0066351v3.4605925c0,.1916817.0191682.3453957.0567673.461142.0379677.1157463.0892057.1990541.153714.2502921s.1415496.0770413.2307553.0770413c.1021074,0,.1990541-.0313326.2904715-.0936292.0910488-.0622966.2060579-.1714077.3439213-.3273334v-2.9194602c0-.1872583-.0088468-.3240158-.0265405-.4110099-.0180623-.0866254-.0545556-.1503964-.110217-.1902073-.0556614-.0401794-.145973-.0689317-.2705661-.086994v-.0199054c.13344-.0269092.2960008-.0556614.4876826-.086994l.3406037-.06672.2137989-.0401794.0132703.0066351v3.5343162c0,.2093754.0143761.3719363.043497.4876826s.0733551.2060579.1338086.2705661c.0600849.0645083.1456044.1212756.2569272.1703018l.0136389.0066351c-.1695646-.0132703-.3398665-.0199054-.5112742-.0199054s-.3328627.0044234-.484365.0132703h-.0600849l-.0401794-.6012171c-.1913131.2314926-.3605091.4017944-.507588.5109055s-.3030046.1636667-.4677771.1636667c-.2314926,0-.4139588-.0766727-.5477674-.2303867Z" style="fill:#71423f;"/><path d="M38.4600179,6.0958477c.0645083-.117958.0969467-.310377.0969467-.5776255l-.0199054-2.6791208c0-.2226457-.0401794-.3863124-.1205383-.4910001-.0799903-.1046877-.1913131-.1437613-.3339686-.1168521v-.020274c.1470789-.0486577.3240158-.1142718.5311796-.1968424s.3597719-.1548199.4574558-.2171164l.0604535.0265405.0132703,1.7103908c.0401794-.3428154.0888371-.6425024.1467102-.8986924.0578731-.2558214.1393379-.4674085.2440256-.6343928s.2348101-.2550842.3907358-.263931c.1201697-.0044234.2160106.0298581.2875226.1035819.0711434.0733551.1068994.176937.1068994.310377,0,.1068994-.028015.225226-.0836764.3542426-.0556614.1293852-.1190638.2292808-.1905759.3004243l-.0066351-.0066351c.0044234-.0799903-.015482-.141181-.0600849-.1835721s-.1091111-.0634024-.1935248-.0634024c-.0847823,0-.1750939.0479204-.2705661.1433927-.0958409.0958409-.1773056.2351787-.2440256.417645-.06672.1828349-.0958409.4032689-.0866254.661302l.0199054,1.7439351c.0044234.2760954.0446029.4722006.1201697.5879468s.2071637.1913131.3940534.2270691v.0132703l-.3273334-.0132703c-.2491863-.0132703-.420594-.020274-.5142231-.020274-.1068994,0-.2650369.0070038-.4744123.020274l-.2937891.0132703v-.0132703c.169196-.0401794.2860481-.1190638.3505564-.2373905ZM39.1449114,3.3735985l.0331757.1002643-.0866254.0733551-.0401794-.0401794.0936292-.13344Z" style="fill:#71423f;"/><path d="M40.6750477,6.2027471c-.1161149-.1400751-.173988-.3125887-.173988-.5175407,0-.3874183.1205383-.7283906.3608777-1.0221797.240708-.2941577.6034288-.5632494,1.0888997-.8083808v-.5746766c0-.374148-.0342815-.6867367-.1035819-.9385032-.0689317-.2517666-.1680901-.3774656-.2971067-.3774656-.1338086,0-.2429197.0799903-.3273334.2403394-.0847823.1603491-.1271735.3520309-.1271735.5746766,0,.1647726.020274.2985812.0604535.4006885.0398108.1028446.1091111.1448672.2067951.1271735l.0070038.0265405c-.1068994.0980526-.2274377.1470789-.3608777.1470789-.1293852,0-.2351787-.0401794-.3173807-.1201697-.0825706-.0803589-.1234873-.1916817-.1234873-.3339686,0-.2005286.0700376-.3933162.2104813-.5779941.1400751-.184678.318118-.3328627.5341285-.4441856s.433127-.1669843.6517179-.1669843c.1868897,0,.338392.0645083.4541383.1935248.1157463.1293852.1736194.3295451.1736194.6012171v3.1133537c0,.1245931.0258033.2248574.0770413.3004243.0508694.0759355.1168521.1139032.1968424.1139032.0711434,0,.1360203-.0346502.1938934-.1035819.0578731-.0693003.102476-.1636667.13344-.284205l.0136389.0136389c-.0401794.2093754-.1172208.366407-.2307553.4707261-.1135346.1046877-.2550842.1570316-.4242801.1570316-.1647726,0-.2971067-.0401794-.397371-.1201697s-.1636667-.1938934-.1902073-.3406037c-.1116915.1515023-.2340729.2661427-.3675129.3439213-.1338086.0777785-.291946.1168521-.4744123.1168521-.1828349,0-.3317568-.0700376-.4475031-.2104813ZM41.7739001,6.0958477c.0556614-.0375991.1168521-.0965781.1835721-.176937-.0044234-.0221171-.0066351-.0600849-.0066351-.1135346v-1.9105508c-.2937891.1603491-.5053763.3708304-.6343928.6310752-.1293852.2606134-.1938934.5492419-.1938934.8651481,0,.2274377.0423912.4110099.1268048.5514536.0847823.1400751.18947.2101127.3140631.2101127.0844137,0,.1548199-.0187996.2104813-.0567673Z" style="fill:#71423f;"/></svg>