<?xml version="1.0" encoding="UTF-8"?>
<svg id="_レイヤー_2" data-name="レイヤー 2" xmlns="http://www.w3.org/2000/svg" viewBox="0 0 8.17 7.13">
  <defs>
    <style>
      .cls-1 {
        fill: none;
        stroke: #f096aa;
        stroke-linecap: round;
        stroke-linejoin: round;
        stroke-width: .1px;
      }

      .cls-2 {
        fill: #fff;
      }

      .cls-2, .cls-3 {
        stroke-width: 0px;
      }

      .cls-3 {
        fill: #f096aa;
      }
    </style>
  </defs>
  <g id="lay">
    <g>
      <g>
        <polygon class="cls-3" points="5.8 .08 5.73 .07 5.66 .08 5.58 .09 5.51 .08 5.44 .09 5.37 .12 5.29 .1 5.23 .15 5.15 .15 5.08 .16 5.01 .19 4.95 .22 4.88 .24 4.81 .27 4.75 .32 4.69 .36 4.64 .4 4.57 .44 4.5 .46 4.45 .52 4.4 .57 4.35 .62 4.28 .66 4.26 .73 4.2 .78 4.15 .83 4.11 .9 4.06 .95 4.02 .9 3.97 .85 3.93 .78 3.89 .72 3.83 .68 3.79 .61 3.73 .57 3.68 .52 3.62 .48 3.57 .42 3.5 .4 3.45 .35 3.38 .32 3.33 .27 3.26 .25 3.19 .23 3.13 .18 3.06 .16 2.99 .16 2.92 .13 2.86 .11 2.79 .09 2.72 .1 2.65 .09 2.58 .07 2.51 .08 2.44 .07 2.36 .05 2.29 .06 2.22 .06 2.15 .07 2.07 .08 2 .09 1.93 .12 1.86 .12 1.79 .13 1.73 .18 1.66 .19 1.58 .2 1.52 .23 1.45 .27 1.39 .3 1.32 .33 1.26 .36 1.2 .4 1.13 .43 1.08 .48 1.02 .52 .96 .56 .9 .61 .87 .68 .82 .73 .77 .78 .71 .82 .67 .88 .63 .94 .59 1 .54 1.05 .5 1.11 .47 1.18 .43 1.24 .38 1.3 .35 1.36 .33 1.43 .29 1.49 .27 1.56 .25 1.63 .2 1.69 .21 1.77 .18 1.83 .17 1.9 .14 1.97 .11 2.04 .12 2.11 .1 2.18 .09 2.26 .08 2.33 .06 2.4 .08 2.47 .06 2.54 .07 2.62 .06 2.69 .05 2.77 .05 2.84 .05 2.92 .06 2.99 .09 3.06 .1 3.13 .1 3.2 .12 3.27 .14 3.34 .16 3.41 .18 3.48 .2 3.55 .21 3.62 .25 3.69 .27 3.75 .29 3.83 .33 3.89 .37 3.95 .39 4.02 .43 4.08 .45 4.15 .5 4.2 .53 4.27 .58 4.32 .62 4.38 .65 4.45 .69 4.51 .74 4.56 .77 4.63 .83 4.67 .88 4.72 .92 4.78 .96 4.84 1.02 4.88 1.07 4.94 1.12 4.98 1.16 5.05 1.22 5.09 1.27 5.14 1.32 5.19 1.37 5.24 1.43 5.28 1.48 5.33 1.54 5.37 1.59 5.42 1.65 5.47 1.69 5.53 1.76 5.56 1.81 5.6 1.86 5.66 1.92 5.7 1.97 5.75 2.04 5.78 2.1 5.83 2.15 5.88 2.22 5.9 2.27 5.95 2.33 6 2.39 6.04 2.45 6.08 2.51 6.12 2.58 6.15 2.63 6.19 2.7 6.23 2.76 6.27 2.81 6.32 2.87 6.36 2.94 6.38 3.01 6.42 3.05 6.48 3.12 6.52 3.18 6.55 3.24 6.6 3.3 6.64 3.37 6.67 3.43 6.71 3.5 6.74 3.57 6.77 3.62 6.82 3.68 6.86 3.74 6.9 3.81 6.93 3.88 6.96 3.93 7.01 4.01 7.03 4.06 7.08 4.13 7.05 4.18 7 4.25 6.98 4.3 6.92 4.36 6.88 4.43 6.86 4.49 6.81 4.56 6.79 4.62 6.75 4.69 6.72 4.74 6.68 4.79 6.63 4.86 6.6 4.92 6.55 4.98 6.52 5.05 6.5 5.1 6.44 5.16 6.4 5.24 6.38 5.29 6.33 5.35 6.3 5.41 6.25 5.48 6.22 5.53 6.16 5.6 6.14 5.65 6.09 5.72 6.06 5.77 6.01 5.83 5.96 5.89 5.92 5.95 5.89 6.02 5.86 6.07 5.8 6.14 5.78 6.19 5.73 6.24 5.67 6.29 5.62 6.37 5.59 6.42 5.55 6.46 5.49 6.53 5.45 6.59 5.41 6.64 5.36 6.69 5.3 6.76 5.27 6.8 5.21 6.86 5.17 6.9 5.11 6.95 5.06 7 5.01 7.06 4.96 7.12 4.92 7.16 4.86 7.2 4.8 7.25 4.75 7.3 4.7 7.34 4.64 7.41 4.6 7.44 4.54 7.49 4.48 7.52 4.41 7.57 4.36 7.61 4.3 7.64 4.23 7.69 4.18 7.73 4.12 7.75 4.05 7.8 4 7.82 3.93 7.84 3.86 7.88 3.8 7.92 3.74 7.93 3.66 7.94 3.59 7.99 3.54 7.99 3.46 8.02 3.4 8.05 3.33 8.06 3.26 8.07 3.19 8.08 3.12 8.1 3.05 8.08 2.98 8.12 2.91 8.11 2.84 8.12 2.77 8.12 2.69 8.11 2.62 8.11 2.55 8.1 2.48 8.11 2.4 8.09 2.33 8.08 2.26 8.08 2.18 8.05 2.12 8.05 2.04 8.02 1.97 8.02 1.9 7.98 1.83 7.97 1.76 7.93 1.7 7.93 1.62 7.9 1.55 7.87 1.49 7.84 1.42 7.82 1.35 7.76 1.3 7.73 1.23 7.69 1.17 7.67 1.1 7.62 1.05 7.58 .98 7.54 .93 7.5 .86 7.44 .82 7.4 .76 7.34 .71 7.28 .67 7.23 .62 7.19 .56 7.13 .52 7.06 .49 7.01 .44 6.95 .4 6.9 .35 6.83 .32 6.77 .29 6.7 .26 6.63 .24 6.57 .2 6.5 .18 6.43 .16 6.37 .13 6.3 .11 6.23 .11 6.16 .09 6.09 .09 6.02 .06 5.95 .06 5.87 .06 5.8 .08"/>
        <polygon class="cls-1" points="5.8 .08 5.73 .07 5.66 .08 5.58 .09 5.51 .08 5.44 .09 5.37 .12 5.29 .1 5.23 .15 5.15 .15 5.08 .16 5.01 .19 4.95 .22 4.88 .24 4.81 .27 4.75 .32 4.69 .36 4.64 .4 4.57 .44 4.5 .46 4.45 .52 4.4 .57 4.35 .62 4.28 .66 4.26 .73 4.2 .78 4.15 .83 4.11 .9 4.06 .95 4.02 .9 3.97 .85 3.93 .78 3.89 .72 3.83 .68 3.79 .61 3.73 .57 3.68 .52 3.62 .48 3.57 .42 3.5 .4 3.45 .35 3.38 .32 3.33 .27 3.26 .25 3.19 .23 3.13 .18 3.06 .16 2.99 .16 2.92 .13 2.86 .11 2.79 .09 2.72 .1 2.65 .09 2.58 .07 2.51 .08 2.44 .07 2.36 .05 2.29 .06 2.22 .06 2.15 .07 2.07 .08 2 .09 1.93 .12 1.86 .12 1.79 .13 1.73 .18 1.66 .19 1.58 .2 1.52 .23 1.45 .27 1.39 .3 1.32 .33 1.26 .36 1.2 .4 1.13 .43 1.08 .48 1.02 .52 .96 .56 .9 .61 .87 .68 .82 .73 .77 .78 .71 .82 .67 .88 .63 .94 .59 1 .54 1.05 .5 1.11 .47 1.18 .43 1.24 .38 1.3 .35 1.36 .33 1.43 .29 1.49 .27 1.56 .25 1.63 .2 1.69 .21 1.77 .18 1.83 .17 1.9 .14 1.97 .11 2.04 .12 2.11 .1 2.18 .09 2.26 .08 2.33 .06 2.4 .08 2.47 .06 2.54 .07 2.62 .06 2.69 .05 2.77 .05 2.84 .05 2.92 .06 2.99 .09 3.06 .1 3.13 .1 3.2 .12 3.27 .14 3.34 .16 3.41 .18 3.48 .2 3.55 .21 3.62 .25 3.69 .27 3.75 .29 3.83 .33 3.89 .37 3.95 .39 4.02 .43 4.08 .45 4.15 .5 4.2 .53 4.27 .58 4.32 .62 4.38 .65 4.45 .69 4.51 .74 4.56 .77 4.63 .83 4.67 .88 4.72 .92 4.78 .96 4.84 1.02 4.88 1.07 4.94 1.12 4.98 1.16 5.05 1.22 5.09 1.27 5.14 1.32 5.19 1.37 5.24 1.43 5.28 1.48 5.33 1.54 5.37 1.59 5.42 1.65 5.47 1.69 5.53 1.76 5.56 1.81 5.6 1.86 5.66 1.92 5.7 1.97 5.75 2.04 5.78 2.1 5.83 2.15 5.88 2.22 5.9 2.27 5.95 2.33 6 2.39 6.04 2.45 6.08 2.51 6.12 2.58 6.15 2.63 6.19 2.7 6.23 2.76 6.27 2.81 6.32 2.87 6.36 2.94 6.38 3.01 6.42 3.05 6.48 3.12 6.52 3.18 6.55 3.24 6.6 3.3 6.64 3.37 6.67 3.43 6.71 3.5 6.74 3.57 6.77 3.62 6.82 3.68 6.86 3.74 6.9 3.81 6.93 3.88 6.96 3.93 7.01 4.01 7.03 4.06 7.08 4.13 7.05 4.18 7 4.25 6.98 4.3 6.92 4.36 6.88 4.43 6.86 4.49 6.81 4.56 6.79 4.62 6.75 4.69 6.72 4.74 6.68 4.79 6.63 4.86 6.6 4.92 6.55 4.98 6.52 5.05 6.5 5.1 6.44 5.16 6.4 5.24 6.38 5.29 6.33 5.35 6.3 5.41 6.25 5.48 6.22 5.53 6.16 5.6 6.14 5.65 6.09 5.72 6.06 5.77 6.01 5.83 5.96 5.89 5.92 5.95 5.89 6.02 5.86 6.07 5.8 6.14 5.78 6.19 5.73 6.24 5.67 6.29 5.62 6.37 5.59 6.42 5.55 6.46 5.49 6.53 5.45 6.59 5.41 6.64 5.36 6.69 5.3 6.76 5.27 6.8 5.21 6.86 5.17 6.9 5.11 6.95 5.06 7 5.01 7.06 4.96 7.12 4.92 7.16 4.86 7.2 4.8 7.25 4.75 7.3 4.7 7.34 4.64 7.41 4.6 7.44 4.54 7.49 4.48 7.52 4.41 7.57 4.36 7.61 4.3 7.64 4.23 7.69 4.18 7.73 4.12 7.75 4.05 7.8 4 7.82 3.93 7.84 3.86 7.88 3.8 7.92 3.74 7.93 3.66 7.94 3.59 7.99 3.54 7.99 3.46 8.02 3.4 8.05 3.33 8.06 3.26 8.07 3.19 8.08 3.12 8.1 3.05 8.08 2.98 8.12 2.91 8.11 2.84 8.12 2.77 8.12 2.69 8.11 2.62 8.11 2.55 8.1 2.48 8.11 2.4 8.09 2.33 8.08 2.26 8.08 2.18 8.05 2.12 8.05 2.04 8.02 1.97 8.02 1.9 7.98 1.83 7.97 1.76 7.93 1.7 7.93 1.62 7.9 1.55 7.87 1.49 7.84 1.42 7.82 1.35 7.76 1.3 7.73 1.23 7.69 1.17 7.67 1.1 7.62 1.05 7.58 .98 7.54 .93 7.5 .86 7.44 .82 7.4 .76 7.34 .71 7.28 .67 7.23 .62 7.19 .56 7.13 .52 7.06 .49 7.01 .44 6.95 .4 6.9 .35 6.83 .32 6.77 .29 6.7 .26 6.63 .24 6.57 .2 6.5 .18 6.43 .16 6.37 .13 6.3 .11 6.23 .11 6.16 .09 6.09 .09 6.02 .06 5.95 .06 5.87 .06 5.8 .08"/>
      </g>
      <g>
        <path class="cls-2" d="M3.14,3.91s0,0,0,0c0,0,0,0-.01.01,0,0-.02,0-.03,0-.01-.01-.02-.03-.03-.04,0-.01-.02-.03-.03-.04v-.02s-.01,0-.02,0-.02,0-.03,0c-.01,0-.02,0-.04,0,0,.01,0,.02,0,.02,0,0,0,0-.02,0v.02s.02,0,.02,0l.02.02h.04s.02,0,.02,0c0,0,0,0,0,.02,0,0,0,0,.02-.01,0,0,.02,0,.03,0v.02s-.01,0-.01.01c0,0,0,.01-.01.01-.01-.01-.02-.02-.03-.02-.01,0-.02,0-.04,0v.02s0,0,0,0c0,0,.01.01.01.02h-.02s.04,0,.05,0c0,0,.02.01.04.02-.01.01-.03.02-.05.02h-.05s0,0,0,0c0,0,0-.01,0-.02v-.02s0,0-.01-.01c0,0,0,0-.01,0s-.01,0-.02,0c0,0-.02,0-.03-.01,0,0,0,0,0,0,0,0-.01-.01-.02-.01,0,0,0-.02,0-.02,0,0,0,0,0,0,0,0,0,0-.01,0,0,0-.01-.01,0-.02-.01,0-.03,0-.04,0-.01,0-.02,0-.03,0s-.02,0-.02-.01c0,0,0,0,0-.01.01,0,.02,0,.02,0s0,0,0-.02c0-.01,0-.02-.02-.04-.01,0-.02-.02-.03-.04-.01,0-.02-.01-.03-.01,0,0-.01,0-.02,0s0,0-.01,0,0,0-.01-.01h-.03s0-.03,0-.03v-.02h.03s0,.02.02.04c0,0,.01.01.02.02,0-.01,0-.02,0-.02v-.02h-.02l-.02-.02s-.03-.02-.05-.02c0,0,0,0,0,0,0,0,0-.02-.01-.03s0-.03,0-.04,0-.02,0-.02v-.02h-.05s0-.02,0-.02c.01,0,.02,0,.02,0,0,0,0,0,0-.02h-.03s0-.02,0-.01c0,0,0,0-.02,0,0,0,0,0-.01.01,0,0-.01,0-.02,0s-.01,0-.02,0l-.02-.03s.02,0,.02,0c0,0,0,0,0-.02-.02,0-.04,0-.05-.01-.02,0-.04-.01-.05-.02s-.03-.02-.04-.02-.01-.02-.01-.02c0,0,0-.01,0-.01s0,0,0,0c0,0,0,0,0,0,0,0,0,0,.01,0l.03-.02h-.05v-.06s0-.01-.01-.01c0,0,0,0,0,0s0,0,0,0h0s.04,0,.04,0c0-.01,0-.02,0-.03,0,0-.01-.01-.02-.02,0,0-.02,0-.02-.01s0,0,0-.02h.02v-.02s-.02,0-.03,0-.01,0-.01-.01c0,0-.01,0-.02,0l-.03-.02s-.02-.01-.03-.02c0,0-.02,0-.02,0v.02s0,.05,0,.06c0,.01,0,.02,0,.02,0,0,0,0,0,0,0,0,0,0,0,.01,0,.01,0,.03,0,.06s0,.05,0,.06l-.04.04v.02l-.03.02s.02.02.02.02c0,0,0,.01,0,.02l-.03.02h.02l.03-.02v.02s.02.03.02.03c-.01,0-.02.01-.02.02s0,.01,0,.02h-.03s.02.02.02.02c0,0,.01-.01.02-.02,0,0,0,.01,0,.02,0,0-.01,0-.01.01,0,0,0,0,0,.01,0,0,0,0,0,.02,0,0,0,.02,0,.03-.01,0-.02,0-.03,0,0,0-.02,0-.02.02,0,0,0,.01,0,.01,0,0,0,0,0,0s0,0,0,0c0,0,0,0,0,0h.03s0,.03.01.05c0,.02.02.04.03.07h-.02s0,.01,0,.02h0v.03h-.03s-.01,0-.02,0c0-.01,0-.02,0-.02,0,0-.02,0-.04,0v.02s0,.01,0,.02c0-.01-.01-.02-.02-.02,0,0-.01,0-.03,0,0,.01,0,.02,0,.03s0,.02,0,.04c0,.01,0,.02,0,.02,0,0,0,0,.02,0,0,0,0,0,.01-.01,0,0,0,0,.01,0,0,0,.01,0,.02,0v.02s-.03.02-.04.02c0,0-.02,0-.04,0,0,.01,0,.02,0,.02s0,0-.02,0c0,0-.01-.01-.02-.02,0,0-.02,0-.02-.01,0,0-.01-.01-.02-.02,0,0,0-.02,0-.03,0,0,0,0,0-.01,0-.01.01-.02.02-.03-.01,0-.02,0-.03-.01,0,0-.02,0-.02-.01,0,0-.01,0-.02,0h.02s.02-.01.02,0c0,0,0,0,0-.01-.01,0-.02,0-.02,0,0,0,0,0,0-.02.01,0,.01,0,0-.01,0-.01,0-.02,0-.04v-.02.02l.02.03s.02,0,.03,0,.02,0,.04,0c-.01-.01-.02-.02-.02-.03,0,0,0-.01.02-.02-.02-.01-.04-.02-.07-.03-.02,0-.04-.02-.05-.05,0,0,0,0,.01,0,0,0,.01-.01.01-.02.01,0,.03,0,.04,0,.01,0,.03,0,.06,0v-.02h-.04s0-.02,0-.02c0,0,0,0-.02,0h.02s0-.04,0-.04,0-.02,0-.03l-.05.02s0-.02,0-.02,0-.01,0-.02l.02-.02s0,.02.01.03c0,0,.01,0,.01,0h.02s-.02,0-.02,0,0,0,0-.02c.01-.01.02-.02.02-.01,0,0,0,0,0-.01h-.02s-.01,0-.02,0v-.02h0s0,0,0,0c0,0,0,0,0-.01v-.05s.03.03.03.03c0,0,0,.01,0,.01,0,0,0,0,0,0,0,0,0,0,0,0,0,0,0,0,0,.01v-.03s0,0,.01,0c0,0,0,0,0-.02-.02,0-.04,0-.04,0,0,0,0-.02,0-.04v-.02h.03s-.03,0-.04,0-.02-.01-.03-.02c.01,0,.02-.02.01-.02,0,0,0-.01,0-.03.01-.01.02-.02.02-.02,0,0,.01,0,.03,0,0,0,0-.01,0,0,0,0,0,0,.02,0,0-.02,0-.04,0-.04,0,0,0-.02-.02-.05-.01,0-.02,0-.02,0,0,0-.01,0-.02,0,0,0,0,0,0-.01,0,0,0,0-.01-.02s0-.01-.01-.02c0,0,0-.02,0-.04,0,0,.02,0,.03.02s.02.01.03.01v-.02s-.02-.01-.03-.03-.01-.03-.01-.04c0,0,.01,0,.02,0,0,0,.01,0,.02,0h.01v-.02s-.01,0,0,0c0,0,0,0,0-.02,0,0-.01,0-.02,0s-.01,0-.01,0c0,0,0,0-.01-.01,0,0,0-.02,0-.04.01.01.02.02.02.02,0,0,0,0,0-.02,0,0-.01-.01-.01-.02s0-.01,0-.02c0,0,0-.02,0-.02,0,0,0-.02,0-.03,0,.01,0,.02,0,.02,0,0,0,0,.01,0v-.02s-.02-.03-.03-.04c0,0-.01-.02-.02-.02s-.01-.01-.02-.01c0-.01,0-.02.01-.03,0-.01.01-.02.01-.03h-.02s0-.04.02-.05c0,0,.02-.01.03-.03,0,0-.01-.01-.01-.02,0,0,0,0,0,0,0,0,0,0,0,0,0,0,0,0-.02,0v-.02s.02-.02.02-.03c0,0,0-.01,0-.01.01.01.02.02.02,0,0,0,0-.02.01-.02h.02s0,0,0,0c0,0,0,0,0,0,0,0,0,0,.02,0,0,0,.02,0,.03,0,.01,0,.02,0,.04,0v.02s.02,0,.02,0c-.01.01-.02.02-.02.02,0,0,0,.01.02.03h.02s.04.05.04.05c0,0,0,0,0,.01,0,0,.01.01.02.02,0,0,.02.02.02.03,0,0,.01.02.01.02,0,0,0,.01.02.02,0,.01.01.02.02.03,0,.01,0,.02.01.04,0,.01.01.02.02.03-.01,0-.02,0-.02,0,0,0,0,0,0,.01-.01,0-.03,0-.05-.01s-.03,0-.03,0c.02.01.05.02.08.03.03,0,.06,0,.08,0v-.02s0,.02,0,.02c0,0,.01,0,.01,0,0,0,0,0,0,0,0,0,0,0,0,0s0,0,0,.01c.01-.01.02-.01.03,0,0,0,0,.01.02.01,0,0,0,.01,0,.01,0,0,0,0-.02,0s-.01,0-.02,0,0,0,0,.01c.01.01.02.02.02.02s0,.01,0,.02c.01,0,.03,0,.04,0,0,0,.02,0,.03,0h.02s0,.03,0,.04,0,.02,0,.04h-.01s-.02,0-.03,0c-.01,0-.02,0-.02,0,0,0-.01,0-.02.02.01,0,.02.01.04.01.01,0,.03,0,.04,0s.02,0,.04,0c.01,0,.02,0,.02.01.01,0,.02.01.03.03,0,.02.01.03.01.04.01,0,.02,0,.02-.01,0,0,0,0,0-.01.02,0,.04.01.04.03,0,.02.01.03.02.04h-.03s-.02-.02-.04-.01c-.01,0-.03,0-.06,0,0,0,0,.01,0,.02,0,0,0,0,.01,0,0,0,0,0,0,0s0,0,0,0c0,0,.01,0,.02,0,0,0,.02,0,.03.01s.02.01.02.02c0,0,.01.01.01.02h.02-.04s0,0,0,0c0,0,0,0,0,0s0,0,0,0c0,0,0,0,0,.01v-.03s-.02.02-.02.02c0,0-.01,0-.03,0v.03s.02,0,.02,0c.01,0,.03,0,.04,0,.01,0,.04,0,.08,0v-.02s-.02-.02-.02-.03c0,0,0-.01,0-.02.01,0,.02,0,.04,0s.02,0,.03.02c0,0,.01,0,.01.01,0,0,0,.02.01.03s0,.02.01.03.02.01.03.01c.01,0,.02-.01.02-.02s0-.02.01-.02c0,0,0-.02,0-.02s0-.01,0-.01c0-.02,0-.04,0-.06s0-.04,0-.05c.01,0,.02,0,.03,0,0,0,.01,0,.02,0,0-.01,0-.02,0-.02v-.02s-.02-.02-.02-.03c0,0-.01-.02-.02-.04.01,0,.03,0,.04-.01.01,0,.03-.02.04-.03-.01,0-.02,0-.02,0,0,0,0,0,0-.02,0,0,0,0-.01,0-.01,0-.02,0-.03,0,.01-.02.02-.04.02-.05,0-.02,0-.04,0-.06,0,0,0-.01,0-.02s0-.02,0-.03c0,0,0-.02,0-.02,0,0,0-.01,0-.02-.01-.01-.02-.02-.02-.03,0-.01,0-.02,0-.03s0-.03,0-.04c0-.02,0-.04,0-.06-.01,0-.02,0-.03-.02-.01-.01-.01-.03-.01-.05.01-.01.02-.02.03-.02,0,0,.01,0,.03,0l-.02-.02s0-.02,0-.02c0,0,0,0,.02,0v-.05h.03s0-.02,0-.02,0-.01,0-.02c0,0,0-.01,0-.02,0,0,0-.02.02-.03h.03v.02s.02,0,.02-.01.01-.01.03,0c0,.01,0,.02-.01.02,0,0,0,0,.01,0v.02s.02-.02.02-.02c0,0,.01,0,.02,0,0,.01,0,.02,0,.03,0,0,.01.01,0,.02-.01.01-.02.02-.02.02,0,0-.01,0-.02,0,0,.01.01.03.02.04,0,.01,0,.03.02.04h.03s.01,0,.02,0c0,0,0,0,0,0,0,0,0,.01.02.01,0,.01,0,.02-.01.02,0,0,0,0,0,.02.01,0,.02,0,.02,0,0,0,0,0,0,0s0,0,0,0c0,0,0,0,0,.02h.02s-.01.02-.02.03c0,0-.02.01-.02.02s0,.01-.01.02c0,0,0,.02,0,.03l.02-.02s0,.02,0,.03c0,0,0,0,0,0,0,0,0,0,0,0,0,0,0,0-.01.01-.01,0-.02,0-.02,0,0,0,0,.02,0,.04,0,0,.01,0,.02.01s0,.02.01.03c0,.01,0,.02,0,.03,0,0,0,.02,0,.02-.01,0-.02,0-.02,0,0,0,0,0,0,.02,0,0,0,.01,0,.02s0,.01,0,.02v.02s0,.02,0,.03c0,0-.01.02-.02.03.02.02.04.03.04.04,0,.01,0,.02,0,.04l.02.02s.01,0,.01,0c0,0,0,0,0,0,0,0,0,0,0,0,0,0,0,0,0,.02h-.01s0,0,0,0c0,0,0,0,0,0s0,0-.01.01c0-.01-.01-.02,0-.02,0,0,0,0-.01,0v.02s0,.02,0,.02c.01,0,.02,0,.02,0,0,0,0,0,0,0,0,0,0,.01,0,.02s0,0,0,0,0,0,0,0c0,0,0,0,0,.01h-.02v-.02s0,.02,0,.02v.05s.02,0,.02.02c0,0,0,.02,0,.03,0,.01,0,.02,0,.03s-.01.02-.02.02c0,0-.02.02-.02.03,0,.01-.01.03-.01.05.01,0,.02,0,.03,0,0,0,0,.02,0,.03,0,0,0,0-.01.01,0,0,0,0,0,.01s0,0,0,0c0,0,0,0-.01.01h.02s0,0,0,0h.02v.02s-.02.02-.03.02,0,.01,0,.02c.01,0,.02,0,.03.02s.01.02.01.03c-.01,0-.02,0-.02,0,0,0-.01,0-.03.02.01,0,.02,0,.03,0s.01.01.01.02v.02s.02.02.02.02c0,0,0,.01-.01.02,0,0,0,0-.01,0,.01.01.02.02.02.02,0,0,0,.01,0,.02-.01,0-.02,0-.02,0,0,0,0,0,0,.02,0,0,0,0,0,0s0,0,0,0h0s-.01,0-.02,0c0,0,.01,0,.01.02,0,.01,0,.03,0,.04,0,.02,0,.03,0,.04,0,.01,0,.02.01.02,0,0,0,0,0,0ZM1.96,3.24h.03s-.03-.03-.03-.03c0,.01,0,.02,0,.02,0,0,0,0,0,0ZM1.96,3.93s.02,0,.02,0c0,0,0,0,0-.02h-.03s0,.02,0,.02ZM2.02,3.08h.05s0-.04,0-.04c-.01,0-.02,0-.02-.02,0-.01,0-.02-.02-.04-.01.01-.02.02-.02.02s-.01.01-.03.02c.02,0,.04,0,.04,0s0,.02,0,.04ZM1.98,3h.02v-.02s-.02,0-.02,0v.02ZM1.99,3.79h.03-.01s0,0,0,0c0,0,0,0,0,0,0,0,0,0-.01-.01v.02ZM2,2.7v.03s.02,0,.03,0c0,0,0,0,.02-.02h-.04ZM2.04,2.73v.02s0,.01,0,.01c0,0,0,0,0,0,0,0,0,0,0,0,0,0,0,0,.01,0,0-.01,0-.02,0-.02s0-.01,0-.02h-.03ZM2.08,2.82s0,.02-.02.02c0,0-.01.01-.01.02h.03v-.05ZM2.14,3.8h-.02s0-.02-.01-.03c0,0-.02,0-.03,0v.02l.04.03s0-.02.02-.02c0,0,0,0,.01,0ZM2.11,3.53s0,.02,0,.03c0,0,0,0,0,0,0,0,0,0,0,0,0,0,0,0,0,.01v.02l.03-.02s.01,0,.01-.01c0,0,0,0,0,0s0,0,0,0,0,0,0-.01c0,0,0,0,0-.01,0,0-.01-.01-.02-.01ZM2.08,3.18v.02h.02v-.02h-.02ZM2.09,3.13v.02s.02,0,.02,0v-.02s-.02,0-.02,0ZM2.13,3.23h-.02s.02.02.02.02v-.02ZM2.11,3.1v.02s0,.01,0,.02c0,0,.01,0,.01,0,0,0,0,0,0,0,0,0,0,0,0-.01v-.02h-.03ZM2.15,3.27v.02s.02-.02.02-.02h-.02ZM2.15,2.83v.02s.02,0,.02,0v-.02s-.02,0-.02,0ZM2.21,2.95v.02s.02,0,.02,0v-.02s-.02,0-.02,0ZM2.26,3.03h-.03s0,.02,0,.02h.02s0-.02,0-.02ZM2.28,2.69h-.03s0,.02,0,.02c0,0,0,0,.02,0v-.03ZM2.29,2.88h-.02l.02.02v-.02ZM2.29,2.84s.02.02.03.02.02,0,.04,0c0-.01,0-.02,0-.02,0,0,0,0-.01,0h-.04ZM2.33,3.01v-.02s-.02,0-.02,0v-.02s0,.02,0,.02c0,.01,0,.02,0,.02,0,0,0,0,.02,0ZM2.4,3.1s-.03,0-.04,0c-.01,0-.02,0-.04,0,0,.01,0,.02.01.03,0,.01.02.02.03.02.01,0,.03,0,.04-.01.01,0,.02-.01.04,0v-.02s-.02-.02-.02-.02c.01,0,.03,0,.04,0s.03,0,.05,0v-.02s-.02,0-.02,0c-.01,0-.03,0-.04,0,0,0-.02,0-.03,0,0,0-.02,0-.02,0h-.02s.02.02.02.02,0,.01,0,.02ZM2.38,2.99v-.03s-.02,0-.02,0v.02s.02,0,.02,0ZM2.45,3.36v-.02s0,0,0-.02h-.02s-.02,0-.02,0v.02s0,0,.01,0c0,0,0,.01,0,.02h.02ZM2.48,3.25v-.02h-.04s0,.02,0,.02c0,0,.02,0,.02,0,0,0,.01.01.02.02v-.02ZM2.49,3.42v-.02s-.02,0-.02,0v.02s.02,0,.02,0ZM2.52,3.34s-.02-.02-.02-.02c0,0-.01,0-.02,0v.02s.04,0,.04,0ZM2.58,3.19s-.02,0-.03-.01c0,0-.02,0-.02,0,0,0-.02,0-.02,0,0,0,0,.01,0,.02,0,0,0,0,0,0,0,0,0,0,0,0,0,0,0,0,0,.01h.04s.01,0,.01,0c0,0,0,0,0,0s0,0,0,0,0,0,0-.01ZM2.56,3.43v-.02s-.02,0-.02,0v.02s.02,0,.02,0ZM2.59,3.37v.02s.02,0,.02,0c0,0,0,0,0-.01,0,0-.01-.01-.02-.01ZM2.62,3.33v.02s0,0,.01,0c0,0,0,0,0,0,0,0,0,0,0,.01l.02-.02s-.01,0-.02,0,0,0-.01,0c0,0,0,0-.01-.01ZM2.72,3.56l-.02.02s.02.01.03.01c0,0,.01,0,.02,0v-.02h-.02ZM2.71,3.31v.02h.02s0-.01,0-.01c0,0,0,0-.02-.01ZM2.76,3.38h-.03s0,.02,0,.02c0,0,0,0,.03,0v-.02ZM2.77,3.27l-.03.02h.03s0,0,0,.01h0s.02-.01.02-.01c0,0,0,0,0-.02h-.02ZM2.8,3.38s0-.02,0-.02c0,0-.02,0-.04,0v.02s.02,0,.02,0c0,0,0,0,0,.02.01,0,.03,0,.04,0s.02,0,.04,0h-.03s-.03.02-.04.02-.02.01-.04.02v.02h.02s.02,0,.02,0v-.02s.03,0,.04,0,.03-.01.04-.01c0,.01.01.02,0,.03,0,0,0,.01.01.03h.02s.02-.01.01-.02c0,0,0,0,.01,0l.03-.02v.02s.02,0,.02,0c0,0,.01,0,.02-.02,0,0-.02,0-.02,0,0,0-.01-.01-.03-.02-.01.01-.02.02-.02.02,0,0-.01,0-.02,0v.02s-.01-.01-.02-.02c0,0,0-.01-.01-.02,0,0,0-.01-.01-.02v-.03s0-.01,0-.01c-.01,0-.03,0-.04,0-.01,0-.03.01-.04,0ZM2.84,3.56s0,.01,0,0c0,0,0,0,.02.01v-.02s-.02,0-.02,0ZM2.87,3.85l.03-.03-.03-.02h-.02s0,0,0,0l.02.04ZM2.89,3.8v-.03s-.02,0-.02,0v.03s.02,0,.02,0ZM2.88,3.61h.05s0-.02,0-.02h-.02s-.01,0-.02,0v.02ZM2.94,3.81v-.02s-.02,0-.02,0h0s0,.01,0,.01c0,0,0,0,0,0,0,0,0,0,.01.01ZM2.93,3.92v.02s.02,0,.02,0v-.02s-.02,0-.02,0ZM3.01,2.5v-.02h-.02s0,0-.01,0c-.01,0-.02,0-.03,0v.02s.04,0,.04,0h.02ZM3.09,3.65s-.02.02-.02.02c0,0-.01,0-.02,0v.02s.02,0,.03,0c0,0,.01,0,.02,0,0,0,0,0,.01,0,0,0,0,0,.01-.02-.01,0-.02,0-.02,0,0,0,0,0,0-.02ZM3.07,2.63v.02l.02.03s.02-.02.02-.03c0,0,0-.02,0-.05h-.02s0,0,0,.01c0,0,0,.01,0,.02,0,0,0,.01-.01.02v-.02ZM3.12,3.56h-.02s-.02.02-.02.02c0,0,0,0,0,.01h0s0,.01,0,.01h.01s0-.02,0-.02,0,0,0,0c0,0,0,0,0,0,0,0,0,0,.01,0ZM3.16,3.08h-.03s0,0,0,0,0,0,0,0c0,0,0,0,0,0,0,0-.01,0-.02-.02v.05s.02,0,.02,0h.02s.01,0,.02,0v-.02ZM3.1,2.47s0,0,0,.01c0,0,0,0,0,0,0,0,0,0,0,0s0,0,.01,0v-.02ZM3.11,3.72s0,.02-.01.02,0,0,.01-.02h0ZM3.14,3.71h-.02v.02h.02v-.02ZM3.14,3.25s0-.01,0-.02c0,0,0,0,0,0s0,0,0,0c0,0,0,0-.01,0v.02s0,0,0,0,0,0,0,0,0,0,0,0c0,0,0,0,.01,0Z"/>
        <path class="cls-2" d="M4.39,3.94s-.01.02-.02.02c0,0-.02,0-.03,0,0,0-.02,0-.03,0-.01,0-.03,0-.04,0h-.03s-.01,0-.02.01c0-.01,0-.02,0-.02,0,0,0,0,0,0-.01.01-.02.02-.04.03-.02,0-.03,0-.04,0-.01,0-.02,0-.02-.01s0-.01-.02-.01v.02s-.01,0-.01-.01c0,0,0,0,0-.01-.01,0-.02,0-.03,0,0,0,0,0-.01,0,0,0-.01,0-.02-.02,0,0,0-.02-.02-.03-.01,0-.03,0-.04,0-.02,0-.04,0-.06-.02,0,0,0,0,0-.01,0,0-.01,0-.02-.01,0,0-.01,0-.02,0s0,0,0,0v-.06s-.01,0-.01,0c0-.01,0-.02,0-.02s0,0-.01-.02c-.01,0-.02,0-.03,0,0,0-.01,0-.02.02,0-.02-.01-.04-.01-.05,0-.01,0-.02-.02-.03,0,0,0,.01-.01.02,0,0,0,0,0,0,0-.01-.01-.02-.02-.03,0,0,0-.01-.02-.02h.03s.02,0,.03-.01h-.04s-.02,0-.03-.02c0,0-.02-.01-.03-.01,0,0,0-.02,0-.02,0,0,0,0-.02,0l.03-.02.02-.02h0s0-.03,0-.04h-.02s0,.02,0,.02v.02s-.02-.02-.02-.02c0,0-.01,0-.02,0h-.02s0-.01.01-.01c0,0,0,0,0,0,0,0,0,0,0,0s0,0,0,0c-.01-.01-.02-.02-.02-.03,0,0,0-.02,0-.03v-.02s.04.02.05.02c.01,0,.02-.01.03-.03-.02,0-.03,0-.05-.01-.01,0-.03,0-.05,0v-.04s.02,0,.03,0c0,0,.01,0,.02-.02v-.02h-.02s0,.02,0,.02h-.02v-.02s-.02,0-.03,0c0,0-.02,0-.03,0-.01,0-.02,0-.02,0,0,0-.01,0-.02,0,0,0,0-.02,0-.03,0,0,0-.01-.02-.01.02,0,.04,0,.05,0,.01,0,.03,0,.05-.01,0-.01,0-.02,0-.02s0,0,.02-.02c-.01,0-.02,0-.02,0,0,0,0,0-.02-.02,0,0,.02,0,.02-.02,0-.02.01-.03.03-.04,0,0,.02,0,.04,0,.02,0,.03,0,.04-.01-.01,0-.02-.01-.03-.03,0,0,0-.01-.01-.02.01,0,.02-.02.03-.02,0,0,.01,0,.02,0,0,0-.01,0-.02-.02,0,0,0,0,0-.01h.02s0-.04,0-.04c.02,0,.04,0,.05,0,.01,0,.02,0,.03-.01,0,0,0-.01-.01-.01,0,0,0,0,0,0s0,0,0,0h0s0-.02.01-.03c0,0,0-.01.02-.02s.01-.01.02-.02c0,0,.02,0,.04,0,0-.01,0-.03,0-.03,0,0,0-.01,0-.02,0,0,0,0,0,0,0,0,0-.01.02-.02h-.02s0,0,0,0,0,0,0,0c0,0,0,0,0,0,0,0,0,0-.01,0,0-.01,0-.02-.01-.02,0,0,0-.01,0-.02h.04s0-.02,0-.02c0,.01.02.03.03.04,0,.01.02.02.03.04,0-.01,0-.02,0-.02,0,0,.02,0,.04,0v-.02s0,0,0-.02c0,0,0,0,.01,0,.01,0,.02,0,.03,0h-.02s0-.01,0-.01h0s0,0,0,0,0,0,0-.01c-.01.01-.03.02-.04.02,0,0-.02,0-.03,0v-.02s.03-.01.03,0c0,0,.02,0,.03,0,0,0,0-.02.02-.02s.03,0,.05,0c.01,0,.02,0,.04.01s.03,0,.05-.02v-.02s.02.01.04.02c.01,0,.03,0,.04.01.02,0,.03,0,.04.01.01,0,.03.01.04.02.01-.01.02-.02.03-.02,0,0,.02,0,.04,0,0,0,0,.01.01.01,0,0,0,0,0,0,0,0,0,0,.02,0,0,0,.01,0,.02,0v.02s-.02,0-.02,0c0,0-.01,0-.03.02-.02-.02-.03-.03-.06,0,.01.01.03.02.04.02s.03,0,.04,0c.01,0,.03,0,.04,0,.01,0,.03,0,.04,0,0,0,0,0,0,.01,0,0,0,.02,0,.03h.02s0-.01,0-.01c0,0,.02,0,.04,0v.02s0,.02,0,.03c0,.01,0,.02.01.03,0,.01.01.02.02,0,0,0,.01,0,.02,0v.02s.01,0,.02,0c0,0,.01,0,.01.02,0,0,0,.01,0,.02s0,.01,0,.02c0,0,.02,0,.03.01,0,0,.02.01.03.01-.01,0-.02,0-.02,0,0,0-.01,0-.02.01,0,0,.02,0,.03.02,0,0,.01.02.01.03-.01,0-.02.01-.03.02,0,0,0,0,0,.02,0,0,0,0,.01,0,0,0,.02,0,.03,0v.02s-.02,0-.03,0-.02,0-.03,0v.04s0,.02,0,.02,0,.01-.02.02c0,.01.01.02.02.02,0,0,0,.01,0,.02,0,0,0,0-.01,0,0,0,0,0,0,.02-.02-.02-.04-.04-.06-.04-.02,0-.04,0-.06-.01v-.02s-.02,0-.02,0c0,0,0,0-.02-.02,0,.01,0,.02,0,.02,0,0,0,0-.02,0,0,.01.02.02.03.02s.02,0,.03,0l-.02.02s-.04.01-.06.01c-.01,0-.03,0-.05-.02v.02s.02,0,.02,0c0,0,0,0,0,.02s0,.02,0,.02c0,0,0,0-.02,0,0-.01,0-.02,0-.03,0,0,0-.02,0-.03v-.02s0,0-.02,0c-.01,0-.02,0-.03.01,0,0-.02.01-.02.02,0,0-.01.01-.01.02-.02-.01-.04-.02-.07-.03-.03,0-.05,0-.07.02l-.02-.02s-.02,0-.03,0h-.03s.01.02.01.02c0,0,0,0,0,.02h-.04s-.01-.02-.01-.01c0,0,0,0,0,0,0,0-.02,0-.02,0,0,0,0,0-.02-.02,0,.02,0,.03,0,.04s-.02,0-.04,0v-.02s-.02,0-.03-.02c-.01,0-.03-.01-.05-.02,0,.01,0,.01,0,.01s0,0,.02,0h-.04v.02s0,.02,0,.02c0,0,0,0,.02,0h-.04s0,.01,0,.01c0,0,0,0-.02,0h0s0-.03,0-.04h-.02s0-.02,0-.02c0,0,0,0,.02-.02h-.02s-.02.01-.03.01c-.01,0-.02,0-.03.02h.02s0,.02,0,.03c0,0,.02.01.03.02,0,.01,0,.02-.02.02,0,0-.01,0-.01.02-.01-.01-.01-.02-.01-.02,0,0,0,0,0,0,0,0,0,.02-.01.02,0,0,0,0-.01,0,0,0,0,0-.01,0,0,0,0,.01,0,.03h.02s.02-.01.04-.01c.01,0,.03,0,.05,0v.02s0,.02,0,.02c0,0,0,0-.02,0,0,0,0-.01,0-.02s0,0,0,0,0,0,0,0,0,0,0,0l-.02.02h.02s0,.02,0,.02c0,0,0,0-.02.02.02,0,.04,0,.05,0s.02,0,.03.02c-.01,0-.02,0-.02,0,0,0-.01.01-.02.01.02,0,.04,0,.06.02s.03.03.04.05c0,0-.02,0-.02,0,0,0,0,0,0,.02h-.02s-.01,0-.02,0c.01.01.02.02.03.01.01,0,.02,0,.03,0l.02.02s-.02.02-.02.02c0,0,0,0-.02,0h.02s0,.02.01.01c0,0,.02,0,.03.01l.02.04s.05.01.06.02.02.03.01.05c.02,0,.04-.01.07-.03,0,.01,0,.02,0,.02,0,0,0,0,.02,0s.01,0,.02,0c0,0,.01,0,.02,0v.02s-.02,0-.03,0-.02,0-.04.01h.02s.02,0,.02.02c0,0,0,0,.02,0,.01-.02.03-.03.04-.03.01,0,.02-.01.03-.02,0,0,.01,0,.03.01.01,0,.03,0,.04,0h.07s0,.02,0,.02c0,0,0,0,0,0,0,0,.02,0,.02,0,.02,0,.03,0,.04,0,.03,0,.05,0,.07-.02s.03-.02.04-.03h.02l.05-.02h.04s.02.02.03.02c0,0,.01.01.01.02h-.02s0,.02,0,.02v.02h-.02s0,.02,0,.02c-.02,0-.04.02-.05.03-.02.01-.04.02-.07.01v.02h-.07.04-.04ZM3.6,3.34v-.02s0-.02,0-.02c-.01,0-.02.01-.02,0,0,0,0,0,0,0l-.02.02h.04ZM3.67,3.26h.02v-.02s-.02,0-.03,0c0,0-.01,0-.01.02h.02ZM3.69,3.06v.02s.02,0,.02,0v-.02s-.02,0-.02,0ZM3.73,3.12s0-.02,0-.02,0,0-.02,0h-.02s.02.02.02.02h.02ZM3.76,3.6s-.02-.02-.03-.02-.02,0-.03,0v.02h.02s.02,0,.02,0h.02ZM3.75,3.08s0,0,0,0c0,0,0,0,0,.02h.02s0-.02,0-.02ZM3.77,3.1v.02s.01,0,.01,0c0,0,0,0,0,.02.02,0,.03,0,.04,0,0,0,.02,0,.02,0s0,0,.01,0c0,0,.01,0,.02,0,0,0,.02,0,.03,0,.01,0,.02,0,.03,0,0,0,.01,0,.02,0h0s.02,0,.03,0c0,0,.01.02,0,.03,0,0,.02,0,.03,0,0,0,.02,0,.03,0v-.02s-.04,0-.04,0v-.02s.03,0,.04,0c.02,0,.04,0,.06,0h.02s.04,0,.06,0c.02,0,.03,0,.05-.02,0,.02.02.04.05.05.02.01.04.02.05.02v-.02s-.01,0-.02,0c0,0,0,0-.02-.02,0,0,0,0,0-.01,0,0,0-.02,0-.03,0,0,.02,0,.03-.01.01,0,.03,0,.04-.01.01,0,.03,0,.04-.01s.02,0,.03-.01c0,0-.02,0-.02,0s0,0,0-.02c0,0,.02,0,.03.01,0,0,.02.01.03.02,0,0,0,.01,0,.02,0,0,0,.01.02.03l.04-.02v-.02h-.02s0-.02,0-.02c-.03-.01-.06-.02-.08-.01s-.05.01-.08.02c0-.01,0-.02,0-.02,0,0,0-.02,0-.04,0,0,.03,0,.05,0,.02,0,.03,0,.03-.01,0,0-.02,0-.04,0-.02,0-.04,0-.06,0,0-.01-.01-.02,0-.02,0,0,0,0,0,0,0,0,0,0,.01,0,0,0,0,0,.01,0h.02v-.02s-.03,0-.04,0c0,0-.01,0-.02-.02-.01,0-.02,0-.03,0-.02,0-.03,0-.04,0,0,.01,0,.02,0,.02,0,0,0,0,.02,0h.02s0,0,.02,0c0,0,0,.01.01.02,0,0,0,0,.01.01h.01s-.02.04-.01.04c0,.01,0,.02,0,.03-.01,0-.03.02-.04.03,0,0-.02.02-.03.03v-.02s0-.02,0-.02h.02v-.04s-.02.03-.02.02c0,0,0-.01-.02-.02,0,0-.02,0-.03,0,0,0-.01,0-.01,0-.01,0-.01,0,0-.01,0,0,0,0,0-.01h-.02s-.01-.03,0-.03c0,0,0-.01-.03-.01v.02s.01.02.01.02h-.02s-.02,0-.03,0c-.01,0-.03,0-.04,0-.01,0-.02,0-.04,0-.01,0-.02,0-.04,0,0,0,0,0,0,.01v.03h-.04s0,.02,0,.02c-.02,0-.04,0-.05-.01-.01,0-.03,0-.05,0v.02s.01.03,0,.04c0,.01-.02.02-.03.02,0,.01,0,.01-.01,0,0,0-.02,0-.03-.01v.02ZM3.84,3.26v-.02s-.02,0-.02,0v.02s.02,0,.02,0ZM3.93,2.96v.02h.02s0-.02,0-.02h-.02ZM3.95,3.85v-.02h-.02v.02h.02ZM3.99,3.25v-.02s-.02,0-.02,0v.02s.02,0,.02,0ZM4,2.9s0,0,0,0c0,0,.01.01.01.02v-.02h-.02ZM4.02,2.9v.02s.03,0,.04.01c0,0,.01,0,.02.01.01,0,.02,0,.02,0,0,0,0,0,0-.01-.02,0-.04,0-.04-.02s-.02-.01-.04-.02ZM4.16,2.9s-.02,0-.02,0c0,0,0,0-.02-.02,0,0-.02,0-.03,0-.01,0-.02,0-.03,0v.02s.02,0,.03.02c0,.01.02.02.03.03,0,0,0-.01,0-.02s0-.01.02-.02c0,.01,0,.02,0,.02s0,0,.02,0v-.02ZM4.09,2.81h-.02s0,.02,0,.02h.02s0-.02,0-.02ZM4.12,2.79h-.02s0,0,0,.01c0,.01,0,.02,0,.03l.02-.02v-.02s-.01,0-.01,0ZM4.13,2.77v.02s0,0,0,0c0,0,0,0,0,0,0,0,0,0,0,0,0,0,0,0,.02.02v-.04s-.01,0-.01,0c0,0-.01,0-.02,0ZM4.24,3.83s0,.02,0,.02c0,0,0,0-.02.02h.02s0-.02,0-.02v-.02ZM4.26,3.19h.02s-.02,0-.02,0-.02-.01-.04-.02v.02s.02,0,.02.01c0,0,.01,0,.02,0ZM4.35,3.12v-.02s0-.01,0-.02c-.01,0-.02.01-.02.02,0,0,0,0,0,.02h.02ZM4.41,2.92v.02s.02,0,.02,0c0,0,.02,0,.02,0,0,0,0,0,0-.02h-.04ZM4.44,3.23v-.02s-.02,0-.02,0v.02s0-.02,0-.02c0,.01,0,.02,0,.02h0ZM4.45,3.17h-.02s.02.02.02.02v-.02ZM4.47,2.92h-.02s0,.02,0,.02c0,0,0,0,.02,0v-.02ZM4.47,3.11v-.02s-.02,0-.02,0v.02s.02,0,.02,0ZM4.56,3.1h-.02s0,.02,0,.02,0,0-.02.02c0,0,.02,0,.03,0h.01v-.04Z"/>
        <path class="cls-2" d="M6.29,2.9s0,0,.02,0h.02v.04s-.02.02-.02.02c0,0-.01,0-.02,0l.02.02s-.02,0-.02,0,0,0-.02.02c0,0,.01.02.01.04s0,.02-.01.02h-.02s0,.03,0,.03c0,0,0,.01.02.02,0,0,0,.01,0,.02s0,.02-.01.03c0,0,0,.02-.01.03,0,0,0,.02,0,.02,0,.01.02.01.02.01,0,0,0,0,0,0,0,.01-.02.02-.02.03,0,0-.01.01-.02.01h-.02v.02s.02,0,.02.02c0,0,0,.02,0,.04-.01,0-.02,0-.02,0,0,0,0,.01-.02.01,0,.02,0,.03-.01.03,0,0-.01,0-.01.01,0,0,0,0,0,.01,0,0,0,0,0,.01,0,0,0,0,0,.02-.01,0-.02,0-.02,0,0,0-.01,0-.02.02,0,.01,0,.03,0,.04,0,.01,0,.02,0,.03,0,.01,0,.02,0,.02,0,0-.01,0-.02,0,0,0-.01,0-.01,0,0,0,0,0,0,0,0,0,0,.01,0,.03l.02.02h-.02v.11h-.02v.04s-.01,0,0,0c0,0,0,0,0,0,0,.01.01.02.02.02,0,0,.01,0,.02,0-.01.02-.02.04-.02.06,0,.02,0,.03-.02.04-.01,0-.02,0-.02,0,0,0,0,0,0,0,0,0,0,0-.01.01,0,0-.01.01-.02.02,0,0,0-.02-.01-.02,0,0-.01,0-.01-.02,0,.01-.02.02-.02.02s-.02,0-.04,0c0,0,0-.01,0,0,0,0,0,0,0-.01h-.02v-.1h-.02s-.01-.02,0-.02c0,0,0,0,0,0,0,0,.01,0,.01,0,0,0,0,0,0-.02h-.02v.02h-.02v-.04s0,0,0-.01,0,0,0-.01,0,0,0,0c0,0-.01,0-.02,0v-.1h-.04v-.06h-.04v-.1l-.02-.02s-.02-.02-.02-.04,0-.03.02-.04h-.04s0-.02,0-.02c0,0,0,0,0,0-.01,0-.02.02-.02.03,0,0,0,.01-.02.01-.01-.01-.02-.02-.01-.02,0,0,0,0-.01,0h-.04v.02s.02,0,.02,0,0,0,0,0c0,0,0,0,0,0,0,0,.01,0,.02,0v.02s-.03.02-.03.02c0,0,0,0,0,.02-.01,0-.02.02-.03.02-.01,0-.02,0-.03.02h.02s0,0,0,0c0,0,.01.01.01.02-.01,0-.02.01-.03,0,0,0-.01,0-.01,0,0,.01.01.02,0,.03,0,0,0,.02,0,.03h-.04v.02s.02.02.02.02c0,0,0,.01,0,.02-.01,0-.02,0-.02,0,0,0,0,.01,0,.03h-.02v.02h-.04v.02h.04s-.04.14-.04.14c-.01.01-.02.02-.02.02,0,0-.01.01-.02.02.02,0,.04.02.04.03,0,0,.01.02.02.03h-.02s-.01,0-.02.01c0,0-.01,0-.02,0s-.01,0-.02,0c-.01,0-.02,0-.03,0,0,0-.01,0-.02.01s-.01,0-.02.01c0,0-.01,0-.02,0,0,0,0-.02,0-.02,0,0,0,0-.02,0,0,0,.02-.02.02-.02s0,0,0-.02h-.02s0,.01,0,.01c0,0,0,0-.02,0,0-.02,0-.03-.03-.04-.02,0-.04,0-.08,0,.01,0,.01-.02,0-.03,0,0-.02-.02-.03-.03h-.02s0-.02.01-.03c0-.01.01-.02.01-.03,0,0,0,0-.01,0,0,0,0,0,0,0,0,0,0,0,0,0,0,0,0-.01-.01-.02h.04s-.02-.03-.02-.04,0-.02,0-.04c-.02-.01-.03-.02-.04-.02,0,0,0-.02,0-.04,0,0,0,0,0,0,0,0,0,0,0-.02l-.02-.02s-.01-.03,0-.05,0-.05,0-.06c0-.01-.01-.02-.02-.03,0,0,0-.02,0-.03,0,0,0,0,0,0,0,0,.01,0,.01-.02,0,0-.02-.02-.03-.02,0,0-.01-.01-.01-.02v-.1s-.01-.03,0-.04c0,0,0-.01,0-.02,0,0,0-.01-.01-.02,0,0,0,0,0,0,0-.01,0-.03-.01-.04,0-.01,0-.02,0-.03,0-.01,0-.02,0-.02.01,0,.02,0,.02,0,0,0,0,0,0,0,0,0,0-.01-.01-.02,0,0,0,0,0,0,.01-.01.02-.01.02-.01,0,0,0,0,0,0h-.02s-.02-.02-.02-.03c0,0-.01-.01-.02-.01v-.1s.05-.03.07-.05c.01-.01.03-.03.05-.05.02,0,.04,0,.06.01.02,0,.04,0,.06,0,0,.01,0,.02,0,.03,0,0,.01.02.01.03h-.02s.01,0,.02.01c0,0,0,0,0,.01,0,0,0,0,0,.01,0,0-.01.01,0,.02,0,0,0,0,0,0v.06s0,0,0,0c0,0,0,0,0,0,0,0,0,0,0,0,0,0,0,0,.01,0-.01,0-.02.01-.02,0,0,0,0,0,0,.01l.02.02s-.02,0-.01,0,0,0-.01.02c.01,0,.02,0,.03,0s.01,0,.01.02v.02l-.02-.02v.02h-.02s.02,0,.03,0c0,0,.01,0,.01.01,0,.01-.03.02-.05.03-.02,0-.04.01-.05.01v.02h.06s.02-.02.02-.02c0,0,0,0,.02,0l.02.02v.04s.01,0,0,0c0,0,0,0,0,.02,0,0-.02,0-.03,0,0,0-.02,0-.03.02.01.01.02.02.03.02,0,0,.02,0,.03,0,0,0,0,.02.01.02s.01.02.01.04c0,0,.02,0,.02.02s0,.03-.02.04c.02,0,.03,0,.04,0,0,0,.01,0,.02.02,0-.01,0-.02.01-.04,0-.02.01-.03.01-.04,0-.01,0-.02.01-.02,0,0,.02-.01.03-.02,0,0-.02,0-.02,0,0,0,0,0,0-.02-.01,0-.01-.02,0-.04.01-.02.03-.03.04-.04,0,0,0-.02,0-.03,0-.01-.01-.02-.01-.03,0,0,.01,0,.02,0,0,0,0,0,0-.01.01,0,.01,0,0-.01,0,0,0-.02,0-.02h.02s0,0,0-.01c0,0,0,0,0-.01,0,0,0-.01,0-.02,0,0,0,0,0-.01,0,0,0,0,.02,0,.01-.02.02-.04.02-.06s0-.04,0-.06c0,0,0,0,.02-.01s.01,0,.02,0,.01,0,.02,0v-.04s.02-.02.02-.02c0,0,.01,0,.02,0,.01.02.02.04.02.05s0,.03.02.05c0,0,.02-.02.02-.02,0,0,.01,0,.02,0,0,0,.01,0,.02,0,0,0,0,0,.02.02h-.06s.02.02.03.02.03,0,.05,0c0,.02,0,.03-.01.04s-.01.01-.01.02c.02,0,.04,0,.05,0,.01,0,.02,0,.03.02v.04h-.02s0-.02,0-.02c0,0,0,0-.02,0v.02s.02,0,.03,0c.01,0,.02,0,.03.02,0,0-.02,0-.03,0,0,0-.01,0-.01.01l-.02.02h.04v.04h-.06v.02s.02-.01.04,0c.01,0,.04,0,.07,0,0,0,0,0,0,.01,0,0,0,0,.02,0-.01.01-.02.02-.02.02,0,0,0,.01,0,.02l.02.02s.02,0,.02,0c0,0,0,0,0,.02l-.02.02s.02,0,.03,0,.01,0,.01.02c0,0-.02,0-.03,0,0,0-.01,0-.01.02h-.02s.04,0,.05,0c0,0,.01,0,.01.02h.02-.04v.04h.04s0,.01,0,.02c0,0,0,.01.01.02,0,0,.01.01.02.02-.01,0-.02.02-.03.02,0,0-.02,0-.03,0v.02h.06v.04h.04-.02s0,.02-.01.03c0,0-.02.01-.03.01v.02s.02.02.02.02c0,0,.01,0,.02,0,0,0,.02-.02.02-.02,0,0,0,0,.02,0v-.1s.01,0,0,0c0,0,0,0,.01,0v-.02s.02-.02.02-.02c0,0,.01,0,.02,0v.02s.01-.01.02-.01c0,0,0,0,0,0h-.02s-.02,0-.02,0c-.01,0-.02,0-.02-.02,0-.01,0-.02,0-.03,0,0,0-.02.02-.03h.02s0-.02,0-.02c0,0,0,0,0-.02,0-.01,0-.02,0-.02,0,0,0,0,.01,0,0-.01,0-.02,0-.04,0-.01,0-.02,0-.02l.02-.02v.02s.01,0,0,0c0,0,0,0,.01,0-.01,0-.02-.02-.02-.03,0-.01-.01-.02-.02-.03.01,0,.02-.02.03-.03.01-.01.02-.02.03-.03v-.02h.04s-.02-.02-.02-.04c0-.02,0-.04,0-.06.02,0,.03,0,.04,0,0,0,0-.01,0-.03h-.02s0-.02,0-.04c0,0,0-.01.01-.02,0,0,0-.02,0-.03,0-.01,0-.02,0-.03,0-.01,0-.02,0-.03,0,0,.01-.02.02-.02,0-.01.02-.01.04,0,.02,0,.04,0,.06,0v.04s-.02,0-.02,0c0,0,0,0,0,.02h.02s-.02.01-.02.02,0,0-.02,0v.02l.02.02s0-.02,0-.02ZM4.95,2.88s.04,0,.04,0,.01,0,.02-.02h-.04s-.02-.01-.02,0c0,0,0,0-.02,0,0,0,0,0,0,.01,0,0,0,.02.02.02v-.02ZM5,2.98s0,0,0,0c0,0,0,0,0,.02v-.02s0,0,0-.01c0,0,0,0-.02,0v.02ZM5.06,2.94h-.04s.02.02.02.02c0,0,.01,0,.02,0v-.02ZM5.1,2.98h-.02s0,.02,0,.02,0,.01,0,.02c-.01-.01-.02-.02-.02-.02,0,0-.01,0-.02,0v.04s.02-.02.02-.02.02,0,.04.02c0,0,0-.02,0-.03,0,0,0,0,.01-.01v-.02ZM5.02,3.11v.02h.04v-.02s0,0,0,0c0,0,.01,0,.02,0,0,0,0,0,0,0s0,0-.01,0c0,0,0-.02-.02-.03-.02,0-.03-.02-.04-.03v.02s.02,0,.02,0,0,0,0,.02h.02-.02s0,.01,0,.02c0,0,0,0-.02.02v-.02.02ZM5.06,2.86s-.02.02-.02.02,0,0,0,.02h.02s.02-.01.02,0c0,0,.01,0,.02,0h-.02l-.02-.02ZM5.08,3.47h.02v-.02s0,0,0,0c0,0,0,0,0-.01,0,0,0-.01-.01-.02.01,0,.02,0,.02,0,0,0,0-.01,0-.03-.01,0-.02.02-.03.03s-.02.01-.03.01c0,0,0,0,0,0,0,0,0,.01.02.01,0,0,0,0,0,0,0,0,0,.02,0,.04ZM5.08,3.27l.03.04h.06s-.03-.02-.04-.02-.03,0-.04-.02ZM5.23,3.53h-.02s-.03,0-.04.01c-.01,0-.02,0-.03.01-.01,0-.02,0-.02.01v.02s.02,0,.03,0c0,0,0,0,.01-.01.01.01.02.02.01.02,0,0,0,0,.01,0h.02v-.02s.02,0,.02,0c0,0,0-.01.02-.01v-.02ZM5.19,3.31h-.02v.02s.01,0,.02,0c0,0,.01,0,.02-.02h-.02ZM5.2,3.27l-.02-.02s.02.01.02.01c0,0,0,0,0,0ZM5.23,3.41h-.04v.02h.04v-.02ZM5.23,3.49s0-.01,0-.01,0,0-.02,0v.02h.02ZM5.25,3.59v.02h.04v-.02h-.04ZM5.29,3.88v-.02s-.02,0-.02,0c0,0-.01,0-.02-.02v.02s0,.02.01.02c0,0,.01,0,.01.02l.02-.02ZM5.27,3.45h.02s0,0,0-.01c0,0,0,0,.02,0-.01,0-.02,0-.02,0,0,0-.01,0-.02-.02v.04ZM5.29,3.59h.02s0-.02,0-.02,0,0,0-.02h-.02s0,.02-.01.02-.01.01-.01.02ZM5.36,3.74v-.06h-.04s.01.03.01.04c0,0,0,.01-.01.02h.04ZM5.42,3.59v-.02s-.02,0-.02,0c0,0,0-.01-.02-.01,0,.01,0,.01,0,.01s0,0-.02,0c0,0,0,0,0,0,0,0,.01,0,.01.02h.04ZM5.36,3.23l.02.02s0-.02,0-.02c0,0,0,0-.02,0ZM5.42,3.51h-.04s0,0,0,0c0,0,.01,0,.01.02,0,0,0,0,0,0,0,0,0-.01.02-.01ZM5.38,3.19v.06s.04,0,.07-.02c.03,0,.04-.02.05-.04,0,0-.02,0-.02,0,0,0,0,0,0,0s0,0,0,0,0,0,0,0c-.01,0-.02,0-.02,0,0,0,0,0-.02.02v.02s-.02,0-.02,0c0,0,0,0-.02-.02ZM5.42,3.29h.02-.02s0,.01,0,0c0,0,0,0-.02.01h.02v-.02ZM5.42,3.11v.02h.02v-.02s.02-.01.02-.01c0,0,.01,0,.02.01v-.02l-.02-.02s-.02,0-.03.01c0,0-.01.02-.01.02ZM5.44,3.29h.02v-.02h.04v-.02h-.04s-.02,0-.02.01c0,0,0,0-.02,0h.02v.02ZM5.46,3.51v-.02h-.02s.02,0,.02,0c0,0,0,0,0,0ZM5.44,3.04v.02s.02,0,.02,0c0,0,0,0,0-.02h-.02ZM5.47,2.84v.02h-.02v-.02h.02ZM5.48,3.33s.02-.02.02-.02c0,0,.01,0,.02,0-.01-.01-.02-.02-.02-.02,0,0,0,0-.02,0l-.02.02s.02,0,.02,0c0,0,0,0,0,.01ZM5.55,3.21v-.02s0,0,0,.01c0,0,0,0,0,0ZM5.57,3.31h0,0v.02-.02ZM5.58,2.98v.02l.02-.02s0,0,0-.01c0,0-.01,0-.02,0v.02ZM5.62,3.04s-.01-.02-.02-.02c0,0-.01,0-.02,0v.02h.04ZM5.69,2.98s0,0,0,0c0,0,0,.01-.02.01v-.04h.02v.02ZM5.71,3.57l.02.02s-.01-.02-.01-.02c0,0,0,0,0,0ZM5.75,3.37v-.02s0-.01,0,0c0,0,0,0-.02,0v.02h.02ZM5.75,3.25v.02h.02v-.02h-.02ZM5.85,3.33v-.02s.01.01,0,.02c0,0,0,0,0,0Z"/>
      </g>
    </g>
  </g>
</svg>