<svg id="ml_CL_title_pure-nude" xmlns="http://www.w3.org/2000/svg" xmlns:xlink="http://www.w3.org/1999/xlink" width="221.654" height="140" viewBox="0 0 221.654 140">
  <defs>
    <clipPath id="clip-path">
      <rect id="長方形_256" data-name="長方形 256" width="221.654" height="140" fill="none"/>
    </clipPath>
  </defs>
  <g id="グループ_413" data-name="グループ 413" transform="translate(0 0)" clip-path="url(#clip-path)">
    <path id="パス_1462" data-name="パス 1462" d="M0,78.392V17a1.905,1.905,0,0,1,2.158-2.155H9.949a8.824,8.824,0,0,1,9.106,9.1V46.1a8.824,8.824,0,0,1-9.106,9.1H6.1V78.392A1.91,1.91,0,0,1,3.94,80.55H2.158A1.906,1.906,0,0,1,0,78.392m12.014-30.04a2.8,2.8,0,0,0,.846-2.065V23.757a2.889,2.889,0,0,0-2.911-2.911H6.1V49.2H9.949a2.81,2.81,0,0,0,2.065-.846" transform="translate(0 32.897)" fill="#5a4646"/>
    <path id="パス_1463" data-name="パス 1463" d="M10.737,67.308a8.83,8.83,0,0,1-2.583-6.523V22.109a1.91,1.91,0,0,1,2.158-2.162H12.1a1.91,1.91,0,0,1,2.158,2.162V60.972a2.883,2.883,0,0,0,2.911,2.911h.846a2.889,2.889,0,0,0,2.908-2.911V22.109a1.91,1.91,0,0,1,2.158-2.162h1.879a1.91,1.91,0,0,1,2.158,2.162V60.785a8.93,8.93,0,0,1-2.531,6.523,8.81,8.81,0,0,1-6.572,2.58H17.26a8.835,8.835,0,0,1-6.523-2.58" transform="translate(18.074 44.215)" fill="#5a4646"/>
    <path id="パス_1464" data-name="パス 1464" d="M16.31,67.071V22.2a1.91,1.91,0,0,1,2.158-2.158h1.505a2.023,2.023,0,0,1,2.252,2.065l.093,4.037h.093q3.194-6.2,9.483-6.2h.093A1.245,1.245,0,0,1,33.4,21.357v3.754a1.173,1.173,0,0,1-.421.984,1.362,1.362,0,0,1-1.081.235q-4.506-.372-6.948,2.068a8.868,8.868,0,0,0-2.441,6.568V67.071a1.907,1.907,0,0,1-2.158,2.158H18.468a1.909,1.909,0,0,1-2.158-2.158" transform="translate(36.153 44.217)" fill="#5a4646"/>
    <path id="パス_1465" data-name="パス 1465" d="M25.982,67.266A8.8,8.8,0,0,1,23.4,60.695V28.873a8.7,8.7,0,0,1,2.583-6.478,8.928,8.928,0,0,1,6.523-2.535h.656a9.165,9.165,0,0,1,6.62,2.583,8.684,8.684,0,0,1,2.673,6.523V43.7A1.907,1.907,0,0,1,40.3,45.863H29.5V60.508a3.049,3.049,0,0,0,3.008,3h.749a2.831,2.831,0,0,0,2.158-.891,2.973,2.973,0,0,0,.846-2.113V54.969A1.743,1.743,0,0,1,38.231,53h2.252a1.743,1.743,0,0,1,1.972,1.972v5.726a8.685,8.685,0,0,1-9.1,9.106h-.846a8.927,8.927,0,0,1-6.523-2.535M36.259,28.873a2.828,2.828,0,0,0-.939-2.113,3.044,3.044,0,0,0-2.158-.891H32.6a3.057,3.057,0,0,0-2.162.891,2.828,2.828,0,0,0-.939,2.113V40.138h6.761Z" transform="translate(51.867 44.022)" fill="#5a4646"/>
    <path id="パス_1466" data-name="パス 1466" d="M36.705,78.392V17a1.908,1.908,0,0,1,2.162-2.158h2.345a2.342,2.342,0,0,1,2.441,1.782L54.634,59.806h.1V17a1.906,1.906,0,0,1,2.158-2.158h1.875A1.908,1.908,0,0,1,60.926,17V78.392a1.908,1.908,0,0,1-2.162,2.158H56.513a2.341,2.341,0,0,1-2.441-1.782L43,35.4H42.9V78.392a1.907,1.907,0,0,1-2.158,2.158H38.867a1.908,1.908,0,0,1-2.162-2.158" transform="translate(81.361 32.897)" fill="#5a4646"/>
    <path id="パス_1467" data-name="パス 1467" d="M49.232,67.308a8.83,8.83,0,0,1-2.583-6.523V22.109a1.91,1.91,0,0,1,2.158-2.162h1.785a1.91,1.91,0,0,1,2.158,2.162V60.972a2.883,2.883,0,0,0,2.911,2.911h.846a2.889,2.889,0,0,0,2.908-2.911V22.109a1.91,1.91,0,0,1,2.158-2.162h1.878a1.91,1.91,0,0,1,2.158,2.162V60.785a8.93,8.93,0,0,1-2.531,6.523,8.81,8.81,0,0,1-6.572,2.58h-.753a8.835,8.835,0,0,1-6.523-2.58" transform="translate(103.403 44.215)" fill="#5a4646"/>
    <path id="パス_1468" data-name="パス 1468" d="M57.024,78.488q-2.205-2.065-2.2-6.572V37.933q0-4.506,2.158-6.572A6.985,6.985,0,0,1,61.955,29.3h.466a7.121,7.121,0,0,1,5.542,2.065V17a1.906,1.906,0,0,1,2.158-2.158H72A1.906,1.906,0,0,1,74.156,17V78.392A1.907,1.907,0,0,1,72,80.553H70.779a2.532,2.532,0,0,1-2.441-1.692l-.373-.563a6.1,6.1,0,0,1-5.069,2.255h-.753a7.261,7.261,0,0,1-5.118-2.065m10.094-4.555a4.929,4.929,0,0,0,.846-2.956V38.966q0-3.845-3.757-3.847h-.373a2.5,2.5,0,0,0-2.255.984,5.169,5.169,0,0,0-.659,2.863V72.2a2.715,2.715,0,0,0,.846,2.207,3.131,3.131,0,0,0,2.068.7h.939a2.729,2.729,0,0,0,2.345-1.174" transform="translate(121.517 32.897)" fill="#5a4646"/>
    <path id="パス_1469" data-name="パス 1469" d="M65.568,67.266a8.8,8.8,0,0,1-2.583-6.572V28.873a8.7,8.7,0,0,1,2.583-6.478,8.928,8.928,0,0,1,6.523-2.535h.656a9.17,9.17,0,0,1,6.62,2.583,8.684,8.684,0,0,1,2.673,6.523V43.7a1.907,1.907,0,0,1-2.158,2.158h-10.8V60.508a3.049,3.049,0,0,0,3.008,3h.749A2.831,2.831,0,0,0,75,62.622a2.974,2.974,0,0,0,.846-2.113V54.969A1.743,1.743,0,0,1,77.817,53h2.252a1.743,1.743,0,0,1,1.972,1.972v5.726a8.685,8.685,0,0,1-9.1,9.106h-.846a8.928,8.928,0,0,1-6.523-2.535M75.845,28.873a2.828,2.828,0,0,0-.939-2.113,3.049,3.049,0,0,0-2.158-.891h-.563a3.057,3.057,0,0,0-2.162.891,2.828,2.828,0,0,0-.939,2.113V40.138h6.761Z" transform="translate(139.614 44.022)" fill="#5a4646"/>
    <path id="パス_1470" data-name="パス 1470" d="M21.819,48.242c0,2.191.36,2.155,2.863,2.155a35.189,35.189,0,0,0,6.034-.38c.051,0,.125-.019.177-.019.328,0,.367.434.367.923,0,.653,0,1.071-.563,1.142-1.251.18-4.944.2-6.359.2-1.216,0-3.242.074-4.024-1.049a6.2,6.2,0,0,1-.47-2.882V42.189a23.419,23.419,0,0,0-.09-2.519v-.145a.2.2,0,0,1,.216-.2c.164,0,1.505.289,1.8.344.125.019.4.055.4.235,0,.109-.074.164-.164.273a1.826,1.826,0,0,0-.2,1.087c0,.293.019.6.019.942v1.776c0,.363.309.454.634.454a16.047,16.047,0,0,0,6.652-2.01c.087-.039.2-.125.289-.125.177,0,.489.505.6.669a5.653,5.653,0,0,1,.727,1.177c0,.145-.164.18-.273.18-.074,0-.145-.016-.219-.016-.051,0-.109-.019-.142-.019a1.742,1.742,0,0,0-.656.2A20.052,20.052,0,0,1,22.4,46.213c-.347.019-.544.145-.582.508Zm11.773-7.611a1.8,1.8,0,1,1-3.6,0,1.8,1.8,0,0,1,3.6,0m-2.77,0a.963.963,0,0,0,.962.981.971.971,0,1,0,0-1.943.946.946,0,0,0-.962.962" transform="translate(43.787 86.087)" fill="#5a4646"/>
    <path id="パス_1471" data-name="パス 1471" d="M32.239,40.4c.219,0,.437,0,.618-.019.074,0,.18-.016.254-.016.415,0,1.052.505,1.052.923,0,.145-.058.235-.093.508-.051.344-.109.743-.125.833l-.383,3.332a.39.39,0,0,0,.383.434h.489c.6,0,1.2-.035,1.811-.035.473,0,.454.309.454.907,0,.505,0,.814-.505.814-.582,0-1.181-.035-1.759-.035H27.025c-.614,0-1.306.035-1.74.035-.489,0-.473-.415-.473-.778,0-.614.039-.942.454-.942.309,0,1.271.035,1.759.035h4.33a.5.5,0,0,0,.505-.434L32.2,42.8c0-.055.055-.328.055-.363,0-.29-.251-.38-.489-.38H29.251c-.614,0-1.322.035-1.772.035-.418,0-.418-.309-.418-.888,0-.47-.035-.817.4-.817.306,0,1.068.019,1.792.019Z" transform="translate(54.999 89.483)" fill="#5a4646"/>
    <path id="パス_1472" data-name="パス 1472" d="M40.64,39.5a12.61,12.61,0,0,0,1.885-.093,1.093,1.093,0,0,1,.238-.016c.27,0,.45.235.669.47s.672.727.672,1.052c0,.2-.257.38-.4.489-.109.09-1.467,1.505-1.682,1.74-.634.653-1.576,1.576-2.248,2.174-.125.106-.251.251-.434.251-.309,0-1.322-.795-1.322-1.1,0-.183.328-.434.454-.544A17.693,17.693,0,0,0,40.8,41.6c0-.254-.4-.216-.563-.216H32.47c-.83,0-1.644.051-2.461.051-.473,0-.492-.2-.492-.923v-.363c0-.47.039-.688.457-.688.833,0,1.666.039,2.5.039Zm-3.168,2.9c.125.016.38.016.38.215a.273.273,0,0,1-.106.183,3.073,3.073,0,0,0-.363,1.3,10.889,10.889,0,0,1-4.349,7.7c-.145.109-.4.325-.6.325-.309,0-1.486-.942-1.486-1.267,0-.164.18-.235.431-.4a8.572,8.572,0,0,0,3.789-5.272,9.688,9.688,0,0,0,.289-2.7c0-.145,0-.235.183-.235.235,0,1.557.109,1.827.145" transform="translate(65.428 87.313)" fill="#5a4646"/>
    <path id="パス_1473" data-name="パス 1473" d="M44.939,39.457c.38,0,.942-.035,1.3-.071.039,0,.125-.019.164-.019.454,0,1.3,1.087,1.3,1.3a.529.529,0,0,1-.106.257,5.409,5.409,0,0,0-.544,1.068A17.353,17.353,0,0,1,44.9,45.762a.6.6,0,0,0-.145.328c0,.289.254.434.454.6.418.325,2.429,2.136,2.429,2.57a2.349,2.349,0,0,1-1.251,1.287c-.2,0-.325-.18-.434-.306-.363-.492-2.155-2.557-2.683-2.557a.717.717,0,0,0-.47.219,16.25,16.25,0,0,1-4.13,2.374,14.588,14.588,0,0,1-2.338.743c-.5,0-1.283-1.235-1.283-1.521,0-.309.544-.344.778-.4a14.82,14.82,0,0,0,5.217-2.3c.2-.125.344-.216.344-.38,0-.18-.18-.254-.309-.325a18.871,18.871,0,0,0-2.66-1.251c-.164-.074-.418-.18-.418-.38,0-.254.47-1.341.888-1.341a17.606,17.606,0,0,1,3.458,1.6,1.172,1.172,0,0,0,.524.235c.309,0,.473-.29.637-.508a8.54,8.54,0,0,0,1.451-2.827c0-.235-.309-.251-.634-.251H38.963c-.782,0-1.56.035-2.338.035-.454,0-.454-.27-.454-.942,0-.782-.035-1.052.4-1.052.257,0,.492.035.727.035.563,0,1.126.019,1.669.019Z" transform="translate(77.688 87.262)" fill="#5a4646"/>
    <path id="パス_1474" data-name="パス 1474" d="M51.2,40.746c.833,0,2.01-.055,2.245-.055.489,0,.505.145.505,1.142,0,.582-.016.923-.489.923-.759,0-1.521-.035-2.261-.035H42.862c-.743,0-1.505.035-2.264.035-.47,0-.489-.341-.489-.9,0-1.016.035-1.161.508-1.161.232,0,1.483.055,2.245.055Z" transform="translate(88.906 90.196)" fill="#5a4646"/>
    <path id="パス_1475" data-name="パス 1475" d="M49.424,43.937a12.311,12.311,0,0,1,2.538,1.737c.254.219,1.267,1,1.267,1.306s-.852,1.251-1.213,1.251a.662.662,0,0,1-.4-.238,26.94,26.94,0,0,0-2.628-2.12.32.32,0,0,0-.18-.071c-.164,0-.219.145-.219.29V51.04c0,.724.039,1.428.039,2.155,0,.833-.019.942-1.123.942-.724,0-1.033-.019-1.033-.618,0-.814.055-1.631.055-2.445V40.746c0-.47-.035-.959-.055-1.412,0-.09-.019-.254-.019-.325,0-.183.055-.273.238-.273.109,0,.489.055.614.074.814.109,1.557.18,1.557.434a.535.535,0,0,1-.09.235,1.451,1.451,0,0,0-.2.962c0,.27.016.614.016,1.068v2.718c0,.145.093.18.145.18a.2.2,0,0,0,.164-.071c.129-.145.328-.4.524-.4m4.313-1.795c0,.254-.669.8-.888.8-.109,0-.2-.125-.27-.2a18.7,18.7,0,0,0-1.232-1.451c-.09-.09-.164-.161-.164-.251,0-.219.688-.727.888-.727a6.766,6.766,0,0,1,1.666,1.83m1.885-1.267c0,.254-.653.814-.888.814-.109,0-.2-.145-.254-.216-.383-.489-.833-1-1.251-1.431-.074-.093-.161-.164-.161-.254,0-.219.688-.743.885-.743a7.018,7.018,0,0,1,1.669,1.83" transform="translate(102.973 85.863)" fill="#5a4646"/>
    <path id="パス_1476" data-name="パス 1476" d="M17.244,10.349c.434-.261.232-.669.029-1.007l-.132-.219c-.232-.389-1.412-2.326-1.615-2.56-.029-.045-.1-.129-.129-.177a.163.163,0,0,1,.061-.248c.206-.122,1.46-.7,1.692-.778.1-.039.28-.061.341.045a.246.246,0,0,1,.016.2c-.058.225-.016.328.154.608l.148.248c.409.685.8,1.377,1.213,2.062a.562.562,0,0,0,.8.28L21.889,7.57c.685-.412,1.341-.865,2.026-1.277.37-.222.5-.045.917.653.4.669.4.881.074,1.078-.666.4-1.37.778-2.039,1.177L20.66,10.523c-.341.2-.293.534-.154.83a9.576,9.576,0,0,1,.158,7.717,6.686,6.686,0,0,1-.9,1.6,2.885,2.885,0,0,1-1.952-.373c-.1-.154.145-.425.232-.56a7.428,7.428,0,0,0,.872-7.086c-.051-.119-.119-.335-.18-.441a.459.459,0,0,0-.608-.167l-3.078,1.843c-.653.389-1.4.9-1.914,1.209-.376.222-.55.032-.959-.653-.363-.6-.492-.823-.1-1.055.447-.27,1.377-.762,2-1.135Z" transform="translate(26.232 11.81)" fill="#5a4646"/>
    <path id="パス_1477" data-name="パス 1477" d="M23.9,9.18c.524-.2.267-.82.077-1.312-.328-.862-.457-1.2-.865-1.042-.084.029-2.252,1.152-3.455,1.615-.386.148-.482.106-.74-.164a3.737,3.737,0,0,1-.737-.959c-.087-.219.019-.357.222-.434.151-.058.537-.167.807-.27a25.712,25.712,0,0,0,4.95-2.522,10.027,10.027,0,0,0,1.969-1.644c.084-.09.142-.19.244-.232.183-.071.711.2.9.277.235.106,1.139.5,1.219.7a.211.211,0,0,1-.158.254c-.032.013-.122.029-.177.048A.459.459,0,0,0,28,3.535c-.183.071-1.187.9-1.441,1.094-.315.238-.65.482-.975.7-.225.164-.386.36-.273.647.125.322.273.614.392.92.122.322.222.63.338.936.1.254.277.418.563.309L29,7.221c.778-.3,1.56-.637,2.2-.881.421-.164.524.051.807.795.251.643.273.865-.145,1.029-.73.277-1.467.54-2.191.817l-2.538.975c-.54.206-.5.56-.46,1.029a9.454,9.454,0,0,1-1.28,5.671,8.244,8.244,0,0,1-1.518,1.959,2.724,2.724,0,0,1-1.747-.711c-.058-.151.129-.318.267-.47a7.668,7.668,0,0,0,2.29-5.262,4.131,4.131,0,0,0-.032-.939.31.31,0,0,0-.415-.17l-3.432,1.316c-.759.293-1.541.63-2.1.846-.457.174-.576-.132-.782-.672-.27-.711-.4-.991.039-1.161.46-.174,1.441-.492,2.168-.772Z" transform="translate(39.198 4.886)" fill="#5a4646"/>
    <path id="パス_1478" data-name="パス 1478" d="M29.986,2.351c.212-.045.428-.093.6-.148.068-.016.17-.055.241-.071a1.218,1.218,0,0,1,1.226.679c.029.142,0,.241.016.515.019.347.051.749.055.84L32.463,7.5a.384.384,0,0,0,.463.344l.476-.1c.585-.129,1.161-.289,1.763-.421.463-.1.511.206.637.791.109.492.17.795-.322.9-.569.125-1.158.216-1.727.341L26.515,10.93c-.6.132-1.271.312-1.692.405-.479.1-.55-.306-.627-.663-.132-.6-.167-.926.241-1.016.3-.064,1.248-.232,1.727-.335l4.23-.923a.506.506,0,0,0,.4-.531L30.459,4.7c-.01-.055-.013-.331-.023-.367-.061-.283-.328-.318-.56-.267L27.416,4.6c-.6.132-1.283.318-1.727.415-.405.087-.47-.212-.6-.782-.1-.46-.209-.788.216-.878.3-.068,1.049-.212,1.759-.367Z" transform="translate(53.434 4.696)" fill="#5a4646"/>
    <path id="パス_1479" data-name="パス 1479" d="M38.872,4.029C39.287,4,40.12,3.935,40.5,3.871a2.21,2.21,0,0,1,.318-.058,2.163,2.163,0,0,1,1.373,1.1A4.332,4.332,0,0,1,42,5.669a12.458,12.458,0,0,1-.868,2.515,15.078,15.078,0,0,1-3.429,4.539c-.473.454-2.322,1.988-2.882,2.03-.415.029-1.322-.939-1.345-1.248-.016-.216.425-.412.6-.515a13.04,13.04,0,0,0,5.169-5.539,4.567,4.567,0,0,0,.4-1.209c-.032-.434-.515-.363-.8-.341l-6.723.492c-.759.055-1.515.148-2.293.206-.505.035-.518-.145-.566-.849-.071-.92-.061-1.049.444-1.087.759-.055,1.541-.077,2.316-.132ZM37.373.214C38.113.159,39.033.037,39.5,0c.454-.035.5.161.569,1.065.045.614.061.849-.428.888-.724.051-1.428.064-2.133.119L33.085,2.4c-.708.051-1.409.138-2.11.19-.505.035-.524-.18-.573-.849-.064-.849-.045-1.068.409-1.1C31.316.6,32.242.59,32.947.539Z" transform="translate(64.797 0.002)" fill="#5a4646"/>
    <path id="パス_1480" data-name="パス 1480" d="M40.529.7c.212.051.45.068.437.248-.006.093-.122.174-.2.241-.116.1-.119.409-.132.573l-.029.4c-.257,3.738-.73,6.9-3.792,9.45-.154.116-.386.357-.589.341-.27-.019-1.56-.782-1.538-1.107.01-.125.161-.241.257-.309,2.9-2.084,3.422-4.593,3.654-7.955.039-.54.071-1.267.051-1.795.006-.051-.006-.145,0-.2.013-.161.122-.19.248-.18.344.023,1.258.212,1.634.293m3.76,7.852c-.042.56-.042.833.232.852.6.039,4.378-2.895,5-3.451.1-.084.232-.219.376-.209.309.019.843,1.219.823,1.509-.019.273-.762.8-1.01.984-1.152.865-2.3,1.711-3.5,2.48-.515.347-1.332.872-1.792,1.222-.174.113-.367.3-.585.286a4.641,4.641,0,0,1-1.209-.63c-.241-.161-.553-.363-.534-.692.01-.125.164-1.293.225-2.162l.437-6.327A15.372,15.372,0,0,0,42.806.569l.006-.09a.165.165,0,0,1,.2-.17c.106.01.553.113.695.142.933.193,1.454.28,1.441.479-.01.125-.087.158-.164.244a.709.709,0,0,0-.2.457c-.045.415-.109,1.319-.142,1.769Z" transform="translate(76.888 0.682)" fill="#5a4646"/>
    <path id="パス_1481" data-name="パス 1481" d="M43.619,11.258c.084-.37.151-.727.238-1.1.161-.669.428-.772,1.078-.618.444.1.878.225,1.3.328l6.877,1.624c.425.1.852.183,1.271.283.6.145.894.325.737.994-.09.389-.2.753-.29,1.142l-.312,1.306a.416.416,0,0,0,.331.579c.437.122.888.174,1.328.277.425.1.357.309.209.942-.164.688-.177.817-.74.682-.318-.074-.8-.228-1.6-.415L42.783,14.616c-.6-.142-1.187-.244-1.769-.383-.405-.1-.354-.309-.212-.907.154-.653.2-.846.621-.746.441.106.891.251,1.332.354.338.08.486-.074.553-.37Zm13.667-7.8a.155.155,0,0,0,.138.2c.531.125,1.068.216,1.6.341.425.1.367.254.222.872-.138.582-.167.778-.589.679-.7-.167-1.38-.383-2.088-.55l-2.66-.63c-.228-.051-.431.013-.489.257l-.029.122a9.843,9.843,0,0,0,.068,1.435c.029.116.061.219.2.251a.329.329,0,0,0,.254-.051A9.946,9.946,0,0,0,55.189,5.3c.1-.09.174-.183.315-.151.2.048.608.518.74.659.357.383.656.695.611.872-.045.193-.312.132-.457.116a2.686,2.686,0,0,0-.843.508c-.3.228-.679.508-1.142.807a.559.559,0,0,0-.241.315.51.51,0,0,0,.061.37c.267.454.817,1.254,1.348,1.38.582.138.852-.45,1.193-1.187.116-.251.183-.386.486-.315.421.1,1.119.618,1.016,1.042a5.135,5.135,0,0,1-1.033,1.692,1.763,1.763,0,0,1-1.837.534A4.714,4.714,0,0,1,52.716,9.63a.5.5,0,0,0-.312-.257.57.57,0,0,0-.347.048,6.743,6.743,0,0,1-2.355.743A1.533,1.533,0,0,1,48.849,8.9c.055-.248.386-.3.582-.347a16.4,16.4,0,0,0,2-.753.514.514,0,0,0,.331-.37.557.557,0,0,0,0-.3A13.05,13.05,0,0,1,51.574,4.3c.01-.351-.109-.473-.454-.589l-3.969-.939c-.28-.068-.431.026-.5.325l-.058.264a.355.355,0,0,0,.306.5l2.451.582a.7.7,0,0,1,.589.827,10.742,10.742,0,0,1-1.364,3.474c-.579.553-1.808.318-2.512.151-.5-.116-.64-.209-.672-.534a2.588,2.588,0,0,1,.045-.917c.048-.193.109-.383.341-.331.283.068.582.216.865.28.65.154.933.148,1.332-1.544.071-.283-.077-.3-.341-.363l-1.058-.248a.474.474,0,0,0-.65.309,10.47,10.47,0,0,1-2,3.252c-.4.409-.666.682-.93.618-.409-.1-1.135-.865-1.052-1.216.026-.106.109-.161.187-.238A9.078,9.078,0,0,0,44.735,3.22l.148-.618c.109-.457.145-.766.222-1.084.158-.669.585-.679,1.152-.547.547.132,1.068.289,1.615.421l3.435.814c.318.074.492-.032.573-.367.026-.106.106-.852.129-.939.058-.248.206-.232.45-.174.283.068,1.042.322,1.367.437.244.077.6.142.544.389-.039.158-.216.19-.373.228-.2.061-.235.2-.306.505a.454.454,0,0,0,.405.579l1.83.434c.071.016.151,0,.167-.074a.144.144,0,0,0-.042-.138c-.125-.106-.254-.19-.363-.273-.425-.325-.714-.521-.672-.7.035-.158.563-.724.827-.663.193.048,1.8,1.264,1.731,1.583a.7.7,0,0,1-.228.322.3.3,0,0,0-.058.1M46.813,12.146a.515.515,0,0,0-.376-.611l-.46-.109a.505.505,0,0,0-.608.376l-.28,1.18a.506.506,0,0,0,.376.611l.46.109a.519.519,0,0,0,.608-.376Zm1.325,1.56a.513.513,0,0,0,.376.608l.476.116a.509.509,0,0,0,.611-.38l.28-1.18a.5.5,0,0,0-.376-.608l-.479-.113a.513.513,0,0,0-.608.376Zm4.027,1.473a.5.5,0,0,0,.608-.376l.28-1.18a.506.506,0,0,0-.376-.611l-.528-.125a.52.52,0,0,0-.611.376l-.28,1.18a.518.518,0,0,0,.376.611Z" transform="translate(90.211 1.531)" fill="#5a4646"/>
    <path id="パス_1482" data-name="パス 1482" d="M57.166,3.555c.071.068.151.161.106.261a.389.389,0,0,1-.238.193c-.293.093-.3.151-.685.795-.154.267-.614,1.036-.714,1.271-.077.183.019.283.148.4a1.3,1.3,0,0,1,.244,1.007c-.026.068-.122.106-.177.145-.132.08-.695.531-.794.627a1.462,1.462,0,0,0-.145.254c-.035.08-.039.18.061.222a.286.286,0,0,0,.17-.026c.5-.222,1.425-.54,1.965-.708a4.279,4.279,0,0,1,2.921-.167,1.953,1.953,0,0,1,1.126,1.341,3.291,3.291,0,0,1-.367,1.711c-.363.868-.762,1.724-1.171,2.554-.338.7-.7,1.435-1,2.136-.17.4-.431.978-.048,1.139.45.19,1.473-.225,1.914-.434a.506.506,0,0,1,.392-.048c.286.119.241,1.573.129,1.84-.1.235-.9.409-1.135.466a4.7,4.7,0,0,1-2.763-.023c-1.4-.592-.856-2.268-.412-3.32.634-1.5,1.486-2.93,2.12-4.432.158-.367.4-.952-.1-1.164a2.706,2.706,0,0,0-1.583.122,18.152,18.152,0,0,0-2.5.852,6.1,6.1,0,0,0-1.386.675c-.158.19-.949,2.255-1.107,2.638-.045.1-.222.618-.325.907-.254.7-.585,1.621-.659,1.8-.051.119-.1.293-1.338-.228-.4-.167-.7-.293-.563-.627.064-.151.942-1.962,1.261-2.715.032-.084.055-.232-.061-.28s-.338.151-.608.331c-.312.225-1.209.907-1.509,1.155-.093.08-.2.151-.3.109a2.58,2.58,0,0,1-.788-1.628c.064-.151.454-.38.585-.46C49.289,11.3,50.649,10.265,52,9.2a1.73,1.73,0,0,0,.528-.7c.064-.151.158-.286.215-.421a.236.236,0,0,0-.109-.341A1.158,1.158,0,0,0,52.3,7.7a12.3,12.3,0,0,1-2.306-.167c-.267-.109-.3-.418-.289-.669a5.365,5.365,0,0,1,.129-1.283c.113-.267.46-.119.675-.071.531.145,2.8.669,3.175.354a1.188,1.188,0,0,0,.293-.466c.19-.45.679-1.425.988-2.158.084-.2.151-.409.2-.524.074-.183.18-.2.363-.122s1.493.843,1.637.965" transform="translate(104.694 5.644)" fill="#5a4646"/>
    <path id="パス_1483" data-name="パス 1483" d="M65.832,9.208A4.017,4.017,0,0,1,67.2,14.876c-2.306,3.644-9.119,5.806-12.677,6.346-1.126-3.738-1.911-10.663.286-14.14A4,4,0,0,1,60.535,5.86,3.849,3.849,0,0,1,62.32,8.9a3.865,3.865,0,0,1,3.513.312M60.21,6.4a3.455,3.455,0,0,0-4.8,1.016C52.747,11.63,54.922,20.187,55,20.473c.264-.048,8.952-1.756,11.615-5.964a3.469,3.469,0,0,0-1.139-4.773,3.657,3.657,0,0,0-3.818.2A3.665,3.665,0,0,0,60.21,6.4" transform="translate(118.396 11.407)" fill="#5a4646"/>
  </g>
</svg>
