<?xml version="1.0" encoding="UTF-8"?>
<svg id="_レイヤー_2" data-name="レイヤー 2" xmlns="http://www.w3.org/2000/svg" xmlns:xlink="http://www.w3.org/1999/xlink" viewBox="0 0 341.87 22.92">
  <defs>
    <style>
      .cls-1 {
        fill: #fff;
        stroke-width: 0px;
      }

      .cls-2 {
        filter: url(#outer-glow-1);
      }
    </style>
    <filter id="outer-glow-1" filterUnits="userSpaceOnUse">
      <feOffset dx="0" dy="0"/>
      <feGaussianBlur result="blur" stdDeviation="5"/>
      <feFlood flood-color="#939393" flood-opacity=".6"/>
      <feComposite in2="blur" operator="in"/>
      <feComposite in="SourceGraphic"/>
    </filter>
  </defs>
  <g id="mv">
    <g class="cls-2">
      <path class="cls-1" d="m0,2.91h5.27v19.77h-3.19V6H0v-3.09Z"/>
      <path class="cls-1" d="m12.94,22.68V.93h5.99c2.14,0,3.97.33,5.48.97,1.51.65,2.72,1.52,3.65,2.61.92,1.09,1.59,2.29,2.01,3.61s.62,2.64.62,3.96c0,1.62-.28,3.08-.85,4.38-.57,1.3-1.34,2.42-2.34,3.35-.99.93-2.13,1.64-3.42,2.13-1.29.49-2.65.74-4.08.74h-7.06Zm3.16-3.09h3.28c1.17,0,2.25-.17,3.23-.51.98-.34,1.84-.84,2.56-1.5.72-.66,1.28-1.47,1.67-2.43.39-.96.58-2.05.58-3.27,0-1.36-.21-2.54-.64-3.53s-1.01-1.81-1.76-2.46c-.74-.65-1.57-1.13-2.47-1.44-.9-.31-1.82-.46-2.75-.46h-3.69v15.6Z"/>
      <path class="cls-1" d="m33.58,22.68L43.11,0h.21l9.47,22.68h-3.63l-6.91-17.64,2.26-1.53-7.77,19.17h-3.16Zm5.81-8.16h7.71l1.04,2.73h-9.71l.95-2.73Z"/>
      <path class="cls-1" d="m61.22,15.51L53.24.93h3.9l6.22,11.85-.95.06,6.16-11.91h3.9l-8.1,14.58v7.17h-3.16v-7.17Z"/>
      <path class="cls-1" d="m89.36.93h3.16v18.66h10.81v3.09h-13.97V.93Z"/>
      <path class="cls-1" d="m109.21.93h3.16v21.75h-3.16V.93Z"/>
      <path class="cls-1" d="m120.01,22.68V.18h.03l11.46,16.41-1.37-.3L141.6.18h.03v22.5h-3.16V7.44l.18,1.62-7.95,11.37h-.06l-8.13-11.37.57-1.5v15.12h-3.07Z"/>
      <path class="cls-1" d="m149.27.93h3.16v21.75h-3.16V.93Z"/>
      <path class="cls-1" d="m158.04.93h14.38v3.06h-5.69v18.69h-3.19V3.99h-5.51V.93Z"/>
      <path class="cls-1" d="m178.02.93h14.14v3.06h-10.99v6.21h9.8v3.09h-9.8v6.3h11.4v3.09h-14.56V.93Z"/>
      <path class="cls-1" d="m198.3,22.68V.93h5.99c2.14,0,3.97.33,5.48.97,1.51.65,2.72,1.52,3.65,2.61.92,1.09,1.59,2.29,2.01,3.61s.62,2.64.62,3.96c0,1.62-.28,3.08-.85,4.38-.57,1.3-1.34,2.42-2.34,3.35-.99.93-2.13,1.64-3.42,2.13-1.29.49-2.65.74-4.08.74h-7.06Zm3.16-3.09h3.28c1.17,0,2.25-.17,3.23-.51.98-.34,1.84-.84,2.56-1.5.72-.66,1.28-1.47,1.67-2.43.39-.96.58-2.05.58-3.27,0-1.36-.21-2.54-.64-3.53s-1.01-1.81-1.76-2.46c-.74-.65-1.57-1.13-2.47-1.44-.9-.31-1.82-.46-2.75-.46h-3.69v15.6Z"/>
      <path class="cls-1" d="m249.81,21c-.34.24-.82.52-1.44.83-.62.31-1.36.58-2.2.79s-1.77.32-2.78.3c-1.69-.02-3.2-.32-4.54-.9-1.34-.58-2.48-1.37-3.41-2.39-.93-1.01-1.65-2.17-2.14-3.48-.5-1.31-.74-2.7-.74-4.18,0-1.64.25-3.15.76-4.53.51-1.38,1.24-2.57,2.19-3.57.95-1,2.08-1.78,3.39-2.34,1.31-.56,2.74-.84,4.29-.84,1.33,0,2.53.18,3.6.52,1.07.35,1.98.77,2.74,1.25l-1.31,3c-.58-.4-1.28-.78-2.11-1.16-.83-.37-1.78-.56-2.83-.56-.99,0-1.94.2-2.84.6-.9.4-1.7.97-2.38,1.71-.68.74-1.23,1.6-1.62,2.58-.4.98-.6,2.04-.6,3.18s.18,2.18.54,3.17c.36.99.87,1.84,1.55,2.56.67.72,1.47,1.28,2.4,1.68.92.4,1.97.6,3.14.6,1.11,0,2.09-.17,2.93-.51.84-.34,1.53-.73,2.07-1.17l1.37,2.85Z"/>
      <path class="cls-1" d="m252.81,11.82c0-1.5.28-2.92.85-4.26.57-1.34,1.35-2.53,2.35-3.57,1-1.04,2.17-1.85,3.5-2.43,1.33-.58,2.76-.87,4.29-.87s2.96.29,4.29.87c1.33.58,2.51,1.39,3.53,2.43,1.02,1.04,1.82,2.23,2.4,3.57.58,1.34.86,2.76.86,4.26s-.29,2.98-.86,4.32c-.58,1.34-1.38,2.52-2.41,3.54s-2.21,1.81-3.53,2.39c-1.32.57-2.75.85-4.27.85s-2.96-.28-4.29-.84c-1.33-.56-2.5-1.34-3.5-2.35-1-1.01-1.79-2.18-2.35-3.52-.57-1.34-.85-2.8-.85-4.38Zm3.28,0c0,1.12.2,2.17.6,3.14.4.97.95,1.82,1.67,2.55.71.73,1.54,1.3,2.49,1.71.94.41,1.96.61,3.05.61s2.07-.2,3.01-.61c.93-.41,1.75-.98,2.46-1.71.7-.73,1.26-1.58,1.65-2.55.4-.97.6-2.01.6-3.14s-.2-2.16-.61-3.14c-.41-.97-.96-1.82-1.65-2.56-.7-.74-1.52-1.32-2.47-1.74s-1.98-.63-3.07-.63-2.11.21-3.05.63c-.94.42-1.77,1-2.47,1.74-.71.74-1.25,1.6-1.62,2.58-.38.98-.57,2.02-.57,3.12Z"/>
      <path class="cls-1" d="m281.21.93h3.16v18.66h10.81v3.09h-13.97V.93Z"/>
      <path class="cls-1" d="m297.95,11.82c0-1.5.28-2.92.85-4.26.57-1.34,1.35-2.53,2.35-3.57,1-1.04,2.17-1.85,3.5-2.43,1.33-.58,2.76-.87,4.29-.87s2.96.29,4.29.87c1.33.58,2.51,1.39,3.53,2.43,1.02,1.04,1.82,2.23,2.4,3.57.58,1.34.86,2.76.86,4.26s-.29,2.98-.86,4.32c-.58,1.34-1.38,2.52-2.41,3.54s-2.21,1.81-3.53,2.39c-1.32.57-2.75.85-4.27.85s-2.96-.28-4.29-.84c-1.33-.56-2.5-1.34-3.5-2.35-1-1.01-1.79-2.18-2.35-3.52-.57-1.34-.85-2.8-.85-4.38Zm3.28,0c0,1.12.2,2.17.6,3.14.4.97.95,1.82,1.67,2.55.71.73,1.54,1.3,2.49,1.71.94.41,1.96.61,3.05.61s2.07-.2,3.01-.61c.93-.41,1.75-.98,2.46-1.71.7-.73,1.26-1.58,1.65-2.55.4-.97.6-2.01.6-3.14s-.2-2.16-.61-3.14c-.41-.97-.96-1.82-1.65-2.56-.7-.74-1.52-1.32-2.47-1.74s-1.98-.63-3.07-.63-2.11.21-3.05.63c-.94.42-1.77,1-2.47,1.74-.71.74-1.25,1.6-1.62,2.58-.38.98-.57,2.02-.57,3.12Z"/>
      <path class="cls-1" d="m332.25.93c1.13,0,2.18.15,3.14.45s1.79.74,2.49,1.32c.7.58,1.23,1.3,1.61,2.14.38.85.57,1.83.57,2.93,0,.86-.12,1.72-.37,2.57-.25.85-.66,1.62-1.24,2.29-.58.68-1.34,1.23-2.28,1.65-.94.42-2.11.63-3.5.63h-3.16v7.77h-3.16V.93h5.9Zm.39,10.86c.79,0,1.46-.12,2.01-.38.55-.25.97-.57,1.28-.96.31-.39.53-.81.66-1.26.13-.45.19-.87.19-1.27s-.06-.83-.19-1.28c-.13-.45-.35-.88-.66-1.29-.31-.41-.72-.74-1.24-.99-.52-.25-1.15-.38-1.91-.38h-3.28v7.8h3.13Zm3.63,1.92l5.6,8.97h-3.69l-5.69-8.91,3.78-.06Z"/>
    </g>
  </g>
</svg>