<svg xmlns="http://www.w3.org/2000/svg" width="259.675" height="22.825" viewBox="0 0 259.675 22.825">
  <path id="パス_152" data-name="パス 152" d="M-129.013,0h5.4c4.1,0,6.8-1.8,6.8-5.325A4.222,4.222,0,0,0-120.688-9.7v-.125a3.925,3.925,0,0,0,2.775-3.975c0-3.075-2.4-4.425-6.075-4.425h-5.025Zm1.5-10.275V-17h3.2c3.225,0,4.9.9,4.9,3.375,0,2.075-1.45,3.35-5.05,3.35Zm0,9.025V-9.075h3.55c3.625,0,5.675,1.2,5.675,3.75,0,2.825-2.15,4.075-5.675,4.075Zm22.95,1.575c3.275,0,6.25-1.7,6.25-7.45v-11.1h-1.425V-7.2c0,4.75-2.25,6.175-4.825,6.175-2.525,0-4.725-1.425-4.725-6.175V-18.225h-1.5v11.1C-110.788-1.375-107.838.325-104.562.325ZM-90.838,0h5.4c4.1,0,6.8-1.8,6.8-5.325A4.222,4.222,0,0,0-82.513-9.7v-.125A3.925,3.925,0,0,0-79.738-13.8c0-3.075-2.4-4.425-6.075-4.425h-5.025Zm1.5-10.275V-17h3.2c3.225,0,4.9.9,4.9,3.375,0,2.075-1.45,3.35-5.05,3.35Zm0,9.025V-9.075h3.55c3.625,0,5.675,1.2,5.675,3.75,0,2.825-2.15,4.075-5.675,4.075ZM-72.538,0h5.4c4.1,0,6.8-1.8,6.8-5.325A4.222,4.222,0,0,0-64.213-9.7v-.125A3.925,3.925,0,0,0-61.438-13.8c0-3.075-2.4-4.425-6.075-4.425h-5.025Zm1.5-10.275V-17h3.2c3.225,0,4.9.9,4.9,3.375,0,2.075-1.45,3.35-5.05,3.35Zm0,9.025V-9.075h3.55c3.625,0,5.675,1.2,5.675,3.75,0,2.825-2.15,4.075-5.675,4.075ZM-54.238,0h9.8V-1.3h-8.3V-18.225h-1.5Zm15.3,0h10.35V-1.3h-8.85V-9.025h7.225V-10.3h-7.225v-6.65h8.575v-1.275H-38.938Zm24.375,0h5.4c4.1,0,6.8-1.8,6.8-5.325A4.222,4.222,0,0,0-6.238-9.7v-.125A3.925,3.925,0,0,0-3.463-13.8c0-3.075-2.4-4.425-6.075-4.425h-5.025Zm1.5-10.275V-17h3.2c3.225,0,4.9.9,4.9,3.375,0,2.075-1.45,3.35-5.05,3.35Zm0,9.025V-9.075h3.55c3.625,0,5.675,1.2,5.675,3.75,0,2.825-2.15,4.075-5.675,4.075ZM3.737,0h9.8V-1.3h-8.3V-18.225h-1.5ZM24.512.325c3.275,0,6.25-1.7,6.25-7.45v-11.1H29.337V-7.2c0,4.75-2.25,6.175-4.825,6.175-2.525,0-4.725-1.425-4.725-6.175V-18.225h-1.5v11.1C18.287-1.375,21.237.325,24.512.325ZM38.237,0h10.35V-1.3h-8.85V-9.025h7.225V-10.3H39.737v-6.65h8.575v-1.275H38.237Zm29.9-11.4H62.662v1.1h12.4v-1.1H69.337v-4.575h6.5v-1.1h-6.5v-3.75h-1.2v3.75h-6.35v1.1h6.35Zm-7.775-9.425H59.237V-9.3h1.125Zm-2.325,4.1a13.516,13.516,0,0,0-3.05-2.575l-.775.7a14.119,14.119,0,0,1,3.025,2.675Zm.425,2.5c-1.975.95-3.9,1.85-5.225,2.4l.45,1.075c1.5-.725,3.275-1.575,5-2.375ZM73.237-5.65a31.905,31.905,0,0,1-4.7,2.75,13.291,13.291,0,0,1-2.85-3.525h10.05V-7.45H65.212V-9.625H64.037V-7.45H53.612v1.025h9.275a26.621,26.621,0,0,1-9.6,4.075,5.452,5.452,0,0,1,.75.95,30.406,30.406,0,0,0,5.175-1.8V.15c-1.15.15-2.2.275-3.075.375l.25,1.1c2.7-.35,6.575-.9,10.275-1.425L66.637-.85c-2.15.275-4.325.575-6.275.85V-3.75a18.861,18.861,0,0,0,4.075-2.675h.075a16.377,16.377,0,0,0,10.8,8.35,4.885,4.885,0,0,1,.775-1,17.23,17.23,0,0,1-6.825-3.2,32.389,32.389,0,0,0,4.925-2.7ZM92.562-7.175V-12h7.575v4.825Zm-8.025,0c.075-.95.1-1.9.1-2.775V-12h6.725v4.825ZM91.362-17.85v4.7H84.637v-4.7Zm8.775,4.7H92.562v-4.7h7.575Zm1.2-5.85h-17.9v9.05c0,3.525-.275,7.95-3.05,11.075a3.324,3.324,0,0,1,.925.85,14.711,14.711,0,0,0,3.125-8h6.925v7.65h1.2v-7.65h7.575v5.9c0,.5-.175.65-.65.65-.5.025-2.225.05-4.175,0A3.712,3.712,0,0,1,95.737,1.7a20,20,0,0,0,4.575-.2c.725-.225,1.025-.625,1.025-1.625Zm13,1v6.225h-4.4V-18Zm-4.4,13.725V-10.65h4.4v6.375Zm5.55-14.85h-6.725V-1.2h1.175V-3.15h5.55ZM117.912-5.55a18.515,18.515,0,0,1,3.325,4.5l1.025-.675a18.178,18.178,0,0,0-3.4-4.4Zm12.75-6.125V-12.8h-6.9v-3.75h5.65v-1.1h-5.65v-3.2h-1.175v3.2h-5.5v1.1h5.5v3.75h-6.675v1.125h10.025v3.25h-9.85v1.1h9.85v7.5c0,.35-.1.475-.55.5-.4,0-1.825,0-3.55-.05a4.365,4.365,0,0,1,.425,1.15,20.386,20.386,0,0,0,3.975-.175c.65-.2.875-.6.875-1.425v-7.5h3.225v-1.1h-3.225v-3.25Z" transform="translate(129.012 20.85)" fill="#504f4f"/>
</svg>