<svg xmlns="http://www.w3.org/2000/svg" width="283.55" height="22.825" viewBox="0 0 283.55 22.825">
  <path id="パス_156" data-name="パス 156" d="M-135.437.325c3.575,0,5.9-2.15,5.9-4.95,0-2.775-1.75-3.925-3.825-4.85l-2.725-1.2c-1.325-.575-3.1-1.35-3.1-3.425,0-1.875,1.55-3.1,3.875-3.1a5.849,5.849,0,0,1,4.3,1.825l.85-.975a6.961,6.961,0,0,0-5.15-2.2c-3.1,0-5.4,1.875-5.4,4.575,0,2.675,2.075,3.825,3.7,4.55l2.725,1.2c1.8.8,3.225,1.5,3.225,3.7,0,2.075-1.675,3.5-4.375,3.5a7.017,7.017,0,0,1-5.275-2.425l-.925,1.05A8.111,8.111,0,0,0-135.437.325Zm14.575-10.95c.725-2.125,1.35-4.05,1.975-6.25h.1c.65,2.2,1.25,4.125,2,6.25l1.1,3.3h-6.3ZM-125.963,0h1.5l2.075-6.125h7.1L-113.263,0h1.6l-6.375-18.225h-1.55Zm19.375,0h1.5V-6.15l3.575-4.125L-95.613,0h1.725l-6.625-11.45,5.8-6.775h-1.775l-8.55,9.9h-.05v-9.9h-1.5Zm23.65.325c3.275,0,6.25-1.7,6.25-7.45v-11.1h-1.425V-7.2c0,4.75-2.25,6.175-4.825,6.175-2.525,0-4.725-1.425-4.725-6.175V-18.225h-1.5v11.1C-89.163-1.375-86.213.325-82.937.325ZM-69.213,0h1.5V-8.225h3.725L-59.138,0h1.7l-4.925-8.35c2.775-.425,4.55-2.1,4.55-5,0-3.55-2.45-4.875-6.075-4.875h-5.325Zm1.5-9.475v-7.5h3.475c3.15,0,4.9.975,4.9,3.625,0,2.625-1.75,3.875-4.9,3.875Zm18.6-1.15c.725-2.125,1.35-4.05,1.975-6.25h.1c.65,2.2,1.25,4.125,2,6.25l1.1,3.3h-6.3ZM-54.213,0h1.5l2.075-6.125h7.1L-41.513,0h1.6l-6.375-18.225h-1.55Zm32,.325c3.575,0,5.9-2.15,5.9-4.95,0-2.775-1.75-3.925-3.825-4.85l-2.725-1.2c-1.325-.575-3.1-1.35-3.1-3.425,0-1.875,1.55-3.1,3.875-3.1a5.849,5.849,0,0,1,4.3,1.825l.85-.975a6.961,6.961,0,0,0-5.15-2.2c-3.1,0-5.4,1.875-5.4,4.575,0,2.675,2.075,3.825,3.7,4.55l2.725,1.2c1.8.8,3.225,1.5,3.225,3.7,0,2.075-1.675,3.5-4.375,3.5A7.017,7.017,0,0,1-27.488-3.45l-.925,1.05A8.111,8.111,0,0,0-22.213.325ZM-10.288,0h1.375V-11.55c0-1.5-.1-3.5-.175-5.025h.1L-7.562-12.5l3.85,10.55h1.2L1.313-12.5l1.425-4.075h.1c-.075,1.525-.175,3.525-.175,5.025V0H4.087V-18.225h-2L-1.662-7.75c-.45,1.325-.875,2.675-1.35,4h-.1c-.475-1.325-.95-2.675-1.425-4l-3.75-10.475h-2ZM18.037.325c4.45,0,7.575-3.7,7.575-9.5,0-5.775-3.125-9.375-7.575-9.375-4.4,0-7.55,3.6-7.55,9.375C10.487-3.375,13.637.325,18.037.325Zm0-1.35c-3.6,0-5.975-3.2-5.975-8.15S14.437-17.2,18.037-17.2c3.625,0,6.025,3.075,6.025,8.025S21.662-1.025,18.037-1.025ZM32.037,0h1.5V-8.225h3.725L42.112,0h1.7L38.887-8.35c2.775-.425,4.55-2.1,4.55-5,0-3.55-2.45-4.875-6.075-4.875H32.037Zm1.5-9.475v-7.5h3.475c3.15,0,4.9.975,4.9,3.625,0,2.625-1.75,3.875-4.9,3.875ZM49.487,0h10.35V-1.3h-8.85V-9.025h7.225V-10.3H50.987v-6.65h8.575v-1.275H49.487Zm29.9-11.4H73.912v1.1h12.4v-1.1H80.587v-4.575h6.5v-1.1h-6.5v-3.75h-1.2v3.75h-6.35v1.1h6.35Zm-7.775-9.425H70.487V-9.3h1.125Zm-2.325,4.1a13.516,13.516,0,0,0-3.05-2.575l-.775.7a14.119,14.119,0,0,1,3.025,2.675Zm.425,2.5c-1.975.95-3.9,1.85-5.225,2.4l.45,1.075c1.5-.725,3.275-1.575,5-2.375ZM84.487-5.65a31.905,31.905,0,0,1-4.7,2.75,13.291,13.291,0,0,1-2.85-3.525h10.05V-7.45H76.462V-9.625H75.287V-7.45H64.862v1.025h9.275a26.621,26.621,0,0,1-9.6,4.075,5.452,5.452,0,0,1,.75.95,30.406,30.406,0,0,0,5.175-1.8V.15c-1.15.15-2.2.275-3.075.375l.25,1.1c2.7-.35,6.575-.9,10.275-1.425L77.887-.85c-2.15.275-4.325.575-6.275.85V-3.75a18.861,18.861,0,0,0,4.075-2.675h.075a16.377,16.377,0,0,0,10.8,8.35,4.885,4.885,0,0,1,.775-1,17.23,17.23,0,0,1-6.825-3.2,32.389,32.389,0,0,0,4.925-2.7Zm19.325-1.525V-12h7.575v4.825Zm-8.025,0c.075-.95.1-1.9.1-2.775V-12h6.725v4.825Zm6.825-10.675v4.7H95.887v-4.7Zm8.775,4.7h-7.575v-4.7h7.575Zm1.2-5.85h-17.9v9.05c0,3.525-.275,7.95-3.05,11.075a3.324,3.324,0,0,1,.925.85,14.711,14.711,0,0,0,3.125-8h6.925v7.65h1.2v-7.65h7.575v5.9c0,.5-.175.65-.65.65-.5.025-2.225.05-4.175,0a3.712,3.712,0,0,1,.425,1.175,20,20,0,0,0,4.575-.2c.725-.225,1.025-.625,1.025-1.625Zm13,1v6.225h-4.4V-18Zm-4.4,13.725V-10.65h4.4v6.375Zm5.55-14.85h-6.725V-1.2h1.175V-3.15h5.55ZM129.163-5.55a18.515,18.515,0,0,1,3.325,4.5l1.025-.675a18.179,18.179,0,0,0-3.4-4.4Zm12.75-6.125V-12.8h-6.9v-3.75h5.65v-1.1h-5.65v-3.2h-1.175v3.2h-5.5v1.1h5.5v3.75h-6.675v1.125h10.025v3.25h-9.85v1.1h9.85v7.5c0,.35-.1.475-.55.5-.4,0-1.825,0-3.55-.05a4.366,4.366,0,0,1,.425,1.15,20.386,20.386,0,0,0,3.975-.175c.65-.2.875-.6.875-1.425v-7.5h3.225v-1.1h-3.225v-3.25Z" transform="translate(141.637 20.85)" fill="#504f4f"/>
</svg>