<svg xmlns="http://www.w3.org/2000/svg" width="287.1" height="22.825" viewBox="0 0 287.1 22.825">
  <path id="パス_158" data-name="パス 158" d="M-137.925,0h1.525V-16.95h5.75v-1.275h-13v1.275h5.725ZM-123.4-10.625c.725-2.125,1.35-4.05,1.975-6.25h.1c.65,2.2,1.25,4.125,2,6.25l1.1,3.3h-6.3ZM-128.5,0h1.5l2.075-6.125h7.1L-115.8,0h1.6l-6.375-18.225h-1.55Zm19.375,0h1.425V-10.925c0-1.825-.125-3.525-.2-5.275h.125l2.05,3.65L-98.3,0h1.55V-18.225h-1.425v10.8c0,1.775.1,3.6.2,5.4H-98.1L-100.125-5.7l-7.45-12.525h-1.55ZM-82.45.325A7.391,7.391,0,0,0-76.975-1.75V-9.075H-82.65V-7.8h4.225v5.475a5.657,5.657,0,0,1-3.875,1.3c-4.1,0-6.475-3.175-6.475-8.15,0-4.925,2.525-8.025,6.575-8.025a5.331,5.331,0,0,1,4.15,1.825l.875-.975a6.713,6.713,0,0,0-5.05-2.2c-4.8,0-8.125,3.6-8.125,9.425S-87.125.325-82.45.325ZM-70.125,0h10.35V-1.3h-8.85V-9.025H-61.4V-10.3h-7.225v-6.65h8.575v-1.275H-70.125ZM-53.55,0h1.5V-8.225h3.725L-43.475,0h1.7L-46.7-8.35c2.775-.425,4.55-2.1,4.55-5,0-3.55-2.45-4.875-6.075-4.875H-53.55Zm1.5-9.475v-7.5h3.475c3.15,0,4.9.975,4.9,3.625,0,2.625-1.75,3.875-4.9,3.875ZM-36.1,0h1.5V-18.225h-1.5Zm9.05,0h1.425V-10.925c0-1.825-.125-3.525-.2-5.275h.125l2.05,3.65L-16.225,0h1.55V-18.225H-16.1v10.8c0,1.775.1,3.6.2,5.4h-.125L-18.05-5.7-25.5-18.225h-1.55ZM-7.125,0H3.225V-1.3h-8.85V-9.025H1.6V-10.3H-5.625v-6.65H2.95v-1.275H-7.125Zm28.25,0H22.65V-16.95H28.4v-1.275h-13v1.275h5.725ZM34.1,0H44.45V-1.3H35.6V-9.025h7.225V-10.3H35.6v-6.65h8.575v-1.275H34.1ZM53.325-10.625c.725-2.125,1.35-4.05,1.975-6.25h.1c.65,2.2,1.25,4.125,2,6.25l1.1,3.3H52.2ZM48.225,0h1.5L51.8-6.125h7.1L60.925,0h1.6L56.15-18.225H54.6Zm32.7-11.4H75.45v1.1h12.4v-1.1H82.125v-4.575h6.5v-1.1h-6.5v-3.75h-1.2v3.75h-6.35v1.1h6.35ZM73.15-20.825H72.025V-9.3H73.15Zm-2.325,4.1a13.516,13.516,0,0,0-3.05-2.575L67-18.6a14.119,14.119,0,0,1,3.025,2.675Zm.425,2.5c-1.975.95-3.9,1.85-5.225,2.4l.45,1.075c1.5-.725,3.275-1.575,5-2.375ZM86.025-5.65a31.905,31.905,0,0,1-4.7,2.75,13.291,13.291,0,0,1-2.85-3.525h10.05V-7.45H78V-9.625H76.825V-7.45H66.4v1.025h9.275a26.621,26.621,0,0,1-9.6,4.075,5.452,5.452,0,0,1,.75.95A30.406,30.406,0,0,0,72-3.2V.15c-1.15.15-2.2.275-3.075.375l.25,1.1c2.7-.35,6.575-.9,10.275-1.425L79.425-.85c-2.15.275-4.325.575-6.275.85V-3.75a18.861,18.861,0,0,0,4.075-2.675H77.3a16.377,16.377,0,0,0,10.8,8.35,4.885,4.885,0,0,1,.775-1,17.23,17.23,0,0,1-6.825-3.2,32.389,32.389,0,0,0,4.925-2.7ZM105.35-7.175V-12h7.575v4.825Zm-8.025,0c.075-.95.1-1.9.1-2.775V-12h6.725v4.825ZM104.15-17.85v4.7H97.425v-4.7Zm8.775,4.7H105.35v-4.7h7.575Zm1.2-5.85h-17.9v9.05c0,3.525-.275,7.95-3.05,11.075a3.324,3.324,0,0,1,.925.85,14.711,14.711,0,0,0,3.125-8h6.925v7.65h1.2v-7.65h7.575v5.9c0,.5-.175.65-.65.65-.5.025-2.225.05-4.175,0a3.712,3.712,0,0,1,.425,1.175,20,20,0,0,0,4.575-.2c.725-.225,1.025-.625,1.025-1.625Zm13,1v6.225h-4.4V-18Zm-4.4,13.725V-10.65h4.4v6.375Zm5.55-14.85H121.55V-1.2h1.175V-3.15h5.55ZM130.7-5.55a18.515,18.515,0,0,1,3.325,4.5l1.025-.675a18.179,18.179,0,0,0-3.4-4.4Zm12.75-6.125V-12.8h-6.9v-3.75h5.65v-1.1h-5.65v-3.2h-1.175v3.2h-5.5v1.1h5.5v3.75H128.7v1.125h10.025v3.25h-9.85v1.1h9.85v7.5c0,.35-.1.475-.55.5-.4,0-1.825,0-3.55-.05a4.366,4.366,0,0,1,.425,1.15,20.386,20.386,0,0,0,3.975-.175c.65-.2.875-.6.875-1.425v-7.5h3.225v-1.1H139.9v-3.25Z" transform="translate(143.65 20.85)" fill="#504f4f"/>
</svg>