<?xml version="1.0" encoding="UTF-8"?>
<svg id="_レイヤー_2" data-name="レイヤー 2" xmlns="http://www.w3.org/2000/svg" viewBox="0 0 68.14 10.81">
  <defs>
    <style>
      .cls-1 {
        fill: #fff;
        stroke-width: 0px;
      }
    </style>
  </defs>
  <g id="footer">
    <g>
      <path class="cls-1" d="m4.91,10.81c-.67,0-1.3-.12-1.9-.36-.59-.24-1.12-.58-1.57-1.02-.45-.44-.81-.95-1.06-1.53-.26-.58-.38-1.22-.38-1.92s.13-1.33.38-1.92c.26-.59.61-1.1,1.06-1.54.45-.44.98-.78,1.57-1.02.59-.24,1.22-.36,1.9-.36s1.3.12,1.89.36c.59.24,1.11.58,1.57,1.02s.81.95,1.06,1.54.38,1.23.38,1.93-.12,1.33-.37,1.91c-.25.58-.59,1.09-1.04,1.53-.45.44-.97.78-1.56,1.02-.59.24-1.23.36-1.93.36Zm-.01-1.18c.69,0,1.31-.16,1.86-.48s.99-.75,1.31-1.3c.32-.55.48-1.18.48-1.88s-.16-1.35-.48-1.9-.76-.98-1.31-1.3c-.55-.32-1.17-.48-1.86-.48s-1.3.16-1.85.48c-.55.32-.99.76-1.32,1.31-.33.55-.49,1.18-.49,1.89s.16,1.33.47,1.88c.31.55.74.99,1.29,1.3s1.18.48,1.89.48Zm2.1-1.82c-.21.21-.5.4-.85.57-.35.18-.75.26-1.21.25-.49,0-.92-.14-1.32-.38s-.7-.57-.93-.98c-.23-.41-.34-.85-.34-1.32,0-.52.11-.99.34-1.4.22-.41.54-.73.95-.97s.88-.36,1.41-.36c.19,0,.38.02.6.06.21.04.41.09.61.16.2.07.36.17.5.29l-.59,1.12c-.14-.15-.3-.25-.47-.29-.17-.05-.35-.07-.54-.07-.25,0-.48.07-.69.2-.21.14-.36.31-.47.53-.11.21-.17.45-.17.7s.05.5.16.71.26.39.47.52c.21.13.44.2.71.2.21,0,.41-.04.62-.13s.39-.21.55-.38l.66.98Z"/>
      <path class="cls-1" d="m16.79,10.58V.08h.01l5.39,7.66-.64-.14L26.94.08h.01v10.5h-1.48V3.47l.08.76-3.74,5.31h-.03l-3.82-5.31.27-.7v7.06h-1.44Z"/>
      <path class="cls-1" d="m29.19,5.52c0-.7.13-1.36.4-1.99.27-.63.63-1.18,1.11-1.67.47-.49,1.02-.86,1.64-1.13.62-.27,1.3-.41,2.02-.41s1.39.13,2.02.41c.62.27,1.18.65,1.66,1.13.48.49.86,1.04,1.13,1.67.27.62.4,1.29.4,1.99s-.13,1.39-.4,2.02c-.27.62-.65,1.18-1.13,1.65-.49.48-1.04.85-1.66,1.11-.62.27-1.29.4-2.01.4s-1.39-.13-2.02-.39c-.62-.26-1.17-.63-1.64-1.1-.47-.47-.84-1.02-1.11-1.65-.27-.62-.4-1.31-.4-2.04Zm1.54,0c0,.52.09,1.01.28,1.46.19.45.45.85.78,1.19s.73.61,1.17.8.92.29,1.43.29.98-.1,1.41-.29c.44-.19.82-.46,1.16-.8.33-.34.59-.74.78-1.19.19-.45.28-.94.28-1.46s-.1-1.01-.29-1.46c-.19-.45-.45-.85-.78-1.2-.33-.35-.71-.62-1.16-.81-.45-.2-.93-.29-1.44-.29s-.99.1-1.44.29-.83.47-1.16.81c-.33.34-.59.75-.76,1.2-.18.46-.27.94-.27,1.46Z"/>
      <path class="cls-1" d="m41.8.43h1.48v8.71h5.08v1.44h-6.57V.43Z"/>
      <path class="cls-1" d="m49.5,10.58L53.98,0h.1l4.45,10.58h-1.71l-3.25-8.23,1.06-.71-3.65,8.95h-1.48Zm2.73-3.81h3.63l.49,1.27h-4.56l.45-1.27Z"/>
      <path class="cls-1" d="m61.88,4.42l-.06.49.21-.28,3.97-4.2h1.93l-4.2,4.4,4.4,5.75h-1.89l-3.6-4.8-.78.76v4.05s-1.5,0-1.5,0V.43h1.51v3.99Z"/>
    </g>
  </g>
</svg>