<?xml version="1.0" encoding="UTF-8"?>
<svg id="_レイヤー_2" data-name="レイヤー 2" xmlns="http://www.w3.org/2000/svg" viewBox="0 0 9.39 1.5">
  <defs>
    <style>
      .cls-1 {
        fill: #c87290;
        stroke-width: 0px;
      }
    </style>
  </defs>
  <g id="Footer">
    <g>
      <path class="cls-1" d="m.58,1.35c-.08,0-.16-.01-.23-.04-.07-.03-.13-.07-.19-.12s-.09-.11-.12-.18c-.03-.07-.04-.15-.04-.23s.02-.16.04-.23c.03-.07.07-.13.12-.18s.12-.09.19-.12c.07-.03.15-.04.23-.04s.16.01.23.04.13.07.19.12.09.11.12.18c.03.07.04.15.04.23s-.01.16-.04.23c-.03.07-.07.13-.12.18-.05.05-.11.09-.18.12-.07.03-.15.04-.24.04Zm0-.08c.09,0,.18-.02.25-.07.08-.04.14-.1.18-.18.04-.07.07-.16.07-.25s-.02-.18-.07-.26c-.04-.08-.1-.13-.18-.18-.08-.04-.16-.07-.25-.07s-.17.02-.25.07c-.08.04-.14.1-.18.18-.04.07-.07.16-.07.26s.02.18.06.25c.04.08.1.13.17.18.07.04.16.06.27.06Zm.23-.23s-.06.04-.09.05c-.04.01-.08.02-.12.02-.07,0-.12-.02-.18-.05s-.09-.07-.12-.13c-.03-.05-.04-.11-.04-.17,0-.07.02-.13.05-.18.03-.05.07-.09.12-.12.05-.03.11-.05.17-.05.02,0,.05,0,.07,0,.02,0,.05,0,.07.02s.04.02.06.03l-.04.07s-.04-.03-.07-.03-.05-.01-.08-.01c-.04,0-.09.01-.13.04-.04.02-.07.06-.09.1s-.04.08-.04.14c0,.05.01.09.03.13s.05.07.09.09.08.04.13.04c.03,0,.06,0,.08-.01.03,0,.05-.02.07-.04l.04.07Z"/>
      <path class="cls-1" d="m2.24,1.48V.03h0l.7.99h-.04S3.59.03,3.59.03h0v1.45h-.1V.26v.05s-.58.83-.58.83h0l-.6-.83.02-.04v1.22h-.1Z"/>
      <path class="cls-1" d="m3.96.77c0-.1.02-.19.06-.28.04-.09.09-.16.16-.23.07-.07.14-.12.23-.16s.18-.06.28-.06.19.02.28.06.17.09.23.16c.07.07.12.14.16.23.04.09.06.18.06.28s-.02.19-.06.28c-.04.09-.09.16-.16.23-.07.07-.14.12-.23.16s-.18.06-.28.06-.19-.02-.28-.05-.16-.09-.23-.15c-.07-.06-.12-.14-.16-.23-.04-.09-.06-.18-.06-.29Zm.1,0c0,.09.02.17.05.24.03.08.08.14.13.2.06.06.12.1.2.13.08.03.16.05.24.05s.17-.02.25-.05.14-.08.2-.13c.06-.06.1-.12.13-.2s.05-.16.05-.25-.02-.17-.05-.25c-.03-.08-.08-.14-.13-.2-.06-.06-.12-.1-.2-.14s-.16-.05-.24-.05-.17.02-.25.05c-.08.03-.14.08-.2.14s-.1.13-.13.2c-.03.08-.05.16-.05.24Z"/>
      <path class="cls-1" d="m5.77.06h.1v1.33h.78v.09h-.88V.06Z"/>
      <path class="cls-1" d="m6.85,1.48l.6-1.48h0l.6,1.48h-.11l-.52-1.33.07-.04-.55,1.36h-.1Zm.29-.56h.63l.03.09h-.68l.02-.09Z"/>
      <path class="cls-1" d="m8.49.7v.07s0-.02,0-.02l.7-.69h.13l-.59.58.65.84h-.12l-.6-.78-.17.16v.61s-.1,0-.1,0V.06h.1v.64Z"/>
    </g>
  </g>
</svg>