<?xml version="1.0" encoding="UTF-8"?>
<svg id="_レイヤー_2" data-name="レイヤー 2" xmlns="http://www.w3.org/2000/svg" viewBox="0 0 27.81 7.24">
  <defs>
    <style>
      .cls-1 {
        fill: #c87290;
        stroke-width: 0px;
      }
    </style>
  </defs>
  <g id="Footer">
    <g id="logo">
      <g>
        <path class="cls-1" d="m.74,5.95c.07.05.11.14.12.27h-.15c0-.06-.03-.11-.06-.15-.03-.04-.09-.06-.16-.06-.1,0-.17.05-.22.15-.03.06-.04.14-.04.24s.02.17.06.24c.04.06.1.1.19.1.07,0,.12-.02.16-.06s.07-.1.08-.16h.15c-.02.13-.06.22-.13.28-.07.06-.16.09-.27.09-.12,0-.22-.05-.3-.14-.07-.09-.11-.2-.11-.34,0-.17.04-.3.12-.39.08-.09.18-.14.31-.14.11,0,.19.03.26.08Z"/>
        <path class="cls-1" d="m1.94,6c.08.08.13.2.13.36s-.04.28-.11.38c-.07.1-.19.15-.34.15-.13,0-.23-.04-.31-.13-.08-.09-.11-.21-.11-.35,0-.16.04-.29.12-.38.08-.09.19-.14.32-.14.12,0,.22.04.31.12Zm-.1.63c.04-.08.06-.17.06-.27,0-.09-.01-.16-.04-.22-.04-.09-.12-.13-.23-.13-.1,0-.17.04-.21.11-.04.07-.07.16-.07.27s.02.18.07.25c.04.07.11.1.21.1.1,0,.18-.04.21-.12Z"/>
        <path class="cls-1" d="m2.5,5.55h.16v1.3h-.16v-1.3Z"/>
        <path class="cls-1" d="m3.81,6c.08.08.13.2.13.36s-.04.28-.11.38c-.07.1-.19.15-.34.15-.13,0-.23-.04-.31-.13-.08-.09-.11-.21-.11-.35,0-.16.04-.29.12-.38.08-.09.19-.14.32-.14.12,0,.22.04.31.12Zm-.1.63c.04-.08.06-.17.06-.27,0-.09-.01-.16-.04-.22-.04-.09-.12-.13-.23-.13-.1,0-.17.04-.21.11-.04.07-.07.16-.07.27s.02.18.07.25c.04.07.11.1.21.1.1,0,.18-.04.21-.12Z"/>
        <path class="cls-1" d="m4.37,5.9h.15v.16s.04-.07.09-.12c.05-.05.1-.07.17-.07,0,0,0,0,.01,0,0,0,.02,0,.04,0v.17s-.02,0-.03,0c0,0-.02,0-.03,0-.08,0-.14.03-.18.08-.04.05-.06.11-.06.18v.54h-.16v-.95Z"/>
        <path class="cls-1" d="m6.53,5.9h.18c-.02.06-.07.2-.15.42-.06.16-.11.3-.15.4-.09.24-.16.39-.19.44-.04.05-.1.08-.19.08-.02,0-.04,0-.05,0-.01,0-.03,0-.04,0v-.14s.05.01.06.01c.01,0,.02,0,.03,0,.03,0,.05,0,.06-.01.01,0,.03-.02.03-.04,0,0,.01-.03.03-.07.02-.04.03-.08.04-.1l-.35-.97h.18l.25.77.26-.77Z"/>
        <path class="cls-1" d="m7.76,6c.08.08.13.2.13.36s-.04.28-.11.38c-.07.1-.19.15-.34.15-.13,0-.23-.04-.31-.13-.08-.09-.11-.21-.11-.35,0-.16.04-.29.12-.38.08-.09.19-.14.32-.14.12,0,.22.04.31.12Zm-.1.63c.04-.08.06-.17.06-.27,0-.09-.01-.16-.04-.22-.04-.09-.12-.13-.23-.13-.1,0-.17.04-.21.11-.04.07-.07.16-.07.27s.02.18.07.25c.04.07.11.1.21.1.1,0,.18-.04.21-.12Z"/>
        <path class="cls-1" d="m8.47,5.9v.63s0,.09.02.12c.03.06.08.08.15.08.11,0,.18-.05.22-.15.02-.05.03-.13.03-.22v-.46h.16v.95h-.15v-.14s-.04.07-.07.09c-.06.05-.13.07-.22.07-.13,0-.22-.05-.27-.14-.03-.05-.04-.11-.04-.19v-.64h.16Z"/>
        <path class="cls-1" d="m9.56,5.9h.15v.16s.04-.07.09-.12c.05-.05.1-.07.17-.07,0,0,0,0,.01,0,0,0,.02,0,.04,0v.17s-.02,0-.03,0c0,0-.02,0-.03,0-.08,0-.14.03-.18.08-.04.05-.06.11-.06.18v.54h-.16v-.95Z"/>
        <path class="cls-1" d="m10.48,6.55c0,.05.02.09.04.12.04.05.11.08.21.08.06,0,.11-.01.16-.04s.07-.07.07-.12c0-.04-.02-.07-.05-.09-.02-.01-.07-.03-.14-.05l-.13-.03c-.08-.02-.14-.04-.18-.07-.07-.04-.1-.1-.1-.18,0-.09.03-.16.1-.22.07-.06.15-.08.26-.08.14,0,.25.04.31.13.04.05.06.11.06.17h-.15s-.02-.07-.04-.1c-.04-.04-.1-.06-.19-.06-.06,0-.11.01-.14.03-.03.02-.05.05-.05.09,0,.04.02.07.06.1.02.01.06.03.11.04l.11.03c.12.03.19.05.23.08.06.04.09.1.09.19s-.03.16-.1.22c-.06.06-.16.09-.3.09-.14,0-.24-.03-.3-.1-.06-.06-.09-.14-.1-.24h.15Z"/>
        <path class="cls-1" d="m12.11,5.93c.06.03.11.07.14.12.03.05.05.1.06.17,0,.04.01.11.01.21h-.69c0,.1.03.17.07.23.04.06.11.09.2.09.08,0,.15-.03.2-.08.03-.03.05-.07.06-.11h.16s-.02.07-.04.12c-.02.04-.05.08-.08.1-.05.05-.11.08-.18.1-.04,0-.08.01-.13.01-.12,0-.22-.04-.3-.13-.08-.09-.12-.21-.12-.36s.04-.28.12-.37c.08-.09.19-.14.32-.14.07,0,.13.02.19.05Zm.06.37c0-.07-.02-.12-.04-.17-.04-.08-.12-.11-.22-.11-.07,0-.13.03-.18.08-.05.05-.08.12-.08.2h.52Z"/>
        <path class="cls-1" d="m12.77,5.55h.16v1.3h-.16v-1.3Z"/>
        <path class="cls-1" d="m13.48,5.62c.04-.05.11-.08.21-.08.01,0,.02,0,.03,0,.01,0,.02,0,.04,0v.14s-.03,0-.04,0c0,0-.01,0-.02,0-.05,0-.08.01-.09.04,0,.03-.01.09-.01.19h.16v.13h-.16v.82h-.16v-.82h-.13v-.13h.13v-.15c0-.07.01-.11.03-.14Z"/>
        <path class="cls-1" d="m14.91,5.64h.16v.26h.15v.13h-.15v.62s.01.05.03.07c.01,0,.03,0,.06,0,0,0,.02,0,.02,0,0,0,.02,0,.03,0v.13s-.04,0-.06.01c-.02,0-.04,0-.06,0-.07,0-.12-.02-.15-.06-.03-.04-.04-.09-.04-.15v-.63h-.13v-.13h.13v-.26Z"/>
        <path class="cls-1" d="m16.3,6c.08.08.13.2.13.36s-.04.28-.11.38c-.07.1-.19.15-.34.15-.13,0-.23-.04-.31-.13-.08-.09-.11-.21-.11-.35,0-.16.04-.29.12-.38.08-.09.19-.14.32-.14.12,0,.22.04.31.12Zm-.1.63c.04-.08.06-.17.06-.27,0-.09-.01-.16-.04-.22-.04-.09-.12-.13-.23-.13-.1,0-.17.04-.21.11-.04.07-.07.16-.07.27s.02.18.07.25c.04.07.11.1.21.1.1,0,.18-.04.21-.12Z"/>
        <path class="cls-1" d="m18.18,5.9h.18c-.02.06-.07.2-.15.42-.06.16-.11.3-.15.4-.09.24-.16.39-.19.44-.04.05-.1.08-.19.08-.02,0-.04,0-.05,0-.01,0-.03,0-.04,0v-.14s.05.01.06.01c.01,0,.02,0,.03,0,.03,0,.05,0,.06-.01.01,0,.03-.02.03-.04,0,0,.01-.03.03-.07.02-.04.03-.08.04-.1l-.35-.97h.18l.25.77.26-.77Z"/>
        <path class="cls-1" d="m19.41,6c.08.08.13.2.13.36s-.04.28-.11.38c-.07.1-.19.15-.34.15-.13,0-.23-.04-.31-.13-.08-.09-.11-.21-.11-.35,0-.16.04-.29.12-.38.08-.09.19-.14.32-.14.12,0,.22.04.31.12Zm-.1.63c.04-.08.06-.17.06-.27,0-.09-.01-.16-.04-.22-.04-.09-.12-.13-.23-.13-.1,0-.17.04-.21.11-.04.07-.07.16-.07.27s.02.18.07.25c.04.07.11.1.21.1.1,0,.18-.04.21-.12Z"/>
        <path class="cls-1" d="m20.12,5.9v.63s0,.09.02.12c.03.06.08.08.15.08.11,0,.18-.05.22-.15.02-.05.03-.13.03-.22v-.46h.16v.95h-.15v-.14s-.04.07-.07.09c-.06.05-.13.07-.22.07-.13,0-.22-.05-.27-.14-.03-.05-.04-.11-.04-.19v-.64h.16Z"/>
        <path class="cls-1" d="m21.21,5.9h.15v.16s.04-.07.09-.12c.05-.05.1-.07.17-.07,0,0,0,0,.01,0,0,0,.02,0,.04,0v.17s-.02,0-.03,0c0,0-.02,0-.03,0-.08,0-.14.03-.18.08-.04.05-.06.11-.06.18v.54h-.16v-.95Z"/>
        <path class="cls-1" d="m22.77,5.9h.16v.13s.07-.08.1-.1c.05-.04.11-.05.18-.05.08,0,.14.02.18.06.03.02.05.05.07.09.04-.05.08-.09.12-.11.05-.02.1-.04.16-.04.13,0,.21.05.26.14.02.05.04.12.04.2v.63h-.17v-.66c0-.06-.02-.11-.05-.13-.03-.02-.07-.04-.12-.04-.06,0-.12.02-.16.06-.05.04-.07.11-.07.21v.55h-.16v-.62c0-.06,0-.11-.02-.14-.02-.04-.07-.07-.14-.07-.06,0-.11.02-.16.07-.05.05-.07.13-.07.25v.5h-.16v-.95Z"/>
        <path class="cls-1" d="m25.2,6c.08.08.13.2.13.36s-.04.28-.11.38c-.07.1-.19.15-.34.15-.13,0-.23-.04-.31-.13-.08-.09-.11-.21-.11-.35,0-.16.04-.29.12-.38.08-.09.19-.14.32-.14.12,0,.22.04.31.12Zm-.1.63c.04-.08.06-.17.06-.27,0-.09-.01-.16-.04-.22-.04-.09-.12-.13-.23-.13-.1,0-.17.04-.21.11-.04.07-.07.16-.07.27s.02.18.07.25c.04.07.11.1.21.1.1,0,.18-.04.21-.12Z"/>
        <path class="cls-1" d="m26.44,6c.08.08.13.2.13.36s-.04.28-.11.38c-.07.1-.19.15-.34.15-.13,0-.23-.04-.31-.13-.08-.09-.11-.21-.11-.35,0-.16.04-.29.12-.38.08-.09.19-.14.32-.14.12,0,.22.04.31.12Zm-.1.63c.04-.08.06-.17.06-.27,0-.09-.01-.16-.04-.22-.04-.09-.12-.13-.23-.13-.1,0-.17.04-.21.11-.04.07-.07.16-.07.27s.02.18.07.25c.04.07.11.1.21.1.1,0,.18-.04.21-.12Z"/>
        <path class="cls-1" d="m27.51,5.93s.06.05.1.09v-.48h.15v1.3h-.14v-.13c-.04.06-.08.1-.13.13-.05.03-.11.04-.17.04-.11,0-.2-.04-.27-.13-.08-.09-.12-.21-.12-.35,0-.14.04-.26.11-.36.07-.1.17-.15.3-.15.07,0,.13.02.18.05Zm-.35.71c.04.07.11.1.21.1.07,0,.13-.03.18-.09.05-.06.07-.15.07-.27s-.02-.21-.07-.27c-.05-.06-.11-.09-.18-.09-.08,0-.14.03-.19.09-.05.06-.07.15-.07.27,0,.1.02.19.06.25Z"/>
      </g>
      <g>
        <g>
          <path class="cls-1" d="m25.08,3.87h-.47c-.1.01-.11-.06-.11-.08v-1.91s0,0,0,0v-.23s0-1.46,0-1.46c0,0,0-.05,0-.06V.03h-1.26c-.06,0-.07.02-.07.05,0,.01,0,.04.08.04h.44s.05.05.05.08v3.6s-.02.08-.04.08h-.47s-.07,0-.07.04.02.04.06.04h1.86s.06,0,.06-.04c0-.05-.04-.04-.06-.04Z"/>
          <path class="cls-1" d="m27.74,3.87h-.39s-.03-.04-.04-.05l-1.79-2.38s-.01-.04,0-.05l1.2-1.08c.1-.09.22-.18.36-.18h.33s.06-.02.06-.05c0-.03-.02-.04-.06-.04h-1.64s-.06,0-.06.04c0,.04.03.05.06.05h.8s.04.05.04.06c0,0,0,.03-.01.04l-1.63,1.43s-.01,0-.03.03c-.03.05-.06.12,0,.28h0s1.37,1.81,1.37,1.81c0,.01.01.03,0,.04,0,.01-.02.06-.04.06h-.59s-.06,0-.06.04.02.04.06.04h2.06s.06,0,.06-.04-.03-.04-.06-.04Z"/>
        </g>
        <path class="cls-1" d="m.07,3.87h.41c.07,0,.1-.07.1-.14V.36c0-.11.04-.24-.18-.24H.08s-.07,0-.07-.04C.02.05.03.04.04.04h.06s.31,0,.31,0h.11s.04,0,.07,0h.37s.59,0,.59,0c.06,0,.1.04.12.09l1.02,2.11c.02.05.06.03.08-.02L3.82.13l.02-.02s.02,0,.05,0c0,0,.02,0,.03.01.01,0,.03.01.03.03h0s0,.02,0,.02l-1.46,3.01s-.02.06-.08.06-.08-.03-.09-.07L.9.27s-.14-.06-.17.01v3.46c0,.06.06.14.13.14h.51s.06.01.06.05-.03.04-.06.04H.07s-.07,0-.07-.04.03-.05.07-.05Z"/>
        <path class="cls-1" d="m3.63,3.87h.42c.07,0,.12-.07.12-.13V.31c0-.1.03-.16.06-.19,0,0,.06-.07.17-.08h.07s0,0,0,0h1.01s.07,0,.07.04c0,.04-.03.04-.06.04h-.29c-.29,0-.29.12-.29.22v3.4c0,.06,0,.13.07.13h.55s.06.02.06.05-.03.04-.07.04h-1.92s-.06,0-.06-.04.02-.05.06-.05Z"/>
        <g>
          <path class="cls-1" d="m19.38,1.06l.73,1.92.32.81s0,.03,0,.03c0,.01-.02.05-.04.05h-.73s-.06,0-.06.04.02.04.06.04h2.16s.07-.01.07-.05-.03-.04-.07-.04h-.51s-.04-.04-.04-.06L19.8.08s-.04-.08-.08-.08c-.05,0-.07.04-.09.08l-.27.7c-.03.07-.03.16,0,.23h0"/>
          <path class="cls-1" d="m17.69,3.96c-.07,0-.08,0-.08-.04,0-.05.04-.05.09-.05h.39s.01-.04.02-.05l.93-2.38s.06-.05.08-.05c.01,0,.03,0,.04.01.02.01.04.04.03.08l-.02.04-.51,1.3s0,0,.01,0h.97c.06.02.08.05.09.07,0,.02,0,.05,0,.06-.01.02-.03.03-.07.03h-.01s-1.02,0-1.02,0c0,0-.02,0-.02.01l-.31.82h0s.01.05.02.05h.49c.06,0,.07,0,.07.05,0,.02,0,.04-.08.04h-1.08Z"/>
        </g>
        <path class="cls-1" d="m12.85.04s-.06,0-.06.04.03.04.06.04h.4s.08.07.08.11v3.54s-.03.1-.07.1h-.41s-.06.01-.06.04c0,.04.02.05.06.05h3.23s.08-.04.09-.08v-1.08s0-.06-.05-.06c-.04,0-.05.03-.05.06-.11.77-.49,1.06-1.39,1.06h-.48s-.07-.04-.07-.08V.23s0-.02,0-.05V.04s-1.26,0-1.26,0Z"/>
        <g>
          <path class="cls-1" d="m9.36.14h0s-.02,0-.02,0c0,0,0,0,0,0h0s0,0,0,0h0s0,0,0,0h0s0,0,0,0c-.04,0-.06.02-.06.04,0,.02,0,.04.03.05h0s.03,0,.03,0h0s0,0,0,0c0,0,0,0,0,0h0s0,0,0,0c.17.03.32.09.43.19.31.27.37.8.37,1.62s-.06,1.35-.37,1.6c-.14.12-.27.18-.43.21h0s0,0,0,0h0s-.01,0-.01,0h0s-.04.05-.04.06c0,.01.01.04.05.04h0s0,0,0,0h0s.02,0,.02,0h0s0,0,0,0h.02s0,0,0,0c1-.13,1.69-.92,1.69-1.91s-.7-1.76-1.68-1.9Z"/>
          <path class="cls-1" d="m8.84,3.88h0s-.07-.03-.09-.03c-.14-.03-.26-.09-.38-.2-.31-.25-.37-.8-.37-1.6s.06-1.35.37-1.62c.02-.02.05-.04.09-.06.01,0,.02-.01.04-.02.01,0,.03-.01.04-.02,0,0,.01,0,.02-.01.01,0,.03-.01.05-.02.01,0,.03-.01.05-.02h0s.03-.01.03-.01c.04-.01.08-.02.11-.03h.02s0,0,0,0c.03-.01.04-.04.04-.05,0-.02-.02-.03-.05-.04h0s-.01,0-.01,0c0,0,0,0,0,0,0,0,0,0,0,0h0s0,0-.01,0c0,0-.01,0-.01,0h0c-.98.14-1.69.94-1.69,1.9s.69,1.77,1.68,1.91h0s.01,0,.01,0c0,0,0,0,.01,0h0s0,0,0,0h0s0,0,0,0h0s0,0,0,0h0s0,0,0,0h0s.05-.03.05-.04c0-.01,0-.03-.01-.04Z"/>
        </g>
      </g>
    </g>
  </g>
</svg>