<?xml version="1.0" encoding="UTF-8"?>
<svg id="_レイヤー_2" data-name="レイヤー 2" xmlns="http://www.w3.org/2000/svg" viewBox="0 0 204.14 53.14">
  <defs>
    <style>
      .cls-1 {
        fill: #fff;
        stroke-width: 0px;
      }
    </style>
  </defs>
  <g id="footer">
    <g id="logo">
      <g>
        <path class="cls-1" d="m5.44,43.72c.49.38.78,1.03.88,1.96h-1.13c-.07-.43-.23-.78-.47-1.07-.25-.28-.64-.43-1.19-.43-.74,0-1.28.36-1.6,1.09-.21.47-.31,1.05-.31,1.74s.15,1.28.44,1.75c.29.48.76.71,1.39.71.48,0,.87-.15,1.15-.44s.48-.7.59-1.21h1.13c-.13.92-.45,1.59-.97,2.02-.52.43-1.18.64-1.99.64-.91,0-1.63-.33-2.17-1-.54-.66-.81-1.49-.81-2.49,0-1.22.3-2.17.89-2.85.59-.68,1.35-1.02,2.26-1.02.78,0,1.42.19,1.91.57Z"/>
        <path class="cls-1" d="m14.24,44.04c.61.59.92,1.47.92,2.63s-.27,2.04-.81,2.77c-.54.73-1.38,1.09-2.52,1.09-.95,0-1.7-.32-2.26-.97-.56-.65-.84-1.51-.84-2.6,0-1.17.29-2.09.88-2.79.59-.69,1.38-1.04,2.37-1.04.89,0,1.64.3,2.25.9Zm-.72,4.61c.28-.59.43-1.24.43-1.95,0-.65-.1-1.17-.31-1.58-.32-.64-.89-.96-1.68-.96-.71,0-1.22.27-1.54.81-.32.55-.48,1.2-.48,1.97s.16,1.35.48,1.85c.32.49.83.74,1.53.74.76,0,1.29-.29,1.57-.88Z"/>
        <path class="cls-1" d="m18.34,40.77h1.17v9.52h-1.17v-9.52Z"/>
        <path class="cls-1" d="m28,44.04c.61.59.92,1.47.92,2.63s-.27,2.04-.81,2.77c-.54.73-1.38,1.09-2.52,1.09-.95,0-1.7-.32-2.26-.97-.56-.65-.84-1.51-.84-2.6,0-1.17.29-2.09.88-2.79.59-.69,1.38-1.04,2.37-1.04.89,0,1.64.3,2.25.9Zm-.72,4.61c.28-.59.43-1.24.43-1.95,0-.65-.1-1.17-.31-1.58-.32-.64-.89-.96-1.68-.96-.71,0-1.22.27-1.54.81-.32.55-.48,1.2-.48,1.97s.16,1.35.48,1.85c.32.49.83.74,1.53.74.76,0,1.29-.29,1.57-.88Z"/>
        <path class="cls-1" d="m32.1,43.35h1.11v1.2c.09-.23.31-.52.67-.85.35-.33.76-.5,1.23-.5.02,0,.06,0,.11,0,.05,0,.14.01.27.03v1.23c-.07-.01-.13-.02-.19-.03-.06,0-.12,0-.19,0-.59,0-1.04.19-1.36.57-.32.38-.47.81-.47,1.31v3.99h-1.17v-6.94Z"/>
        <path class="cls-1" d="m47.94,43.35h1.29c-.16.45-.53,1.46-1.09,3.05-.42,1.19-.78,2.17-1.06,2.92-.67,1.77-1.15,2.85-1.42,3.24-.28.39-.75.58-1.43.58-.16,0-.29,0-.38-.02-.09-.01-.2-.04-.33-.07v-1.06c.2.06.35.09.44.1.09.01.17.02.24.02.22,0,.38-.03.48-.11.1-.07.19-.16.26-.26.02-.03.1-.21.23-.53.14-.32.23-.56.29-.71l-2.57-7.15h1.32l1.86,5.66,1.87-5.66Z"/>
        <path class="cls-1" d="m56.98,44.04c.61.59.92,1.47.92,2.63s-.27,2.04-.81,2.77c-.54.73-1.38,1.09-2.52,1.09-.95,0-1.7-.32-2.26-.97-.56-.65-.84-1.51-.84-2.6,0-1.17.29-2.09.88-2.79.59-.69,1.38-1.04,2.37-1.04.89,0,1.64.3,2.25.9Zm-.72,4.61c.28-.59.43-1.24.43-1.95,0-.65-.1-1.17-.31-1.58-.33-.64-.89-.96-1.68-.96-.7,0-1.22.27-1.54.81-.32.55-.48,1.2-.48,1.97s.16,1.35.48,1.85c.32.49.83.74,1.53.74.76,0,1.29-.29,1.57-.88Z"/>
        <path class="cls-1" d="m62.22,43.35v4.61c0,.35.05.65.16.87.2.41.58.62,1.13.62.79,0,1.33-.36,1.62-1.09.16-.39.23-.92.23-1.6v-3.41h1.17v6.94h-1.1v-1.02c-.14.26-.32.49-.54.67-.44.36-.97.54-1.59.54-.97,0-1.63-.33-1.98-.99-.19-.35-.29-.83-.29-1.42v-4.72h1.19Z"/>
        <path class="cls-1" d="m70.18,43.35h1.11v1.2c.09-.23.31-.52.67-.85.35-.33.76-.5,1.23-.5.02,0,.06,0,.11,0,.05,0,.14.01.27.03v1.23c-.07-.01-.13-.02-.19-.03-.06,0-.12,0-.19,0-.59,0-1.04.19-1.35.57-.32.38-.47.81-.47,1.31v3.99h-1.17v-6.94Z"/>
        <path class="cls-1" d="m76.97,48.11c.03.39.14.69.3.89.3.38.82.57,1.56.57.44,0,.83-.09,1.16-.28.34-.19.5-.48.5-.87,0-.3-.13-.53-.4-.68-.17-.09-.51-.21-1.01-.33l-.94-.23c-.6-.15-1.05-.31-1.33-.49-.51-.32-.76-.75-.76-1.31,0-.66.24-1.19.72-1.6.48-.41,1.12-.61,1.93-.61,1.06,0,1.82.31,2.29.92.29.39.43.81.43,1.26h-1.1c-.02-.26-.12-.5-.29-.72-.27-.3-.75-.46-1.43-.46-.45,0-.79.08-1.03.25-.23.17-.35.39-.35.67,0,.3.15.54.46.72.18.11.44.2.78.28l.79.19c.85.2,1.43.4,1.72.59.45.3.68.77.68,1.41s-.24,1.15-.71,1.6c-.48.45-1.2.67-2.17.67-1.05,0-1.79-.23-2.22-.7-.44-.47-.67-1.05-.7-1.74h1.12Z"/>
        <path class="cls-1" d="m88.92,43.54c.46.23.81.53,1.05.9.23.35.39.76.46,1.23.07.32.1.83.1,1.53h-5.05c.02.71.19,1.27.5,1.7.31.43.79.64,1.43.64.6,0,1.09-.2,1.45-.61.2-.23.35-.51.43-.81h1.15c-.03.25-.13.54-.3.85-.17.31-.36.57-.57.77-.35.35-.79.58-1.31.7-.28.07-.59.1-.95.1-.86,0-1.59-.31-2.18-.94-.6-.63-.9-1.51-.9-2.64s.3-2.02.9-2.72c.6-.7,1.39-1.04,2.36-1.04.49,0,.96.12,1.42.35Zm.42,2.73c-.05-.51-.16-.91-.33-1.21-.32-.56-.85-.84-1.59-.84-.53,0-.98.19-1.34.58-.36.39-.55.88-.57,1.48h3.82Z"/>
        <path class="cls-1" d="m93.76,40.77h1.17v9.52h-1.17v-9.52Z"/>
        <path class="cls-1" d="m98.94,41.23c.27-.4.8-.6,1.57-.6.07,0,.15,0,.23,0,.08,0,.17.01.27.02v1.06c-.12,0-.21-.01-.27-.02-.05,0-.11,0-.15,0-.36,0-.57.09-.64.27-.07.18-.11.65-.11,1.4h1.17v.92h-1.17v5.99h-1.15v-5.99h-.97v-.92h.97v-1.09c.02-.48.1-.84.25-1.06Z"/>
        <path class="cls-1" d="m109.43,41.41h1.18v1.94h1.11v.95h-1.11v4.53c0,.24.08.4.25.49.09.05.24.07.45.07.06,0,.12,0,.18,0,.06,0,.14,0,.23-.02v.93c-.13.04-.27.07-.42.08-.14.02-.3.03-.47.03-.55,0-.92-.14-1.11-.42-.19-.28-.29-.64-.29-1.09v-4.6h-.94v-.95h.94v-1.94Z"/>
        <path class="cls-1" d="m119.63,44.04c.61.59.92,1.47.92,2.63s-.27,2.04-.81,2.77c-.54.73-1.38,1.09-2.52,1.09-.95,0-1.7-.32-2.26-.97-.56-.65-.84-1.51-.84-2.6,0-1.17.29-2.09.88-2.79.59-.69,1.38-1.04,2.37-1.04.89,0,1.64.3,2.25.9Zm-.72,4.61c.28-.59.43-1.24.43-1.95,0-.65-.1-1.17-.31-1.58-.33-.64-.89-.96-1.68-.96-.71,0-1.22.27-1.54.81-.32.55-.48,1.2-.48,1.97s.16,1.35.48,1.85c.32.49.83.74,1.53.74.76,0,1.29-.29,1.57-.88Z"/>
        <path class="cls-1" d="m133.44,43.35h1.29c-.16.45-.53,1.46-1.09,3.05-.42,1.19-.78,2.17-1.06,2.92-.67,1.77-1.15,2.85-1.42,3.24-.28.39-.75.58-1.43.58-.16,0-.29,0-.38-.02-.09-.01-.2-.04-.33-.07v-1.06c.2.06.35.09.44.1.09.01.17.02.24.02.22,0,.38-.03.48-.11.1-.07.19-.16.26-.26.02-.03.1-.21.23-.53.14-.32.23-.56.29-.71l-2.57-7.15h1.32l1.86,5.66,1.87-5.66Z"/>
        <path class="cls-1" d="m142.48,44.04c.61.59.92,1.47.92,2.63s-.27,2.04-.81,2.77c-.54.73-1.38,1.09-2.52,1.09-.95,0-1.7-.32-2.26-.97-.56-.65-.84-1.51-.84-2.6,0-1.17.29-2.09.88-2.79.59-.69,1.38-1.04,2.37-1.04.89,0,1.64.3,2.25.9Zm-.72,4.61c.28-.59.43-1.24.43-1.95,0-.65-.1-1.17-.31-1.58-.33-.64-.89-.96-1.68-.96-.7,0-1.22.27-1.54.81-.32.55-.48,1.2-.48,1.97s.16,1.35.48,1.85c.32.49.83.74,1.53.74.76,0,1.29-.29,1.57-.88Z"/>
        <path class="cls-1" d="m147.72,43.35v4.61c0,.35.05.65.16.87.2.41.58.62,1.13.62.79,0,1.33-.36,1.62-1.09.16-.39.23-.92.23-1.6v-3.41h1.17v6.94h-1.1v-1.02c-.14.26-.32.49-.54.67-.44.36-.97.54-1.59.54-.97,0-1.63-.33-1.98-.99-.19-.35-.29-.83-.29-1.42v-4.72h1.19Z"/>
        <path class="cls-1" d="m155.68,43.35h1.11v1.2c.09-.23.31-.52.67-.85.35-.33.76-.5,1.23-.5.02,0,.06,0,.11,0,.05,0,.14.01.27.03v1.23c-.07-.01-.13-.02-.19-.03-.06,0-.12,0-.19,0-.59,0-1.04.19-1.36.57-.32.38-.47.81-.47,1.31v3.99h-1.17v-6.94Z"/>
        <path class="cls-1" d="m167.18,43.35h1.15v.99c.28-.34.53-.59.75-.75.38-.26.82-.4,1.31-.4.55,0,1,.14,1.34.41.19.16.36.39.52.69.26-.37.56-.65.91-.83.35-.18.74-.27,1.18-.27.93,0,1.57.34,1.91,1.01.18.36.27.85.27,1.47v4.62h-1.21v-4.82c0-.46-.11-.78-.35-.95-.23-.17-.51-.26-.84-.26-.46,0-.85.15-1.18.46-.33.31-.5.82-.5,1.54v4.04h-1.19v-4.53c0-.47-.05-.81-.17-1.03-.18-.32-.51-.49-.99-.49-.44,0-.84.17-1.2.51-.36.34-.54.96-.54,1.85v3.68h-1.17v-6.94Z"/>
        <path class="cls-1" d="m184.99,44.04c.61.59.92,1.47.92,2.63s-.27,2.04-.81,2.77c-.54.73-1.38,1.09-2.52,1.09-.95,0-1.7-.32-2.26-.97-.56-.65-.84-1.51-.84-2.6,0-1.17.29-2.09.88-2.79.59-.69,1.38-1.04,2.37-1.04.89,0,1.64.3,2.25.9Zm-.72,4.61c.28-.59.43-1.24.43-1.95,0-.65-.1-1.17-.31-1.58-.33-.64-.89-.96-1.68-.96-.7,0-1.22.27-1.54.81-.32.55-.48,1.2-.48,1.97s.16,1.35.48,1.85c.32.49.83.74,1.53.74.76,0,1.29-.29,1.57-.88Z"/>
        <path class="cls-1" d="m194.08,44.04c.61.59.92,1.47.92,2.63s-.27,2.04-.81,2.77c-.54.73-1.38,1.09-2.52,1.09-.95,0-1.7-.32-2.26-.97-.56-.65-.84-1.51-.84-2.6,0-1.17.29-2.09.88-2.79.59-.69,1.38-1.04,2.37-1.04.89,0,1.64.3,2.25.9Zm-.72,4.61c.28-.59.43-1.24.43-1.95,0-.65-.1-1.17-.31-1.58-.33-.64-.89-.96-1.68-.96-.71,0-1.22.27-1.54.81-.32.55-.48,1.2-.48,1.97s.16,1.35.48,1.85c.32.49.83.74,1.53.74.76,0,1.29-.29,1.57-.88Z"/>
        <path class="cls-1" d="m201.97,43.56c.21.13.44.36.7.68v-3.51h1.12v9.56h-1.05v-.97c-.27.43-.59.74-.96.93-.37.19-.79.29-1.27.29-.77,0-1.44-.33-2-.98-.56-.65-.85-1.52-.85-2.6,0-1.01.26-1.89.77-2.63.51-.74,1.25-1.11,2.21-1.11.53,0,.97.11,1.33.34Zm-2.6,5.21c.31.5.82.75,1.51.75.54,0,.98-.23,1.33-.7.35-.46.52-1.13.52-2s-.18-1.53-.54-1.95c-.36-.42-.8-.63-1.32-.63-.59,0-1.06.22-1.42.67-.36.45-.55,1.11-.55,1.98,0,.74.16,1.37.47,1.87Z"/>
      </g>
      <g>
        <g>
          <path class="cls-1" d="m184.13,28.42h-3.44c-.73.08-.81-.41-.81-.57v-14.02s0,0,0,0v-1.66s0-10.75,0-10.75c0-.06-.02-.36.01-.41V.25h-9.28c-.43,0-.5.18-.5.34,0,.11.05.29.56.29h3.25c.19,0,.34.39.34.55v26.42c0,.17-.12.57-.31.57h-3.44c-.27,0-.48.03-.48.3s.17.32.44.32h13.66c.13,0,.42.07.41-.33,0-.35-.28-.29-.41-.29Z"/>
          <path class="cls-1" d="m203.68,28.41h-2.85c-.12,0-.23-.3-.3-.39l-13.15-17.45c-.09-.12-.07-.27.04-.37l8.82-7.95c.72-.65,1.64-1.33,2.63-1.33l2.43-.04c.27,0,.46-.07.46-.34,0-.2-.12-.29-.46-.29h-12.03c-.28,0-.46.03-.46.29,0,.27.19.34.46.34h5.85c.18,0,.29.36.33.46.02.05.05.19-.08.3l-11.98,10.52c-.06.03-.11.07-.25.2-.22.34-.47.92-.05,2.03l.04.06,10.05,13.24c.07.09.08.19.03.29-.04.09-.13.43-.3.43h-4.36c-.27,0-.47.04-.47.31s.18.32.45.32h15.15c.28,0,.47-.05.47-.32s-.19-.32-.46-.32Z"/>
        </g>
        <path class="cls-1" d="m.48,28.41h3.03c.52,0,.7-.53.7-1V2.63c0-.77.29-1.76-1.31-1.73H.62c-.28,0-.49-.04-.49-.29,0-.22.08-.3.17-.33h.42s2.3,0,2.3,0h.84c.1,0,.29,0,.52,0h2.69s4.3-.01,4.3-.01c.42,0,.75.3.88.64l7.49,15.46c.18.38.42.24.6-.13L28.01.94l.18-.14c.05-.04.17-.02.34-.02.06,0,.14.06.2.08.09.03.19.11.21.24v.05s0,.08-.01.12l-10.73,22.06c-.06.17-.18.47-.6.47s-.56-.25-.65-.48L6.61,1.96c-.26-.16-1.05-.47-1.23.08v25.37c0,.47.41,1,.93,1h3.73c.27,0,.45.08.45.34s-.18.32-.45.32H.48c-.28,0-.48-.05-.48-.3s.21-.36.48-.36Z"/>
        <path class="cls-1" d="m26.67,28.43h3.08c.52,0,.9-.48.9-.95V2.28c0-.72.23-1.14.46-1.39.02-.02.46-.53,1.27-.6h.53s0,0,0,0h7.43c.31,0,.54.05.54.29,0,.26-.19.31-.47.31h-2.1c-2.15,0-2.16.88-2.16,1.65v24.93c0,.47.03.94.55.94h4.07c.3.01.45.13.45.38s-.19.27-.49.27h-14.08c-.3,0-.42-.03-.42-.27s.16-.36.47-.36Z"/>
        <g>
          <path class="cls-1" d="m142.28,7.75l5.35,14.08,2.33,5.98c.04.11,0,.2-.03.24-.06.09-.16.36-.28.36h-5.33c-.28,0-.45.05-.45.31s.16.32.44.32h15.85c.28,0,.5-.09.5-.35s-.21-.29-.5-.29h-3.74c-.14,0-.27-.29-.32-.41L145.36.57c-.12-.26-.26-.57-.58-.57-.37,0-.51.3-.63.57l-2,5.11c-.21.54-.22,1.15,0,1.69v.03"/>
          <path class="cls-1" d="m129.84,29.06c-.49,0-.6-.06-.6-.27.02-.39.28-.36.65-.36h2.89s.1-.3.13-.39l6.84-17.47c.2-.32.41-.39.56-.39.1,0,.2.03.3.09.15.1.28.3.25.58l-.11.32-3.77,9.57s.02.05.07.05l7.09.04c.44.08.6.32.63.47.06.14-.02.39-.05.45-.09.16-.25.2-.52.23h-.11s-7.51-.02-7.51-.02c-.05,0-.12.06-.13.09l-2.3,6.02v.02s.08.31.11.33h3.58c.46.01.52.04.5.36,0,.17-.07.27-.58.27h-7.94Z"/>
        </g>
        <path class="cls-1" d="m94.37.26c-.27,0-.45.04-.45.3s.19.31.45.31h2.92c.31,0,.56.49.56.78v26.01c0,.29-.24.76-.54.76h-3.01c-.32,0-.43.08-.43.28,0,.26.15.34.41.34h23.71c.3,0,.61-.26.64-.56v-7.92c-.01-.11-.05-.43-.39-.43-.26,0-.39.22-.39.42-.82,5.65-3.6,7.81-10.19,7.81h-3.54c-.31,0-.52-.29-.52-.59V1.65c0-.14,0-.18,0-.37V.26s-9.24,0-9.24,0Z"/>
        <g>
          <path class="cls-1" d="m68.72,1.03h0s-.15-.03-.15-.03c-.01,0-.03,0-.04,0h-.05s-.04-.01-.04-.01h-.02s-.03,0-.03,0h0s-.02,0-.02,0c-.29,0-.4.16-.43.27-.03.16.06.3.25.4v.04s.18.03.18.03h0s0,0,0,0c0,0,0,0,0,0h0s.02,0,.02,0c1.28.22,2.35.69,3.17,1.39,2.3,1.95,2.75,5.84,2.75,11.9s-.46,9.88-2.75,11.75c-1.04.85-1.99,1.3-3.17,1.53h-.04s0,0,0,0h-.04s-.08.02-.08.02h0c-.33.15-.33.4-.32.44.01.08.08.29.38.31h0s0,0,0,0h0s.13-.02.13-.02h.04s.01,0,.02,0l.15-.02h0c7.31-.99,12.4-6.72,12.4-14s-5.17-12.88-12.33-13.97Z"/>
          <path class="cls-1" d="m64.87,28.45h0c-.14-.06-.5-.19-.69-.25-1.02-.25-1.89-.69-2.82-1.45-2.29-1.87-2.75-5.88-2.75-11.75s.45-9.95,2.75-11.9c.18-.15.38-.3.66-.48.08-.05.17-.1.27-.15.1-.06.21-.11.31-.16.06-.03.1-.05.16-.08.1-.05.22-.09.33-.13.11-.04.22-.08.34-.12h0s.24-.07.24-.07c.27-.08.55-.15.84-.2l.15-.03v-.03c.23-.11.29-.28.28-.38-.02-.13-.12-.25-.33-.29v-.03s-.09.01-.09.01c0,0,0,0,0,0,0,0-.02,0-.05,0h-.03s-.06.02-.09.02c-.04,0-.07.01-.07.01h0c-7.19,1.06-12.39,6.92-12.39,13.98s5.07,12.98,12.35,13.99h0s.1.02.1.02c.03,0,.05.01.08.01h.03s.04,0,.04,0h0s.03,0,.03,0h0s.02,0,.02,0h.01s.04,0,.04,0h0c.27-.04.38-.2.4-.32.01-.1-.02-.2-.09-.27Z"/>
        </g>
      </g>
    </g>
  </g>
</svg>