<svg xmlns="http://www.w3.org/2000/svg" width="299.025" height="22.825" viewBox="0 0 299.025 22.825">
  <path id="パス_143" data-name="パス 143" d="M-148.687,0h4.325c5.575,0,8.325-3.6,8.325-9.175s-2.75-9.05-8.35-9.05h-4.3Zm1.5-1.275v-15.7h2.65c4.8,0,6.925,3.075,6.925,7.8s-2.125,7.9-6.925,7.9Zm23.95,1.6c4.45,0,7.575-3.7,7.575-9.5,0-5.775-3.125-9.375-7.575-9.375-4.4,0-7.55,3.6-7.55,9.375C-130.787-3.375-127.637.325-123.237.325Zm0-1.35c-3.6,0-5.975-3.2-5.975-8.15s2.375-8.025,5.975-8.025c3.625,0,6.025,3.075,6.025,8.025S-119.612-1.025-123.237-1.025Zm14,1.025h9.8V-1.3h-8.3V-18.225h-1.5Zm15.3,0h9.8V-1.3h-8.3V-18.225h-1.5Zm15.3,0h1.5V-18.225h-1.5Zm13.875.325c3.575,0,5.9-2.15,5.9-4.95,0-2.775-1.75-3.925-3.825-4.85l-2.725-1.2c-1.325-.575-3.1-1.35-3.1-3.425,0-1.875,1.55-3.1,3.875-3.1a5.849,5.849,0,0,1,4.3,1.825l.85-.975a6.961,6.961,0,0,0-5.15-2.2c-3.1,0-5.4,1.875-5.4,4.575,0,2.675,2.075,3.825,3.7,4.55l2.725,1.2c1.8.8,3.225,1.5,3.225,3.7,0,2.075-1.675,3.5-4.375,3.5A7.017,7.017,0,0,1-70.037-3.45l-.925,1.05A8.111,8.111,0,0,0-64.762.325ZM-52.837,0h1.5V-9.025h9.475V0h1.5V-18.225h-1.5v7.9h-9.475v-7.9h-1.5Zm27.8,0h5.4c4.1,0,6.8-1.8,6.8-5.325A4.222,4.222,0,0,0-16.712-9.7v-.125A3.925,3.925,0,0,0-13.937-13.8c0-3.075-2.4-4.425-6.075-4.425h-5.025Zm1.5-10.275V-17h3.2c3.225,0,4.9.9,4.9,3.375,0,2.075-1.45,3.35-5.05,3.35Zm0,9.025V-9.075h3.55c3.625,0,5.675,1.2,5.675,3.75,0,2.825-2.15,4.075-5.675,4.075ZM-6.737,0h1.5V-8.225h3.725L3.338,0h1.7L.113-8.35c2.775-.425,4.55-2.1,4.55-5,0-3.55-2.45-4.875-6.075-4.875H-6.737Zm1.5-9.475v-7.5h3.475c3.15,0,4.9.975,4.9,3.625,0,2.625-1.75,3.875-4.9,3.875Zm22.35,9.8c4.45,0,7.575-3.7,7.575-9.5,0-5.775-3.125-9.375-7.575-9.375-4.4,0-7.55,3.6-7.55,9.375C9.563-3.375,12.712.325,17.112.325Zm0-1.35c-3.6,0-5.975-3.2-5.975-8.15S13.512-17.2,17.112-17.2c3.625,0,6.025,3.075,6.025,8.025S20.738-1.025,17.112-1.025ZM33.063,0h1.7l3.125-12.175c.325-1.45.7-2.7,1-4.125h.1c.325,1.425.65,2.675.95,4.125L43.163,0h1.7l4-18.225h-1.45L45.188-7.675c-.4,1.975-.775,3.95-1.15,5.95h-.125c-.475-2-.925-3.975-1.4-5.95l-2.8-10.55H38.238L35.463-7.675c-.475,1.975-.95,3.95-1.4,5.95h-.1c-.4-2-.8-3.975-1.225-5.95l-2.2-10.55h-1.55Zm21.5,0h1.425V-10.925c0-1.825-.125-3.525-.2-5.275h.125l2.05,3.65L65.388,0h1.55V-18.225H65.513v10.8c0,1.775.1,3.6.2,5.4h-.125L63.563-5.7l-7.45-12.525h-1.55Zm33.25-11.4H82.338v1.1h12.4v-1.1H89.013v-4.575h6.5v-1.1h-6.5v-3.75h-1.2v3.75h-6.35v1.1h6.35Zm-7.775-9.425H78.913V-9.3h1.125Zm-2.325,4.1a13.516,13.516,0,0,0-3.05-2.575l-.775.7a14.119,14.119,0,0,1,3.025,2.675Zm.425,2.5c-1.975.95-3.9,1.85-5.225,2.4l.45,1.075c1.5-.725,3.275-1.575,5-2.375ZM92.913-5.65a31.905,31.905,0,0,1-4.7,2.75,13.291,13.291,0,0,1-2.85-3.525h10.05V-7.45H84.888V-9.625H83.713V-7.45H73.288v1.025h9.275a26.621,26.621,0,0,1-9.6,4.075,5.452,5.452,0,0,1,.75.95,30.406,30.406,0,0,0,5.175-1.8V.15c-1.15.15-2.2.275-3.075.375l.25,1.1c2.7-.35,6.575-.9,10.275-1.425L86.313-.85c-2.15.275-4.325.575-6.275.85V-3.75a18.861,18.861,0,0,0,4.075-2.675h.075a16.377,16.377,0,0,0,10.8,8.35,4.885,4.885,0,0,1,.775-1,17.23,17.23,0,0,1-6.825-3.2,32.389,32.389,0,0,0,4.925-2.7Zm19.325-1.525V-12h7.575v4.825Zm-8.025,0c.075-.95.1-1.9.1-2.775V-12h6.725v4.825Zm6.825-10.675v4.7h-6.725v-4.7Zm8.775,4.7h-7.575v-4.7h7.575Zm1.2-5.85h-17.9v9.05c0,3.525-.275,7.95-3.05,11.075a3.324,3.324,0,0,1,.925.85,14.711,14.711,0,0,0,3.125-8h6.925v7.65h1.2v-7.65h7.575v5.9c0,.5-.175.65-.65.65-.5.025-2.225.05-4.175,0a3.712,3.712,0,0,1,.425,1.175,20,20,0,0,0,4.575-.2c.725-.225,1.025-.625,1.025-1.625Zm13,1v6.225h-4.4V-18Zm-4.4,13.725V-10.65h4.4v6.375Zm5.55-14.85h-6.725V-1.2h1.175V-3.15h5.55ZM137.587-5.55a18.515,18.515,0,0,1,3.325,4.5l1.025-.675a18.179,18.179,0,0,0-3.4-4.4Zm12.75-6.125V-12.8h-6.9v-3.75h5.65v-1.1h-5.65v-3.2h-1.175v3.2h-5.5v1.1h5.5v3.75h-6.675v1.125h10.025v3.25h-9.85v1.1h9.85v7.5c0,.35-.1.475-.55.5-.4,0-1.825,0-3.55-.05a4.366,4.366,0,0,1,.425,1.15,20.386,20.386,0,0,0,3.975-.175c.65-.2.875-.6.875-1.425v-7.5h3.225v-1.1h-3.225v-3.25Z" transform="translate(148.688 20.85)" fill="#504f4f"/>
</svg>