<svg xmlns="http://www.w3.org/2000/svg" xmlns:xlink="http://www.w3.org/1999/xlink" width="250.891" height="140" viewBox="0 0 250.891 140">
  <defs>
    <clipPath id="clip-path">
      <rect id="長方形_258" data-name="長方形 258" width="250.891" height="140" fill="none"/>
    </clipPath>
  </defs>
  <g id="ml_CL_title_cotton-ring" transform="translate(0 0)">
    <g id="グループ_417" data-name="グループ 417" transform="translate(0 0)" clip-path="url(#clip-path)">
      <path id="パス_1508" data-name="パス 1508" d="M2.56,78.534A8.809,8.809,0,0,1,0,72.114V24.106a8.815,8.815,0,0,1,2.56-6.421,8.69,8.69,0,0,1,6.465-2.6h.838a8.739,8.739,0,0,1,6.513,2.557,8.871,8.871,0,0,1,2.512,6.468V41.226a1.947,1.947,0,0,1-2.142,2.139H14.888a2.077,2.077,0,0,1-2.142-2.139V24.011a2.953,2.953,0,0,0-.835-2.091,2.719,2.719,0,0,0-2.047-.883H8.933a2.719,2.719,0,0,0-2.047.883,2.953,2.953,0,0,0-.835,2.091v48.2A2.937,2.937,0,0,0,6.886,74.3a2.719,2.719,0,0,0,2.047.883h.931A2.719,2.719,0,0,0,11.91,74.3a2.937,2.937,0,0,0,.835-2.091V54.81a2.042,2.042,0,0,1,.609-1.581,2.162,2.162,0,0,1,1.533-.558h1.859a1.947,1.947,0,0,1,2.142,2.139v17.3a8.866,8.866,0,0,1-2.512,6.468,8.724,8.724,0,0,1-6.513,2.554H9.025a8.675,8.675,0,0,1-6.465-2.6" transform="translate(0 32.998)" fill="#5a4646"/>
      <path id="パス_1509" data-name="パス 1509" d="M10.829,67.263a8.841,8.841,0,0,1-2.6-6.513V29.3a8.68,8.68,0,0,1,2.6-6.468,8.809,8.809,0,0,1,6.421-2.56h.835a8.884,8.884,0,0,1,6.561,2.56,8.767,8.767,0,0,1,2.56,6.468V60.75a8.93,8.93,0,0,1-2.56,6.513,8.792,8.792,0,0,1-6.561,2.6h-.835a8.719,8.719,0,0,1-6.421-2.6m9.306-4.281a2.787,2.787,0,0,0,.838-2.05V29.208a2.952,2.952,0,0,0-.838-2.094,2.716,2.716,0,0,0-2.05-.88h-.931a2.567,2.567,0,0,0-2,.88,3.035,3.035,0,0,0-.791,2.094V60.931a2.862,2.862,0,0,0,.791,2.05,2.64,2.64,0,0,0,2,.838h.931a2.8,2.8,0,0,0,2.05-.838" transform="translate(17.994 44.363)" fill="#5a4646"/>
      <path id="パス_1510" data-name="パス 1510" d="M20.693,70.491V37.368h-2.6a1.889,1.889,0,0,1-2.142-2.139V33.647a1.891,1.891,0,0,1,2.142-2.139h2.6V17.366a1.893,1.893,0,0,1,2.142-2.139H24.69a1.9,1.9,0,0,1,2.146,2.139V31.508H31.58a1.892,1.892,0,0,1,2.139,2.139v1.581a1.889,1.889,0,0,1-2.139,2.139H26.836v33.4q0,4,4.278,4h.558q2.047,0,2.047,1.954V78.4q0,1.961-2.047,1.957h-.65q-10.329,0-10.329-9.864" transform="translate(34.896 33.318)" fill="#5a4646"/>
      <path id="パス_1511" data-name="パス 1511" d="M27.975,70.491V37.368h-2.6a1.889,1.889,0,0,1-2.142-2.139V33.647a1.891,1.891,0,0,1,2.142-2.139h2.6V17.366a1.893,1.893,0,0,1,2.142-2.139h1.859a1.894,1.894,0,0,1,2.142,2.139V31.508h4.744A1.892,1.892,0,0,1,41,33.647v1.581a1.889,1.889,0,0,1-2.139,2.139H34.118v33.4q0,4,4.278,4h.558Q41,74.772,41,76.726V78.4q0,1.961-2.047,1.957H38.3q-10.329,0-10.329-9.864" transform="translate(50.829 33.318)" fill="#5a4646"/>
      <path id="パス_1512" data-name="パス 1512" d="M33.268,67.263a8.841,8.841,0,0,1-2.6-6.513V29.3a8.68,8.68,0,0,1,2.6-6.468,8.809,8.809,0,0,1,6.421-2.56h.835a8.884,8.884,0,0,1,6.561,2.56,8.767,8.767,0,0,1,2.56,6.468V60.75a8.93,8.93,0,0,1-2.56,6.513,8.792,8.792,0,0,1-6.561,2.6h-.835a8.719,8.719,0,0,1-6.421-2.6m9.306-4.281a2.787,2.787,0,0,0,.838-2.05V29.208a2.952,2.952,0,0,0-.838-2.094,2.716,2.716,0,0,0-2.05-.88h-.931a2.567,2.567,0,0,0-2,.88,3.035,3.035,0,0,0-.791,2.094V60.931a2.862,2.862,0,0,0,.791,2.05,2.64,2.64,0,0,0,2,.838h.931a2.8,2.8,0,0,0,2.05-.838" transform="translate(67.09 44.363)" fill="#5a4646"/>
      <path id="パス_1513" data-name="パス 1513" d="M38.727,67.1V22.817a1.893,1.893,0,0,1,2.142-2.139h1.489a2.1,2.1,0,0,1,2.324,1.766l.188.469a6.37,6.37,0,0,1,2.649-2,7.828,7.828,0,0,1,2.837-.606h.376A7,7,0,0,1,55.706,22.4q2.185,2.09,2.19,6.558V67.1a1.894,1.894,0,0,1-2.142,2.139H53.985q-2.233,0-2.232-2.139V29.888a5.457,5.457,0,0,0-.606-2.837,2.457,2.457,0,0,0-2.276-.976h-.281q-3.725,0-3.72,3.813V67.1q0,2.138-2.232,2.139H40.869A1.893,1.893,0,0,1,38.727,67.1" transform="translate(84.734 44.428)" fill="#5a4646"/>
      <path id="パス_1514" data-name="パス 1514" d="M52.209,78.212V17.363a1.889,1.889,0,0,1,2.139-2.136h7.724A8.75,8.75,0,0,1,71.1,24.252v21.49a9.759,9.759,0,0,1-1.071,4.511,6.61,6.61,0,0,1-3.673,3.118l5.394,24.563a2.444,2.444,0,0,1,.1.743c0,1.116-.625,1.674-1.862,1.674H68.025A2.2,2.2,0,0,1,65.7,78.489L60.491,53.648H58.26V78.212a1.893,1.893,0,0,1-2.142,2.139H54.348a1.89,1.89,0,0,1-2.139-2.139m12-31.029a2.492,2.492,0,0,0,.743-1.906V24.064a2.847,2.847,0,0,0-2.882-2.882H58.26v26.7h4a2.735,2.735,0,0,0,1.951-.7" transform="translate(114.232 33.318)" fill="#5a4646"/>
      <path id="パス_1515" data-name="パス 1515" d="M60.541,20.217v-1.3a1.893,1.893,0,0,1,2.142-2.139h1.769q2.228,0,2.232,2.139v1.3q0,2.138-2.232,2.139H62.683a1.893,1.893,0,0,1-2.142-2.139m0,54.613V30.266a1.891,1.891,0,0,1,2.142-2.139h1.769q2.228,0,2.232,2.139V74.83q0,2.138-2.232,2.139H62.683a1.893,1.893,0,0,1-2.142-2.139" transform="translate(132.462 36.702)" fill="#5a4646"/>
      <path id="パス_1516" data-name="パス 1516" d="M64.6,67.1V22.817a1.893,1.893,0,0,1,2.142-2.139h1.489a2.1,2.1,0,0,1,2.324,1.766l.188.469a6.37,6.37,0,0,1,2.649-2,7.828,7.828,0,0,1,2.837-.606h.376A7,7,0,0,1,81.58,22.4q2.185,2.09,2.19,6.558V67.1a1.894,1.894,0,0,1-2.142,2.139H79.859q-2.233,0-2.232-2.139V29.888a5.457,5.457,0,0,0-.606-2.837,2.457,2.457,0,0,0-2.276-.976h-.281q-3.725,0-3.72,3.813V67.1q0,2.138-2.232,2.139H66.743A1.893,1.893,0,0,1,64.6,67.1" transform="translate(141.345 44.428)" fill="#5a4646"/>
      <path id="パス_1517" data-name="パス 1517" d="M75.57,81.35a9.759,9.759,0,0,1-2.42-6.841V72.465q0-2.051,1.957-2.05h1.859a1.811,1.811,0,0,1,2.047,2.05v2.6a3.1,3.1,0,0,0,3.07,3.162h.65a2.978,2.978,0,0,0,2.187-.883A3.1,3.1,0,0,0,85.8,75.07V63.437a7.072,7.072,0,0,1-2.742,2,7.857,7.857,0,0,1-2.84.606h-.37a7.076,7.076,0,0,1-4.98-2.05q-2.19-2.042-2.184-6.513V28.921q0-4.462,2.184-6.513a7.207,7.207,0,0,1,5.072-2.043h.835A6.032,6.032,0,0,1,85.8,22.6l.281-.561a2.5,2.5,0,0,1,2.42-1.67h1.208A1.89,1.89,0,0,1,91.851,22.5V74.7a9.291,9.291,0,0,1-2.512,6.653A8.351,8.351,0,0,1,83.014,84h-.561A8.853,8.853,0,0,1,75.57,81.35M85.8,56.461V29.851a4.744,4.744,0,0,0-.883-2.933,2.747,2.747,0,0,0-2.279-1.16H81.71q-2.883,0-2.882,2.789V56.461a5.421,5.421,0,0,0,.6,2.837,2.467,2.467,0,0,0,2.279.976h.373q3.716,0,3.72-3.813" transform="translate(159.04 44.557)" fill="#5a4646"/>
      <path id="パス_1518" data-name="パス 1518" d="M31.477,40.015c.465,0,.915-.019,1.384-.019.717,0,1.186.073,1.186.915,0,.539-.019,1.078-.019,1.616v6.054c0,.536.019,1.093.019,1.632,0,.558-.112.558-1.078.558-.829,0-.848-.038-.918-.376-.089-.414-.322-.414-.861-.414H25.353c-.791,0-1.849.038-2.314.038-.45,0-.43-.252-.43-1.042,0-.717-.038-.95.4-.95s1.473.051,2.33.051h6.2a.542.542,0,0,0,.539-.539V42.457a.53.53,0,0,0-.539-.539h-6.2c-.771,0-1.865.051-2.314.051-.392,0-.43-.252-.43-1.148,0-.717.07-.861.4-.861.268,0,.52.035.771.035.52.019,1.039.019,1.562.019Z" transform="translate(49.424 87.435)" fill="#5a4646"/>
      <path id="パス_1519" data-name="パス 1519" d="M29.346,41.636a12.432,12.432,0,0,1,.791,1.167,6.424,6.424,0,0,1,.771,1.415c0,.379-1.078.826-1.291.826-.182,0-.271-.163-.341-.306a17.606,17.606,0,0,0-1.294-2.168.718.718,0,0,1-.143-.325c0-.322.969-.771,1.2-.771a.384.384,0,0,1,.306.163m8.888-.29c.143.057.325.147.325.325,0,.128-.124.2-.217.268-.143.108-.159.163-.233.379a13.424,13.424,0,0,1-2.458,5.024,10.252,10.252,0,0,1-4.887,3.124,3.156,3.156,0,0,1-.555.143c-.341,0-1.007-.985-1.007-1.237,0-.2.108-.268.29-.325a8.761,8.761,0,0,0,5.566-3.787,10.368,10.368,0,0,0,1.47-4.074c.019-.163.038-.36.233-.36a12.66,12.66,0,0,1,1.473.52m-4.489.4a7.078,7.078,0,0,1,.81,1.473c0,.36-1.039.826-1.291.826-.182,0-.29-.2-.363-.341a19.682,19.682,0,0,0-1.253-2.12.583.583,0,0,1-.163-.357c0-.306.969-.752,1.2-.752.252,0,.593.5.9,1Z" transform="translate(60.909 88.547)" fill="#5a4646"/>
      <path id="パス_1520" data-name="パス 1520" d="M36.348,44.275A12.309,12.309,0,0,1,38.863,46c.252.214,1.256.988,1.256,1.291s-.845,1.24-1.2,1.24a.651.651,0,0,1-.4-.233,26.143,26.143,0,0,0-2.6-2.1.32.32,0,0,0-.179-.073c-.163,0-.217.143-.217.287v4.9c0,.717.038,1.415.038,2.136,0,.826-.019.934-1.116.934-.714,0-1.02-.019-1.02-.612,0-.807.054-1.613.054-2.423V41.115c0-.469-.035-.953-.054-1.4,0-.089-.019-.252-.019-.322,0-.179.054-.268.233-.268.112,0,.488.051.612.07.807.108,1.543.182,1.543.43a.53.53,0,0,1-.089.233,1.446,1.446,0,0,0-.2.953c0,.268.019.609.019,1.058v2.694c0,.143.092.179.143.179a.193.193,0,0,0,.163-.07c.128-.143.322-.4.52-.4" transform="translate(73.089 85.602)" fill="#5a4646"/>
      <path id="パス_1521" data-name="パス 1521" d="M49.768,43.95c0,.3-.717,1-.953,1.237a31.1,31.1,0,0,1-9.746,6.768c-.593.29-.612.306-.756.612a.181.181,0,0,1-.179.108c-.2,0-.577-.72-.7-.934a5,5,0,0,1-.539-1.078c0-.194.325-.233.558-.306a24.566,24.566,0,0,0,11-7.811.446.446,0,0,1,.306-.194c.36,0,1,1.326,1,1.6M40.5,40.985c.233.163,1.1.756,1.1,1.023,0,.414-.845,1.384-1.186,1.384a1.9,1.9,0,0,1-.717-.485,22.69,22.69,0,0,0-2.388-1.671c-.143-.089-.29-.182-.29-.338,0-.271.72-1.422,1.135-1.422a14.3,14.3,0,0,1,2.35,1.508" transform="translate(80.725 86.376)" fill="#5a4646"/>
      <path id="パス_1522" data-name="パス 1522" d="M44.434,45.424c0,.807.041,1.632.041,2.439,0,.558-.166.631-1.011.631s-1.074-.054-1.074-.539c0-.845.051-1.671.051-2.512V41.653c0-.485-.035-.953-.051-1.419,0-.108-.016-.217-.016-.325,0-.124.032-.175.156-.175.182,0,1.3.156,1.549.194.376.073.625.073.625.233a.4.4,0,0,1-.089.2,1.666,1.666,0,0,0-.2,1.042c0,.268.019.593.019,1Zm7.039-.7a27.423,27.423,0,0,1-.2,3.822,6.07,6.07,0,0,1-2.19,4.167,8.219,8.219,0,0,1-1.973,1.256c-.268,0-1.508-.9-1.508-1.218,0-.163.341-.306.488-.379,1.753-.915,2.888-1.938,3.191-3.969a22.17,22.17,0,0,0,.22-3.465V41.044a8.949,8.949,0,0,0-.057-1.24,2,2,0,0,1-.032-.306c0-.147.067-.179.21-.179a15.472,15.472,0,0,1,1.782.179c.137.035.354.054.354.217,0,.105-.07.159-.156.249a1.486,1.486,0,0,0-.131.771Z" transform="translate(92.716 86.03)" fill="#5a4646"/>
      <path id="パス_1523" data-name="パス 1523" d="M59.929,43.95c0,.3-.717,1-.953,1.237a31.1,31.1,0,0,1-9.746,6.768c-.593.29-.609.306-.756.612a.181.181,0,0,1-.179.108c-.2,0-.577-.72-.7-.934a5.005,5.005,0,0,1-.539-1.078c0-.194.328-.233.558-.306a24.566,24.566,0,0,0,11-7.811.46.46,0,0,1,.306-.194c.36,0,1,1.326,1,1.6m-9.264-2.965c.236.163,1.1.756,1.1,1.023,0,.414-.848,1.384-1.189,1.384a1.867,1.867,0,0,1-.714-.485,22.691,22.691,0,0,0-2.388-1.671c-.147-.089-.29-.182-.29-.338,0-.271.717-1.422,1.132-1.422a14.036,14.036,0,0,1,2.35,1.508" transform="translate(102.957 86.376)" fill="#5a4646"/>
      <path id="パス_1524" data-name="パス 1524" d="M61.842,42.4a3.146,3.146,0,0,0,.72-.054.7.7,0,0,1,.194-.035c.4,0,1.31,1.093,1.31,1.38a1.612,1.612,0,0,1-.214.43c-.105.2-.287.465-.465.829-1.779,3.427-3.5,6.028-6.822,8.168a11.921,11.921,0,0,1-2.445,1.275c-.411,0-1.524-.88-1.524-1.2,0-.182.233-.29.36-.344A15.817,15.817,0,0,0,59.9,47.1a11.051,11.051,0,0,0,1.38-2.621c0-.233-.3-.252-.552-.252H57.318c-.357.035-.427.035-.752.485-.325.485-2.407,2.962-2.872,2.962-.236,0-1.546-.682-1.546-1.078a.341.341,0,0,1,.163-.252A16.524,16.524,0,0,0,57.1,39.938c.07-.179.143-.43.287-.43a9.771,9.771,0,0,1,1.272.555c.108.054.182.092.233.112.22.089.539.194.539.357,0,.108-.175.182-.268.233-.214.124-.284.271-.465.593-.073.128-.143.252-.252.434a.7.7,0,0,0-.124.322c0,.179.143.268.3.287Zm3.628-.357c0,.268-.7.752-.915.752-.108,0-.163-.108-.233-.2-.36-.539-.756-1.074-1.17-1.578-.051-.07-.124-.143-.124-.233,0-.214.736-.666.934-.666a7.186,7.186,0,0,1,1.508,1.926m1.849-1.116c0,.268-.7.733-.915.733-.124,0-.182-.086-.233-.175A17.776,17.776,0,0,0,64.985,39.9a.379.379,0,0,1-.124-.217c0-.233.736-.682.931-.682a7.05,7.05,0,0,1,1.527,1.922" transform="translate(114.096 85.341)" fill="#5a4646"/>
      <path id="パス_1525" data-name="パス 1525" d="M26.138,3.363c.507-.051.791-.108.858.054.045.1-.032.21-.077.284-.159.226-.179.328-.115.768.022.105.086.488.112.555a.259.259,0,0,0,.335.153,1.178,1.178,0,0,0,.226-.153,13.8,13.8,0,0,0,1.737-1.345.9.9,0,0,1,.249-.2c.4-.163,1.049,1.046,1.074,1.113.131.316-.239.545-.622.8-.59.411-1.533,1.033-2.161,1.4a.681.681,0,0,0-.175.851.26.26,0,0,0,.354.105c.035-.013.077-.051.128-.07.319-.169.714-.389,1.046-.526,2.576-1.052,5.423-.685,6.586,2.158,1.54,3.775-2.579,7.125-3.131,7.351-.363.15-1.176-.7-1.307-1.02-.077-.182.1-.274.265-.4,1.553-1.18,3.29-3.051,2.436-5.145a2.469,2.469,0,0,0-2.633-1.7c-.252.1-.261.357-.281.6a15.962,15.962,0,0,1-.931,4.087.479.479,0,0,0-.029.4c.022.048.3.5.351.571l.035.086c.131.312-.539,1.246-.9,1.4a.329.329,0,0,1-.379-.118c-.067-.067-.134-.14-.252-.092a.433.433,0,0,0-.153.143,5.158,5.158,0,0,1-2.095,1.9A2,2,0,0,1,24,16.15c-.905-2.212.379-5.1,1.887-6.765.083-.092.427-.332.105-1.132a.286.286,0,0,0-.4-.166c-.07.026-.287.156-.354.182-.593.3-1.176.638-1.788.886-.733.3-.832.341-1.154-.44-.338-.832-.258-.921.041-1.046.281-.115.571-.214.87-.335.564-.23,1.122-.478,1.667-.759.159-.086.312-.147.389-.335a.7.7,0,0,0-.019-.516c-.153-.615-.322-1.224-.485-1.855a.273.273,0,0,1,.156-.376c.118-.048,1.023-.105,1.224-.131m-.545,11.9a.464.464,0,0,0,.666.312,4.728,4.728,0,0,0,1.613-1.747.636.636,0,0,0-.01-.6c-.061-.15-.4-.829-.606-1.342-.067-.166-.118-.341-.182-.491s-.15-.271-.312-.2c-.351.143-1.722,2.719-1.17,4.065m2.726-5.805c-.134.191.019.516.169.88l.08.2c.108.268.287.66.437.6.284-.115.411-1.562.434-1.881a.842.842,0,0,0-.01-.309c-.048-.115-.179-.1-.277-.061a2.5,2.5,0,0,0-.832.574" transform="translate(48.295 7.244)" fill="#5a4646"/>
      <path id="パス_1526" data-name="パス 1526" d="M32.013,3.373c.526.577,1.055,1.17,1.565,1.766.169.166.312.3.555.236a8.1,8.1,0,0,0,1.7-1.419,1.158,1.158,0,0,1,.4-.319c.332-.077,1.262.883,1.336,1.2.048.194-.23.424-.386.555A16.646,16.646,0,0,1,35.6,6.634c-.156.112-.258.226-.21.421a1.8,1.8,0,0,0,.453.59,19.806,19.806,0,0,0,3.437,3.242c.147.092.37.242.408.421.1.383-.612,1.361-.979,1.451a2.134,2.134,0,0,1-.874-.252,8.762,8.762,0,0,0-4.352-.44,1.758,1.758,0,0,0-1.5,2c.43,1.8,3.175,1.53,4.517,1.211.4-.1.746-.217.972-.271.363-.086.478.147.552.459a3.987,3.987,0,0,1,.08,1.106c-.051.252-.153.351-.542.446a13.967,13.967,0,0,1-3.1.312c-1.906-.022-3.81-.657-4.31-2.735a3.523,3.523,0,0,1,2.907-4.218,5.869,5.869,0,0,1,2.286-.013.383.383,0,0,0,.207.006c.105-.026.179-.1.153-.2s-.214-.281-.29-.373c-.456-.427-.874-.861-1.275-1.3-.223-.242-.44-.542-.81-.456a1.166,1.166,0,0,0-.217.092,25.449,25.449,0,0,1-4,1.655c-.347.086-.465-.019-.663-.3a4.253,4.253,0,0,1-.526-1.039c-.067-.293.1-.354.341-.427A22,22,0,0,0,31.65,6.8c.2-.105.414-.21.354-.456A13.2,13.2,0,0,0,30.187,4.53c-.089-.073-.185-.14-.207-.245-.083-.351,1.3-1.065,1.521-1.122.265-.061.344.032.513.21m7.418.073c.07.281-.5.9-.73.953-.105.026-.2-.067-.3-.153a17.615,17.615,0,0,0-1.451-1.205c-.086-.054-.179-.124-.194-.21-.051-.21.526-.807.733-.858a7.082,7.082,0,0,1,1.938,1.473m1.514-1.47c.064.265-.51.88-.72.931-.121.029-.245-.108-.532-.373-.4-.347-.8-.657-1.224-.963-.07-.057-.182-.14-.2-.226-.048-.21.545-.813.74-.861a6.751,6.751,0,0,1,1.941,1.492" transform="translate(61.069 1.06)" fill="#5a4646"/>
      <path id="パス_1527" data-name="パス 1527" d="M36.258.625a6,6,0,0,1,.851-.169c.5-.041.488.23.561.634a25.3,25.3,0,0,0,.838,3.156c.073.226.156.526.462.5a28.938,28.938,0,0,0,3.469-2.311,1.132,1.132,0,0,1,.45-.217c.233-.022.587.488.708.657a3.519,3.519,0,0,1,.615,1.042c.016.182-.175.252-.316.319a33.788,33.788,0,0,0-4.234,2.448,18.49,18.49,0,0,0-3.032,2.4,2.271,2.271,0,0,0-.73,1.69c.054.644.72,1.036,1.294,1.183a7.184,7.184,0,0,0,2.407.108,26.884,26.884,0,0,0,4.626-.88.566.566,0,0,1,.159-.032c.252-.022.332.708.367,1.087l.019.21c.045.465.045.666-.309.784a43.753,43.753,0,0,1-4.89.727,6.731,6.731,0,0,1-3.736-.443,3.166,3.166,0,0,1-1.89-2.608c-.172-1.951,1.323-3.363,2.723-4.46a.558.558,0,0,0,.261-.491.65.65,0,0,0-.1-.319c-.271-.622-.94-2.474-1.186-3.191A10.661,10.661,0,0,0,35.2,1.294a.883.883,0,0,1-.07-.207C35.1.819,35.693.765,36.258.625" transform="translate(74.244 0.99)" fill="#5a4646"/>
      <path id="パス_1528" data-name="パス 1528" d="M41.537,11.788c.025-.376.029-.736.048-1.113.041-.682.284-.826.947-.791.449.029.9.077,1.326.1l6.991.421c.43.029.861.035,1.291.064.609.035.925.163.883.842-.022.4-.064.771-.086,1.167l-.08,1.326c-.019.3.077.472.414.51.45.045.9.019,1.349.045.43.026.4.242.363.886-.045.7-.035.826-.609.791-.322-.019-.823-.086-1.629-.134L41.3,15.209c-.609-.038-1.2-.038-1.795-.073-.411-.022-.4-.239-.36-.848.038-.663.051-.861.478-.835.45.026.912.092,1.361.118.341.019.462-.15.478-.456Zm12.022-9.94c-.01.124.08.163.169.169.539.032,1.078.029,1.616.064.43.026.4.188.363.813-.035.59-.029.791-.459.762-.717-.045-1.412-.137-2.13-.182l-2.707-.163c-.233-.013-.418.083-.434.332l-.01.128a10.078,10.078,0,0,0,.316,1.387c.048.108.092.2.236.21a.311.311,0,0,0,.239-.092,9.911,9.911,0,0,0,1.068-1.269c.08-.1.137-.2.281-.2a2.863,2.863,0,0,1,.832.52c.414.312.759.567.746.743-.013.2-.281.185-.421.194-.112.01-.36.245-.743.638-.249.271-.577.615-.979.985a.555.555,0,0,0-.182.347.544.544,0,0,0,.124.351c.335.4,1.011,1.084,1.549,1.116.593.038.759-.58.966-1.361.067-.268.112-.408.418-.389.43.026,1.2.414,1.173.845a5.113,5.113,0,0,1-.724,1.827,1.731,1.731,0,0,1-1.706.832,4.677,4.677,0,0,1-3.019-1.8.5.5,0,0,0-.347-.2.583.583,0,0,0-.332.105A6.759,6.759,0,0,1,47.295,9.69c-.523-.032-1.062-.858-1.052-1.09.016-.252.328-.357.516-.437a16.944,16.944,0,0,0,1.827-1.078.5.5,0,0,0,.258-.418.523.523,0,0,0-.057-.287,12.7,12.7,0,0,1-.66-2.742c-.051-.344-.188-.44-.545-.5L43.549,2.9c-.287-.016-.418.1-.437.4l-.019.271c-.016.287.1.421.389.434l2.49.15a.691.691,0,0,1,.714.711,10.653,10.653,0,0,1-.74,3.625c-.472.638-1.709.615-2.426.571-.5-.026-.66-.092-.749-.4a2.551,2.551,0,0,1-.108-.905c.01-.194.041-.392.274-.376.287.016.606.105.893.124.663.041.937-.016,1.039-1.737.019-.287-.128-.277-.4-.293L43.4,5.406c-.325-.019-.51.077-.583.414a10.306,10.306,0,0,1-1.4,3.513c-.316.469-.532.778-.8.762-.414-.026-1.259-.65-1.237-1.011.006-.108.083-.172.143-.261a9.027,9.027,0,0,0,1.744-5.075l.041-.628c.026-.462.01-.771.026-1.1.041-.676.462-.762,1.036-.727.555.035,1.09.1,1.645.137l3.5.21c.319.019.472-.118.494-.456.006-.105-.041-.848-.035-.937.016-.252.159-.261.411-.245.287.016,1.071.137,1.412.191.249.035.606.038.59.29-.01.163-.172.22-.319.287-.188.1-.2.239-.217.545a.45.45,0,0,0,.494.494l1.865.115c.07,0,.143-.029.147-.1s-.029-.092-.064-.131c-.137-.083-.277-.143-.4-.2-.472-.245-.784-.389-.771-.567.01-.163.424-.8.695-.784.194.01,1.977.928,1.954,1.25a.714.714,0,0,1-.166.351.215.215,0,0,0-.041.105M44.808,12.11a.513.513,0,0,0-.469-.532l-.469-.026a.5.5,0,0,0-.532.469l-.07,1.2a.5.5,0,0,0,.469.532l.469.029a.516.516,0,0,0,.532-.475Zm1.559,1.3a.516.516,0,0,0,.472.532l.485.026a.5.5,0,0,0,.532-.469l.073-1.2a.506.506,0,0,0-.472-.532l-.485-.029a.518.518,0,0,0-.532.472Zm4.183.756a.5.5,0,0,0,.532-.472l.07-1.2a.494.494,0,0,0-.469-.532l-.539-.035a.518.518,0,0,0-.532.472l-.07,1.2a.5.5,0,0,0,.469.529Z" transform="translate(85.599 0.002)" fill="#5a4646"/>
      <path id="パス_1529" data-name="パス 1529" d="M53.789,1.54c.08.057.175.131.153.236a.4.4,0,0,1-.2.23c-.271.143-.265.2-.529.9-.1.293-.418,1.122-.469,1.364-.045.194.067.274.21.363a1.284,1.284,0,0,1,.418.94c-.016.067-.1.124-.147.166-.115.105-.583.647-.666.756a1.375,1.375,0,0,0-.1.274c-.019.086,0,.182.1.2a.256.256,0,0,0,.163-.054c.456-.306,1.294-.781,1.795-1.039A4.238,4.238,0,0,1,57.334,5.2,1.939,1.939,0,0,1,58.67,6.306a3.274,3.274,0,0,1-.051,1.734c-.207.912-.443,1.814-.695,2.7-.2.746-.43,1.521-.6,2.26-.092.421-.245,1.03.156,1.119.475.105,1.4-.481,1.792-.762a.506.506,0,0,1,.373-.118c.3.064.513,1.5.45,1.776-.051.245-.8.555-1.027.654a4.637,4.637,0,0,1-2.7.465c-1.47-.325-1.234-2.056-.988-3.162.351-1.578.934-3.124,1.285-4.7.086-.386.223-1-.3-1.116a2.688,2.688,0,0,0-1.524.4,17.985,17.985,0,0,0-2.289,1.272,6.011,6.011,0,0,0-1.231.9c-.121.217-.526,2.369-.618,2.774-.022.105-.1.638-.153.937-.124.727-.284,1.686-.325,1.878-.026.121-.048.3-1.345.013-.421-.092-.736-.163-.657-.513.035-.159.574-2.079.746-2.866.019-.089.016-.239-.105-.265s-.306.207-.539.43c-.261.274-1.017,1.1-1.266,1.393-.077.092-.169.185-.274.159-.3-.067-1.125-1.151-1.055-1.447.032-.159.373-.453.488-.555,1.256-1.173,2.4-2.429,3.526-3.7a1.647,1.647,0,0,0,.4-.778c.035-.156.108-.309.137-.45a.234.234,0,0,0-.169-.312.994.994,0,0,0-.335.016,12.177,12.177,0,0,1-2.283.249c-.281-.061-.36-.357-.4-.6a5.655,5.655,0,0,1-.1-1.275c.064-.284.43-.2.647-.185.542.045,2.856.156,3.159-.22A1.153,1.153,0,0,0,51,3.9c.105-.472.411-1.508.583-2.279.045-.21.073-.424.1-.545.041-.194.143-.23.332-.185s1.607.561,1.769.65" transform="translate(100.053 1.91)" fill="#5a4646"/>
      <path id="パス_1530" data-name="パス 1530" d="M63.684,5.066a3.982,3.982,0,0,1,2.388,5.263c-1.565,3.975-7.791,7.348-11.158,8.534-1.795-3.427-3.848-10.023-2.356-13.817A3.97,3.97,0,0,1,57.9,2.79a3.82,3.82,0,0,1,2.3,2.627,3.83,3.83,0,0,1,3.478-.351m-6-1.683a3.423,3.423,0,0,0-4.479,1.884c-1.814,4.594,1.9,12.519,2.028,12.781.255-.1,8.391-3.376,10.2-7.967a3.434,3.434,0,0,0-2-4.434,3.619,3.619,0,0,0-3.676.905,3.635,3.635,0,0,0-2.075-3.169" transform="translate(113.87 5.392)" fill="#5a4646"/>
    </g>
  </g>
</svg>
