<?xml version="1.0" encoding="UTF-8"?>
<svg xmlns="http://www.w3.org/2000/svg" version="1.1" viewBox="0 0 18.4099998 4.8000002">
  <defs>
    <style>
      .cls-1, .cls-2 {
        fill: #5f5f5f;
      }

      .cls-2 {
        stroke: #5f5f5f;
        stroke-linecap: round;
        stroke-linejoin: round;
        stroke-width: .05px;
      }
    </style>
  </defs>
  <!-- Generator: Adobe Illustrator 28.6.0, SVG Export Plug-In . SVG Version: 1.2.0 Build 709)  -->
  <g>
    <g id="_レイヤー_2">
      <g id="lay">
        <g>
          <g>
            <path class="cls-2" d="M.13,4.5500002v-1.9099998c0-.0799999-.03-.1199999-.1-.2h.63c.7900001,0,1.34.3900001,1.34,1.1499999s-.54,1.1500001-1.34,1.1500001H.03c.08-.0799999.1-.1199999.1-.1999998v.0099998ZM.58,4.71c.73,0,1.23-.3800001,1.23-1.1100001s-.5-1.1100001-1.23-1.1100001h-.27v2.21h.27v.0100002Z"/>
            <path class="cls-2" d="M3.1900001,2.98c.54,0,.9200001.3399999.9200001.9000001s-.3800001.9000001-.9200001.9000001-.9200001-.3400002-.9200001-.9000001.3800001-.9000001.9200001-.9000001ZM3.1900001,4.73c.4300001,0,.74-.3299999.74-.8600001s-.3-.8600001-.74-.8600001-.74.3299999-.74.8600001.3.8600001.74.8600001Z"/>
            <path class="cls-2" d="M4.46,4.5500002v-1.9099998c0-.1099999-.0300002-.1400001-.0700002-.1400001-.0300002,0-.0700002.03-.0999999.05v-.03c.0799999-.0799999.1999998-.1900001.27-.1900001.0599999,0,.0700002.05.0700002.2v2.0300002c0,.0799999.0300002.1199999.0999999.1999998h-.3800001c.0799999-.0799999.0999999-.1199999.0999999-.1999998l.0100002-.0100002Z"/>
            <path class="cls-2" d="M5.0799999,4.5500002v-1.9099998c0-.1099999-.0300002-.1400001-.0700002-.1400001-.0300002,0-.0700002.03-.0999999.05v-.03c.0799999-.0799999.1999998-.1900001.27-.1900001.0599999,0,.0700002.05.0700002.2v2.0300002c0,.0799999.0300002.1199999.0999999.1999998h-.3800001c.0799999-.0799999.0999999-.1199999.0999999-.1999998l.0100002-.0100002Z"/>
            <path class="cls-2" d="M5.75,4.5500002v-1.25c0-.1099999-.0300002-.1400001-.0700002-.1400001-.0300002,0-.0700002.03-.0999999.05v-.03c.0799999-.0799999.1999998-.1900001.27-.1900001.0599999,0,.0700002.05.0700002.2v1.3699999c0,.0799999.0300002.1199999.0999999.1999998h-.3800001c.0799999-.0799999.0999999-.1199999.0999999-.1999998l.0100002-.0099998ZM5.8000002,2.4200001c.0900002,0,.1500001.05.1500001.1400001s-.0599999.1400001-.1500001.1400001-.1500001-.05-.1500001-.1400001.0599999-.1400001.1500001-.1400001Z"/>
            <path class="cls-2" d="M7.29,3.1800001l.04.4200001h-.04c-.0700002-.28-.1999998-.5799999-.4499998-.5799999-.1700001,0-.2800002.1500001-.2800002.3199999,0,.45.8600001.53.8600001,1.04,0,.27-.23.4000001-.52.4000001-.3400002,0-.4900002-.1599998-.54-.1999998l-.0700002-.46h.0300002c.1100001.2800002.3299999.6199999.5999999.6199999.1799998,0,.3200002-.1500001.3200002-.3299999,0-.4300001-.8499999-.51-.8499999-1.03,0-.25.1999998-.3900001.4499998-.3900001.29,0,.4099998.1600001.4499998.2v-.0100002Z"/>
            <path class="cls-2" d="M7.7600002,4.5500002v-1.79c0-.3299999.1599998-.4400001.3299999-.4400001.29,0,.3500004.3800001.1400003.73.0600004-.04.1199999-.0699999.1999998-.0699999.1800003,0,.3400002.1400001.3400002.48v1.0899999c0,.0799999.0299997.1199999.1000004.1999998h-.3800001c.0799999-.0799999.1000004-.1199999.1000004-.1999998v-.9300001c0-.28-.0200005-.6000001-.2200003-.6000001-.21,0-.3699999.3499999-.4499998.5899999v.9300001c0,.0799999.0300002.1199999.1000004.1999998h-.3800001c.0799999-.0799999.0999999-.1199999.0999999-.1999998l.019999.0100002ZM8.1499996,3.1300001c.29-.4100001.1899996-.76-.0299997-.76-.1799998,0-.1799998.25-.1799998.52v.6600001c.04-.1400001.1100001-.3099999.2099996-.4200001Z"/>
            <path class="cls-2" d="M10.3000002,4.5500002v-1.9099998c0-.0799999-.0299997-.1199999-.1000004-.2h.4200001c.5799999,0,.7799997.1800001.7799997.45,0,.3299999-.3199997.4300001-.6499996.47.4499998.05.8599997.1500001.8599997.6699998,0,.4400001-.2299995.7199998-.9899998.7199998h-.4200001c.0799999-.0799999.1000004-.1199999.1000004-.1999998ZM10.5600004,3.3399999c.2700005,0,.6599998-.0999999.6599998-.45,0-.24-.1599998-.4000001-.6700001-.4000001h-.0699997v.8499999s.0799999,0,.0799999.0000002ZM10.54,4.71c.6899996,0,.8800001-.3099999.8800001-.6700001,0-.49-.4899998-.6500001-.8699999-.6500001h-.0799999v1.3200002h.0699997Z"/>
            <path class="cls-2" d="M12.8699999,3.1800001l.04.52h-.04c-.0699997-.3799999-.1800003-.6700001-.3199997-.6700001-.1599998,0-.29.4200001-.3599997.73v.7900002c0,.0799999.0299997.1199999.1000004.1999998h-.3800001c.0799999-.0799999.1000004-.1199999.1000004-.1999998v-1.25c0-.1099999-.0299997-.1400001-.0699997-.1400001-.0299997,0-.0699997.03-.1000004.05v-.03c.0799999-.0799999.1999998-.1900001.2700005-.1900001.0500002,0,.0699997.05.0699997.2v.4200001c.0699997-.3099999.1899996-.6300001.3800001-.6300001.1199999,0,.25.1300001.29.2h.0199986Z"/>
            <path class="cls-2" d="M14.0500002,2.98c.54,0,.9200001.3399999.9200001.9000001s-.3800001.9000001-.9200001.9000001-.9200001-.3400002-.9200001-.9000001.3800001-.9000001.9200001-.9000001ZM14.0500002,4.73c.4300003,0,.7399998-.3299999.7399998-.8600001s-.3000002-.8600001-.7399998-.8600001-.7399998.3299999-.7399998.8600001.3000002.8600001.7399998.8600001Z"/>
            <path class="cls-2" d="M16.0499992,3l.3500004,1.4299998.2900009-1.24c.0200005-.0799999,0-.1199999-.0499992-.2h.25c-.0900002.0799999-.1299992.1199999-.1599998.2l-.3799992,1.5699999h-.0400009l-.3599997-1.3899999-.3299999,1.3899999h-.04l-.4099998-1.5700002c-.0200005-.0799999-.0799999-.1199999-.1499996-.2h.3900003c-.0799999.0799999-.0799999.1199999-.0600004.2l.3000002,1.2399998.3400002-1.4299998h.04l.0199966.0000005Z"/>
            <path class="cls-2" d="M17.2700005,4.5500002v-1.25c0-.1099999-.0300007-.1400001-.0699997-.1400001-.0300007,0-.0699997.03-.1000004.05v-.03c.0799999-.0799999.2000008-.1900001.2700005-.1900001.0499992,0,.0699997.05.0699997.2v.3600001c.0799999-.24.2199993-.5699999.5-.5699999.1800003,0,.3400002.1400001.3400002.48v1.0899999c0,.0799999.0300007.1199999.1000004.1999998h-.3799992c.0799999-.0799999.1000004-.1199999.1000004-.1999998v-.9300001c0-.28-.0200005-.6000001-.2199993-.6000001-.2099991,0-.3700008.3499999-.4500008.5899999v.9300001c0,.0799999.0300007.1199999.1000004.1999998h-.3799992c.0799999-.0799999.1000004-.1199999.1000004-.1999998l.0199966.0100002Z"/>
          </g>
          <g>
            <path class="cls-1" d="M.41.9v.41h.01v.04c-.01,0-.07.02-.13.02-.05,0-.06,0-.06-.03h0v-.66C.23.3399999.23.2399999.21.1499999c.11,0,.16.01.2.02.02,0,.02.01.02.02v.03c0,.02,0,.04-.01.06v.27c.0733333.02.13.0366666.17.05.15.05.24.09.37.16.01,0,.02.02.02.03,0,.02-.03.09-.05.13-.01.03-.02.03-.03.03,0,0-.01,0-.02-.01-.15-.1-.3-.17-.45-.21v.17h-.0200001ZM.79.44c-.03-.05-.07-.1-.11-.15v-.01s0-.02.04-.04c.02-.02.03-.02.04-.02.01,0,.03.01.06.05.05.05.08.1.08.11,0,.02-.07.07-.09.07l-.01-.01h-.0100001ZM1,.32s-.03.02-.04.02l-.02-.01c-.04-.06-.07-.1-.11-.15v-.01c0-.01.06-.05.08-.05,0,0,.02,0,.03.02.05.04.11.13.11.14,0,0-.01.02-.04.04h-.01Z"/>
            <path class="cls-1" d="M1.85.65c.2700001,0,.4299999,0,.58-.01h.02s.04,0,.04.12c0,.06,0,.07-.03.07h-1.1099999c-.02,0-.03,0-.03-.02,0-.04-.01-.11-.01-.18.12.01.23.02.5399998.02Z"/>
            <path class="cls-1" d="M3.1300001.61v.19c0,.03-.02.04-.1400001.04-.04,0-.05,0-.05-.03v-.32c0-.17,0-.24-.02-.32.0799999,0,.1500001,0,.1800001.01.02,0,.03.02.03.03v.02c-.01.03-.01.06-.01.13v.25h.01ZM3.71.42c0,.21-.01.35-.04.46-.05.1899999-.1700001.34-.3499999.4399999-.04.02-.0699999.03-.0799999.03s-.02,0-.03-.02c-.04-.04-.0599999-.0700001-.1099999-.1.0999999-.04.1800001-.09.24-.15.0799999-.08.1299999-.17.1500001-.27.02-.09.03-.25.03-.42,0-.12,0-.18-.01-.24.0899999,0,.1400001,0,.1900001.02.02,0,.03.01.03.03v.03c-.01.03-.01.06-.01.13v.06h-.0100005Z"/>
            <path class="cls-1" d="M4.27.85c-.02-.06-.0700002-.15-.0900002-.18-.0300002-.05-.04-.05-.04-.06s.02-.03.0599999-.05q.0500002-.03.0599999-.03c.0100002,0,.02,0,.04.04.0500002.06.1199999.2.1199999.22,0,.01-.0100002.02-.04.04-.04.02-.0799999.04-.0900002.04s-.0100002,0-.02-.03l.0000005.0099999ZM5.0900002.59v.02c-.0100002.02-.02.03-.04.08-.1100001.24-.1799998.35-.3000002.47-.0900002.09-.23.1899999-.2600002.1899999,0,0-.02,0-.0300002-.01-.0300002-.03-.0700002-.0599999-.1199999-.09.23-.12.3499999-.24.46-.44.0599999-.11.0999999-.23.0999999-.31.1199999.03.1900001.07.1900005.0900001ZM4.5500002.78c-.02-.06-.0599999-.15-.1100001-.23v-.02c0-.01.0100002-.02.0599999-.04q.0599999-.03.0700002-.03c.0100002,0,.02,0,.04.04.0500002.08.1100001.2.1100001.22,0,0,0,.02-.0300002.03-.0300002.02-.0900002.05-.0999999.05,0,0-.0100002,0-.02-.02h-.02Z"/>
            <path class="cls-1" d="M5.7800002.78s-.0300002.04-.04.04c-.0066667,0-.0333333-.0133333-.0799999-.04-.0500002-.03-.1199999-.07-.23-.1-.02,0-.0300002-.01-.0300002-.03,0,0,.0100002-.03.04-.07,0-.01.0100002-.02.0100002-.03.02-.03.02-.04.04-.04.0300002,0,.1399999.04.2199998.08.0500002.02.0999999.06.1100001.06v.02c0,.02-.02.06-.0599999.11h.02ZM6.5500002.61v.03c0,.02,0,.03-.04.06-.1199999.14-.25.25-.4099998.35-.1300001.09-.2800002.17-.4299998.23-.04.02-.0599999.03-.0700002.04s-.02.01-.0300002.01c-.0300002,0-.0799999-.08-.1199999-.2.1500001-.03.3200002-.1.4900002-.2.1100001-.06.2399998-.16.3299999-.25.0799999-.08.1300001-.13.2199998-.25,0,.07.02.09.0500002.17l.0099998.0100001ZM5.9299998.49s-.0300002.03-.04.03c0,0-.0100002,0-.02-.01-.0900002-.08-.1799998-.14-.2800002-.18-.0100002,0-.02-.01-.02-.02v-.02q.0700002-.11.0900002-.11c.0300002,0,.1599998.06.2399998.12.0700002.05.0900002.06.0900002.08,0,.02-.04.08-.0700002.12l.0100002-.0099999Z"/>
            <path class="cls-1" d="M7.0999999.73h-.1300001c-.0100002,0-.02,0-.0300002-.02,0-.03-.0100002-.08-.0100002-.15.0500002.01.1399999.02.3099999.02.1399999,0,.1500001,0,.1799998-.01h.02c.0300002,0,.0500002.01.0900002.05.0300002.03.0500002.06.0500002.07,0,0,0,.01-.0100002.03-.0066671.0133333-.02.07-.04.17-.02.1199999-.0300002.17-.04.22q-.0066662.0333333,0,0h.2199998s.0300002.01.0300002.09c0,.0599999,0,.0700001-.02.0700001h-.4200001c-.23,0-.4099998,0-.4699998.01h-.0100002s-.0300002,0-.04-.02c0-.02-.0100002-.0599999-.02-.15.1100001,0,.1500001.01.5599999.01v-.03c.02-.09.04-.22.0500002-.35h-.2599998l-.0099998-.0100001Z"/>
            <path class="cls-1" d="M8.4700003.44c-.2700005,0-.46.01-.5100002.02h0c-.0300002,0-.04-.05-.04-.2.0700002.01.1700001.02.3900003.02h.4700003c.0299997,0,.04,0,.0600004-.02h.0200005c.0299997,0,.0600004.02.1099997.08q.0299997.04.0299997.06c0,.01,0,.02-.0100002.03-.0100002.02-.0200005.02-.0500002.13-.0799999.26-.25.5-.4799995.6800001-.0900002.0700001-.1700001.12-.1999998.12q-.0200005,0-.0500002-.04c-.04-.04-.0699997-.0599999-.1099997-.09.2200003-.11.3400002-.2.46-.35.1000004-.13.1700001-.27.1999998-.44-.0799999,0-.1766663,0-.2900009,0ZM9.1199999.28s-.0500002.04-.0600004.04c-.0066671,0-.0199995-.0133334-.04-.04-.0299997-.04-.0600004-.09-.0900002-.12v-.01c0-.01.0600004-.05.0699997-.05.0100002,0,.0299997.02.0799999.07.04.05.0699997.09.0699997.1s0,.02-.0200005.03l-.0099983-.02ZM9.1800003.21c-.04-.06-.0699997-.1-.1099997-.14v-.01s0-.02.0299997-.03c.0200005-.02.0299997-.02.04-.02.0200005,0,.0600004.04.1099997.1.0200005.03.0299997.05.0299997.06,0,0,0,.02-.0200005.03-.0200005.02-.0500002.03-.0500002.03,0,0-.0100002,0-.0200005-.02h-.0099983Z"/>
            <path class="cls-1" d="M9.4399996.7h-.0100002c-.0299997,0-.0500002-.05-.0600004-.21.0699997.01.1800003.02.46.02h.4099998c.0200005,0,.0299997,0,.0600004-.01h.0299997c.0200005,0,.04.01.0600004.04.04.05.0699997.09.0699997.11,0,.02,0,.03-.0299997.05-.0100002.01-.0200005.02-.0500002.09-.1000004.22-.21.36-.3900003.47-.0799999.05-.21.11-.2399998.11-.0200005,0-.0299997,0-.0600004-.04-.04-.05-.0600004-.0599999-.1000004-.08.1700001-.05.3299999-.14.4399996-.24.0799999-.08.1499996-.19.1899996-.32-.5699997,0-.6700001.01-.7799997.03l.0000019-.0200001ZM9.9300003.17c.1066666,0,.2166662-.0033333.3299999-.01h.0200005s.0299997.02.0299997.06v.05h0c0,.06,0,.07-.0299997.07h-.2199993c-.2200003,0-.3900003,0-.4700003.01h-.0100002s-.04-.02-.0500002-.19c.1000004.01.1899996.02.4099998.02l-.0100002-.01Z"/>
            <path class="cls-1" d="M11.21.3c0-.08,0-.13-.0100002-.19.1099997,0,.1700001,0,.1999998.02.0100002,0,.0200005.01.0200005.02v.03c-.0100002.02-.0200005.05-.0200005.12v.05h.1899996s.0799999,0,.1099997-.02h.04c.0299997,0,.0699997.03.1199999.09.0299997.03.0299997.04.0299997.06,0,.01,0,.02-.0100002.04-.0100002.03-.0200005.04-.04.12-.0299997.14-.0600004.21-.1199999.31-.1000004.17-.2399998.3-.4200001.39-.04.02-.0699997.03-.0799999.03s-.0200005,0-.0299997-.02c-.0299997-.03-.0600004-.0599999-.1199999-.1.1199999-.05.1800003-.08.25-.13.1499996-.1.2399998-.23.3000002-.4.0299997-.08.04-.13.04-.2h-.71c.000001.0599999.000001.0966667,0,.11v.13h0s0,.03-.0200005.03h-.1000004c-.0600004,0-.0699997,0-.0699997-.03v-.41h.4300003v-.04l.0200014-.0100001Z"/>
            <path class="cls-1" d="M13.2600002.53l.0100002.03c0,.02,0,.03-.0299997.05-.0799999.11-.1700001.19-.3000002.3-.1499996.12-.2799997.1899999-.46.28-.1199999.05-.1199999.0599999-.1400003.0700001-.0100002.01-.0200005.02-.0299997.02-.0100002,0-.0299997-.01-.0500002-.04-.0299997-.05-.0600004-.11-.0699997-.16.1499996-.03.3299999-.12.5100002-.23.2299995-.15.3800001-.29.4899998-.49.0200005.06.0299997.09.0699997.16v.01ZM12.2600002.28s.04-.04.0500002-.04c.0299997,0,.1400003.07.2299995.15.0600004.05.0799999.07.0799999.08,0,.01-.0299997.05-.0600004.09-.0299997.04-.0500002.05-.0600004.05-.0066671,0-.0300007-.02-.0699997-.06-.0599995-.06-.1199999-.1-.1599998-.12-.0333328-.02-.0533333-.0333333-.0600004-.04-.0100002-.01,0,0,0-.01s.0299997-.06.0699997-.1h-.0199986Z"/>
          </g>
        </g>
      </g>
    </g>
  </g>
</svg>