<?xml version="1.0" encoding="UTF-8"?><svg id="_イヤー_2" xmlns="http://www.w3.org/2000/svg" viewBox="0 0 629.98 300.99"><defs><style>.cls-1{fill:#fff;}.cls-2{fill:none;stroke:#fff;stroke-miterlimit:10;stroke-width:1.98px;}</style></defs><g id="photogallery"><path class="cls-2" d="M628.99,0h0c0,165-135,300-300,300h-28C135.99,300,.99,165,.99,0H.99"/><path class="cls-1" d="M334.29,196.67c-18.49,.44-18.85,.8-19.3,19.3-.44-18.49-.8-18.85-19.3-19.3,18.49-.44,18.85-.8,19.3-19.3,.44,18.49,.8,18.85,19.3,19.3Z"/><g><path class="cls-1" d="M182.72,102.86c-.32,.22-.77,.46-1.32,.73-.56,.27-1.21,.5-1.96,.67s-1.57,.27-2.47,.27c-1.49-.02-2.85-.29-4.06-.81s-2.25-1.23-3.1-2.13c-.86-.9-1.51-1.94-1.96-3.12-.45-1.18-.68-2.43-.68-3.77,0-1.46,.23-2.8,.7-4.04,.47-1.23,1.14-2.3,2.01-3.21,.87-.91,1.9-1.62,3.08-2.12,1.18-.5,2.47-.76,3.87-.76,1.17,0,2.23,.16,3.19,.47,.95,.32,1.77,.68,2.46,1.09l-1.05,2.48c-.54-.38-1.2-.73-1.97-1.05s-1.62-.49-2.54-.49-1.85,.19-2.7,.57c-.85,.38-1.59,.91-2.24,1.59-.65,.68-1.16,1.48-1.53,2.38-.37,.9-.55,1.88-.55,2.94s.17,2.02,.5,2.93,.81,1.7,1.43,2.38,1.37,1.2,2.25,1.58,1.87,.57,2.97,.57c.99,0,1.87-.15,2.65-.46,.77-.31,1.41-.65,1.92-1.03l1.11,2.32Z"/><path class="cls-1" d="M189.15,94.57c0-1.35,.26-2.63,.77-3.83,.51-1.21,1.23-2.27,2.15-3.2s1.98-1.65,3.17-2.17c1.2-.52,2.49-.78,3.87-.78s2.63,.26,3.83,.78c1.21,.52,2.27,1.25,3.2,2.17s1.65,1.99,2.17,3.2c.52,1.21,.78,2.49,.78,3.86s-.26,2.66-.78,3.86c-.52,1.21-1.24,2.26-2.16,3.17s-1.98,1.62-3.19,2.13c-1.21,.51-2.49,.77-3.86,.77s-2.68-.25-3.87-.76c-1.2-.5-2.25-1.21-3.17-2.12s-1.63-1.96-2.15-3.16c-.51-1.2-.77-2.51-.77-3.93Zm2.7,0c0,1.04,.18,2.01,.55,2.9,.37,.89,.89,1.68,1.57,2.36,.67,.68,1.45,1.22,2.32,1.61,.87,.39,1.82,.58,2.85,.58s1.98-.19,2.85-.58c.87-.39,1.64-.92,2.29-1.59,.66-.67,1.17-1.46,1.55-2.36,.38-.9,.57-1.86,.57-2.89s-.19-2.02-.57-2.92c-.38-.9-.9-1.7-1.55-2.39-.66-.69-1.43-1.23-2.32-1.62-.89-.39-1.84-.58-2.85-.58s-1.98,.2-2.88,.59c-.89,.4-1.67,.94-2.32,1.62-.66,.68-1.17,1.48-1.53,2.39-.36,.91-.54,1.87-.54,2.88Z"/><path class="cls-1" d="M216.74,84.8h2.62v17.01h9.91v2.51h-12.53v-19.52Z"/><path class="cls-1" d="M235.56,94.57c0-1.35,.26-2.63,.77-3.83,.51-1.21,1.23-2.27,2.15-3.2s1.98-1.65,3.17-2.17c1.2-.52,2.49-.78,3.87-.78s2.63,.26,3.83,.78c1.21,.52,2.27,1.25,3.2,2.17s1.65,1.99,2.17,3.2c.52,1.21,.78,2.49,.78,3.86s-.26,2.66-.78,3.86c-.52,1.21-1.24,2.26-2.16,3.17s-1.98,1.62-3.19,2.13c-1.21,.51-2.49,.77-3.86,.77s-2.68-.25-3.87-.76c-1.2-.5-2.25-1.21-3.17-2.12s-1.63-1.96-2.15-3.16c-.51-1.2-.77-2.51-.77-3.93Zm2.7,0c0,1.04,.18,2.01,.55,2.9,.37,.89,.89,1.68,1.57,2.36,.67,.68,1.45,1.22,2.32,1.61,.87,.39,1.82,.58,2.85,.58s1.98-.19,2.85-.58c.87-.39,1.64-.92,2.29-1.59,.66-.67,1.17-1.46,1.55-2.36,.38-.9,.57-1.86,.57-2.89s-.19-2.02-.57-2.92c-.38-.9-.9-1.7-1.55-2.39-.66-.69-1.43-1.23-2.32-1.62-.89-.39-1.84-.58-2.85-.58s-1.98,.2-2.88,.59c-.89,.4-1.67,.94-2.32,1.62-.66,.68-1.17,1.48-1.53,2.39-.36,.91-.54,1.87-.54,2.88Z"/><path class="cls-1" d="M268.34,84.8c.99,0,1.9,.13,2.74,.39,.84,.26,1.57,.65,2.19,1.16,.62,.51,1.11,1.15,1.46,1.9,.35,.76,.53,1.62,.53,2.59,0,.77-.11,1.53-.34,2.27-.23,.74-.59,1.41-1.11,2.01-.51,.6-1.19,1.09-2.02,1.46s-1.88,.55-3.12,.55h-2.89v7.18h-2.62v-19.52h5.18Zm.27,9.8c.77,0,1.42-.12,1.93-.35,.51-.23,.91-.54,1.2-.9,.29-.37,.49-.76,.62-1.17,.13-.41,.19-.82,.19-1.21s-.07-.8-.2-1.21c-.13-.41-.35-.81-.65-1.17-.3-.37-.68-.67-1.16-.9-.48-.23-1.06-.35-1.74-.35h-3.02v7.29h2.84Zm3.21,1.51l5.1,8.21h-3.02l-5.21-8.13,3.13-.08Z"/><path class="cls-1" d="M301.14,97.81l-7.24-13.01h3.21l5.8,10.77-.81,.05,5.75-10.83h3.19l-7.29,13.01v6.51h-2.62v-6.51Z"/><path class="cls-1" d="M316.64,94.57c0-1.35,.26-2.63,.77-3.83,.51-1.21,1.23-2.27,2.15-3.2s1.98-1.65,3.17-2.17c1.2-.52,2.49-.78,3.87-.78s2.63,.26,3.83,.78c1.21,.52,2.27,1.25,3.2,2.17,.93,.93,1.65,1.99,2.17,3.2s.78,2.49,.78,3.86-.26,2.66-.78,3.86c-.52,1.21-1.24,2.26-2.16,3.17s-1.98,1.62-3.19,2.13c-1.21,.51-2.49,.77-3.86,.77s-2.68-.25-3.87-.76c-1.2-.5-2.25-1.21-3.17-2.12s-1.63-1.96-2.15-3.16c-.51-1.2-.77-2.51-.77-3.93Zm2.7,0c0,1.04,.18,2.01,.55,2.9,.37,.89,.89,1.68,1.57,2.36,.67,.68,1.45,1.22,2.32,1.61,.87,.39,1.82,.58,2.85,.58s1.97-.19,2.85-.58c.87-.39,1.64-.92,2.29-1.59s1.17-1.46,1.55-2.36c.38-.9,.57-1.86,.57-2.89s-.19-2.02-.57-2.92c-.38-.9-.89-1.7-1.55-2.39-.66-.69-1.43-1.23-2.32-1.62-.89-.39-1.84-.58-2.85-.58s-1.98,.2-2.88,.59-1.67,.94-2.32,1.62c-.66,.68-1.17,1.48-1.53,2.39-.36,.91-.54,1.87-.54,2.88Z"/><path class="cls-1" d="M346.58,97.4c0,.88,.21,1.67,.63,2.36,.42,.69,.99,1.24,1.7,1.63,.71,.4,1.5,.59,2.36,.59,.92,0,1.74-.2,2.46-.59,.72-.4,1.28-.94,1.69-1.63,.4-.69,.61-1.48,.61-2.36v-12.61h2.59v12.69c0,1.42-.32,2.66-.97,3.73-.65,1.06-1.53,1.88-2.65,2.46-1.12,.58-2.36,.86-3.73,.86s-2.58-.29-3.7-.86c-1.12-.58-2-1.39-2.65-2.46-.65-1.06-.97-2.3-.97-3.73v-12.69h2.62v12.61Z"/><path class="cls-1" d="M372.39,84.8c.99,0,1.9,.13,2.74,.39,.84,.26,1.57,.65,2.19,1.16,.62,.51,1.11,1.15,1.46,1.9,.35,.76,.53,1.62,.53,2.59,0,.77-.11,1.53-.34,2.27-.23,.74-.59,1.41-1.11,2.01-.51,.6-1.19,1.09-2.03,1.46s-1.88,.55-3.12,.55h-2.89v7.18h-2.62v-19.52h5.18Zm.27,9.8c.77,0,1.42-.12,1.93-.35,.51-.23,.91-.54,1.2-.9,.29-.37,.5-.76,.62-1.17,.13-.41,.19-.82,.19-1.21s-.07-.8-.2-1.21c-.13-.41-.35-.81-.65-1.17-.3-.37-.68-.67-1.16-.9-.48-.23-1.06-.35-1.74-.35h-3.02v7.29h2.84Zm3.21,1.51l5.1,8.21h-3.02l-5.21-8.13,3.13-.08Z"/><path class="cls-1" d="M398.34,88.28c-.67-.34-1.39-.64-2.19-.89s-1.57-.38-2.32-.38c-1.04,0-1.88,.24-2.5,.73s-.93,1.13-.93,1.94c0,.61,.2,1.13,.61,1.55,.4,.42,.93,.79,1.57,1.09,.64,.31,1.32,.59,2.04,.86,.59,.22,1.19,.47,1.78,.77s1.13,.66,1.61,1.09c.48,.43,.86,.96,1.13,1.59s.42,1.4,.42,2.32c0,1.04-.26,1.99-.77,2.83-.51,.85-1.25,1.51-2.2,2-.95,.49-2.1,.73-3.43,.73-.85,0-1.66-.09-2.44-.28-.78-.19-1.51-.45-2.17-.77s-1.26-.66-1.78-1l1.16-2.05c.43,.31,.93,.6,1.49,.88,.56,.28,1.14,.5,1.75,.66,.61,.16,1.21,.24,1.78,.24,.63,0,1.24-.11,1.84-.32,.59-.22,1.09-.56,1.49-1.03,.39-.47,.59-1.09,.59-1.86,0-.65-.18-1.2-.53-1.65-.35-.45-.81-.83-1.38-1.15-.57-.31-1.18-.6-1.85-.85-.63-.22-1.25-.47-1.88-.76s-1.2-.63-1.73-1.04c-.53-.4-.96-.9-1.3-1.5-.33-.59-.5-1.31-.5-2.16,0-1.03,.25-1.92,.74-2.69,.49-.76,1.17-1.37,2.04-1.81,.87-.44,1.85-.68,2.97-.72,1.26,0,2.37,.15,3.33,.46,.96,.31,1.81,.67,2.55,1.11l-1,2.03Z"/><path class="cls-1" d="M407.2,84.8h12.69v2.51h-10.07v5.94h8.99v2.54h-8.99v6.02h10.45v2.51h-13.07v-19.52Z"/><path class="cls-1" d="M428.04,84.8h2.62v17.01h9.91v2.51h-12.53v-19.52Z"/><path class="cls-1" d="M448.07,84.8h11.58v2.51h-8.96v6.21h7.86v2.51h-7.86v8.29h-2.62v-19.52Z"/><path class="cls-1" d="M183.48,124.8h12.99v2.51h-5.24v17.01h-2.62v-17.01h-5.13v-2.51Z"/><path class="cls-1" d="M202.65,134.57c0-1.35,.26-2.63,.77-3.83,.51-1.21,1.23-2.27,2.15-3.2s1.98-1.65,3.17-2.17c1.2-.52,2.49-.78,3.87-.78s2.63,.26,3.83,.78c1.21,.52,2.27,1.25,3.2,2.17s1.65,1.99,2.17,3.2c.52,1.21,.78,2.49,.78,3.86s-.26,2.66-.78,3.86c-.52,1.21-1.24,2.26-2.16,3.17s-1.98,1.62-3.19,2.13c-1.21,.51-2.49,.77-3.86,.77s-2.68-.25-3.87-.76c-1.2-.5-2.25-1.21-3.17-2.12s-1.63-1.96-2.15-3.16c-.51-1.2-.77-2.51-.77-3.93Zm2.7,0c0,1.04,.18,2.01,.55,2.9,.37,.89,.89,1.68,1.57,2.36,.67,.68,1.45,1.22,2.32,1.61,.87,.39,1.82,.58,2.85,.58s1.98-.19,2.85-.58c.87-.39,1.64-.92,2.29-1.59,.66-.67,1.17-1.46,1.55-2.36,.38-.9,.57-1.86,.57-2.89s-.19-2.02-.57-2.92c-.38-.9-.9-1.7-1.55-2.39-.66-.69-1.43-1.23-2.32-1.62-.89-.39-1.84-.58-2.85-.58s-1.98,.2-2.88,.59c-.89,.4-1.67,.94-2.32,1.62-.66,.68-1.17,1.48-1.53,2.39-.36,.91-.54,1.87-.54,2.88Z"/><path class="cls-1" d="M247.2,137.81l-7.24-13.01h3.21l5.8,10.77-.81,.05,5.75-10.83h3.19l-7.29,13.01v6.51h-2.62v-6.51Z"/><path class="cls-1" d="M262.69,134.57c0-1.35,.26-2.63,.77-3.83,.51-1.21,1.23-2.27,2.15-3.2s1.98-1.65,3.17-2.17c1.2-.52,2.49-.78,3.87-.78s2.63,.26,3.83,.78c1.21,.52,2.27,1.25,3.2,2.17s1.65,1.99,2.17,3.2c.52,1.21,.78,2.49,.78,3.86s-.26,2.66-.78,3.86c-.52,1.21-1.24,2.26-2.16,3.17s-1.98,1.62-3.19,2.13c-1.21,.51-2.49,.77-3.86,.77s-2.68-.25-3.87-.76c-1.2-.5-2.25-1.21-3.17-2.12s-1.63-1.96-2.15-3.16c-.51-1.2-.77-2.51-.77-3.93Zm2.7,0c0,1.04,.18,2.01,.55,2.9,.37,.89,.89,1.68,1.57,2.36,.67,.68,1.45,1.22,2.32,1.61,.87,.39,1.82,.58,2.85,.58s1.98-.19,2.85-.58c.87-.39,1.64-.92,2.29-1.59,.66-.67,1.17-1.46,1.55-2.36,.38-.9,.57-1.86,.57-2.89s-.19-2.02-.57-2.92c-.38-.9-.9-1.7-1.55-2.39-.66-.69-1.43-1.23-2.32-1.62-.89-.39-1.84-.58-2.85-.58s-1.98,.2-2.88,.59c-.89,.4-1.67,.94-2.32,1.62-.66,.68-1.17,1.48-1.53,2.39-.36,.91-.54,1.87-.54,2.88Z"/><path class="cls-1" d="M292.64,137.4c0,.88,.21,1.67,.63,2.36,.42,.69,.99,1.24,1.7,1.63,.71,.4,1.5,.59,2.36,.59,.92,0,1.74-.2,2.46-.59,.72-.4,1.28-.94,1.69-1.63,.4-.69,.61-1.48,.61-2.36v-12.61h2.59v12.69c0,1.42-.32,2.66-.97,3.73-.65,1.06-1.53,1.88-2.65,2.46-1.12,.58-2.36,.86-3.73,.86s-2.58-.29-3.7-.86c-1.12-.58-2-1.39-2.65-2.46-.65-1.06-.97-2.3-.97-3.73v-12.69h2.62v12.61Z"/><path class="cls-1" d="M318.45,124.8c.99,0,1.9,.13,2.74,.39,.84,.26,1.57,.65,2.19,1.16,.62,.51,1.11,1.15,1.46,1.9,.35,.76,.53,1.62,.53,2.59,0,.77-.11,1.53-.34,2.27-.22,.74-.59,1.41-1.11,2.01-.51,.6-1.19,1.09-2.02,1.46s-1.88,.55-3.12,.55h-2.89v7.18h-2.62v-19.52h5.18Zm.27,9.8c.77,0,1.42-.12,1.93-.35,.51-.23,.91-.54,1.2-.9,.29-.37,.49-.76,.62-1.17,.12-.41,.19-.82,.19-1.21s-.07-.8-.2-1.21-.35-.81-.65-1.17c-.3-.37-.68-.67-1.16-.9-.48-.23-1.06-.35-1.74-.35h-3.02v7.29h2.83Zm3.21,1.51l5.1,8.21h-3.02l-5.21-8.13,3.13-.08Z"/><path class="cls-1" d="M346.07,144.32v-20.14h.03l10.23,14.55-1.11-.24,10.23-14.31h.03v20.14h-2.62v-14.2l.19,1.32-7.34,10.42h-.05l-7.48-10.42,.43-1.21v14.09h-2.54Z"/><path class="cls-1" d="M373.12,134.57c0-1.35,.26-2.63,.77-3.83,.51-1.21,1.23-2.27,2.15-3.2s1.98-1.65,3.17-2.17c1.2-.52,2.49-.78,3.87-.78s2.63,.26,3.83,.78c1.21,.52,2.27,1.25,3.2,2.17s1.65,1.99,2.17,3.2c.52,1.21,.78,2.49,.78,3.86s-.26,2.66-.78,3.86c-.52,1.21-1.24,2.26-2.16,3.17s-1.98,1.62-3.19,2.13c-1.21,.51-2.49,.77-3.86,.77s-2.68-.25-3.87-.76c-1.2-.5-2.26-1.21-3.17-2.12s-1.63-1.96-2.15-3.16c-.51-1.2-.77-2.51-.77-3.93Zm2.7,0c0,1.04,.18,2.01,.55,2.9,.37,.89,.89,1.68,1.57,2.36,.67,.68,1.45,1.22,2.32,1.61,.87,.39,1.82,.58,2.85,.58s1.98-.19,2.85-.58c.87-.39,1.64-.92,2.29-1.59,.66-.67,1.17-1.46,1.55-2.36,.38-.9,.57-1.86,.57-2.89s-.19-2.02-.57-2.92-.9-1.7-1.55-2.39c-.66-.69-1.43-1.23-2.32-1.62-.89-.39-1.84-.58-2.85-.58s-1.99,.2-2.88,.59-1.67,.94-2.32,1.62c-.66,.68-1.17,1.48-1.53,2.39-.36,.91-.54,1.87-.54,2.88Z"/><path class="cls-1" d="M399.5,134.57c0-1.35,.26-2.63,.77-3.83,.51-1.21,1.23-2.27,2.15-3.2s1.98-1.65,3.17-2.17c1.2-.52,2.49-.78,3.87-.78s2.63,.26,3.83,.78c1.21,.52,2.27,1.25,3.2,2.17,.93,.93,1.65,1.99,2.17,3.2s.78,2.49,.78,3.86-.26,2.66-.78,3.86c-.52,1.21-1.24,2.26-2.16,3.17s-1.98,1.62-3.19,2.13c-1.21,.51-2.49,.77-3.86,.77s-2.68-.25-3.87-.76c-1.2-.5-2.25-1.21-3.17-2.12s-1.63-1.96-2.15-3.16c-.51-1.2-.77-2.51-.77-3.93Zm2.7,0c0,1.04,.18,2.01,.55,2.9,.37,.89,.89,1.68,1.57,2.36,.67,.68,1.45,1.22,2.32,1.61,.87,.39,1.82,.58,2.85,.58s1.97-.19,2.85-.58c.87-.39,1.64-.92,2.29-1.59s1.17-1.46,1.55-2.36c.38-.9,.57-1.86,.57-2.89s-.19-2.02-.57-2.92c-.38-.9-.89-1.7-1.55-2.39-.66-.69-1.43-1.23-2.32-1.62-.89-.39-1.84-.58-2.85-.58s-1.98,.2-2.88,.59-1.67,.94-2.32,1.62c-.66,.68-1.17,1.48-1.53,2.39-.36,.91-.54,1.87-.54,2.88Z"/><path class="cls-1" d="M427.09,144.32v-19.52h5.32c1.94,0,3.59,.29,4.94,.88,1.35,.58,2.44,1.37,3.28,2.35,.84,.98,1.44,2.06,1.82,3.23,.38,1.17,.57,2.35,.57,3.54,0,1.48-.26,2.8-.77,3.97-.51,1.17-1.21,2.17-2.11,3-.89,.83-1.92,1.46-3.08,1.9-1.16,.44-2.39,.66-3.69,.66h-6.29Zm2.62-2.51h3.16c1.06,0,2.05-.16,2.96-.49,.91-.32,1.7-.79,2.38-1.4,.67-.61,1.2-1.36,1.58-2.25,.38-.89,.57-1.91,.57-3.06s-.2-2.24-.59-3.15c-.4-.91-.94-1.67-1.62-2.28-.68-.61-1.46-1.08-2.32-1.39-.86-.32-1.76-.47-2.7-.47h-3.4v14.5Z"/></g></g></svg>