<?xml version="1.0" encoding="UTF-8"?>
<svg id="_レイヤー_2" xmlns="http://www.w3.org/2000/svg" version="1.1" viewBox="0 0 401.329 23.53">
  <!-- Generator: Adobe Illustrator 29.0.0, SVG Export Plug-In . SVG Version: 2.1.0 Build 186)  -->
  <defs>
    <style>
      .st0 {
        fill: #504f4f;
      }
    </style>
  </defs>
  <g id="spec">
    <g>
      <path class="st0" d="M336.939,14.55c.4,1.16,1.03,2.29,1.92,3.35,1.08-.43,3.86-1.59,5.1-2.27.11-.05.24-.08.35-.08.41,0,.76.35.76.73,0,.46-.05.59-5.37,2.48,1.65,1.54,3.97,2.7,6.91,3.08.38.05.57.35.57.65,0,.35-.27.73-.81.73-2.11,0-8.64-2.05-10.66-8.64-.84.59-1.7,1.16-2.54,1.67v4.54c1.54-.32,2.94-.7,4-1,.05-.03.13-.03.19-.03.35,0,.62.3.62.62,0,.22-.16.46-.51.57-4.02,1.19-10.12,2.35-10.61,2.35-.51,0-.76-.35-.76-.67s.22-.65.65-.7c1.65-.22,3.43-.51,5.13-.86v-4.05c-3.13,1.73-6.83,2.92-7.23,2.92-.43,0-.7-.35-.7-.7,0-.24.13-.49.46-.57,3.48-.94,6.42-2.19,9.37-4.1l-8.61.05c-.41,0-.59-.3-.59-.59s.19-.59.59-.59l9.66.03-.03-1.92c0-.4.35-.59.7-.59s.7.19.7.59l-.03,1.92,9.72-.03c.38,0,.57.3.57.59s-.19.59-.57.59l-8.93-.05-.02-.02ZM330.349,7.32c-1.4,1.05-4.51,2.65-5.26,2.65-.46,0-.73-.38-.73-.73,0-.27.13-.54.46-.65,1.78-.59,4.08-1.67,5.53-2.62V.67c0-.43.35-.65.7-.65s.7.22.7.65v10.28c0,.41-.35.59-.7.59s-.7-.19-.7-.59v-3.64.01ZM327.619,4.81c-.59-.89-1.4-1.65-2.29-2.29-.16-.13-.24-.27-.24-.4,0-.32.38-.59.76-.59.76,0,3.05,2.02,3.05,2.81,0,.43-.38.78-.76.78-.19,0-.38-.08-.51-.3l-.01-.01ZM334.209,10.29c-.43,0-.65-.3-.65-.59s.22-.59.65-.59h4.83v-3.94l-5.34.03c-.46,0-.65-.3-.65-.59s.22-.62.65-.62l5.32.03V.7c0-.46.38-.7.76-.7.35,0,.73.24.73.7v3.29l5.75-.03c.43,0,.65.3.65.59,0,.32-.22.62-.65.62l-5.75-.03-.03,3.94h5.02c.43,0,.62.3.62.59s-.19.59-.62.59h-11.28l-.01.03Z"/>
      <path class="st0" d="M372.059,20.08v.08c0,1.51-.67,3.02-3.64,3.02-.67,0-1.43-.08-2.35-.24-.43-.08-.65-.4-.65-.73,0-.38.24-.7.67-.7h.13c.92.16,1.65.27,2.27.27,1.43,0,2.08-.54,2.08-1.92s-.03-3.18-.03-5.18h-7.29l.03,7.67c0,.49-.35.7-.73.7-.35,0-.73-.22-.73-.7v-7.67h-6.91c-.3,3.08-.97,6.05-2.46,8.15-.22.32-.51.43-.78.43-.43,0-.81-.32-.81-.7,0-.13.05-.27.14-.4,2.27-3.24,2.7-7.8,2.7-12.09,0-2.02-.11-4-.13-5.72v-.05c0-1.97,1.19-2.97,3.4-3.02,2.11-.05,4.24-.11,6.4-.11,1.78,0,3.62.03,5.51.11,1.78.05,3.02,1.03,3.05,2.7.08,3.89.05,10.18.11,13.17l.03,2.94-.01-.01ZM361.859,8.61h-6.75c0,.51.03,1.03.03,1.57,0,1.08-.03,2.16-.11,3.27h6.83v-4.84ZM361.859,2.46c-1.59,0-3.18.05-4.78.08-1.32.03-2.02.67-2.02,1.97,0,.86.03,1.83.05,2.86h6.75V2.46ZM370.529,7.37c0-1.08-.03-2.05-.05-2.86-.03-1.19-.49-1.92-1.94-1.97-1.75-.05-3.51-.08-5.26-.08v4.91h7.26-.01ZM363.269,8.61v4.83h7.29c0-1.62,0-3.29-.03-4.83h-7.26Z"/>
      <path class="st0" d="M382.329,19.11c-.43,0-.86,0-1.3-.03-1.24-.08-2.02-1.03-2.05-2.27-.03-1.67-.03-3.97-.03-6.21s0-4.45.03-5.97c.05-2.16,1.97-2.19,3.43-2.19.43,0,.86.03,1.24.05,1.32.08,2.16.97,2.19,2.02.05,1.57.08,3.62.08,5.72,0,2.4-.03,4.83-.08,6.56-.05,2.16-1.62,2.29-3.51,2.29v.03ZM384.569,9.74c0-1.83,0-3.59-.05-4.83-.05-1.16-.81-1.24-2.11-1.24s-2.05.03-2.11,1.27c-.03,1.11-.05,2.89-.05,4.8h4.32,0ZM380.249,10.95c0,2.16.03,4.29.05,5.61.03,1.16.51,1.27,2.08,1.27,1.27,0,2.11-.08,2.13-1.29.05-1.46.05-3.51.05-5.59h-4.32.01ZM387.479,9.63c-.43,0-.65-.3-.65-.59,0-.32.22-.62.65-.62l5.59.03-.03-3.46-4.18.03c-.43,0-.65-.3-.65-.59s.22-.62.65-.62l4.18.03V.86c0-.43.35-.65.7-.65.38,0,.73.22.73.65v2.97l4.62-.03c.41,0,.62.3.62.59,0,.32-.22.62-.62.62l-4.62-.03v3.46l6.16-.03c.4,0,.59.3.59.59,0,.32-.19.62-.59.62h-13.15v.01ZM395.899,14.27l-8.42.03c-.43,0-.62-.3-.62-.59,0-.32.22-.65.62-.65l8.39.03v-1.86c0-.43.35-.62.7-.62.32,0,.67.19.67.62l.03,1.86,3.48-.03c.38,0,.57.3.57.62,0,.3-.19.62-.57.62l-3.48-.03.03,3.4.08,2.7v.16c0,1.27-.57,2.78-3.51,2.78-2.62,0-2.67-.57-2.67-.92s.24-.7.67-.7h.13c.78.13,1.48.24,2.08.24,1.13,0,1.83-.41,1.83-1.7l-.03-5.96h.02ZM392.149,19.21c-.84-1.11-2.4-1.97-3.1-2.32-.22-.11-.32-.27-.32-.43,0-.32.32-.65.7-.65.65,0,3.94,1.89,3.94,2.94,0,.43-.3.78-.67.78-.16,0-.38-.11-.54-.32h-.01Z"/>
    </g>
  </g>
  <g>
    <path class="st0" d="M.388,3.38h4.125c1.347,0,2.619.229,3.816.688,1.197.458,2.245,1.113,3.143,1.964.898.852,1.609,1.885,2.133,3.101.523,1.216.786,2.572.786,4.068,0,1.104-.192,2.236-.575,3.396-.384,1.16-1.006,2.218-1.866,3.172-.861.954-1.979,1.735-3.354,2.343-1.375.608-3.055.912-5.038.912H.388V3.38ZM1.538,4.502v17.371h2.442c1.552,0,2.909-.248,4.069-.744,1.16-.495,2.123-1.146,2.891-1.95.767-.804,1.342-1.726,1.726-2.764.383-1.039.575-2.109.575-3.214,0-1.328-.229-2.529-.688-3.605-.459-1.076-1.085-1.993-1.88-2.75-.795-.758-1.722-1.337-2.778-1.74-1.057-.402-2.185-.603-3.381-.603H1.538Z"/>
    <path class="st0" d="M18.292,13.229c0-1.384.262-2.689.786-3.915.523-1.225,1.239-2.292,2.146-3.199s1.969-1.627,3.186-2.161c1.216-.533,2.516-.8,3.9-.8s2.689.267,3.915.8c1.225.533,2.292,1.253,3.199,2.161.907.908,1.627,1.974,2.161,3.199.533,1.226.8,2.531.8,3.915s-.267,2.685-.8,3.9c-.533,1.217-1.253,2.278-2.161,3.186-.908.907-1.974,1.623-3.199,2.146-1.226.524-2.531.786-3.915.786s-2.685-.262-3.9-.786c-1.217-.523-2.278-1.239-3.186-2.146-.908-.907-1.623-1.969-2.146-3.186-.524-1.216-.786-2.516-.786-3.9ZM19.47,13.258c0,1.234.229,2.39.688,3.466.458,1.075,1.09,2.011,1.895,2.806.804.796,1.74,1.427,2.806,1.895s2.208.701,3.424.701,2.366-.233,3.452-.701c1.085-.468,2.035-1.104,2.849-1.908.813-.805,1.454-1.744,1.922-2.82.467-1.076.701-2.23.701-3.466s-.234-2.394-.701-3.479c-.468-1.085-1.104-2.035-1.909-2.848-.805-.814-1.75-1.455-2.834-1.922-1.085-.468-2.236-.702-3.452-.702s-2.362.238-3.438.715c-1.076.477-2.016,1.123-2.82,1.937-.805.814-1.436,1.764-1.895,2.849s-.688,2.245-.688,3.479Z"/>
    <path class="st0" d="M42.51,23.023V3.38h1.151v18.521h10.888v1.122h-12.039Z"/>
    <path class="st0" d="M59.151,23.023V3.38h1.151v18.521h10.888v1.122h-12.039Z"/>
    <path class="st0" d="M76.325,3.38h1.151v19.644h-1.151V3.38Z"/>
    <path class="st0" d="M92.489,5.036c-.131.15-.248.299-.351.449-.103.15-.21.3-.323.449-.168-.149-.375-.313-.617-.491-.244-.178-.529-.346-.856-.505-.328-.159-.692-.29-1.095-.393-.402-.103-.837-.154-1.305-.154-.655,0-1.226.108-1.712.323-.487.215-.894.505-1.221.87-.328.365-.571.786-.729,1.263-.159.477-.239.968-.239,1.473,0,.543.088,1.006.267,1.389.178.384.421.707.729.968.309.262.678.491,1.109.688.43.196.898.379,1.403.547.599.206,1.267.435,2.007.688.739.252,1.436.599,2.09,1.038s1.202.991,1.642,1.655.66,1.501.66,2.512c0,.823-.154,1.571-.463,2.245s-.73,1.249-1.263,1.726c-.533.478-1.16.842-1.88,1.095-.721.253-1.483.379-2.287.379-.73,0-1.408-.094-2.035-.28-.627-.188-1.184-.422-1.67-.702-.487-.28-.912-.579-1.277-.897s-.65-.599-.856-.843l.786-.785c.262.262.562.533.898.813.336.281.706.538,1.108.771.402.234.846.426,1.333.576.486.149,1.01.224,1.571.224.636,0,1.244-.098,1.824-.294.58-.196,1.095-.478,1.543-.842.449-.365.809-.81,1.081-1.333.271-.524.407-1.123.407-1.797,0-.842-.187-1.533-.561-2.076-.375-.542-.837-.991-1.389-1.347-.552-.355-1.155-.646-1.81-.87-.655-.225-1.263-.43-1.824-.617-.355-.112-.772-.262-1.249-.449s-.936-.449-1.375-.786c-.439-.336-.823-.762-1.15-1.277-.328-.514-.501-1.155-.519-1.922-.038-.617.032-1.239.21-1.866.177-.626.472-1.188.884-1.684.411-.496.944-.902,1.6-1.221.655-.318,1.45-.477,2.385-.477.711,0,1.436.122,2.175.365s1.52.711,2.343,1.403Z"/>
    <path class="st0" d="M98.494,23.023V3.38h1.151v9.176h12.067V3.38h1.235c-.019,3.293-.033,6.566-.042,9.821-.01,3.256-.023,6.529-.042,9.822h-1.151v-9.345h-12.067v9.345h-1.151Z"/>
    <path class="st0" d="M125.996,23.023V3.38h4.49c.879,0,1.679.094,2.399.28.72.188,1.337.477,1.852.87.514.393.912.903,1.193,1.529.28.627.421,1.371.421,2.231,0,1.16-.286,2.18-.856,3.059-.571.88-1.445,1.478-2.624,1.796.561.112,1.094.3,1.6.562.505.262.949.599,1.333,1.01.383.412.692.889.926,1.432.233.542.351,1.15.351,1.823,0,.843-.168,1.577-.505,2.203-.336.627-.791,1.15-1.361,1.571-.571.422-1.221.74-1.95.955-.73.215-1.487.322-2.273.322h-4.995ZM127.147,4.502v8.082h3.705c1.328,0,2.385-.388,3.171-1.165.786-.776,1.179-1.792,1.179-3.045,0-.692-.108-1.286-.323-1.782-.215-.495-.519-.898-.912-1.207-.393-.309-.865-.533-1.417-.673-.552-.141-1.155-.21-1.81-.21h-3.592ZM127.147,13.707v8.194h3.732c.692,0,1.342-.085,1.951-.253.607-.169,1.141-.421,1.6-.758.458-.337.823-.753,1.094-1.249.271-.495.407-1.08.407-1.754,0-.729-.155-1.356-.463-1.88s-.72-.959-1.235-1.306c-.515-.345-1.104-.598-1.768-.757-.665-.159-1.352-.238-2.063-.238h-3.255Z"/>
    <path class="st0" d="M141.009,23.023V3.38h4.209c.58,0,1.216.094,1.908.28.692.188,1.342.487,1.951.898.607.412,1.118.945,1.529,1.6.411.655.617,1.44.617,2.357,0,1.347-.36,2.465-1.08,3.354-.721.889-1.764,1.473-3.129,1.753.748,1.591,1.492,3.162,2.231,4.715s1.474,3.115,2.203,4.687h-1.263c-.73-1.571-1.459-3.124-2.189-4.658s-1.459-3.077-2.189-4.631c-.168.02-.333.033-.491.043-.159.009-.323.014-.491.014h-2.666v9.232h-1.15ZM142.16,12.641h2.919c.972,0,1.782-.131,2.427-.393.646-.262,1.16-.599,1.543-1.01.383-.411.65-.856.8-1.333.149-.477.225-.94.225-1.389,0-.523-.126-1.028-.379-1.515-.252-.486-.604-.917-1.052-1.291-.449-.374-.978-.669-1.585-.884-.608-.215-1.259-.323-1.951-.323h-2.947v8.138Z"/>
    <path class="st0" d="M154.844,13.229c0-1.384.262-2.689.786-3.915.523-1.225,1.239-2.292,2.146-3.199s1.969-1.627,3.186-2.161c1.216-.533,2.516-.8,3.9-.8s2.689.267,3.915.8c1.225.533,2.292,1.253,3.199,2.161.907.908,1.627,1.974,2.161,3.199.533,1.226.8,2.531.8,3.915s-.267,2.685-.8,3.9c-.533,1.217-1.253,2.278-2.161,3.186-.908.907-1.974,1.623-3.199,2.146-1.226.524-2.531.786-3.915.786s-2.685-.262-3.9-.786c-1.217-.523-2.278-1.239-3.186-2.146-.908-.907-1.623-1.969-2.146-3.186-.524-1.216-.786-2.516-.786-3.9ZM156.023,13.258c0,1.234.229,2.39.688,3.466.458,1.075,1.09,2.011,1.895,2.806.804.796,1.74,1.427,2.806,1.895s2.208.701,3.424.701,2.366-.233,3.452-.701c1.085-.468,2.035-1.104,2.849-1.908.813-.805,1.454-1.744,1.922-2.82.467-1.076.701-2.23.701-3.466s-.234-2.394-.701-3.479c-.468-1.085-1.104-2.035-1.909-2.848-.805-.814-1.75-1.455-2.834-1.922-1.085-.468-2.236-.702-3.452-.702s-2.362.238-3.438.715c-1.076.477-2.016,1.123-2.82,1.937-.805.814-1.436,1.764-1.895,2.849s-.688,2.245-.688,3.479Z"/>
    <path class="st0" d="M204.853,3.38h1.179c-1.459,3.442-2.909,6.866-4.35,10.271-1.441,3.405-2.891,6.829-4.35,10.271l-4.967-11.702-.253-.758c-.749,2.076-1.585,4.162-2.512,6.258-.926,2.096-1.829,4.163-2.708,6.202-1.459-3.442-2.909-6.866-4.35-10.271-1.441-3.404-2.891-6.828-4.35-10.271h1.178c1.216,2.881,2.423,5.744,3.62,8.587,1.197,2.843,2.414,5.696,3.648,8.558.037.132.08.263.126.394.046.131.088.262.126.393.636-1.87,1.371-3.732,2.203-5.585.832-1.852,1.642-3.694,2.427-5.527-.486-1.16-.968-2.301-1.445-3.424-.478-1.123-.959-2.254-1.445-3.396h1.207c1.197,2.881,2.395,5.744,3.592,8.587,1.197,2.843,2.413,5.696,3.648,8.558.037.132.08.263.126.394.046.131.088.262.126.393.038-.131.08-.262.126-.393.046-.131.088-.262.126-.394,1.234-2.881,2.451-5.738,3.648-8.572,1.197-2.834,2.404-5.692,3.62-8.573Z"/>
    <path class="st0" d="M227.724,3.38v20.542c-2.62-3.013-5.211-6.001-7.773-8.967-2.563-2.964-5.146-5.953-7.746-8.965-.094-.131-.182-.253-.267-.365-.084-.112-.173-.234-.267-.365.019.15.033.3.043.449.009.15.022.299.042.449v16.865h-1.179V2.482c2.619,3.049,5.21,6.066,7.773,9.05,2.562,2.984,5.145,5.991,7.745,9.021.094.131.183.253.267.365s.173.234.267.364c-.019-.149-.033-.299-.042-.448-.01-.15-.023-.3-.042-.449V3.38h1.179Z"/>
    <path class="st0" d="M254.523,3.38v1.123h-7.184v18.521h-1.15V4.502h-7.185v-1.123h15.519Z"/>
    <path class="st0" d="M256.263,13.229c0-1.384.262-2.689.785-3.915.523-1.225,1.239-2.292,2.147-3.199.907-.907,1.969-1.627,3.185-2.161s2.517-.8,3.901-.8,2.688.267,3.914.8,2.292,1.253,3.199,2.161c.907.908,1.628,1.974,2.161,3.199.533,1.226.8,2.531.8,3.915s-.267,2.685-.8,3.9c-.533,1.217-1.254,2.278-2.161,3.186s-1.974,1.623-3.199,2.146c-1.226.524-2.53.786-3.914.786s-2.686-.262-3.901-.786c-1.216-.523-2.277-1.239-3.185-2.146-.908-.907-1.624-1.969-2.147-3.186-.523-1.216-.785-2.516-.785-3.9ZM257.442,13.258c0,1.234.229,2.39.688,3.466.458,1.075,1.089,2.011,1.894,2.806.805.796,1.74,1.427,2.807,1.895s2.207.701,3.424.701,2.366-.233,3.452-.701c1.084-.468,2.034-1.104,2.848-1.908.814-.805,1.455-1.744,1.923-2.82.467-1.076.701-2.23.701-3.466s-.234-2.394-.701-3.479c-.468-1.085-1.104-2.035-1.908-2.848-.805-.814-1.75-1.455-2.835-1.922s-2.235-.702-3.451-.702-2.362.238-3.438.715c-1.075.477-2.016,1.123-2.82,1.937s-1.436,1.764-1.894,2.849c-.459,1.085-.688,2.245-.688,3.479Z"/>
    <path class="st0" d="M280.173,23.023V3.38h4.209c.58,0,1.216.094,1.908.28.692.188,1.343.487,1.95.898.608.412,1.118.945,1.529,1.6.412.655.618,1.44.618,2.357,0,1.347-.36,2.465-1.081,3.354-.72.889-1.764,1.473-3.129,1.753.748,1.591,1.492,3.162,2.231,4.715.738,1.553,1.473,3.115,2.203,4.687h-1.264c-.729-1.571-1.459-3.124-2.188-4.658s-1.459-3.077-2.189-4.631c-.168.02-.332.033-.49.043-.159.009-.323.014-.491.014h-2.666v9.232h-1.15ZM281.324,12.641h2.918c.973,0,1.782-.131,2.428-.393.646-.262,1.16-.599,1.544-1.01.383-.411.649-.856.8-1.333.149-.477.224-.94.224-1.389,0-.523-.126-1.028-.378-1.515-.253-.486-.604-.917-1.053-1.291-.449-.374-.978-.669-1.586-.884s-1.258-.323-1.95-.323h-2.946v8.138Z"/>
    <path class="st0" d="M295.187,3.38h1.15v19.644h-1.15V3.38Z"/>
    <path class="st0" d="M315.448,20.891l.646.954c-.749.431-1.549.771-2.399,1.024-.852.253-1.754.379-2.708.379-1.385,0-2.686-.262-3.901-.786-1.216-.523-2.277-1.239-3.185-2.146-.908-.907-1.624-1.969-2.147-3.186-.523-1.216-.785-2.516-.785-3.9s.262-2.689.785-3.915c.523-1.225,1.239-2.292,2.147-3.199.907-.907,1.969-1.627,3.185-2.161s2.517-.8,3.901-.8c.954,0,1.856.122,2.708.365.851.243,1.66.589,2.427,1.039-.111.15-.22.309-.322.477-.104.168-.211.327-.322.477-.655-.393-1.361-.697-2.119-.912-.758-.215-1.549-.323-2.371-.323-1.217,0-2.362.238-3.438.715-1.075.477-2.016,1.123-2.82,1.937s-1.436,1.764-1.894,2.849c-.459,1.085-.688,2.245-.688,3.479,0,1.216.229,2.361.688,3.438.458,1.076,1.089,2.016,1.894,2.82s1.735,1.44,2.793,1.908c1.057.468,2.193.701,3.409.701.842,0,1.637-.107,2.386-.322.748-.215,1.459-.52,2.133-.912Z"/>
  </g>
</svg>