<?xml version="1.0" encoding="UTF-8"?>
<svg id="_レイヤー_2" xmlns="http://www.w3.org/2000/svg" version="1.1" viewBox="0 0 330.5 23.5">
  <!-- Generator: Adobe Illustrator 29.1.0, SVG Export Plug-In . SVG Version: 2.1.0 Build 142)  -->
  <defs>
    <style>
      .st0 {
        fill: #504f4f;
      }
    </style>
  </defs>
  <g id="spec">
    <g>
      <path class="st0" d="M266.2,14.6c.4,1.2,1,2.3,1.9,3.3,1.1-.4,3.9-1.6,5.1-2.3.1,0,.2,0,.4,0,.4,0,.8.4.8.7s0,.6-5.4,2.5c1.6,1.5,4,2.7,6.9,3.1.4,0,.6.4.6.6s-.3.7-.8.7c-2.1,0-8.6-2-10.7-8.6-.8.6-1.7,1.2-2.5,1.7v4.5c1.5-.3,2.9-.7,4-1,0,0,.1,0,.2,0,.4,0,.6.3.6.6s-.2.5-.5.6c-4,1.2-10.1,2.4-10.6,2.4s-.8-.4-.8-.7.2-.6.6-.7c1.6-.2,3.4-.5,5.1-.9v-4c-3.1,1.7-6.8,2.9-7.2,2.9s-.7-.4-.7-.7.1-.5.5-.6c3.5-.9,6.4-2.2,9.4-4.1h-8.6c-.4,0-.6-.2-.6-.5s.2-.6.6-.6h9.7s0-1.9,0-1.9c0-.4.4-.6.7-.6s.7.2.7.6v1.9s9.7,0,9.7,0c.4,0,.6.3.6.6s-.2.6-.6.6h-8.9c0,0,0,0,0,0h0ZM259.6,7.3c-1.4,1-4.5,2.7-5.3,2.7s-.7-.4-.7-.7.1-.5.5-.6c1.8-.6,4.1-1.7,5.5-2.6V.7c0-.4.4-.6.7-.6s.7.2.7.6v10.3c0,.4-.4.6-.7.6s-.7-.2-.7-.6v-3.6h0s0,0,0,0ZM256.8,4.8c-.6-.9-1.4-1.7-2.3-2.3-.2-.1-.2-.3-.2-.4,0-.3.4-.6.8-.6.8,0,3,2,3,2.8s-.4.8-.8.8-.4,0-.5-.3h0s0,0,0,0ZM263.4,10.3c-.4,0-.6-.3-.6-.6s.2-.6.6-.6h4.8v-3.9h-5.3c-.5,0-.6-.3-.6-.6s.2-.6.6-.6h5.3s0-3.3,0-3.3C268.2.2,268.6,0,269,0s.7.2.7.7v3.3h5.8c.4,0,.6.3.6.6s-.2.6-.6.6h-5.8s0,3.9,0,3.9h5c.4,0,.6.3.6.6s-.2.6-.6.6h-11.3Z"/>
      <path class="st0" d="M301.3,20.1h0c0,1.6-.7,3.1-3.6,3.1s-1.4,0-2.4-.2c-.4,0-.6-.4-.6-.7s.2-.7.7-.7h.1c.9.2,1.6.3,2.3.3,1.4,0,2.1-.5,2.1-1.9s0-3.2,0-5.2h-7.3v7.7c0,.5-.3.7-.7.7s-.7-.2-.7-.7v-7.7h-6.9c-.3,3.1-1,6-2.5,8.1-.2.3-.5.4-.8.4-.4,0-.8-.3-.8-.7s0-.3.1-.4c2.3-3.2,2.7-7.8,2.7-12.1s-.1-4-.1-5.7h0c0-2,1.2-3,3.4-3.1,2.1,0,4.2-.1,6.4-.1s3.6,0,5.5.1c1.8,0,3,1,3,2.7,0,3.9,0,10.2.1,13.2v2.9s0,0,0,0h0ZM291.1,8.6h-6.8c0,.5,0,1,0,1.6,0,1.1,0,2.2-.1,3.3h6.8s0-4.8,0-4.8ZM291.1,2.5c-1.6,0-3.2,0-4.8,0-1.3,0-2,.7-2,2s0,1.8,0,2.9h6.8V2.5ZM299.7,7.4c0-1.1,0-2.1,0-2.9,0-1.2-.5-1.9-1.9-2-1.8,0-3.5,0-5.3,0v4.9h7.3,0ZM292.5,8.6v4.8h7.3c0-1.6,0-3.3,0-4.8h-7.3Z"/>
      <path class="st0" d="M311.5,19.1c-.4,0-.9,0-1.3,0-1.2,0-2-1-2-2.3,0-1.7,0-4,0-6.2s0-4.4,0-6c0-2.2,2-2.2,3.4-2.2s.9,0,1.2,0c1.3,0,2.2,1,2.2,2,0,1.6,0,3.6,0,5.7s0,4.8,0,6.6c0,2.2-1.6,2.3-3.5,2.3h0ZM313.8,9.7c0-1.8,0-3.6,0-4.8,0-1.2-.8-1.2-2.1-1.2s-2,0-2.1,1.3c0,1.1,0,2.9,0,4.8h4.3,0ZM309.5,10.9c0,2.2,0,4.3,0,5.6,0,1.2.5,1.3,2.1,1.3s2.1,0,2.1-1.3c0-1.5,0-3.5,0-5.6h-4.3,0ZM316.7,9.6c-.4,0-.6-.3-.6-.6s.2-.6.6-.6h5.6s0-3.4,0-3.4h-4.2c-.4,0-.6-.3-.6-.6s.2-.6.6-.6h4.2s0-2.9,0-2.9c0-.4.4-.6.7-.6s.7.2.7.6v3h4.6c.4,0,.6.3.6.6s-.2.6-.6.6h-4.6s0,3.4,0,3.4h6.2c.4,0,.6.3.6.6s-.2.6-.6.6h-13.1s0,0,0,0ZM325.1,14.3h-8.4c-.4,0-.6-.3-.6-.6s.2-.6.6-.6h8.4s0-1.8,0-1.8c0-.4.4-.6.7-.6s.7.2.7.6v1.9s3.5,0,3.5,0c.4,0,.6.3.6.6s-.2.6-.6.6h-3.5s0,3.4,0,3.4v2.7c0,0,0,.2,0,.2,0,1.3-.6,2.8-3.5,2.8s-2.7-.6-2.7-.9.2-.7.7-.7h.1c.8.1,1.5.2,2.1.2,1.1,0,1.8-.4,1.8-1.7v-6s0,0,0,0h0ZM321.4,19.2c-.8-1.1-2.4-2-3.1-2.3-.2-.1-.3-.3-.3-.4,0-.3.3-.6.7-.6.6,0,3.9,1.9,3.9,2.9s-.3.8-.7.8-.4-.1-.5-.3h0,0Z"/>
    </g>
  </g>
  <g>
    <path class="st0" d="M15.7,2.7v1.1h-7.3v18.7h-1.2V3.8H0v-1.1h15.7Z"/>
    <path class="st0" d="M44.2,2.7h1.2c-1.5,3.5-2.9,6.9-4.4,10.4-1.5,3.4-2.9,6.9-4.4,10.4l-5-11.8-.3-.8c-.8,2.1-1.6,4.2-2.5,6.3-.9,2.1-1.9,4.2-2.7,6.3-1.5-3.5-2.9-6.9-4.4-10.4-1.5-3.4-2.9-6.9-4.4-10.4h1.2c1.2,2.9,2.5,5.8,3.7,8.7,1.2,2.9,2.4,5.8,3.7,8.7,0,.1,0,.3.1.4,0,.1,0,.3.1.4.6-1.9,1.4-3.8,2.2-5.6s1.7-3.7,2.5-5.6c-.5-1.2-1-2.3-1.5-3.5-.5-1.1-1-2.3-1.5-3.4h1.2c1.2,2.9,2.4,5.8,3.6,8.7,1.2,2.9,2.4,5.8,3.7,8.7,0,.1,0,.3.1.4s0,.3.1.4c0-.1,0-.3.1-.4,0-.1,0-.3.1-.4,1.2-2.9,2.5-5.8,3.7-8.7,1.2-2.9,2.4-5.8,3.7-8.7Z"/>
    <path class="st0" d="M50.1,2.7h1.2v19.9h-1.2V2.7Z"/>
    <path class="st0" d="M74.4,2.7v20.8c-2.6-3-5.3-6.1-7.9-9.1-2.6-3-5.2-6-7.8-9.1,0-.1-.2-.3-.3-.4,0-.1-.2-.2-.3-.4,0,.2,0,.3,0,.5,0,.2,0,.3,0,.5v17.1h-1.2V1.8c2.6,3.1,5.3,6.1,7.9,9.2s5.2,6.1,7.8,9.1c0,.1.2.3.3.4,0,.1.2.2.3.4,0-.2,0-.3,0-.5,0-.2,0-.3,0-.5V2.7h1.2Z"/>
    <path class="st0" d="M93.1,22.5h-1.4c-1.5-1.9-2.9-3.7-4.4-5.6-1.5-1.8-2.9-3.7-4.4-5.6-.4.4-.9.8-1.2,1.2s-.8.8-1.2,1.2v8.8h-1.2V2.7h1.2v8.9c0,.2,0,.3,0,.4,0,.1,0,.3,0,.4,0-.1.2-.2.3-.3,0,0,.2-.2.3-.3,1.6-1.5,3.2-3.1,4.8-4.6,1.6-1.5,3.2-3.1,4.8-4.6h1.5l-8.3,7.9c1.6,2,3.2,4,4.7,6s3.1,4,4.7,6Z"/>
    <path class="st0" d="M96.7,22.5V2.7h1.2v18.7h11v1.1h-12.2Z"/>
    <path class="st0" d="M113.6,22.5V2.7h11.8v1.1h-10.6v8.1h9.5v1.1h-9.5v8.3h11v1.1h-12.2Z"/>
    <path class="st0" d="M138.8,22.5V2.7h4.5c.9,0,1.7,0,2.4.3.7.2,1.4.5,1.9.9s.9.9,1.2,1.5c.3.6.4,1.4.4,2.3s-.3,2.2-.9,3.1c-.6.9-1.5,1.5-2.7,1.8.6.1,1.1.3,1.6.6.5.3,1,.6,1.3,1,.4.4.7.9.9,1.4s.4,1.2.4,1.8-.2,1.6-.5,2.2c-.3.6-.8,1.2-1.4,1.6s-1.2.7-2,1-1.5.3-2.3.3h-5.1ZM140,3.8v8.2h3.7c1.3,0,2.4-.4,3.2-1.2s1.2-1.8,1.2-3.1-.1-1.3-.3-1.8c-.2-.5-.5-.9-.9-1.2-.4-.3-.9-.5-1.4-.7-.6-.1-1.2-.2-1.8-.2h-3.6ZM140,13.1v8.3h3.8c.7,0,1.4,0,2-.3.6-.2,1.2-.4,1.6-.8s.8-.8,1.1-1.3c.3-.5.4-1.1.4-1.8s-.2-1.4-.5-1.9c-.3-.5-.7-1-1.2-1.3-.5-.3-1.1-.6-1.8-.8-.7-.2-1.4-.2-2.1-.2h-3.3Z"/>
    <path class="st0" d="M154,22.5V2.7h4.3c.6,0,1.2,0,1.9.3.7.2,1.4.5,2,.9.6.4,1.1,1,1.5,1.6.4.7.6,1.5.6,2.4,0,1.4-.4,2.5-1.1,3.4-.7.9-1.8,1.5-3.2,1.8.8,1.6,1.5,3.2,2.3,4.8.7,1.6,1.5,3.2,2.2,4.7h-1.3c-.7-1.6-1.5-3.2-2.2-4.7-.7-1.6-1.5-3.1-2.2-4.7-.2,0-.3,0-.5,0s-.3,0-.5,0h-2.7v9.3h-1.2ZM155.2,12h3c1,0,1.8-.1,2.5-.4.7-.3,1.2-.6,1.6-1,.4-.4.7-.9.8-1.3.2-.5.2-1,.2-1.4s-.1-1-.4-1.5-.6-.9-1.1-1.3c-.5-.4-1-.7-1.6-.9-.6-.2-1.3-.3-2-.3h-3v8.2Z"/>
    <path class="st0" d="M168,12.6c0-1.4.3-2.7.8-4,.5-1.2,1.3-2.3,2.2-3.2.9-.9,2-1.6,3.2-2.2,1.2-.5,2.5-.8,3.9-.8s2.7.3,4,.8c1.2.5,2.3,1.3,3.2,2.2.9.9,1.6,2,2.2,3.2.5,1.2.8,2.6.8,4s-.3,2.7-.8,3.9c-.5,1.2-1.3,2.3-2.2,3.2s-2,1.6-3.2,2.2c-1.2.5-2.6.8-4,.8s-2.7-.3-3.9-.8c-1.2-.5-2.3-1.3-3.2-2.2s-1.6-2-2.2-3.2c-.5-1.2-.8-2.5-.8-3.9ZM169.2,12.7c0,1.2.2,2.4.7,3.5.5,1.1,1.1,2,1.9,2.8.8.8,1.8,1.4,2.8,1.9,1.1.5,2.2.7,3.5.7s2.4-.2,3.5-.7c1.1-.5,2.1-1.1,2.9-1.9.8-.8,1.5-1.8,1.9-2.9s.7-2.3.7-3.5-.2-2.4-.7-3.5c-.5-1.1-1.1-2.1-1.9-2.9-.8-.8-1.8-1.5-2.9-1.9-1.1-.5-2.3-.7-3.5-.7s-2.4.2-3.5.7c-1.1.5-2,1.1-2.9,2-.8.8-1.5,1.8-1.9,2.9s-.7,2.3-.7,3.5Z"/>
    <path class="st0" d="M218.6,2.7h1.2c-1.5,3.5-2.9,6.9-4.4,10.4-1.5,3.4-2.9,6.9-4.4,10.4l-5-11.8-.3-.8c-.8,2.1-1.6,4.2-2.5,6.3-.9,2.1-1.8,4.2-2.7,6.3-1.5-3.5-2.9-6.9-4.4-10.4-1.5-3.4-2.9-6.9-4.4-10.4h1.2c1.2,2.9,2.5,5.8,3.7,8.7,1.2,2.9,2.4,5.8,3.7,8.7,0,.1,0,.3.1.4,0,.1,0,.3.1.4.6-1.9,1.4-3.8,2.2-5.6s1.7-3.7,2.5-5.6c-.5-1.2-1-2.3-1.5-3.5-.5-1.1-1-2.3-1.5-3.4h1.2c1.2,2.9,2.4,5.8,3.6,8.7,1.2,2.9,2.4,5.8,3.7,8.7,0,.1,0,.3.1.4s0,.3.1.4c0-.1,0-.3.1-.4,0-.1,0-.3.1-.4,1.2-2.9,2.5-5.8,3.7-8.7,1.2-2.9,2.4-5.8,3.7-8.7Z"/>
    <path class="st0" d="M241.7,2.7v20.8c-2.6-3-5.3-6.1-7.9-9.1-2.6-3-5.2-6-7.8-9.1,0-.1-.2-.3-.3-.4s-.2-.2-.3-.4c0,.2,0,.3,0,.5,0,.2,0,.3,0,.5v17.1h-1.2V1.8c2.6,3.1,5.3,6.1,7.9,9.2s5.2,6.1,7.8,9.1c0,.1.2.3.3.4,0,.1.2.2.3.4,0-.2,0-.3,0-.5s0-.3,0-.5V2.7h1.2Z"/>
  </g>
</svg>