<?xml version="1.0" encoding="UTF-8"?>
<svg id="_レイヤー_2" data-name="レイヤー 2" xmlns="http://www.w3.org/2000/svg" viewBox="0 0 37.75 4.32">
  <defs>
    <style>
      .cls-1 {
        fill: #ffd7e0;
        stroke-width: 0px;
      }
    </style>
  </defs>
  <g id="NewColor_ALL">
    <g>
      <path class="cls-1" d="m0,.19h.7v4.08h-.7V.19Zm.16,4.07v-.66h1.47c.28,0,.52-.05.7-.16s.32-.26.41-.47c.09-.21.13-.47.13-.77s-.04-.56-.13-.76-.23-.35-.41-.46c-.18-.1-.42-.15-.7-.15H.16V.19h1.52c.63,0,1.11.17,1.44.5.33.33.49.83.49,1.48,0,.46-.08.84-.23,1.15-.15.31-.38.54-.67.7-.3.16-.67.24-1.11.24H.16Z"/>
      <path class="cls-1" d="m4.75,4.12c-.25-.13-.44-.31-.58-.55-.14-.24-.21-.51-.21-.81s.07-.57.21-.81.33-.42.58-.56c.25-.13.53-.2.84-.2s.6.07.84.2c.25.13.44.32.58.56s.21.51.21.81-.07.58-.21.81c-.14.24-.33.42-.58.55-.25.13-.53.2-.84.2s-.6-.07-.84-.2Zm1.51-.67c.17-.17.26-.4.26-.69s-.09-.52-.26-.69c-.17-.18-.39-.26-.67-.26s-.5.09-.67.26c-.17.18-.26.41-.26.69s.09.52.26.69c.17.17.39.26.67.26s.5-.09.67-.26Z"/>
      <path class="cls-1" d="m8.55,4.27h-.67V.03h.67v4.24Z"/>
      <path class="cls-1" d="m10.06,4.27h-.67V.03h.67v4.24Z"/>
      <path class="cls-1" d="m10.94.73c-.08-.08-.13-.19-.13-.3s.04-.22.13-.3c.08-.08.19-.13.3-.13s.22.04.3.13.13.19.13.3-.04.22-.13.3c-.08.08-.19.13-.3.13s-.22-.04-.3-.13Zm-.03.51h.67v3.03h-.67V1.24Z"/>
      <path class="cls-1" d="m14.08,3.2c-.05-.05-.15-.09-.28-.13-.05-.01-.11-.02-.16-.04-.06-.01-.12-.02-.19-.03h-.07c-.27-.06-.49-.13-.67-.21-.18-.08-.31-.19-.39-.31-.08-.12-.13-.27-.13-.44,0-.26.12-.47.35-.63.23-.16.55-.24.94-.24.23,0,.46.03.69.08.23.05.39.12.5.2l-.07.55c-.12-.07-.28-.13-.5-.18-.22-.05-.42-.08-.6-.08-.22,0-.38.02-.48.06-.1.04-.15.11-.15.2,0,.1.05.17.15.22s.28.09.54.15c.01,0,.02,0,.03,0,0,0,.02,0,.03,0,.43.08.73.2.92.35s.28.35.28.61c0,.19-.06.36-.17.5-.11.14-.28.25-.48.33-.21.08-.45.12-.72.12-.24,0-.48-.04-.73-.11s-.44-.17-.59-.28l.04-.6c.12.11.31.2.56.27.25.07.49.11.74.11s.41-.03.53-.08c.12-.05.18-.13.18-.24,0-.07-.03-.13-.08-.18Z"/>
      <path class="cls-1" d="m16.03,4.27h-.67V.03h.67v4.24Zm.1-2.63c.1-.13.23-.23.4-.32.17-.08.34-.12.53-.12.25,0,.46.05.61.15.16.1.28.24.35.42s.11.4.11.67l-.67.13c0-.24-.06-.42-.18-.54-.12-.12-.29-.18-.5-.18-.18,0-.34.03-.5.1-.15.06-.25.13-.28.19l-.03-.12c0-.12.06-.25.15-.38Zm2.01,2.63h-.67v-1.71l.67-.13v1.85Z"/>
      <path class="cls-1" d="m20.77,4.27h-.7V.19h.7v4.08Zm2.09-2.43c-.28.17-.67.25-1.17.25h-1.45v-.32h1.6c.22,0,.39-.04.51-.12.12-.08.19-.21.19-.4,0-.15-.06-.26-.17-.32s-.28-.09-.5-.09h-1.62V.19h1.7c.43,0,.76.07.99.21.23.14.34.37.34.69s-.14.58-.42.75Zm.18,2.14c-.27.2-.66.29-1.19.29h-1.62v-.66h1.65c.27,0,.47-.05.61-.16.14-.1.21-.27.21-.51,0-.15-.03-.26-.09-.35s-.15-.15-.28-.19-.27-.06-.45-.06h-1.65v-.32h1.7c.51,0,.89.08,1.13.23.25.15.37.41.37.77,0,.44-.13.76-.4.96Z"/>
      <path class="cls-1" d="m24.02,1.24h.67v3.03h-.67V1.24Zm.83.6c.14-.19.31-.34.52-.47.2-.12.4-.18.58-.18l-.05.73c-.12,0-.28.03-.46.08-.18.06-.35.13-.5.21-.15.08-.25.16-.28.22l-.03-.04c.01-.18.09-.37.23-.55Z"/>
      <path class="cls-1" d="m26.89,4.12c-.25-.13-.44-.31-.58-.55-.14-.24-.21-.51-.21-.81s.07-.57.21-.81c.14-.24.33-.42.58-.56s.53-.2.84-.2.6.07.84.2.44.32.58.56c.14.24.21.51.21.81s-.07.58-.21.81c-.14.24-.33.42-.58.55-.25.13-.53.2-.84.2s-.6-.07-.84-.2Zm1.51-.67c.17-.17.26-.4.26-.69s-.09-.52-.26-.69c-.17-.18-.39-.26-.67-.26s-.5.09-.67.26c-.17.18-.26.41-.26.69s.09.52.26.69c.17.17.39.26.67.26s.5-.09.67-.26Z"/>
      <path class="cls-1" d="m29.45,1.24h.75l.92,3.03h-.61l-1.06-3.03Zm2.09,0h.65l-.9,3.03h-.58l.82-3.03Zm.21,0h.67l.82,3.03h-.61l-.89-3.03Zm2.02,0h.72l-1.06,3.03h-.58l.91-3.03Z"/>
      <path class="cls-1" d="m35.61,4.27h-.67V1.24h.67v3.03Zm.11-2.65c.11-.12.25-.23.42-.31s.35-.12.54-.12c.23,0,.43.05.59.14.16.09.28.23.36.41.08.18.12.41.12.67l-.67.13c0-.17-.03-.31-.08-.42-.05-.11-.13-.19-.23-.24-.1-.05-.23-.07-.39-.06-.16,0-.33.04-.49.1-.17.06-.27.12-.31.19l-.03-.11c0-.13.05-.26.16-.39Zm2.03,2.65h-.67v-1.72l.67-.13v1.85Z"/>
    </g>
  </g>
</svg>