<?xml version="1.0" encoding="UTF-8"?>
<svg id="_レイヤー_2" data-name="レイヤー 2" xmlns="http://www.w3.org/2000/svg" viewBox="0 0 10.87 1.82">
  <defs>
    <style>
      .cls-1 {
        fill: #ffd7e0;
        stroke-width: 0px;
      }
    </style>
  </defs>
  <g id="NewColor_ALL">
    <g>
      <path class="cls-1" d="m0,1.52c.15-.18.42-.54.5-1.14l.21.05s.07.02.07.04c0,0,0,.01-.02.03-.02.01-.03.02-.04.1-.03.14-.16.65-.48,1.03l-.23-.11Zm1.52.03c-.09-.43-.26-.81-.48-1.06l.19-.12c.32.4.45.78.52,1.09l-.24.09Zm.03-1.1c-.05-.07-.11-.12-.18-.19l.1-.09s.12.1.19.19l-.11.09Zm.22-.15c-.07-.1-.16-.17-.19-.19l.1-.09c.1.06.17.17.19.19l-.1.09Z"/>
      <path class="cls-1" d="m2.05.57v-.21h1.12s.06,0,.1-.04l.19.19q-.06.04-.14.29c-.08.23-.25.69-.92,1.02l-.19-.18c.59-.26.81-.62.93-1.07h-1.09Zm1.23-.29c-.07-.09-.12-.13-.19-.18l.09-.09c.06.04.12.09.2.18l-.11.09Zm.3,0c-.04-.06-.09-.12-.18-.19l.09-.08c.07.05.12.1.18.19l-.1.09Z"/>
      <path class="cls-1" d="m3.71,1.5c.36-.25.42-.47.42-.94,0-.12,0-.2,0-.26l.21.03c.06,0,.06.01.06.03,0,.01-.01.03-.02.04-.02.02-.03.02-.03.08,0,.52,0,.82-.47,1.2l-.17-.17Zm.9-1.2l.21.03c.06,0,.07,0,.07.03,0,.01,0,.02-.03.04-.03.02-.03.03-.03.05v.92c.16-.11.37-.27.55-.57l.14.18c-.07.11-.29.42-.77.7l-.14-.12V.3Z"/>
      <path class="cls-1" d="m5.74.57v-.21h1.12s.06,0,.1-.04l.19.19q-.06.04-.14.29c-.08.23-.25.69-.92,1.02l-.19-.18c.59-.26.81-.62.93-1.07h-1.09Zm1.23-.29c-.07-.09-.12-.13-.18-.18l.09-.09c.06.04.12.09.2.18l-.11.09Zm.3,0c-.04-.06-.09-.12-.18-.19l.09-.08c.07.05.12.1.18.19l-.1.09Z"/>
      <path class="cls-1" d="m7.41,1.5c.36-.25.42-.47.42-.94,0-.12,0-.2,0-.26l.22.03c.06,0,.06.01.06.03,0,.01-.01.03-.02.04-.02.02-.03.02-.03.08,0,.52,0,.82-.47,1.2l-.17-.17Zm.9-1.2l.21.03c.06,0,.07,0,.07.03,0,.01,0,.02-.04.04-.03.02-.03.03-.03.05v.92c.16-.11.37-.27.55-.57l.14.18c-.07.11-.29.42-.77.7l-.14-.12V.3Z"/>
      <path class="cls-1" d="m10.87.88v.23h-1.46v-.23h1.46Z"/>
    </g>
  </g>
</svg>