<?xml version="1.0" encoding="UTF-8"?>
<svg id="_レイヤー_2" data-name="レイヤー 2" xmlns="http://www.w3.org/2000/svg" viewBox="0 0 33.2 5.48">
  <defs>
    <style>
      .cls-1 {
        fill: #ffd7e0;
        stroke-width: 0px;
      }
    </style>
  </defs>
  <g id="NewColor_ALL">
    <g>
      <path class="cls-1" d="m0,.19h.7v4.08h-.7V.19Zm.16,4.07v-.66h1.47c.28,0,.52-.05.7-.16s.32-.26.41-.47c.09-.21.13-.47.13-.77s-.04-.56-.13-.76-.23-.35-.41-.46c-.18-.1-.42-.15-.7-.15H.16V.19h1.52c.63,0,1.11.17,1.44.5.33.33.49.83.49,1.48,0,.46-.08.84-.23,1.15-.15.31-.38.54-.67.7-.3.16-.67.24-1.11.24H.16Z"/>
      <path class="cls-1" d="m4.75,4.12c-.25-.13-.44-.31-.58-.55-.14-.24-.21-.51-.21-.81s.07-.57.21-.81.33-.42.58-.56c.25-.13.53-.2.84-.2s.6.07.84.2c.25.13.44.32.58.56s.21.51.21.81-.07.58-.21.81c-.14.24-.33.42-.58.55-.25.13-.53.2-.84.2s-.6-.07-.84-.2Zm1.51-.67c.17-.17.26-.4.26-.69s-.09-.52-.26-.69c-.17-.18-.39-.26-.67-.26s-.5.09-.67.26c-.17.18-.26.41-.26.69s.09.52.26.69c.17.17.39.26.67.26s.5-.09.67-.26Z"/>
      <path class="cls-1" d="m8.55,4.27h-.67V.03h.67v4.24Z"/>
      <path class="cls-1" d="m10.06,4.27h-.67V.03h.67v4.24Z"/>
      <path class="cls-1" d="m10.94.73c-.08-.08-.13-.19-.13-.3s.04-.22.13-.3c.08-.08.19-.13.3-.13s.22.04.3.13.13.19.13.3-.04.22-.13.3c-.08.08-.19.13-.3.13s-.22-.04-.3-.13Zm-.03.51h.67v3.03h-.67V1.24Z"/>
      <path class="cls-1" d="m14.08,3.2c-.05-.05-.15-.09-.28-.13-.05-.01-.11-.02-.16-.04-.06-.01-.12-.02-.19-.03h-.07c-.27-.06-.49-.13-.67-.21-.18-.08-.31-.19-.39-.31-.08-.12-.13-.27-.13-.44,0-.26.12-.47.35-.63.23-.16.55-.24.94-.24.23,0,.46.03.69.08.23.05.39.12.5.2l-.07.55c-.12-.07-.28-.13-.5-.18-.22-.05-.42-.08-.6-.08-.22,0-.38.02-.48.06-.1.04-.15.11-.15.2,0,.1.05.17.15.22s.28.09.54.15c.01,0,.02,0,.03,0,0,0,.02,0,.03,0,.43.08.73.2.92.35s.28.35.28.61c0,.19-.06.36-.17.5-.11.14-.28.25-.48.33-.21.08-.45.12-.72.12-.24,0-.48-.04-.73-.11s-.44-.17-.59-.28l.04-.6c.12.11.31.2.56.27.25.07.49.11.74.11s.41-.03.53-.08c.12-.05.18-.13.18-.24,0-.07-.03-.13-.08-.18Z"/>
      <path class="cls-1" d="m16.03,4.27h-.67V.03h.67v4.24Zm.1-2.63c.1-.13.23-.23.4-.32.17-.08.34-.12.53-.12.25,0,.46.05.61.15.16.1.28.24.35.42s.11.4.11.67l-.67.13c0-.24-.06-.42-.18-.54-.12-.12-.29-.18-.5-.18-.18,0-.34.03-.5.1-.15.06-.25.13-.28.19l-.03-.12c0-.12.06-.25.15-.38Zm2.01,2.63h-.67v-1.71l.67-.13v1.85Z"/>
      <path class="cls-1" d="m20.76,4.05c-.3-.18-.54-.43-.69-.75s-.24-.69-.24-1.1.08-.77.25-1.08c.17-.31.42-.55.74-.72.32-.17.7-.25,1.15-.25.33,0,.62.03.88.09.25.06.46.13.64.23l-.04.68c-.15-.08-.35-.15-.6-.22s-.52-.1-.81-.1c-.32,0-.59.06-.81.17-.22.11-.39.27-.5.48-.11.21-.17.45-.17.74,0,.3.06.56.17.77.12.22.28.38.49.5.21.11.46.17.74.17.19,0,.38-.01.57-.04s.34-.06.46-.09c.02,0,.05-.02.07-.02l-.13.26v-1.14s.34.12.34.12h-1.68v-.61h2v1.76s-.04.03-.05.03c-.17.1-.4.2-.7.28-.3.08-.64.12-1.01.12-.42,0-.78-.09-1.09-.27Z"/>
      <path class="cls-1" d="m24.34,1.24h.67v3.03h-.67V1.24Zm.83.6c.14-.19.31-.34.52-.47.2-.12.4-.18.58-.18l-.05.73c-.12,0-.28.03-.46.08-.18.06-.35.13-.5.21-.15.08-.25.16-.28.22l-.03-.04c.01-.18.09-.37.23-.55Z"/>
      <path class="cls-1" d="m28.43,1.3c.16.08.29.18.39.32.1.14.16.3.2.48v1.13c0,.15-.04.3-.12.47-.08.17-.21.31-.4.44-.18.12-.42.18-.71.18-.27,0-.5-.06-.71-.19s-.37-.31-.48-.54c-.12-.24-.17-.51-.17-.83s.06-.57.18-.81.28-.42.5-.56c.22-.14.47-.2.75-.2.22,0,.41.04.57.11Zm.28,2.14c.17-.16.25-.39.25-.68s-.09-.51-.26-.69c-.17-.18-.4-.27-.7-.27-.27,0-.49.09-.65.26-.17.18-.25.41-.25.69s.08.51.25.68c.16.17.38.25.66.25.3,0,.54-.08.71-.25Zm.94.83h-.67V1.24h.67v3.03Z"/>
      <path class="cls-1" d="m29.99,1.24h.75l1.13,3.03h-.67l-1.21-3.03Zm1.54,4.24h-.73l.7-1.21h.51l-.48,1.21Zm.95-4.24h.72l-1.19,3.03h-.61l1.08-3.03Z"/>
    </g>
  </g>
</svg>