<?xml version="1.0" encoding="UTF-8"?>
<svg id="_レイヤー_2" data-name="レイヤー 2" xmlns="http://www.w3.org/2000/svg" viewBox="0 0 33.28 4.29">
  <defs>
    <style>
      .cls-1 {
        fill: #ffd7e0;
        stroke-width: 0px;
      }
    </style>
  </defs>
  <g id="NewColor_ALL">
    <g>
      <path class="cls-1" d="m.7,4.24h-.7V.16h.7v4.08ZM2.78,1.8c-.28.17-.67.25-1.17.25H.16v-.32h1.6c.22,0,.39-.04.51-.12s.18-.21.18-.4c0-.15-.06-.26-.17-.32-.11-.06-.28-.09-.5-.09H.16V.16h1.7c.43,0,.76.07.99.21.23.14.34.37.34.69s-.14.58-.41.75Zm.18,2.14c-.27.2-.66.29-1.19.29H.16v-.66h1.65c.27,0,.47-.05.61-.16s.21-.27.21-.51c0-.15-.03-.26-.09-.35s-.15-.15-.28-.19-.27-.06-.45-.06H.16v-.32h1.7c.51,0,.89.08,1.13.23s.37.41.37.77c0,.44-.13.76-.4.96Z"/>
      <path class="cls-1" d="m3.88,1.21h.67v1.72l-.67.13v-1.85Zm2.01,2.64c-.1.13-.23.24-.4.32-.17.08-.34.12-.53.12-.25,0-.46-.05-.61-.15-.16-.1-.28-.24-.35-.42-.08-.18-.11-.4-.11-.67l.67-.13c0,.24.06.42.18.54s.29.18.5.18c.18,0,.34-.03.5-.1.15-.06.25-.13.28-.19l.03.11c0,.12-.06.25-.15.38Zm.1-2.64h.67v3.03h-.67V1.21Z"/>
      <path class="cls-1" d="m8.17,4.24h-.67V0h.67v4.24Zm.54-.07c-.16-.08-.29-.18-.39-.32-.1-.14-.16-.3-.2-.48v-1.13c0-.15.04-.3.12-.47s.21-.31.4-.44c.18-.12.42-.18.71-.18.27,0,.5.06.71.19.21.12.37.31.48.54s.17.51.17.83-.06.57-.18.81-.28.42-.5.56c-.22.14-.47.2-.75.2-.22,0-.41-.04-.57-.11Zm-.28-2.15c-.17.16-.25.39-.25.68s.09.51.26.69c.17.18.4.27.7.27.27,0,.49-.09.66-.26.16-.17.25-.41.25-.7s-.08-.5-.25-.67c-.17-.17-.38-.25-.65-.25-.3,0-.54.08-.71.25Z"/>
      <path class="cls-1" d="m12.04,4.24h-.67V0h.67v4.24Zm.54-.07c-.16-.08-.29-.18-.39-.32-.1-.14-.16-.3-.2-.48v-1.13c0-.15.04-.3.12-.47s.21-.31.4-.44c.18-.12.42-.18.71-.18.27,0,.5.06.71.19.21.12.37.31.48.54s.17.51.17.83-.06.57-.18.81-.28.42-.5.56c-.22.14-.47.2-.75.2-.22,0-.41-.04-.57-.11Zm-.28-2.15c-.17.16-.25.39-.25.68s.09.51.26.69c.17.18.4.27.7.27.27,0,.49-.09.66-.26.16-.17.25-.41.25-.7s-.08-.5-.25-.67c-.17-.17-.38-.25-.65-.25-.3,0-.54.08-.71.25Z"/>
      <path class="cls-1" d="m15.91,4.24h-.67V0h.67v4.24Z"/>
      <path class="cls-1" d="m17.07,2.91v-.45h2.09l-.16.04c0-.15-.04-.27-.11-.39-.07-.11-.17-.2-.3-.27-.13-.06-.27-.1-.44-.1-.28,0-.5.09-.66.26-.16.18-.24.42-.24.72,0,.2.04.37.12.51.08.14.2.24.35.31s.34.11.57.11c.18,0,.38-.03.6-.09.22-.06.4-.13.55-.23l.04.56c-.19.13-.39.23-.6.29-.21.06-.45.09-.71.09-.32,0-.61-.06-.85-.19-.24-.13-.43-.31-.56-.55-.13-.24-.2-.51-.2-.83s.07-.58.2-.82c.13-.24.32-.42.56-.55.24-.13.52-.19.83-.19.29,0,.55.06.78.18.23.12.41.29.54.5.13.21.2.45.2.72,0,.17,0,.29-.02.35h-2.58Z"/>
      <path class="cls-1" d="m22.16,4.24h-.7V.16h.7v4.08Zm2.09-2.43c-.28.17-.67.25-1.17.25h-1.45v-.32h1.6c.22,0,.39-.04.51-.12.12-.08.19-.21.19-.4,0-.15-.06-.26-.17-.32s-.28-.09-.5-.09h-1.62V.16h1.7c.43,0,.76.07.99.21.23.14.34.37.34.69s-.14.58-.42.75Zm.18,2.14c-.27.2-.66.29-1.19.29h-1.62v-.66h1.65c.27,0,.47-.05.61-.16.14-.1.21-.27.21-.51,0-.15-.03-.26-.09-.35s-.15-.15-.28-.19-.27-.06-.45-.06h-1.65v-.32h1.7c.51,0,.89.08,1.13.23.25.15.37.41.37.77,0,.44-.13.76-.4.96Z"/>
      <path class="cls-1" d="m26.07,4.24h-.67V0h.67v4.24Z"/>
      <path class="cls-1" d="m26.86,1.21h.67v1.72l-.67.13v-1.85Zm2.01,2.64c-.1.13-.23.24-.4.32-.17.08-.34.12-.53.12-.25,0-.46-.05-.62-.15-.16-.1-.28-.24-.35-.42-.08-.18-.11-.4-.11-.67l.67-.13c0,.24.06.42.18.54s.29.18.5.18c.18,0,.34-.03.5-.1.15-.06.25-.13.29-.19l.03.11c0,.12-.06.25-.15.38Zm.1-2.64h.67v3.03h-.67V1.21Z"/>
      <path class="cls-1" d="m30.68,2.91v-.45h2.09l-.16.04c0-.15-.04-.27-.11-.39-.07-.11-.17-.2-.3-.27-.13-.06-.27-.1-.44-.1-.28,0-.5.09-.66.26-.16.18-.24.42-.24.72,0,.2.04.37.12.51.08.14.2.24.35.31.16.07.34.11.57.11.18,0,.38-.03.6-.09s.4-.13.55-.23l.04.56c-.19.13-.39.23-.6.29s-.45.09-.71.09c-.32,0-.61-.06-.85-.19-.24-.13-.43-.31-.56-.55-.13-.24-.2-.51-.2-.83s.07-.58.2-.82c.13-.24.32-.42.56-.55s.52-.19.83-.19c.29,0,.55.06.78.18.23.12.41.29.54.5.13.21.19.45.19.72,0,.17,0,.29-.02.35h-2.59Z"/>
    </g>
  </g>
</svg>