<?xml version="1.0" encoding="UTF-8"?>
<svg id="_レイヤー_2" data-name="レイヤー 2" xmlns="http://www.w3.org/2000/svg" viewBox="0 0 37.97 11.98">
  <defs>
    <style>
      .cls-1 {
        fill: #c97291;
        stroke-width: 0px;
      }
    </style>
  </defs>
  <g id="NewColor_ALL">
    <g>
      <path class="cls-1" d="m0,7.65l.05-.13c.1,0,.29-.02.38-.13.27-.33.69-2.13,1.06-3.52.32-1.24.86-3.19.76-3.51-.04-.11-.21-.13-.31-.13l.03-.14h1.19l1.17,6.05.59-2.27c.32-1.24.86-3.19.75-3.51-.03-.11-.21-.13-.31-.13l.04-.14h1.25l-.04.14c-.11,0-.29.02-.38.13-.28.34-.72,2.24-1.05,3.53l-.97,3.77h-.26L2.53.74l-.8,3.14c-.36,1.39-.87,3.16-.76,3.5.04.11.22.13.32.13l-.04.13H0Z"/>
      <path class="cls-1" d="m6.22,4.79c-.37,1.33-.14,2.57.69,2.57s1.65-1.05,2.01-1.68l.16.04c-.48.92-1.34,2.02-2.47,2.02s-1.52-1.22-1.06-2.95c.42-1.67,1.45-2.81,2.57-2.81,1.46,0,1.76,1.63.42,2.12-.88.32-1.41.4-2.3.6,0,.03-.02.07-.03.09Zm1.94-2.57c-1.05,0-1.6,1.48-1.85,2.31l1.62-.51c.39-.12.78-.55.83-1.04.04-.26,0-.76-.6-.76Z"/>
      <path class="cls-1" d="m13.65,2.13c-.24,1.18-1.12,3.7-1.2,4.52-.04.38.04.66.29.66.08,0,.2-.04.34-.11,1.04-.59,2.42-3,2.07-4.48,0,0-.33-.07-.29-.33.05-.29.27-.42.53-.42.22,0,.34.17.38.34.23.93-1.24,4.87-3.19,5.36-.08.02-.17.03-.23.03-.41,0-.62-.32-.57-.82.03-.24.14-.73.3-1.32-.38.75-1.14,2.09-2.13,2.09-.39,0-.59-.27-.53-.77.09-.92,1.14-3.95.98-4.33-.05-.09-.36.32-.54.82l-.1-.04c.09-.5.64-1.4,1.04-1.4.07,0,.14.03.21.1.45.53-.81,3.46-.92,4.62-.04.39,0,.64.22.64.07,0,.15-.03.26-.09.7-.4,1.48-1.76,1.89-3.03.22-.81.43-1.59.52-2.03h.67Z"/>
      <path class="cls-1" d="m17.72,7.78c-1.26,0-1.86-1.36-1.19-3.96.67-2.63,1.95-3.81,3.23-3.81.48,0,.88.17,1.15.52l.32-.52h.16l-.54,1.85h-.18c-.02-1.15-.38-1.61-.96-1.61-1.1,0-1.98,1.56-2.5,3.58-.52,2.05-.48,3.72.62,3.71.86,0,1.53-.57,2.31-2.22h.23c-.47,1.12-1.25,2.47-2.64,2.47Z"/>
      <path class="cls-1" d="m24.56,4.83c-.42,1.62-1.55,3.02-2.69,3.02s-1.56-1.4-1.13-3.02c.41-1.62,1.5-2.9,2.65-2.9s1.59,1.26,1.17,2.9Zm-1.23-2.69c-1.05,0-1.61,1.54-1.91,2.69-.3,1.18-.56,2.8.5,2.8s1.64-1.64,1.94-2.8c.31-1.17.53-2.69-.53-2.69Z"/>
      <path class="cls-1" d="m24.78,7.63c-.29,0-.48-.2-.37-.78.19-.91,1.59-5.84,1.51-6.33-.02-.06-.07-.07-.13-.07-.11,0-.27.06-.37.03l.09-.14c.39-.04.82-.25,1.26-.25l-1.37,5.43c-.22.73-.4,1.33-.36,1.6.02.06.06.08.08.08.18,0,.5-.76.51-.85l.08.05c-.23.89-.65,1.24-.96,1.24Z"/>
      <path class="cls-1" d="m30.27,4.83c-.42,1.62-1.55,3.02-2.69,3.02s-1.56-1.4-1.13-3.02c.41-1.62,1.5-2.9,2.65-2.9s1.59,1.26,1.17,2.9Zm-1.23-2.69c-1.05,0-1.61,1.54-1.91,2.69-.3,1.18-.56,2.8.5,2.8s1.64-1.64,1.94-2.8c.31-1.17.53-2.69-.53-2.69Z"/>
      <path class="cls-1" d="m31.09,7.39c.02.09.19.13.3.13l-.03.12h-1.5l.03-.12c.12,0,.3-.04.37-.13.24-.31.55-1.59.66-2,.32-1.22.65-2.39.58-2.8-.02-.06-.07-.08-.12-.08-.11,0-.27.07-.38.03l.09-.13c.22-.02.43-.09.66-.16.2-.06.39-.1.6-.1l-.91,3.42c.62-1.34,1.68-3.5,2.4-3.5.38,0,.57.29.49.81-.04.23-.22.47-.44.47-.05,0-.1,0-.15-.04-.34-.22,0-.72-.2-.74-.43-.02-1.7,2.42-2.35,4.04-.07.34-.11.64-.09.8Z"/>
      <path class="cls-1" d="m34.31,6.03c.07,0,.14.02.22.06.53.25-.52,1.35.67,1.54.75.11,1.17-.31,1.3-.84.37-1.5-2.03-2.12-1.5-3.65.25-.72.98-1.14,1.71-1.14.47,0,1.08.19,1.21.69.08.3-.03.61-.26.61-.04,0-.08,0-.13-.03-.52-.21.2-.98-.74-1.1-.53-.06-1.05.44-1.21.88-.43,1.19,1.94,1.86,1.56,3.44-.22.92-1.23,1.42-2,1.33-1.25-.15-1.47-1.78-.84-1.78Z"/>
    </g>
    <g>
      <path class="cls-1" d="m14.34,8.88h.15v3.07h-.15v-3.07Zm.12,3.06v-.13h.47c.26,0,.46-.05.61-.14s.26-.24.32-.44.1-.49.1-.84-.04-.62-.11-.82c-.07-.2-.18-.34-.33-.43-.15-.09-.35-.13-.59-.13h-.47v-.13h.53c.4,0,.68.12.86.36.17.24.26.62.26,1.13,0,.38-.04.68-.11.9-.07.23-.19.39-.36.5-.17.11-.41.16-.71.16h-.46Z"/>
      <path class="cls-1" d="m16.62,10.75v-.11h1.18l-.09.03c0-.23-.02-.41-.05-.54s-.08-.23-.15-.29c-.07-.06-.16-.09-.28-.09-.2,0-.35.09-.44.26-.09.17-.14.45-.14.83,0,.23.02.42.07.57.05.15.12.26.21.34.09.08.21.11.36.11.11,0,.2-.02.28-.06.08-.04.14-.09.2-.14l.02.14c-.05.06-.13.1-.22.14s-.19.05-.29.05c-.17,0-.31-.04-.42-.13-.11-.08-.2-.21-.25-.39-.05-.17-.08-.39-.08-.65s.03-.48.08-.66c.05-.18.13-.31.23-.4.1-.09.23-.13.39-.13.14,0,.25.03.34.1.09.07.16.17.2.31.04.14.07.32.07.54,0,.06,0,.12-.01.18h-1.2Z"/>
      <path class="cls-1" d="m18.58,11.95h-.14v-3.19h.14v3.19Zm.24-.1c-.09-.08-.16-.19-.2-.32s-.06-.25-.06-.38v-.78c.02-.15.05-.28.1-.39.05-.11.12-.2.21-.26.09-.06.19-.09.31-.09.14,0,.26.04.36.13.1.09.18.22.23.39s.08.39.08.64c0,.27-.03.49-.08.67-.06.18-.14.31-.24.39-.1.08-.22.13-.36.13s-.26-.04-.35-.13Zm-.09-1.85c-.1.17-.15.44-.15.8s.05.64.14.81c.09.17.24.26.43.26.17,0,.31-.08.42-.24.1-.16.15-.44.15-.83,0-.37-.05-.64-.15-.8-.1-.16-.24-.24-.41-.24-.19,0-.34.09-.43.26Z"/>
      <path class="cls-1" d="m20.44,9.67h.14v1.61l-.14.05v-1.66Zm.9,2.07c-.05.07-.12.13-.19.18-.08.05-.17.07-.27.07-.11,0-.2-.02-.26-.07-.06-.05-.11-.12-.13-.21s-.04-.22-.04-.37l.14-.05c0,.21.02.36.07.45s.13.14.27.14c.12,0,.23-.04.31-.11.08-.07.15-.17.21-.28l.02.03c-.02.08-.06.16-.11.23Zm.07-2.07h.14v2.28h-.14v-2.28Z"/>
      <path class="cls-1" d="m22.23,9.78l.04-.11h.47l-.02.13h-.66v-.03l.26-.49h.04v2.29h-.14v-1.78Zm.08,2.1c-.05-.07-.08-.17-.08-.32h.14c0,.1.02.18.05.23.04.05.09.07.17.07.04,0,.08,0,.12-.02s.07-.02.08-.03v.11s-.06.03-.1.04c-.04.01-.08.02-.13.02-.11,0-.19-.03-.25-.1Z"/>
      <path class="cls-1" d="m23.39,11.94s-.04-.06-.04-.1.01-.07.04-.1.06-.04.1-.04.07.01.1.04.04.06.04.1-.01.07-.04.1-.06.04-.1.04-.07-.01-.1-.04Zm.15-.77h-.09l-.04-2.42h.16l-.04,2.42Z"/>
    </g>
  </g>
</svg>