<?xml version="1.0" encoding="UTF-8"?>
<svg id="_レイヤー_2" data-name="レイヤー 2" xmlns="http://www.w3.org/2000/svg" viewBox="0 0 3.36 53.81">
  <defs>
    <style>
      .cls-1 {
        fill: #c97291;
        stroke-width: 0px;
      }
    </style>
  </defs>
  <g id="NewColor_ALL">
    <g>
      <path class="cls-1" d="m2.12.84l.12-.69c.01-.09.06-.14.15-.14.1,0,.18.06.18.18,0,0-.01.07-.01.1l-.1.56h.3c.18,0,.27.1.27.3s-.1.29-.27.29h-.4l-.13.77h.28c.18,0,.27.1.27.3s-.1.29-.27.29h-.38l-.12.69c-.01.09-.06.14-.15.14-.1,0-.18-.06-.18-.18,0-.02,0-.05.01-.07l.1-.59h-.51l-.12.69c-.01.09-.06.14-.15.14-.11,0-.19-.06-.19-.18,0-.02,0-.06.01-.08l.1-.58h-.3c-.18,0-.28-.1-.28-.3s.11-.29.28-.29h.4l.13-.77h-.28c-.18,0-.28-.11-.28-.31s.11-.29.28-.29h.38l.12-.69c.02-.09.07-.14.15-.14.11,0,.19.07.19.18,0,.02,0,.05-.01.07l-.1.59h.51Zm-.75,1.36h.51l.13-.77h-.51l-.13.77Z"/>
      <path class="cls-1" d="m2.14,9.74c.66,0,1.15.4,1.15,1.17,0,.51-.24.95-.67,1.16-.27.14-.6.18-.89.18-.45,0-1.12-.12-1.12-.76,0-.53.42-.76.84-.76s.77.2.77.71c0,.05,0,.11-.02.16.27-.08.45-.32.45-.64,0-.25-.12-.48-.33-.58-.13-.06-.29-.08-.43-.08-.56,0-.95.27-1.33.68-.07.08-.15.16-.25.16-.16,0-.31-.17-.31-.35,0-.1.03-.17.11-.23.06-.05.13-.11.21-.17.43-.35.86-.7,1.27-1.07.05-.04.09-.08.13-.12-.13,0-.34.02-.55.04-.22.02-.43.03-.52.03-.2,0-.31-.1-.31-.33,0-.18.08-.29.24-.31.04,0,.25-.02.48-.02.27,0,.58,0,.68-.01.24-.01.45-.02.68-.02.2,0,.35.05.35.3,0,.13-.04.22-.16.32-.09.07-.19.14-.33.23-.18.12-.33.24-.49.37.13-.05.22-.06.36-.06Zm0,8.45c.66,0,1.15.4,1.15,1.17,0,.51-.24.95-.67,1.16-.27.14-.6.18-.89.18-.45,0-1.12-.12-1.12-.76,0-.53.42-.76.84-.76s.77.2.77.71c0,.05,0,.11-.02.16.27-.08.45-.32.45-.64,0-.25-.12-.48-.33-.58-.13-.06-.29-.08-.43-.08-.56,0-.95.27-1.33.68-.07.08-.15.16-.25.16-.16,0-.31-.17-.31-.35,0-.1.03-.17.11-.23.06-.05.13-.11.21-.17.43-.35.86-.7,1.27-1.07.05-.04.09-.08.13-.12-.13,0-.34.02-.55.04-.22.02-.43.03-.52.03-.2,0-.31-.1-.31-.33,0-.18.08-.29.24-.31.04,0,.25-.02.48-.02.27,0,.58,0,.68-.01.24-.01.45-.02.68-.02.2,0,.35.05.35.3,0,.13-.04.22-.16.32-.09.07-.19.14-.33.23-.18.12-.33.24-.49.37.13-.05.22-.06.36-.06Zm-.1-10.25c-.28.07-.59.11-.88.11-.1,0-.21,0-.28-.09-.06-.07-.09-.16-.09-.26,0-.29.19-.3.4-.3h.1c.32-.01.75-.08,1-.3.17-.15.29-.37.29-.62,0-.41-.26-.55-.59-.55-.42,0-.9.19-1.25.41-.05.03-.1.06-.16.09-.07.04-.15.07-.22.07-.2,0-.32-.2-.32-.38,0-.21.15-.29.33-.38.4-.2.73-.3,1.16-.38.15-.03.29-.05.44-.05.3,0,.68.07.92.3.22.21.33.52.33.84,0,.83-.48,1.31-1.17,1.48Zm0,8.45c-.28.07-.59.11-.88.11-.1,0-.21,0-.28-.09-.06-.07-.09-.16-.09-.26,0-.29.19-.3.4-.3h.1c.32-.01.75-.08,1-.3.17-.15.29-.37.29-.62,0-.41-.26-.55-.59-.55-.42,0-.9.19-1.25.41-.05.03-.1.06-.16.09-.07.04-.15.07-.22.07-.2,0-.32-.2-.32-.38,0-.21.15-.29.33-.38.4-.2.73-.3,1.16-.38.15-.03.29-.05.44-.05.3,0,.68.07.92.3.22.21.33.52.33.84,0,.83-.48,1.31-1.17,1.48ZM.33,44.1c-.18,0-.29-.1-.29-.31s.1-.31.29-.31h2.52c.24,0,.38.11.38.38,0,.11-.03.23-.05.34-.14.6-.44,1.07-.93,1.39-.31.2-.67.31-1.03.38-.09.01-.22.04-.3.04-.2,0-.32-.13-.32-.35,0-.3.23-.28.54-.33.49-.08,1.01-.29,1.27-.79.04-.08.13-.28.13-.36,0-.07-.05-.07-.1-.07H.33Zm.72-2.82c-.14.17-.46.52-.68.52-.15,0-.29-.19-.29-.35,0-.15.1-.24.2-.32.31-.26.52-.46.69-.86.11-.27.18-.55.21-.84H.4c-.2,0-.31-.08-.31-.32s.11-.32.31-.32h.81v-.21c0-.33.01-.53.31-.53.31,0,.32.19.32.38,0,.12,0,.24,0,.36h.84c.44,0,.51.25.51.68,0,.31-.02.63-.03.94-.02.3-.05.67-.14.94-.14.41-.46.44-.8.44-.14,0-.41,0-.52-.08-.09-.06-.12-.19-.12-.3,0-.2.09-.31.27-.31.11,0,.24.03.35.03.22,0,.29-.07.32-.31.04-.3.07-.88.07-1.18,0-.11,0-.2-.13-.2h-.67c-.08.7-.3,1.33-.73,1.85Zm-.64,9.07c.05,0,.11.02.22.08.21.11.5.28.69.41.18.13.32.22.32.4,0,.15-.14.39-.32.39-.1,0-.2-.08-.28-.14-.22-.17-.46-.32-.7-.46-.12-.07-.23-.14-.23-.3,0-.17.14-.37.3-.37Zm1.94-1.27c.08,0,.13-.05.13-.14v-1.54c0-.09-.05-.14-.13-.14H.52c-.19,0-.3-.11-.3-.33s.11-.33.3-.33h2.08c.37,0,.52.16.52.58v1.99c0,.41-.15.58-.52.58H.48c-.19,0-.3-.11-.3-.33s.11-.33.3-.33h1.87Zm1.01,2c0,.13-.06.32-.11.44-.19.54-.46,1.03-.85,1.42-.43.44-.92.65-1.48.79-.11.03-.29.07-.4.07-.21,0-.31-.18-.31-.39,0-.26.14-.3.34-.33.55-.08.98-.25,1.32-.53.38-.32.65-.78.86-1.42.06-.2.08-.35.28-.35.17,0,.35.1.35.31Zm-.61-8.65c.19,0,.29.11.29.32s-.1.31-.29.31H.62c-.19,0-.28-.1-.28-.31s.09-.31.28-.32h2.13Zm-1.69-10.65c0,.25-.13.32-.33.32s-.31-.1-.31-.32v-1.74c0-.25.13-.33.33-.33s.3.1.31.33v1.74Zm-.24-27.54s.13.02.24.04c.26.06.56.09.83.11.2.02.41.03.58.05.19.01.33.08.33.33,0,.1-.03.23-.1.29-.06.05-.13.06-.2.06-.34,0-1.23-.13-1.58-.19-.17-.03-.36-.07-.36-.32,0-.19.08-.36.27-.36Zm0,8.45s.13.02.24.04c.26.06.56.09.83.11.2.02.41.03.58.05.19.01.33.08.33.33,0,.1-.03.23-.1.29-.06.05-.13.06-.2.06-.34,0-1.23-.13-1.58-.19-.17-.03-.36-.07-.36-.32,0-.19.08-.36.27-.36Zm2.14,18.82c0,.65-.19,1.19-.73,1.5-.34.2-.81.33-1.2.33-.21,0-.34-.12-.34-.36,0-.25.15-.29.38-.31.34-.03.76-.11,1.01-.39.19-.21.23-.46.23-.74v-1.55c0-.25.13-.33.33-.33s.3.1.31.33v1.53Zm.03-8.66c.18.1.32.19.32.38s-.13.42-.32.42c-.09,0-.17-.05-.3-.13-.35-.23-.76-.47-1.14-.62v1.69c0,.25-.1.35-.33.35s-.32-.1-.32-.35v-3.09c0-.25.1-.35.32-.35s.33.1.33.35v.69c.48.16,1,.4,1.44.65Zm-1.23-11.3c0-.21-.12-.29-.3-.29-.12,0-.31.05-.31.22,0,.2.3.24.43.24.06,0,.1,0,.16-.02.01-.05.02-.1.02-.14Zm0,8.45c0-.21-.12-.29-.3-.29-.12,0-.31.05-.31.22,0,.2.3.24.43.24.06,0,.1,0,.16-.02.01-.05.02-.1.02-.14Zm.27,8.77c0,.26-.09.38-.33.38s-.33-.11-.33-.38v-2.98c0-.27.09-.38.33-.38.27,0,.32.15.33.38v2.98Zm0,8.45c0,.26-.09.38-.33.38s-.33-.11-.33-.38v-2.98c0-.27.09-.38.33-.38.27,0,.32.15.33.38v2.98Zm.47-15.38c-.02-.06-.04-.17-.06-.24-.02-.06-.04-.12-.04-.17,0-.09.08-.13.15-.13.09,0,.13.11.17.23.03.08.08.25.08.33,0,.1-.06.15-.14.15s-.11-.06-.14-.17Zm.46-.03c-.02-.07-.05-.18-.08-.27-.04-.1-.04-.13-.04-.17,0-.09.08-.14.15-.14.08,0,.12.09.15.18.03.1.1.28.1.38s-.06.15-.15.15c-.08,0-.1-.04-.13-.13Z"/>
    </g>
  </g>
</svg>