<?xml version="1.0" encoding="UTF-8"?>
<svg id="_レイヤー_2" data-name="レイヤー 2" xmlns="http://www.w3.org/2000/svg" viewBox="0 0 16 1.87">
  <defs>
    <style>
      .cls-1 {
        fill: #ffd7e0;
        stroke-width: 0px;
      }
    </style>
  </defs>
  <g id="NewColor_ALL">
    <g>
      <path class="cls-1" d="m.3.71c.25.11.46.25.66.45l-.15.2c-.24-.28-.43-.36-.59-.43v.88h-.22V.17l.18.03c.06.01.08.02.08.03,0,.01-.01.02-.02.03-.02.02-.02.02-.02.03v.54l.07-.13Zm.57-.08c-.06-.07-.12-.13-.21-.19l.1-.09c.11.06.17.13.22.18l-.1.1Zm.25-.14c-.05-.06-.12-.13-.21-.19l.09-.1s.13.08.22.2l-.1.09Z"/>
      <path class="cls-1" d="m2.79.88v.23h-1.46v-.23h1.46Z"/>
      <path class="cls-1" d="m3.14.21h.18c.06.01.09.02.09.04,0,.01-.04.05-.04.06v.87h-.23V.21Zm.82-.03h.2c.05.01.08.01.08.04,0,0-.01.02-.03.03-.01.01-.01.02-.01.05,0,.16-.01.61-.03.75-.06.5-.44.7-.62.8l-.16-.2c.28-.1.58-.27.58-.87V.19Z"/>
      <path class="cls-1" d="m4.71,1.07c-.04-.12-.09-.21-.16-.31l.16-.07s.09.12.16.31l-.17.06Zm.08.58c.48-.19.66-.5.77-1.03l.15.05s.06.02.06.03-.01.02-.02.03c-.02.01-.02.02-.02.03-.08.3-.2.76-.78,1.03l-.15-.14Zm.29-.67c-.03-.13-.08-.22-.14-.32l.15-.06c.07.11.11.21.15.33l-.17.05Z"/>
      <path class="cls-1" d="m6.43,1.02c-.15-.12-.3-.18-.41-.22l.11-.2c.06.02.26.09.42.22l-.12.19Zm-.31.59c.67-.25,1.01-.61,1.23-1l.15.19c-.34.53-.71.74-1.13.97-.02.01-.03.02-.04.05,0,.01,0,.03-.02.03-.02,0-.04-.03-.05-.04l-.14-.21Zm.52-1.06c-.11-.07-.24-.15-.41-.2l.11-.19c.13.04.28.1.42.21l-.12.19Z"/>
      <path class="cls-1" d="m8.43,1.48c.06-.31.07-.35.1-.6h-.59v-.18h.8c-.05.37-.06.41-.12.78h.39v.18h-1.33v-.18h.74Z"/>
      <path class="cls-1" d="m9.29.57v-.21h1.12s.06,0,.1-.04l.19.19q-.06.04-.14.29c-.08.23-.25.69-.92,1.02l-.19-.18c.59-.26.81-.62.93-1.07h-1.09Zm1.23-.29c-.07-.09-.12-.13-.18-.18l.09-.09c.06.04.12.09.2.18l-.11.09Zm.3,0c-.04-.06-.09-.12-.18-.19l.09-.08c.07.05.12.1.18.19l-.1.09Z"/>
      <path class="cls-1" d="m11.03.88v-.21h1.11s.06,0,.12-.06l.2.19c-.09.06-.11.09-.14.17-.19.48-.47.73-.88.89l-.2-.17c.51-.17.73-.4.86-.82h-1.08Zm1.16-.65v.21h-.97v-.21h.97Z"/>
      <path class="cls-1" d="m13.31.14h.2c.07.02.08.02.08.04,0,0,0,.01-.02.03-.02.01-.02.02-.02.03v.24h.35s.08-.02.11-.05l.16.18c-.05.05-.06.09-.07.14-.06.39-.17.79-.74,1.12l-.19-.17c.66-.31.69-.85.7-1.01h-.93v.44h-.22V.48h.59V.14Z"/>
      <path class="cls-1" d="m14.82.74c-.05-.06-.18-.22-.36-.35l.16-.18c.15.11.29.25.37.34l-.17.19Zm1.17.08c-.44.51-.71.63-1.21.85-.1.04-.11.05-.12.08,0,.02-.01.03-.03.03-.02,0-.02,0-.05-.06l-.1-.22c.83-.22,1.17-.61,1.4-.89l.11.21Z"/>
    </g>
  </g>
</svg>