<?xml version="1.0" encoding="UTF-8"?>
<svg id="_レイヤー_2" data-name="レイヤー 2" xmlns="http://www.w3.org/2000/svg" viewBox="0 0 25.97 5.51">
  <defs>
    <style>
      .cls-1 {
        fill: #c5a3d4;
        stroke-width: 0px;
      }
    </style>
  </defs>
  <g id="NewColor_single">
    <g>
      <path class="cls-1" d="m0,5.37l.03-.09c.07,0,.2-.01.26-.09.19-.23.49-1.49.74-2.47C1.26,1.84,1.64.47,1.57.24c-.03-.08-.14-.09-.22-.09l.02-.1h.83l.82,4.25.41-1.59c.22-.87.6-2.24.53-2.47-.02-.08-.14-.09-.22-.09l.03-.1h.87l-.03.1c-.08,0-.2.01-.27.09-.2.24-.51,1.57-.74,2.48l-.68,2.64h-.18L1.78.52l-.56,2.2c-.25.97-.61,2.22-.53,2.46.03.08.15.09.22.09l-.03.09h-.88Z"/>
      <path class="cls-1" d="m4.5,3.36c-.26.93-.1,1.8.49,1.8s1.16-.74,1.41-1.18l.11.03c-.34.64-.94,1.42-1.74,1.42s-1.07-.85-.74-2.07c.3-1.17,1.02-1.97,1.8-1.97,1.03,0,1.24,1.14.3,1.49-.62.22-.99.28-1.61.42,0,.02-.01.05-.02.07Zm1.36-1.8c-.74,0-1.12,1.04-1.3,1.62l1.14-.35c.28-.09.55-.39.59-.73.03-.18,0-.53-.42-.53Z"/>
      <path class="cls-1" d="m9.84,1.49c-.17.83-.78,2.6-.84,3.17-.03.27.03.46.2.46.06,0,.14-.03.24-.08.73-.41,1.7-2.1,1.45-3.14,0,0-.23-.05-.2-.23.03-.2.19-.3.38-.3.15,0,.24.12.27.24.16.65-.87,3.42-2.24,3.76-.06.01-.12.02-.16.02-.29,0-.43-.22-.4-.58.02-.17.1-.51.21-.93-.27.53-.8,1.47-1.49,1.47-.28,0-.41-.19-.38-.54.07-.64.8-2.78.69-3.04-.03-.07-.25.22-.38.58l-.07-.03c.07-.35.45-.98.73-.98.05,0,.1.02.14.07.32.37-.57,2.43-.64,3.24-.03.28,0,.45.15.45.05,0,.11-.02.18-.07.49-.28,1.04-1.24,1.33-2.12.15-.57.3-1.12.36-1.43h.47Z"/>
      <path class="cls-1" d="m13.6,5.46c-.88,0-1.31-.95-.83-2.78.47-1.85,1.37-2.68,2.27-2.68.34,0,.62.12.81.37l.22-.37h.11l-.38,1.3h-.12c-.01-.81-.27-1.13-.68-1.13-.77,0-1.39,1.1-1.76,2.51-.37,1.44-.33,2.61.43,2.6.6,0,1.07-.4,1.62-1.56h.16c-.33.79-.88,1.74-1.85,1.74Z"/>
      <path class="cls-1" d="m18.53,3.39c-.3,1.14-1.09,2.12-1.89,2.12s-1.09-.98-.8-2.12c.29-1.14,1.05-2.04,1.86-2.04s1.12.89.82,2.04Zm-.86-1.89c-.74,0-1.13,1.08-1.34,1.89-.21.83-.4,1.97.35,1.97s1.15-1.15,1.36-1.97c.22-.82.38-1.89-.37-1.89Z"/>
      <path class="cls-1" d="m19.02,5.35c-.2,0-.34-.14-.26-.55.13-.64,1.12-4.1,1.06-4.45-.01-.04-.05-.05-.09-.05-.08,0-.19.04-.26.02l.07-.1c.28-.03.57-.18.88-.18l-.96,3.81c-.15.51-.28.93-.25,1.12.01.04.04.06.06.06.12,0,.35-.53.36-.6l.06.03c-.16.62-.45.87-.67.87Z"/>
      <path class="cls-1" d="m23,3.39c-.3,1.14-1.09,2.12-1.89,2.12s-1.09-.98-.8-2.12c.29-1.14,1.05-2.04,1.86-2.04s1.12.89.82,2.04Zm-.86-1.89c-.74,0-1.13,1.08-1.34,1.89-.21.83-.4,1.97.35,1.97s1.15-1.15,1.36-1.97c.22-.82.38-1.89-.37-1.89Z"/>
      <path class="cls-1" d="m23.69,5.19c.01.07.13.09.21.09l-.02.09h-1.05l.02-.09c.09,0,.21-.03.26-.09.17-.22.39-1.12.46-1.41.22-.85.45-1.68.41-1.97-.01-.04-.05-.05-.09-.05-.08,0-.19.05-.26.02l.07-.09c.15-.01.3-.07.46-.11.14-.04.28-.07.42-.07l-.64,2.4c.43-.94,1.18-2.46,1.68-2.46.26,0,.4.2.34.57-.03.16-.16.33-.31.33-.03,0-.07,0-.1-.03-.24-.15,0-.51-.14-.52-.3-.01-1.19,1.7-1.65,2.83-.05.24-.08.45-.07.56Z"/>
    </g>
  </g>
</svg>