<?xml version="1.0" encoding="UTF-8"?>
<svg id="_レイヤー_2" data-name="レイヤー 2" xmlns="http://www.w3.org/2000/svg" viewBox="0 0 53.68 8.86">
  <defs>
    <style>
      .cls-1 {
        fill: #fff;
        stroke-width: 0px;
      }
    </style>
  </defs>
  <g id="NewColor_single">
    <g>
      <path class="cls-1" d="m0,.31h1.13v6.59H0V.31Zm.26,6.58v-1.07h2.38c.46,0,.83-.08,1.13-.25.3-.17.52-.42.66-.76.14-.34.22-.75.22-1.25s-.07-.9-.22-1.22-.36-.57-.66-.74c-.3-.17-.67-.25-1.13-.25H.26V.31h2.46c1.02,0,1.8.27,2.33.81.53.54.79,1.34.79,2.4,0,.74-.12,1.36-.37,1.86s-.61.88-1.09,1.14c-.48.25-1.08.38-1.79.38H.26Z"/>
      <path class="cls-1" d="m7.69,6.66c-.4-.21-.71-.51-.93-.89-.22-.38-.33-.82-.33-1.32s.11-.92.33-1.3c.22-.38.53-.69.93-.9.4-.22.85-.32,1.36-.32s.96.11,1.36.32c.4.21.71.52.93.9.22.39.33.82.33,1.3s-.11.93-.33,1.32c-.22.38-.53.68-.93.89-.4.21-.85.32-1.36.32s-.96-.11-1.36-.32Zm2.44-1.09c.28-.28.42-.65.42-1.12s-.14-.84-.42-1.12c-.28-.28-.64-.43-1.08-.43s-.8.14-1.08.43c-.28.28-.42.66-.42,1.12s.14.84.42,1.12c.28.28.64.42,1.08.42s.8-.14,1.08-.42Z"/>
      <path class="cls-1" d="m13.83,6.9h-1.08V.05h1.08v6.85Z"/>
      <path class="cls-1" d="m16.27,6.9h-1.08V.05h1.08v6.85Z"/>
      <path class="cls-1" d="m17.69,1.19c-.14-.14-.21-.3-.21-.49s.07-.35.21-.49.3-.21.49-.21.35.07.49.21c.14.14.21.3.21.49s-.07.35-.21.49c-.14.14-.3.21-.49.21s-.35-.07-.49-.21Zm-.05.82h1.08v4.9h-1.08V2.01Z"/>
      <path class="cls-1" d="m22.77,5.18c-.09-.08-.24-.15-.45-.21-.08-.02-.17-.04-.26-.06-.09-.02-.19-.04-.3-.05l-.12-.02c-.44-.08-.8-.18-1.08-.32-.28-.13-.49-.3-.63-.5-.14-.2-.21-.43-.21-.71,0-.42.19-.76.57-1.02.38-.25.88-.38,1.52-.38.38,0,.75.04,1.12.13s.63.2.8.33l-.11.89c-.19-.11-.46-.21-.81-.29-.35-.08-.68-.13-.97-.13-.35,0-.61.03-.78.1-.17.07-.25.18-.25.33,0,.16.08.28.23.35.16.07.45.15.88.24.02,0,.04,0,.05,0s.03,0,.05,0c.69.13,1.19.32,1.49.56.3.24.45.57.45.99,0,.31-.09.58-.28.81-.19.23-.45.41-.78.54-.34.13-.73.19-1.17.19-.39,0-.78-.06-1.18-.18-.4-.12-.71-.27-.95-.46l.07-.97c.2.18.5.32.91.44.4.12.8.18,1.19.18s.66-.04.85-.13c.19-.09.28-.22.28-.39,0-.12-.04-.21-.13-.29Z"/>
      <path class="cls-1" d="m25.92,6.9h-1.08V.05h1.08v6.85Zm.16-4.26c.16-.21.37-.38.64-.51s.55-.2.86-.2c.4,0,.74.08.99.23.26.16.45.38.57.68s.18.65.18,1.08l-1.08.22c0-.39-.1-.68-.29-.88-.2-.19-.47-.29-.81-.29-.29,0-.55.05-.8.16s-.4.21-.46.31l-.05-.19c0-.2.09-.4.25-.61Zm3.25,4.26h-1.08v-2.77l1.08-.22v2.99Z"/>
      <path class="cls-1" d="m33.57,6.56c-.49-.29-.87-.7-1.12-1.21-.25-.52-.38-1.11-.38-1.78s.14-1.25.41-1.75c.27-.5.67-.89,1.19-1.17s1.14-.41,1.86-.41c.54,0,1.01.05,1.42.14.41.09.75.22,1.03.37l-.07,1.1c-.24-.12-.56-.24-.96-.35-.4-.11-.84-.17-1.31-.17-.52,0-.95.09-1.31.27-.36.18-.62.44-.8.78s-.27.73-.27,1.19c0,.48.09.9.28,1.25s.45.62.79.8c.34.18.74.27,1.2.27.31,0,.62-.02.92-.06.3-.04.54-.09.74-.15.04-.01.08-.03.12-.04l-.21.42v-1.84s.56.2.56.2h-2.71v-.98h3.23v2.85s-.06.04-.08.05c-.27.17-.64.32-1.13.46-.48.13-1.03.2-1.64.2-.68,0-1.26-.14-1.76-.44Z"/>
      <path class="cls-1" d="m39.35,2.01h1.08v4.9h-1.08V2.01Zm1.34.97c.22-.3.5-.56.83-.75.33-.2.64-.3.94-.3l-.09,1.18c-.2,0-.45.05-.74.14-.29.09-.56.2-.81.34s-.4.25-.46.36l-.05-.07c.02-.29.14-.59.37-.9Z"/>
      <path class="cls-1" d="m45.97,2.11c.26.12.47.3.63.52.16.22.26.48.32.77v1.82c0,.23-.06.49-.2.76-.13.27-.34.51-.64.71s-.68.3-1.14.3c-.43,0-.81-.1-1.15-.3s-.59-.5-.78-.88c-.19-.38-.28-.83-.28-1.34s.09-.93.28-1.31c.19-.38.46-.69.81-.91s.76-.33,1.22-.33c.35,0,.66.06.92.19Zm.46,3.46c.27-.26.41-.63.41-1.1s-.14-.82-.42-1.11c-.28-.29-.65-.44-1.13-.44-.44,0-.79.14-1.06.43-.27.28-.4.66-.4,1.12s.13.82.4,1.09c.26.27.62.41,1.06.41.49,0,.87-.13,1.14-.4Zm1.51,1.34h-1.08V2.01h1.08v4.9Z"/>
      <path class="cls-1" d="m48.49,2.01h1.21l1.83,4.9h-1.09l-1.96-4.9Zm2.5,6.85h-1.17l1.13-1.96h.82l-.77,1.96Zm1.53-6.85h1.17l-1.92,4.9h-.99l1.74-4.9Z"/>
    </g>
  </g>
</svg>