<?xml version="1.0" encoding="UTF-8"?>
<svg id="_レイヤー_2" data-name="レイヤー 2" xmlns="http://www.w3.org/2000/svg" viewBox="0 0 82.8 3.57">
  <defs>
    <style>
      .cls-1 {
        fill: none;
        stroke: #fff;
        stroke-width: .11px;
      }

      .cls-2 {
        fill: #fff;
        stroke-width: 0px;
      }
    </style>
  </defs>
  <g id="NewColor_single">
    <g>
      <g>
        <path class="cls-2" d="m13.27,2.51h-.18s-.04-.02-.04-.03v-.73s0,0,0,0v-.09s0-.56,0-.56c0,0,0-.02,0-.02v-.04h-.48s-.03,0-.03.02c0,0,0,.01.03.01h.17s.02.02.02.03v1.37s0,.03-.02.03h-.18s-.03,0-.03.02,0,.02.02.02h.71s.02,0,.02-.02c0-.02-.01-.02-.02-.02"/>
        <path class="cls-2" d="m14.29,2.51h-.15s-.01-.02-.02-.02l-.68-.91s0-.01,0-.02l.46-.41s.09-.07.14-.07h.13s.02,0,.02-.02c0-.01,0-.02-.02-.02h-.63s-.02,0-.02.02,0,.02.02.02h.3s.02.02.02.02c0,0,0,0,0,.02l-.62.55s0,0-.01.01c-.01.02-.02.05,0,.11h0s.52.69.52.69c0,0,0,0,0,.01,0,0,0,.02-.02.02h-.23s-.02,0-.02.02,0,.02.02.02h.79s.02,0,.02-.02-.01-.02-.02-.02"/>
        <path class="cls-2" d="m3.72,2.51h.16s.04-.03.04-.05v-1.29s.02-.09-.07-.09h-.12s-.03,0-.03-.02c0-.01,0-.02,0-.02h.02s.12,0,.12,0h.04s.02,0,.03,0h.14s.22,0,.22,0c.02,0,.04.02.05.03l.39.8s.02.01.03,0l.4-.79h0s0,0,.02,0c0,0,0,0,.01,0,0,0,0,0,.01.01h0s0,0,0,0l-.56,1.15s0,.02-.03.02-.03-.01-.03-.03l-.54-1.11s-.05-.02-.06,0h0v1.32s.02.05.05.05h.19s.02,0,.02.02,0,.02-.02.02h-.5s-.02,0-.02-.02.01-.02.03-.02"/>
        <path class="cls-2" d="m5.09,2.51h.16s.05-.03.05-.05v-1.31s.01-.06.02-.07c0,0,.02-.03.07-.03h.03s0,0,0,0h.39s.03,0,.03.02c0,.01,0,.02-.02.02h-.11c-.11,0-.11.05-.11.09v1.3s0,.05.03.05h.21s.02,0,.02.02,0,.01-.03.01h-.73s-.02,0-.02-.01,0-.02.02-.02"/>
        <path class="cls-2" d="m11.1,1.44l.28.73.12.31s0,.01,0,.01c0,0,0,.02-.01.02h-.28s-.02,0-.02.02,0,.02.02.02h.82s.03,0,.03-.02-.01-.02-.03-.02h-.19s-.01-.02-.02-.02l-.56-1.43s-.01-.03-.03-.03c-.02,0-.03.02-.03.03l-.1.27s-.01.06,0,.09h0"/>
        <path class="cls-2" d="m10.45,2.55s-.03,0-.03-.01c0-.02.01-.02.03-.02h.15s0-.02,0-.02l.36-.91s.02-.02.03-.02c0,0,.01,0,.02,0,0,0,.01.02.01.03v.02s-.2.5-.2.5c0,0,0,0,0,0h.37s.03.02.03.03c0,0,0,.02,0,.02,0,0-.01.01-.03.01h0s-.39,0-.39,0c0,0,0,0,0,0l-.12.31h0s0,.02,0,.02h.19s.03,0,.03.02c0,0,0,.01-.03.01h-.41Z"/>
        <path class="cls-2" d="m8.61,1.05s-.02,0-.02.02,0,.02.02.02h.15s.03.03.03.04v1.35s-.01.04-.03.04h-.16s-.02,0-.02.01c0,.01,0,.02.02.02h1.23s.03-.01.03-.03v-.41s0-.02-.02-.02c-.01,0-.02.01-.02.02-.04.29-.19.41-.53.41h-.18s-.03-.02-.03-.03v-1.36s0,0,0-.02v-.05s-.48,0-.48,0Z"/>
        <path class="cls-2" d="m7.27,1.09h0s0,0,0,0c0,0,0,0,0,0h0s0,0,0,0h0s0,0,0,0h0s0,0,0,0c-.02,0-.02,0-.02.01,0,0,0,.02.01.02h0s0,0,0,0h0s0,0,0,0c.07.01.12.04.17.07.12.1.14.3.14.62s-.02.51-.14.61c-.05.04-.1.07-.16.08h0s0,0,0,0h0s0,0,0,0h0s-.02.02-.02.02c0,0,0,.01.02.02h0s0,0,0,0h0s0,0,0,0h0c.38-.05.64-.35.64-.73s-.27-.67-.64-.73"/>
        <path class="cls-2" d="m7.07,2.51h0s-.03,0-.04-.01c-.05-.01-.1-.04-.15-.08-.12-.1-.14-.31-.14-.61s.02-.52.14-.62c0,0,.02-.02.03-.02,0,0,0,0,.01,0,0,0,.01,0,.02,0,0,0,0,0,0,0,0,0,.01,0,.02,0,0,0,.01,0,.02,0h0s.01,0,.01,0c.01,0,.03,0,.04-.01h0s0,0,0,0c.01,0,.02-.01.01-.02,0,0,0-.01-.02-.02h0s0,0,0,0c0,0,0,0,0,0,0,0,0,0,0,0h0s0,0,0,0c0,0,0,0,0,0-.37.06-.64.36-.64.73s.26.68.64.73h0s0,0,0,0c0,0,0,0,0,0h0s0,0,0,0h0s0,0,0,0h0s0,0,0,0h0s0,0,0,0c.01,0,.02,0,.02-.02,0,0,0-.01,0-.01"/>
      </g>
      <line class="cls-1" y1=".05" x2="82.8" y2=".05"/>
      <line class="cls-1" y1="3.52" x2="82.8" y2="3.52"/>
      <line class="cls-1" x1="16.17" y1=".04" x2="16.17" y2="3.46"/>
      <g>
        <path class="cls-2" d="m18.08,2.28c.15-.18.42-.54.5-1.14l.21.05s.07.02.07.04c0,0,0,.01-.02.03-.02.01-.03.02-.04.1-.03.14-.16.65-.48,1.03l-.23-.11Zm1.52.03c-.09-.43-.26-.81-.48-1.06l.19-.12c.32.4.45.78.52,1.09l-.24.09Zm.03-1.1c-.05-.07-.11-.12-.18-.19l.1-.09s.12.1.19.19l-.11.09Zm.22-.15c-.07-.09-.16-.17-.19-.19l.1-.09c.1.07.17.17.19.2l-.1.09Z"/>
        <path class="cls-2" d="m20.13,1.32v-.21h1.12s.06,0,.1-.04l.19.19q-.06.04-.14.29c-.08.23-.25.69-.92,1.02l-.19-.18c.59-.26.81-.62.93-1.07h-1.09Zm1.23-.29c-.07-.09-.12-.13-.19-.18l.09-.09c.06.04.12.09.2.18l-.11.09Zm.3,0c-.04-.06-.09-.12-.18-.2l.09-.08c.07.05.12.1.18.18l-.1.09Z"/>
        <path class="cls-2" d="m21.8,2.25c.36-.25.42-.47.42-.94,0-.12,0-.2,0-.26l.21.03c.06,0,.06.01.06.03,0,.01-.01.03-.02.04-.02.02-.03.02-.03.08,0,.52,0,.82-.47,1.2l-.17-.17Zm.9-1.2l.21.03c.06,0,.07,0,.07.03,0,.01,0,.02-.03.04-.03.02-.03.03-.03.05v.92c.16-.11.37-.27.55-.57l.14.18c-.07.11-.29.42-.77.7l-.14-.12v-1.27Z"/>
        <path class="cls-2" d="m23.82,1.32v-.21h1.12s.06,0,.1-.04l.19.19q-.06.04-.14.29c-.08.23-.25.69-.92,1.02l-.19-.18c.59-.26.81-.62.93-1.07h-1.09Zm1.23-.29c-.07-.09-.12-.13-.19-.18l.09-.09c.06.04.12.09.2.18l-.11.09Zm.3,0c-.04-.06-.09-.12-.18-.2l.09-.08c.07.05.12.1.18.18l-.1.09Z"/>
        <path class="cls-2" d="m25.49,2.25c.36-.25.42-.47.42-.94,0-.12,0-.2,0-.26l.21.03c.06,0,.06.01.06.03,0,.01-.01.03-.02.04-.02.02-.03.02-.03.08,0,.52,0,.82-.47,1.2l-.17-.17Zm.9-1.2l.21.03c.06,0,.07,0,.07.03,0,.01,0,.02-.03.04-.03.02-.03.03-.03.05v.92c.16-.11.37-.27.55-.57l.14.18c-.07.11-.29.42-.77.7l-.14-.12v-1.27Z"/>
        <path class="cls-2" d="m28.95,1.63v.22h-1.46v-.22h1.46Z"/>
      </g>
    </g>
  </g>
</svg>