<?xml version="1.0" encoding="UTF-8"?>
<svg id="_レイヤー_2" data-name="レイヤー 2" xmlns="http://www.w3.org/2000/svg" viewBox="0 0 82.78 3.57">
  <defs>
    <style>
      .cls-1 {
        fill: none;
        stroke: #fff;
        stroke-width: .11px;
      }

      .cls-2 {
        fill: #fff;
        stroke-width: 0px;
      }
    </style>
  </defs>
  <g id="NewColor_single">
    <g>
      <g>
        <path class="cls-2" d="m13.33,2.51h-.18s-.04-.02-.04-.03v-.73s0,0,0,0v-.09s0-.56,0-.56c0,0,0-.02,0-.02v-.04h-.48s-.03,0-.03.02c0,0,0,.01.03.01h.17s.02.02.02.03v1.37s0,.03-.02.03h-.18s-.03,0-.03.02,0,.02.02.02h.71s.02,0,.02-.02c0-.02-.01-.02-.02-.02"/>
        <path class="cls-2" d="m14.35,2.51h-.15s-.01-.02-.02-.02l-.68-.91s0-.01,0-.02l.46-.41s.09-.07.14-.07h.13s.02,0,.02-.02c0-.01,0-.02-.02-.02h-.63s-.02,0-.02.02,0,.02.02.02h.3s.02.02.02.02c0,0,0,0,0,.02l-.62.55s0,0-.01.01c-.01.02-.02.05,0,.11h0s.52.69.52.69c0,0,0,0,0,.01,0,0,0,.02-.02.02h-.23s-.02,0-.02.02,0,.02.02.02h.79s.02,0,.02-.02-.01-.02-.02-.02"/>
        <path class="cls-2" d="m3.78,2.51h.16s.04-.03.04-.05v-1.29s.02-.09-.07-.09h-.12s-.03,0-.03-.02c0-.01,0-.02,0-.02h.02s.12,0,.12,0h.04s.02,0,.03,0h.14s.22,0,.22,0c.02,0,.04.02.05.03l.39.8s.02.01.03,0l.4-.79h0s0,0,.02,0c0,0,0,0,.01,0,0,0,0,0,.01.01h0s0,0,0,0l-.56,1.15s0,.02-.03.02-.03-.01-.03-.03l-.54-1.11s-.05-.02-.06,0h0v1.32s.02.05.05.05h.19s.02,0,.02.02,0,.02-.02.02h-.5s-.02,0-.02-.02.01-.02.03-.02"/>
        <path class="cls-2" d="m5.14,2.51h.16s.05-.03.05-.05v-1.31s.01-.06.02-.07c0,0,.02-.03.07-.03h.03s0,0,0,0h.39s.03,0,.03.02c0,.01,0,.02-.02.02h-.11c-.11,0-.11.05-.11.09v1.3s0,.05.03.05h.21s.02,0,.02.02,0,.01-.03.01h-.73s-.02,0-.02-.01,0-.02.02-.02"/>
        <path class="cls-2" d="m11.15,1.44l.28.73.12.31s0,.01,0,.01c0,0,0,.02-.01.02h-.28s-.02,0-.02.02,0,.02.02.02h.82s.03,0,.03-.02-.01-.02-.03-.02h-.19s-.01-.02-.02-.02l-.56-1.43s-.01-.03-.03-.03c-.02,0-.03.02-.03.03l-.1.27s-.01.06,0,.09h0"/>
        <path class="cls-2" d="m10.51,2.55s-.03,0-.03-.01c0-.02.01-.02.03-.02h.15s0-.02,0-.02l.36-.91s.02-.02.03-.02c0,0,.01,0,.02,0,0,0,.01.02.01.03v.02s-.2.5-.2.5c0,0,0,0,0,0h.37s.03.02.03.03c0,0,0,.02,0,.02,0,0-.01.01-.03.01h0s-.39,0-.39,0c0,0,0,0,0,0l-.12.31h0s0,.02,0,.02h.19s.03,0,.03.02c0,0,0,.01-.03.01h-.41Z"/>
        <path class="cls-2" d="m8.66,1.05s-.02,0-.02.02,0,.02.02.02h.15s.03.03.03.04v1.35s-.01.04-.03.04h-.16s-.02,0-.02.01c0,.01,0,.02.02.02h1.23s.03-.01.03-.03v-.41s0-.02-.02-.02c-.01,0-.02.01-.02.02-.04.29-.19.41-.53.41h-.18s-.03-.02-.03-.03v-1.36s0,0,0-.02v-.05s-.48,0-.48,0Z"/>
        <path class="cls-2" d="m7.33,1.09h0s0,0,0,0c0,0,0,0,0,0h0s0,0,0,0h0s0,0,0,0h0s0,0,0,0c-.02,0-.02,0-.02.01,0,0,0,.02.01.02h0s0,0,0,0h0s0,0,0,0c.07.01.12.04.17.07.12.1.14.3.14.62s-.02.51-.14.61c-.05.04-.1.07-.16.08h0s0,0,0,0h0s0,0,0,0h0s-.02.02-.02.02c0,0,0,.01.02.02h0s0,0,0,0h0s0,0,0,0h0c.38-.05.64-.35.64-.73s-.27-.67-.64-.73"/>
        <path class="cls-2" d="m7.13,2.51h0s-.03,0-.04-.01c-.05-.01-.1-.04-.15-.08-.12-.1-.14-.31-.14-.61s.02-.52.14-.62c0,0,.02-.02.03-.02,0,0,0,0,.01,0,0,0,.01,0,.02,0,0,0,0,0,0,0,0,0,.01,0,.02,0,0,0,.01,0,.02,0h0s.01,0,.01,0c.01,0,.03,0,.04-.01h0s0,0,0,0c.01,0,.02-.01.01-.02,0,0,0-.01-.02-.02h0s0,0,0,0c0,0,0,0,0,0,0,0,0,0,0,0h0s0,0,0,0c0,0,0,0,0,0-.37.06-.64.36-.64.73s.26.68.64.73h0s0,0,0,0c0,0,0,0,0,0h0s0,0,0,0h0s0,0,0,0h0s0,0,0,0h0s0,0,0,0c.01,0,.02,0,.02-.02,0,0,0-.01,0-.01"/>
      </g>
      <g>
        <path class="cls-2" d="m18.66,1.52c.25.11.46.25.66.45l-.15.21c-.24-.28-.43-.36-.59-.43v.88h-.22V.98l.18.03c.06.01.08.02.08.04,0,0-.01.02-.02.03-.02.02-.02.02-.02.03v.54l.07-.13Zm.57-.08c-.06-.07-.12-.13-.21-.19l.1-.09c.11.06.17.13.22.18l-.1.1Zm.25-.14c-.05-.06-.12-.13-.21-.19l.09-.1s.13.08.22.2l-.1.09Z"/>
        <path class="cls-2" d="m21.15,1.69v.23h-1.46v-.23h1.46Z"/>
        <path class="cls-2" d="m21.5,1.02h.18c.06.01.09.02.09.04,0,0-.04.05-.04.06v.87h-.23v-.97Zm.82-.03h.2c.05.01.08.01.08.04,0,0-.01.02-.03.03-.01.01-.01.02-.01.05,0,.17-.01.61-.03.75-.06.5-.44.7-.62.8l-.16-.2c.28-.1.58-.27.58-.87v-.61Z"/>
        <path class="cls-2" d="m23.07,1.88c-.04-.12-.09-.21-.16-.31l.16-.07s.09.12.16.31l-.17.06Zm.08.58c.48-.2.66-.5.77-1.04l.15.05s.06.02.06.03c0,.01-.01.02-.02.03-.02.01-.02.02-.02.04-.08.3-.2.76-.78,1.03l-.15-.14Zm.29-.67c-.03-.13-.08-.22-.14-.32l.15-.07c.07.11.11.21.15.33l-.17.05Z"/>
        <path class="cls-2" d="m24.79,1.83c-.15-.12-.3-.18-.41-.22l.11-.2c.06.02.26.09.42.22l-.12.2Zm-.31.59c.67-.25,1.01-.61,1.23-1l.15.19c-.34.53-.71.74-1.13.97-.02.01-.03.02-.04.05,0,0,0,.03-.02.03-.02,0-.04-.03-.05-.04l-.14-.21Zm.52-1.06c-.11-.07-.24-.15-.41-.2l.11-.19c.13.04.28.1.42.21l-.12.19Z"/>
        <path class="cls-2" d="m26.79,2.28c.06-.31.07-.34.1-.6h-.59v-.18h.8c-.05.37-.06.41-.12.78h.39v.18h-1.33v-.18h.74Z"/>
        <path class="cls-2" d="m28.8,1.23s.05,0,.1-.04l.18.2c-.08.05-.09.06-.12.13-.17.47-.38.84-.91,1.17l-.21-.15c.47-.24.73-.58.91-1.1h-.54c-.09.13-.22.32-.4.46l-.2-.13c.23-.16.45-.43.58-.8l.18.07s.07.03.07.04c0,.01-.01.02-.04.03,0,0-.06.11-.07.13h.47Zm.03-.1c-.06-.07-.12-.13-.19-.19l.11-.08c.07.05.13.1.19.18l-.11.08Zm.31,0c-.08-.12-.15-.18-.18-.21l.11-.07c.07.06.13.12.19.2l-.12.09Z"/>
        <path class="cls-2" d="m29.51,1.05l.2.02s.08,0,.08.03c0,0,0,.02-.02.02-.03.02-.03.02-.03.04v1.04c.56-.16.87-.52,1-.66l.12.22c-.21.23-.53.52-1.24.76l-.11-.08v-1.39Z"/>
        <path class="cls-2" d="m32.51,1.69v.23h-1.46v-.23h1.46Z"/>
      </g>
      <line class="cls-1" y1=".05" x2="82.78" y2=".05"/>
      <line class="cls-1" y1="3.52" x2="82.78" y2="3.52"/>
      <line class="cls-1" x1="16.23" y1=".04" x2="16.23" y2="3.46"/>
    </g>
  </g>
</svg>