<?xml version="1.0" encoding="UTF-8"?>
<svg id="_レイヤー_2" data-name="レイヤー 2" xmlns="http://www.w3.org/2000/svg" viewBox="0 0 53.81 6.94">
  <defs>
    <style>
      .cls-1 {
        fill: #fff;
        stroke-width: 0px;
      }
    </style>
  </defs>
  <g id="NewColor_single">
    <g>
      <path class="cls-1" d="m1.13,6.85H0V.26h1.13v6.59Zm3.37-3.94c-.45.27-1.08.4-1.9.4H.26v-.52h2.58c.35,0,.63-.06.83-.19.2-.13.3-.34.3-.65,0-.25-.09-.42-.27-.51-.18-.09-.45-.14-.81-.14H.26V.26h2.75c.7,0,1.23.11,1.6.33.37.22.55.59.55,1.12s-.22.94-.67,1.2Zm.3,3.46c-.43.32-1.07.48-1.92.48H.26v-1.07h2.66c.44,0,.77-.08.99-.25.22-.17.33-.44.33-.82,0-.24-.05-.42-.15-.57-.1-.14-.25-.25-.45-.31-.2-.06-.44-.1-.72-.1H.26v-.52h2.75c.82,0,1.43.12,1.83.37.4.25.6.66.6,1.24,0,.72-.22,1.24-.65,1.55Z"/>
      <path class="cls-1" d="m6.28,1.96h1.08v2.78l-1.08.22V1.96Zm3.25,4.27c-.16.21-.37.38-.64.51-.27.13-.55.2-.86.2-.4,0-.74-.08-.99-.24-.26-.16-.45-.38-.57-.67-.12-.29-.18-.65-.18-1.08l1.08-.22c0,.39.1.68.29.88.2.19.47.29.81.29.29,0,.55-.05.8-.16.25-.1.4-.21.46-.31l.05.19c0,.2-.09.4-.25.61Zm.16-4.27h1.08v4.9h-1.08V1.96Z"/>
      <path class="cls-1" d="m13.21,6.85h-1.08V0h1.08v6.85Zm.87-.11c-.26-.12-.47-.3-.63-.52s-.26-.48-.32-.77v-1.82c0-.24.07-.49.2-.76.13-.27.34-.51.64-.71.3-.2.68-.3,1.14-.3.43,0,.81.1,1.15.3s.59.49.78.88c.19.38.28.83.28,1.34s-.09.93-.28,1.31c-.19.38-.46.69-.81.91s-.76.33-1.22.33c-.35,0-.66-.06-.92-.19Zm-.46-3.48c-.27.26-.41.63-.41,1.1s.14.82.42,1.11c.28.29.65.44,1.13.44.44,0,.8-.14,1.06-.42.26-.28.4-.66.4-1.13s-.13-.81-.4-1.09-.62-.41-1.06-.41c-.49,0-.87.13-1.14.4Z"/>
      <path class="cls-1" d="m19.47,6.85h-1.08V0h1.08v6.85Zm.87-.11c-.26-.12-.47-.3-.63-.52s-.26-.48-.32-.77v-1.82c0-.24.07-.49.2-.76.13-.27.34-.51.64-.71.3-.2.68-.3,1.14-.3.43,0,.81.1,1.15.3s.59.49.78.88c.19.38.28.83.28,1.34s-.09.93-.28,1.31c-.19.38-.46.69-.81.91-.35.22-.76.33-1.22.33-.35,0-.66-.06-.92-.19Zm-.46-3.48c-.27.26-.41.63-.41,1.1s.14.82.42,1.11c.28.29.65.44,1.13.44.44,0,.8-.14,1.06-.42.26-.28.4-.66.4-1.13s-.13-.81-.4-1.09-.62-.41-1.06-.41c-.49,0-.87.13-1.14.4Z"/>
      <path class="cls-1" d="m25.72,6.85h-1.08V0h1.08v6.85Z"/>
      <path class="cls-1" d="m27.6,4.7v-.73h3.38l-.25.06c0-.24-.06-.44-.17-.63-.11-.18-.27-.33-.48-.43s-.44-.16-.71-.16c-.46,0-.81.14-1.07.43s-.39.67-.39,1.17c0,.32.07.59.2.82.13.23.32.4.57.51.25.11.56.17.92.17.29,0,.62-.05.96-.14.35-.09.65-.22.9-.37l.06.91c-.31.22-.63.37-.96.48-.34.1-.72.15-1.15.15-.52,0-.98-.1-1.37-.31-.39-.21-.69-.5-.91-.88-.21-.38-.32-.83-.32-1.34s.11-.95.32-1.33c.21-.38.51-.68.9-.89.39-.21.84-.31,1.35-.31.47,0,.89.1,1.26.29s.66.46.87.81c.21.34.31.73.31,1.17,0,.28-.01.47-.03.57l-4.18-.02Z"/>
      <path class="cls-1" d="m35.83,6.85h-1.13V.26h1.13v6.59Zm3.37-3.94c-.45.27-1.08.4-1.9.4h-2.34v-.52h2.58c.35,0,.63-.06.83-.19.2-.13.3-.34.3-.65,0-.25-.09-.42-.27-.51-.18-.09-.45-.14-.81-.14h-2.62V.26h2.75c.7,0,1.23.11,1.6.33.37.22.55.59.55,1.12s-.22.94-.67,1.2Zm.3,3.46c-.43.32-1.07.48-1.92.48h-2.61v-1.07h2.66c.44,0,.77-.08.99-.25.22-.17.33-.44.33-.82,0-.24-.05-.42-.15-.57s-.25-.25-.45-.31c-.2-.06-.44-.1-.73-.1h-2.66v-.52h2.75c.82,0,1.43.12,1.83.37.4.25.6.66.6,1.24,0,.72-.21,1.24-.65,1.55Z"/>
      <path class="cls-1" d="m42.15,6.85h-1.08V0h1.08v6.85Z"/>
      <path class="cls-1" d="m43.43,1.96h1.08v2.78l-1.08.22V1.96Zm3.25,4.27c-.16.21-.37.38-.64.51-.27.13-.56.2-.86.2-.4,0-.74-.08-.99-.24-.26-.16-.45-.38-.57-.67-.12-.29-.18-.65-.18-1.08l1.08-.22c0,.39.1.68.29.88.2.19.47.29.81.29.29,0,.55-.05.8-.16s.4-.21.46-.31l.05.19c0,.2-.09.4-.25.61Zm.16-4.27h1.08v4.9h-1.08V1.96Z"/>
      <path class="cls-1" d="m49.6,4.7v-.73h3.38l-.25.06c0-.24-.06-.44-.17-.63-.11-.18-.27-.33-.48-.43s-.44-.16-.71-.16c-.46,0-.81.14-1.07.43s-.39.67-.39,1.17c0,.32.07.59.2.82.13.23.32.4.57.51s.56.17.92.17c.29,0,.62-.05.96-.14.35-.09.65-.22.9-.37l.06.91c-.31.22-.63.37-.96.48-.34.1-.72.15-1.15.15-.52,0-.98-.1-1.37-.31-.39-.21-.69-.5-.91-.88s-.32-.83-.32-1.34.11-.95.32-1.33.51-.68.9-.89c.39-.21.84-.31,1.35-.31.47,0,.89.1,1.26.29.37.2.66.46.87.81s.31.73.31,1.17c0,.28,0,.47-.03.57l-4.18-.02Z"/>
    </g>
  </g>
</svg>