<?xml version="1.0" encoding="UTF-8"?>
<svg id="_レイヤー_2" data-name="レイヤー 2" xmlns="http://www.w3.org/2000/svg" viewBox="0 0 61.1 6.98">
  <defs>
    <style>
      .cls-1 {
        fill: #fff;
        stroke-width: 0px;
      }
    </style>
  </defs>
  <g id="NewColor_single">
    <g>
      <path class="cls-1" d="m0,.31h1.13v6.59H0V.31Zm.26,6.58v-1.07h2.38c.46,0,.83-.08,1.13-.25.3-.17.52-.42.66-.76.14-.34.22-.75.22-1.25s-.07-.9-.22-1.22c-.14-.33-.36-.57-.66-.74-.3-.17-.67-.25-1.13-.25H.26V.31h2.46c1.02,0,1.8.27,2.33.81.53.54.79,1.34.79,2.4,0,.74-.12,1.36-.37,1.86-.24.5-.61.88-1.09,1.14s-1.08.38-1.79.38H.26Z"/>
      <path class="cls-1" d="m7.65,6.66c-.4-.21-.71-.51-.93-.89-.22-.38-.33-.82-.33-1.32s.11-.92.33-1.3c.22-.39.53-.69.93-.9.4-.22.85-.32,1.36-.32s.96.11,1.36.32c.4.22.71.52.93.9.22.39.33.82.33,1.3s-.11.94-.33,1.32c-.22.38-.53.68-.93.89-.4.21-.85.32-1.36.32s-.96-.11-1.36-.32Zm2.44-1.09c.28-.28.42-.65.42-1.12s-.14-.84-.42-1.12c-.28-.28-.64-.43-1.08-.43s-.8.14-1.08.43c-.28.28-.42.66-.42,1.12s.14.84.42,1.12c.28.28.64.42,1.08.42s.8-.14,1.08-.42Z"/>
      <path class="cls-1" d="m13.76,6.9h-1.08V.05h1.08v6.85Z"/>
      <path class="cls-1" d="m16.17,6.9h-1.08V.05h1.08v6.85Z"/>
      <path class="cls-1" d="m17.56,1.19c-.14-.14-.21-.3-.21-.49s.07-.35.21-.49c.14-.14.3-.21.49-.21s.35.07.49.21.21.3.21.49-.07.35-.21.49c-.14.14-.3.21-.49.21s-.35-.07-.49-.21Zm-.05.82h1.08v4.9h-1.08V2.01Z"/>
      <path class="cls-1" d="m22.59,5.18c-.09-.08-.24-.15-.45-.21-.08-.02-.17-.04-.26-.06-.09-.02-.19-.04-.3-.05l-.12-.02c-.44-.08-.8-.18-1.08-.32-.28-.13-.49-.3-.63-.49s-.21-.43-.21-.71c0-.42.19-.76.57-1.02.38-.25.88-.38,1.52-.38.38,0,.75.04,1.12.13.37.09.63.2.8.33l-.11.89c-.19-.11-.46-.21-.81-.29-.35-.08-.68-.13-.97-.13-.35,0-.61.03-.78.1-.17.07-.25.18-.25.33,0,.16.08.28.23.35s.45.15.88.23c.02,0,.04.01.05.01s.03,0,.05,0c.69.13,1.19.32,1.49.56.3.24.45.57.45.99,0,.31-.09.58-.28.81-.19.23-.45.41-.78.54-.34.13-.73.19-1.17.19-.39,0-.78-.06-1.18-.18-.4-.12-.71-.27-.95-.46l.07-.97c.2.18.5.32.91.44.4.12.8.18,1.19.18s.66-.04.85-.13c.19-.09.28-.22.28-.39,0-.12-.04-.22-.13-.29Z"/>
      <path class="cls-1" d="m25.71,6.9h-1.08V.05h1.08v6.85Zm.16-4.26c.16-.21.37-.38.64-.51s.55-.2.86-.2c.4,0,.74.08.99.23s.45.38.57.68c.12.29.18.65.18,1.08l-1.08.22c0-.39-.1-.68-.29-.88-.2-.19-.47-.29-.81-.29-.29,0-.55.05-.8.16-.25.1-.4.21-.46.31l-.05-.19c0-.2.09-.4.25-.61Zm3.25,4.26h-1.08v-2.77l1.08-.22v2.99Z"/>
      <path class="cls-1" d="m33.3,6.9h-1.13V.31h1.13v6.59Zm3.37-3.94c-.45.27-1.08.4-1.9.4h-2.34v-.52h2.58c.35,0,.63-.06.83-.19s.3-.34.3-.65c0-.25-.09-.42-.27-.51-.18-.09-.45-.14-.81-.14h-2.62V.31h2.75c.7,0,1.23.11,1.6.33.37.22.55.59.55,1.12s-.22.94-.67,1.2Zm.3,3.46c-.43.32-1.07.48-1.92.48h-2.61v-1.07h2.66c.44,0,.77-.08.99-.25.22-.17.33-.44.33-.82,0-.23-.05-.42-.15-.57-.1-.14-.25-.25-.45-.31-.2-.06-.44-.1-.72-.1h-2.66v-.52h2.75c.82,0,1.43.12,1.83.37.4.25.6.66.6,1.24,0,.72-.22,1.24-.65,1.55Z"/>
      <path class="cls-1" d="m38.52,2.01h1.08v4.9h-1.08V2.01Zm1.34.97c.22-.3.5-.56.83-.75.33-.2.64-.3.94-.3l-.09,1.18c-.2,0-.45.05-.74.14-.29.09-.56.2-.81.34-.25.13-.4.25-.46.36l-.05-.07c.02-.29.14-.59.37-.9Z"/>
      <path class="cls-1" d="m43.31,6.66c-.4-.21-.71-.51-.93-.89s-.33-.82-.33-1.32.11-.92.33-1.3.53-.69.93-.9c.4-.22.85-.32,1.36-.32s.96.11,1.36.32c.4.22.71.52.93.9.22.39.33.82.33,1.3s-.11.94-.33,1.32c-.22.38-.53.68-.93.89-.4.21-.85.32-1.36.32s-.96-.11-1.36-.32Zm2.44-1.09c.28-.28.42-.65.42-1.12s-.14-.84-.42-1.12c-.28-.28-.64-.43-1.08-.43s-.8.14-1.08.43c-.28.28-.42.66-.42,1.12s.14.84.42,1.12.64.42,1.08.42.8-.14,1.08-.42Z"/>
      <path class="cls-1" d="m47.7,2.01h1.21l1.49,4.9h-.99l-1.71-4.9Zm3.39,0h1.05l-1.45,4.9h-.93l1.33-4.9Zm.34,0h1.09l1.33,4.9h-.98l-1.44-4.9Zm3.26,0h1.17l-1.71,4.9h-.93l1.48-4.9Z"/>
      <path class="cls-1" d="m57.64,6.9h-1.08V2.01h1.08v4.9Zm.18-4.29c.18-.2.41-.37.69-.49s.57-.19.87-.19c.38,0,.69.08.95.23.25.15.45.37.58.67.13.29.2.66.2,1.09l-1.08.22c0-.27-.04-.5-.12-.68-.08-.18-.2-.31-.37-.39s-.38-.12-.64-.1c-.26,0-.53.06-.8.16-.27.1-.44.2-.49.31l-.05-.19c0-.22.09-.42.26-.63Zm3.28,4.29h-1.08v-2.78l1.08-.22v3Z"/>
    </g>
  </g>
</svg>