<?xml version="1.0" encoding="UTF-8"?>
<svg id="_レイヤー_2" data-name="レイヤー 2" xmlns="http://www.w3.org/2000/svg" viewBox="0 0 82.77 5.41">
  <defs>
    <style>
      .cls-1 {
        fill: none;
        stroke: #fff;
        stroke-width: .11px;
      }

      .cls-2 {
        fill: #fff;
        stroke-width: 0px;
      }
    </style>
  </defs>
  <g id="NewColor_single">
    <g>
      <path class="cls-2" d="m10.15,1.89c.17,0,.36.05.5.15.23.16.29.45.29.71s-.08.58-.33.72c-.13.08-.3.11-.46.11h-.69v-1.7h.69Zm-.42,1.47h.43c.11,0,.23-.04.31-.11.15-.12.2-.34.2-.52,0-.2-.07-.44-.26-.54-.08-.04-.16-.07-.25-.07h-.43v1.24Z"/>
      <path class="cls-2" d="m11.52,3.58h-.27v-1.7h.27v1.7Z"/>
      <path class="cls-2" d="m12.76,1.89l.67,1.7h-.28l-.14-.36h-.82l-.14.36h-.28l.66-1.7h.32Zm-.49,1.13h.66l-.33-.88-.33.88Z"/>
    </g>
    <g>
      <path class="cls-2" d="m14.06,1.84h.06c.38,0,.48-.2.49-.35h.32v2h-.4v-1.38h-.48v-.28Z"/>
      <path class="cls-2" d="m16.82,3.05h-.22v.44h-.4v-.44h-.79v-.34l.74-1.22h.45v1.25h.22v.31Zm-.62-.31c0-.49,0-.8,0-.86h0l-.5.86h.5Z"/>
      <path class="cls-2" d="m17.5,3.5h-.42v-.41h.42v.41Z"/>
      <path class="cls-2" d="m17.78,2.2c0-.65.48-.71.65-.71.38,0,.69.23.69.63,0,.34-.22.52-.42.65-.27.19-.4.28-.45.37h.87v.35h-1.37c.01-.23.03-.48.47-.8.36-.26.51-.36.51-.59,0-.13-.08-.29-.28-.29-.28,0-.28.23-.29.38h-.38Z"/>
      <path class="cls-2" d="m21.58,3.5h-.4v-.91c0-.22-.1-.3-.21-.3-.2,0-.27.13-.27.31v.9h-.4v-.9c0-.13,0-.3-.24-.3-.19,0-.25.13-.25.29v.92h-.4v-1.5h.38v.22h0c.05-.1.16-.26.43-.26.22,0,.32.08.42.24.05-.07.16-.24.4-.24.29,0,.52.17.52.5v1.04Z"/>
      <path class="cls-2" d="m24.08,3.5h-.4v-.91c0-.22-.1-.3-.21-.3-.2,0-.27.13-.27.31v.9h-.4v-.9c0-.13,0-.3-.24-.3-.19,0-.25.13-.25.29v.92h-.4v-1.5h.38v.22h0c.05-.1.16-.26.43-.26.22,0,.32.08.42.24.05-.07.16-.24.4-.24.29,0,.52.17.52.5v1.04Z"/>
    </g>
    <g>
      <path class="cls-2" d="m57.9,1.89c.27,0,.5.14.5.43,0,.18-.09.29-.25.36.2.07.31.2.31.42,0,.32-.24.48-.53.48h-.94v-1.7h.91Zm-.64.72h.58c.08,0,.16-.02.21-.08.04-.04.07-.12.07-.17,0-.07-.04-.15-.09-.19-.05-.04-.12-.05-.18-.05h-.58v.49Zm0,.75h.61c.07,0,.15-.02.21-.06.07-.05.11-.13.11-.21s-.04-.16-.11-.21c-.06-.04-.15-.06-.22-.06h-.6v.54Z"/>
      <path class="cls-2" d="m59.5,3.63c-.24,0-.44-.05-.6-.24-.16-.18-.21-.42-.21-.65s.06-.48.21-.66c.15-.18.37-.25.6-.25.42,0,.66.23.72.63h-.27c0-.11-.04-.19-.11-.27-.09-.11-.22-.13-.35-.13-.21,0-.35.08-.44.27-.06.12-.08.27-.08.4,0,.2.05.43.21.56.09.07.21.09.32.09.29,0,.43-.15.46-.43h.28c-.07.42-.29.66-.73.66Z"/>
    </g>
    <g>
      <path class="cls-2" d="m61.41,3.55c-.52,0-.69-.34-.69-.61,0-.1,0-.37.3-.51-.16-.08-.24-.21-.24-.39,0-.34.27-.55.62-.55.42,0,.63.25.63.52,0,.17-.07.32-.23.4.19.1.3.22.3.48s-.16.65-.69.65Zm0-.95c-.14,0-.28.09-.28.31,0,.19.11.32.29.32.21,0,.29-.18.29-.32s-.07-.31-.29-.31Zm.25-.55c0-.15-.1-.25-.23-.25-.18,0-.27.1-.27.25,0,.12.09.25.26.25.16,0,.25-.1.25-.25Z"/>
      <path class="cls-2" d="m62.79,3.5h-.42v-.41h.42v.41Z"/>
      <path class="cls-2" d="m64.01,2c-.01-.11-.08-.19-.23-.19-.26,0-.32.29-.33.55h0c.05-.07.15-.16.38-.16.42,0,.61.32.61.62,0,.44-.27.73-.66.73-.61,0-.72-.51-.72-1.01,0-.38.05-1.05.75-1.05.08,0,.31.03.41.13.11.11.15.17.19.38h-.39Zm-.25.52c-.15,0-.3.09-.3.34,0,.22.12.37.31.37.14,0,.28-.11.28-.38,0-.25-.16-.34-.29-.34Z"/>
      <path class="cls-2" d="m66.87,3.5h-.4v-.91c0-.22-.1-.3-.21-.3-.2,0-.27.13-.27.31v.9h-.4v-.9c0-.13,0-.3-.24-.3-.19,0-.25.13-.25.29v.92h-.4v-1.5h.38v.22h0c.05-.1.16-.26.43-.26.22,0,.32.08.42.24.05-.07.16-.24.4-.24.29,0,.52.17.52.5v1.04Z"/>
      <path class="cls-2" d="m69.37,3.5h-.4v-.91c0-.22-.1-.3-.21-.3-.2,0-.27.13-.27.31v.9h-.4v-.9c0-.13,0-.3-.24-.3-.19,0-.25.13-.25.29v.92h-.4v-1.5h.38v.22h0c.05-.1.16-.26.43-.26.22,0,.32.08.42.24.05-.07.16-.24.4-.24.29,0,.52.17.52.5v1.04Z"/>
    </g>
    <g>
      <path class="cls-2" d="m31.01,2.77v-.16h.78v-.1h-.54v-.14h.54v-.1h-.71v-.15h.39s-.05-.1-.08-.14l.19-.05c.04.06.07.1.1.16l-.1.03h.46c.04-.05.06-.1.1-.18l.21.02s.04,0,.04.02c0,.02-.01.02-.04.04-.02,0-.02.01-.04.05-.01.02-.02.04-.03.05h.44v.15h-.71v.1h.53v.14h-.53v.1h.78v.16h-1.06s-.04.07-.07.1h.87v.85h-.2v-.06h-.7v.06h-.19v-.57c-.12.13-.27.21-.31.24l-.16-.14c.3-.15.44-.3.55-.47h-.49Zm1.3.23h-.7v.1h.7v-.1Zm0,.21h-.7v.1h.7v-.1Zm0,.21h-.7v.11h.7v-.11Z"/>
      <path class="cls-2" d="m33,2.49c.33-.2.48-.43.56-.57l.2.04s.04,0,.04.03c0,.01-.01.02-.04.03-.02.01-.03.03-.05.06h.61l.06.07c-.09.11-.19.21-.28.31h.51v.72h-.2v-.06h-.97v.29c0,.06.02.1.1.1h.91s.13,0,.15-.27l.19.11c-.06.35-.17.35-.26.35h-1.09c-.17,0-.2-.1-.2-.2v-.91s-.06.05-.1.07l-.16-.15Zm.87-.04c.06-.06.12-.13.18-.2h-.46c-.07.08-.11.13-.19.2h.48Zm-.42.18v.29h.37v-.29h-.37Zm.58.29h.39v-.29h-.39v.29Z"/>
      <path class="cls-2" d="m35.91,2.39v-.1h-.81v-.19h.81v-.15h.21s.07.01.07.04c0,.02-.02.03-.05.05-.02,0-.02.02-.02.03v.04h.7v.19h-.7v.1h.45v.92h-1.02v-.92h.36Zm-.72,1.3v-1.24h.22s.04,0,.04.02c0,.01-.01.02-.03.04-.02.01-.02.02-.02.04v.87h1.42v.17h-1.42v.08h-.21Zm1.17-1.14h-.61v.1h.61v-.1Zm0,.24h-.61v.11h.61v-.11Zm0,.26h-.61v.11h.61v-.11Z"/>
      <path class="cls-2" d="m37.69,2.48s.02.01.02.02c0,.01-.01.02-.04.03,0,0-.01,0-.05.06-.02.04-.04.07-.08.11.03.02.04.03.04.04,0,0,0,.01,0,.01-.03.02-.03.02-.03.03v.89h-.21v-.73s-.06.05-.07.07l-.16-.13c.18-.14.33-.3.41-.49l.18.1Zm-.04-.42s.05.03.05.04c0,.01-.01.01-.04.02-.02,0-.02,0-.03.02-.07.1-.22.26-.33.34l-.16-.14c.11-.08.28-.23.37-.39l.15.1Zm.31.15h-.21v-.17h.9l.09.07c-.12.19-.21.32-.38.47.16.08.29.13.55.16l-.15.19c-.21-.05-.37-.12-.54-.23-.17.11-.3.17-.49.25l-.16-.14c.21-.05.36-.13.49-.22-.1-.09-.13-.13-.26-.29l.15-.08Zm.15.59l.22.02s.03,0,.03.02c0,0-.03.04-.03.04v.13h.39v.18h-.39v.29h.56v.18h-1.25v-.18h.47v-.29h-.37v-.18h.37v-.21Zm-.14-.59c.08.11.14.19.24.26.11-.09.17-.16.24-.26h-.47Z"/>
    </g>
    <g>
      <path class="cls-2" d="m39.32,1.84h.06c.38,0,.48-.2.49-.35h.32v2h-.4v-1.38h-.48v-.28Z"/>
      <path class="cls-2" d="m41.19,2.34h.06c.12,0,.34-.01.34-.27,0-.07-.03-.26-.25-.26-.27,0-.27.26-.27.33h-.37c0-.38.21-.64.66-.64.27,0,.62.13.62.56,0,.2-.13.33-.24.38h0c.07.03.3.13.3.47,0,.38-.28.65-.68.65-.19,0-.7-.04-.7-.67h.39,0c0,.11.03.35.29.35.16,0,.3-.11.3-.33,0-.27-.27-.29-.45-.29v-.28Z"/>
      <path class="cls-2" d="m42.76,3.5h-.42v-.41h.42v.41Z"/>
      <path class="cls-2" d="m44.43,3.05h-.22v.44h-.4v-.44h-.79v-.34l.74-1.22h.45v1.25h.22v.31Zm-.62-.31c0-.49,0-.8,0-.86h0l-.5.86h.5Z"/>
      <path class="cls-2" d="m46.84,3.5h-.4v-.91c0-.22-.1-.3-.21-.3-.2,0-.27.13-.27.31v.9h-.4v-.9c0-.13,0-.3-.24-.3-.19,0-.25.13-.25.29v.92h-.4v-1.5h.38v.22h0c.05-.1.16-.26.43-.26.22,0,.32.08.42.24.05-.07.16-.24.4-.24.29,0,.52.17.52.5v1.04Z"/>
      <path class="cls-2" d="m49.34,3.5h-.4v-.91c0-.22-.1-.3-.21-.3-.2,0-.27.13-.27.31v.9h-.4v-.9c0-.13,0-.3-.24-.3-.19,0-.25.13-.25.29v.92h-.4v-1.5h.38v.22h0c.05-.1.16-.26.43-.26.22,0,.32.08.42.24.05-.07.16-.24.4-.24.29,0,.52.17.52.5v1.04Z"/>
    </g>
    <g>
      <line class="cls-1" x1="27.51" y1=".05" x2="27.51" y2="5.35"/>
      <line class="cls-1" x1="53.35" y1=".05" x2="53.35" y2="5.35"/>
      <g>
        <line class="cls-1" y1=".05" x2="82.77" y2=".05"/>
        <line class="cls-1" y1="5.35" x2="82.77" y2="5.35"/>
      </g>
    </g>
  </g>
</svg>