<?xml version="1.0" encoding="UTF-8"?>
<svg id="_レイヤー_2" data-name="レイヤー 2" xmlns="http://www.w3.org/2000/svg" viewBox="0 0 75.29 15.77">
  <defs>
    <style>
      .cls-1 {
        fill: #c87290;
        stroke-width: 0px;
      }
    </style>
  </defs>
  <g id="hedder">
    <g>
      <path class="cls-1" d="m8.56,10.53c1.92,1.7,4.28,2.94,6.52,3.74.25.09.34.25.34.43,0,.27-.24.54-.56.54-.43,0-4.07-1.66-6.7-4.12l.04,4.21c0,.27-.24.4-.47.4-.25,0-.49-.13-.49-.4l.04-4.21C4.54,13.78.87,15.37.52,15.37c-.31,0-.52-.25-.52-.49,0-.18.11-.34.36-.43,2.37-.83,4.62-2.17,6.45-3.92l-6.05.05c-.29,0-.43-.22-.43-.43s.14-.42.42-.42l6.54.02-.02-1.19v-.02c0-.27.24-.4.47-.4s.47.13.47.4v.02l-.04,1.19,6.63-.02c.27,0,.42.22.42.42,0,.22-.14.43-.42.43l-6.23-.05ZM.63,7.86c-.27,0-.45-.25-.45-.49,0-.16.11-.34.31-.42,1.45-.47,1.97-.76,2.98-1.46.09-.05.16-.09.23-.09.24,0,.4.23.4.47,0,.14-.07.29-.2.38-1.59,1.14-3.05,1.61-3.27,1.61ZM3.14,3.69c-.7-.65-1.73-1.23-2.22-1.45-.14-.07-.2-.16-.2-.29,0-.22.23-.49.51-.49.42,0,2.08,1.03,2.51,1.45.13.11.16.25.16.38,0,.27-.2.52-.45.52-.11,0-.22-.04-.31-.13Zm6-1.79c.94.04,1.37.63,1.41,1.28.04.72.07,1.61.07,2.38,0,.31,0,.6-.02.87-.02.78-.52,1.37-1.5,1.43-.36.02-.83.02-1.32.02s-.96,0-1.34-.02c-1.01-.04-1.55-.58-1.59-1.39-.02-.27-.02-.58-.02-.89,0-.78.04-1.63.05-2.29.02-.69.47-1.37,1.52-1.39.2,0,.4-.02.61-.02.11-.49.33-1.54.33-1.54.05-.23.27-.34.49-.34.25,0,.49.14.49.43,0,.18-.22.98-.38,1.45.43,0,.85,0,1.19.02Zm.61,2.53c0-1.81-.02-1.84-2.04-1.84-1.48,0-1.97.02-2.01.9,0,.23-.02.58-.02.94h4.06Zm-4.06.74v1.12c.04.89.81.89,2.08.89s1.95-.05,1.99-.92c.02-.29.02-.67.02-1.08h-4.08Zm6.07-1.12c-.25,0-.45-.25-.45-.49,0-.13.05-.25.2-.31.72-.33,1.73-.99,2.46-1.68.11-.11.22-.14.34-.14.25,0,.47.23.47.51,0,.13-.05.27-.2.4-.69.6-2.49,1.72-2.82,1.72Zm2.47,3.56c-.74-.65-1.75-1.16-2.51-1.46-.18-.07-.25-.2-.25-.34,0-.2.2-.43.45-.43.36,0,1.92.69,2.89,1.43.18.14.25.31.25.47,0,.25-.22.49-.47.49-.11,0-.23-.04-.36-.14Z"/>
      <path class="cls-1" d="m28.38,7.37c.99,3.22,3.76,5.96,6.59,6.76.27.07.4.29.4.51,0,.29-.2.56-.56.56-.85,0-5.64-2.4-7.12-7.33-1.64,6.31-7.06,7.52-7.17,7.52-.33,0-.56-.27-.56-.52,0-.2.13-.38.4-.47,3.78-1.14,5.8-3.88,6.5-7.01l-5.33.04c-.29,0-.45-.23-.45-.45,0-.23.16-.45.45-.45l5.47.02c.11-.74.14-1.1.14-2.24,0-.63,0-1.34-.02-1.77l-6.27.04c-.29,0-.45-.23-.45-.45,0-.23.16-.45.45-.45h13.51c.31,0,.45.22.45.45,0,.22-.14.45-.45.45l-6.23-.04c0,2.69-.04,3.04-.18,4.01l5.73-.02c.31,0,.45.22.45.45,0,.22-.14.45-.45.45l-5.31-.04Z"/>
      <path class="cls-1" d="m40.5,3.65c-.29,0-.45-.23-.45-.45,0-.23.16-.45.45-.45l6.5.02-.02-2.26c0-.33.25-.47.52-.47.25,0,.51.14.51.47l-.02,2.26,6.41-.02c.31,0,.45.22.45.45,0,.22-.14.45-.45.45h-13.91Zm12.79,8.44c0,1.17-.69,1.93-2.22,1.93-.38,0-.81-.05-1.3-.14-.23-.05-.34-.23-.34-.43,0-.25.16-.51.4-.51h.07c.45.09.83.13,1.17.13.79,0,1.23-.27,1.23-.99v-.04c0-.13,0-3.5-.02-4.08-.02-.6-.33-1.01-1.05-1.03-.89-.02-2.04-.02-3.23-.02l.02,8.29c0,.33-.25.49-.51.49s-.51-.16-.51-.49V6.9c-1.14,0-2.22.02-3.07.02-.72,0-1.08.4-1.1,1.1-.02.34-.02,1.26-.02,2.26,0,1.39,0,2.96.02,3.56v.02c0,.29-.23.43-.49.43s-.51-.14-.51-.47c0-.51-.02-1.73-.02-2.98s.02-2.51.02-3.04c.02-1.01.63-1.72,1.95-1.73.94-.02,2.06-.02,3.22-.02l.02-1.54c0-.29.24-.43.49-.43.23,0,.49.14.49.43v1.54c1.17,0,2.37,0,3.45.02,1.14.02,1.79.65,1.83,1.73.02.51.02,2.06.02,3.05v1.23Z"/>
      <path class="cls-1" d="m61.96,5.09h-1.83c-.27,0-.42-.2-.42-.4,0-.22.14-.43.42-.43h1.83l-.02-3.54c0-.31.24-.45.47-.45s.47.14.47.45l-.02,3.54h1.59c.27,0,.4.2.4.42,0,.2-.13.42-.4.42h-1.59l-.02,4.17c.61-.25,1.21-.52,1.7-.78.07-.04.13-.05.18-.05.22,0,.38.22.38.42,0,.16-.07.33-.27.42-.56.29-4.28,1.97-4.97,1.97-.29,0-.45-.22-.45-.45,0-.2.11-.38.34-.45.72-.2,1.48-.45,2.2-.72v-4.52Zm6.59,3.02c-.27.45-.6.9-.94,1.34,1.52-.02,3.72-.02,5.18-.02.96,0,1.57.51,1.57,1.61,0,.25-.11,1.79-.54,2.94-.4,1.08-1.23,1.61-2.33,1.61s-1.39-.29-1.39-.6c0-.23.14-.45.4-.45.05,0,.09,0,.14.02.31.09.6.13.87.13.67,0,1.17-.29,1.46-1.03.05-.14.49-1.64.49-2.62,0-.56-.27-.9-.89-.9h-.33c-1.41,3.97-4.16,5.64-4.7,5.64-.27,0-.45-.22-.45-.42,0-.14.07-.29.25-.38,1.92-.96,3.2-2.64,4.03-4.84h-1.73c-1.59,3.25-4.52,4.82-5,4.82-.29,0-.45-.23-.45-.45,0-.13.07-.27.24-.34,1.84-.79,3.38-2.15,4.32-4.03h-1.72c-1.55,1.72-3.16,2.64-3.49,2.64-.25,0-.43-.22-.43-.42,0-.14.07-.27.24-.36,1.75-.92,3.12-2.17,4.21-3.87h-2.49c-.27,0-.42-.2-.42-.4s.14-.4.42-.4h9.83c.27,0,.4.2.4.4s-.13.4-.4.4l-6.34-.02Zm1.01-2.06c-3.09,0-3.31-.22-3.31-2.1,0-.67.02-1.41.04-2.02.04-.74.58-1.35,1.66-1.39.51-.02,1.08-.04,1.64-.04s1.16.02,1.66.04c.99.04,1.57.6,1.63,1.26.04.51.05,1.1.05,1.68,0,2.37-.02,2.57-3.38,2.57Zm2.47-2.46h-4.9c0,.34,0,.67.02.9.04.72.43.79,2.31.79,2,0,2.53-.02,2.57-.83v-.87Zm0-.72c0-1.55-.02-1.59-2.13-1.59-.63,0-1.3,0-1.81.02-.94.02-.94.54-.94,1.57h4.88Z"/>
    </g>
  </g>
</svg>